<svg id="Layer_1" data-name="Layer 1" xmlns="http://www.w3.org/2000/svg" viewBox="0 0 200.72 200.71"><defs><style>.cls-1{font-size:15px;}.cls-1,.cls-2{fill:#001e36;font-family:Pretendard-Light-KSCpc-EUC-H, Pretendard;}.cls-2{font-size:15.36px;}</style></defs><title>글자원</title><text class="cls-1" transform="matrix(1, -0.03, 0.03, 1, 93.63, 14.77)">J</text><text class="cls-1" transform="matrix(1, 0.03, -0.03, 1, 101.06, 14.58)">I</text><text class="cls-1" transform="translate(104.38 14.5) rotate(6.45)">w</text><text class="cls-1" transform="translate(115.28 15.78) rotate(12.75)">o</text><text class="cls-1" transform="translate(123.2 17.57) rotate(18.16)">n</text><text class="cls-1" transform="matrix(0.93, 0.37, -0.37, 0.93, 130.85, 20.16)">’</text><text class="cls-1" transform="translate(132.48 20.73) rotate(24.44)">s</text><text class="cls-1" transform="translate(138.95 23.73) rotate(27.99)"> </text><text class="cls-1" transform="translate(142.01 25.24) rotate(32.04)">P</text><text class="cls-1" transform="matrix(0.79, 0.61, -0.61, 0.79, 149.26, 29.77)">o</text><text class="cls-1" transform="translate(155.72 34.81) rotate(41.88)">r</text><text class="cls-1" transform="translate(159.7 38.39) rotate(45.43)">t</text><text class="cls-1" transform="matrix(0.66, 0.75, -0.75, 0.66, 163.07, 41.81)">f</text><text class="cls-1" transform="translate(166.03 45.05) rotate(52.66)">o</text><text class="cls-1" transform="translate(170.95 51.63) rotate(56.39)">l</text><text class="cls-1" transform="matrix(0.52, 0.85, -0.85, 0.52, 172.65, 54.17)">i</text><text class="cls-1" transform="translate(174.27 56.65) rotate(62.16)">o</text><text class="cls-1" transform="translate(178.04 63.94) rotate(66.07)"> </text><text class="cls-1" transform="translate(179.5 67.06) rotate(69.71)">J</text><text class="cls-1" transform="translate(182.02 74.06) rotate(73.23)">i</text><text class="cls-1" transform="translate(183.04 76.8) rotate(78.01)">w</text><text class="cls-1" transform="translate(185.26 87.54) rotate(84.29)">o</text><text class="cls-1" transform="translate(186.04 95.62) rotate(89.07)">n</text><text class="cls-1" transform="translate(186.06 103.69) rotate(93.17)">’</text><text class="cls-1" transform="translate(186.04 105.46) rotate(95.78)">s</text><text class="cls-1" transform="translate(185.27 112.52) rotate(99.3)"> </text><text class="cls-1" transform="translate(184.82 115.91) rotate(103.37)">P</text><text class="cls-1" transform="translate(182.84 124.25) rotate(108.96)">o</text><text class="cls-1" transform="translate(180.13 131.96) rotate(113.32)">r</text><text class="cls-1" transform="translate(178.02 136.84) rotate(116.88)">t</text><text class="cls-1" transform="translate(175.83 141.16) rotate(120.09)">f</text><text class="cls-1" transform="translate(173.72 144.98) rotate(124.17)">o</text><text class="cls-1" transform="translate(169.03 151.74) rotate(127.91)">l</text><text class="cls-1" transform="translate(167.15 154.15) rotate(129.94)">i</text><text class="cls-1" transform="translate(165.31 156.49) rotate(133.65)">o</text><text class="cls-1" transform="translate(159.59 162.38) rotate(137.52)"> </text><text class="cls-1" transform="matrix(-0.78, 0.63, -0.63, -0.78, 157.09, 164.76)">J</text><text class="cls-1" transform="matrix(-0.81, 0.58, -0.58, -0.81, 151.29, 169.36)">i</text><text class="cls-1" transform="matrix(-0.86, 0.51, -0.51, -0.86, 148.98, 171.22)">w</text><text class="cls-1" transform="matrix(-0.91, 0.41, -0.41, -0.91, 139.53, 176.76)">o</text><text class="cls-1" transform="translate(132.13 180.12) rotate(161.04)">n</text><text class="cls-1" transform="translate(124.5 182.66) rotate(164.68)">’</text><text class="cls-1" transform="translate(122.82 183.2) rotate(167.31)">s</text><text class="cls-1" transform="matrix(-0.99, 0.16, -0.16, -0.99, 115.87, 184.72)"> </text><text class="cls-1" transform="translate(112.52 185.36) rotate(174.9)">P</text><text class="cls-1" transform="translate(104 186.16) rotate(-179.07)">o</text><text class="cls-1" transform="translate(95.78 186.01) rotate(-175.33)">r</text><text class="cls-1" transform="translate(90.47 185.57) rotate(-171.79)">t</text><text class="cls-1" transform="matrix(-0.98, -0.2, 0.2, -0.98, 85.71, 184.88)">f</text><text class="cls-1" transform="matrix(-0.96, -0.27, 0.27, -0.96, 81.41, 184.1)">o</text><text class="cls-1" transform="matrix(-0.94, -0.33, 0.33, -0.94, 73.51, 181.82)">l</text><text class="cls-1" transform="matrix(-0.93, -0.36, 0.36, -0.93, 70.64, 180.82)">i</text><text class="cls-1" transform="translate(67.81 179.81) rotate(-154.88)">o</text><text class="cls-1" transform="translate(60.42 176.27) rotate(-150.99)"> </text><text class="cls-1" transform="matrix(-0.84, -0.54, 0.54, -0.84, 57.36, 174.65)">J</text><text class="cls-1" transform="translate(51.16 170.6) rotate(-143.9)">i</text><text class="cls-1" transform="matrix(-0.76, -0.65, 0.65, -0.76, 48.68, 169.02)">w</text><text class="cls-1" transform="matrix(-0.68, -0.73, 0.73, -0.68, 40.42, 161.81)">o</text><text class="cls-1" transform="matrix(-0.61, -0.79, 0.79, -0.61, 34.88, 155.86)">n</text><text class="cls-1" transform="matrix(-0.56, -0.83, 0.83, -0.56, 30.01, 149.41)">’</text><text class="cls-1" transform="translate(28.99 148.03) rotate(-121.37)">s</text><text class="cls-1" transform="translate(25.33 141.93) rotate(-117.84)"> </text><text class="cls-1" transform="matrix(-0.4, -0.92, 0.92, -0.4, 23.63, 138.94)">P</text><text class="cls-1" transform="translate(20.19 131.12) rotate(-108.19)">o</text><text class="cls-1" transform="translate(17.68 123.31) rotate(-103.8)">r</text><text class="cls-1" transform="translate(16.42 118.15) rotate(-100.24)">t</text><text class="cls-1" transform="matrix(-0.12, -0.99, 0.99, -0.12, 15.56, 113.38)">f</text><text class="cls-1" transform="translate(14.94 109.05) rotate(-92.97)">o</text><text class="cls-1" transform="translate(14.59 100.85) rotate(-89.07)">l</text><text class="cls-1" transform="translate(14.63 97.79) rotate(-87.28)">i</text><text class="cls-1" transform="translate(14.69 94.8) rotate(-83.57)">o</text><text class="cls-1" transform="translate(15.68 86.65) rotate(-79.67)"> </text><text class="cls-1" transform="translate(16.23 83.27) rotate(-76.04)">J</text><text class="cls-1" transform="translate(18.08 76.07) rotate(-72.52)">i</text><text class="cls-1" transform="translate(18.79 73.21) rotate(-67.73)">w</text><text class="cls-1" transform="matrix(0.48, -0.88, 0.88, 0.48, 22.99, 63.1)">o</text><text class="cls-1" transform="translate(26.87 55.95) rotate(-56.07)">n</text><text class="cls-1" transform="matrix(0.61, -0.79, 0.79, 0.61, 31.45, 49.29)">’</text><text class="cls-1" transform="translate(32.44 47.87) rotate(-49.85)">s</text><text class="cls-2" transform="matrix(0.69, -0.72, 0.72, 0.69, 37.06, 42.48)"> </text><text class="cls-2" transform="translate(39.4 39.87) rotate(-42.2)">P</text><text class="cls-2" transform="translate(45.89 33.98) rotate(-36.56)">o</text><text class="cls-2" transform="matrix(0.85, -0.53, 0.53, 0.85, 52.65, 29.03)">r</text><text class="cls-2" transform="translate(57.3 26.13) rotate(-28.47)">t</text><text class="cls-2" transform="matrix(0.9, -0.43, 0.43, 0.9, 61.65, 23.77)">f</text><text class="cls-2" transform="translate(65.67 21.78) rotate(-20.97)">o</text><text class="cls-2" transform="translate(73.54 18.86) rotate(-17.12)">l</text><text class="cls-2" transform="matrix(0.97, -0.26, 0.26, 0.97, 76.52, 17.94)">i</text><text class="cls-2" transform="translate(79.45 17.05) rotate(-11.16)">o</text><text class="cls-2" transform="matrix(0.99, -0.12, 0.12, 0.99, 87.7, 15.5)"> </text></svg>