<svg id="Layer_1" data-name="Layer 1" xmlns="http://www.w3.org/2000/svg" viewBox="0 0 333 259.5"><defs><style>.cls-1{fill:#bfe2ea;}.cls-2{fill:#fff;}.cls-3{fill:#5d5b56;}.cls-4{font-size:15px;font-family:Pretendard-Light-KSCpc-EUC-H, Pretendard;}.cls-5{fill:#f4e192;}.cls-6{fill:#ffcfcb;}.cls-7{fill:#ff9f9a;}.cls-8{fill:#f8cec6;}.cls-9{fill:#666;}.cls-10{fill:#63ae69;}.cls-11{fill:#77c47e;}.cls-12{fill:#d8ab68;}.cls-13{fill:#c3955a;}.cls-14{fill:#fe0;}.cls-15{fill:#f08cb9;}.cls-16{fill:#ffc166;}.cls-17{fill:#865a47;}.cls-18{fill:#875a47;}.cls-19{fill:#ff6161;}.cls-20{fill:#ffb593;}.cls-21{fill:#603813;}.cls-22{fill:#fddac3;}.cls-23{fill:#fcb49a;}.cls-24{fill:#ff9572;}.cls-25{fill:#c4c9d1;}</style></defs><title>컴퓨터</title><g id="선_깬_후" data-name="선 깬 후"><rect class="cls-1" x="148.14" y="171" width="65" height="36"/><path d="M303.46,302.49h-65a.5.5,0,0,1-.5-.5V266a.5.5,0,0,1,.5-.5h65a.5.5,0,0,1,.5.5v36A.5.5,0,0,1,303.46,302.49Zm-64.5-1h64v-35H239Z" transform="translate(-90.33 -94.99)"/><polygon class="cls-1" points="227.14 220.5 134.14 220.5 148.14 207 213.14 207 227.14 220.5"/><path d="M317.46,316h-93a.5.5,0,0,1-.46-.31.49.49,0,0,1,.12-.55l14-13.5a.48.48,0,0,1,.34-.14h65a.5.5,0,0,1,.35.14l14,13.5a.51.51,0,0,1,.12.55A.5.5,0,0,1,317.46,316Zm-91.76-1h90.52l-13-12.5H238.67Z" transform="translate(-90.33 -94.99)"/><rect class="cls-1" x="44.64" y="0.5" width="272" height="180" rx="10.67"/><path d="M396.29,276H145.64a11.19,11.19,0,0,1-11.18-11.17V106.16A11.19,11.19,0,0,1,145.64,95H396.29a11.18,11.18,0,0,1,11.17,11.17V264.82A11.18,11.18,0,0,1,396.29,276ZM145.64,96a10.19,10.19,0,0,0-10.18,10.17V264.82A10.19,10.19,0,0,0,145.64,275H396.29a10.18,10.18,0,0,0,10.17-10.17V106.16A10.18,10.18,0,0,0,396.29,96Z" transform="translate(-90.33 -94.99)"/><rect class="cls-2" x="57.64" y="12.5" width="246" height="146" rx="11.2"/><path d="M382.77,254H159.16a11.72,11.72,0,0,1-11.7-11.7V118.68A11.71,11.71,0,0,1,159.16,107H382.77a11.7,11.7,0,0,1,11.69,11.69V242.29A11.71,11.71,0,0,1,382.77,254ZM159.16,108a10.71,10.71,0,0,0-10.7,10.69V242.29a10.71,10.71,0,0,0,10.7,10.7H382.77a10.7,10.7,0,0,0,10.69-10.7V118.68A10.7,10.7,0,0,0,382.77,108Z" transform="translate(-90.33 -94.99)"/><rect class="cls-1" x="127.14" y="220" width="107" height="7" rx="3.5"/><path d="M321,322.49H221a4,4,0,0,1,0-8H321a4,4,0,1,1,0,8Zm-100-7a3,3,0,0,0,0,6H321a3,3,0,1,0,0-6Z" transform="translate(-90.33 -94.99)"/><path d="M370.83,314.49a.5.5,0,0,1-.48-.34c-1.68-5-4.3-8.62-7.78-10.73-3.33-2-6.74-1.73-10-1.46-2.61.22-5.31.45-7.89-.5-16-5.9-22.64-20.85-24.29-25.3a.5.5,0,1,1,.93-.34c1.62,4.34,8.08,18.95,23.71,24.7,2.37.87,4.84.66,7.46.45,3.45-.29,7-.59,10.62,1.59s6.46,6,8.22,11.27a.49.49,0,0,1-.31.63Z" transform="translate(-90.33 -94.99)"/><path class="cls-3" d="M278.5,215.18h0a20.89,20.89,0,0,1,20.89,20.89V237a0,0,0,0,1,0,0H257.61a0,0,0,0,1,0,0v-.93A20.89,20.89,0,0,1,278.5,215.18Z"/><path d="M389.72,332.49H347.93a.5.5,0,0,1-.5-.5v-.93a21.4,21.4,0,0,1,42.79,0V332A.5.5,0,0,1,389.72,332.49Zm-41.29-1h40.79v-.43a20.4,20.4,0,0,0-40.79,0Z" transform="translate(-90.33 -94.99)"/><text class="cls-4" transform="translate(67.96 37.59)">&lt;html&gt;&lt;/html&gt;</text><path class="cls-5" d="M71.75,208.51H87.08a20.63,20.63,0,0,1,20.63,20.63v0a0,0,0,0,1,0,0H51.12a0,0,0,0,1,0,0v0A20.63,20.63,0,0,1,71.75,208.51Z"/><path d="M198,324.64H141.45a.5.5,0,0,1-.5-.5A21.16,21.16,0,0,1,162.08,303h15.33a21.16,21.16,0,0,1,21.13,21.14A.5.5,0,0,1,198,324.64Zm-56.09-1h55.58A20.15,20.15,0,0,0,177.41,304H162.08A20.17,20.17,0,0,0,142,323.64Z" transform="translate(-90.33 -94.99)"/><ellipse class="cls-6" cx="159.68" cy="297.19" rx="7.98" ry="4.54" transform="translate(-266.47 234.51) rotate(-67.25)"/><path d="M157.66,305.26a3.18,3.18,0,0,1-1.26-.25c-1.29-.54-2.13-1.89-2.36-3.79a12.21,12.21,0,0,1,1-6c1.84-4.38,5.32-7,7.93-5.87,1.29.54,2.13,1.89,2.36,3.8a12.15,12.15,0,0,1-1,6h0a12.11,12.11,0,0,1-3.57,4.89A5.14,5.14,0,0,1,157.66,305.26Zm4.05-15.13c-1.94,0-4.4,2.26-5.76,5.5a11.23,11.23,0,0,0-.92,5.47,3.45,3.45,0,0,0,1.76,3,3.41,3.41,0,0,0,3.36-.85,11,11,0,0,0,3.25-4.48h0a11.11,11.11,0,0,0,.92-5.47c-.18-1.53-.8-2.6-1.75-3A2.1,2.1,0,0,0,161.71,290.13Z" transform="translate(-90.33 -94.99)"/><ellipse class="cls-6" cx="178.63" cy="297.19" rx="4.54" ry="7.98" transform="translate(-191.37 -2.77) rotate(-22.75)"/><path d="M180.65,305.26a5.14,5.14,0,0,1-3.1-1.23,12.11,12.11,0,0,1-3.57-4.89h0a12.15,12.15,0,0,1-1-6c.23-1.91,1.07-3.26,2.36-3.8,2.6-1.09,6.09,1.49,7.93,5.87s1.24,8.68-1.37,9.77A3.18,3.18,0,0,1,180.65,305.26Zm-5.74-6.5a11,11,0,0,0,3.25,4.48,3.41,3.41,0,0,0,3.36.85c2-.85,2.4-4.72.83-8.46s-4.6-6.18-6.61-5.33c-1,.39-1.57,1.46-1.76,3a11.13,11.13,0,0,0,.93,5.47Z" transform="translate(-90.33 -94.99)"/><path class="cls-6" d="M172.53,310.82H166c-6.23,0-10.18-3.83-9.38-9.93l3.13-11c1-3.64,4.91-6.2,9.38-6.2h0c4.38,0,8.21,2.47,9.32,6l3.44,11C183,305.81,178.84,310.82,172.53,310.82Z" transform="translate(-90.33 -94.99)"/><path d="M172.53,311.32H166a10.32,10.32,0,0,1-8-3.12,9,9,0,0,1-1.92-7.38l3.14-11.06c1.1-3.86,5.15-6.56,9.86-6.56s8.62,2.62,9.79,6.37l3.45,11a8.27,8.27,0,0,1-1.62,7.05A10.31,10.31,0,0,1,172.53,311.32Zm-3.44-27.12c-4.26,0-7.92,2.4-8.9,5.83l-3.13,11a8.06,8.06,0,0,0,1.7,6.51,9.35,9.35,0,0,0,7.2,2.78h6.57a9.31,9.31,0,0,0,7.39-3.33,7.23,7.23,0,0,0,1.44-6.16l-3.43-11C176.89,286.53,173.25,284.2,169.09,284.2Z" transform="translate(-90.33 -94.99)"/><circle class="cls-6" cx="78.91" cy="186.06" r="13.56"/><path d="M169.24,295.11a14.06,14.06,0,1,1,14-14.06A14.07,14.07,0,0,1,169.24,295.11Zm0-27.12a13.06,13.06,0,1,0,13,13.06A13.08,13.08,0,0,0,169.24,268Z" transform="translate(-90.33 -94.99)"/><ellipse class="cls-6" cx="160.61" cy="306.4" rx="5.6" ry="9.43" transform="translate(-253.49 89.56) rotate(-41.71)"/><path d="M164.23,314.85c-2.54,0-5.68-1.59-8.18-4.39-3.64-4.09-4.56-9.24-2.05-11.48s7.52-.73,11.16,3.36a13.64,13.64,0,0,1,3.33,6.3c.43,2.22,0,4.05-1.27,5.17A4.41,4.41,0,0,1,164.23,314.85ZM157,298.92a3.48,3.48,0,0,0-2.37.81c-2.1,1.87-1.14,6.38,2.14,10.06s7.65,5.15,9.75,3.27c1-.87,1.32-2.37,1-4.22a12.79,12.79,0,0,0-3.1-5.84h0C162.1,300.41,159.25,298.92,157,298.92Z" transform="translate(-90.33 -94.99)"/><ellipse class="cls-6" cx="178.29" cy="306.4" rx="9.43" ry="5.6" transform="translate(-259.39 140.62) rotate(-48.29)"/><path d="M174.67,314.85a4.41,4.41,0,0,1-3-1c-1.25-1.12-1.7-2.95-1.27-5.17a13.64,13.64,0,0,1,3.33-6.3h0c3.64-4.09,8.65-5.6,11.16-3.36s1.59,7.39-2.05,11.48C180.35,313.26,177.21,314.85,174.67,314.85Zm7.2-15.93c-2.22,0-5.07,1.49-7.39,4.08h0a12.86,12.86,0,0,0-3.09,5.84c-.36,1.85,0,3.35,1,4.22,2.1,1.88,6.47.41,9.75-3.27s4.23-8.19,2.14-10.06A3.48,3.48,0,0,0,181.87,298.92Z" transform="translate(-90.33 -94.99)"/><ellipse cx="72.64" cy="183.55" rx="1.47" ry="1.62"/><ellipse cx="85.02" cy="183.55" rx="1.47" ry="1.62"/><path d="M169.29,286.8a17.4,17.4,0,0,1-9-2.53.5.5,0,1,1,.57-.82,15.69,15.69,0,0,0,17.12-.33.51.51,0,0,1,.7.15.5.5,0,0,1-.15.69A16.72,16.72,0,0,1,169.29,286.8Z" transform="translate(-90.33 -94.99)"/><path class="cls-2" d="M172.33,297.19a1.82,1.82,0,0,0-1.38.18,1.87,1.87,0,1,0-3.7.55,1.87,1.87,0,0,0-1.83,3,1.81,1.81,0,0,0,1.22.67,1.84,1.84,0,0,0-.12,1.62,1.87,1.87,0,0,0,3.44.1,1.87,1.87,0,1,0,2.66-2.62,1.87,1.87,0,0,0-.29-3.52Z" transform="translate(-90.33 -94.99)"/><path d="M168.26,304.92a2.37,2.37,0,0,1-2.21-1.51A2.43,2.43,0,0,1,166,302a2.34,2.34,0,0,1-.93-.69,2.38,2.38,0,0,1-.53-1.74,2.35,2.35,0,0,1,.86-1.6,2.31,2.31,0,0,1,1.36-.53,2.38,2.38,0,0,1,3.65-1.82,2.32,2.32,0,0,1,.92,1.13,2.28,2.28,0,0,1,1.16,0,2.34,2.34,0,0,1,1.45,1.1,2.37,2.37,0,0,1,.25,1.8,2.31,2.31,0,0,1-.79,1.23,2.27,2.27,0,0,1,.35,1.11,2.37,2.37,0,0,1-3.64,2.14,2.41,2.41,0,0,1-1.81.84Zm-1.4-6.54a1.4,1.4,0,0,0-.87.31,1.39,1.39,0,0,0-.19,1.94,1.42,1.42,0,0,0,.9.49.5.5,0,0,1,.37.74,1.37,1.37,0,0,0,1.69,2,1.34,1.34,0,0,0,.74-.7.52.52,0,0,1,.38-.28.49.49,0,0,1,.45.16,1.38,1.38,0,0,0,1.1.45,1.33,1.33,0,0,0,.94-.46,1.34,1.34,0,0,0,.35-1,1.36,1.36,0,0,0-.44-.92.51.51,0,0,1-.15-.45.48.48,0,0,1,.29-.38,1.34,1.34,0,0,0,.76-.9,1.36,1.36,0,0,0-1-1.68h0a1.37,1.37,0,0,0-1,.13.49.49,0,0,1-.47,0,.5.5,0,0,1-.27-.39,1.34,1.34,0,0,0-.62-1,1.36,1.36,0,0,0-1-.19,1.4,1.4,0,0,0-.86.6,1.38,1.38,0,0,0-.19,1,.51.51,0,0,1-.14.45.47.47,0,0,1-.45.13A1.43,1.43,0,0,0,166.86,298.38Z" transform="translate(-90.33 -94.99)"/><path class="cls-7" d="M145.3,322.64c-2.39,2.9-7.12,3-7.12,3s-.85-4.65,1.54-7.56,7.11-3,7.11-3S147.69,319.74,145.3,322.64Z" transform="translate(-90.33 -94.99)"/><path d="M137.76,326.1l-.07-.41c0-.2-.87-4.92,1.64-8s7.3-3.14,7.5-3.14h.42l.08.41c0,.2.86,4.92-1.65,8s-7.29,3.14-7.5,3.14Zm8.64-10.49c-1.19.1-4.5.56-6.3,2.75s-1.62,5.53-1.49,6.71c1.19-.09,4.5-.56,6.3-2.75h0C146.71,320.13,146.53,316.8,146.4,315.61Z" transform="translate(-90.33 -94.99)"/><path class="cls-8" d="M149.65,323.48c-.2,3.76-4,6.61-4,6.61s-3.45-3.24-3.25-7,4-6.61,4-6.61S149.86,319.73,149.65,323.48Z" transform="translate(-90.33 -94.99)"/><path d="M145.64,330.74l-.3-.29c-.15-.14-3.62-3.44-3.41-7.38s4-6.86,4.18-7l.33-.25.31.29c.15.14,3.61,3.44,3.4,7.38s-4,6.86-4.17,7Zm.73-13.57c-.9.78-3.28,3.12-3.44,5.95s2,5.41,2.78,6.29c.9-.78,3.29-3.12,3.44-6S147.18,318.05,146.37,317.17Z" transform="translate(-90.33 -94.99)"/><path class="cls-7" d="M200.71,322.22c-1.34,3.51-5.8,5.08-5.8,5.08s-2.29-4.14-1-7.65,5.8-5.08,5.8-5.08S202.05,318.7,200.71,322.22Z" transform="translate(-90.33 -94.99)"/><path d="M194.68,327.91l-.2-.37c-.1-.18-2.4-4.38-1-8.07s5.9-5.31,6.1-5.37L200,314l.21.36c.1.18,2.39,4.38,1,8.07s-5.91,5.31-6.1,5.38Zm4.83-12.71c-1.09.48-4.08,2-5.09,4.63s.23,5.75.73,6.83c1.1-.47,4.09-2,5.09-4.62S200,316.28,199.51,315.2Z" transform="translate(-90.33 -94.99)"/><path class="cls-8" d="M194.26,322.11c1.23,3.55-1.18,7.61-1.18,7.61s-4.42-1.69-5.65-5.25,1.19-7.61,1.19-7.61S193,318.55,194.26,322.11Z" transform="translate(-90.33 -94.99)"/><path d="M193.29,330.34l-.39-.15c-.19-.07-4.65-1.82-5.94-5.55s1.12-7.87,1.23-8l.21-.36.4.15c.19.07,4.64,1.82,5.93,5.55h0c1.3,3.73-1.12,7.87-1.22,8Zm-4.45-12.84c-.54,1.06-1.86,4.13-.94,6.81s3.87,4.27,4.95,4.77c.54-1.06,1.87-4.13.94-6.81h0C192.86,319.58,189.92,318,188.84,317.5Z" transform="translate(-90.33 -94.99)"/><rect class="cls-9" x="70.5" y="222" width="18" height="4"/><path d="M179.33,321.49h-19v-5h19Zm-18-1h17v-3h-17Z" transform="translate(-90.33 -94.99)"/><path class="cls-10" d="M117.41,253.13a9.93,9.93,0,0,1-10.07,16.54,9.93,9.93,0,1,0,10.07-16.54Z" transform="translate(-90.33 -94.99)"/><path d="M114.28,273.49a11,11,0,0,1-7.63-3.1l-3.15-3.06,4.16,1.4a8.94,8.94,0,0,0,11.61-10.07,8.82,8.82,0,0,0-2.56-4.81l-3.15-3.06,4.16,1.39a10.93,10.93,0,0,1-1.5,21.13A10.69,10.69,0,0,1,114.28,273.49Zm-2.56-2.38A8.92,8.92,0,0,0,123.05,261a8.88,8.88,0,0,0-2.35-4.59,10.4,10.4,0,0,1,.54,1.93A11,11,0,0,1,112.43,271Z" transform="translate(-90.33 -94.99)"/><path class="cls-11" d="M120.25,258.48a9.9,9.9,0,0,0-2.84-5.35,10,10,0,0,0-4.92-.35,9.93,9.93,0,0,0-5.15,16.89,9.81,9.81,0,0,0,4.92.35A9.92,9.92,0,0,0,120.25,258.48Z" transform="translate(-90.33 -94.99)"/><path d="M110.48,271.18a10.93,10.93,0,0,1-3.45-.56l-.22-.07-.16-.16a10.93,10.93,0,0,1,5.66-18.59,11,11,0,0,1,5.41.38l.22.08.16.15a10.9,10.9,0,0,1,3.14,5.89h0A11,11,0,0,1,112.43,271,11.58,11.58,0,0,1,110.48,271.18Zm-2.6-2.39a8.93,8.93,0,0,0,9-14.78,8.93,8.93,0,0,0-11.39,10.14A8.81,8.81,0,0,0,107.88,268.79Z" transform="translate(-90.33 -94.99)"/><path class="cls-10" d="M117.41,253.13a9.93,9.93,0,0,1-10.07,16.54,9.93,9.93,0,1,0,10.07-16.54Z" transform="translate(-90.33 -94.99)"/><path class="cls-11" d="M120.25,258.48a9.9,9.9,0,0,0-2.84-5.35,10,10,0,0,0-4.92-.35,9.93,9.93,0,0,0-5.15,16.89,9.81,9.81,0,0,0,4.92.35A9.92,9.92,0,0,0,120.25,258.48Z" transform="translate(-90.33 -94.99)"/><path class="cls-10" d="M119.45,266.51a15.36,15.36,0,0,1-19.88,22.4,15.36,15.36,0,1,0,19.88-22.4Z" transform="translate(-90.33 -94.99)"/><path d="M112.07,296.35a16.4,16.4,0,0,1-13.32-6.86l-2.55-3.57,3.85,2.11a14.36,14.36,0,0,0,18.58-20.94l-2.55-3.57,3.85,2.12a16.36,16.36,0,0,1-7.86,30.71Zm-8.71-5a14.36,14.36,0,0,0,19-21.41A16.37,16.37,0,0,1,107,291.8,16.6,16.6,0,0,1,103.36,291.4Z" transform="translate(-90.33 -94.99)"/><path class="cls-11" d="M122.31,275.43a15.3,15.3,0,0,0-2.86-8.92,15.36,15.36,0,0,0-19.88,22.4,15.36,15.36,0,0,0,22.74-13.48Z" transform="translate(-90.33 -94.99)"/><path d="M107,291.8a16.41,16.41,0,0,1-7.86-2l-.2-.11-.14-.19a16.36,16.36,0,0,1,21.18-23.85l.2.1.13.19A16.36,16.36,0,0,1,107,291.8Zm-6.7-3.66a14.36,14.36,0,0,0,18.52-20.86A14.36,14.36,0,0,0,97.71,280,14.22,14.22,0,0,0,100.25,288.14Z" transform="translate(-90.33 -94.99)"/><path class="cls-10" d="M119.45,266.51a15.36,15.36,0,0,1-19.88,22.4,15.36,15.36,0,1,0,19.88-22.4Z" transform="translate(-90.33 -94.99)"/><path class="cls-11" d="M122.31,275.43a15.3,15.3,0,0,0-2.86-8.92,15.36,15.36,0,0,0-19.88,22.4,15.36,15.36,0,0,0,22.74-13.48Z" transform="translate(-90.33 -94.99)"/><path class="cls-10" d="M125.12,282.93a7.54,7.54,0,0,1-7.64,12.56,7.54,7.54,0,1,0,7.64-12.56Z" transform="translate(-90.33 -94.99)"/><path d="M122.75,298.62a8.58,8.58,0,0,1-6-2.41l-3.14-3.06,4.16,1.39a6.54,6.54,0,0,0,8.5-7.37,6.47,6.47,0,0,0-1.88-3.52l-3.15-3.06,4.17,1.39a8.53,8.53,0,0,1-2.69,16.64Zm-.69-2a6.68,6.68,0,0,0,1.84-.07,6.53,6.53,0,0,0,4.3-10c0,.1.05.21.07.31A8.56,8.56,0,0,1,122.06,296.59Z" transform="translate(-90.33 -94.99)"/><path class="cls-11" d="M127.28,287a7.49,7.49,0,0,0-2.16-4.06,7.43,7.43,0,0,0-3.73-.26,7.54,7.54,0,0,0-3.91,12.82,7.43,7.43,0,0,0,3.73.26A7.52,7.52,0,0,0,127.28,287Z" transform="translate(-90.33 -94.99)"/><path d="M119.86,296.87a8.57,8.57,0,0,1-2.7-.43l-.21-.07-.17-.16a8.54,8.54,0,0,1,4.43-14.53,8.67,8.67,0,0,1,4.23.3l.21.08.17.16a8.53,8.53,0,0,1-4.43,14.52A8.78,8.78,0,0,1,119.86,296.87ZM118,294.61a6.54,6.54,0,0,0,6.56-10.8,6.66,6.66,0,0,0-3-.16,6.56,6.56,0,0,0-5.27,7.6A6.42,6.42,0,0,0,118,294.61Z" transform="translate(-90.33 -94.99)"/><path class="cls-10" d="M125.12,282.93a7.54,7.54,0,0,1-7.64,12.56,7.54,7.54,0,1,0,7.64-12.56Z" transform="translate(-90.33 -94.99)"/><path class="cls-11" d="M127.28,287a7.49,7.49,0,0,0-2.16-4.06,7.43,7.43,0,0,0-3.73-.26,7.54,7.54,0,0,0-3.91,12.82,7.43,7.43,0,0,0,3.73.26A7.52,7.52,0,0,0,127.28,287Z" transform="translate(-90.33 -94.99)"/><path class="cls-12" d="M131.09,303.92l.68-5.13a4.88,4.88,0,0,0-4.84-5.53H99.36a4.88,4.88,0,0,0-4.84,5.53l3.06,23a4.93,4.93,0,0,0,.5,1.59C113.8,320.52,125.35,310.19,131.09,303.92Z" transform="translate(-90.33 -94.99)"/><path d="M97.53,324.46l-.33-.66a5.67,5.67,0,0,1-.61-1.92l-3.06-22.95a5.88,5.88,0,0,1,5.83-6.67h27.57a5.88,5.88,0,0,1,5.83,6.67l-.72,5.44-.21.23c-5.61,6.12-17.43,16.83-33.57,19.73Zm1.83-30.2a3.89,3.89,0,0,0-3.85,4.4l3.06,23a3.87,3.87,0,0,0,.13.59c15-3,26-12.86,31.44-18.73l.64-4.82a3.89,3.89,0,0,0-3.85-4.4Z" transform="translate(-90.33 -94.99)"/><path class="cls-13" d="M98.08,323.34a4.88,4.88,0,0,0,4.34,2.65h21.45a4.88,4.88,0,0,0,4.84-4.24l2.38-17.83C125.35,310.19,113.8,320.52,98.08,323.34Z" transform="translate(-90.33 -94.99)"/><path d="M123.87,327H102.42a5.84,5.84,0,0,1-5.22-3.19l-.63-1.2,1.34-.24c15.56-2.8,27-13.18,32.44-19.11l2.15-2.35-2.8,21A5.91,5.91,0,0,1,123.87,327Zm-24-3a3.88,3.88,0,0,0,2.57,1h21.45a3.9,3.9,0,0,0,3.85-3.37l2-14.79C123.73,312.81,113.38,321.11,99.85,324Z" transform="translate(-90.33 -94.99)"/><path class="cls-12" d="M131.09,303.92l.68-5.13a4.88,4.88,0,0,0-4.84-5.53H99.36a4.88,4.88,0,0,0-4.84,5.53l3.06,23a4.93,4.93,0,0,0,.5,1.59C113.8,320.52,125.35,310.19,131.09,303.92Z" transform="translate(-90.33 -94.99)"/><path class="cls-13" d="M98.08,323.34a4.88,4.88,0,0,0,4.34,2.65h21.45a4.88,4.88,0,0,0,4.84-4.24l2.38-17.83C125.35,310.19,113.8,320.52,98.08,323.34Z" transform="translate(-90.33 -94.99)"/><path class="cls-13" d="M132.53,288.08h-1.39c0,.06,0,.13,0,.19v3.16a3.47,3.47,0,0,1-3.47,3.47H91.33v.84a2.43,2.43,0,0,0,2.43,2.43h38.77a2.43,2.43,0,0,0,2.43-2.43v-5.23A2.43,2.43,0,0,0,132.53,288.08Z" transform="translate(-90.33 -94.99)"/><path d="M132.53,299.17H93.76a3.44,3.44,0,0,1-3.43-3.43V293.9h37.35a2.48,2.48,0,0,0,2.47-2.47v-3.3l-.06-1.05h2.45a3.44,3.44,0,0,1,3.43,3.43v5.23A3.44,3.44,0,0,1,132.53,299.17Zm-40.2-3.27a1.44,1.44,0,0,0,1.43,1.27h38.77a1.43,1.43,0,0,0,1.43-1.43v-5.23a1.43,1.43,0,0,0-1.43-1.43h-.38v2.35a4.48,4.48,0,0,1-4.47,4.47Z" transform="translate(-90.33 -94.99)"/><path class="cls-12" d="M131.15,291.43v-3.16c0-.06,0-.13,0-.19H93.76a2.43,2.43,0,0,0-2.43,2.43v4.39h36.35A3.47,3.47,0,0,0,131.15,291.43Z" transform="translate(-90.33 -94.99)"/><path d="M127.68,295.9H90.33v-5.39a3.44,3.44,0,0,1,3.43-3.43h38.32l0,.95c0,.11,0,.17,0,.24v3.16A4.48,4.48,0,0,1,127.68,295.9Zm-35.35-2h35.35a2.48,2.48,0,0,0,2.47-2.47v-2.35H93.76a1.43,1.43,0,0,0-1.43,1.43Z" transform="translate(-90.33 -94.99)"/><path class="cls-13" d="M132.53,288.08h-1.39c0,.06,0,.13,0,.19v3.16a3.47,3.47,0,0,1-3.47,3.47H91.33v.84a2.43,2.43,0,0,0,2.43,2.43h38.77a2.43,2.43,0,0,0,2.43-2.43v-5.23A2.43,2.43,0,0,0,132.53,288.08Z" transform="translate(-90.33 -94.99)"/><path class="cls-12" d="M131.15,291.43v-3.16c0-.06,0-.13,0-.19H93.76a2.43,2.43,0,0,0-2.43,2.43v4.39h36.35A3.47,3.47,0,0,0,131.15,291.43Z" transform="translate(-90.33 -94.99)"/><path d="M115,251.71a.39.39,0,0,1-.26,0l0,0c-.09-.1,0,0,0,0l.14.25.3.54.59,1.07a.5.5,0,1,0,.86-.51l-.69-1.25-.33-.6a.77.77,0,0,0-.86-.45.5.5,0,1,0,.27,1Z" transform="translate(-90.33 -94.99)"/><path d="M116.9,264.48a21.29,21.29,0,0,1,1.25,2.36.49.49,0,0,0,.68.18.5.5,0,0,0,.18-.68,19.12,19.12,0,0,0-1.25-2.37.5.5,0,1,0-.86.51Z" transform="translate(-90.33 -94.99)"/><path d="M122.37,281.29c.26.73.56,1.45.89,2.15a.5.5,0,0,0,.69.18.51.51,0,0,0,.17-.68c-.07-.17-.15-.33-.22-.5s-.08-.17-.11-.26-.06-.13,0,0l-.06-.13-.39-1a.5.5,0,1,0-1,.27Z" transform="translate(-90.33 -94.99)"/><path d="M99.14,268.24a6.82,6.82,0,0,0,.64,3.33.49.49,0,0,0,.68.18.5.5,0,0,0,.18-.68,6.13,6.13,0,0,1-.25-.66c-.07-.24-.13-.48-.18-.73a4.45,4.45,0,0,1-.07-.66,5.08,5.08,0,0,1,0-.78.5.5,0,0,0-.5-.5.51.51,0,0,0-.5.5Z" transform="translate(-90.33 -94.99)"/><path d="M102.24,278a29.39,29.39,0,0,0,1.09,3.2.5.5,0,1,0,1-.27,32.39,32.39,0,0,1-1.09-3.19.51.51,0,0,0-.61-.35.5.5,0,0,0-.35.61Z" transform="translate(-90.33 -94.99)"/><path d="M106,254.06a14.24,14.24,0,0,0,1,2.28.52.52,0,0,0,.69.18.53.53,0,0,0,.18-.69c-.09-.16-.17-.33-.26-.5s-.08-.17-.11-.26a1,1,0,0,1-.07-.15l0-.07v0c-.15-.36-.28-.72-.4-1.08a.5.5,0,0,0-1,.26Z" transform="translate(-90.33 -94.99)"/><path d="M113.77,259.7v1.92a.5.5,0,0,0,.5.5.51.51,0,0,0,.5-.5V259.7a.5.5,0,0,0-1,0Z" transform="translate(-90.33 -94.99)"/><path d="M126.71,272.83v0l0-.13a2.22,2.22,0,0,1-.17.61l0-.12a1.92,1.92,0,0,1-.29.5l.08-.1-.11.13a.53.53,0,0,0-.15.36.51.51,0,0,0,.5.5.53.53,0,0,0,.36-.15,2.74,2.74,0,0,0,.46-.7c.06-.14.12-.29.17-.43s.06-.32.09-.49a.51.51,0,0,0-.15-.35.5.5,0,0,0-.71,0l-.08.1a.54.54,0,0,0-.06.25Z" transform="translate(-90.33 -94.99)"/><path d="M128.17,286.25l1.72-.93a.5.5,0,1,0-.51-.86l-1.72.93a.5.5,0,1,0,.51.86Z" transform="translate(-90.33 -94.99)"/><path d="M109.3,272.75l.33,1.06a.5.5,0,0,0,.23.3.46.46,0,0,0,.38.05.5.5,0,0,0,.3-.23.5.5,0,0,0,0-.38l-.33-1.07a.44.44,0,0,0-.23-.29.5.5,0,0,0-.38-.06.5.5,0,0,0-.35.62Z" transform="translate(-90.33 -94.99)"/><path d="M118.62,273.45a7.23,7.23,0,0,1-.25,1l-.09.24a.69.69,0,0,0,0,.13c0,.1,0-.09,0,0s-.15.32-.24.48a.52.52,0,0,0,.18.69.51.51,0,0,0,.69-.18,7,7,0,0,0,.73-2.14.56.56,0,0,0,0-.38.5.5,0,0,0-.91.12Z" transform="translate(-90.33 -94.99)"/><path d="M110.35,283.18a2.37,2.37,0,0,0,.39,1.32.5.5,0,0,0,.3.23.46.46,0,0,0,.38-.05.5.5,0,0,0,.23-.3.46.46,0,0,0-.05-.38,1.87,1.87,0,0,1-.17-.31l0,.12a2.14,2.14,0,0,1-.13-.48l0,.13a2.64,2.64,0,0,1,0-.28.46.46,0,0,0-.14-.35.53.53,0,0,0-.36-.15.51.51,0,0,0-.5.5Z" transform="translate(-90.33 -94.99)"/><path d="M95.12,282.35a14.82,14.82,0,0,1,2.14,1.26.51.51,0,0,0,.69-.18.53.53,0,0,0-.18-.69,14,14,0,0,0-2.15-1.25.5.5,0,0,0-.68.18.49.49,0,0,0,.18.68Z" transform="translate(-90.33 -94.99)"/><path d="M106.62,264.08a3.67,3.67,0,0,0,.59,2.39.52.52,0,0,0,.69.18.52.52,0,0,0,.18-.69,4.39,4.39,0,0,1-.27-.47c0-.05,0-.05,0,0l0-.07a.58.58,0,0,1,0-.14,2.17,2.17,0,0,1-.07-.24,1.84,1.84,0,0,1-.05-.25l0-.07c0,.07,0,.08,0,0s0-.1,0-.15a3.25,3.25,0,0,1,0-.54.5.5,0,0,0-.5-.5.51.51,0,0,0-.5.5Z" transform="translate(-90.33 -94.99)"/><path d="M119.57,285.67l.21.21a.42.42,0,0,0,.16.11.45.45,0,0,0,.2,0,.41.41,0,0,0,.19,0,.36.36,0,0,0,.16-.11l.08-.1a.55.55,0,0,0,.07-.25l0-.13a.45.45,0,0,0-.13-.22l-.21-.22a.39.39,0,0,0-.16-.1.34.34,0,0,0-.2,0,.31.31,0,0,0-.19,0,.39.39,0,0,0-.16.1l-.08.1a.59.59,0,0,0-.07.26l0,.13a.61.61,0,0,0,.13.22Z" transform="translate(-90.33 -94.99)"/><path d="M120.53,261.29a1.59,1.59,0,0,0,1.07-.13,1.45,1.45,0,0,0,.67-.67.53.53,0,0,0,0-.39.52.52,0,0,0-.23-.3.5.5,0,0,0-.68.18.82.82,0,0,1-.12.2l.08-.1a1,1,0,0,1-.18.18l.1-.08a1.49,1.49,0,0,1-.24.14l.12-.05a.9.9,0,0,1-.27.07h-.13l.14,0-.12,0a.46.46,0,0,0-.38.05.55.55,0,0,0-.23.29.53.53,0,0,0,0,.39.5.5,0,0,0,.3.23Z" transform="translate(-90.33 -94.99)"/><rect class="cls-14" x="310" y="30.5" width="22" height="12"/><path d="M422.83,138h-23V125h23Zm-22-1h21V126h-21Z" transform="translate(-90.33 -94.99)"/><rect class="cls-15" x="310.5" y="46" width="22" height="12"/><path d="M423.33,153.49h-23v-13h23Zm-22-1h21v-11h-21Z" transform="translate(-90.33 -94.99)"/><rect class="cls-16" x="192" y="137.5" width="50" height="21"/><path d="M332.83,254h-51V232h51Zm-50-1h49V233h-49Z" transform="translate(-90.33 -94.99)"/><path class="cls-17" d="M277.89,175.83c16.43-.57,20.81,2.24,23.45,1.08s1.83-10.24,3.64-10.4,2.56,8,3.63,9.75c.93,1.5,30.7,4.49,48,2.68-4.75-26-22.08-39.83-53.63-37-19.07,1.72-35.44,16.82-42.52,33.61C264.65,176.14,271.87,176,277.89,175.83Z" transform="translate(-90.33 -94.99)"/><circle class="cls-18" cx="222.46" cy="27.26" r="17.33"/><path d="M312.79,140.09a17.84,17.84,0,1,1,17.83-17.84A17.86,17.86,0,0,1,312.79,140.09Zm0-34.67a16.84,16.84,0,1,0,16.83,16.83A16.85,16.85,0,0,0,312.79,105.42Z" transform="translate(-90.33 -94.99)"/><path id="대가리_위" data-name="대가리 위" class="cls-18" d="M361.84,169.17c1.86,34.41-20.34,48.9-50.54,49.44-54.92,1-57.92-21-58.58-39.6-.88-24.68,18.39-48.95,50.54-49.44C340.8,129,360.33,141.1,361.84,169.17Z" transform="translate(-90.33 -94.99)"/><path d="M307.75,219.14c-49.86,0-54.81-19.78-55.53-40.11a47.6,47.6,0,0,1,13.08-34.22c9.43-9.92,22.91-15.51,37.95-15.74,38.86-.59,57.58,12.14,59.09,40.07h0c.8,14.85-2.81,26.7-10.72,35.2-8.7,9.34-22.64,14.45-40.31,14.77Zm-1.95-89.09-2.53,0c-14.77.23-28,5.71-37.24,15.43A46.52,46.52,0,0,0,253.22,179c.57,16,1.44,40.14,58.07,39.12,17.4-.31,31.09-5.31,39.6-14.45,7.72-8.3,11.24-19.89,10.45-34.47h0C359.9,142.53,342.24,130.05,305.8,130.05Z" transform="translate(-90.33 -94.99)"/><path class="cls-16" d="M288.83,137.46c-4.13-10.74,5.19-10.87,5.19-10.87s-8-3.41-1.12-10.21,19.57,12.87,18.85,14.43S293,148.2,288.83,137.46Z" transform="translate(-90.33 -94.99)"/><path d="M294.06,141.67h-.26a5.67,5.67,0,0,1-5.44-4h0c-1.43-3.72-1.45-6.65-.06-8.7a6.76,6.76,0,0,1,4.18-2.64,6.29,6.29,0,0,1-2.8-3.84c-.38-2,.58-4.18,2.87-6.44,1.58-1.55,4.4-2.73,8.92.44,5.38,3.77,11.46,13,10.73,14.56C311.66,132.21,301.25,141.67,294.06,141.67Zm2.19-26.22a4.16,4.16,0,0,0-3,1.29c-2,2-2.9,3.86-2.59,5.53.48,2.52,3.52,3.85,3.55,3.86l2.14.92-2.33,0s-3.33.09-4.9,2.42c-1.19,1.76-1.13,4.38.17,7.77h0a4.71,4.71,0,0,0,4.49,3.39c6.59.26,17-8.95,17.52-10.07.11-1.11-6.05-11.42-12.21-14.4A6.62,6.62,0,0,0,296.25,115.45Z" transform="translate(-90.33 -94.99)"/><path class="cls-16" d="M332.87,141.74c6.11-9.75-3-11.67-3-11.67s8.52-1.81,3.06-9.81-21.68,8.87-21.27,10.54S326.75,151.48,332.87,141.74Z" transform="translate(-90.33 -94.99)"/><path d="M328.31,145a7.37,7.37,0,0,1-1.13-.09c-7.11-1.16-15.71-12.7-16-14-.41-1.69,7.33-9.56,13.34-12.23,5-2.24,7.58-.54,8.83,1.29,1.81,2.65,2.34,5,1.58,6.87a6.34,6.34,0,0,1-3.49,3.23,6.67,6.67,0,0,1,3.6,3.39c1,2.28.39,5.15-1.73,8.53A5.69,5.69,0,0,1,328.31,145Zm.54-26.38a8.08,8.08,0,0,0-2,.27c-6.62,1.74-14.64,10.68-14.74,11.85.3,1.15,8.76,12.18,15.25,13.19a4.68,4.68,0,0,0,5.05-2.46c1.94-3.09,2.5-5.64,1.66-7.61-1.1-2.59-4.31-3.29-4.34-3.3l-2.3-.48,2.3-.5s3.27-.73,4.22-3.1c.63-1.58.13-3.58-1.48-5.94A4.15,4.15,0,0,0,328.85,118.62Z" transform="translate(-90.33 -94.99)"/><circle class="cls-19" cx="221.58" cy="35.94" r="4.52"/><path d="M311.91,136a4,4,0,0,1-.49,0,5,5,0,1,1,5.48-4.51h0a5,5,0,0,1-5,4.54Zm0-9a4,4,0,1,0,2.56,7.12,4,4,0,0,0,1.44-2.71h0a3.93,3.93,0,0,0-.9-2.94,4,4,0,0,0-2.71-1.45Z" transform="translate(-90.33 -94.99)"/><path class="cls-20" d="M276.31,211a3.42,3.42,0,0,0-1.2.37,3.29,3.29,0,0,0-.91.71.52.52,0,0,0,0,.71.51.51,0,0,0,.71,0,2.81,2.81,0,0,1,.35-.34s.07-.05,0,0,0,0,0,0l.09-.07.22-.13.21-.1,0,0,.06,0,.11,0a2.7,2.7,0,0,1,.49-.12l-.14,0h0a.56.56,0,0,0,.35-.15.49.49,0,0,0,.15-.35.49.49,0,0,0-.15-.36.46.46,0,0,0-.35-.14Z" transform="translate(-90.33 -94.99)"/><path class="cls-20" d="M277.31,210.83a9.08,9.08,0,0,0-3.83,3.44.52.52,0,0,0,.18.69.52.52,0,0,0,.69-.18,15.06,15.06,0,0,1,1.46-1.77,5.12,5.12,0,0,1,1.76-1.22.5.5,0,0,0,.35-.61.49.49,0,0,0-.61-.35Z" transform="translate(-90.33 -94.99)"/><path class="cls-21" d="M274.87,161.68c-2,5.21-3.89,10.51-4,16.14a1,1,0,0,0,2,0c.1-5.44,2-10.58,3.93-15.61.46-1.2-1.48-1.72-1.93-.53Z" transform="translate(-90.33 -94.99)"/><path class="cls-21" d="M323.93,170.29c1.3,2.65,2.93,6,1.49,8.91a1,1,0,0,0,.36,1.37,1,1,0,0,0,1.37-.36c1.81-3.68.17-7.54-1.49-10.93a1,1,0,1,0-1.73,1Z" transform="translate(-90.33 -94.99)"/><path class="cls-21" d="M343.34,157.39a43,43,0,0,1,5.08,23.32c-.09,1.28,1.91,1.28,2,0a44.9,44.9,0,0,0-5.35-24.33c-.62-1.13-2.34-.12-1.73,1Z" transform="translate(-90.33 -94.99)"/><path class="cls-22" d="M362.71,190.59a6.37,6.37,0,0,0-4.78,1.34c0-1-.07-2.09-.14-3.16a82.14,82.14,0,0,0-1.18-9.83c-17.3,1.81-47.07-1.18-48-2.68-1.07-1.74-1.81-9.91-3.63-9.75s-2.73,10.32-3.64,10.4-8.51-.92-23.51-.92c-6,0-12.82.58-17,0a40.87,40.87,0,0,0-3.5,18.12c-2.51-2.32-5.36-3.34-7.84-2.47-4.51,1.59-6.07,8.85-3.48,16.21s8.36,12.05,12.87,10.47a5.4,5.4,0,0,0,1.34-.72c4.53,14.71,16.79,27,52,27,20.05,0,36.12-8.42,42.62-28a6,6,0,0,0,3.38,1.87c4.72.76,9.56-4.88,10.79-12.59S367.44,191.34,362.71,190.59Z" transform="translate(-90.33 -94.99)"/><path d="M312.27,245.13h0c-29.73,0-46.38-8.51-52.31-26.75a6.46,6.46,0,0,1-.89.41c-4.77,1.68-10.83-3.16-13.51-10.77a19.91,19.91,0,0,1-.94-10.55c.69-3.23,2.37-5.48,4.73-6.3s5-.14,7.49,1.85a41.12,41.12,0,0,1,3.55-17.23l.14-.35.38.05a71.17,71.17,0,0,0,10.64.13c2.09-.06,4.24-.13,6.3-.13,11,0,18,.54,21.39.8.91.07,1.62.12,1.94.13a24,24,0,0,0,.89-3.47c.91-4.24,1.55-6.82,2.89-6.94,1.56-.15,2.24,2.81,3,6.22A18.3,18.3,0,0,0,309,176c1.6,1.33,30.53,4.23,47.52,2.44l.46-.05.09.46a86,86,0,0,1,1.18,9.89c0,.77.08,1.53.11,2.29a6.56,6.56,0,0,1,4.39-.94h0c5,.8,8,7.93,6.74,15.91a19.83,19.83,0,0,1-4.2,9.71c-2.15,2.52-4.7,3.69-7.16,3.3a6.25,6.25,0,0,1-3.08-1.47C348.79,235.6,334,245.13,312.27,245.13ZM260.5,216.8l.2.66c3.53,11.44,12.71,26.66,51.55,26.67h0c15,0,34.54-4.8,42.13-27.65l.26-.78.57.6a5.51,5.51,0,0,0,3.1,1.72c2.1.33,4.32-.71,6.24-3a18.83,18.83,0,0,0,4-9.22c1.19-7.43-1.46-14.05-5.91-14.76a5.9,5.9,0,0,0-4.4,1.25l-.77.55,0-.94c0-1-.07-2.07-.14-3.14a81.64,81.64,0,0,0-1.09-9.32c-16.29,1.6-46.81-1-48-3a16.9,16.9,0,0,1-1.21-4.06c-.37-1.64-1.24-5.45-1.93-5.45h0c-.7.08-1.61,4.33-2,6.15-.68,3.18-.93,4.19-1.64,4.25a20.85,20.85,0,0,1-2.25-.12c-3.35-.26-10.32-.8-21.31-.8-2,0-4.19.07-6.26.13a78.36,78.36,0,0,1-10.43-.09,40,40,0,0,0-3.31,17.57v1.17l-.85-.79c-2.46-2.28-5.13-3.15-7.33-2.37-2,.71-3.47,2.69-4.09,5.57a19,19,0,0,0,.91,10c2.5,7.09,8,11.65,12.24,10.15a4.9,4.9,0,0,0,1.21-.64Z" transform="translate(-90.33 -94.99)"/><g id="이목구비"><ellipse cx="196.92" cy="102.99" rx="3.65" ry="4.56"/><ellipse cx="238.88" cy="103.9" rx="3.65" ry="4.56"/><path d="M312.3,208.52a.43.43,0,0,1-.19,0,.5.5,0,0,1-.27-.65,3.11,3.11,0,1,0-5.73-.05.5.5,0,0,1-.93.38,4.11,4.11,0,0,1,6.3-4.82,4.1,4.1,0,0,1,1.28,4.88A.49.49,0,0,1,312.3,208.52Z" transform="translate(-90.33 -94.99)"/><path d="M292.72,188.19a.51.51,0,0,1-.29-.08,9.52,9.52,0,0,0-11.26,0,.49.49,0,0,1-.7-.08.49.49,0,0,1,.07-.7,10.71,10.71,0,0,1,12.46,0,.5.5,0,0,1-.28.91Z" transform="translate(-90.33 -94.99)"/><path d="M335.59,189.11a.51.51,0,0,1-.28-.09,9.62,9.62,0,0,0-11.26,0,.5.5,0,1,1-.63-.78,10.68,10.68,0,0,1,12.46,0,.5.5,0,0,1-.29.92Z" transform="translate(-90.33 -94.99)"/><path d="M308.59,219.19c-3.2,0-6.88-1.1-10.73-4.4a.51.51,0,0,1-.05-.71.49.49,0,0,1,.7-.05c10.82,9.27,19.92.38,20.3,0a.5.5,0,0,1,.71,0,.5.5,0,0,1,0,.7A17,17,0,0,1,308.59,219.19Z" transform="translate(-90.33 -94.99)"/><circle class="cls-23" cx="189.16" cy="118.95" r="9.58"/><path class="cls-24" d="M277.06,211.64a9.8,9.8,0,0,0-2.67,2.7.5.5,0,1,0,.86.5l.24-.35.08-.1,0,0,0-.05.06-.08c.19-.23.38-.44.58-.65s.41-.39.63-.57l.16-.14a.39.39,0,0,0,.1-.08c-.05,0,0,0,0,0l.36-.26a.5.5,0,0,0,.18-.68.5.5,0,0,0-.68-.18Z" transform="translate(-90.33 -94.99)"/><path class="cls-24" d="M282.39,212.46a17.76,17.76,0,0,0-1.87,2.18.5.5,0,0,0,.18.68.52.52,0,0,0,.69-.18l.19-.26.06-.08h0l.11-.13c.14-.18.28-.36.43-.53.3-.34.6-.67.92-1a.49.49,0,1,0-.7-.7Z" transform="translate(-90.33 -94.99)"/><circle class="cls-23" cx="245.72" cy="121.69" r="9.58"/><path class="cls-24" d="M333.65,213.86a5.13,5.13,0,0,0-2.08,2.72.5.5,0,0,0,1,.26l.06-.18,0-.08s0-.12,0,0a2.6,2.6,0,0,1,.16-.34,5,5,0,0,1,.4-.62c0-.06-.08.09,0,0l.05,0,.12-.15.27-.27.14-.12a.61.61,0,0,1,.15-.13s-.06.05,0,0l.07,0,.18-.12a.5.5,0,0,0,.17-.68.49.49,0,0,0-.68-.18Z" transform="translate(-90.33 -94.99)"/><path class="cls-24" d="M340.94,215a9.45,9.45,0,0,0-3,4.36.51.51,0,0,0,.35.62.51.51,0,0,0,.61-.35,8.64,8.64,0,0,1,2.77-3.93.5.5,0,0,0,0-.7.51.51,0,0,0-.71,0Z" transform="translate(-90.33 -94.99)"/></g><path class="cls-22" d="M302.54,244.77a4.29,4.29,0,0,0-3.29-1.1c.41-2.1.12-3.79-.95-4.4-1.81-1.05-5.15,1.35-7.47,5.36a14.69,14.69,0,0,0-2,5.74c-2.55,3.6-3.17,7.46-1.25,9.37,2.34,2.34,7.59.89,11.72-3.24S304.89,247.11,302.54,244.77Z" transform="translate(-90.33 -94.99)"/><path d="M290.63,261.36a4.67,4.67,0,0,1-3.41-1.27c-2-2-1.59-6,1.12-9.9a15.33,15.33,0,0,1,2.06-5.81c2.49-4.31,6.08-6.75,8.15-5.55,1.13.65,1.59,2.22,1.29,4.34a4.57,4.57,0,0,1,3.06,1.25h0c2.57,2.58,1.15,8-3.24,12.43A16,16,0,0,1,292.9,261,8.65,8.65,0,0,1,290.63,261.36Zm6.7-21.84c-1.55,0-4.06,1.89-6.07,5.36a14.41,14.41,0,0,0-1.94,5.54v.13l-.08.11c-2.44,3.46-3,7-1.3,8.73,1,1,2.67,1.24,4.7.68a14.94,14.94,0,0,0,6.32-3.93c3.93-3.93,5.38-8.87,3.24-11h0a3.87,3.87,0,0,0-2.92-1l-.63,0,.12-.62c.38-1.95.12-3.39-.71-3.87A1.37,1.37,0,0,0,297.33,239.52Z" transform="translate(-90.33 -94.99)"/><path class="cls-16" d="M238.33,246.49s2-13,16-15,38.5,5.5,39,7-3.5,23.5-4,24S238.33,268.49,238.33,246.49Z" transform="translate(-90.33 -94.99)"/><path d="M275.28,264c-8.58,0-19.23-.86-26.68-4-7.15-3-10.77-7.51-10.77-13.53v-.08c0-.13,2.22-13.39,16.43-15.42,13.57-1.93,38.8,5.13,39.54,7.34.48,1.43-3.26,23.65-4.12,24.51C289.28,263.25,283.14,264,275.28,264Zm-36.45-17.44a12,12,0,0,0,5.47,10c12.49,8.93,42,6.08,44.66,5.52.68-2.12,4.3-21.88,3.89-23.44-1.22-1.48-24.89-8.59-38.45-6.66A18,18,0,0,0,238.83,246.53Z" transform="translate(-90.33 -94.99)"/><path class="cls-22" d="M316.11,243.77a4.3,4.3,0,0,1,3.29-1.1c-.41-2.1-.12-3.79,1-4.4,1.81-1.05,5.15,1.35,7.47,5.36a14.89,14.89,0,0,1,2,5.74c2.54,3.6,3.16,7.46,1.25,9.37-2.35,2.34-7.6.89-11.73-3.24S313.77,246.11,316.11,243.77Z" transform="translate(-90.33 -94.99)"/><path d="M328,260.36a8.72,8.72,0,0,1-2.28-.33,15.91,15.91,0,0,1-6.75-4.18c-4.4-4.39-5.82-9.85-3.25-12.43a4.57,4.57,0,0,1,3.06-1.25c-.3-2.12.16-3.69,1.29-4.34,2.08-1.2,5.66,1.24,8.15,5.55a15.33,15.33,0,0,1,2.06,5.81c2.71,3.89,3.16,7.86,1.12,9.9A4.66,4.66,0,0,1,328,260.36Zm-8.86-17.2a3.7,3.7,0,0,0-2.71,1c-2.14,2.14-.69,7.08,3.24,11a14.94,14.94,0,0,0,6.32,3.93c2,.56,3.7.32,4.7-.68,1.68-1.68,1.14-5.27-1.3-8.73l-.08-.11v-.13a14.41,14.41,0,0,0-1.94-5.54c-2.36-4.08-5.42-6-6.79-5.18-.83.48-1.09,1.92-.71,3.87l.12.62-.63,0Z" transform="translate(-90.33 -94.99)"/><path class="cls-16" d="M381.33,245.49s-2-13-16-15-38.5,4.5-39,7,3.5,23.5,4,24S381.33,267.49,381.33,245.49Z" transform="translate(-90.33 -94.99)"/><path d="M344.37,263c-7.86,0-14-.72-14.4-1.13-.91-.91-4.55-22.39-4.13-24.45.64-3.24,26.32-9.28,39.56-7.4,14.2,2,16.4,15.29,16.42,15.42v.08c0,6-3.63,10.57-10.78,13.53C363.6,262.11,353,263,344.37,263Zm-13.68-1.89c2.68.56,32.17,3.41,44.66-5.52a12,12,0,0,0,5.48-10A18,18,0,0,0,365.26,231c-13.82-2-37.78,4.5-38.44,6.61C326.35,239.9,330.05,259.08,330.69,261.08Z" transform="translate(-90.33 -94.99)"/><path class="cls-18" d="M260.66,205.68a27.82,27.82,0,0,0,9.12,33.22c-3.51,1-7.48,2-10.65.17a10.32,10.32,0,0,1-2.77-2.46A21,21,0,0,1,262,205" transform="translate(-90.33 -94.99)"/><path d="M260.3,205.58a28.53,28.53,0,0,0,9.29,33.64l.09-.68c-4.4,1.25-9.06,2.15-12.51-1.57A20.62,20.62,0,0,1,252,225.76a20.86,20.86,0,0,1,10.11-20.47.37.37,0,0,0-.37-.64,21.3,21.3,0,0,0-9.12,26.44c1.2,3,3.15,6.3,5.92,8.09,3.41,2.19,7.7,1.11,11.3.08a.38.38,0,0,0,.09-.68,27.82,27.82,0,0,1-9-32.8c.18-.45-.54-.64-.72-.2Z" transform="translate(-90.33 -94.99)"/><path class="cls-18" d="M354.88,203.86a27.82,27.82,0,0,1-9.12,33.22c3.51,1,7.47,2,10.65.17a10.36,10.36,0,0,0,2.77-2.47,21,21,0,0,0-5.61-31.63" transform="translate(-90.33 -94.99)"/><path d="M354.52,204a27.83,27.83,0,0,1-8.95,32.8.39.39,0,0,0,.09.69c3.23.92,6.93,1.89,10.18.5,3.09-1.32,5.27-4.72,6.61-7.67a21.47,21.47,0,0,0-.87-19.56,21.9,21.9,0,0,0-7.82-7.89.38.38,0,0,0-.38.65,20.84,20.84,0,0,1,10.11,20.47,20.54,20.54,0,0,1-5.12,11.2c-3.45,3.73-8.12,2.83-12.51,1.57l.09.69a28.57,28.57,0,0,0,9.29-33.64c-.18-.44-.91-.25-.72.19Z" transform="translate(-90.33 -94.99)"/><ellipse class="cls-22" cx="254.59" cy="205.35" rx="8.31" ry="13.35" transform="translate(-144.07 1.19) rotate(-19.39)"/><ellipse class="cls-22" cx="360.33" cy="204.99" rx="13.37" ry="8.21" transform="translate(10.71 433.46) rotate(-80.92)"/><path d="M258.58,218.94a20.74,20.74,0,0,1-6-1.37.44.44,0,0,1-.26-.57.45.45,0,0,1,.58-.27c2.28.85,6.24,1.86,7.16,1a.45.45,0,1,1,.63.64A2.93,2.93,0,0,1,258.58,218.94Z" transform="translate(-90.33 -94.99)"/><path d="M358.69,218.61a10.19,10.19,0,0,1-1.91-.16.37.37,0,0,1-.29-.44.36.36,0,0,1,.44-.29s4.05.76,6.5-1.33a.39.39,0,0,1,.53,0,.38.38,0,0,1,0,.53A8.06,8.06,0,0,1,358.69,218.61Z" transform="translate(-90.33 -94.99)"/><g id="키보드"><rect class="cls-25" x="73.5" y="247" width="18" height="5"/><path d="M182.33,347.49h-19v-6h19Zm-18-1h17v-4h-17Z" transform="translate(-90.33 -94.99)"/><rect class="cls-25" x="239.5" y="247" width="18" height="5"/><path d="M348.33,347.49h-19v-6h19Zm-18-1h17v-4h-17Z" transform="translate(-90.33 -94.99)"/><rect class="cls-25" x="96.5" y="247" width="9" height="5"/><path d="M196.33,347.49h-10v-6h10Zm-9-1h8v-4h-8Z" transform="translate(-90.33 -94.99)"/><rect class="cls-25" x="108.5" y="247" width="9" height="5"/><path d="M208.33,347.49h-10v-6h10Zm-9-1h8v-4h-8Z" transform="translate(-90.33 -94.99)"/><rect class="cls-25" x="201.5" y="247" width="9" height="5"/><path d="M301.33,347.49h-10v-6h10Zm-9-1h8v-4h-8Z" transform="translate(-90.33 -94.99)"/><rect class="cls-25" x="213.5" y="247" width="9" height="5"/><path d="M313.33,347.49h-10v-6h10Zm-9-1h8v-4h-8Z" transform="translate(-90.33 -94.99)"/><rect class="cls-25" x="226.5" y="247" width="9" height="5"/><path d="M326.33,347.49h-10v-6h10Zm-9-1h8v-4h-8Z" transform="translate(-90.33 -94.99)"/><rect class="cls-25" x="260.5" y="247" width="9" height="5"/><path d="M360.33,347.49h-10v-6h10Zm-9-1h8v-4h-8Z" transform="translate(-90.33 -94.99)"/><rect class="cls-25" x="271.5" y="247" width="9" height="5"/><path d="M371.33,347.49h-10v-6h10Zm-9-1h8v-4h-8Z" transform="translate(-90.33 -94.99)"/><rect class="cls-25" x="122.5" y="247" width="73" height="5"/><path d="M286.33,347.49h-74v-6h74Zm-73-1h72v-4h-72Z" transform="translate(-90.33 -94.99)"/><rect class="cls-25" x="66" y="251.5" width="220.5" height="7.5"/><path d="M377.33,354.49H155.83V346h221.5Zm-220.5-1h219.5V347H156.83Z" transform="translate(-90.33 -94.99)"/></g></g></svg>