<svg id="Layer_1" data-name="Layer 1" xmlns="http://www.w3.org/2000/svg" viewBox="0 0 960 720"><defs><style>.cls-1{fill:#4cbb5c;}.cls-2{fill:#fff;}</style></defs><rect class="cls-1" width="960" height="720"/><path class="cls-2" d="M431.83,319.74c-.74.63-2,.78-8.44,1.9a5.73,5.73,0,0,0-1.28.54,12.56,12.56,0,0,0-4.67,1.52c-.31.17-.68,1-.8,2.59.43.52.66.48,1.21.48,3.1,0,7.51-1.55,8-1.46,2,.45,2.94,3.55,2.94,5.15a9,9,0,0,1-.24,1.27c-.25.67-1.46,1.24-2.92,1.37-6.95.63-10.21,1.17-11,1.74a2.53,2.53,0,0,0-.4,1.31c0,1.64,3.48,2.06,4.08,2.06,2.15,0,3.23-1.15,4-1.15.95,0,2.89,2.29,2.89,4.86,0,1.69-1,4.45-5.3,4.45a20.54,20.54,0,0,1-9.25-3.23s.1-.69-1.32-1.7a15.74,15.74,0,0,1-1.37-6c0-4.94,2.45-8.23,2.78-10.15,0,0-1.16-1.64-1.62-2.24a2.43,2.43,0,0,1-.52-1.86c0-3.86,2.53-4.58,2.65-4.58h.88a10.4,10.4,0,0,0,2.12-1.21l1.39-.09c.82-.11,10.08-2.5,11.93-2.5,1.47,0,2.05.24,2.63,1.14.39.6,2,3.48,2,4.51A2.82,2.82,0,0,1,431.83,319.74Z"/><path class="cls-2" d="M436.42,334.77a3.52,3.52,0,0,0-.5,1.45c-.06.59,2.1,1.53,4.05,1.63,5.73.29,5-2.35,6.67-1.52,1.1.55,2.06,3.31,2.06,4.93,0,3.71-3.6,4.75-6.8,4.75a20.32,20.32,0,0,1-8.32-2.05s-3.37-4.21-3.37-7.23c0-6.94,3.69-14.59,3.87-15,0,0,.3-2,.48-3.29.2-1.46,1.19-1.76,2-2.67,1.88-.19,5.21-1.67,15.67-2.81,1.32-.14,3,1.69,3.85,4.46.16.49-.1,2.43-.76,2.64-.39.12-1.44.24-9.9,1.12a9.54,9.54,0,0,0-3.58.83,9.79,9.79,0,0,0-2.15,3.36c-.19.74.19,1.13,1.14,1a25,25,0,0,0,7.8-2.42c1.6,0,3.11,2.12,3.55,4.44a3,3,0,0,1-.53,2.76,16.92,16.92,0,0,1-5.59,1.8,7.22,7.22,0,0,1-2,.13c-.19,0-.65.3-.92.34C439.89,334,437,334.22,436.42,334.77Z"/><path class="cls-2" d="M532.57,316.63c0,1.74-.5,2.87-1.12,3.11-2.72,1-11.87,2.35-16.09,3.75-.77.26-2.14,2.56-2.14,3.45,0,.46.53.62,1.32.51,6.09-.8,7.15-1.33,9.7-2.47a2.1,2.1,0,0,1,1.39.46A6.75,6.75,0,0,1,527.1,330c0,1.37-.6,2.81-3,3.17-3.16.48-10.42,1.56-12.55,1.81a3.55,3.55,0,0,0-1.78.54c-1,1.38-.58,4.27,5.93,2.85,2.74-.6,3.28-1.61,4.83-1.61a1.44,1.44,0,0,1,.4.06c1.33,1.12,1.62,2.46,1.62,4.29a4.77,4.77,0,0,1-2.86,4.62,8.81,8.81,0,0,1-1,.24c-.08,0-1,.51-1.37.62A10.17,10.17,0,0,1,515,347c-4.46,0-11.58-2.06-11.58-10.32,0-7.48,5.09-12.72,6.44-17.67a5.38,5.38,0,0,0,.68-.85c.09-.86.86-2.85,1.82-2.95a109.78,109.78,0,0,0,16.24-4,1.58,1.58,0,0,1,1.44.18A7.13,7.13,0,0,1,532.57,316.63Z"/><path class="cls-2" d="M407.08,338.23c-1.32-1.49-5.6-3.85-7.07-5.34.64-.72,4.07-5.56,4.07-9.38,0-5.39-3.91-11.85-9.18-11.85,0,0-1.53,0-3.39.17-.34.52-1.46.4-1.46.4-1.85.83-3.57,2.22-3.57,6.69,0,.8,1.12,1.63,1.8,2.25a24.07,24.07,0,0,1-1.28,5.57c-.24.61-1.95.85-1.95.85l-.9,1.16c-.58,3.46,0,3.88,1.21,5.43.16,1.83-.55,5-.55,6.8,0,1.3.49,1.15.23,2.49a1.74,1.74,0,0,1,.31.53,4,4,0,0,0,3.52,2.58,2,2,0,0,0,2.19-1.71c0-1.53-.39-6.23-.36-6.66a4.74,4.74,0,0,1,.75-2.3c1,0,5.51,4.09,9.35,8a4.32,4.32,0,0,0,2.76,1.2c2.33,0,3.29-2.64,4-3.25A4,4,0,0,0,407.08,338.23Zm-13.41-10.4a1.51,1.51,0,0,1-1-.19s1.19-6.94,1.29-8.43a2.93,2.93,0,0,1,3.88,2.66C397.86,323.77,397,326.06,393.67,327.83Z"/><path class="cls-2" d="M503.45,313.55l-1.68-.49-.86-.44a49,49,0,0,0-9.49-.34,12.59,12.59,0,0,1-2-.38,13.09,13.09,0,0,1-2.55,1.15,5.43,5.43,0,0,1-1.17-.35,19.68,19.68,0,0,0-6.19,1.81,4,4,0,0,0-1.4,1.65l0,0c-.06.13-.26.34-.29,0h0a7,7,0,0,0-.16-.92,4.3,4.3,0,0,0-3.57-2.8c-.49,0-1.5.54-1.59,1.12s-.2,4-.55,7.18c0,.32,0,6.31-.63,8.3-.14,0-.57.18-.7,0-1.5-2.26-5.44-6.18-5.77-8.77-.31-2.4.09-6.17-1.15-7.14a9.86,9.86,0,0,0-3.42-1,2.61,2.61,0,0,0-2.14,1l-.1.73-.68,1a18,18,0,0,0-.39,4.3l.57,2.95a2.18,2.18,0,0,1-.52,1.27l.14,2.27c0,2.56-2.34,11.36-2.34,14,0,6,5.21,5.47,5.51,5.21a5.48,5.48,0,0,0,1.15-1.95c.35-3.52.71-9.52,1.66-11.28.2-.36.69-.54.94-.3a14.93,14.93,0,0,1,1.88,2.72c.92,1.32,3.62,4.59,4.13,7.53,0,.25,0,.84.07,1.3a5.26,5.26,0,0,0,2,3.3,5,5,0,0,0,2.84.32c1-.17,2.79-.36,2.79-5a34.72,34.72,0,0,0-.46-4.81A134.75,134.75,0,0,0,478,323a11,11,0,0,1-.49-1.11,11.15,11.15,0,0,0,.33-1.53h0c0-.19.12-.33.2-.17h0c.05.11.12.23.19.35a2.76,2.76,0,0,0,2.3,1.13c1.65,0,3.82-1.93,5.31-1.58.21.05.43-.31,1.61-.42a38.82,38.82,0,0,1-.16,4.42c-.09,1-.54,1.22-2.39,1.22a1.5,1.5,0,0,0-1.3,1,19,19,0,0,0-.72,3.85c0,1.46,1.63,3.33,3.6,3.86.13.61-.46,5.31-.46,7.67a6.74,6.74,0,0,0,.66,3.53,6.37,6.37,0,0,0,3.09,1.36,3.08,3.08,0,0,0,2.25-.94,4.7,4.7,0,0,0,.41-2c.13-5.41.73-11.1,1.41-11.3a29.81,29.81,0,0,0,9.6-4.51c1.66-1.21,3.74-3.71,3.74-6.22C507.13,318.24,505,314.54,503.45,313.55Zm-9.54,10.81a.7.7,0,0,1-.77-.46,22.25,22.25,0,0,1-.56-5.09c1.42-.3,7.63.09,7.63,1.69C500.21,321.94,496,324.37,493.91,324.36Z"/><path class="cls-2" d="M383.22,332.81a13,13,0,0,0-1.62-4.95,3.81,3.81,0,0,0-3.14-1.2c-.83,0-14.7,2.13-16.44,3.21-.83.52-1.14,1.7-1.14,3.41,0,2.4,1.58,3.47,2,3.47,1,0,8.06-1.37,10.59-1.84.52-.1.72.12.71.33a2.78,2.78,0,0,1-.45,1.64,8.64,8.64,0,0,1-3.73,2.19c-2-.39-3.69,1.31-5.69.32-.87,0-2.11.62-2.71-.35-2-.45-4.16-.59-5.77-1.92a2.63,2.63,0,0,1-.77-2.09c0-2.18,3.25-7.77,8.79-13C365,321,369.15,318,371,318c1.21,0,1.64,2.71,2.6,3.73a2.14,2.14,0,0,0,1.74.07c1.07-.46,1.9-1,1.9-2.28a10.23,10.23,0,0,0-2-6.2,9.1,9.1,0,0,0-4.39-1.87c-2.32,0-3.41,1.38-4.27,1.41a29.47,29.47,0,0,0-5.78,4.69,1.62,1.62,0,0,1-.61.34,5.08,5.08,0,0,1-.57,1.26l-1.33.88c-1.59,1.53-8.45,10.11-8.45,13.31a15.73,15.73,0,0,0,2.74,7.89c2.51,2.35,7.17,4,12.42,4a19.12,19.12,0,0,0,8.13-2h0c.25-.15.42-.13.39.15s-.07.73-.09,1.07-.2,2.16-.2,3.38c0,2.13.58,3.23,1.17,3.79a8,8,0,0,0,3.24.71,2.9,2.9,0,0,0,2.42-2.78c0-1.11-.13-2.6-.11-3C380.41,337,383.22,334.39,383.22,332.81Z"/><path class="cls-2" d="M610,316.85c-.51-2.3-2.29-4.41-3.79-4.75-1.35.31-12.47,2.44-19.77,3.39-1,.13-2.25.18-2.25.18l-.83.43a5.32,5.32,0,0,0-2.15.63,6.4,6.4,0,0,0-2.56,4.14l.14,1.91c-2.25,4.48-3.78,8.08-3.78,13,0,.09,0,.2,0,.31,0,.36,0,.54-.14.45a4.21,4.21,0,0,0-.41-.56c-.87-1-1.16-1.13-1.56-1.13-1.2,0-2.11,2.25-6.14,2.25-3.63,0-10.45-3.8-10.45-5.79,0-4.36,5.82-9.82,10.14-9.82.76,0,1,.22,1,.73,0,.87-.65,2.22-.65,3.07,0,2.09,3.14,3.59,4.79,3.59.47,0,3.86-1.25,3.86-6.17,0-2.88-2.11-7.65-5.57-7.65-4.36,0-10.88,2.31-15.25,5.36a3,3,0,0,1-.61.89,16.42,16.42,0,0,1-1.44,1.07,19.5,19.5,0,0,0-2.15,3.76c-.09.19-.18.44-.28.69h0c-.19.5-.49.67-.56.38s-.06-.57-.09-1a33.15,33.15,0,0,0-.58-4.36s-.49-1.32-.62-1.92c0-.17-.06-.9-.06-.9a13.2,13.2,0,0,0-3.74-6.57c-1.58-.58-2-.73-2.66-.29-2.7,1.72-5.87,7-10.74,16a8.65,8.65,0,0,1-1.88,1.54,6.6,6.6,0,0,1-.09,2.51c-1,3.09-3.77,7-3.65,7.77l.16.95-.11,1.12c0,.72,2.22,3.32,4.08,3.32a1.81,1.81,0,0,0,.43-.05c1.86-1.65,2.4-4.87,4.06-7.58.19-.3.25-.35.7-.52a24.53,24.53,0,0,1,4.19-.88,5.73,5.73,0,0,1,1.78.09l.82-.27c.78-.05,1.2.19,1.2.81a44.14,44.14,0,0,0,.27,6.47c.33,1.46,1.68,2.46,4.37,2.67a2.75,2.75,0,0,0,1.73-1.64c.54-1.56.21-3.52.21-5.21,0-2.53.08-4,.15-4.86.06-.28.26-.36.34-.1h0a9,9,0,0,0,1.33,2.44c3.35,4,9,8.68,16.94,9.17,3.16.2,5.48-1.4,6.7-4.5.26-.68.45-1.27.55-1.6.06-.1.18-.06.27.1h0a9.34,9.34,0,0,0,.84,1.24c2.73,3.43,6.6,4.5,11.47,3.76,5.43-.82,6.17-1.38,6.63-2a7.37,7.37,0,0,0,1.15-3.64,3.1,3.1,0,0,0-.55-2.65c-.85-.84-3.45,0-6.89.6-4.55.77-6.47-1.15-6.41-1.74,0-.36.21-1.08.67-1.19a5,5,0,0,1,1.81.17A34.33,34.33,0,0,1,589,334c.7,0,1.52.11,1.8.12,0,0,3-.22,4.76-.58a2.92,2.92,0,0,0,2.17-1.77,5.79,5.79,0,0,0-.26-3.47c-1.25-2.59-2.74-2.88-3.06-2.81a30.72,30.72,0,0,1-9,1.05,1,1,0,0,1-.79-1,4.37,4.37,0,0,1,2.78-3.16c3.41-.65,13.54-1.66,17.25-1.85,2.33-.12,4.78.59,5.24-.2S610.16,317.44,610,316.85ZM543.1,327.38c-.27.54-1.9.94-4.63,1-.12,0-.25-.24-.19-.4,1.13-2.69,3.32-7.43,3.61-7.46a1.21,1.21,0,0,1,1,.36C543.42,321.59,543.45,326.69,543.1,327.38Z"/><path class="cls-2" d="M413.64,378.4h-8.79v4.89a69.68,69.68,0,0,0,11.43-.88l.32,3a74,74,0,0,1-13.21.94H401V375.44h8.84v-4.31H401v-3h12.68Zm8.26,14.21h-3.72V365.89h3.72Z"/><path class="cls-2" d="M449.79,383.29h-5.56v9.26h-3.78v-9.26h-5.6v9.26H431.1v-9.26h-5.62v-3h24.31Zm-2.69-6H428.44v-10.2h3.72v7.21H447.1Z"/><path class="cls-2" d="M473.88,379.22h-3.72v-5H465.7c-.73,2.8-3.42,4.66-6.85,4.66-4.07,0-7.12-2.55-7.09-6.18s3-6.07,7.09-6.07c3.43,0,6.12,1.83,6.85,4.57h4.46v-5.33h3.72Zm-18.58-6.5c0,2,1.47,3.16,3.55,3.16s3.48-1.17,3.48-3.16-1.46-3.05-3.48-3.05S455.27,370.84,455.3,372.72Zm18.58,14.88h-14v1.73h14.77v2.93H456.15v-7.41h14v-1.59h-14v-2.87h17.76Z"/><path class="cls-2" d="M486.3,388l-2-3c6.88-3.25,9.91-7.47,10.51-13.39h-9.08v-2.93h12.89C498.66,376.76,495.82,383.47,486.3,388Zm20.36,4.57h-3.78V365.89h3.78Z"/><path class="cls-2" d="M525.67,375.24c0,2-1.9,3.42-4.83,3.83v1.26c2.14-.08,4.28-.25,6.3-.49l.26,2.49a99.93,99.93,0,0,1-16.61,1.08l-.5-2.84c2.07,0,4.4,0,6.83-.09v-1.41c-3-.41-4.83-1.8-4.81-3.83,0-2.49,2.64-4.05,6.68-4.05S525.64,372.75,525.67,375.24Zm1.23-4.66H511.08v-2.73h6v-2.14h3.72v2.14h6.06Zm5.69,22h-3.81v-4.69H514V385h18.55Zm-16.67-17.31c0,1,1.17,1.46,3.07,1.46s3.08-.5,3.08-1.46-1.26-1.56-3.08-1.56S515.92,374.18,515.92,375.24Zm16.67,8.7h-3.81V366h3.81Z"/><path class="cls-2" d="M552.66,383.73l-2.29,3a12.1,12.1,0,0,1-6-7.38c-1.18,3.48-3.23,6.34-6.27,7.85l-2.35-3.05c4.57-2.05,6.65-7.2,6.68-12.21v-4h3.78v4C546.18,376.94,548.2,381.8,552.66,383.73Zm5.94,8.88h-3.69V377.29h-5.24v-3h5.24v-8.38h3.69Z"/></svg>