<svg id="Layer_1" data-name="Layer 1" xmlns="http://www.w3.org/2000/svg" viewBox="0 0 960 720"><defs><style>.cls-1{fill:#4cbb5c;}.cls-2{fill:#fff;}.cls-3{fill:#faf7f0;}.cls-4{fill:#c5e4f7;}.cls-5{fill:#555;}</style></defs><rect class="cls-1" x="0.77" width="215.79" height="720"/><path class="cls-2" d="M53.94,117.63l-1.75-2.39c5.26-2.64,8.08-6.18,8.66-11.13H53.46v-2.54H64C64,108.21,61.42,114,53.94,117.63Zm16-9.81h3.15v2.56H70v11.09H66.84V99.3H70Z"/><path class="cls-2" d="M86.42,108.77c0,4.88-2.49,7.94-5.84,7.94s-5.91-3.06-5.88-7.94,2.46-7.91,5.88-7.91S86.42,103.94,86.42,108.77Zm-8.72,0c0,3.32,1.15,5.1,2.88,5.1s2.83-1.78,2.83-5.1-1.14-5.1-2.83-5.1S77.7,105.47,77.7,108.77Zm14.94,12.79H89.49V99.3h3.15Z"/><path class="cls-2" d="M116,118.8H95.64v-2.56H116Zm-2.22-6.73H98V101.15h15.55v2.52H101.11v5.91h12.65Z"/><path class="cls-2" d="M136.42,107.92l-1.64,2.39a8.27,8.27,0,0,1-5-4.18,8.36,8.36,0,0,1-5.32,4.64l-1.61-2.46a6.84,6.84,0,0,0,5.35-6.67V100h3.15v1.61C131.31,104.3,132.88,106.87,136.42,107.92Zm5.32,9.54H130.07v1.37h12.3v2.44H127v-6.08h11.67v-1.27H127v-2.39h14.77Zm0-6.86h-3.1v-5.52h-4.18v-2.46h4.18V99.3h3.1Z"/><path class="cls-2" d="M157.44,103.13H153a6.85,6.85,0,0,0,5.1,6.35l-1.54,2.44a8.32,8.32,0,0,1-5.1-4.42,8.93,8.93,0,0,1-5.4,5L144.47,110a7.43,7.43,0,0,0,5.37-6.91h-4.46v-2.49h12.06Zm6,14.14c0,2.68-2.93,4.27-7.67,4.27s-7.64-1.59-7.64-4.27S151,113,155.75,113,163.39,114.56,163.42,117.27Zm-12.21,0c0,1.27,1.59,1.9,4.54,1.9s4.57-.63,4.57-1.9-1.61-1.91-4.57-1.91S151.21,116,151.21,117.27Zm12.13-4.79h-3.1v-5.25h-3.46v-2.51h3.46V99.3h3.1Z"/><path class="cls-2" d="M56.39,76c-1.41,0-2.33.73-2.33,1.74s1.24,1.53,2,1.73l1,.3c1.15.29,3,.95,3,2.93,0,1.72-1.4,3.07-3.86,3.07-2.28,0-3.7-1.19-3.82-2.94h1.35c.11,1.18,1.21,1.74,2.47,1.74,1.47,0,2.57-.75,2.57-1.9s-1-1.43-2.1-1.75l-1.3-.35c-1.67-.48-2.7-1.33-2.7-2.77,0-1.78,1.6-3,3.65-3S60,76,60,77.63H58.73C58.61,76.59,57.66,76,56.39,76Z"/><path class="cls-2" d="M61.47,75h8v1.17H66.14v9.43H64.81V76.14H61.47Z"/><path class="cls-2" d="M71.83,75l2.91,4.92h.13L77.79,75h1.52l-3.84,6.25v4.35H74.14V81.22L70.32,75Z"/><path class="cls-2" d="M80.73,75h1.32V84.4H87v1.17H80.73Z"/><path class="cls-2" d="M88.73,75h6.43v1.17H90.05v3.54h4.77v1.16H90.05V84.4h5.18v1.17h-6.5Z"/><path class="cls-2" d="M101.47,76.05c-1.87,0-3.37,1.48-3.37,4.22s1.5,4.22,3.46,4.22a2.91,2.91,0,0,0,3-3.08h-2.77V80.25h4.06V81.4a4.11,4.11,0,0,1-4.34,4.32c-2.83,0-4.73-2.1-4.73-5.45s1.92-5.45,4.64-5.45a4.27,4.27,0,0,1,4.37,3.46h-1.36A3,3,0,0,0,101.47,76.05Z"/><path class="cls-2" d="M116.14,75v7c0,2.18-1.63,3.78-4.13,3.78s-4.13-1.6-4.13-3.78V75h1.31v6.91a2.82,2.82,0,0,0,5.63,0V75Z"/><path class="cls-2" d="M119.8,85.57h-1.32V75h1.32Z"/><path class="cls-2" d="M122.14,85.57V75h3.43c3.09,0,4.92,2,4.92,5.28s-1.83,5.32-5.05,5.32Zm3.21-1.17c2.61,0,3.85-1.57,3.85-4.15s-1.24-4.11-3.72-4.11h-2V84.4Z"/><path class="cls-2" d="M132.43,75h6.43v1.17h-5.12v3.54h4.78v1.16h-4.78V84.4h5.19v1.17h-6.5Z"/><path d="M257.67,100h-3V88.66h-.08l-3.24,2v-2.6l3.49-2.23h2.78Z"/><path d="M260.27,98.54a1.61,1.61,0,0,1,1.64-1.62,1.64,1.64,0,0,1,1.62,1.62,1.66,1.66,0,0,1-1.62,1.64A1.63,1.63,0,0,1,260.27,98.54Z"/><path d="M270.48,95.63l-1-1.91a10.51,10.51,0,0,0,5.16-3.07l-4.81.39-.35-2,6.13-.22a6.32,6.32,0,0,0,.32-1.46h-5.55v-2h8.18C278.6,90.34,276.47,93.72,270.48,95.63Zm14.18,5.86H272.51V95.88H275V99.5h9.63Zm-.45-4.34h-2.48V91.43H278.5v-2h3.23V84.05h2.48Z"/><path d="M295.28,91.61l-1.35,1.85a5.56,5.56,0,0,1-3-3,6.34,6.34,0,0,1-3.34,3.36l-1.33-1.89a5.48,5.48,0,0,0,3.44-5.12V84.91h2.42v1.87A5.11,5.11,0,0,0,295.28,91.61Zm-3.18,4.53h7.23V94.56h2.46v7H289.64v-7h2.46Zm7.23,3.47V98.07H292.1v1.54Zm-1.14-5.82h-2.36V89.32h-2.17v-2h2.17v-3h2.36Zm3.6.1h-2.37V84.05h2.37Z"/><path d="M320,95.83h-6.92v6h-2.46v-6H303.8v-2H320Zm-1.45-8.91h-5.17c.24,1.74,2.2,3.49,5.86,3.92l-.9,2c-3.13-.42-5.36-1.76-6.43-3.6-1.09,1.84-3.31,3.18-6.4,3.6l-.92-2c3.59-.43,5.57-2.18,5.86-3.92h-5.2V85h13.3Z"/><path d="M330.22,96.22l-1.46,1.83a7.57,7.57,0,0,1-3.22-4.43,8.16,8.16,0,0,1-3.32,4.82l-1.51-1.83c2.62-1.61,3.6-4.81,3.6-7.82v-1H321.4v-2h8v2h-2.69v1C326.71,91.74,327.63,94.73,330.22,96.22Zm2.6,4.76h-2.34V92.13h-2.35v-2h2.35v-5.8h2.34Zm3.63.82h-2.36V84h2.36Z"/><path d="M278.5,127.9H268.22v-.83H278.5Zm-1.38-7.29a29.06,29.06,0,0,1-.42,5.48l-1-.1a25.25,25.25,0,0,0,.46-5.38v-.3h-6.81v-.83h7.79Z"/><path d="M285.18,122.35H281v1.8a28.34,28.34,0,0,0,5.37-.38l.1.83A31.73,31.73,0,0,1,281,125h-.91v-3.43h4.14V119.9H280v-.81h5.16Zm3.91,7h-7.73v-3.38h1v2.54h6.73Zm-.33-2.73h-1v-8.3h1Z"/><path d="M297.42,120.33h-1.29v5.43c.64,0,1.27-.1,1.87-.17l.06.75a52.36,52.36,0,0,1-7.27.43l-.12-.85c.49,0,1,0,1.57,0v-5.57H291v-.82h6.45Zm-2.26,5.49v-5.49h-2v5.56C293.85,125.88,294.5,125.85,295.16,125.82Zm4.86,3.74h-1V118.27h1Z"/><path d="M312.26,128H301.92v-.82h10.34Zm-.54-4.06-.45.84a6.23,6.23,0,0,1-4.23-3.28,6.25,6.25,0,0,1-4.23,3.28l-.46-.84c2-.38,4.16-2.08,4.16-4v-.87h1v.87C307.55,121.87,309.76,123.59,311.72,124Z"/><path d="M323.48,124.85H313.15V124h10.33Zm-1.13,4.43h-7.86V126h1v2.45h6.87Zm-.06-6.78h-7.74v-3.81h1v3h6.75Z"/><path d="M330.66,124.94v-.86c-1.31-.12-2.15-.75-2.15-1.7s1.05-1.74,2.64-1.74,2.64.64,2.65,1.74c0,.94-.84,1.57-2.15,1.7v.81a28.17,28.17,0,0,0,3.12-.31l.08.71a40.78,40.78,0,0,1-7.13.51l-.12-.81C328.5,125,329.56,125,330.66,124.94Zm3.76-4.8h-6.54v-.75h2.78v-1.14h1v1.14h2.77Zm2.45,9.18h-7.58v-2.81h1v2h6.57Zm-7.41-6.94c0,.62.65,1,1.69,1s1.7-.39,1.7-1-.66-1-1.7-1S329.46,121.74,329.46,122.38Zm7-.14h1.68v.83h-1.68v4h-1v-8.84h1Z"/><path d="M348.25,125.07h-1v-1.53h-3v-.82h3v-1.53h-2.88c-.74,1.82-2.49,3.13-4.9,3.85l-.42-.79c2.73-.81,4.43-2.33,4.64-4.29h-4.07v-.84h5.15a5.68,5.68,0,0,1-.14,1.27h2.62v-2.1h1Zm.06,2.27c0,1.36-1.47,2.17-3.76,2.17s-3.77-.81-3.77-2.17,1.46-2.16,3.77-2.16S348.31,126,348.31,127.34Zm-6.55,0c0,.85,1.09,1.36,2.79,1.36s2.76-.51,2.77-1.36-1.09-1.37-2.77-1.36S341.76,126.49,341.76,127.34Z"/><path d="M360.41,124H350.13v-.81h10.28Zm-1.16-3.55c0,1.28-1.47,2-4,2s-4-.7-4-2,1.48-1.94,4-1.94S359.25,119.16,359.25,120.42Zm-.16,7.06h-6.7v1.17h7v.78h-8v-2.69h6.71v-1h-6.74V125h7.72Zm-6.78-7.06c0,.79,1.08,1.22,3,1.22s3-.43,3-1.22-1.11-1.19-3-1.19S352.3,119.68,352.31,120.42Z"/><path d="M370.39,120.2h-4.28v5.72a26.57,26.57,0,0,0,5.17-.41l.12.86a28.13,28.13,0,0,1-5.39.38h-.89v-7.37h5.27Zm3,2.54h1.89v.84h-1.89v6h-1V118.27h1Z"/><path d="M386.18,125.94h-4.7v3.65h-1v-3.65h-4.64v-.8h10.33Zm-1.26-4.28h-6.8v1.46h7.05V124h-8.05v-3.07h6.79v-1.34h-6.82v-.81h7.83Z"/><path d="M397.42,124.85H387.08V124h10.34Zm-1.13,4.43h-7.86V126h1v2.45h6.87Zm-.07-6.78h-7.73v-3.81h1v3h6.74Z"/><path d="M411.93,128.06H401.59v-.84h10.34Zm-8.12-6.87h5.87v-2.1h1V125h-7.85v-5.87h1Zm5.87,3V122h-5.87v2.18Z"/><path d="M417.6,122.48h-3.29v1.71a20.08,20.08,0,0,0,4-.34l.12.8a21.24,21.24,0,0,1-4.3.34h-.74v-3.3h3.3v-1.63h-3.33v-.81h4.28Zm5.16,6.84H415v-3.4h1v2.56h6.76Zm-.35-2.63h-1V122.5h-1.59v3.86H419V118.5h.92v3.16h1.59v-3.37h1Z"/><path d="M434.4,128H424.06v-.83H434.4Zm-1.22-3.49h-7.8v-5.2h7.68v.82h-6.69v3.56h6.81Z"/><path d="M441.48,123.09c0,2.4-1.2,3.92-2.88,3.92s-2.88-1.52-2.88-3.92,1.19-3.93,2.88-3.94S441.48,120.69,441.48,123.09Zm-4.8,0c0,1.84.79,3,1.92,3s1.92-1.19,1.92-3-.79-3-1.92-3S436.68,121.25,436.68,123.09Zm7.92,6.5h-1V118.27h1Z"/><path d="M452.3,120.2H448v5.72a26.57,26.57,0,0,0,5.17-.41l.12.86a28.13,28.13,0,0,1-5.39.38H447v-7.37h5.27Zm3,2.54h1.89v.84h-1.89v6h-1V118.27h1Z"/><path d="M471.37,128.11H461v-.82h4.65v-2.44h-3.43v-5.78h1v2.05h5.87v-2.05h1v5.78h-3.44v2.44h4.71ZM469.12,124v-2.11h-5.87V124Z"/><path d="M474,125.79a26.54,26.54,0,0,0,5.4-.55l.14.85a26.64,26.64,0,0,1-5.6.56H473v-7.26h1Zm7.59,3.77h-1V118.27h1Z"/><path d="M487.59,126.77l-.8-.5a9.4,9.4,0,0,0,1.94-5.79H487v-.82h2.54A11.35,11.35,0,0,1,487.59,126.77Zm2.69.8-.82-.49c1.57-2,1.86-4.49,1.92-6.6H490v-.82h2.29C492.24,122,492.07,125.14,490.28,127.57Zm6.29,2h-1v-5.89h-1.42V129h-.93V118.53h.93v4.31h1.42v-4.58h1Z"/><path d="M508.32,124H498v-.81h3.14a16.69,16.69,0,0,0,.52-3.53H499v-.82h3.68v.25a17.26,17.26,0,0,1-.5,4.1h3.49a18.84,18.84,0,0,0,.44-3.53h-2.67v-.82H507v.35a19.22,19.22,0,0,1-.37,4h1.66Zm-.8,4.73-.39.78a5.53,5.53,0,0,1-4-2.35,5.51,5.51,0,0,1-4,2.35l-.4-.78c2.06-.31,3.86-1.44,3.88-3v-.59h1v.59C503.63,127.3,505.44,128.43,507.52,128.74Z"/><path d="M516,120.31h-6.73v-.83h2.87v-1.29h1v1.29H516Zm-.65,2.56c0,1.23-1.09,2-2.71,2s-2.73-.79-2.72-2,1.08-2,2.72-2S515.33,121.66,515.34,122.87Zm-4.48,0c0,.77.7,1.24,1.77,1.26s1.76-.49,1.77-1.26-.72-1.23-1.77-1.23S510.85,122.13,510.86,122.87Zm7.2,6.54h-7.12v-3.68h7.12Zm-6.14-.81h5.15v-2.07h-5.15Zm6.14-7.32h1.7v.85h-1.7v3h-1v-6.81h1Z"/><path d="M523.77,126.18c1.25,0,2.54-.12,3.71-.26l0,.75a47.48,47.48,0,0,1-7,.4l-.13-.82,2.44,0v-3.45h1Zm3-6.06a29.37,29.37,0,0,1-.33,4.48l-1-.09a25.5,25.5,0,0,0,.33-4.17H521v-.81h5.74Zm2.45,2.88H531v.86h-1.83v5.7h-1V118.27h1Z"/><path d="M545.29,125.8h-4.7v3.76h-1V125.8H535V125h10.33Zm-1-6h-1.74v3.09h1.7v.8H536v-.8h1.72v-3.09h-1.75v-.83h8.35Zm-2.72,3.09v-3.09h-2.89v3.09Z"/><path d="M556.53,125H546.19v-.83h10.34Zm-.83,3.73-.34.76a5.47,5.47,0,0,1-4-2.17,5.45,5.45,0,0,1-4,2.17l-.34-.76c2.06-.27,3.83-1.28,3.83-2.73v-.22h1V126C551.87,127.47,553.65,128.48,555.7,128.75Zm-.51-7.43h-6.66v1.16h6.91v.8h-7.9v-2.71h6.65v-1.13H547.5v-.8h7.69Z"/><path d="M564.2,120.31h-6.73v-.83h2.87v-1.29h1v1.29h2.87Zm-.65,2.56c0,1.23-1.09,2-2.72,2s-2.73-.79-2.72-2,1.08-2,2.72-2S563.54,121.66,563.55,122.87Zm-4.48,0c0,.77.69,1.24,1.76,1.26s1.77-.49,1.78-1.26-.73-1.23-1.78-1.23S559.05,122.13,559.07,122.87Zm7.19,6.54h-7.12v-3.68h7.12Zm-6.14-.81h5.15v-2.07h-5.15Zm6.14-7.32H568v.85h-1.71v3h-1v-6.81h1Z"/><path d="M579,124H568.68v-.81H579Zm-1.16-3.55c0,1.28-1.47,2-4,2s-4-.7-4-2,1.48-1.94,4-1.94S577.8,119.16,577.8,120.42Zm-.16,7.06h-6.7v1.17h7v.78h-8v-2.69h6.71v-1h-6.74V125h7.72Zm-6.78-7.06c0,.79,1.08,1.22,3,1.22s3-.43,3-1.22-1.11-1.19-3-1.19S570.85,119.68,570.86,120.42Z"/><path d="M592.53,126.63h-1v-3h-2.92a2.89,2.89,0,0,1-2.32,1.07,2.83,2.83,0,1,1,0-5.65,3,3,0,0,1,2.31,1h2.93v-1.76h1Zm-8.23-4.8a2,2,0,1,0,2-1.94A1.89,1.89,0,0,0,584.3,121.83Zm8.55,7.49h-7.57v-3.57h1v2.73h6.56Zm-3.64-7.49a2.84,2.84,0,0,1-.16.93h2.48v-1.88h-2.48A2.91,2.91,0,0,1,589.21,121.83Z"/><path d="M601,123.61l-.55.78a4.69,4.69,0,0,1-2.73-2.56,4.8,4.8,0,0,1-2.8,2.88l-.54-.8A4.2,4.2,0,0,0,597.2,120v-1.17h1v1.24A3.91,3.91,0,0,0,601,123.61Zm2.34,3.87c0,1.32-1.39,2.06-3.71,2.06s-3.75-.74-3.75-2.06,1.42-2,3.75-2S603.33,126.18,603.33,127.48Zm-6.46,0c0,.8,1,1.26,2.75,1.27s2.75-.47,2.75-1.27-1-1.25-2.75-1.25S596.86,126.7,596.87,127.48Zm6.36-6.26h1.7v.84h-1.7v3.08h-1v-6.87h1Z"/><path d="M612.4,120.1h-6.73v-.8h2.87v-1.14h1v1.14h2.87Zm-.65,2.36c0,1.15-1.08,1.86-2.71,1.86s-2.73-.71-2.72-1.86,1.06-1.85,2.72-1.85S611.74,121.32,611.75,122.46Zm-4.48,0c0,.69.7,1.11,1.77,1.11s1.76-.42,1.77-1.11-.71-1.11-1.77-1.11S607.26,121.79,607.27,122.46Zm7.2,5.11h-6.2v1.1h6.62v.76H607.3v-2.6h6.18v-1h-6.21v-.75h7.2Zm0-6.59h1.71v.82h-1.71v2.68h-1v-6.24h1Z"/><path d="M630.43,125.47h-4.68v4.09h-1v-4.09h-4.64v-.84h10.29Zm-.51-2.89-.41.81a5.86,5.86,0,0,1-4.21-2.65,5.88,5.88,0,0,1-4.22,2.65l-.4-.81c2-.28,4.1-1.64,4.1-3.25v-.65h1v.65C625.81,120.92,627.89,122.3,629.92,122.58Z"/><path d="M640.82,121.59a3,3,0,1,1-3-2.64A2.68,2.68,0,0,1,640.82,121.59Zm-.74,6.93a3.38,3.38,0,0,0,1.63-2.67v-.62h1v.62a3.13,3.13,0,0,0,2.3,2.82l-.5.74a3.82,3.82,0,0,1-2.31-2.13,3.92,3.92,0,0,1-2.08,2.22,3.56,3.56,0,0,1-2.13-2.2,4,4,0,0,1-2.26,2.11l-.51-.74a3.31,3.31,0,0,0,2.3-2.82v-.62h1v.62A3.09,3.09,0,0,0,640.08,128.52Zm-4.19-6.93a1.82,1.82,0,0,0,2,1.79,1.84,1.84,0,0,0,2-1.79,1.81,1.81,0,0,0-2-1.79A1.79,1.79,0,0,0,635.89,121.59Zm8.07,3.15h-1v-6.45h1Z"/><path d="M656.2,124.85H645.86V124H656.2Zm-1.13,4.43h-7.86V126h1v2.45h6.87ZM655,122.5h-7.73v-3.81h1v3H655Z"/><path d="M661.11,123.61l-.67-.64a4.26,4.26,0,0,0,2.3-3.24h-2v-.82h3A5.23,5.23,0,0,1,661.11,123.61Zm8.09,3.72H663v1.28h6.68v.8H662v-2.86h6.23v-1.18H662v-.79h7.24Zm-4.83-3.22-.71-.59a4.85,4.85,0,0,0,2.29-3.79h-1.79v-.82h2.75A5.91,5.91,0,0,1,664.37,124.11Zm4.83-3.36h1.7v.84h-1.7v2.46h-1v-5.78h1Z"/><path d="M681.93,123.72H671.61v-.81h3.19a15,15,0,0,0,.47-3.3h-2.69v-.83h3.68v.33a16.62,16.62,0,0,1-.47,3.8h3.49a17.11,17.11,0,0,0,.39-3.3H677v-.83h3.62v.46a16.34,16.34,0,0,1-.37,3.67h1.66Zm-1.29,5.65h-7.76v-4h7.76Zm-6.77-.8h5.78v-2.44h-5.78Z"/><path d="M689.5,120.92h-6.72v-.83h2.91v-1.68h1v1.68h2.82Zm-.54,3.52a2.77,2.77,0,1,1-2.76-2.59A2.58,2.58,0,0,1,689,124.44Zm-4.58,0a1.82,1.82,0,0,0,3.63,0,1.82,1.82,0,0,0-3.63,0Zm7.2-1.51h1.89v.83h-1.89v5.8h-1V118.27h1Z"/><path d="M704.36,128H694.08v-.82h4v-4h1v4h5.26Zm-1.23-7.41a27.32,27.32,0,0,1-.42,5.2l-1-.11a23.89,23.89,0,0,0,.43-5.09v-.31h-7v-.82h8Z"/><path d="M714.91,120h-1.15v3.61c.53,0,1-.08,1.52-.14l.05.76a45.59,45.59,0,0,1-6.6.37l-.13-.84h1.46V120h-1.14v-.82h6ZM718,127.5c0,1.3-1.42,2-3.78,2s-3.78-.74-3.78-2,1.42-2,3.78-2S718,126.22,718,127.5Zm-5.18-3.87V120H711v3.74Zm-1.39,3.87c0,.79,1.05,1.25,2.79,1.25s2.79-.46,2.79-1.25-1.05-1.24-2.79-1.24S711.38,126.73,711.4,127.5Zm6.54-2.26h-1v-2.09H715v-.83h1.9v-1.19H715v-.82h1.9v-2h1Z"/><path d="M722.79,126.51v-1.25c-1.32-.15-2.18-.92-2.16-2,0-1.27,1.06-2.1,2.66-2.1s2.67.83,2.68,2.1a2.17,2.17,0,0,1-2.18,2v1.21c1.05-.06,2.11-.14,3.1-.28l.06.76a43.37,43.37,0,0,1-7.11.44l-.17-.85C720.6,126.55,721.67,126.55,722.79,126.51Zm3.89-6h-6.8v-.81h2.91V118.3h1v1.36h2.89Zm-5.13,2.76c0,.78.7,1.29,1.74,1.28s1.73-.5,1.73-1.28-.7-1.32-1.73-1.32S721.55,122.44,721.55,123.23Zm7-.14h1.81v.83h-1.81v5.64h-1V118.27h1Z"/><path d="M737.75,123.8l-.52.78a4.63,4.63,0,0,1-2.74-2.56,4.83,4.83,0,0,1-2.87,2.83l-.52-.79a4.14,4.14,0,0,0,2.87-3.69v-.5h-2.55v-.81h6.08v.81H735v.49A3.86,3.86,0,0,0,737.75,123.8Zm2.66,5.76h-1v-3.1h-6.59v-.82h7.6Zm0-4.52h-1v-3h-2.26v-.84h2.26v-3h1Z"/><path d="M748.47,121.84a3,3,0,1,1-3-2.77A2.77,2.77,0,0,1,748.47,121.84Zm-4.94,0a2,2,0,1,0,2-1.89A1.87,1.87,0,0,0,743.53,121.84Zm8.43,7.48h-7.64V125.7h1v2.78H752Zm-.36-2.78h-1v-8.25h1Z"/><path d="M767.12,128H756.78v-.84h10.34Zm-1.2-3.78h-7.87v-5h1v4.13h6.86Z"/><path d="M768.82,124.17l-.66-.64a4.59,4.59,0,0,0,2.33-3.68h-2V119h3A5.68,5.68,0,0,1,768.82,124.17Zm8.5,5.24h-7.38v-4.06h7.38Zm-6.41-.81h5.44v-2.44h-5.44Zm1.3-3.9-.71-.57a5.62,5.62,0,0,0,2.26-4.28h-1.88V119h2.83A6.74,6.74,0,0,1,772.21,124.7Zm5.11.11h-1v-6.52h1Z"/><path d="M789.54,124H779.25v-.81h10.29Zm-1.16-3.55c0,1.28-1.47,2-4,2s-4-.7-4-2,1.48-1.94,4-1.94S788.38,119.16,788.38,120.42Zm-.16,7.06h-6.71v1.17h7v.78h-8v-2.69h6.72v-1H780.5V125h7.72Zm-6.78-7.06c0,.79,1.08,1.22,3,1.22s3-.43,3-1.22-1.11-1.19-3-1.19S781.42,119.68,781.44,120.42Z"/><path d="M794.46,125.51l-.4-.8a6.8,6.8,0,0,0,3.86-2.64l-3.75.32-.18-.83,4.28-.2a5.53,5.53,0,0,0,.31-1.35h-4v-.82h5.06C799.6,122.11,798.09,124.29,794.46,125.51Zm9,3.81H796v-3.49h1v2.65h6.44Zm-.32-2.65h-1v-4h-2.52v-.84h2.52v-3.59h1Z"/><path d="M810.59,123.39l-.54.76a4,4,0,0,1-2.19-2.27,4.54,4.54,0,0,1-2.31,2.51l-.55-.77a3.92,3.92,0,0,0,2.36-3.37v-1.39h1v1.38A3.54,3.54,0,0,0,810.59,123.39Zm-2.47,3h5.47V125h1v4.38h-7.44V125h1Zm5.47,2.25v-1.44h-5.47v1.44Zm-1.24-4.13h-1v-3h-1.78v-.84h1.78v-2.17h1Zm2.22.09h-1v-6.27h1Z"/><path d="M826.56,128.06H816.22v-.84h10.34Zm-1.07-6c0,1.88-1.76,3.11-4.13,3.1s-4.12-1.22-4.12-3.1,1.76-3.1,4.12-3.1S825.49,120.24,825.49,122.11Zm-7.3,0c0,1.37,1.36,2.28,3.17,2.28s3.17-.91,3.17-2.28-1.36-2.3-3.17-2.29S818.18,120.76,818.19,122.11Z"/><path d="M837.79,128.16H827.46v-.83h4.64v-2.14h-3.35v-3.48h6.76v-1.77h-6.78v-.83h7.75v3.42h-6.74v1.84h7v.82h-3.67v2.14h4.71Z"/><path d="M848.61,123.09l-.53.77a4.6,4.6,0,0,1-2.75-2.48,4.65,4.65,0,0,1-2.84,2.76l-.55-.8a4,4,0,0,0,2.89-3.63v-1.07h1v1.07A3.78,3.78,0,0,0,848.61,123.09Zm2.7,4.29H845v1.23h6.73v.8H844v-2.79h6.29v-1.13H844v-.8h7.31Zm0-3.27h-1v-2.93H847.8v-.82h2.51v-2.09h1Z"/><path d="M859.89,123.78l-.52.8a4.6,4.6,0,0,1-2.73-2.57,5,5,0,0,1-2.88,2.89l-.52-.8a4.18,4.18,0,0,0,2.87-3.74v-.42h-2.55v-.84h6.08v.84h-2.53v.4A3.85,3.85,0,0,0,859.89,123.78Zm2.7,3.67c0,1.34-1.44,2.1-3.79,2.11s-3.78-.77-3.78-2.11,1.43-2.09,3.78-2.09S862.59,126.12,862.59,127.45Zm-6.58,0c0,.82,1.07,1.31,2.79,1.31s2.8-.49,2.8-1.31-1.07-1.32-2.8-1.32S856,126.63,856,127.45Zm6.54-2.45h-1v-3h-2.27v-.82h2.27v-3h1Z"/><path d="M871.08,120.92h-6.72v-.83h2.91v-1.68h1v1.68h2.82Zm-.53,3.52a2.78,2.78,0,1,1-2.77-2.59A2.59,2.59,0,0,1,870.55,124.44Zm-4.59,0a1.82,1.82,0,0,0,3.63,0,1.82,1.82,0,0,0-3.63,0Zm7.2-1.51h1.89v.83h-1.89v5.8h-1V118.27h1Z"/><path d="M881.06,119.86h3v-1.59h1v6.45h-1v-1.49h-2.94a3,3,0,0,1-2.31,1,2.67,2.67,0,1,1,0-5.32A3,3,0,0,1,881.06,119.86Zm.1,8.67a3.36,3.36,0,0,0,1.64-2.68v-.77h1v.77a3.1,3.1,0,0,0,2.31,2.82l-.52.76a3.84,3.84,0,0,1-2.28-2.14,3.9,3.9,0,0,1-2.11,2.23,3.58,3.58,0,0,1-2.12-2.19,4,4,0,0,1-2.26,2.1l-.49-.76a3.24,3.24,0,0,0,2.29-2.82v-.77h1v.77A3.07,3.07,0,0,0,881.16,128.53Zm-4.34-7a2,2,0,1,0,1.95-1.81A1.81,1.81,0,0,0,876.82,121.56Zm4.86,0a2.84,2.84,0,0,1-.13.84H884v-1.73h-2.49A2.91,2.91,0,0,1,881.68,121.56Z"/><path d="M897.18,124.25H886.9v-.82h10.28Zm-.58-2.42-.37.8a5.83,5.83,0,0,1-4.18-2.43,5.85,5.85,0,0,1-4.19,2.43l-.38-.8c2-.27,4-1.46,4-2.9v-.53h1v.53C892.56,120.33,894.62,121.58,896.6,121.83Zm-7.4,4.54h5.63v-1.32h1v4.36h-7.62v-4.36h1Zm5.63,2.24v-1.45H889.2v1.45Z"/><path d="M899.85,125.79a26.44,26.44,0,0,0,5.39-.55l.14.85a26.51,26.51,0,0,1-5.6.56h-.91v-7.26h1Zm7.59,3.77h-1V118.27h1Z"/><path d="M915.13,120.2h-4.28v5.72a26.5,26.5,0,0,0,5.17-.41l.13.86a28.24,28.24,0,0,1-5.4.38h-.89v-7.37h5.27Zm3,2.54H920v.84H918.1v6h-1V118.27h1Z"/><path d="M921,127.78a.82.82,0,0,1,1.63,0,.82.82,0,1,1-1.63,0Z"/><path d="M251.55,220.78l5.08-4.67c1.33-1.27,2-2.05,2-3.16a2.22,2.22,0,0,0-4.43.16h-2.8c0-2.78,2-4.53,5-4.53s5,1.71,5,4.17c0,1.61-.78,2.93-3.69,5.57l-2.15,2.09v.08h6v2.42H251.57Z"/><path d="M263.86,221.45a1.61,1.61,0,0,1,1.64-1.62,1.64,1.64,0,0,1,1.62,1.62,1.66,1.66,0,0,1-1.62,1.64A1.63,1.63,0,0,1,263.86,221.45Z"/><path d="M281.83,214.86l-1.34,1.92a5.89,5.89,0,0,1-3.17-3.05,6.43,6.43,0,0,1-3.43,3.52l-1.33-1.94a5.63,5.63,0,0,0,3.51-5.29V208h2.43V210A5,5,0,0,0,281.83,214.86Zm6.25,9.85H285.6v-4.22h-9.8v-2h12.28Zm0-7h-2.36V213.3h-1.48v4.32h-2.33V207.23h2.33v4h1.48V207h2.36Z"/><path d="M300.64,214.83l-1.32,1.93a6.58,6.58,0,0,1-4-3.4,6.81,6.81,0,0,1-4.18,3.89l-1.35-2a5.93,5.93,0,0,0,4.26-5.8v-1.62h2.5v1.86A5.27,5.27,0,0,0,300.64,214.83Zm3.73,6.44c0,2.19-2.32,3.44-6,3.44s-6.1-1.25-6.1-3.44,2.35-3.44,6.1-3.44S304.37,219.1,304.37,221.27Zm-9.59,0c0,1,1.25,1.48,3.6,1.48s3.53-.46,3.53-1.48-1.23-1.48-3.53-1.48S294.76,220.29,294.78,221.27Zm9.42-10.18h2.4v2.08h-2.4v4.31h-2.5V206.93h2.5Z"/><path d="M271.87,254.44h-1.15v-8h-.05l-2.24,1.49v-1.16l2.29-1.52h1.15Z"/><path d="M274.9,257h-1a12,12,0,0,0,0-12.18h1a11,11,0,0,1,0,12.18Z"/><path d="M291.88,251.44h-4.67v4h-1v-4H281.6v-.82h10.28Zm-.61-2.57-.37.78a5.7,5.7,0,0,1-4.16-2.6,5.72,5.72,0,0,1-4.14,2.6l-.39-.78c2-.3,4-1.58,4-3.09v-.07h-3.62v-.82h8.34v.82h-3.6v.07C287.29,247.29,289.3,248.57,291.27,248.87Z"/><path d="M298.5,249.54l-.54.77a4.09,4.09,0,0,1-2.24-2.27,4.51,4.51,0,0,1-2.34,2.55l-.54-.77a4,4,0,0,0,2.39-3.43v-1.51h1v1.51A3.49,3.49,0,0,0,298.5,249.54Zm3.91,5.93h-1v-3H294.8v-.83h7.61Zm0-4.46h-1v-3H300v3H299V244.4H300v2.74h1.5v-2.95h1Z"/><path d="M310.62,249.51l-.54.79a4.69,4.69,0,0,1-2.73-2.56,4.84,4.84,0,0,1-2.81,2.88l-.53-.8a4.22,4.22,0,0,0,2.83-3.89v-1.16h1V246A3.89,3.89,0,0,0,310.62,249.51Zm2.35,3.88c0,1.32-1.39,2.05-3.72,2.05s-3.74-.73-3.74-2.05,1.42-2,3.74-2S313,252.09,313,253.39Zm-6.46,0c0,.8,1,1.25,2.74,1.27s2.76-.47,2.76-1.27-1-1.25-2.76-1.25S306.5,252.61,306.51,253.39Zm6.36-6.26h1.7V248h-1.7v3.09h-1v-6.87h1Z"/><path d="M317.8,244.85h1a12,12,0,0,0,0,12.18h-1a11,11,0,0,1,0-12.18Z"/><path d="M320.12,247.55h1.05v1.07h.09a2,2,0,0,1,3.69,0H325a2.19,2.19,0,0,1,2.07-1.16c1.23,0,2.11.75,2.11,2.37v4.61h-1.09v-4.6a1.29,1.29,0,0,0-1.4-1.41,1.42,1.42,0,0,0-1.51,1.53v4.48H324.1v-4.71a1.26,1.26,0,0,0-1.34-1.3,1.61,1.61,0,0,0-1.55,1.71v4.3h-1.09Z"/><path d="M333.21,250.45l1.87-.1v-.56c0-.87-.52-1.38-1.57-1.38a1.45,1.45,0,0,0-1.54.93h-1.15c.14-1.11,1.22-1.88,2.74-1.88a2.28,2.28,0,0,1,2.59,2.43v4.55h-1.07v-.94H335a2.16,2.16,0,0,1-2,1.1,2.13,2.13,0,0,1-2.35-2.12C330.62,250.9,332,250.54,333.21,250.45Zm0,3.18a1.76,1.76,0,0,0,1.92-1.69v-.7l-1.74.13c-1,.06-1.63.42-1.63,1.17S332.32,253.63,333.16,253.63Z"/><path d="M337.68,245.68a.77.77,0,1,1,.77.72A.74.74,0,0,1,337.68,245.68Zm.22,1.87H339v6.89H337.9Z"/><path d="M341.82,254.44h-1.09v-6.89h1v1.07h.09a2.06,2.06,0,0,1,2-1.16c1.4,0,2.32.85,2.32,2.6v4.38h-1.09v-4.3a1.51,1.51,0,0,0-1.56-1.71,1.7,1.7,0,0,0-1.74,1.87Z"/><path d="M350.89,251c0-2.09,1.24-3.56,3.12-3.56a2.57,2.57,0,0,1,2.74,2.17h-1.09a1.58,1.58,0,0,0-1.62-1.21c-1.24,0-2.06,1-2.06,2.57s.8,2.61,2.06,2.61a1.56,1.56,0,0,0,1.62-1.19h1.09a2.56,2.56,0,0,1-2.71,2.17C352.08,254.58,350.89,253.09,350.89,251Z"/><path d="M357.76,251c0-2.14,1.27-3.56,3.15-3.56S364,248.88,364,251s-1.25,3.56-3.12,3.56S357.76,253.17,357.76,251Zm5.18,0c0-1.37-.65-2.6-2-2.6s-2.06,1.23-2.06,2.6.65,2.59,2.06,2.59S362.94,252.4,362.94,251Z"/><path d="M366.55,254.44h-1.09v-9.19h1.09Z"/><path d="M368,251c0-2.14,1.27-3.56,3.15-3.56s3.12,1.42,3.12,3.56-1.26,3.56-3.12,3.56S368,253.17,368,251Zm5.18,0c0-1.37-.65-2.6-2-2.6s-2.06,1.23-2.06,2.6.65,2.59,2.06,2.59S373.14,252.4,373.14,251Z"/><path d="M375.66,247.55h1v1h.08a1.85,1.85,0,0,1,1.78-1.17,5,5,0,0,1,.57,0v1.1a3.41,3.41,0,0,0-.66-.07,1.63,1.63,0,0,0-1.73,1.61v4.34h-1.09Z"/><path d="M380.77,257h-1a12,12,0,0,0,0-12.18h1a11,11,0,0,1,0,12.18Z"/><path d="M268.9,284.55l-.54-.81c3.05-1.45,4.6-3.62,4.83-6.31h-4.31v-.82h5.33C274.2,279.86,272.69,282.73,268.9,284.55Zm8.65,2.12h-1V275.38h1Z"/><path d="M289.77,282.3H279.45v-.82h4.65v-1.9h1v1.9h4.69Zm-.64-2.72-.4.82c-1.82-.29-3.52-1.19-4.14-2.52-.61,1.33-2.3,2.23-4.14,2.52l-.36-.82c2-.25,3.86-1.39,3.86-2.79v0h-3.56v-.83h8.43v.83h-3.58v0C285.23,278.19,287.13,279.33,289.13,279.58Zm-.54,6.85h-7.81v-3.22h1v2.38h6.8Z"/><path d="M304.23,285H294v-.82h10.28Zm-1.38-7.28a29.06,29.06,0,0,1-.42,5.48l-1-.1a25.25,25.25,0,0,0,.46-5.38v-.31h-6.8v-.82h7.78Z"/><path d="M310.91,279.46h-4.16v1.8a28.4,28.4,0,0,0,5.37-.38l.1.82a31.76,31.76,0,0,1-5.52.4h-.92v-3.43h4.14V277h-4.16v-.82h5.15Zm3.91,7h-7.73v-3.38h1v2.54h6.73Zm-.33-2.73h-1v-8.31h1Z"/><path d="M323.15,277.44h-1.28v5.43c.63,0,1.26-.1,1.86-.18l.07.75a52.59,52.59,0,0,1-7.28.44l-.11-.86H318v-5.57H316.7v-.83h6.45Zm-2.26,5.48v-5.48H319V283C319.58,283,320.24,283,320.89,282.92Zm4.86,3.75h-1V275.38h1Z"/><path d="M338,285.13H327.66v-.82H338Zm-.53-4.06-.46.84a6.28,6.28,0,0,1-4.23-3.28,6.28,6.28,0,0,1-4.23,3.28l-.45-.84c2-.38,4.15-2.08,4.15-4v-.86h1V277C333.28,279,335.49,280.7,337.46,281.07Z"/><path d="M346.41,283l.07.74a41.22,41.22,0,0,1-7.39.5l-.14-.86A53.31,53.31,0,0,0,346.41,283Zm-.79-4.11a2.74,2.74,0,0,1-3,2.65c-1.78,0-3.06-1.08-3-2.65s1.27-2.65,3-2.65A2.74,2.74,0,0,1,345.62,278.86Zm-5.1,0a2.08,2.08,0,1,0,2.07-1.78A1.85,1.85,0,0,0,340.52,278.86Zm7.63,7.83h-1V275.38h1Z"/><path d="M363.72,285.27H353.39v-.84H358V282.3h-3.36v-3.48h6.76V277h-6.78v-.82h7.76v3.41h-6.75v1.85h7v.82H359v2.13h4.71Z"/><path d="M374.91,285.07H364.62v-.83h4v-4h1v4h5.27Zm-1.23-7.42a29.12,29.12,0,0,1-.42,5.21l-1-.11a23.93,23.93,0,0,0,.43-5.1v-.3h-6.95v-.83h8Z"/><path d="M376.72,288.24h-.94l.7-3.45h1.23Z"/><path d="M391.25,279.17c0,1-1.13,1.51-3.16,1.58v.88h4.65v.8H382.45v-.8h4.65v-.88c-2-.07-3.17-.59-3.17-1.58s1.33-1.59,3.67-1.6S391.25,278.11,391.25,279.17Zm.89-2.06H383v-.78h4.11v-1.11h1v1.11h4.05Zm-.66,9.41h-7.77v-3.23h7.77Zm-6.78-.78h5.8v-1.67h-5.8Zm.29-6.57c0,.57.94.9,2.61.9s2.6-.33,2.6-.9-.95-.89-2.6-.91S385,278.58,385,279.17Z"/><path d="M399,277.65h-.95v5.22c.42,0,.83-.06,1.2-.11l.06.73a34.29,34.29,0,0,1-5.62.39l-.13-.86h1.2v-5.36h-.95v-.82H399Zm-1.88,5.29v-5.29h-1.45V283C396.14,283,396.64,283,397.12,282.94Zm4.07,3.13h-.95v-5.5h-1.57v-.9h1.57v-4h.95Zm2.21.6h-1V275.38h1Z"/><path d="M411.11,280.19c0,2.4-1.21,3.93-2.88,3.93s-2.89-1.53-2.89-3.93,1.2-3.92,2.89-3.93S411.11,277.79,411.11,280.19Zm-4.8,0c0,1.84.79,3,1.92,3s1.91-1.2,1.91-3-.78-3-1.91-3S406.31,278.35,406.31,280.19Zm7.92,6.5h-1V275.38h1Z"/><path d="M423.26,283.43l-.56.79a5.91,5.91,0,0,1-3-3.47,6.48,6.48,0,0,1-3,3.75l-.6-.79a5.92,5.92,0,0,0,3-4.86v-1.47h-2.67v-.83h6.36v.83H420.2v1.47A5.34,5.34,0,0,0,423.26,283.43Zm2.21,3.24h-1V275.38h1Z"/><path d="M436.33,280.74l-.53.77a4.08,4.08,0,0,1-2.25-2.27,4.49,4.49,0,0,1-2.33,2.55l-.55-.77a4,4,0,0,0,2.4-3.43v-1.51H434v1.51A3.51,3.51,0,0,0,436.33,280.74Zm3.91,5.93h-1v-3h-6.63v-.83h7.6Zm0-4.46h-.95v-3h-1.5v3h-.94V275.6h.94v2.74h1.5v-2.95h.95Z"/><path d="M448.47,280.71l-.55.79a4.72,4.72,0,0,1-2.73-2.56,4.83,4.83,0,0,1-2.8,2.88l-.53-.8a4.25,4.25,0,0,0,2.83-3.89V276h1v1.24A3.89,3.89,0,0,0,448.47,280.71Zm2.35,3.88c0,1.32-1.4,2.05-3.72,2.05s-3.75-.73-3.75-2.05,1.43-2,3.75-2S450.82,283.29,450.82,284.59Zm-6.46,0c0,.8,1,1.25,2.74,1.27s2.75-.47,2.75-1.27-1-1.25-2.75-1.25S444.34,283.81,444.36,284.59Zm6.36-6.26h1.7v.84h-1.7v3.08h-1v-6.87h1Z"/><path d="M454,288.24h-.94l.7-3.45H455Z"/><path d="M462.73,282.05v-.87c-1.31-.12-2.15-.75-2.15-1.7s1.05-1.74,2.64-1.74,2.64.65,2.65,1.74-.84,1.58-2.15,1.7V282a30.32,30.32,0,0,0,3.11-.31l.09.71a40.78,40.78,0,0,1-7.13.51l-.12-.81C460.57,282.1,461.63,282.09,462.73,282.05Zm3.76-4.8H460v-.75h2.78v-1.14h1v1.14h2.77Zm2.45,9.18h-7.58v-2.81h1v2h6.57Zm-7.41-6.95c0,.62.65,1,1.69,1s1.7-.4,1.7-1-.66-1-1.7-1S461.53,278.85,461.53,279.48Zm7-.14h1.68v.84h-1.68v4h-1v-8.84h1Z"/><path d="M480.32,282.17h-1v-1.52h-3v-.82h3V278.3h-2.88c-.74,1.82-2.49,3.13-4.9,3.85l-.42-.79c2.73-.81,4.43-2.33,4.64-4.29h-4.07v-.84h5.15a6.41,6.41,0,0,1-.14,1.27h2.62v-2.11h1Zm.06,2.28c0,1.35-1.47,2.17-3.76,2.17s-3.77-.82-3.77-2.17,1.46-2.16,3.77-2.16S480.38,283.1,480.38,284.45Zm-6.55,0c0,.85,1.09,1.35,2.79,1.35s2.76-.5,2.77-1.35-1.09-1.37-2.77-1.36S473.83,283.6,473.83,284.45Z"/><path d="M491.64,280.19c0,2.4-1.21,3.93-2.88,3.93s-2.88-1.53-2.88-3.93,1.19-3.92,2.88-3.93S491.64,277.79,491.64,280.19Zm-4.8,0c0,1.84.79,3,1.92,3s1.92-1.2,1.92-3-.79-3-1.92-3S486.84,278.35,486.84,280.19Zm7.92,6.5h-1V275.38h1Z"/><path d="M502.57,283.84h-5.22V276.5h5.22Zm-4.24-.82h3.26V277.3h-3.26Zm7.67,3.67h-1V275.38h1Z"/><path d="M515,283.43l-.56.79a5.93,5.93,0,0,1-3-3.47,6.46,6.46,0,0,1-3,3.75l-.6-.79a5.89,5.89,0,0,0,3-4.86v-1.47H508.3v-.83h6.36v.83H512v1.47A5.32,5.32,0,0,0,515,283.43Zm2.2,3.24h-1V275.38h1Z"/><path d="M529.49,281.41H519.15v-.79h10.34Zm-1.3,3.3h-6.78v1.08h7.15v.73h-8.15V284h6.79v-1h-6.8v-.75h7.79Zm0-6.65h-6.66v1h6.87v.72H520.5v-2.39h6.65v-.93h-6.69v-.73h7.69Z"/><path d="M544,285.07H533.66v-.83h4v-4h1v4H544Zm-1.24-7.42a27.36,27.36,0,0,1-.42,5.21l-1-.11a23.93,23.93,0,0,0,.43-5.1v-.3h-7v-.83h8Z"/><path d="M550.25,280.42h-3.93v2.78a30.08,30.08,0,0,0,4.81-.33l.09.84a30.62,30.62,0,0,1-5.05.34h-.84v-4.44h3.95v-2.37h-4v-.83h5Zm4,6.27h-1v-4.81H550.9V281h2.35V278.8H551V278h2.26v-2.58h1Z"/><path d="M562.79,278h-6.72v-.82H559v-1.68h1v1.68h2.82Zm-.54,3.53a2.59,2.59,0,0,1-2.77,2.59,2.6,2.6,0,1,1,0-5.18A2.59,2.59,0,0,1,562.25,281.55Zm-4.58,0a1.69,1.69,0,0,0,1.81,1.74,1.71,1.71,0,0,0,1.82-1.74,1.74,1.74,0,0,0-1.82-1.75A1.72,1.72,0,0,0,557.67,281.55Zm7.2-1.51h1.89v.83h-1.89v5.8h-1V275.38h1Z"/><path d="M572.76,277.91h3v-2.53h1v11.31h-1v-4.38h-2.89a2.63,2.63,0,0,1-2.44,1.81c-1.66,0-2.83-1.53-2.83-3.93s1.17-3.92,2.83-3.93A2.58,2.58,0,0,1,572.76,277.91Zm-4.24,2.28c0,1.84.77,3,1.88,3s1.88-1.2,1.88-3-.77-3-1.88-3S568.52,278.35,568.52,280.19Zm4.7,0a6.58,6.58,0,0,1-.13,1.3h2.64v-2.74h-2.67A6.41,6.41,0,0,1,573.22,280.19Z"/><path d="M588.05,280.19c0,2.4-1.21,3.93-2.88,3.93s-2.88-1.53-2.88-3.93,1.19-3.92,2.88-3.93S588.05,277.79,588.05,280.19Zm-4.8,0c0,1.84.79,3,1.92,3s1.91-1.2,1.91-3-.78-3-1.91-3S583.25,278.35,583.25,280.19Zm7.92,6.5h-1V275.38h1Z"/><path d="M603.42,281.41H593.09v-.79h10.33Zm-1.29,3.3h-6.78v1.08h7.15v.73h-8.15V284h6.79v-1h-6.81v-.75h7.8Zm0-6.65h-6.67v1h6.87v.72h-7.86v-2.39h6.66v-.93H594.4v-.73h7.69Z"/><path d="M617.88,281.49h-2.56v1.56a1.77,1.77,0,0,1,1.31,1.6c0,1.28-1.46,2-3.89,2s-3.9-.74-3.9-2A1.79,1.79,0,0,1,610.2,283v-1.53h-2.6v-.81h10.28Zm-1.15-3.76c0,1.32-1.54,2.1-4,2.1s-4-.78-4-2.1,1.53-2.12,4-2.12S616.73,276.4,616.73,277.73Zm-7,0c0,.83,1.14,1.31,3,1.31s3-.48,3-1.31-1.17-1.32-3-1.32S609.76,276.89,609.77,277.73Zm.09,6.92c0,.79,1.07,1.22,2.88,1.22s2.88-.43,2.88-1.22-1.09-1.22-2.88-1.23S609.85,283.88,609.86,284.65Zm4.46-1.88v-1.28h-3.11v1.28a8.94,8.94,0,0,1,1.53-.11A9.48,9.48,0,0,1,614.32,282.77Z"/><path d="M625.59,277.38h-6.73v-.83h2.87v-1.27h1v1.27h2.87Zm-.65,2.5c0,1.2-1.09,2-2.72,2s-2.72-.78-2.71-2,1.08-2,2.71-2S624.93,278.67,624.94,279.88Zm-4.48,0c0,.73.7,1.21,1.76,1.21s1.77-.48,1.78-1.21-.72-1.22-1.78-1.21S620.45,279.15,620.46,279.88Zm1,3.77h5.16v-1.21h1v4.08h-7.14v-4.08h1Zm5.16,2.07v-1.29h-5.16v1.29Zm1-7.44h1.7v.85h-1.7V282h-1v-6.57h1Z"/><path d="M636.82,277.59H630.1v-.81H633v-1.39h1v1.39h2.86Zm-.64,2.73c0,1.27-1.11,2.08-2.72,2.08s-2.73-.81-2.72-2.08,1.09-2.11,2.72-2.11S636.16,279,636.18,280.32Zm-4.48,0c0,.8.69,1.31,1.76,1.3s1.76-.5,1.78-1.3-.73-1.32-1.78-1.32S631.68,279.52,631.7,280.32Zm7.71,6.11h-7.58v-3.25h1v2.41h6.6Zm-.52-7.32h1.7V280h-1.7v3.9h-1v-8.46h1Z"/><path d="M654.85,285H644.57v-.82h10.28Zm-1.38-7.28a29.06,29.06,0,0,1-.42,5.48l-1-.1a25.25,25.25,0,0,0,.46-5.38v-.31h-6.8v-.82h7.78Z"/><path d="M661.53,279.46h-4.16v1.8a28.4,28.4,0,0,0,5.37-.38l.1.82a31.8,31.8,0,0,1-5.53.4h-.91v-3.43h4.14V277h-4.16v-.82h5.15Zm3.91,7h-7.73v-3.38h1v2.54h6.73Zm-.33-2.73h-1v-8.31h1Z"/><path d="M674.42,286.1h-1v-3.91h-2.09v-.83h2.09v-2h-1.9a8.29,8.29,0,0,1-3.92,4.87l-.61-.72a7.35,7.35,0,0,0,3.88-5.86h-3.38v-.82h4.37a9.51,9.51,0,0,1-.15,1.7h1.71v-2.84h1Zm2.28.57h-1V275.38h1Z"/><path d="M683.73,276.77h2.9v-1.39h1v5.8h-1v-1.29h-2.86a3,3,0,0,1-2.39,1,2.58,2.58,0,1,1,0-5.11A3,3,0,0,1,683.73,276.77Zm-4.33,1.57a2,2,0,0,0,3.94,0,2,2,0,0,0-3.94,0Zm8.22,6.12h-6.3v1.26h6.73v.8h-7.72V283.7h6.3v-1.15h-6.32v-.8h7.31Zm-3.32-6.12a2.61,2.61,0,0,1-.11.75h2.44v-1.52h-2.44A2.76,2.76,0,0,1,684.3,278.34Z"/><path d="M699.79,281.08H689.51v-.81h10.28Zm-1.15-3.55c0,1.28-1.47,2-4,2s-4-.7-4-2,1.49-1.95,4-1.95S698.64,276.27,698.64,277.53Zm-.17,7.06h-6.7v1.16h7.05v.79h-8v-2.69h6.72v-1h-6.75v-.76h7.72Zm-6.78-7.06c0,.78,1.08,1.22,3,1.22s3-.44,3-1.22-1.1-1.2-3-1.2S691.68,276.79,691.69,277.53Z"/><path d="M714.29,282.64h-4.67v4h-1v-4H704v-.82h10.28Zm-.61-2.57-.37.78a5.68,5.68,0,0,1-4.16-2.6,5.72,5.72,0,0,1-4.14,2.6l-.39-.78c2-.3,4-1.58,4-3.09v-.07H705v-.82h8.34v.82h-3.6V277C709.7,278.49,711.71,279.77,713.68,280.07Z"/><path d="M720.92,280.74l-.54.77a4.09,4.09,0,0,1-2.24-2.27,4.51,4.51,0,0,1-2.34,2.55l-.54-.77a4,4,0,0,0,2.4-3.43v-1.51h1v1.51A3.49,3.49,0,0,0,720.92,280.74Zm3.91,5.93h-1v-3h-6.63v-.83h7.61Zm0-4.46h-1v-3h-1.5v3h-.94V275.6h.94v2.74h1.5v-2.95h1Z"/><path d="M733.05,280.71l-.54.79a4.69,4.69,0,0,1-2.73-2.56,4.84,4.84,0,0,1-2.81,2.88l-.53-.8a4.22,4.22,0,0,0,2.83-3.89V276h1v1.24A3.89,3.89,0,0,0,733.05,280.71Zm2.35,3.88c0,1.32-1.39,2.05-3.72,2.05s-3.74-.73-3.74-2.05,1.42-2,3.74-2S735.4,283.29,735.4,284.59Zm-6.46,0c0,.8,1,1.25,2.74,1.27s2.76-.47,2.76-1.27-1-1.25-2.76-1.25S728.93,283.81,728.94,284.59Zm6.36-6.26H737v.84h-1.7v3.08h-1v-6.87h1Z"/><path d="M748.05,285.17H737.71v-.84h10.34ZM747,279.22c0,1.87-1.76,3.11-4.12,3.09s-4.13-1.22-4.13-3.09,1.76-3.1,4.13-3.1S747,277.35,747,279.22Zm-7.3,0c0,1.37,1.36,2.28,3.18,2.28s3.16-.91,3.16-2.28-1.36-2.3-3.16-2.29S739.67,277.87,739.68,279.22Z"/><path d="M759.28,285.27H749v-.84h4.65V282.3h-3.36v-3.48H757V277h-6.78v-.82H758v3.41h-6.75v1.85h7v.82h-3.67v2.13h4.71Z"/><path d="M770.05,280.68l-.48.77a4.42,4.42,0,0,1-2.78-2.44,4.68,4.68,0,0,1-2.9,2.68l-.52-.79a3.93,3.93,0,0,0,2.9-3.52V277H763.7v-.83h6.08V277h-2.51v.39A3.66,3.66,0,0,0,770.05,280.68Zm-3.94,2.81h5.17v-1.38h1v4.41h-7.15v-4.41h1Zm5.17,2.21v-1.42h-5.17v1.42Zm1-7.7H774v.83h-1.7v2.73h-1v-6.18h1Z"/><path d="M780.83,278.71a2.73,2.73,0,0,1-3,2.65,2.67,2.67,0,1,1,0-5.31A2.73,2.73,0,0,1,780.83,278.71Zm-.83,6.93a3.43,3.43,0,0,0,1.64-2.69v-.64h1V283a3.13,3.13,0,0,0,2.3,2.83l-.51.76a3.8,3.8,0,0,1-2.29-2.16,3.9,3.9,0,0,1-2.11,2.25,3.57,3.57,0,0,1-2.1-2.21,4.1,4.1,0,0,1-2.26,2.12l-.51-.76a3.29,3.29,0,0,0,2.3-2.83v-.64h.95V283A3.09,3.09,0,0,0,780,285.64Zm-4.12-6.93a1.82,1.82,0,0,0,2,1.81,1.84,1.84,0,0,0,2-1.81,1.82,1.82,0,0,0-2-1.8A1.8,1.8,0,0,0,775.88,278.71Zm7.63-.6h1.7v.83h-1.7v2.88h-1v-6.44h1Z"/><path d="M796.2,281.36H785.92v-.82H796.2Zm-.58-2.42-.37.8a5.83,5.83,0,0,1-4.18-2.43,5.85,5.85,0,0,1-4.19,2.43l-.38-.8c2-.27,4-1.46,4-2.9v-.53h1V276C791.58,277.44,793.64,278.68,795.62,278.94Zm-7.4,4.54h5.63v-1.32h1v4.36h-7.63v-4.36h1Zm5.63,2.24v-1.45h-5.63v1.45Z"/><path d="M798.87,282.9a26.44,26.44,0,0,0,5.39-.55l.14.85a26.51,26.51,0,0,1-5.6.56h-.91V276.5h1Zm7.59,3.77h-1V275.38h1Z"/><path d="M814.15,277.31h-4.28V283a26.48,26.48,0,0,0,5.17-.4l.13.86a28.24,28.24,0,0,1-5.4.38h-.89v-7.37h5.27Zm3,2.54H819v.84h-1.89v6h-1V275.38h1Z"/><path d="M820,284.89a.82.82,0,0,1,1.63,0,.82.82,0,1,1-1.63,0Z"/><path d="M268.61,456.36l3.14-3.3c1.09-1.16,1.61-1.78,1.61-2.63a1.82,1.82,0,0,0-3.62.16h-1.08a2.7,2.7,0,0,1,2.91-2.71,2.64,2.64,0,0,1,2.85,2.55c0,1-.48,1.83-2.1,3.5l-2.11,2.17v.08h4.38v1h-6Z"/><path d="M276.83,459.78h-1a11.92,11.92,0,0,0,0-12.17h1a11,11,0,0,1,0,12.17Z"/><path d="M293.86,456.77H283.53V456h4.64v-2.44h-3.43v-5.77h1v2h5.86v-2h1v5.77h-3.44V456h4.71Zm-2.25-4.07v-2.11h-5.86v2.11Z"/><path d="M305.08,456.77H294.75v-.83h4.66v-2.75h1v2.75h4.67Zm-.49-4-.41.79a6,6,0,0,1-4.26-3,6.17,6.17,0,0,1-4.24,3.06l-.42-.8c1.9-.33,4.12-1.91,4.12-3.71v-.28H295.6V448h8.6v.84h-3.79v.28C300.41,450.88,302.65,452.43,304.59,452.75Z"/><path d="M311.65,452.29l-.53.78a4.11,4.11,0,0,1-2.25-2.27,4.57,4.57,0,0,1-2.34,2.55l-.54-.78a4,4,0,0,0,2.4-3.42v-1.52h.95v1.52A3.48,3.48,0,0,0,311.65,452.29Zm3.91,5.93h-1v-3H308v-.82h7.6Zm0-4.45h-.95v-3h-1.5v3h-.94v-6.55h.94v2.74h1.5V447h.95Z"/><path d="M323.78,452.27l-.55.79a4.71,4.71,0,0,1-2.73-2.57,4.8,4.8,0,0,1-2.8,2.88l-.54-.8a4.2,4.2,0,0,0,2.83-3.88v-1.17h1v1.24A3.91,3.91,0,0,0,323.78,452.27Zm2.35,3.87c0,1.32-1.4,2.06-3.72,2.06s-3.75-.74-3.75-2.06,1.42-2,3.75-2S326.13,454.85,326.13,456.14Zm-6.47,0c0,.8,1,1.26,2.75,1.27s2.75-.47,2.75-1.27-1-1.24-2.75-1.24S319.65,455.37,319.66,456.14Zm6.36-6.26h1.71v.84H326v3.08h-1v-6.86h1Z"/><path d="M331,447.61h1a11.92,11.92,0,0,0,0,12.17h-1a11,11,0,0,1,0-12.17Z"/><path d="M335.71,451.14c-.85,0-1.46.46-1.46,1s.37.77,1.18,1l1,.26c1.23.29,1.84.9,1.84,1.86,0,1.2-1,2.07-2.71,2.07-1.54,0-2.47-.68-2.65-1.94h1.14c.13.67.63,1,1.49,1s1.6-.4,1.6-1.05c0-.48-.34-.81-1.13-1l-1-.24c-1.21-.28-1.84-.94-1.84-1.86,0-1.18,1-2,2.55-2a2.22,2.22,0,0,1,2.46,1.88H337.1A1.27,1.27,0,0,0,335.71,451.14Z"/><path d="M344.07,450.3h1.08v6.89h-1.08V456H344a2.16,2.16,0,0,1-2,1.25c-1.31,0-2.24-.85-2.24-2.6V450.3h1.1v4.3a1.48,1.48,0,0,0,1.49,1.63,1.78,1.78,0,0,0,1.77-1.87Z"/><path d="M347,448h1.09v3.39h.09a2.1,2.1,0,0,1,2-1.18c1.72,0,2.94,1.37,2.94,3.56s-1.22,3.56-2.93,3.56a2.14,2.14,0,0,1-2-1.19h-.12v1.05H347Zm3,8.36c1.31,0,2-1.15,2-2.62s-.66-2.55-2-2.55-1.95,1-1.95,2.55S348.8,456.36,350.05,456.36Z"/><path d="M357.5,453.78c0-2.1,1.24-3.57,3.12-3.57a2.57,2.57,0,0,1,2.74,2.17h-1.09a1.58,1.58,0,0,0-1.62-1.2c-1.24,0-2.06,1-2.06,2.56s.8,2.62,2.06,2.62a1.57,1.57,0,0,0,1.62-1.2h1.09a2.56,2.56,0,0,1-2.71,2.17C358.69,457.33,357.5,455.85,357.5,453.78Z"/><path d="M364.37,453.78c0-2.15,1.27-3.57,3.15-3.57s3.12,1.42,3.12,3.57-1.25,3.55-3.12,3.55S364.37,455.92,364.37,453.78Zm5.18,0c0-1.37-.65-2.6-2-2.6s-2.06,1.23-2.06,2.6.65,2.59,2.06,2.59S369.55,455.15,369.55,453.78Z"/><path d="M373.16,457.19h-1.09V448h1.09Z"/><path d="M374.57,453.78c0-2.15,1.27-3.57,3.15-3.57s3.12,1.42,3.12,3.57-1.26,3.55-3.12,3.55S374.57,455.92,374.57,453.78Zm5.18,0c0-1.37-.65-2.6-2-2.6s-2.06,1.23-2.06,2.6.65,2.59,2.06,2.59S379.75,455.15,379.75,453.78Z"/><path d="M382.27,450.3h1.05v1.05h.08a1.86,1.86,0,0,1,1.78-1.16l.57,0v1.11a2.61,2.61,0,0,0-.66-.08,1.63,1.63,0,0,0-1.73,1.61v4.34h-1.09Z"/><path d="M387.38,459.78h-1a11.92,11.92,0,0,0,0-12.17h1a11,11,0,0,1,0,12.17Z"/><path d="M274.87,487.75l-.53.77a4.65,4.65,0,0,1-2.75-2.47,4.66,4.66,0,0,1-2.84,2.75l-.55-.8a4,4,0,0,0,2.89-3.63V483.3h1v1.07A3.77,3.77,0,0,0,274.87,487.75Zm2.7,4.29h-6.31v1.23H278v.8h-7.7v-2.79h6.29v-1.13h-6.32v-.8h7.31Zm0-3.26h-1v-2.94h-2.51V485h2.51v-2.08h1Z"/><path d="M286.15,488.45l-.52.8a4.64,4.64,0,0,1-2.73-2.58,4.89,4.89,0,0,1-2.88,2.89l-.52-.8a4.18,4.18,0,0,0,2.87-3.74v-.42h-2.55v-.84h6.08v.84h-2.53V485A3.87,3.87,0,0,0,286.15,488.45Zm2.7,3.66c0,1.34-1.44,2.1-3.79,2.11s-3.78-.77-3.78-2.11,1.43-2.09,3.78-2.09S288.85,490.78,288.85,492.11Zm-6.58,0c0,.82,1.07,1.31,2.79,1.31s2.8-.49,2.8-1.31-1.07-1.32-2.8-1.32S282.26,491.29,282.27,492.11Zm6.54-2.45h-1v-3h-2.28v-.83h2.28v-2.94h1Z"/><path d="M297.44,485.15h-6.73v-.82h2.87V483h1v1.38h2.87Zm-.65,2.72c0,1.27-1.1,2.09-2.71,2.09s-2.73-.82-2.72-2.09,1.09-2.1,2.72-2.1S296.78,486.59,296.79,487.87Zm-4.48,0c0,.8.7,1.31,1.77,1.3s1.76-.5,1.77-1.3-.72-1.32-1.77-1.32S292.3,487.07,292.31,487.87ZM300,494h-7.58v-3.25h1v2.41H300Zm-.52-7.31h1.7v.84h-1.7v3.89h-1V483h1Z"/><path d="M315.47,490.2H310.8v4h-1v-4h-4.63v-.83h10.28Zm-.61-2.58-.37.79a5.71,5.71,0,0,1-4.16-2.6,5.75,5.75,0,0,1-4.14,2.6l-.4-.79c2-.29,4-1.57,4-3.08v-.08h-3.62v-.81h8.34v.81h-3.6v.08C310.87,486.05,312.89,487.33,314.86,487.62Z"/><path d="M322.1,488.29l-.54.78a4.14,4.14,0,0,1-2.25-2.27,4.55,4.55,0,0,1-2.33,2.55l-.55-.78a4,4,0,0,0,2.4-3.42v-1.52h.95v1.52A3.49,3.49,0,0,0,322.1,488.29Zm3.91,5.93h-1v-3H318.4v-.82H326Zm0-4.45h-1v-3h-1.49v3h-.94v-6.55h.94v2.74h1.49V483h1Z"/><path d="M334.23,488.27l-.54.79a4.68,4.68,0,0,1-2.73-2.57,4.84,4.84,0,0,1-2.81,2.88l-.53-.8a4.2,4.2,0,0,0,2.83-3.88v-1.17h1v1.24A3.9,3.9,0,0,0,334.23,488.27Zm2.35,3.87c0,1.32-1.4,2.06-3.72,2.06s-3.74-.74-3.74-2.06,1.42-2,3.74-2S336.58,490.85,336.58,492.14Zm-6.46,0c0,.8,1,1.26,2.74,1.27s2.76-.47,2.76-1.27-1.05-1.24-2.76-1.24S330.11,491.37,330.12,492.14Zm6.36-6.26h1.7v.84h-1.7v3.08h-1v-6.86h1Z"/><path d="M342.19,490.85c1.25-.05,2.53-.13,3.71-.27l.05.75a45,45,0,0,1-7.05.4l-.12-.82c.74,0,1.57,0,2.43,0v-3.45h1Zm3-6.07a29.29,29.29,0,0,1-.33,4.48l-1-.09a25.47,25.47,0,0,0,.33-4.16h-4.74v-.82h5.74Zm2.45,2.88h1.83v.86H347.6v5.7h-1V482.94h1Z"/><path d="M359.57,487.75c0,2.4-1.2,3.92-2.88,3.92s-2.88-1.52-2.88-3.92,1.19-3.93,2.88-3.94S359.57,485.35,359.57,487.75Zm-4.8,0c0,1.84.79,3,1.92,3s1.92-1.19,1.92-3-.79-3-1.92-3.05S354.77,485.91,354.77,487.75Zm7.92,6.5h-1V482.94h1Z"/><path d="M371.59,487.8l-.49.77a4.62,4.62,0,0,1-2.9-2.47,4.62,4.62,0,0,1-2.94,2.71l-.47-.78a3.91,3.91,0,0,0,2.89-3.49v-.13H365v-.83h6.25v.83h-2.6v.13A3.67,3.67,0,0,0,371.59,487.8Zm2.35,4.24h-6.33v1.26h6.74v.8h-7.72v-2.81H373v-1.16H366.6v-.78h7.34Zm0-3.24h-1v-5.86h1Z"/><path d="M376.25,489.46l-.4-.8c2.78-.75,4.47-2.25,4.68-4.16h-4.18v-.83h5.25C381.59,486.52,379.59,488.55,376.25,489.46Zm8.43,4.61h-7.14v-4.2h7.14Zm-6.15-.81h5.16v-2.57h-5.16Zm6.15-7.56h1.7v.83h-1.7v2.82h-1v-6.41h1Z"/><path d="M393.28,487.75c0,2.4-1.21,3.92-2.88,3.92s-2.89-1.52-2.89-3.92,1.2-3.93,2.89-3.94S393.28,485.35,393.28,487.75Zm-4.8,0c0,1.84.79,3,1.92,3s1.91-1.19,1.91-3-.78-3-1.91-3.05S388.48,485.91,388.48,487.75Zm7.92,6.5h-1V482.94h1Z"/><path d="M407.59,485.6H410v-2.66h1v6h-1v-2.49H407.6a2.72,2.72,0,0,1-2.9,2.21,2.62,2.62,0,1,1,0-5.2A2.73,2.73,0,0,1,407.59,485.6Zm-4.87.43a2,2,0,0,0,3.94,0,2,2,0,0,0-3.94,0Zm1.12,4.94h2.06v-1.41h.92v4.51H402.9v-4.51h.94Zm2.06,2.31v-1.55h-2.06v1.55Zm6.23.12-.52.76a3.58,3.58,0,0,1-2.07-2.16,3.82,3.82,0,0,1-2,2.16l-.52-.76a3.28,3.28,0,0,0,2.08-2.95v-1h1v1A3.11,3.11,0,0,0,412.13,493.4Z"/><path d="M423.16,492.72H412.83v-.83h10.33Zm-1.06-6c0,1.88-1.77,3.11-4.13,3.1s-4.13-1.22-4.13-3.1,1.77-3.1,4.13-3.1S422.1,484.9,422.1,486.77Zm-7.3,0c0,1.37,1.35,2.29,3.17,2.29s3.16-.92,3.16-2.29-1.36-2.3-3.16-2.29S414.78,485.42,414.8,486.77Z"/><path d="M429.78,484.93h2.64v-2h1v8.24h-1v-3h-2.64v1H424.6v-5.26h5.18Zm-4.19,3.47h3.21v-3.65h-3.21Zm8.08,5.58h-7.55v-3.53h1v2.69h6.55Zm-1.25-6.63v-1.58h-2.64v1.58Z"/><path d="M442.22,490.82l-.6.81a6.1,6.1,0,0,1-2.84-3.62,6.39,6.39,0,0,1-2.85,3.83l-.64-.8a6,6,0,0,0,3-5.07v-2.06h1V486A5.57,5.57,0,0,0,442.22,490.82Zm2.44,3.43h-1v-6.64H441v-.81h2.68v-3.86h1Z"/><path d="M456.44,487.79l-.47.77a4.44,4.44,0,0,1-2.83-2.29,4.51,4.51,0,0,1-2.94,2.58l-.49-.77a3.81,3.81,0,0,0,2.91-3.33v-.35h-2.57v-.82h6.08v.82h-2.51v.33C453.61,486.07,454.77,487.29,456.44,487.79Zm2.18,4.2h-6.19v1.34H459v.79h-7.59v-2.87h6.18v-1.17h-6.21v-.8h7.2Zm0-6.58h1.7v.83h-1.7v2.52h-1v-5.82h1Z"/><path d="M470.14,487.25h2.52v-4.31h1v11.31h-1v-6.17h-2.51c-.12,2.21-1.25,3.59-2.82,3.59s-2.83-1.52-2.83-3.92,1.17-3.93,2.83-3.94S470,485.14,470.14,487.25Zm-4.69.5c0,1.84.76,3,1.88,3s1.88-1.19,1.88-3-.78-3-1.88-3.05S465.45,485.91,465.45,487.75Z"/><path d="M485.85,490.25h-4.71v4h-1v-4h-4.64v-.84h10.33Zm-1.22-4.37c0,1.5-1.6,2.45-4,2.45s-4-.95-4-2.45,1.6-2.49,4-2.49S484.63,484.35,484.63,485.88Zm-6.92,0c0,1,1.19,1.65,3,1.65s3-.65,3-1.65-1.21-1.67-3-1.67S477.7,484.87,477.71,485.88Z"/><path d="M492.24,487.94h-4.05v2.74a25.37,25.37,0,0,0,5-.37l.08.84a29,29,0,0,1-5.21.38h-.86v-4.42h4.07v-2.3h-4.11V484h5.08Zm3.87,6.31h-1v-6.13h-2.2v-.84h2.2v-4.34h1Z"/><path d="M505.1,491l-.56.79a5.86,5.86,0,0,1-3-3.46,6.49,6.49,0,0,1-3,3.74l-.6-.79a5.9,5.9,0,0,0,3-4.86v-1.47h-2.67v-.83h6.36v.83H502v1.47A5.31,5.31,0,0,0,505.1,491Zm2.21,3.24h-1V482.94h1Z"/><path d="M519.56,489.51H509.22v-.81h10.34Zm-1.13,4.43h-7.86v-3.27h1v2.45h6.87Zm-.07-6.78h-7.73v-3.81h1v3h6.74Z"/><path d="M529.41,488.29l-.53.78a4.11,4.11,0,0,1-2.25-2.27,4.57,4.57,0,0,1-2.34,2.55l-.54-.78a4,4,0,0,0,2.4-3.42v-1.52h1v1.52A3.48,3.48,0,0,0,529.41,488.29Zm3.91,5.93h-1v-3h-6.63v-.82h7.61Zm0-4.45h-1v-3h-1.5v3h-.94v-6.55h.94v2.74h1.5V483h1Z"/><path d="M541.55,488.27l-.55.79a4.71,4.71,0,0,1-2.73-2.57,4.79,4.79,0,0,1-2.81,2.88l-.53-.8a4.2,4.2,0,0,0,2.83-3.88v-1.17h1v1.24A3.91,3.91,0,0,0,541.55,488.27Zm2.34,3.87c0,1.32-1.39,2.06-3.72,2.06s-3.74-.74-3.74-2.06,1.42-2,3.74-2S543.89,490.85,543.89,492.14Zm-6.46,0c0,.8,1,1.26,2.74,1.27s2.76-.47,2.76-1.27-1-1.24-2.76-1.24S537.42,491.37,537.43,492.14Zm6.36-6.26h1.7v.84h-1.7v3.08h-1v-6.86h1Z"/><path d="M553.72,490.53l.08.73a40.43,40.43,0,0,1-7.39.5l-.14-.85A53.24,53.24,0,0,0,553.72,490.53Zm-.79-4.12a2.73,2.73,0,0,1-3,2.66c-1.78,0-3.06-1.08-3-2.66s1.27-2.65,3-2.65A2.73,2.73,0,0,1,552.93,486.41Zm-5.1,0a2.09,2.09,0,1,0,2.07-1.77A1.85,1.85,0,0,0,547.83,486.41Zm7.63,7.84h-1V482.94h1Z"/><path d="M570.06,491.29h-1v-3.05h-2.92a2.9,2.9,0,0,1-2.33,1.07,2.83,2.83,0,1,1,0-5.65,3,3,0,0,1,2.31,1h2.94V483h1Zm-8.23-4.8a2,2,0,0,0,3.94,0,2,2,0,0,0-3.94,0Zm8.55,7.49h-7.57v-3.57h1v2.73h6.57Zm-3.65-7.49a2.83,2.83,0,0,1-.15.93h2.48v-1.88h-2.48A2.91,2.91,0,0,1,566.73,486.49Z"/><path d="M578.69,485.15H572v-.82h2.87V483h1v1.38h2.87Zm-.65,2.72c0,1.27-1.1,2.09-2.71,2.09s-2.73-.82-2.72-2.09,1.09-2.1,2.72-2.1S578,486.59,578,487.87Zm-4.48,0c0,.8.7,1.31,1.77,1.3s1.76-.5,1.78-1.3-.73-1.32-1.78-1.32S573.55,487.07,573.56,487.87Zm7.72,6.11H573.7v-3.25h1v2.41h6.6Zm-.52-7.31h1.7v.84h-1.7v3.89h-1V483h1Z"/><path d="M596.77,492.72H586.44v-.83h10.33Zm-8.11-6.86h5.86v-2.11h1v5.88h-7.84v-5.88h1Zm5.86,3v-2.17h-5.86v2.17Z"/><path d="M603.25,488h-4.12v2.64a26,26,0,0,0,5.27-.4l.1.83a28.64,28.64,0,0,1-5.46.42h-.9V487.2h4.11v-2.39h-4.13V484h5.13Zm3.16-.6h1.89v.84h-1.89v6h-1V482.94h1Z"/><path d="M619.23,489.5h-4.58v2.31h-1V489.5h-4.75v-.83h10.34Zm-1.21-4c0,1.4-1.56,2.25-4,2.25s-4-.85-4-2.25,1.58-2.26,4-2.27S618,484.1,618,485.5Zm.05,8.48h-7.84v-3.3h1v2.45h6.84Zm-6.94-8.48c0,.88,1.17,1.44,2.92,1.44s2.92-.56,2.92-1.44S615.8,484,614.05,484,611.12,484.6,611.13,485.5Z"/><path d="M630.43,490.16h-10.3v-.83h4.65v-1.2H621.5v-4.76h7.64v.8H622.5v1.18h6.34v.77H622.5v1.22h6.71v.79h-3.44v1.2h4.66ZM629.35,494h-7.87v-3.05h1v2.21h6.88Z"/><path d="M634.68,490.85c1.25-.05,2.53-.13,3.71-.27l.05.75a45,45,0,0,1-7.05.4l-.13-.82c.75,0,1.57,0,2.44,0v-3.45h1Zm3-6.07a32.21,32.21,0,0,1-.33,4.48l-1-.09a24.37,24.37,0,0,0,.33-4.16H631.9v-.82h5.74Zm2.45,2.88h1.83v.86h-1.83v5.7h-1V482.94h1Z"/><path d="M274.61,503.15h-6.38v-.82H271v-1.39h1v1.39h2.65Zm-.58,2.78c0,1.28-1.07,2.15-2.58,2.15s-2.56-.87-2.55-2.15,1-2.16,2.55-2.16S274,504.63,274,505.93Zm-4.2,0c0,.81.66,1.35,1.62,1.35s1.63-.54,1.64-1.35-.67-1.36-1.64-1.38S269.83,505.11,269.83,505.93Zm8,6.05h-7.56v-3.19h1v2.35h6.55Zm-.26-2.42h-1v-2.43h-2v-.81h2v-1.54h-2V504h2v-3h1Z"/><path d="M285.25,508.73l-.59.78a5,5,0,0,1-2.33-3.13,5.34,5.34,0,0,1-2.37,3.51l-.62-.77c1.62-.88,2.49-2.81,2.49-5.1v-.9H279.6v-.84h5.29v.84h-2.1v.9A5.06,5.06,0,0,0,285.25,508.73Zm3.9,3.49h-1v-5.86h-1.54v5.29h-.95V501.18h.95v4.33h1.54v-4.57h1Z"/><path d="M304.23,507.28h-4.66v1.34H303v3.6h-1v-2.79h-6.87v-.81h3.51v-1.34H294v-.81h10.28Zm-7.92-4.77h5.59V501.2h1v4.22h-7.57V501.2h1Zm5.59,2.11v-1.35h-5.59v1.35Z"/><path d="M314.16,502.27a17,17,0,0,1-.28,3.43h1.64v.82H305.19v-.82h7.69a16.87,16.87,0,0,0,.29-3.39h-6.68v-.82h7.67Zm.09,10h-1V509h-7v-.8h8Z"/><path d="M319.72,508.85c1.25-.05,2.53-.13,3.71-.27l.05.75a45,45,0,0,1-7.05.4l-.12-.82c.74,0,1.56,0,2.43,0v-3.45h1Zm3-6.07a29.29,29.29,0,0,1-.33,4.48l-1-.09a25.47,25.47,0,0,0,.33-4.16h-4.74v-.82h5.74Zm2.45,2.88H327v.86h-1.83v5.7h-1V500.94h1Z"/><path d="M336.56,503.7h-5.67v-.81h2.35v-1.61h1v1.61h2.33Zm-.39,3.33a2.44,2.44,0,1,1-4.87,0,2.44,2.44,0,1,1,4.87,0Zm-4,0a1.56,1.56,0,1,0,3.1,0,1.56,1.56,0,1,0-3.1,0Zm8.34,5.19h-.95v-5.7h-1.5v5.14h-.94V501.22h.94v4.48h1.5v-4.76h.95Z"/><path d="M348.3,504.27a3,3,0,0,1-5.93,0,3,3,0,0,1,5.93,0Zm-4.95,0a2,2,0,1,0,2-1.8A1.81,1.81,0,0,0,343.35,504.27Zm7.73,5.83c0,1.32-1.42,2.1-3.72,2.1s-3.75-.78-3.75-2.1,1.44-2.11,3.75-2.12S351.08,508.76,351.08,510.1Zm-6.46,0c0,.81,1,1.3,2.74,1.3s2.75-.49,2.75-1.3-1-1.31-2.75-1.31S344.6,509.28,344.62,510.1Zm8-6.62H351v1.57h1.67v.84H351v1.75h-1v-6.7h1v1.71h1.67Z"/><path d="M363.67,506.64H353.39v-.82h10.28Zm-1.15-3.56c0,1.28-1.48,2-4,2s-4-.7-4-2,1.49-1.94,4-1.94S362.52,501.82,362.52,503.08Zm-.17,7.06h-6.7v1.17h7v.79h-8v-2.7h6.71v-1h-6.74v-.77h7.72Zm-6.78-7.06c0,.79,1.08,1.22,3,1.22s3-.43,3-1.22-1.1-1.19-3-1.19S355.56,502.35,355.57,503.08Z"/><path d="M378.17,508.2H373.5v4h-1v-4h-4.63v-.83h10.28Zm-.61-2.58-.37.79a5.71,5.71,0,0,1-4.16-2.6,5.75,5.75,0,0,1-4.14,2.6l-.39-.79c1.95-.29,4-1.57,4-3.08v-.08h-3.62v-.81h8.34v.81h-3.6v.08C373.57,504.05,375.59,505.33,377.56,505.62Z"/><path d="M384.48,504.8H380.6v1.75a22.81,22.81,0,0,0,4.54-.28l.1.82a27.66,27.66,0,0,1-4.84.27h-.8V504h3.89v-1.6h-3.91v-.8h4.9Zm4,7.45h-1V509.3h-6.61v-.81h7.61Zm0-4.37h-1v-2.09h-2.25V505h2.25v-1.52h-2.25v-.82h2.25V501h1Z"/><path d="M394.23,507.83l-.5-.76a6.17,6.17,0,0,0,3.34-2.58l-3.2.34-.16-.82,3.71-.24a5.77,5.77,0,0,0,.25-1.25h-3.41v-.81h4.41C398.67,504.43,397.35,506.55,394.23,507.83Zm9,4.24h-7.46v-4h7.46Zm-6.48-.81h5.5v-2.33h-5.5Zm6.48-3.66h-1v-3h-1.53v2.87h-1v-6.35h1v2.65h1.53V501h1Z"/><path d="M410.16,503.21h-1v5.22c.43,0,.83-.07,1.21-.12l.06.74a34.29,34.29,0,0,1-5.62.38l-.13-.85h1.19v-5.36H405v-.83h5.19Zm-1.88,5.28v-5.28h-1.44v5.34Zm4.08,3.14h-.95v-5.5h-1.58v-.9h1.58v-4h.95Zm2.21.59h-1V500.94h1Z"/><path d="M422.27,504.5a3,3,0,1,1-2.95-2.76A2.77,2.77,0,0,1,422.27,504.5Zm-4.93,0a1.86,1.86,0,0,0,2,1.91,1.9,1.9,0,1,0,0-3.8A1.86,1.86,0,0,0,417.34,504.5Zm8.43,7.48h-7.65v-3.62h1v2.78h6.66Zm-.36-2.78h-1V501h1Z"/><path d="M437.66,510.72H427.33v-.83h10.33Zm-1.07-6c0,1.88-1.76,3.11-4.12,3.1s-4.13-1.22-4.13-3.1,1.77-3.1,4.13-3.1S436.59,502.9,436.59,504.77Zm-7.3,0c0,1.37,1.36,2.29,3.18,2.29s3.16-.92,3.16-2.29-1.36-2.3-3.16-2.29S429.28,503.42,429.29,504.77Z"/><path d="M448.9,510.83H438.56V510h4.65v-2.14h-3.35v-3.47h6.75V502.6h-6.78v-.83h7.76v3.42h-6.74V507h7v.82h-3.66V510h4.71Z"/><path d="M459.94,505.68l-.49.78a4.76,4.76,0,0,1-2.89-2.62,4.83,4.83,0,0,1-2.9,2.83l-.52-.78a4.14,4.14,0,0,0,2.9-3.76v-.86h1v.86A3.9,3.9,0,0,0,459.94,505.68Zm2.44,4.38H456v1.22h6.74v.82h-7.71v-2.81h6.32v-1.13H455v-.8h7.34Zm0-3.27h-1v-5.85h1Z"/><path d="M471,507l-.49.8a4.62,4.62,0,0,1-2.85-2.48,4.67,4.67,0,0,1-2.84,2.67l-.5-.78a3.88,3.88,0,0,0,2.83-3.55v-.37h-2.55v-.81h2.55V501h1v1.45h2.52v.81h-2.55v.37A3.74,3.74,0,0,0,471,507Zm3,5H466.4v-3.36h1v2.52H474Zm-.32-2.6h-1v-4.13H470.3v-.82h2.35V501h1Z"/><path d="M482.18,503.58h-6.71v-.83h2.9v-1.67h1v1.67h2.82Zm-.53,3.53a2.78,2.78,0,1,1-2.77-2.59A2.59,2.59,0,0,1,481.65,507.11Zm-4.58,0a1.69,1.69,0,0,0,1.81,1.74,1.72,1.72,0,0,0,1.82-1.74,1.75,1.75,0,0,0-1.82-1.76A1.71,1.71,0,0,0,477.07,507.11Zm7.19-1.51h1.9v.82h-1.9v5.8h-1V500.94h1Z"/><path d="M497.05,510.62H486.77v-.82h4v-4h1v4h5.27Zm-1.23-7.41a29.09,29.09,0,0,1-.42,5.2l-1-.11a23.89,23.89,0,0,0,.43-5.09v-.31h-6.95v-.82h8Z"/><path d="M507.45,504.25a3,3,0,1,1-3-2.64A2.69,2.69,0,0,1,507.45,504.25Zm-.75,6.93a3.38,3.38,0,0,0,1.63-2.66v-.63h1v.63a3.13,3.13,0,0,0,2.3,2.81l-.49.74a3.84,3.84,0,0,1-2.32-2.13,3.89,3.89,0,0,1-2.08,2.22,3.58,3.58,0,0,1-2.13-2.2,4,4,0,0,1-2.26,2.11l-.51-.74a3.31,3.31,0,0,0,2.3-2.81v-.63h1v.63A3.09,3.09,0,0,0,506.7,511.18Zm-4.19-6.93a2,2,0,1,0,2-1.79A1.82,1.82,0,0,0,502.51,504.25Zm8.07,3.15h-1V501h1Z"/><path d="M522.82,507.51H512.49v-.81h10.33Zm-1.13,4.43h-7.86v-3.27h1v2.45h6.87Zm-.06-6.78H513.9v-3.81h1v3h6.74Z"/><path d="M537.28,510.56H527v-.83h10.28Zm-1.38-7.29a29.15,29.15,0,0,1-.42,5.49l-1-.11a25.2,25.2,0,0,0,.46-5.38V503h-6.81v-.83h7.79Z"/><path d="M544,505h-4.17v1.8a28.34,28.34,0,0,0,5.37-.38l.11.83a31,31,0,0,1-5.53.39h-.91v-3.43H543v-1.66H538.8v-.81H544Zm3.91,7h-7.73V508.6h1v2.54h6.73Zm-.33-2.73h-1V501h1Z"/><path d="M556.2,503h-1.29v5.44c.64-.05,1.27-.11,1.87-.18l.06.75a50.86,50.86,0,0,1-7.27.43l-.11-.85H551V503h-1.27v-.82h6.45Zm-2.26,5.49V503h-2v5.56C552.63,508.54,553.28,508.52,553.94,508.48Zm4.86,3.74h-1V500.94h1Z"/><path d="M571,510.69H560.7v-.83H571Zm-.54-4.07-.45.84a6.23,6.23,0,0,1-4.23-3.27,6.27,6.27,0,0,1-4.23,3.27l-.46-.84c2-.38,4.16-2.08,4.16-4v-.86h1v.86C566.33,504.53,568.54,506.26,570.5,506.62Z"/><path d="M579.45,508.53l.08.73a40.43,40.43,0,0,1-7.39.5l-.14-.85A53.24,53.24,0,0,0,579.45,508.53Zm-.78-4.12a2.74,2.74,0,0,1-3,2.66c-1.77,0-3.06-1.08-3-2.66s1.27-2.65,3-2.65A2.74,2.74,0,0,1,578.67,504.41Zm-5.11,0a2.09,2.09,0,1,0,2.07-1.77A1.85,1.85,0,0,0,573.56,504.41Zm7.63,7.84h-1V500.94h1Z"/><path d="M596.72,508.2h-4.67v4h-1v-4h-4.63v-.83h10.28Zm-.61-2.58-.37.79a5.71,5.71,0,0,1-4.16-2.6,5.75,5.75,0,0,1-4.14,2.6l-.39-.79c2-.29,4-1.57,4-3.08v-.08H587.4v-.81h8.34v.81h-3.6v.08C592.12,504.05,594.14,505.33,596.11,505.62Z"/><path d="M603,504.8h-3.89v1.75a22.92,22.92,0,0,0,4.55-.28l.1.82a27.66,27.66,0,0,1-4.84.27h-.8V504H602v-1.6h-3.91v-.8H603Zm4,7.45h-1V509.3h-6.61v-.81H607Zm0-4.37h-1v-2.09h-2.25V505H606v-1.52h-2.25v-.82H606V501h1Z"/><path d="M609.52,507.83l-.5-.76a6.17,6.17,0,0,0,3.34-2.58l-3.2.34L609,504l3.7-.24a5.24,5.24,0,0,0,.26-1.25h-3.42v-.81H614C614,504.43,612.64,506.55,609.52,507.83Zm9,4.24H611v-4h7.45Zm-6.47-.81h5.49v-2.33H612Zm6.47-3.66h-1v-3H616v2.87h-1v-6.35h1v2.65h1.54V501h1Z"/><path d="M625.45,503.21h-1v5.22c.42,0,.83-.07,1.2-.12l.07.74a34.34,34.34,0,0,1-5.63.38l-.12-.85h1.19v-5.36h-1v-.83h5.19Zm-1.88,5.28v-5.28h-1.45v5.34C622.59,508.54,623.09,508.52,623.57,508.49Zm4.08,3.14h-1v-5.5h-1.57v-.9h1.57v-4h1Zm2.2.59h-1V500.94h1Z"/><path d="M637.56,504.5a3,3,0,1,1-3-2.76A2.77,2.77,0,0,1,637.56,504.5Zm-4.94,0a2,2,0,1,0,2-1.89A1.87,1.87,0,0,0,632.62,504.5Zm8.43,7.48h-7.64v-3.62h1v2.78h6.65Zm-.35-2.78h-1V501h1Z"/><path d="M652.9,506.64H642.61v-.82H652.9Zm-1.16-3.56c0,1.28-1.47,2-4,2s-4-.7-4-2,1.48-1.94,4-1.94S651.74,501.82,651.74,503.08Zm-.16,7.06h-6.71v1.17h7v.79h-8v-2.7h6.72v-1h-6.74v-.77h7.72Zm-6.78-7.06c0,.79,1.08,1.22,3,1.22s3-.43,3-1.22-1.11-1.19-3-1.19S644.78,502.35,644.8,503.08Z"/><path d="M657.54,507.73l-.42-.81c2.73-.79,4.47-2.36,4.68-4.32h-4.18v-.83h5.24C662.86,504.64,660.83,506.76,657.54,507.73Zm8.52,2.28c0,1.37-1.42,2.19-3.69,2.19s-3.71-.82-3.7-2.19,1.45-2.17,3.7-2.17S666.06,508.67,666.06,510Zm-6.4,0c0,.85,1.06,1.39,2.71,1.39s2.73-.54,2.73-1.39-1.07-1.38-2.73-1.37S659.65,509.16,659.66,510Zm6.27-6.13h1.71v.83h-1.71v3h-1v-6.78h1Z"/><path d="M678.68,510.77H668.35v-.83H673v-2.75h1v2.75h4.67Zm-.49-4-.41.79a6,6,0,0,1-4.27-3,6.15,6.15,0,0,1-4.24,3.06l-.42-.8c1.91-.33,4.13-1.91,4.13-3.71v-.28H669.2V502h8.59v.84H674v.28C674,504.88,676.24,506.43,678.19,506.75Z"/><path d="M686.23,503.58h-6.71v-.83h2.91v-1.67h1v1.67h2.81Zm-.53,3.53a2.59,2.59,0,0,1-2.77,2.59,2.6,2.6,0,1,1,2.77-2.59Zm-4.58,0a1.7,1.7,0,0,0,1.81,1.74,1.72,1.72,0,0,0,1.82-1.74,1.75,1.75,0,0,0-1.82-1.76A1.72,1.72,0,0,0,681.12,507.11Zm7.2-1.51h1.89v.82h-1.89v5.8h-1V500.94h1Z"/><path d="M701.1,510.62H690.82v-.82h4v-4h1v4h5.27Zm-1.23-7.41a27.32,27.32,0,0,1-.42,5.2l-1-.11a23.36,23.36,0,0,0,.44-5.09v-.31h-7v-.82h8Z"/><path d="M708.81,509l-.57.79a6,6,0,0,1-2.85-3.49,6.47,6.47,0,0,1-2.92,3.77l-.61-.79a5.92,5.92,0,0,0,3-4.86v-1.47h-2.63v-.83h6.14v.83h-2.54v1.47A5.42,5.42,0,0,0,708.81,509Zm2-3.47h1.89v.85h-1.89v5.86h-1V500.94h1Z"/><path d="M726.83,506.64H716.55v-.8h10.28Zm-1.32,3.54h-6.7v1.13h7.05v.79h-8v-2.66h6.72v-1h-6.75v-.76h7.72Zm-6.6-7.95h5.59v-1.09h1v3.72h-7.57v-3.72h1Zm5.59,1.87V503h-5.59v1.11Z"/><path d="M738.11,508.6h-4.7v3.65h-1V508.6h-4.65v-.8h10.34Zm-1.26-4.27h-6.8v1.46h7v.82H729v-3.07h6.79v-1.33H729v-.82h7.83Z"/><path d="M749.3,508.16H739v-.83h4.65v-1.2h-3.28v-4.76H748v.8h-6.64v1.18h6.34v.77h-6.34v1.22h6.71v.79h-3.44v1.2h4.65ZM748.23,512h-7.88v-3.05h1v2.21h6.89Z"/><path d="M760.54,506.64H750.26v-.82h10.28Zm-1.16-3.56c0,1.28-1.47,2-4,2s-4-.7-4-2,1.48-1.94,4-1.94S759.38,501.82,759.38,503.08Zm-.16,7.06h-6.7v1.17h7v.79h-8v-2.7h6.71v-1H751.5v-.77h7.72Zm-6.78-7.06c0,.79,1.08,1.22,3,1.22s3-.43,3-1.22-1.11-1.19-3-1.19S752.43,502.35,752.44,503.08Z"/><path d="M775.09,510.77H764.75V510h4.65v-2.44H766v-5.77h1v2h5.86v-2h1v5.77h-3.44V510h4.71Zm-2.25-4.07v-2.11H767v2.11Z"/><path d="M786.32,510.77H776v-.83h4.66v-2.75h1v2.75h4.67Zm-.49-4-.41.79a6,6,0,0,1-4.26-3,6.17,6.17,0,0,1-4.24,3.06l-.42-.8c1.9-.33,4.12-1.91,4.12-3.71v-.28h-3.78V502h8.6v.84h-3.79v.28C781.65,504.88,783.89,506.43,785.83,506.75Z"/><path d="M792.9,506.29l-.53.78a4.11,4.11,0,0,1-2.25-2.27,4.57,4.57,0,0,1-2.34,2.55l-.54-.78a4,4,0,0,0,2.4-3.42v-1.52h1v1.52A3.48,3.48,0,0,0,792.9,506.29Zm3.91,5.93h-1v-3h-6.62v-.82h7.6Zm0-4.45h-.95v-3h-1.5v3h-.94v-6.55h.94v2.74h1.5V501h.95Z"/><path d="M805,506.27l-.55.79a4.71,4.71,0,0,1-2.73-2.57,4.8,4.8,0,0,1-2.8,2.88l-.54-.8a4.2,4.2,0,0,0,2.83-3.88v-1.17h1v1.24A3.91,3.91,0,0,0,805,506.27Zm2.35,3.87c0,1.32-1.4,2.06-3.72,2.06s-3.75-.74-3.75-2.06,1.42-2,3.75-2S807.39,508.85,807.39,510.14Zm-6.47,0c0,.8,1,1.26,2.75,1.27s2.75-.47,2.75-1.27-1-1.24-2.75-1.24S800.91,509.37,800.92,510.14Zm6.36-6.26H809v.84h-1.71v3.08h-1v-6.86h1Z"/><path d="M820,510.72H809.7v-.83H820Zm-1.07-6c0,1.88-1.76,3.11-4.12,3.1s-4.13-1.22-4.13-3.1,1.77-3.1,4.13-3.1S819,502.9,819,504.77Zm-7.3,0c0,1.37,1.36,2.29,3.18,2.29s3.16-.92,3.16-2.29-1.36-2.3-3.16-2.29S811.65,503.42,811.66,504.77Z"/><path d="M831.27,510.83H820.93V510h4.65v-2.14h-3.35v-3.47H829V502.6H822.2v-.83H830v3.42h-6.74V507h7v.82h-3.66V510h4.71Z"/><path d="M842.08,506.73l-.56.77a4.87,4.87,0,0,1-2.7-2.7,5,5,0,0,1-2.84,3l-.54-.81a4.31,4.31,0,0,0,2.87-3.94v-1.4h1v1.44A4.07,4.07,0,0,0,842.08,506.73Zm3,5.25h-7.55v-3.54h1v2.7H845Zm-.25-2.58h-1v-5h-2.51v-.84h2.51V501h1Z"/><path d="M851.55,502.6h-3.43V504h3.31v.79h-3.31v1.56a19.14,19.14,0,0,0,3.89-.31l.1.83a20.76,20.76,0,0,1-4.23.31h-.71v-5.43h4.38Zm4.7,9.62h-1v-3h-6.62v-.81h7.6Zm0-4.43h-1v-3.08h-1.59v3h-.93v-6.56h.93v2.73h1.59V501h1Z"/><path d="M864.55,503.58h-6.71v-.83h2.9v-1.67h1v1.67h2.82Zm-.53,3.53a2.78,2.78,0,1,1-2.77-2.59A2.59,2.59,0,0,1,864,507.11Zm-4.58,0a1.69,1.69,0,0,0,1.81,1.74,1.73,1.73,0,0,0,1.82-1.74,1.75,1.75,0,0,0-1.82-1.76A1.71,1.71,0,0,0,859.44,507.11Zm7.19-1.51h1.9v.82h-1.9v5.8h-1V500.94h1Z"/><path d="M874.53,502.52h3v-1.58h1v6.45h-1v-1.5h-2.93a3,3,0,0,1-2.31,1,2.67,2.67,0,1,1,0-5.32A3,3,0,0,1,874.53,502.52Zm.1,8.67a3.36,3.36,0,0,0,1.64-2.67v-.78h1v.78a3.1,3.1,0,0,0,2.31,2.81l-.52.77a2.2,2.2,0,0,0-4.39.08,3.55,3.55,0,0,1-2.12-2.19,4.09,4.09,0,0,1-2.26,2.11l-.5-.77a3.23,3.23,0,0,0,2.3-2.81v-.78H873v.78A3.07,3.07,0,0,0,874.63,511.19Zm-4.34-7a2,2,0,1,0,2-1.81A1.83,1.83,0,0,0,870.29,504.22Zm4.86,0a3.21,3.21,0,0,1-.12.84h2.46v-1.72H875A2.54,2.54,0,0,1,875.15,504.22Z"/><path d="M890.65,506.92H880.37v-.83h10.28Zm-.58-2.43-.37.8a5.8,5.8,0,0,1-4.17-2.42,5.9,5.9,0,0,1-4.19,2.42l-.38-.8c2-.27,4-1.46,4-2.89v-.54h1v.54C886,503,888.09,504.24,890.07,504.49Zm-7.4,4.55h5.64v-1.32h1v4.35h-7.63v-4.35h1Zm5.64,2.23v-1.45h-5.64v1.45Z"/><path d="M893.32,508.45a25.88,25.88,0,0,0,5.4-.54l.14.85a26.6,26.6,0,0,1-5.6.55h-.92v-7.26h1Zm7.59,3.77h-1V500.94h1Z"/><path d="M908.61,502.87h-4.28v5.71a26.4,26.4,0,0,0,5.16-.41l.13.87a29,29,0,0,1-5.39.38h-.89V502h5.27Zm3,2.53h1.89v.84h-1.89v6h-1V500.94h1Z"/><path d="M914.46,510.44a.81.81,0,0,1,1.62,0,.81.81,0,1,1-1.62,0Z"/><rect class="cls-1" x="269.73" y="307.65" width="128.71" height="104.2" rx="11.41"/><path class="cls-2" d="M284.88,325.58c-1.7,0-2.91,1.32-2.91,3.67s1.2,3.71,2.95,3.71a2.4,2.4,0,0,0,2.62-2.45h-2.43V329h4.25v1.26a4.16,4.16,0,0,1-4.44,4.37c-2.89,0-4.85-2-4.85-5.38s2-5.38,4.79-5.38a4.22,4.22,0,0,1,4.41,3.48h-1.92A2.41,2.41,0,0,0,284.88,325.58Z"/><path class="cls-2" d="M291.07,324H295c2.4,0,3.69,1.35,3.69,3.34a3,3,0,0,1-1.88,3l2.25,4.16H297l-2.05-3.84h-2v3.84h-1.88Zm3.65,5.07c1.42,0,2-.61,2-1.73s-.63-1.76-2-1.76H293v3.49Z"/><path class="cls-2" d="M300.32,324h6.81v1.58H302.2v2.86h4.57v1.58H302.2v2.87h5v1.59h-6.84Z"/><path class="cls-2" d="M308.94,324h6.82v1.58h-4.93v2.86h4.57v1.58h-4.57v2.87h5v1.59h-6.85Z"/><path class="cls-2" d="M326.18,334.51H324.5l-5-7.16h-.09v7.16h-1.88V324h1.71l4.93,7.16h.1V324h1.87Z"/><path class="cls-2" d="M280.27,372.26a11.41,11.41,0,0,1,2-.16,3.27,3.27,0,0,1,2.31.65,2,2,0,0,1,.63,1.52,2.09,2.09,0,0,1-1.51,2v0a2,2,0,0,1,1.17,1.61,14.24,14.24,0,0,0,.62,2.2H284.4a11.27,11.27,0,0,1-.53-1.91c-.24-1.11-.66-1.52-1.6-1.56h-1v3.47h-1Zm1,3.64h1.05c1.11,0,1.81-.6,1.81-1.52s-.75-1.48-1.84-1.49a4,4,0,0,0-1,.1Z"/><path class="cls-2" d="M292.76,379.79a7.29,7.29,0,0,1-2.45.44,3.75,3.75,0,0,1-4.1-4,4,4,0,0,1,4.32-4.13,4.91,4.91,0,0,1,2,.37l-.25.84a4.16,4.16,0,0,0-1.77-.34,3,3,0,0,0-3.21,3.21,2.93,2.93,0,0,0,3.08,3.23,3.24,3.24,0,0,0,1.37-.22v-2.38h-1.62V376h2.63Z"/><path class="cls-2" d="M294.34,372.26a10.45,10.45,0,0,1,1.88-.16,3.27,3.27,0,0,1,2.2.58,1.68,1.68,0,0,1,.66,1.41,1.89,1.89,0,0,1-1.35,1.75v0a2.05,2.05,0,0,1,1.65,2,2.16,2.16,0,0,1-.68,1.6,4,4,0,0,1-2.76.75,11.41,11.41,0,0,1-1.6-.1Zm1,3.27h.94c1.09,0,1.73-.56,1.73-1.34s-.71-1.3-1.76-1.3a5,5,0,0,0-.91.07Zm0,3.83a5,5,0,0,0,.87.05c1.06,0,2.05-.39,2.05-1.55s-.94-1.54-2.07-1.54h-.85Z"/><path class="cls-2" d="M312.94,372.44v.69l-3.36,7H308.5l3.35-6.82v0h-3.77v-.87Z"/><path class="cls-2" d="M318.42,373.17a3.8,3.8,0,0,0-.79.05A3.15,3.15,0,0,0,315,376h0a2.32,2.32,0,0,1,1.86-.89,2.29,2.29,0,0,1,2.32,2.49,2.58,2.58,0,0,1-2.56,2.72c-1.64,0-2.72-1.28-2.72-3.29a4.84,4.84,0,0,1,1.3-3.47,4.21,4.21,0,0,1,2.47-1.14,4.73,4.73,0,0,1,.76-.06Zm-.3,4.45a1.57,1.57,0,0,0-1.59-1.77,1.72,1.72,0,0,0-1.49.95.93.93,0,0,0-.12.47c0,1.26.6,2.2,1.69,2.2C317.52,379.47,318.12,378.72,318.12,377.62Z"/><path class="cls-2" d="M322.27,381.6a16.71,16.71,0,0,0,.71-2.83l1.16-.12a13.6,13.6,0,0,1-1.13,2.88Z"/><path class="cls-2" d="M329.84,373.41h0l-1.34.73-.2-.8,1.68-.9h.89v7.71h-1Z"/><path class="cls-2" d="M333.56,378.19a2.21,2.21,0,0,1,1.53-2.06v0a1.91,1.91,0,0,1-1.22-1.73,2.16,2.16,0,0,1,2.38-2.05,2,2,0,0,1,2.25,1.9,2,2,0,0,1-1.27,1.8v0a2.14,2.14,0,0,1,1.55,2,2.37,2.37,0,0,1-2.62,2.24C334.54,380.28,333.56,379.32,333.56,378.19Zm4.15-.05c0-.93-.65-1.38-1.69-1.68a1.67,1.67,0,0,0-1.39,1.59,1.43,1.43,0,0,0,1.54,1.47A1.39,1.39,0,0,0,337.71,378.14Zm-2.86-3.85c0,.77.58,1.19,1.47,1.42a1.51,1.51,0,0,0,1.17-1.4,1.2,1.2,0,0,0-1.3-1.25A1.22,1.22,0,0,0,334.85,374.29Z"/><path class="cls-2" d="M344.74,372.44v.69l-3.35,7h-1.08l3.34-6.82v0h-3.77v-.87Z"/><path class="cls-2" d="M348,381.6a16.71,16.71,0,0,0,.71-2.83l1.16-.12a14.2,14.2,0,0,1-1.12,2.88Z"/><path class="cls-2" d="M353.91,379.41a4.23,4.23,0,0,0,.84,0,3,3,0,0,0,1.61-.75,3.37,3.37,0,0,0,1-2.05h0a2.28,2.28,0,0,1-1.82.83,2.24,2.24,0,0,1-2.28-2.36,2.65,2.65,0,0,1,2.64-2.74c1.57,0,2.55,1.28,2.55,3.25a4.85,4.85,0,0,1-1.33,3.61,3.89,3.89,0,0,1-2.24,1,4.84,4.84,0,0,1-1,.05Zm.38-4.43a1.48,1.48,0,0,0,1.48,1.63,1.74,1.74,0,0,0,1.52-.8.71.71,0,0,0,.09-.38c0-1.32-.49-2.33-1.58-2.33C354.91,373.1,354.29,373.89,354.29,375Z"/><path class="cls-2" d="M359.38,380.15v-.64l.82-.8c2-1.87,2.86-2.87,2.87-4a1.38,1.38,0,0,0-1.53-1.51,2.58,2.58,0,0,0-1.63.66l-.34-.74a3.41,3.41,0,0,1,2.18-.78,2.17,2.17,0,0,1,2.36,2.24c0,1.42-1,2.57-2.65,4.14l-.62.57v0h3.46v.87Z"/><path class="cls-2" d="M281.3,391.12v3.35h3.86v-3.35h1v8h-1v-3.74H281.3v3.74h-1v-8Z"/><path class="cls-2" d="M292.13,395.37H289v2.88h3.46v.86H288v-8h4.31V392H289v2.52h3.1Z"/><path class="cls-2" d="M298.2,399.11l-1-1.76c-.41-.68-.67-1.12-.92-1.58h0c-.22.46-.45.89-.86,1.59l-1,1.75h-1.19l2.45-4-2.35-3.95h1.2l1.05,1.88c.3.52.52.92.74,1.35h0c.23-.48.43-.84.72-1.35l1.1-1.88h1.18L296.91,395l2.49,4.1Z"/><path class="cls-2" d="M308.34,399.11l.31-2.32h-1v-.7h1.08l.23-1.72h-1v-.7h1.13l.3-2.26h.69l-.3,2.26H311l.31-2.26h.7l-.3,2.26h1v.7h-1.08l-.21,1.72h1v.7H311.3l-.31,2.32h-.71l.31-2.32h-1.23l-.31,2.32Zm2.36-3,.22-1.72h-1.23l-.23,1.72Z"/><path class="cls-2" d="M316.89,399.11V397h-3.58v-.69l3.43-4.92h1.13v4.79H319V397h-1.08v2.09Zm0-2.91v-2.58q0-.6,0-1.2h0c-.24.45-.43.78-.64,1.13l-1.89,2.62v0Z"/><path class="cls-2" d="M324.17,398.9a3.93,3.93,0,0,1-1.65.33,2.73,2.73,0,0,1-2.86-2.93,2.91,2.91,0,0,1,3.08-3,3.57,3.57,0,0,1,1.45.29l-.24.81a2.45,2.45,0,0,0-1.21-.27,2.16,2.16,0,0,0,0,4.31,3,3,0,0,0,1.28-.28Z"/><path class="cls-2" d="M325.34,399.11c0-.39.05-1,.05-1.48V390.7h1v3.6h0a2.14,2.14,0,0,1,2-1.05c1.42,0,2.43,1.18,2.42,2.92,0,2.05-1.3,3.08-2.58,3.08a2.06,2.06,0,0,1-1.92-1.08h0l-.05.94Zm1.08-2.3a2.22,2.22,0,0,0,0,.38,1.62,1.62,0,0,0,1.57,1.23c1.09,0,1.74-.89,1.74-2.21,0-1.15-.59-2.13-1.71-2.13a1.65,1.65,0,0,0-1.58,1.28,1.63,1.63,0,0,0-.06.42Z"/><path class="cls-2" d="M332.08,399.11c0-.39.05-1,.05-1.48V390.7h1v3.6h0a2.12,2.12,0,0,1,1.95-1.05c1.42,0,2.43,1.18,2.42,2.92,0,2.05-1.29,3.08-2.57,3.08a2.05,2.05,0,0,1-1.92-1.08h0l0,.94Zm1.08-2.3a2.18,2.18,0,0,0,0,.38,1.61,1.61,0,0,0,1.56,1.23c1.1,0,1.75-.89,1.75-2.21,0-1.15-.6-2.13-1.71-2.13a1.66,1.66,0,0,0-1.59,1.28,2.22,2.22,0,0,0-.06.42Z"/><path class="cls-2" d="M343.14,392.29H340.2l-.29,2a4.73,4.73,0,0,1,.63,0,3.32,3.32,0,0,1,1.66.41,2.21,2.21,0,0,1,1.1,2,2.68,2.68,0,0,1-2.87,2.64,3.75,3.75,0,0,1-1.92-.48l.26-.79a3.46,3.46,0,0,0,1.65.42,1.7,1.7,0,0,0,1.82-1.67c0-1-.67-1.71-2.21-1.71a7.14,7.14,0,0,0-1.07.09l.5-3.7h3.68Z"/><path class="cls-2" d="M349.05,398.9a3.93,3.93,0,0,1-1.65.33,2.73,2.73,0,0,1-2.86-2.93,2.91,2.91,0,0,1,3.08-3,3.53,3.53,0,0,1,1.45.29l-.24.81a2.42,2.42,0,0,0-1.21-.27,2.16,2.16,0,0,0,0,4.31,3,3,0,0,0,1.28-.28Z"/><rect class="cls-3" x="269.73" y="539.29" width="129.13" height="104.54" rx="11.41"/><rect class="cls-4" x="411.17" y="539.25" width="129.13" height="104.54" rx="11.41"/><path class="cls-5" d="M280.37,553.93h1.89v8.92h4.65v1.6h-6.54Z"/><path class="cls-5" d="M290.3,564.45h-1.89V553.93h1.89Z"/><path class="cls-5" d="M296.82,555.49c-1.7,0-2.92,1.32-2.92,3.69s1.21,3.71,3,3.71a2.4,2.4,0,0,0,2.63-2.45h-2.45v-1.5h4.28v1.27a4.18,4.18,0,0,1-4.46,4.38c-2.91,0-4.87-2.06-4.87-5.4s2.05-5.4,4.81-5.4a4.24,4.24,0,0,1,4.43,3.5h-1.93A2.43,2.43,0,0,0,296.82,555.49Z"/><path class="cls-5" d="M303,553.93h1.89v4.46h4.9v-4.46h1.9v10.52h-1.9V560h-4.9v4.47H303Z"/><path class="cls-5" d="M313.2,553.93h8.38v1.59h-3.24v8.93h-1.89v-8.93H313.2Z"/><path class="cls-5" d="M326.58,553.93h4c2.28,0,3.41,1.16,3.41,2.73a2.2,2.2,0,0,1-1.85,2.24v.1a2.46,2.46,0,0,1,2.26,2.59c0,1.64-1.18,2.86-3.59,2.86h-4.26Zm5.55,3c0-.82-.58-1.4-1.71-1.4h-1.95v2.91h1.9A1.57,1.57,0,0,0,332.13,556.9Zm.38,4.54a1.73,1.73,0,0,0-1.92-1.67h-2.12v3.1h2.08C331.93,562.87,332.51,562.27,332.51,561.44Z"/><path class="cls-5" d="M336,553.93h4c2.41,0,3.71,1.35,3.71,3.36a3,3,0,0,1-1.89,3l2.26,4.17h-2.1l-2.07-3.85h-2v3.85H336Zm3.66,5.09c1.42,0,2.06-.61,2.06-1.73s-.64-1.77-2.06-1.77h-1.77V559Z"/><path class="cls-5" d="M349.8,564.59c-2.76,0-4.82-2-4.82-5.4s2.06-5.4,4.82-5.4,4.82,2,4.82,5.4S352.56,564.59,349.8,564.59Zm0-9.1c-1.72,0-2.92,1.3-2.92,3.7s1.2,3.7,2.92,3.7,2.92-1.3,2.92-3.7S351.51,555.49,349.8,555.49Z"/><path class="cls-5" d="M355.31,553.93h2l1.9,7.74h.1l2-7.74h1.86l2,7.76h.08l1.91-7.76h2l-3,10.52h-1.88l-2.1-7.39h-.08l-2.12,7.39h-1.87Z"/><path class="cls-5" d="M379.12,564.45h-1.68l-5-7.19h-.08v7.19h-1.89V553.93h1.71l5,7.19h.1v-7.19h1.87Z"/><path class="cls-5" d="M280.3,602.33a11.44,11.44,0,0,1,2-.16,3.27,3.27,0,0,1,2.31.65,2,2,0,0,1,.63,1.52,2.11,2.11,0,0,1-1.51,2v0A2,2,0,0,1,284.9,608a12.2,12.2,0,0,0,.62,2.2h-1.07a10.86,10.86,0,0,1-.54-1.92c-.23-1.1-.66-1.52-1.6-1.55h-1v3.47h-1Zm1,3.65h1.06c1.11,0,1.81-.6,1.81-1.52s-.75-1.48-1.84-1.5a4.15,4.15,0,0,0-1,.1Z"/><path class="cls-5" d="M292.83,609.88a7.36,7.36,0,0,1-2.46.44,3.77,3.77,0,0,1-4.11-4,4,4,0,0,1,4.34-4.14,5,5,0,0,1,2,.37l-.25.84a4.28,4.28,0,0,0-1.77-.34,3,3,0,0,0-3.22,3.22,3,3,0,0,0,3.09,3.24,3.33,3.33,0,0,0,1.38-.22v-2.39h-1.63V606h2.64Z"/><path class="cls-5" d="M294.42,602.33a10.48,10.48,0,0,1,1.89-.16,3.35,3.35,0,0,1,2.2.58,1.68,1.68,0,0,1,.66,1.41,1.9,1.9,0,0,1-1.35,1.76v0a2.06,2.06,0,0,1,1.65,2,2.12,2.12,0,0,1-.68,1.6,4,4,0,0,1-2.77.75,11.41,11.41,0,0,1-1.6-.1Zm1,3.28h.94c1.09,0,1.74-.57,1.74-1.34,0-.94-.72-1.31-1.76-1.31a5,5,0,0,0-.92.07Zm0,3.84a5,5,0,0,0,.87,0c1.07,0,2.06-.39,2.06-1.56s-.94-1.54-2.07-1.54h-.86Z"/><path class="cls-5" d="M308.06,610.24v-.64l.82-.8c2-1.88,2.86-2.88,2.88-4a1.38,1.38,0,0,0-1.54-1.51,2.62,2.62,0,0,0-1.64.65l-.33-.73a3.33,3.33,0,0,1,2.19-.79,2.17,2.17,0,0,1,2.36,2.25c0,1.42-1,2.58-2.66,4.15l-.62.57v0H313v.87Z"/><path class="cls-5" d="M318.77,603.39h-2.95l-.29,2a3.4,3.4,0,0,1,.63,0,3.3,3.3,0,0,1,1.66.41,2.22,2.22,0,0,1,1.11,2,2.68,2.68,0,0,1-2.88,2.64,3.79,3.79,0,0,1-1.93-.48l.27-.79a3.46,3.46,0,0,0,1.65.42,1.71,1.71,0,0,0,1.83-1.67c0-1-.68-1.71-2.22-1.71a7.33,7.33,0,0,0-1.07.08l.5-3.71h3.69Z"/><path class="cls-5" d="M325.4,606.29c0,2.63-1,4.08-2.69,4.08-1.51,0-2.53-1.42-2.56-4s1.12-4,2.69-4S325.4,603.83,325.4,606.29Zm-4.2.12c0,2,.62,3.15,1.57,3.15s1.58-1.25,1.58-3.22-.49-3.15-1.57-3.15C321.87,603.19,321.2,604.31,321.2,606.41Z"/><path class="cls-5" d="M328.54,611.7a17.08,17.08,0,0,0,.71-2.84l1.17-.12a15.15,15.15,0,0,1-1.13,2.89Z"/><path class="cls-5" d="M333.87,610.24v-.64l.82-.8c2-1.88,2.86-2.88,2.87-4a1.38,1.38,0,0,0-1.53-1.51,2.62,2.62,0,0,0-1.64.65l-.33-.73a3.32,3.32,0,0,1,2.18-.79,2.17,2.17,0,0,1,2.37,2.25c0,1.42-1,2.58-2.66,4.15l-.62.57v0h3.47v.87Z"/><path class="cls-5" d="M343.2,610.24v-2.11h-3.59v-.69l3.45-4.93h1.13v4.8h1.08v.82h-1.08v2.11Zm0-2.93v-2.58c0-.4,0-.8,0-1.21h0c-.24.45-.43.79-.64,1.14l-1.89,2.63v0Z"/><path class="cls-5" d="M351.09,602.51v.69l-3.37,7h-1.08L350,603.4v0h-3.78v-.87Z"/><path class="cls-5" d="M354.35,611.7a17.08,17.08,0,0,0,.71-2.84l1.16-.12a14.56,14.56,0,0,1-1.12,2.89Z"/><path class="cls-5" d="M359.67,610.24v-.64l.82-.8c2-1.88,2.87-2.88,2.88-4a1.38,1.38,0,0,0-1.53-1.51,2.6,2.6,0,0,0-1.64.65l-.34-.73a3.37,3.37,0,0,1,2.19-.79,2.17,2.17,0,0,1,2.37,2.25c0,1.42-1,2.58-2.67,4.15l-.61.57v0h3.47v.87Z"/><path class="cls-5" d="M369,610.24v-2.11h-3.59v-.69l3.45-4.93H370v4.8h1.08v.82H370v2.11Zm0-2.93v-2.58c0-.4,0-.8,0-1.21h0c-.24.45-.43.79-.64,1.14l-1.89,2.63v0Z"/><path class="cls-5" d="M377,606.29c0,2.63-1,4.08-2.68,4.08-1.51,0-2.54-1.42-2.56-4s1.12-4,2.69-4S377,603.83,377,606.29Zm-4.19.12c0,2,.61,3.15,1.56,3.15s1.59-1.25,1.59-3.22-.49-3.15-1.57-3.15C373.48,603.19,372.82,604.31,372.82,606.41Z"/><path class="cls-5" d="M281.33,621.26v3.35h3.88v-3.35h1.05v8h-1.05v-3.76h-3.88v3.76h-1v-8Z"/><path class="cls-5" d="M292.2,625.51h-3.11v2.89h3.47v.87h-4.51v-8h4.33v.86h-3.29v2.53h3.11Z"/><path class="cls-5" d="M298.29,629.27l-1-1.77c-.42-.68-.68-1.12-.93-1.58h0c-.23.46-.45.89-.87,1.59l-1,1.76H293.3l2.45-4.06-2.35-4h1.2l1,1.87c.3.53.53.93.74,1.36h0a15.17,15.17,0,0,1,.72-1.36l1.1-1.87h1.18L297,625.15l2.49,4.12Z"/><path class="cls-5" d="M308.46,629.27l.31-2.33h-1v-.7h1.08l.22-1.73h-1v-.7h1.13l.31-2.27h.69l-.3,2.27h1.24l.31-2.27h.7l-.3,2.27h1v.7h-1.08l-.22,1.73h1v.7h-1.13l-.3,2.33h-.72l.31-2.33h-1.23l-.31,2.33Zm2.37-3,.22-1.73h-1.23l-.23,1.73Z"/><path class="cls-5" d="M314.24,629.27v-5h-.8v-.8h.8v-.27a2.71,2.71,0,0,1,.67-2,2,2,0,0,1,1.4-.53,2.49,2.49,0,0,1,.89.16l-.14.81a1.58,1.58,0,0,0-.67-.13c-.89,0-1.11.79-1.11,1.66v.31h1.39v.8h-1.39v5Z"/><path class="cls-5" d="M320.79,629.27l-.08-.73h0a2.17,2.17,0,0,1-1.76.86,1.64,1.64,0,0,1-1.76-1.65c0-1.4,1.23-2.16,3.46-2.14v-.12a1.18,1.18,0,0,0-1.31-1.33,2.89,2.89,0,0,0-1.5.42l-.24-.69a3.68,3.68,0,0,1,1.89-.51c1.76,0,2.19,1.2,2.19,2.36v2.15a7.33,7.33,0,0,0,.1,1.38Zm-.15-2.94c-1.14,0-2.44.18-2.44,1.3a.93.93,0,0,0,1,1,1.43,1.43,0,0,0,1.39-1,.92.92,0,0,0,.06-.33Z"/><path class="cls-5" d="M323.45,629.27v-5h-.81v-.8h.81v-.27a2.75,2.75,0,0,1,.66-2,2,2,0,0,1,1.41-.53,2.49,2.49,0,0,1,.89.16l-.14.81a1.62,1.62,0,0,0-.67-.13c-.89,0-1.12.79-1.12,1.66v.31h1.39v.8h-1.39v5Z"/><path class="cls-5" d="M331.5,621.54v.69l-3.37,7h-1.08l3.35-6.84v0h-3.78v-.87Z"/><path class="cls-5" d="M333,629.27v-5h-.81v-.8H333v-.27a2.71,2.71,0,0,1,.67-2,2,2,0,0,1,1.4-.53,2.49,2.49,0,0,1,.89.16l-.14.81a1.58,1.58,0,0,0-.67-.13c-.89,0-1.11.79-1.11,1.66v.31h1.39v.8h-1.39v5Z"/><path class="cls-5" d="M341.19,625.32c0,2.63-1,4.08-2.69,4.08-1.51,0-2.53-1.42-2.55-4s1.12-4,2.68-4S341.19,622.86,341.19,625.32Zm-4.2.12c0,2,.62,3.15,1.57,3.15s1.58-1.25,1.58-3.22-.48-3.15-1.56-3.15C337.66,622.22,337,623.34,337,625.44Z"/><path class="cls-2" d="M425.47,553.93h1.89v8.92H432v1.6h-6.54Z"/><path class="cls-2" d="M435.4,564.45h-1.89V553.93h1.89Z"/><path class="cls-2" d="M441.92,555.49c-1.7,0-2.92,1.32-2.92,3.69s1.21,3.71,3,3.71a2.39,2.39,0,0,0,2.62-2.45h-2.44v-1.5h4.27v1.27a4.17,4.17,0,0,1-4.45,4.38c-2.91,0-4.87-2.06-4.87-5.4s2-5.4,4.81-5.4a4.24,4.24,0,0,1,4.43,3.5h-1.93A2.43,2.43,0,0,0,441.92,555.49Z"/><path class="cls-2" d="M448.13,553.93H450v4.46h4.9v-4.46h1.9v10.52h-1.9V560H450v4.47h-1.89Z"/><path class="cls-2" d="M458.3,553.93h8.38v1.59h-3.24v8.93h-1.89v-8.93H458.3Z"/><path class="cls-2" d="M471.68,553.93h4c2.28,0,3.41,1.16,3.41,2.73a2.2,2.2,0,0,1-1.85,2.24v.1a2.46,2.46,0,0,1,2.26,2.59c0,1.64-1.18,2.86-3.59,2.86h-4.26Zm5.55,3c0-.82-.58-1.4-1.71-1.4h-1.95v2.91h1.9A1.57,1.57,0,0,0,477.23,556.9Zm.38,4.54a1.73,1.73,0,0,0-1.92-1.67h-2.12v3.1h2.08C477,562.87,477.61,562.27,477.61,561.44Z"/><path class="cls-2" d="M481.06,553.93H483v8.92h4.65v1.6h-6.54Z"/><path class="cls-2" d="M497.64,553.93v6.87c0,2.25-1.71,3.81-4.27,3.81s-4.27-1.56-4.27-3.81v-6.87H491v6.71a2.38,2.38,0,0,0,4.75,0v-6.71Z"/><path class="cls-2" d="M499.59,553.93h6.84v1.59h-5v2.87h4.59V560h-4.59v2.87h5v1.6h-6.87Z"/><path class="cls-2" d="M425.4,602.33a11.44,11.44,0,0,1,2-.16,3.27,3.27,0,0,1,2.31.65,2,2,0,0,1,.63,1.52,2.11,2.11,0,0,1-1.51,2v0A2,2,0,0,1,430,608a12.2,12.2,0,0,0,.62,2.2h-1.07a10.86,10.86,0,0,1-.54-1.92c-.23-1.1-.66-1.52-1.6-1.55h-1v3.47h-1Zm1,3.65h1.06c1.11,0,1.81-.6,1.81-1.52s-.75-1.48-1.84-1.5a4.15,4.15,0,0,0-1,.1Z"/><path class="cls-2" d="M437.93,609.88a7.36,7.36,0,0,1-2.46.44,3.77,3.77,0,0,1-4.11-4,4,4,0,0,1,4.34-4.14,5,5,0,0,1,2,.37l-.25.84a4.28,4.28,0,0,0-1.77-.34,3,3,0,0,0-3.22,3.22,3,3,0,0,0,3.09,3.24,3.33,3.33,0,0,0,1.38-.22v-2.39h-1.63V606h2.64Z"/><path class="cls-2" d="M439.52,602.33a10.48,10.48,0,0,1,1.89-.16,3.35,3.35,0,0,1,2.2.58,1.68,1.68,0,0,1,.66,1.41,1.9,1.9,0,0,1-1.35,1.76v0a2.06,2.06,0,0,1,1.65,2,2.12,2.12,0,0,1-.68,1.6,4,4,0,0,1-2.77.75,11.41,11.41,0,0,1-1.6-.1Zm1,3.28h.94c1.09,0,1.74-.57,1.74-1.34,0-.94-.72-1.31-1.76-1.31a5,5,0,0,0-.92.07Zm0,3.84a5,5,0,0,0,.87,0c1.07,0,2.06-.39,2.06-1.56s-.94-1.54-2.07-1.54h-.86Z"/><path class="cls-2" d="M455.43,603.49h0l-1.34.72-.2-.8,1.69-.9h.89v7.73h-1Z"/><path class="cls-2" d="M459.87,609.5a5.16,5.16,0,0,0,.84,0,3,3,0,0,0,1.62-.75,3.42,3.42,0,0,0,1-2.06h0a2.27,2.27,0,0,1-1.82.83,2.23,2.23,0,0,1-2.28-2.36,2.65,2.65,0,0,1,2.64-2.75c1.58,0,2.56,1.28,2.56,3.26a4.86,4.86,0,0,1-1.33,3.62,3.89,3.89,0,0,1-2.25,1,5,5,0,0,1-1,.06Zm.38-4.44a1.49,1.49,0,0,0,1.48,1.64,1.73,1.73,0,0,0,1.52-.81.71.71,0,0,0,.1-.38c0-1.32-.49-2.33-1.58-2.33C460.88,603.18,460.25,604,460.25,605.06Z"/><path class="cls-2" d="M470.38,602.51v.69l-3.37,7h-1.08l3.35-6.84v0H465.5v-.87Z"/><path class="cls-2" d="M473.64,611.7a17.08,17.08,0,0,0,.71-2.84l1.17-.12a15.15,15.15,0,0,1-1.13,2.89Z"/><path class="cls-2" d="M479,610.24v-.64l.82-.8c2-1.88,2.86-2.88,2.87-4a1.38,1.38,0,0,0-1.53-1.51,2.62,2.62,0,0,0-1.64.65l-.33-.73a3.32,3.32,0,0,1,2.18-.79,2.17,2.17,0,0,1,2.37,2.25c0,1.42-1,2.58-2.66,4.15l-.62.57v0h3.47v.87Z"/><path class="cls-2" d="M485.07,610.24v-.64l.82-.8c2-1.88,2.86-2.88,2.87-4a1.38,1.38,0,0,0-1.53-1.51,2.62,2.62,0,0,0-1.64.65l-.33-.73a3.32,3.32,0,0,1,2.18-.79,2.17,2.17,0,0,1,2.37,2.25c0,1.42-1,2.58-2.66,4.15l-.62.57v0H490v.87Z"/><path class="cls-2" d="M491.07,608.28a2.21,2.21,0,0,1,1.54-2.07l0,0a1.91,1.91,0,0,1-1.22-1.73,2.17,2.17,0,0,1,2.39-2.06,2,2,0,0,1,2.25,1.9,2,2,0,0,1-1.28,1.81v0a2.13,2.13,0,0,1,1.56,2,2.37,2.37,0,0,1-2.62,2.25C492.05,610.37,491.07,609.41,491.07,608.28Zm4.16,0c0-.94-.65-1.39-1.7-1.69a1.68,1.68,0,0,0-1.39,1.59,1.44,1.44,0,0,0,1.55,1.48A1.4,1.4,0,0,0,495.23,608.23Zm-2.87-3.86c0,.77.58,1.18,1.47,1.42a1.51,1.51,0,0,0,1.18-1.4,1.2,1.2,0,0,0-1.31-1.26A1.23,1.23,0,0,0,492.36,604.37Z"/><path class="cls-2" d="M499.45,611.7a17.08,17.08,0,0,0,.71-2.84l1.16-.12a14.56,14.56,0,0,1-1.12,2.89Z"/><path class="cls-2" d="M504.77,610.24v-.64l.82-.8c2-1.88,2.87-2.88,2.88-4a1.38,1.38,0,0,0-1.53-1.51,2.6,2.6,0,0,0-1.64.65l-.34-.73a3.37,3.37,0,0,1,2.19-.79,2.17,2.17,0,0,1,2.37,2.25c0,1.42-1,2.58-2.67,4.15l-.61.57v0h3.47v.87Z"/><path class="cls-2" d="M514.11,610.24v-2.11h-3.59v-.69l3.44-4.93h1.13v4.8h1.09v.82h-1.09v2.11Zm0-2.93v-2.58c0-.4,0-.8,0-1.21h0c-.24.45-.43.79-.64,1.14l-1.89,2.63v0Z"/><path class="cls-2" d="M522,602.51v.69l-3.36,7h-1.08l3.35-6.84v0h-3.78v-.87Z"/><path class="cls-2" d="M426.43,621.26v3.35h3.88v-3.35h1v8h-1v-3.76h-3.88v3.76h-1v-8Z"/><path class="cls-2" d="M437.3,625.51h-3.11v2.89h3.47v.87h-4.51v-8h4.33v.86h-3.29v2.53h3.11Z"/><path class="cls-2" d="M443.39,629.27l-1-1.77c-.42-.68-.68-1.12-.93-1.58h0c-.23.46-.45.89-.87,1.59l-1,1.76H438.4l2.45-4.06-2.36-4h1.21l1.05,1.87c.3.53.53.93.74,1.36h0a15.17,15.17,0,0,1,.72-1.36l1.09-1.87h1.19l-2.43,3.89,2.49,4.12Z"/><path class="cls-2" d="M453.56,629.27l.31-2.33h-1v-.7H454l.22-1.73h-1v-.7h1.13l.31-2.27h.69l-.3,2.27h1.24l.31-2.27h.7l-.3,2.27h1v.7h-1.09l-.21,1.73h1v.7h-1.13l-.3,2.33h-.72l.31-2.33h-1.24l-.3,2.33Zm2.37-3,.22-1.73h-1.23l-.23,1.73Z"/><path class="cls-2" d="M463.34,629.05a3.76,3.76,0,0,1-1.66.34,2.74,2.74,0,0,1-2.86-2.94,2.92,2.92,0,0,1,3.09-3.05,3.53,3.53,0,0,1,1.45.29l-.24.81a2.45,2.45,0,0,0-1.21-.27,2.17,2.17,0,0,0,0,4.32,3,3,0,0,0,1.29-.28Z"/><path class="cls-2" d="M468.84,622.42H465.9l-.3,2a3.4,3.4,0,0,1,.63,0,3.3,3.3,0,0,1,1.66.41,2.21,2.21,0,0,1,1.11,2,2.68,2.68,0,0,1-2.88,2.64,3.72,3.72,0,0,1-1.92-.48l.26-.79a3.46,3.46,0,0,0,1.65.42,1.7,1.7,0,0,0,1.83-1.67c0-1-.68-1.71-2.22-1.71a7.33,7.33,0,0,0-1.07.08l.5-3.71h3.69Z"/><path class="cls-2" d="M471.25,626.58a1.84,1.84,0,0,0,2,2,3.7,3.7,0,0,0,1.59-.3l.18.75a4.59,4.59,0,0,1-1.91.36,2.68,2.68,0,0,1-2.83-2.9c0-1.74,1-3.11,2.7-3.11a2.43,2.43,0,0,1,2.37,2.71,4.68,4.68,0,0,1,0,.49Zm3.06-.75a1.49,1.49,0,0,0-1.45-1.7,1.74,1.74,0,0,0-1.6,1.7Z"/><path class="cls-2" d="M479.52,629.27v-2.11h-3.59v-.69l3.45-4.93h1.13v4.8h1.08v.82h-1.08v2.11Zm0-2.93v-2.58c0-.4,0-.8,0-1.21h0c-.23.45-.42.79-.64,1.14L477,626.32v0Z"/><path class="cls-2" d="M482.83,629.27v-5H482v-.8h.81v-.27a2.71,2.71,0,0,1,.67-2,2,2,0,0,1,1.4-.53,2.49,2.49,0,0,1,.89.16l-.14.81a1.58,1.58,0,0,0-.67-.13c-.89,0-1.11.79-1.11,1.66v.31h1.39v.8h-1.39v5Z"/><path class="cls-2" d="M490.88,621.54v.69l-3.36,7h-1.08l3.35-6.84v0H486v-.87Z"/></svg>