<svg id="Layer_1" data-name="Layer 1" xmlns="http://www.w3.org/2000/svg" viewBox="0 0 960 720"><defs><style>.cls-1{fill:#4cbb5c;}.cls-2,.cls-3,.cls-6{fill:#fff;}.cls-3{stroke:#ccc;}.cls-3,.cls-4,.cls-5,.cls-6{stroke-miterlimit:10;}.cls-4{fill:none;}.cls-4,.cls-5,.cls-6{stroke:#4c945c;}.cls-4,.cls-5{stroke-width:2px;}.cls-5{fill:#4c945c;}</style></defs><rect class="cls-1" x="0.77" width="215.79" height="720"/><path class="cls-2" d="M53.94,117.63l-1.75-2.39c5.26-2.64,8.08-6.18,8.66-11.13H53.46v-2.54H64C64,108.21,61.42,114,53.94,117.63Zm16-9.81h3.15v2.56H70v11.09H66.84V99.3H70Z"/><path class="cls-2" d="M86.42,108.77c0,4.88-2.49,7.94-5.84,7.94s-5.91-3.06-5.88-7.94,2.46-7.91,5.88-7.91S86.42,103.94,86.42,108.77Zm-8.72,0c0,3.32,1.15,5.1,2.88,5.1s2.83-1.78,2.83-5.1-1.14-5.1-2.83-5.1S77.7,105.47,77.7,108.77Zm14.94,12.79H89.49V99.3h3.15Z"/><path class="cls-2" d="M116,118.8H95.64v-2.56H116Zm-2.22-6.73H98V101.15h15.55v2.52H101.11v5.91h12.65Z"/><path class="cls-2" d="M136.42,107.92l-1.64,2.39a8.27,8.27,0,0,1-5-4.18,8.36,8.36,0,0,1-5.32,4.64l-1.61-2.46a6.84,6.84,0,0,0,5.35-6.67V100h3.15v1.61C131.31,104.3,132.88,106.87,136.42,107.92Zm5.32,9.54H130.07v1.37h12.3v2.44H127v-6.08h11.67v-1.27H127v-2.39h14.77Zm0-6.86h-3.1v-5.52h-4.18v-2.46h4.18V99.3h3.1Z"/><path class="cls-2" d="M157.44,103.13H153a6.85,6.85,0,0,0,5.1,6.35l-1.54,2.44a8.32,8.32,0,0,1-5.1-4.42,8.93,8.93,0,0,1-5.4,5L144.47,110a7.43,7.43,0,0,0,5.37-6.91h-4.46v-2.49h12.06Zm6,14.14c0,2.68-2.93,4.27-7.67,4.27s-7.64-1.59-7.64-4.27S151,113,155.75,113,163.39,114.56,163.42,117.27Zm-12.21,0c0,1.27,1.59,1.9,4.54,1.9s4.57-.63,4.57-1.9-1.61-1.91-4.57-1.91S151.21,116,151.21,117.27Zm12.13-4.79h-3.1v-5.25h-3.46v-2.51h3.46V99.3h3.1Z"/><path class="cls-2" d="M56.39,76c-1.41,0-2.33.73-2.33,1.74s1.24,1.53,2,1.73l1,.3c1.15.29,3,.95,3,2.93,0,1.72-1.4,3.07-3.86,3.07-2.28,0-3.7-1.19-3.82-2.94h1.35c.11,1.18,1.21,1.74,2.47,1.74,1.47,0,2.57-.75,2.57-1.9s-1-1.43-2.1-1.75l-1.3-.35c-1.67-.48-2.7-1.33-2.7-2.77,0-1.78,1.6-3,3.65-3S60,76,60,77.63H58.73C58.61,76.59,57.66,76,56.39,76Z"/><path class="cls-2" d="M61.47,75h8v1.17H66.14v9.43H64.81V76.14H61.47Z"/><path class="cls-2" d="M71.83,75l2.91,4.92h.13L77.79,75h1.52l-3.84,6.25v4.35H74.14V81.22L70.32,75Z"/><path class="cls-2" d="M80.73,75h1.32V84.4H87v1.17H80.73Z"/><path class="cls-2" d="M88.73,75h6.43v1.17H90.05v3.54h4.77v1.16H90.05V84.4h5.18v1.17h-6.5Z"/><path class="cls-2" d="M101.47,76.05c-1.87,0-3.37,1.48-3.37,4.22s1.5,4.22,3.46,4.22a2.91,2.91,0,0,0,3-3.08h-2.77V80.25h4.06V81.4a4.11,4.11,0,0,1-4.34,4.32c-2.83,0-4.73-2.1-4.73-5.45s1.92-5.45,4.64-5.45a4.27,4.27,0,0,1,4.37,3.46h-1.36A3,3,0,0,0,101.47,76.05Z"/><path class="cls-2" d="M116.14,75v7c0,2.18-1.63,3.78-4.13,3.78s-4.13-1.6-4.13-3.78V75h1.31v6.91a2.82,2.82,0,0,0,5.63,0V75Z"/><path class="cls-2" d="M119.8,85.57h-1.32V75h1.32Z"/><path class="cls-2" d="M122.14,85.57V75h3.43c3.09,0,4.92,2,4.92,5.28s-1.83,5.32-5.05,5.32Zm3.21-1.17c2.61,0,3.85-1.57,3.85-4.15s-1.24-4.11-3.72-4.11h-2V84.4Z"/><path class="cls-2" d="M132.43,75h6.43v1.17h-5.12v3.54h4.78v1.16h-4.78V84.4h5.19v1.17h-6.5Z"/><path d="M270.68,97.59h3c.06,1,1.08,1.75,2.44,1.75s2.43-.8,2.41-1.93-1-2-2.68-2h-1.31V93.27h1.31c1.39,0,2.36-.76,2.36-1.88a1.85,1.85,0,0,0-2.07-1.81,2.08,2.08,0,0,0-2.32,1.78H271c0-2.45,2.24-4.13,5.13-4.13S281,89,281,91.22a3,3,0,0,1-2.68,3v.11c2.07.26,3.22,1.53,3.2,3.29,0,2.42-2.28,4.16-5.46,4.16S270.74,100.05,270.68,97.59Z"/><path d="M283.28,100.11a1.61,1.61,0,0,1,1.64-1.63,1.64,1.64,0,0,1,0,3.27A1.63,1.63,0,0,1,283.28,100.11Z"/><path d="M301.36,89.09h-5.9V92h5.64v2h-5.64v3.36a42.91,42.91,0,0,0,7-.51l.24,2a52.72,52.72,0,0,1-8.25.48h-1.5V87.06h8.42Zm4.9,3.24h2.62v2.09h-2.62v9h-2.5V85.59h2.5Z"/><path d="M319.42,93.17c0,3.91-2,6.35-4.66,6.35s-4.73-2.44-4.71-6.35,2-6.33,4.71-6.33S319.42,89.3,319.42,93.17Zm-7,0c0,2.66.92,4.08,2.31,4.08S317,95.83,317,93.17s-.92-4.08-2.26-4.08S312.45,90.54,312.45,93.17Zm12,10.24h-2.52V85.59h2.52Z"/><path d="M343.08,101.39H326.81V99.3h6.83V96.1h-5.48V94.15h2.38V89.07h-2.46v-2h13.63v2h-2.5v5.08h2.42V96.1h-5.51v3.2h7Zm-6.33-7.24V89.07H333v5.08Z"/><path d="M360.3,101H344.09V99H360.3Zm-2-11.68a44.3,44.3,0,0,1-.64,8.54l-2.52-.22a41.7,41.7,0,0,0,.68-8.32v-.13H345.77v-2h12.54Z"/><path d="M368.62,94.17h-4.35v3.18a35.17,35.17,0,0,0,5.12-.37l.17,2a36.55,36.55,0,0,1-6.44.45h-1.23V92.18h4.33V89.32h-4.35v-2h6.75Zm8.13,9.2h-2.36V94.32h-1.72v8.19h-2.29V85.89h2.29v6.42h1.72V85.59h2.36Z"/><path d="M389.17,89.23h-1.58v7.71c.78,0,1.55-.13,2.3-.21l.12,1.85a72.36,72.36,0,0,1-11.15.71l-.24-2,2.05,0v-8h-1.56v-2h10.06Zm-4,7.87V89.23H383.1v8C383.78,97.17,384.47,97.14,385.17,97.1Zm8.43,6.27h-2.52V85.59h2.52Z"/><path d="M270.61,314.33l6-9.32h3.69v9.28h1.8v2.37h-1.8v2.5h-2.79v-2.5h-6.87Zm6.91,0v-6.05h-.14l-3.8,5.93v.12Z"/><path d="M283.78,317.69a1.61,1.61,0,0,1,1.64-1.62,1.64,1.64,0,0,1,1.62,1.62,1.66,1.66,0,0,1-1.62,1.64A1.62,1.62,0,0,1,283.78,317.69Z"/><path d="M303.48,315,302,317a8.1,8.1,0,0,1-3.92-4.85,8.53,8.53,0,0,1-4.16,5.18l-1.55-2c3-1.39,4.44-4.79,4.44-8.09v-2.65h2.5v2.65C299.26,310.39,300.63,313.61,303.48,315Zm3.28-5h2.62v2.11h-2.62V321h-2.5V303.18h2.5Z"/><path d="M319.92,310.76c0,3.9-2,6.34-4.67,6.34s-4.72-2.44-4.7-6.34,2-6.33,4.7-6.33S319.92,306.89,319.92,310.76Zm-7,0c0,2.65.92,4.08,2.3,4.08s2.27-1.43,2.27-4.08-.92-4.09-2.27-4.09S313,308.12,313,310.76ZM324.9,321h-2.52V303.18h2.52Z"/><path d="M343.58,318.88H327.31v-2h16.27Zm-1.78-4.55H329.22v-9.84h12.44v2h-9.9v1.87h9.49v2h-9.49v2h10Z"/><path d="M352.29,312.1h-7.07v-7.77h7.07Zm-4.73-2H350v-3.89h-2.4Zm2.62,5h7.22v-1.62h2.46v7.19H347.72v-7.19h2.46Zm7.22,3.57v-1.6h-7.22v1.6Zm2.46-5.91H357.5v-3.93H356v3.81h-2.33v-9.22H356v3.38h1.48V303.2h2.36Z"/><path d="M365.92,304.41h2.75a17.32,17.32,0,0,0,0,18.73h-2.75a16.07,16.07,0,0,1,0-18.73Z"/><path d="M370.92,314.78l-1-1.91a10.51,10.51,0,0,0,5.16-3.07l-4.81.39-.35-2,6.13-.22a6.32,6.32,0,0,0,.32-1.46h-5.55v-2H379C379,309.49,376.92,312.87,370.92,314.78Zm14.18,5.86H373V315h2.52v3.62h9.63Zm-.45-4.34h-2.48v-5.72H379v-2h3.22V303.2h2.48Z"/><path d="M394.43,306.52H390v1.76h3.73v1.89H390V312a28.76,28.76,0,0,0,5-.37l.25,1.95a35.38,35.38,0,0,1-6.42.41h-1.21v-9.41h6.77Zm8.25,14.12H390.31V315h2.5v3.62h9.87Zm-4-4.59h-2.36V310h-1.8v-2h1.8v-4.51h2.36Zm3.54.41h-2.37V303.2h2.37Z"/><path d="M420.51,318.88H404.24v-2h16.27Zm-1.43-11.21h-5.43c.2,2.14,2.24,4.33,6.27,4.86l-.95,2c-3.16-.49-5.43-1.91-6.63-3.85-1.18,1.94-3.44,3.36-6.6,3.85l-.93-2c4-.53,6.05-2.72,6.27-4.86h-5.43v-2h5.46v-2.21h2.48v2.21h5.49Z"/><path d="M440.45,305.82a30.4,30.4,0,0,1-.45,5.95h2.34v2h-6.93V321h-2.5v-7.19h-6.78v-2h11.35a27,27,0,0,0,.49-5.56H428v-2h12.46Z"/><path d="M454.2,311.05,452.89,313a6.48,6.48,0,0,1-3.94-3.49,7.13,7.13,0,0,1-4.38,4l-1.31-2a5.93,5.93,0,0,0,4.36-5.84V304.1h2.52v1.5A5.4,5.4,0,0,0,454.2,311.05Zm4.26,6.46c0,2.19-2.35,3.44-6.13,3.44s-6.12-1.25-6.12-3.44,2.33-3.45,6.12-3.45S458.44,315.33,458.46,317.51Zm-9.77,0c0,1,1.27,1.51,3.64,1.51s3.65-.53,3.65-1.51-1.29-1.52-3.65-1.52S448.69,316.5,448.69,317.51Zm9.71-3.92h-2.48v-5.12h-3.34v-2h3.34v-3.26h2.48Z"/><path d="M463.4,323.14h-2.75a17.32,17.32,0,0,0,0-18.73h2.75a16.07,16.07,0,0,1,0,18.73Z"/><path d="M296.28,123.62c0,1-1.13,1.52-3.16,1.59v.88h4.65v.8H287.49v-.8h4.64v-.88c-2-.07-3.17-.6-3.17-1.59s1.33-1.58,3.67-1.6S296.28,122.57,296.28,123.62Zm.89-2.05H288v-.78h4.11v-1.12h1v1.12h4.05Zm-.66,9.4h-7.77v-3.22h7.77Zm-6.78-.77h5.8v-1.68h-5.8Zm.29-6.58c0,.57.94.9,2.61.9s2.6-.33,2.6-.9-1-.89-2.6-.9S290,123,290,123.62Z"/><path d="M304,122.11h-1v5.22c.43,0,.84-.06,1.21-.11l.06.73a34.22,34.22,0,0,1-5.62.38l-.13-.85h1.2v-5.36h-1v-.82H304Zm-1.88,5.28v-5.28h-1.45v5.35C301.16,127.44,301.66,127.43,302.14,127.39Zm4.07,3.14h-.95V125h-1.57v-.9h1.57v-4h.95Zm2.21.6h-1V119.84h1Z"/><path d="M316.12,124.65c0,2.4-1.21,3.92-2.88,3.92s-2.89-1.52-2.89-3.92,1.2-3.92,2.89-3.93S316.12,122.25,316.12,124.65Zm-4.8,0c0,1.84.79,3,1.92,3s1.91-1.2,1.91-3-.78-3-1.91-3.05S311.32,122.81,311.32,124.65Zm7.92,6.5h-1V119.84h1Z"/><path d="M328.26,127.89l-.56.79a5.93,5.93,0,0,1-3-3.47,6.46,6.46,0,0,1-2.95,3.75l-.6-.79a5.9,5.9,0,0,0,3-4.86v-1.48h-2.66V121h6.36v.82H325.2v1.48A5.32,5.32,0,0,0,328.26,127.89Zm2.21,3.24h-1V119.84h1Z"/><path d="M336.28,129l-.56-.79c2.92-1.45,4.51-3.62,4.74-6.29h-4.22v-.84h5.22A8.46,8.46,0,0,1,336.28,129Zm8.1-4.54h1.83v.83h-1.83v5.86h-1V119.84h1Z"/><path d="M357.15,126.29H346.87v-.81h4.65v-1.37h-3.34V120.3h7.7v.82h-6.71v2.16H356v.83h-3.47v1.37h4.64Zm-1.25,4.92h-1v-3H348v-.82h7.89Z"/><path d="M364.77,125.21l-.56.77a4.63,4.63,0,0,1-2.7-2.57,4.92,4.92,0,0,1-2.88,2.92l-.55-.82a4.13,4.13,0,0,0,2.91-3.85v-1.17h1v1.13A3.88,3.88,0,0,0,364.77,125.21Zm2.72,3.78c0,1.35-1.44,2.11-3.79,2.11s-3.78-.76-3.78-2.11,1.44-2.13,3.78-2.13S367.49,127.63,367.49,129Zm-6.58,0c0,.82,1.07,1.31,2.79,1.31s2.8-.49,2.8-1.31-1.07-1.34-2.8-1.34S360.9,128.16,360.91,129Zm6.54-2.46h-1v-3.44h-2.52v-.83h2.52v-2.42h1Z"/><path d="M379.6,125.54H369.32v-.81H379.6ZM378.45,122c0,1.28-1.48,2-4,2s-4-.7-4-2,1.49-1.95,4-1.95S378.45,120.73,378.45,122Zm-.17,7h-6.7v1.17h7V131h-8v-2.69h6.71v-1h-6.74v-.76h7.72Zm-6.78-7c0,.78,1.08,1.21,3,1.21s3-.43,3-1.21-1.1-1.2-3-1.2S371.49,121.25,371.5,122Z"/><path d="M394.09,126h-4.66v1.2c2.13.09,3.39.79,3.4,2s-1.46,2-3.89,2-3.89-.71-3.89-2,1.25-1.89,3.4-2V126H383.8v-.83h10.29Zm-.92-4.76h-3.58c.06,1.27,1.93,2.25,3.92,2.46l-.36.79c-1.85-.23-3.58-1-4.21-2.32-.61,1.27-2.34,2.09-4.2,2.32l-.35-.79c1.95-.21,3.83-1.19,3.91-2.46h-3.56v-.82h8.43Zm-7.11,7.94c0,.75,1.07,1.2,2.88,1.2s2.89-.45,2.89-1.2-1.1-1.2-2.89-1.22S386.05,128.37,386.06,129.13Z"/><path d="M401.9,125l-.51.77a4.73,4.73,0,0,1-2.86-2.64,4.85,4.85,0,0,1-2.91,2.85l-.5-.79A4.13,4.13,0,0,0,398,121.4v-1.1h1v1.1A4,4,0,0,0,401.9,125Zm2.45,6H397v-4.06h7.34Zm-6.37-.81h5.39v-2.44H398Zm6.37-3.9h-1v-6.41h1Z"/><path d="M416.59,129.63H406.25v-.84h10.34Zm-1.07-6c0,1.88-1.77,3.11-4.13,3.1s-4.12-1.22-4.12-3.1,1.76-3.09,4.12-3.09S415.52,121.81,415.52,123.67Zm-7.3,0c0,1.37,1.36,2.29,3.17,2.29s3.16-.92,3.16-2.29-1.35-2.29-3.16-2.28S408.21,122.33,408.22,123.67Z"/><path d="M427.81,129.73H417.48v-.84h4.64v-2.13h-3.35v-3.48h6.75V121.5h-6.77v-.82h7.75v3.41h-6.74v1.84h7v.83H423.1v2.13h4.71Z"/><path d="M442.29,129.68H432v-.85h10.33Zm-1-7.87h-1.79v4h1.77v.81H432.9v-.81h1.76v-4h-1.79V121h8.43Zm-2.76,4v-4h-2.89v4Z"/><path d="M449.08,124.91h-4.22v2.66a33.62,33.62,0,0,0,5.56-.4l.1.83a34.55,34.55,0,0,1-5.74.41h-.93v-4.32h4.22v-2.37h-4.25v-.83h5.26Zm3.42,6.24h-1V119.84h1Z"/><path d="M459.25,121.6H455.9v1.57h2.88V124H455.9v1.65a17.58,17.58,0,0,0,3.85-.3l.11.81a19.16,19.16,0,0,1-4.21.32h-.71v-5.65h4.31Zm5.09,9.28h-7.71v-3.51h1v2.68h6.69ZM461.8,128h-1v-4.16h-1.52v-.8h1.52v-3h1Zm2.19.29H463v-8.46H464Z"/><path d="M471.4,121.77h-4.28v5.71a26.61,26.61,0,0,0,5.17-.4l.12.86a28.13,28.13,0,0,1-5.39.38h-.89v-7.38h5.27Zm3,2.54h1.89v.84h-1.89v6h-1V119.84h1Z"/><path d="M487.19,129.59H476.86v-.84h10.33ZM486,126.1h-7.79v-5.21h7.68v.83h-6.69v3.55H486Z"/><path d="M493.85,127.81l-.57.75a5.19,5.19,0,0,1-2.35-3.13,5.78,5.78,0,0,1-2.34,3.39l-.6-.77a5.6,5.6,0,0,0,2.46-4.73v-.56H488.3v-.83h2.15v-1.67h.95v1.67h2.1v.83h-2.12v.56A5.13,5.13,0,0,0,493.85,127.81Zm1.6,2.73h-.94v-5.39h-1.78v-.85h1.78v-4.18h.94Zm2.28.59h-1V119.84h1Z"/><path d="M509.63,125.87H499.29v-.79h10.34Zm-1.3,3.3h-6.78v1.08h7.15V131h-8.15v-2.48h6.79v-1h-6.8v-.75h7.79Zm0-6.65h-6.67v1h6.87v.72h-7.86v-2.4h6.65v-.92H500.6v-.73h7.7Z"/><path d="M520.5,127.7l-.61.8a6.08,6.08,0,0,1-2.78-3.56,6.37,6.37,0,0,1-2.85,3.77l-.63-.8a6,6,0,0,0,3-5v-2.05h1v2.05A5.69,5.69,0,0,0,520.5,127.7Zm2-3.28h1.89v.87h-1.89v5.84h-1V119.84h1Z"/><path d="M535.3,126.25H525v-.82h2.55v-1.59a1.86,1.86,0,0,1-1.41-1.69c0-1.33,1.52-2.09,4-2.09s4,.76,4,2.09a1.84,1.84,0,0,1-1.39,1.68v1.6h2.55ZM534,129.11c0,1.28-1.46,2-3.88,2s-3.9-.71-3.9-2,1.45-2,3.9-2S534,127.81,534,129.11Zm-6.85-7c0,.83,1.13,1.31,3,1.31s3-.48,3-1.31-1.14-1.31-3-1.31S527.18,121.34,527.19,122.15Zm.09,7c0,.76,1.06,1.22,2.88,1.22s2.88-.46,2.88-1.22-1.09-1.22-2.88-1.23S527.26,128.33,527.28,129.11Zm4.48-3.68v-1.32a10.73,10.73,0,0,1-3.2,0v1.32Z"/><path d="M542.89,122.48h-6.71v-.82h2.91V120h1v1.68h2.81Zm-.53,3.53a2.59,2.59,0,0,1-2.77,2.59,2.6,2.6,0,1,1,0-5.18A2.59,2.59,0,0,1,542.36,126Zm-4.58,0a1.69,1.69,0,0,0,1.81,1.74,1.72,1.72,0,0,0,1.82-1.74,1.74,1.74,0,0,0-1.82-1.75A1.71,1.71,0,0,0,537.78,126Zm7.2-1.51h1.89v.82H545v5.81h-1V119.84h1Z"/><path d="M552.86,121.43h3v-1.59h1v6.45h-1v-1.5h-2.93a3,3,0,0,1-2.31,1,2.67,2.67,0,1,1,0-5.32A3,3,0,0,1,552.86,121.43Zm.1,8.67a3.36,3.36,0,0,0,1.64-2.68v-.78h1v.78a3.12,3.12,0,0,0,2.31,2.82l-.52.76a3.82,3.82,0,0,1-2.29-2.15,3.9,3.9,0,0,1-2.1,2.24,3.57,3.57,0,0,1-2.12-2.2A4,4,0,0,1,548.6,131l-.5-.76a3.25,3.25,0,0,0,2.3-2.82v-.78h1v.78A3.07,3.07,0,0,0,553,130.1Zm-4.34-7a2,2,0,1,0,2-1.82A1.82,1.82,0,0,0,548.62,123.13Zm4.86,0a3.21,3.21,0,0,1-.12.84h2.46v-1.73h-2.49A2.56,2.56,0,0,1,553.48,123.13Z"/><path d="M569,125.82H558.69V125H569Zm-.58-2.43-.37.8a5.8,5.8,0,0,1-4.17-2.42,5.89,5.89,0,0,1-4.19,2.42l-.38-.8c2-.26,4-1.46,4-2.89V120h1v.53C564.35,121.9,566.41,123.14,568.39,123.39Zm-7.4,4.55h5.63v-1.32h1V131H560v-4.35h1Zm5.63,2.23v-1.44H561v1.44Z"/><path d="M571.63,127.36a26.61,26.61,0,0,0,5.4-.55l.13.85a26.48,26.48,0,0,1-5.59.56h-.92V121h1Zm7.59,3.77h-1V119.84h1Z"/><path d="M586.9,121.77h-4.28v5.71a26.48,26.48,0,0,0,5.17-.4l.13.86a28.24,28.24,0,0,1-5.4.38h-.89v-7.38h5.27Zm3,2.54h1.89v.84h-1.89v6h-1V119.84h1Z"/><path d="M592.75,129.35a.79.79,0,0,1,.81-.81.82.82,0,0,1,0,1.63A.8.8,0,0,1,592.75,129.35Z"/><rect class="cls-3" x="287.03" y="157.8" width="78.1" height="78.1"/><path d="M297.14,214.93l11.78-34H318l11.74,34h-7.56l-2.53-7.84h-12.3l-2.58,7.84Zm20.7-13.33-4.27-13h-.23l-4.23,13Z"/><path d="M341.68,200c1.83-.12,5.26-.28,6.34-.33v-2.06c0-2.12-1.5-3.38-4.08-3.38-2.35,0-3.85,1.08-4.23,2.81h-6.62c.43-4.41,4.28-7.88,11-7.88,5.54,0,10.8,2.49,10.8,8.63v17.18h-6.57v-3.52h-.19c-1.27,2.35-3.66,4-7.46,4-4.88,0-8.5-2.53-8.5-7.6C332.2,202.12,336.8,200.24,341.68,200Zm1,10.65c3.14,0,5.4-2.11,5.35-4.78V204c-1.06.05-4,.21-5.21.33-2.39.23-3.94,1.36-3.94,3.33S340.46,210.61,342.67,210.61Z"/><path d="M375,171.71h3.33a2.87,2.87,0,1,1-.05,5.72h-1.52v2.76H375Zm3,4.3a1.43,1.43,0,1,0,0-2.86h-1.24V176Z"/><path d="M382.45,173.83h1.67v1.1h.07a1.56,1.56,0,0,1,1.54-1.19,2.38,2.38,0,0,1,.55.06v1.54a3.65,3.65,0,0,0-.74-.09,1.3,1.3,0,0,0-1.36,1.32v3.62h-1.73Z"/><path d="M386.67,177a3,3,0,0,1,3.07-3.29,2.88,2.88,0,0,1,3,3.22v.49h-4.35a1.42,1.42,0,0,0,1.47,1.56,1.22,1.22,0,0,0,1.18-.64h1.65a2.64,2.64,0,0,1-2.87,1.94A3,3,0,0,1,386.67,177Zm4.42-.67a1.26,1.26,0,0,0-1.31-1.32,1.36,1.36,0,0,0-1.4,1.32Z"/><path d="M397.18,175.13H396v3.11c0,.5.24.63.59.64.18,0,.48,0,.69,0v1.37a5.89,5.89,0,0,1-.92.06c-1.25,0-2.11-.57-2.1-1.8v-3.35h-.88v-1.3h.88v-1.52H396v1.52h1.19Z"/><path d="M398,177a3,3,0,0,1,3.07-3.29,2.88,2.88,0,0,1,3,3.22v.49h-4.34a1.41,1.41,0,0,0,1.46,1.56,1.21,1.21,0,0,0,1.18-.64H404a2.65,2.65,0,0,1-2.88,1.94A3,3,0,0,1,398,177Zm4.42-.67a1.26,1.26,0,0,0-1.31-1.32,1.35,1.35,0,0,0-1.39,1.32Z"/><path d="M406.85,180.19h-1.74v-6.36h1.65v1.11h.07a2,2,0,0,1,1.91-1.19,2.13,2.13,0,0,1,2.2,2.39v4.05h-1.73v-3.75a1.11,1.11,0,0,0-1.15-1.25,1.18,1.18,0,0,0-1.21,1.32Z"/><path d="M412.05,177c0-2.18,1.18-3.27,2.59-3.27a1.85,1.85,0,0,1,1.8,1.15h.06v-3.19h1.73v8.48h-1.71v-1h-.08a1.88,1.88,0,0,1-1.8,1.13C413.18,180.3,412.05,179.14,412.05,177Zm4.48,0c0-1.15-.49-1.88-1.35-1.88s-1.35.76-1.35,1.88.47,1.91,1.35,1.91S416.53,178.16,416.53,177Z"/><path d="M421.7,176.46l1.58-.09v-.51c0-.53-.37-.85-1-.85a1,1,0,0,0-1.05.71h-1.65c.1-1.1,1.06-2,2.75-2,1.38,0,2.7.62,2.7,2.16v4.28h-1.65v-.87h0a2,2,0,0,1-1.87,1,1.87,1.87,0,0,1-2.12-1.9C419.33,177,420.48,176.53,421.7,176.46Zm.25,2.66a1.23,1.23,0,0,0,1.33-1.2v-.47c-.26,0-1,.05-1.3.08-.6.06-1,.34-1,.84S421.4,179.12,422,179.12Z"/><path d="M426.34,173.83H428v1.1h.07a1.56,1.56,0,0,1,1.54-1.19,2.38,2.38,0,0,1,.55.06v1.54a3.65,3.65,0,0,0-.74-.09,1.3,1.3,0,0,0-1.36,1.32v3.62h-1.73Z"/><path d="M430.57,177c0-2.18,1.19-3.27,2.59-3.27A1.87,1.87,0,0,1,435,174.9H435v-3.19h1.73v8.48h-1.71v-1H435a1.89,1.89,0,0,1-1.81,1.13C431.71,180.3,430.57,179.14,430.57,177Zm4.49,0c0-1.15-.49-1.88-1.36-1.88s-1.35.76-1.35,1.88.47,1.91,1.35,1.91S435.06,178.16,435.06,177Z"/><path d="M441,171.71h3.37c1.88,0,2.82.9,2.82,2.18a1.81,1.81,0,0,1-1.53,1.82v.08a2,2,0,0,1,1.87,2.06c0,1.35-1,2.34-2.93,2.34H441Zm4.41,2.46c0-.61-.45-1-1.26-1h-1.39v2.12h1.36A1.14,1.14,0,0,0,445.38,174.17Zm.29,3.52a1.25,1.25,0,0,0-1.41-1.22h-1.53v2.27h1.49C445.23,178.74,445.67,178.32,445.67,177.69Z"/><path d="M448.33,177a3.12,3.12,0,1,1,3.11,3.29A3,3,0,0,1,448.33,177Zm4.47,0c0-1.12-.45-2-1.34-2s-1.38.84-1.38,2,.47,1.95,1.38,1.95S452.8,178.14,452.8,177Z"/><path d="M457.41,180.19h-1.74v-8.48h1.74Z"/><path d="M458.51,177c0-2.18,1.18-3.27,2.59-3.27a1.87,1.87,0,0,1,1.81,1.15h0v-3.19h1.74v8.48H463v-1h-.08a1.89,1.89,0,0,1-1.81,1.13C459.65,180.3,458.51,179.14,458.51,177Zm4.49,0c0-1.15-.49-1.88-1.36-1.88s-1.35.76-1.35,1.88.47,1.91,1.35,1.91S463,178.16,463,177Z"/><path d="M374.43,207.83l1.89-5.52h1.45l1.87,5.52h-1.21l-.4-1.28h-2l-.41,1.28Zm3.31-2.17-.68-2.11h0l-.67,2.11Z"/><path d="M380.26,202.31h2.16c1.2,0,1.8.58,1.8,1.41a1.17,1.17,0,0,1-1,1.19V205a1.28,1.28,0,0,1,1.2,1.34c0,.88-.65,1.53-1.88,1.53h-2.3Zm2.82,1.6c0-.4-.29-.67-.81-.67h-.89v1.38h.87A.74.74,0,0,0,383.08,203.91Zm.19,2.29a.81.81,0,0,0-.91-.8h-1v1.48h.95C383,206.88,383.27,206.61,383.27,206.2Z"/><path d="M387.6,203.24c-.85,0-1.41.67-1.41,1.83s.56,1.82,1.4,1.82a1.13,1.13,0,0,0,1.19-.95h1.14a2.26,2.26,0,0,1-2.35,2,2.86,2.86,0,0,1,0-5.68,2.2,2.2,0,0,1,2.35,2h-1.14A1.12,1.12,0,0,0,387.6,203.24Z"/><path d="M390.71,207.83v-5.52h1.94a2.76,2.76,0,0,1,0,5.52Zm1.87-1c1,0,1.57-.54,1.57-1.78s-.54-1.77-1.57-1.77h-.75v3.55Z"/><path d="M396.1,202.31h3.64v.94h-2.52v1.34h2.34v.95h-2.34v1.34h2.53v1H396.1Z"/><path d="M400.62,202.31h3.58v.94h-2.45v1.34H404v.95h-2.22v2.29h-1.13Z"/><path d="M407.4,203.24c-.84,0-1.41.66-1.41,1.82s.55,1.83,1.42,1.83a1.13,1.13,0,0,0,1.25-1.14h-1.18v-.87h2.27v.69a2.21,2.21,0,0,1-2.35,2.34,2.86,2.86,0,0,1,0-5.68,2.2,2.2,0,0,1,2.31,1.85h-1.14A1.12,1.12,0,0,0,407.4,203.24Z"/><path d="M410.57,202.31h1.13v2.28h2.35v-2.28h1.14v5.52h-1.14v-2.29H411.7v2.29h-1.13Z"/><path d="M417.23,207.83H416.1v-5.52h1.13Z"/><path d="M421.43,202.31v3.85a1.69,1.69,0,0,1-1.84,1.75,1.56,1.56,0,0,1-1.75-1.62H419a.64.64,0,0,0,.67.69c.43,0,.67-.28.67-.82v-3.85Z"/><path d="M422.34,202.31h1.13v2.44h.08l2-2.44h1.36l-2,2.47,2,3.05h-1.35L424,205.55l-.57.7v1.58h-1.13Z"/><path d="M427.44,202.31h1.12v4.57h2.35v1h-3.47Z"/><path d="M433,202.31l1.51,3.74h.06l1.51-3.74h1.39v5.52h-1.09v-3.62h-.05l-1.42,3.6h-.75l-1.42-3.61h0v3.63h-1.1v-5.52Z"/><path d="M443,207.83h-1l-2.39-3.51h0v3.51h-1.12v-5.52h1l2.37,3.51h.05v-3.51H443Z"/><path d="M446.3,207.91a2.86,2.86,0,1,1,2.54-2.84A2.55,2.55,0,0,1,446.3,207.91Zm0-4.67c-.84,0-1.39.64-1.39,1.83s.55,1.82,1.39,1.82,1.39-.64,1.39-1.82S447.14,203.24,446.3,203.24Z"/><path d="M449.65,202.31h2.13a1.86,1.86,0,1,1,0,3.72h-1v1.8h-1.12Zm1.92,2.8a.94.94,0,1,0,0-1.87h-.8v1.87Z"/><path d="M458.55,207.29l.77,1h-1.05l-.44-.56a2.51,2.51,0,0,1-.95.18,2.86,2.86,0,1,1,2.53-2.84A2.91,2.91,0,0,1,458.55,207.29Zm-1.1-1.38.41.55a2.13,2.13,0,0,0,.41-1.39c0-1.19-.55-1.83-1.39-1.83s-1.4.64-1.4,1.83.55,1.82,1.4,1.82a1.63,1.63,0,0,0,.31,0l-.71-1Z"/><path d="M460.23,202.31h2.13a1.73,1.73,0,0,1,1.95,1.8,1.6,1.6,0,0,1-1,1.57l1.16,2.15h-1.25l-1-2h-.87v2h-1.12Zm1.92,2.63c.67,0,1-.28,1-.83s-.32-.87-1-.87h-.8v1.7Z"/><path d="M467.24,204.21h0l1.11-1.9h1.28L468,205.07l1.7,2.76H468.4l-1.12-1.9h0l-1.13,1.9h-1.3l1.71-2.76-1.68-2.76h1.29Z"/><path d="M470.14,202.31h4.45v.94h-1.66v4.58h-1.12v-4.58h-1.67Z"/><path d="M479.79,202.31v3.58a2.26,2.26,0,0,1-4.5,0v-3.58h1.12v3.49a1.07,1.07,0,0,0,1.12,1.1,1.06,1.06,0,0,0,1.12-1.1v-3.49Z"/><path d="M483,206.52H483l1.33-4.21h1.24l-1.88,5.52h-1.44l-1.89-5.52h1.26Z"/><path d="M485.88,202.31h1.23l.91,3.86h.05l1-3.86h1.06l1,3.86h.05l.92-3.86h1.23l-1.56,5.52h-1.1l-1-3.65h0l-1.05,3.65h-1.1Z"/><path d="M496.05,204.21h0l1.12-1.9h1.28l-1.66,2.76,1.7,2.76h-1.31l-1.13-1.9h0l-1.13,1.9h-1.3l1.71-2.76-1.68-2.76h1.29Z"/><path d="M500.1,202.31l1.25,2.38h0l1.25-2.38h1.27l-2,3.55v2h-1.13v-2l-2-3.55Z"/><path d="M504.43,207.14l2.73-3.89h-2.73v-.94h4.14V203l-2.72,3.89h2.73v1h-4.15Z"/><path d="M376,213.81l1-.06v-.33c0-.35-.24-.55-.65-.55a.61.61,0,0,0-.68.46h-1.05c.06-.72.68-1.29,1.76-1.29.88,0,1.73.41,1.73,1.41v2.79H377.1v-.57h0a1.25,1.25,0,0,1-1.19.65,1.21,1.21,0,0,1-1.36-1.24C374.52,214.16,375.26,213.85,376,213.81Zm.16,1.73a.79.79,0,0,0,.85-.78v-.31l-.83.06c-.38,0-.63.22-.63.54S375.84,215.54,376.2,215.54Z"/><path d="M379,210.72h1.12v2.07h0a1.21,1.21,0,0,1,1.16-.75c.9,0,1.66.71,1.66,2.13s-.73,2.14-1.66,2.14a1.2,1.2,0,0,1-1.16-.73h-.05v.66H379Zm2,4.69c.57,0,.87-.51.87-1.25s-.3-1.22-.87-1.22-.87.48-.87,1.22S380.43,215.41,381,215.41Z"/><path d="M383.53,214.18a1.94,1.94,0,0,1,2-2.14,1.65,1.65,0,0,1,1.81,1.57h-1a.74.74,0,0,0-.75-.69c-.54,0-.89.46-.89,1.24s.35,1.26.89,1.26a.73.73,0,0,0,.75-.68h1a1.65,1.65,0,0,1-1.81,1.58A1.94,1.94,0,0,1,383.53,214.18Z"/><path d="M387.87,214.17c0-1.42.76-2.13,1.66-2.13a1.21,1.21,0,0,1,1.16.75h0v-2.07h1.12v5.52h-1.1v-.66h-.05a1.22,1.22,0,0,1-1.16.73C388.6,216.31,387.87,215.55,387.87,214.17Zm2.88,0c0-.74-.32-1.22-.87-1.22s-.87.5-.87,1.22.3,1.25.87,1.25S390.75,214.91,390.75,214.16Z"/><path d="M392.56,214.19a2,2,0,0,1,2-2.15,1.86,1.86,0,0,1,1.91,2.1v.32h-2.78a.92.92,0,0,0,.94,1,.77.77,0,0,0,.75-.42h1.06a1.7,1.7,0,0,1-1.84,1.26A1.92,1.92,0,0,1,392.56,214.19Zm2.83-.44a.81.81,0,0,0-.84-.86.88.88,0,0,0-.89.86Z"/><path d="M399.31,212.94h-.81v3.3h-1.11v-3.3h-.58v-.84h.58v-.32a1.2,1.2,0,0,1,1.33-1.32,3.16,3.16,0,0,1,.66.06v.86a2.41,2.41,0,0,0-.33,0c-.36,0-.55.14-.55.48v.26h.81Z"/><path d="M399.76,216.58h1.1c.06.33.36.48.81.48s.86-.22.86-.8v-.75h0a1.2,1.2,0,0,1-1.17.67c-.92,0-1.65-.66-1.65-2s.75-2.1,1.65-2.1a1.22,1.22,0,0,1,1.17.75h0v-.69h1.11v4.19c0,1.05-.83,1.59-2,1.59S399.83,217.37,399.76,216.58Zm2.77-2.42c0-.74-.31-1.22-.87-1.22s-.86.5-.86,1.22.3,1.17.86,1.17S402.53,214.89,402.53,214.16Z"/><path d="M405.6,216.24h-1.11v-5.52h1.08v2.1h0a1.22,1.22,0,0,1,1.22-.78,1.38,1.38,0,0,1,1.41,1.56v2.64h-1.11V213.8c0-.51-.27-.82-.73-.82a.77.77,0,0,0-.8.86Z"/><path d="M409,211a.61.61,0,0,1,1.21,0,.61.61,0,0,1-1.21,0Zm.06,1.12h1.11v4.14H409.1Z"/><path d="M412.18,212.1v4.35c0,1-.58,1.35-1.53,1.35h-.23v-.89h.15c.36,0,.5-.17.5-.48V212.1ZM411,211a.61.61,0,0,1,1.21,0,.61.61,0,0,1-1.21,0Z"/><path d="M413,210.72h1.11v3h.06l1.33-1.58h1.27l-1.52,1.79,1.6,2.35h-1.3l-1.12-1.69-.32.36v1.33H413Z"/><path d="M418.44,216.24h-1.11v-5.52h1.11Z"/><path d="M419.3,212.1h1.06v.72h0a1.16,1.16,0,0,1,1.14-.78,1.09,1.09,0,0,1,1.11.78h0a1.31,1.31,0,0,1,2.51.63v2.79h-1.11v-2.56a.62.62,0,0,0-.64-.71.65.65,0,0,0-.66.74v2.53h-1.08v-2.59a.61.61,0,0,0-.63-.68.7.7,0,0,0-.67.78v2.49H419.3Z"/><path d="M427.17,216.24h-1.12V212.1h1.06v.72h.05a1.23,1.23,0,0,1,1.22-.78,1.39,1.39,0,0,1,1.41,1.56v2.64h-1.11V213.8A.72.72,0,0,0,428,213a.76.76,0,0,0-.78.86Z"/><path d="M430.48,214.18a2,2,0,1,1,2,2.14A1.95,1.95,0,0,1,430.48,214.18Zm2.87,0c0-.73-.29-1.27-.87-1.27s-.87.54-.87,1.27.3,1.27.87,1.27S433.35,214.9,433.35,214.18Z"/><path d="M435.18,212.1h1.09v.69h.05a1.21,1.21,0,0,1,1.16-.75c.9,0,1.65.71,1.65,2.13s-.72,2.14-1.65,2.14a1.21,1.21,0,0,1-1.16-.73h0v2.22h-1.11Zm1.95,3.31c.57,0,.87-.51.87-1.25s-.3-1.22-.87-1.22-.86.48-.86,1.22S436.58,215.41,437.13,215.41Z"/><path d="M442.55,215.58h0a1.21,1.21,0,0,1-1.16.73c-.93,0-1.66-.76-1.66-2.14s.76-2.13,1.66-2.13a1.2,1.2,0,0,1,1.16.75h.05v-.69h1.1v5.7h-1.11Zm0-1.42c0-.74-.31-1.22-.87-1.22s-.86.5-.86,1.22.3,1.25.86,1.25S442.57,214.91,442.57,214.16Z"/><path d="M444.53,212.1h1.07v.71h0a1,1,0,0,1,1-.77,1.9,1.9,0,0,1,.35,0v1a2,2,0,0,0-.47-.06.84.84,0,0,0-.87.86v2.36h-1.11Z"/><path d="M449.33,213.55l.77-1.45h1.15l-1.19,2.06,1.22,2.08h-1.14l-.81-1.44-.79,1.44h-1.16l1.22-2.08-1.18-2.06h1.15Z"/><path d="M454,212.94h-.77v2c0,.33.16.42.39.42a3.47,3.47,0,0,0,.44,0v.89a2.81,2.81,0,0,1-.59,0c-.81,0-1.35-.36-1.35-1.17v-2.18h-.56v-.84h.56v-1h1.11v1H454Z"/><path d="M457.34,212.1h1.11v4.14h-1.07v-.75h0a1.26,1.26,0,0,1-1.24.8,1.37,1.37,0,0,1-1.37-1.55V212.1h1.11v2.44a.7.7,0,0,0,.71.8.79.79,0,0,0,.79-.86Z"/><path d="M461.66,216.24h-1.25L459,212.1h1.17l.86,3h0l.86-3h1.17Z"/><path d="M463.33,212.1h1.12l.64,2.8h0l.67-2.8h1.1l.67,2.78h0l.63-2.78h1.13l-1.12,4.14h-1.17l-.71-2.63h-.05l-.71,2.63h-1.17Z"/><path d="M471.61,213.55l.77-1.45h1.15l-1.19,2.06,1.22,2.08h-1.14l-.81-1.44-.8,1.44h-1.15l1.21-2.08-1.17-2.06h1.15Z"/><path d="M474.25,217.77v-.87h.45a.47.47,0,0,0,.53-.38l.07-.18-1.46-4.25H475l.86,3.05h0l.87-3.05h1.17l-1.59,4.6a1.48,1.48,0,0,1-1.54,1.1A4.39,4.39,0,0,1,474.25,217.77Z"/><path d="M478.45,215.56l2-2.53v0h-2v-.9h3.28v.74l-1.88,2.47v0h1.95v.9h-3.42Z"/><path d="M377.05,225.85h-1.13v-4.43h0l-1.25.79v-1l1.35-.87h1.06Z"/><path d="M378.3,225l2-1.82c.51-.5.78-.8.78-1.24a.86.86,0,0,0-1.71.06h-1.07a1.74,1.74,0,0,1,1.93-1.77,1.72,1.72,0,0,1,1.94,1.64c0,.62-.3,1.14-1.42,2.17l-.83.82v0h2.32v.94h-3.89Z"/><path d="M382.94,224.3h1.14c0,.41.42.68.94.68s.93-.31.92-.75-.39-.77-1-.77h-.51v-.85h.51c.53,0,.9-.3.9-.73a.71.71,0,0,0-.79-.71c-.48,0-.88.27-.89.69h-1.09a1.79,1.79,0,0,1,2-1.61,1.67,1.67,0,0,1,1.88,1.56,1.16,1.16,0,0,1-1,1.17v0a1.26,1.26,0,0,1,1.24,1.28c0,.95-.88,1.63-2.11,1.63S383,225.26,382.94,224.3Z"/><path d="M387.82,224l2.3-3.64h1.41V224h.7v.93h-.7v1h-1.07v-1h-2.64Zm2.66,0v-2.36h-.06L389,223.91v0Z"/><path d="M393,224.3h1.1a.82.82,0,0,0,.89.72.93.93,0,0,0,1-1,1,1,0,0,0-1-1,.91.91,0,0,0-.86.47h-1l.3-3.18h3.34v.94h-2.41l-.15,1.39h0a1.38,1.38,0,0,1,1.09-.46A1.72,1.72,0,0,1,397,224a1.9,1.9,0,0,1-2.05,1.92A1.8,1.8,0,0,1,393,224.3Z"/><path d="M397.69,223.22c0-1.86.87-3,2.23-3a1.86,1.86,0,0,1,2,1.61h-1.12a.79.79,0,0,0-.84-.62c-.73,0-1.12.68-1.13,1.76h0a1.53,1.53,0,0,1,1.39-.78,1.7,1.7,0,0,1,1.71,1.79,1.9,1.9,0,0,1-2.06,1.92C398.75,225.92,397.69,225.24,397.69,223.22Zm3.15.82a1,1,0,0,0-.95-1,1,1,0,0,0-1,1,1,1,0,0,0,1,1A1,1,0,0,0,400.84,224Z"/><path d="M405.21,221.31v0h-2.66v-.94h3.83v.95l-2.29,4.57h-1.17Z"/><path d="M406.94,224.37a1.4,1.4,0,0,1,1.2-1.37v0a1.22,1.22,0,0,1-1-1.22c0-.86.81-1.49,1.92-1.49s1.92.63,1.93,1.49a1.24,1.24,0,0,1-1,1.22v0a1.41,1.41,0,0,1,1.19,1.37c0,.89-.89,1.56-2.13,1.56S406.94,225.26,406.94,224.37Zm3.08-.12a1,1,0,0,0-1.9,0c0,.47.37.8.95.8A.84.84,0,0,0,410,224.25Zm-.12-2.4a.76.76,0,0,0-.83-.73.74.74,0,0,0-.82.73.76.76,0,0,0,.82.76A.77.77,0,0,0,409.9,221.85Z"/><path d="M416.15,223c0,1.87-.87,3-2.24,3a1.85,1.85,0,0,1-2-1.63h1.11a.8.8,0,0,0,.84.64c.74,0,1.13-.67,1.13-1.77h0a1.54,1.54,0,0,1-1.4.78,1.7,1.7,0,0,1-1.7-1.78,1.9,1.9,0,0,1,2.06-1.92C415.08,220.26,416.15,220.94,416.15,223Zm-3.15-.81a.94.94,0,0,0,1,1,1,1,0,0,0,0-2A1,1,0,0,0,413,222.14Z"/><path d="M375,198.31l-.54-.75a4.31,4.31,0,0,0,2.66-3.48H374.8v-.79h3.25A5.22,5.22,0,0,1,375,198.31Zm4.93-3.07h1v.8h-1v3.46h-1v-6.92h1Z"/><path d="M382.3,197a14.22,14.22,0,0,0,2.8-.3l.09.81a15.72,15.72,0,0,1-3.25.3h-.6v-4.57h1Zm5.18-1h-1v3.5h-1v-6.92h1v2.63h1Z"/><path d="M391.24,194H389v3.05a15.94,15.94,0,0,0,2.72-.22l.1.81a16.39,16.39,0,0,1-3.2.21H388v-4.63h3.2Zm1.92,1.16h1V196h-1v3.58h-1v-6.95h1Z"/><path d="M397.85,195.85h-2.2v1.26a16,16,0,0,0,2.72-.21l.08.78a16.84,16.84,0,0,1-3.18.24h-.58v-2.84h2.2v-1.14h-2.21v-.78h3.17Zm1.95-.65h1v.8h-1v3.53h-.95v-6.95h.95Z"/><path d="M404.55,197.83h-3.28v-4.6h3.28Zm-2.34-.78h1.38V194h-1.38Zm4.23-1.86h1V196h-1v3.52h-1v-6.94h1Z"/><path d="M408.86,194.82h1.42v-1.69h1v4.78h-3.32v-4.78h.95Zm1.42,2.3v-1.54h-1.42v1.54Zm2.8-2h1V196h-1v3.53h-1v-6.94h1Z"/><path d="M418.46,197.18l-.58.78a3.15,3.15,0,0,1-1.51-1.89,3.33,3.33,0,0,1-1.6,2l-.59-.78a3.4,3.4,0,0,0,1.7-3.16v-1h1v1A3.26,3.26,0,0,0,418.46,197.18Zm1.26-1.93h1v.83h-1v3.44h-1v-6.94h1Z"/><path d="M424.61,195.54c0,1.52-.76,2.48-1.8,2.48s-1.81-1-1.8-2.48.76-2.48,1.8-2.48S424.6,194,424.61,195.54Zm-2.68,0c0,1,.35,1.59.88,1.59s.88-.56.88-1.59-.35-1.6-.88-1.6S421.93,194.51,421.93,195.54Zm4.43-.35h1V196h-1v3.52h-1v-6.94h1Z"/><path d="M431.81,197.28l-.54.76a3.26,3.26,0,0,1-1.6-1.9,3.4,3.4,0,0,1-1.66,2.07l-.56-.77a3.31,3.31,0,0,0,1.72-3V194h-1.45v-.79h3.79V194h-1.38v.43A3.11,3.11,0,0,0,431.81,197.28Zm1.19-2.06h1V196h-1v3.48h-1v-6.94h1Z"/><path d="M438.31,197.38l-.53.73a3,3,0,0,1-1.52-1.76,3.15,3.15,0,0,1-1.61,1.88l-.53-.76a3,3,0,0,0,1.65-2.72v-.27h-1.41v-.77h1.41v-1h1v1h1.39v.77h-1.4v.27A2.89,2.89,0,0,0,438.31,197.38Zm1.33-2.11h1v.82h-1v3.43h-1v-6.94h1Z"/><path d="M441.39,198.47l-.53-.74a4.61,4.61,0,0,0,2.21-2l-2,.19-.12-.83,2.43-.15a5.33,5.33,0,0,0,.14-.93h-2.21v-.78h3.17A5.16,5.16,0,0,1,441.39,198.47Zm4.89-3.23h1v.8h-1v3.46h-1v-6.92h1Z"/><path d="M451,193.94h-2.27v1.15h2.17v.76h-2.17v1.31a16.77,16.77,0,0,0,2.69-.2l.09.79a19.94,19.94,0,0,1-3.17.19h-.58v-4.79H451Zm1.88,1.27h1V196h-1v3.49h-1v-6.94h1Z"/><path d="M458.07,194h-.61v3l.81-.08.05.7a24.35,24.35,0,0,1-4.13.28l-.11-.79h.78V194h-.6v-.78h3.81Zm-1.53,3.08V194h-.75v3.11Zm3-1.86h1V196h-1v3.51h-1v-6.94h1Z"/><path d="M464.79,194.39h-4v-.78h1.54v-.93h1v.93h1.51Zm-.25,2.05a1.75,1.75,0,1,1-1.74-1.66A1.64,1.64,0,0,1,464.54,196.44Zm-2.57,0a.83.83,0,1,0,1.66,0,.83.83,0,1,0-1.66,0Zm4.23-1.15h1v.8h-1v3.43h-.94v-6.94h.94Z"/><rect class="cls-3" x="529.74" y="157.8" width="78.1" height="78.1"/><path d="M541,213.73l12.44-34h4.46l12.43,34h-4.46l-3.37-9.57H548.8l-3.43,9.57Zm20.18-13.28-5.4-15.21h-.28l-5.4,15.21Z"/><path d="M582.73,199c1.62-.11,5.75-.32,6.9-.37v-2.07c0-3.24-1.92-5.11-5.77-5.11-3.24,0-5.17,1.5-5.73,3.42h-4.22c.51-4.08,4.5-6.94,10.13-6.94,3.34,0,9.58,1,9.58,9v16.8h-4v-3.47h-.19c-.84,1.74-3.19,4.08-7.6,4.08-4.84,0-8.68-2.86-8.68-7.84C573.16,200.64,578.32,199.32,582.73,199Zm-.19,11.74c4.55,0,7.09-3,7.09-6.24V201.9c-1.2.1-5.21.4-6.43.47-3.66.24-6,1.55-6,4.32S579.44,210.73,582.54,210.73Z"/><path d="M617.93,171.71h2.88a2.71,2.71,0,1,1,0,5.4H619v3.08h-1.05Zm2.85,4.46a1.65,1.65,0,0,0,1.88-1.76c0-1-.54-1.76-1.9-1.76H619v3.52Z"/><path d="M625.06,173.83h1v1h.07a1.73,1.73,0,0,1,1.65-1.07l.52,0v1a2.88,2.88,0,0,0-.61-.07,1.5,1.5,0,0,0-1.59,1.49v4h-1Z"/><path d="M628.75,177.07c0-2,1.15-3.32,2.88-3.32,1.34,0,2.75.82,2.75,3.17v.43h-4.62a1.91,1.91,0,0,0,2,2.08,1.65,1.65,0,0,0,1.48-.72h1.07a2.48,2.48,0,0,1-2.55,1.61A2.92,2.92,0,0,1,628.75,177.07Zm4.61-.58a1.71,1.71,0,0,0-1.73-1.85,1.87,1.87,0,0,0-1.86,1.85Z"/><path d="M638.48,174.67h-1.34v3.7c0,.82.4.95.83.95l.6,0v.94a5.37,5.37,0,0,1-.7.05,1.64,1.64,0,0,1-1.75-1.66v-4h-1v-.84h1v-1.52h1v1.52h1.34Z"/><path d="M639.41,177.07c0-2,1.15-3.32,2.88-3.32,1.34,0,2.75.82,2.75,3.17v.43h-4.62a1.91,1.91,0,0,0,2,2.08,1.65,1.65,0,0,0,1.48-.72h1.07a2.48,2.48,0,0,1-2.55,1.61A2.92,2.92,0,0,1,639.41,177.07Zm4.61-.58a1.71,1.71,0,0,0-1.73-1.85,1.87,1.87,0,0,0-1.86,1.85Z"/><path d="M647.37,180.19h-1v-6.36h1v1h.08a1.89,1.89,0,0,1,1.87-1.08c1.29,0,2.14.78,2.14,2.4v4h-1v-4a1.39,1.39,0,0,0-1.44-1.57,1.56,1.56,0,0,0-1.6,1.72Z"/><path d="M652.74,177c0-2,1.13-3.28,2.72-3.28a1.93,1.93,0,0,1,1.84,1.09h.07v-3.13h1v8.48h-1v-1h-.11a2,2,0,0,1-1.85,1.1C653.87,180.32,652.74,179.05,652.74,177Zm4.67,0c0-1.41-.64-2.36-1.82-2.36s-1.83,1-1.83,2.36.62,2.41,1.83,2.41S657.41,178.44,657.41,177Z"/><path d="M662.23,176.51l1.72-.09v-.51c0-.81-.48-1.28-1.44-1.28a1.34,1.34,0,0,0-1.43.85H660c.13-1,1.12-1.73,2.53-1.73A2.12,2.12,0,0,1,665,176v4.19h-1v-.86h0a2,2,0,0,1-1.9,1,2,2,0,0,1-2.17-2C659.84,176.92,661.13,176.6,662.23,176.51Zm-.05,2.93a1.61,1.61,0,0,0,1.77-1.55v-.65l-1.6.12c-.92.06-1.5.39-1.5,1.08S661.41,179.44,662.18,179.44Z"/><path d="M666.58,173.83h1v1h.07a1.71,1.71,0,0,1,1.64-1.07l.53,0v1a3,3,0,0,0-.61-.07,1.5,1.5,0,0,0-1.6,1.49v4h-1Z"/><path d="M670.26,177c0-2,1.13-3.28,2.72-3.28a1.93,1.93,0,0,1,1.84,1.09h.07v-3.13h1v8.48h-1v-1h-.11a2,2,0,0,1-1.85,1.1C671.39,180.32,670.26,179.05,670.26,177Zm4.67,0c0-1.41-.63-2.36-1.82-2.36s-1.83,1-1.83,2.36.63,2.41,1.83,2.41S674.93,178.44,674.93,177Z"/><path d="M680.81,171.71h2.89c2,0,2.89,1.1,2.89,2.61A2.32,2.32,0,0,1,685,176.7l1.91,3.49h-1.23l-1.77-3.3h-2v3.29h-1.06Zm2.85,4.23c1.35,0,1.89-.61,1.89-1.62s-.54-1.67-1.9-1.67h-1.78v3.29Z"/><path d="M687.62,177.07c0-2,1.15-3.32,2.89-3.32,1.33,0,2.74.82,2.74,3.17v.43h-4.62a1.91,1.91,0,0,0,2,2.08,1.65,1.65,0,0,0,1.48-.72h1.08a2.51,2.51,0,0,1-2.56,1.61A2.92,2.92,0,0,1,687.62,177.07Zm4.61-.58a1.71,1.71,0,0,0-1.72-1.85,1.88,1.88,0,0,0-1.87,1.85Z"/><path d="M694.45,180.86h1.06c.14.65.74,1,1.64,1,1.09,0,1.76-.46,1.76-1.52V179h-.09A1.93,1.93,0,0,1,697,180.1c-1.54,0-2.7-1.17-2.7-3.18s1.12-3.17,2.71-3.17a2,2,0,0,1,1.87,1.09h.08v-1h1v6.54c0,1.64-1.21,2.34-2.76,2.34S694.57,182.05,694.45,180.86Zm4.48-3.9c0-1.36-.63-2.31-1.82-2.31s-1.82,1-1.82,2.31.62,2.24,1.82,2.24S698.93,178.37,698.93,177Z"/><path d="M705.55,173.83h1v6.36h-1v-1.07h-.07a2,2,0,0,1-1.89,1.16c-1.21,0-2.06-.79-2.06-2.41v-4h1v4a1.36,1.36,0,0,0,1.38,1.5,1.65,1.65,0,0,0,1.63-1.72Z"/><path d="M709.18,180.19h-1v-8.48h1Z"/><path d="M712.87,176.51l1.72-.09v-.51c0-.81-.48-1.28-1.44-1.28a1.34,1.34,0,0,0-1.43.85h-1.05c.13-1,1.12-1.73,2.53-1.73a2.12,2.12,0,0,1,2.39,2.25v4.19h-1v-.86h0a2,2,0,0,1-1.9,1,2,2,0,0,1-2.17-2C710.48,176.92,711.77,176.6,712.87,176.51Zm0,2.93a1.61,1.61,0,0,0,1.76-1.55v-.65l-1.6.12c-.91.06-1.5.39-1.5,1.08S712.05,179.44,712.83,179.44Z"/><path d="M717.22,173.83h1v1h.07a1.71,1.71,0,0,1,1.64-1.07l.53,0v1a2.88,2.88,0,0,0-.61-.07,1.5,1.5,0,0,0-1.6,1.49v4h-1Z"/><path d="M617.12,207.83l2-5.52h.72l2,5.52h-.72l-.54-1.56h-2.18l-.55,1.56Zm3.23-2.16-.86-2.47h0l-.86,2.47Z"/><path d="M622.55,202.31h1.91c1.14,0,1.67.64,1.67,1.46a1.1,1.1,0,0,1-.88,1.16v0a1.29,1.29,0,0,1,1.1,1.38c0,.84-.54,1.47-1.83,1.47h-2Zm2.94,1.47c0-.48-.32-.86-1-.86h-1.23v1.8h1.2A1,1,0,0,0,625.49,203.78Zm.21,2.58a1.06,1.06,0,0,0-1.15-1h-1.32v1.9h1.29C625.37,207.22,625.7,206.84,625.7,206.36Z"/><path d="M629.5,202.87c-1,0-1.75.77-1.75,2.2s.77,2.19,1.75,2.19A1.49,1.49,0,0,0,631,206.1h.67a2.13,2.13,0,0,1-2.19,1.81c-1.4,0-2.4-1.1-2.4-2.84s1-2.84,2.4-2.84a2.13,2.13,0,0,1,2.19,1.81H631A1.48,1.48,0,0,0,629.5,202.87Z"/><path d="M632.64,207.83v-5.52h1.75a2.43,2.43,0,0,1,2.53,2.75,2.46,2.46,0,0,1-2.59,2.77Zm1.64-.61c1.34,0,2-.82,2-2.16s-.63-2.14-1.9-2.14h-1v4.3Z"/><path d="M637.9,202.31h3.3v.61h-2.62v1.84H641v.61h-2.45v1.85h2.66v.61H637.9Z"/><path d="M642.26,202.31h3.28v.61h-2.6v1.84h2.35v.61h-2.35v2.46h-.68Z"/><path d="M648.71,202.87c-1,0-1.73.77-1.73,2.2s.77,2.19,1.77,2.19a1.51,1.51,0,0,0,1.57-1.6H648.9v-.6H651v.59a2.13,2.13,0,0,1-2.23,2.26c-1.44,0-2.42-1.1-2.42-2.84s1-2.84,2.38-2.84A2.2,2.2,0,0,1,651,204h-.7A1.56,1.56,0,0,0,648.71,202.87Z"/><path d="M652,202.31h.67v2.45h2.88v-2.45h.68v5.52h-.68v-2.46h-2.88v2.46H652Z"/><path d="M658.09,207.83h-.68v-5.52h.68Z"/><path d="M662.05,202.31v3.94a1.48,1.48,0,0,1-1.56,1.66,1.4,1.4,0,0,1-1.55-1.39h.66a.8.8,0,0,0,.89.77c.56,0,.88-.35.88-1v-3.94Z"/><path d="M663.25,202.31h.68V205H664l2.42-2.73h.89L665,204.8l2.28,3h-.83l-1.87-2.56-.67.78v1.78h-.68Z"/><path d="M668,202.31h.68v4.91h2.52v.61H668Z"/><path d="M672.93,202.31l1.83,4.54h.07l1.83-4.54h.81v5.52h-.64v-4.17h-.05l-1.69,4.17h-.6l-1.69-4.17h0v4.17h-.64v-5.52Z"/><path d="M683,207.83h-.65l-2.94-4.3h0v4.3h-.68v-5.52h.65l2.95,4.31h.05v-4.31H683Z"/><path d="M686.38,207.91c-1.4,0-2.4-1.1-2.4-2.84s1-2.84,2.4-2.84,2.4,1.09,2.4,2.84S687.77,207.91,686.38,207.91Zm0-5c-1,0-1.75.77-1.75,2.2s.76,2.19,1.75,2.19,1.75-.77,1.75-2.19S687.36,202.87,686.38,202.87Z"/><path d="M689.77,202.31h1.85a1.76,1.76,0,1,1,0,3.51h-1.18v2h-.67Zm1.82,2.9a1.06,1.06,0,0,0,1.21-1.15c0-.66-.34-1.14-1.22-1.14h-1.14v2.29Z"/><path d="M698.08,207.39l.71,1h-.74l-.47-.65a2.25,2.25,0,0,1-1,.21c-1.4,0-2.41-1.1-2.41-2.84s1-2.84,2.41-2.84,2.4,1.09,2.4,2.84A3,3,0,0,1,698.08,207.39Zm-1-1.29.57.76a2.29,2.29,0,0,0,.66-1.79c0-1.43-.76-2.2-1.74-2.2s-1.75.77-1.75,2.2.76,2.19,1.75,2.19a1.79,1.79,0,0,0,.57-.09l-.8-1.07Z"/><path d="M700,202.31h1.84a1.62,1.62,0,0,1,1.86,1.7,1.52,1.52,0,0,1-1,1.55l1.23,2.27h-.79L702,205.68h-1.32v2.14H700Zm1.82,2.75c.86,0,1.21-.4,1.21-1.05s-.35-1.09-1.22-1.09h-1.14v2.14Z"/><path d="M706.4,204.59h0l1.39-2.28h.8l-1.71,2.76,1.71,2.76h-.8l-1.39-2.24h0L705,207.83h-.8l1.75-2.76-1.75-2.76H705Z"/><path d="M709.08,202.31h4.09v.61h-1.7v4.91h-.68v-4.91h-1.71Z"/><path d="M718.31,202.31V206a2.13,2.13,0,0,1-4.24,0v-3.65h.68v3.6a1.44,1.44,0,0,0,2.88,0v-3.6Z"/><path d="M721.35,206.94h.06l1.61-4.63h.71l-2,5.52H721l-2-5.52h.71Z"/><path d="M724,202.31h.68l1.13,4.47h.05l1.15-4.47h.76l1.16,4.47h0l1.14-4.47h.68l-1.49,5.52h-.7l-1.18-4.37h0l-1.19,4.37h-.7Z"/><path d="M733.22,204.59h0l1.39-2.28h.79l-1.7,2.76,1.7,2.76h-.79l-1.39-2.24h0l-1.39,2.24H731l1.75-2.76L731,202.31h.8Z"/><path d="M736.51,202.31l1.49,2.56h.07l1.5-2.56h.78l-2,3.25v2.27h-.68v-2.27l-2-3.25Z"/><path d="M740.89,207.33l2.92-4.41h-2.95v-.61h3.76v.49l-2.92,4.42h2.95v.61h-3.76Z"/><path d="M618.84,213.84l1.11-.06v-.33c0-.53-.31-.83-.93-.83a.86.86,0,0,0-.91.55h-.68a1.46,1.46,0,0,1,1.62-1.13,1.36,1.36,0,0,1,1.53,1.47v2.73H620v-.57h0a1.41,1.41,0,0,1-2.61-.61C617.31,214.11,618.14,213.9,618.84,213.84Zm0,1.91a1,1,0,0,0,1.14-1v-.42l-1,.07c-.59,0-1,.25-1,.7S618.32,215.75,618.81,215.75Z"/><path d="M621.7,210.72h.65v2h0a1.23,1.23,0,0,1,1.18-.71c1,0,1.74.83,1.74,2.14s-.72,2.14-1.73,2.14a1.28,1.28,0,0,1-1.19-.71h-.07v.63h-.63Zm1.79,5c.77,0,1.18-.69,1.18-1.58s-.39-1.53-1.18-1.53-1.16.62-1.16,1.53S622.75,215.74,623.49,215.74Z"/><path d="M626,214.19a1.92,1.92,0,0,1,1.85-2.15,1.52,1.52,0,0,1,1.62,1.31h-.64a1,1,0,0,0-1-.73c-.73,0-1.22.61-1.22,1.54s.47,1.58,1.22,1.58a.93.93,0,0,0,1-.72h.64a1.51,1.51,0,0,1-1.6,1.3A1.9,1.9,0,0,1,626,214.19Z"/><path d="M630,214.18c0-1.31.72-2.14,1.74-2.14a1.23,1.23,0,0,1,1.18.71h0v-2h.65v5.52H633v-.63H633a1.26,1.26,0,0,1-1.18.71C630.75,216.32,630,215.49,630,214.18Zm3,0c0-.91-.41-1.53-1.16-1.53s-1.18.67-1.18,1.53.4,1.58,1.18,1.58S633,215.09,633,214.16Z"/><path d="M634.57,214.2a1.92,1.92,0,0,1,1.85-2.16c.85,0,1.76.54,1.76,2.07v.28h-3a1.23,1.23,0,0,0,1.26,1.35,1,1,0,0,0,.94-.47h.7a1.6,1.6,0,0,1-1.64,1A1.89,1.89,0,0,1,634.57,214.2Zm2.95-.37a1.1,1.1,0,0,0-1.1-1.21,1.22,1.22,0,0,0-1.2,1.21Z"/><path d="M640.84,212.65h-.9v3.59h-.66v-3.59h-.65v-.55h.65v-.57a1,1,0,0,1,1.17-1.07,3.58,3.58,0,0,1,.48,0v.59l-.34,0c-.45,0-.65.19-.65.62v.42h.9Z"/><path d="M641.36,216.67H642c.09.42.48.64,1.06.64s1.12-.31,1.12-1v-.84h-.05a1.24,1.24,0,0,1-1.19.7c-1,0-1.73-.76-1.73-2.07S642,212,643,212a1.28,1.28,0,0,1,1.19.71h.06v-.65h.63v4.25c0,1.07-.78,1.53-1.77,1.53S641.43,217.44,641.36,216.67Zm2.87-2.54c0-.88-.41-1.5-1.17-1.5s-1.17.67-1.17,1.5.4,1.46,1.17,1.46S644.23,215.05,644.23,214.13Z"/><path d="M646.53,216.24h-.65v-5.52h.65v2h.05a1.19,1.19,0,0,1,1.2-.71c.84,0,1.39.51,1.39,1.57v2.63h-.64v-2.59a.9.9,0,0,0-.94-1,1,1,0,0,0-1.06,1.12Z"/><path d="M650.08,211a.44.44,0,0,1,.45-.43.44.44,0,1,1,0,.87A.44.44,0,0,1,650.08,211Zm.13,1.13h.64v4.14h-.64Z"/><path d="M652.53,212.1v4.44a1.11,1.11,0,0,1-1.19,1.26h-.14v-.61h.13c.38,0,.55-.24.55-.65V212.1Zm-.79-1.13a.46.46,0,1,1,.45.44A.44.44,0,0,1,651.74,211Z"/><path d="M653.55,210.72h.65v3.21h.07L656,212.1h.79l-1.72,1.77,1.85,2.37h-.82l-1.51-2-.43.4v1.55h-.65Z"/><path d="M658.17,216.24h-.65v-5.52h.65Z"/><path d="M659.19,212.1h.63v.65h0a1.19,1.19,0,0,1,2.18,0h.05a1.29,1.29,0,0,1,1.22-.71c.73,0,1.25.45,1.25,1.43v2.77h-.65v-2.76a.76.76,0,0,0-.82-.85.85.85,0,0,0-.89.92v2.69h-.66v-2.83a.75.75,0,0,0-.79-.78,1,1,0,0,0-.92,1v2.59h-.65Z"/><path d="M666.25,216.24h-.65V212.1h.63v.65h0a1.2,1.2,0,0,1,1.19-.71c.83,0,1.38.51,1.38,1.57v2.63h-.65v-2.59a.89.89,0,0,0-.92-1,1,1,0,0,0-1,1.12Z"/><path d="M669.69,214.19a1.87,1.87,0,1,1,3.7,0,1.87,1.87,0,1,1-3.7,0Zm3.06,0c0-.83-.38-1.57-1.2-1.57s-1.22.74-1.22,1.57.38,1.55,1.22,1.55S672.75,215,672.75,214.19Z"/><path d="M674.24,212.1h.62v.65h.08a1.23,1.23,0,0,1,1.18-.71c1,0,1.73.83,1.73,2.14s-.71,2.14-1.73,2.14a1.25,1.25,0,0,1-1.18-.71h-.05v2.19h-.65Zm1.79,3.64c.78,0,1.18-.69,1.18-1.58s-.4-1.53-1.18-1.53-1.16.62-1.16,1.53S675.28,215.74,676,215.74Z"/><path d="M681.46,215.61h-.05a1.26,1.26,0,0,1-1.18.71c-1,0-1.74-.83-1.74-2.14s.72-2.14,1.75-2.14a1.23,1.23,0,0,1,1.17.71h.07v-.65h.63v5.7h-.65Zm0-1.45c0-.91-.4-1.53-1.16-1.53s-1.17.67-1.17,1.53.39,1.58,1.17,1.58S681.48,215.09,681.48,214.16Z"/><path d="M683.14,212.1h.62v.63h0a1.1,1.1,0,0,1,1.05-.7h.34v.67a1.49,1.49,0,0,0-.4-.05,1,1,0,0,0-1,1v2.61h-.64Z"/><path d="M687.4,213.78l1-1.68h.74l-1.31,2.06,1.31,2.08h-.73l-1-1.6-1,1.6h-.74l1.28-2.08-1.28-2.06h.74Z"/><path d="M691.67,212.65h-.85v2.4c0,.53.25.62.53.62l.38,0v.61a2.56,2.56,0,0,1-.45,0,1.05,1.05,0,0,1-1.12-1.07v-2.57h-.61v-.55h.61v-1h.66v1h.85Z"/><path d="M695.08,212.1h.64v4.14h-.64v-.7H695a1.26,1.26,0,0,1-1.21.75c-.77,0-1.32-.51-1.32-1.56V212.1h.65v2.58a.89.89,0,0,0,.89,1,1.06,1.06,0,0,0,1-1.12Z"/><path d="M698.6,216.24h-.67l-1.5-4.14h.7l1.11,3.28h0l1.11-3.28h.71Z"/><path d="M700.5,212.1h.68l.87,3.15h0l.86-3.15h.69l.85,3.14h0l.87-3.14h.68l-1.24,4.14h-.64l-.88-3.16h-.06l-.88,3.16h-.65Z"/><path d="M708.24,213.78l1-1.68H710l-1.31,2.06,1.31,2.08h-.74l-1-1.6-1,1.6h-.74l1.28-2.08-1.28-2.06h.74Z"/><path d="M710.78,217.78v-.59l.32,0c.26,0,.48,0,.7-.63l.12-.31-1.51-4.17h.7l1.11,3.28h0l1.11-3.28h.71l-1.73,4.73a1.26,1.26,0,0,1-1.22,1Z"/><path d="M714.68,215.74l2.29-3v-.05h-2.22v-.6h3.06v.52l-2.23,3v0h2.3v.6h-3.2Z"/><path d="M619.42,225.85h-.68v-4.8h0l-1.32.89v-.7l1.35-.91h.68Z"/><path d="M620.86,225.35l1.86-2c.64-.7.95-1.07.95-1.58a1.07,1.07,0,0,0-2.14.1h-.64a1.61,1.61,0,0,1,1.72-1.64,1.58,1.58,0,0,1,1.69,1.54c0,.61-.29,1.09-1.25,2.1l-1.24,1.31v0h2.59v.61h-3.53Z"/><path d="M625.36,224.46h.69c0,.53.55.86,1.2.86s1.24-.4,1.24-1-.48-1-1.32-1h-.45v-.6h.45a1,1,0,0,0,1.11-.95.91.91,0,0,0-1-.92,1,1,0,0,0-1.14.87h-.65a1.65,1.65,0,0,1,1.8-1.47,1.53,1.53,0,0,1,1.66,1.48A1.23,1.23,0,0,1,628,223v0a1.28,1.28,0,0,1,1.14,1.33,1.7,1.7,0,0,1-1.89,1.58C626.17,225.93,625.4,225.34,625.36,224.46Z"/><path d="M630,224.16l2.44-3.83h.84v3.79H634v.6h-.75v1.13h-.65v-1.13H630Zm2.63,0V221.2h-.07l-1.84,2.88v0Z"/><path d="M634.92,224.46h.66a1,1,0,0,0,1.11.87,1.19,1.19,0,0,0,1.21-1.22,1.23,1.23,0,0,0-1.26-1.26,1,1,0,0,0-1,.5H635l.38-3h2.94v.61h-2.38l-.2,1.62h0a1.65,1.65,0,0,1,1-.32,1.76,1.76,0,0,1,1.8,1.85,1.79,1.79,0,0,1-1.87,1.84A1.63,1.63,0,0,1,634.92,224.46Z"/><path d="M639.41,223.3c0-2,.79-3.05,2.07-3.05a1.7,1.7,0,0,1,1.76,1.47h-.67a1.08,1.08,0,0,0-1.09-.86c-.9,0-1.43.78-1.43,2.11h.07a1.64,1.64,0,0,1,1.39-.73,1.77,1.77,0,0,1,1.77,1.83,1.81,1.81,0,0,1-1.89,1.86C640.45,225.91,639.41,225.35,639.41,223.3Zm3.22.78a1.22,1.22,0,0,0-1.22-1.24,1.27,1.27,0,0,0-1.27,1.24,1.25,1.25,0,1,0,2.49,0Z"/><path d="M646.88,221v0H644v-.61h3.58V221l-2.49,4.88h-.7Z"/><path d="M648.23,224.39a1.39,1.39,0,0,1,1.11-1.41v0a1.22,1.22,0,0,1-.9-1.23,1.75,1.75,0,0,1,3.45,0A1.24,1.24,0,0,1,651,223v0a1.41,1.41,0,0,1,1.11,1.41c0,.9-.8,1.54-1.94,1.54S648.23,225.29,648.23,224.39Zm3.19,0a1.14,1.14,0,0,0-1.26-1.06,1.12,1.12,0,0,0-1.25,1.06c0,.58.47,1,1.25,1S651.42,224.93,651.42,224.35Zm-.19-2.58a1.08,1.08,0,0,0-2.13,0,1.07,1.07,0,0,0,2.13,0Z"/><path d="M656.79,222.87c0,2-.79,3.06-2.06,3.06a1.7,1.7,0,0,1-1.77-1.47h.67a1.07,1.07,0,0,0,1.1.86c.88,0,1.42-.78,1.43-2.12h-.08a1.64,1.64,0,0,1-1.38.73,1.77,1.77,0,0,1-1.78-1.82,1.81,1.81,0,0,1,1.9-1.86C655.75,220.26,656.79,220.83,656.79,222.87Zm-3.21-.77a1.19,1.19,0,0,0,1.21,1.23,1.27,1.27,0,0,0,1.26-1.25,1.24,1.24,0,0,0-2.47,0Z"/><path d="M617.63,198.15l-.33-.48a4.58,4.58,0,0,0,2.8-3.78h-2.49v-.5h3.09A5.11,5.11,0,0,1,617.63,198.15Zm4.79-2.73h1.09v.5h-1.09v3.52h-.58v-6.79h.58Z"/><path d="M624.76,197.21a14.7,14.7,0,0,0,3.07-.32l.08.52a16,16,0,0,1-3.2.3h-.53v-4.39h.58Zm5.39-1.34h-1.08v3.57h-.59v-6.79h.59v2.71h1.08Z"/><path d="M634,193.81h-2.53v3.44a15.06,15.06,0,0,0,3.05-.25l.08.52a16.54,16.54,0,0,1-3.19.23h-.53v-4.43H634Zm1.76,1.53h1.11v.5h-1.11v3.61h-.59v-6.8h.59Z"/><path d="M640.48,195.71H638v1.59a15,15,0,0,0,3.12-.24l.06.5a16.82,16.82,0,0,1-3.23.25h-.53v-2.59h2.43v-1.44h-2.45v-.49h3Zm1.87-.36h1.11v.51h-1.11v3.59h-.59v-6.8h.59Z"/><path d="M647.18,197.71H644.1v-4.37h3.08Zm-2.51-.49h1.92v-3.4h-1.92Zm4.32-1.86h1.12v.52H649v3.56h-.59v-6.79H649Z"/><path d="M651.33,195h1.95v-1.8h.58v4.58h-3.12v-4.58h.59Zm1.95,2.28v-1.8h-1.95v1.8Zm2.35-2h1.12v.52h-1.12v3.6H655v-6.79h.59Z"/><path d="M661.07,197.38l-.36.48a3.71,3.71,0,0,1-1.65-2.14,3.85,3.85,0,0,1-1.68,2.27l-.37-.49a3.59,3.59,0,0,0,1.75-3v-1.24h.58v1.24A3.44,3.44,0,0,0,661.07,197.38Zm1.2-2h1.12v.52h-1.12v3.51h-.59v-6.79h.59Z"/><path d="M667.22,195.54c0,1.45-.71,2.36-1.69,2.36s-1.68-.91-1.68-2.36.69-2.35,1.68-2.36S667.21,194.1,667.22,195.54Zm-2.82,0c0,1.11.47,1.83,1.13,1.83s1.12-.72,1.12-1.83-.45-1.82-1.12-1.83S664.4,194.44,664.4,195.54Zm4.51-.18H670v.52h-1.12v3.56h-.59v-6.79h.59Z"/><path d="M674.38,197.49,674,198a3.6,3.6,0,0,1-1.68-2.09,3.9,3.9,0,0,1-1.73,2.26l-.36-.47a3.58,3.58,0,0,0,1.8-2.92v-.89h-1.56v-.5h3.64v.5h-1.51v.89A3.28,3.28,0,0,0,674.38,197.49Zm1.17-2.09h1.12v.51h-1.12v3.53H675v-6.79h.59Z"/><path d="M680.91,197.54l-.34.46a3.29,3.29,0,0,1-1.59-2,3.5,3.5,0,0,1-1.68,2.1l-.34-.46a3.24,3.24,0,0,0,1.72-2.79v-.55h-1.53v-.49h1.52v-1.05h.59v1.05h1.5v.49h-1.51v.55A3.12,3.12,0,0,0,680.91,197.54Zm1.28-2.1h1.12V196h-1.12v3.49h-.59v-6.79h.59Z"/><path d="M684.06,198.31l-.33-.45a4.77,4.77,0,0,0,2.42-2.32l-2.29.22-.1-.53,2.57-.17a5.39,5.39,0,0,0,.21-1.2H684.1v-.5h3A5.06,5.06,0,0,1,684.06,198.31Zm4.77-2.89h1.08v.5h-1.08v3.52h-.58v-6.79h.58Z"/><path d="M693.73,193.77h-2.54v1.41h2.39v.49h-2.39v1.64a16.94,16.94,0,0,0,3-.22l.07.49a18.44,18.44,0,0,1-3.19.22h-.52v-4.53h3.13Zm1.74,1.61h1.12v.52h-1.12v3.54h-.58v-6.79h.58Z"/><path d="M700.78,193.89H700v3.26c.36,0,.72-.05,1.06-.1l0,.45a28.59,28.59,0,0,1-4.19.26l-.08-.51h.91v-3.35H697v-.5h3.75Zm-1.3,3.29v-3.29h-1.14v3.34C698.71,197.22,699.09,197.21,699.48,197.18Zm2.63-1.8h1.12v.5h-1.12v3.56h-.58v-6.79h.58Z"/><path d="M707.52,194.24h-4v-.5h1.72v-1h.58v1h1.67Zm-.31,2.12a1.64,1.64,0,1,1-1.64-1.56A1.55,1.55,0,0,1,707.21,196.36Zm-2.71,0a1.07,1.07,0,0,0,2.14,0,1.07,1.07,0,0,0-2.14,0Zm4.25-.91h1.12v.5h-1.12v3.49h-.58v-6.79h.58Z"/><line class="cls-4" x1="673" y1="360.98" x2="673" y2="447.73"/><line class="cls-5" x1="564.82" y1="360.98" x2="564.82" y2="491.1"/><line class="cls-5" x1="455.08" y1="360.98" x2="455.08" y2="621.23"/><line class="cls-5" x1="344.81" y1="360.98" x2="344.81" y2="491.1"/><line class="cls-5" x1="344.81" y1="360.98" x2="673" y2="360.98"/><rect class="cls-1" x="516.22" y="346.34" width="96.68" height="29.27"/><rect class="cls-1" x="406.47" y="346.34" width="96.68" height="29.27"/><rect class="cls-1" x="296.2" y="346.34" width="96.68" height="29.27"/><rect class="cls-6" x="296.2" y="389.72" width="96.68" height="29.27"/><rect class="cls-6" x="296.2" y="433.1" width="96.68" height="29.27"/><rect class="cls-6" x="296.2" y="476.47" width="96.68" height="29.27"/><rect class="cls-6" x="406.47" y="389.72" width="96.68" height="29.27"/><rect class="cls-6" x="406.47" y="433.1" width="96.68" height="29.27"/><rect class="cls-6" x="406.47" y="476.47" width="96.68" height="29.27"/><rect class="cls-6" x="516.22" y="389.72" width="96.68" height="29.27"/><rect class="cls-6" x="516.22" y="433.1" width="96.68" height="29.27"/><rect class="cls-6" x="624.4" y="389.72" width="96.68" height="29.27"/><rect class="cls-6" x="624.4" y="433.1" width="96.68" height="29.27"/><rect class="cls-6" x="516.22" y="476.47" width="96.68" height="29.27"/><rect class="cls-6" x="406.47" y="519.85" width="96.68" height="29.27"/><rect class="cls-6" x="406.47" y="563.22" width="96.68" height="29.27"/><rect class="cls-6" x="406.47" y="606.6" width="96.68" height="29.27"/><rect class="cls-1" x="624.4" y="346.34" width="96.68" height="29.27"/><rect class="cls-1" x="749.3" y="346.34" width="96.68" height="29.27"/><path class="cls-2" d="M334.46,364.84h-9.68v-1.07h9.68Zm-1.23-6.94a26.6,26.6,0,0,1-.39,5.13l-1.33-.12a23.79,23.79,0,0,0,.41-5v-.14H325.8v-1.05h7.43Z"/><path class="cls-2" d="M340.61,359.68H337V361a25.62,25.62,0,0,0,4.65-.33l.14,1.05a27,27,0,0,1-5.16.35h-.91v-3.4h3.58v-1.24h-3.6V356.4h4.9Zm3.67,6.4h-7.36v-3.22h1.31V365h6ZM344,363.5H342.7v-7.82H344Z"/><path class="cls-2" d="M351.84,357.78h-1v4.75c.51,0,1-.08,1.49-.14l.07,1a44.53,44.53,0,0,1-6.72.41l-.13-1.07h1.32v-4.92h-1v-1.07h6Zm-2.3,4.84v-4.84H348.1v4.88C348.57,362.66,349.06,362.64,349.54,362.62Zm4.89,3.67h-1.32V355.67h1.32Z"/><path class="cls-2" d="M365.65,364.94h-9.71v-1.08h9.71Zm-.39-4.13-.59,1.09a5.56,5.56,0,0,1-3.92-2.88,5.67,5.67,0,0,1-3.94,2.88l-.57-1.09c2.19-.4,3.79-2.05,3.8-3.68v-.79h1.39v.79C361.43,358.77,363,360.42,365.26,360.81Z"/><path class="cls-2" d="M662.68,363.6h-4.23v2.71h-1.29V363.6H653v-1.07h9.71Zm-.55-5.73h-8.67v-1.06h3.7v-1.16h1.29v1.16h3.68Zm-.73,2.28c0,1.16-1.35,1.8-3.6,1.8s-3.59-.64-3.59-1.8,1.35-1.8,3.59-1.8S661.4,359,661.4,360.15Zm-5.83,0c0,.54.76.82,2.23.82s2.25-.28,2.25-.82-.78-.82-2.25-.82S655.56,359.61,655.57,360.15Z"/><path class="cls-2" d="M670.17,360.14l.07.94c-.88.14-1.78.24-2.68.3v2.05h-1.31v-2c-1,0-1.94.05-2.77.05l-.16-1.05A61.16,61.16,0,0,0,670.17,360.14Zm-.74-2.19c0,1.14-1.1,1.87-2.65,1.87s-2.65-.73-2.65-1.87,1.08-1.88,2.65-1.88S669.41,356.84,669.43,358Zm3.09,8.13h-7.79V363H666V365h6.49ZM665.36,358c0,.58.58.92,1.42.92s1.39-.34,1.4-.92-.59-.91-1.4-.91S665.36,357.38,665.36,358Zm6.91,5.77H671v-.93h-2.08v-.91H671v-6.2h1.32Z"/><path class="cls-2" d="M679.6,359.06a2.87,2.87,0,1,1-2.86-2.68A2.71,2.71,0,0,1,679.6,359.06Zm-4.45,0a1.59,1.59,0,1,0,1.59-1.54A1.49,1.49,0,0,0,675.15,359.06Zm7.4,7h-7.22v-3.45h1.3V365h5.92Zm-.42-7.29h1.48v1.08h-1.48v3.57h-1.3v-7.77h1.3Z"/><path class="cls-2" d="M685.92,362.5a17.38,17.38,0,0,0,3-.32l.13,1.14a20.64,20.64,0,0,1-3.78.33h-.7v-6.76h1.32Zm7.34,3.79H692v-5.37h-1.17v4.83H689.6v-9.88h1.23v4H692v-4.19h1.26Z"/><path d="M662.61,406.14h-4.36v2.94h-.9v-2.94H653v-.76h9.57Zm-.6-5.57h-8.47v-.76h3.81v-1.26h.9v1.26H662Zm-.8,2.35c0,1.1-1.28,1.73-3.41,1.74s-3.42-.64-3.4-1.74,1.27-1.75,3.4-1.75S661.21,401.79,661.21,402.92Zm-5.86,0c0,.65.89,1,2.45,1s2.45-.37,2.46-1-.92-1.05-2.46-1.05S655.34,402.26,655.35,402.92Z"/><path d="M670.18,403.16l.06.67c-.94.14-1.91.24-2.87.29v2.07h-.93v-2c-1.06,0-2.06.05-2.94,0l-.12-.75A60.18,60.18,0,0,0,670.18,403.16Zm-.79-2.3c0,1.12-1.06,1.81-2.58,1.81s-2.59-.69-2.59-1.81,1-1.82,2.59-1.82S669.38,399.77,669.39,400.86Zm2.91,8h-7.42v-3.05h.93v2.27h6.49Zm-7.2-8c0,.69.68,1.13,1.71,1.13s1.69-.44,1.7-1.13-.72-1.12-1.7-1.11S665.09,400.19,665.1,400.86Zm6.95,5.69h-.93v-1.08H669v-.67h2.16v-6.18h.93Z"/><path d="M680,401.05h-6.22v-.76h2.69v-1.55h.92v1.55H680Zm-.49,3.27a2.4,2.4,0,0,1-2.57,2.39,2.4,2.4,0,1,1,0-4.79A2.41,2.41,0,0,1,679.49,404.32Zm-4.25,0a1.68,1.68,0,0,0,3.36,0,1.68,1.68,0,0,0-3.36,0Zm6.67-1.4h1.75v.76h-1.75v5.37H681V398.61h.92Z"/><path d="M684.85,407.09l-.51-.75c2.83-1.34,4.27-3.34,4.48-5.84h-4v-.75h4.94C689.75,402.76,688.35,405.41,684.85,407.09Zm8,2h-.93V398.61h.93Z"/><path class="cls-2" d="M787.58,363.6h-4.23v2.71h-1.29V363.6h-4.18v-1.07h9.7Zm-.55-5.73h-8.67v-1.06h3.7v-1.16h1.29v1.16H787Zm-.73,2.28c0,1.16-1.35,1.8-3.59,1.8s-3.6-.64-3.6-1.8,1.35-1.8,3.6-1.8S786.3,359,786.3,360.15Zm-5.83,0c0,.54.77.82,2.24.82s2.24-.28,2.24-.82-.78-.82-2.24-.82S780.46,359.61,780.47,360.15Z"/><path class="cls-2" d="M795.07,360.14l.07.94c-.88.14-1.78.24-2.68.3v2.05h-1.3v-2c-1,0-1.94.05-2.78.05l-.16-1.05A61.16,61.16,0,0,0,795.07,360.14Zm-.74-2.19c0,1.14-1.09,1.87-2.65,1.87S789,359.09,789,358s1.08-1.88,2.65-1.88S794.32,356.84,794.33,358Zm3.09,8.13h-7.79V363h1.3V365h6.49ZM790.26,358c0,.58.58.92,1.42.92s1.39-.34,1.4-.92-.58-.91-1.4-.91S790.26,357.38,790.26,358Zm6.91,5.77h-1.31v-.93h-2.08v-.91h2.08v-6.2h1.31Z"/><path class="cls-2" d="M804.86,358.35H798.6v-1h2.51v-1.48h1.3v1.48h2.45Zm-.43,3.2a2.68,2.68,0,1,1-2.66-2.51A2.49,2.49,0,0,1,804.43,361.55Zm-4.1,0a1.43,1.43,0,0,0,2.86,0,1.43,1.43,0,1,0-2.86,0ZM807,359.9h1.64V361H807v5.31h-1.29V355.67H807Z"/><path class="cls-2" d="M809.79,364.41l-.68-1c2.78-1.32,4.07-3.12,4.3-5.54h-3.76v-1h5.09C814.74,360,813.52,362.65,809.79,364.41Zm8.12,1.88H816.6V355.67h1.31Z"/><path d="M652.83,449a23.58,23.58,0,0,0,4.8-.48l.12.78a24.2,24.2,0,0,1-5,.47h-.84V443h.92Zm8.42-2.07h-1.69v5.5h-.92V442h.92v4.17h1.69Z"/><path d="M668.82,449l.07.68a37.66,37.66,0,0,1-6.84.46l-.13-.79A49.64,49.64,0,0,0,668.82,449Zm-.73-3.81a2.84,2.84,0,1,1-2.81-2.45A2.53,2.53,0,0,1,668.09,445.2Zm-4.72,0a1.93,1.93,0,1,0,1.91-1.64A1.71,1.71,0,0,0,663.37,445.2Zm7.06,7.25h-.92V442h.92Z"/><path d="M684.83,449.52h-4.35v2.93h-.91v-2.93h-4.3v-.77h9.56Zm-.59-5.57h-8.48v-.77h3.81v-1.25h.91v1.25h3.76Zm-.8,2.35c0,1.1-1.28,1.72-3.41,1.74s-3.42-.64-3.41-1.74,1.27-1.75,3.41-1.75S683.44,445.17,683.44,446.3Zm-5.87,0c0,.64.9,1,2.46,1s2.44-.38,2.45-1-.91-1.05-2.45-1.05S677.56,445.64,677.57,446.3Z"/><path d="M692.4,446.53l.06.67c-.93.15-1.91.24-2.86.3v2.06h-.93v-2c-1.06,0-2.06.06-2.94,0l-.13-.75A60.19,60.19,0,0,0,692.4,446.53Zm-.78-2.29c0,1.12-1.06,1.81-2.59,1.81s-2.58-.69-2.58-1.81,1-1.82,2.58-1.82S691.6,443.15,691.62,444.24Zm2.91,8H687.1v-3.06H688v2.28h6.5Zm-7.2-8c0,.68.68,1.13,1.7,1.13s1.69-.45,1.71-1.13-.72-1.13-1.71-1.12S687.32,443.57,687.33,444.24Zm6.94,5.69h-.93v-1.08h-2.16v-.67h2.16V442h.93Z"/><path class="cls-2" d="M548.53,360.6l-.6,1a3.92,3.92,0,0,1-2.56-2,4,4,0,0,1-2.62,2.15l-.63-1a3.14,3.14,0,0,0,2.58-2.92v0h-2.22v-1h2.22v-1.18H546v1.18h2.21v1H546v0A3,3,0,0,0,548.53,360.6Zm2,5.56H543.7v-3.79h6.86ZM545,365.11h4.28V363.4H545Zm5.57-6.88H552v1.08h-1.48v2.61h-1.3v-6.25h1.3Z"/><path class="cls-2" d="M557.71,357.92h2.47v-2.25h1.3v10.64h-1.3v-4H557.8a2.53,2.53,0,0,1-2.33,1.67c-1.59,0-2.72-1.45-2.72-3.76s1.13-3.75,2.72-3.75A2.46,2.46,0,0,1,557.71,357.92ZM554,360.2c0,1.63.59,2.58,1.47,2.58s1.47-.95,1.48-2.58-.6-2.58-1.48-2.58S554,358.57,554,360.2Zm4.19,0a6.63,6.63,0,0,1-.08,1h2.07V359h-2.11A5.7,5.7,0,0,1,558.19,360.2Z"/><path class="cls-2" d="M564.05,366.53h-1.31l2.75-10.19h1.3Z"/><path class="cls-2" d="M573.78,360.75l-.67,1a4.2,4.2,0,0,1-2.54-2.35A4.42,4.42,0,0,1,568,362l-.68-1a3.79,3.79,0,0,0,2.6-3.63v-1h1.35v1A3.58,3.58,0,0,0,573.78,360.75Zm2.63,5.33h-7.32V362.7h1.31V365h6Zm-.3-2.64H574.8v-7.76h1.31Z"/><path class="cls-2" d="M584.05,360.7l-.61,1a4,4,0,0,1-2.6-2,4,4,0,0,1-2.61,2.24l-.61-1a3.26,3.26,0,0,0,2.55-3v-.06H578v-1h2.22v-1.23h1.32v1.23h2.21v1h-2.23v.06A3.08,3.08,0,0,0,584.05,360.7Zm2.54,3.58c0,1.27-1.39,2-3.63,2s-3.62-.73-3.61-2,1.37-2,3.61-2S586.59,363,586.59,364.28Zm-6,0c0,.64.83,1,2.32,1s2.32-.35,2.32-1-.82-1-2.32-1S580.64,363.65,580.64,364.28Zm5.91-2.18h-1.3v-2.46h-1.87v-1.05h1.87v-2.92h1.3Z"/><path d="M550.5,401.05h-6.22v-.76H547v-1.55h.92v1.55h2.61Zm-.49,3.27a2.4,2.4,0,0,1-2.57,2.39,2.4,2.4,0,1,1,0-4.79A2.41,2.41,0,0,1,550,404.32Zm-4.25,0a1.68,1.68,0,0,0,3.36,0,1.68,1.68,0,0,0-3.36,0Zm6.67-1.4h1.75v.76h-1.75v5.37h-.92V398.61h.92Z"/><path d="M564.28,405.71h-4.34v3.37H559v-3.37h-4.3V405h9.56Zm-1.16-4h-6.3v1.35h6.52v.76h-7.45V401h6.29v-1.24h-6.31V399h7.25Z"/><path d="M571.37,406.06l-.53.73a5.54,5.54,0,0,1-2.63-3.24,6,6,0,0,1-2.7,3.49l-.57-.72a5.47,5.47,0,0,0,2.81-4.5v-1.37h-2.43v-.76H571v.76h-2.35v1.37A5,5,0,0,0,571.37,406.06Zm1.83-3.22H575v.78H573.2v5.43h-.91V398.61h.91Z"/><path d="M585,404.61h-9.52v-.76h4.3v-1.13h-3v-3.83h.91v1.18h5.17v-1.18h.92v3.83h-3v1.13H585Zm-1.17,2.6c0,1.17-1.35,1.82-3.59,1.82s-3.61-.65-3.61-1.82,1.34-1.82,3.61-1.82S583.85,406.05,583.86,407.21Zm-6.26,0c0,.7,1,1.1,2.67,1.1s2.65-.4,2.65-1.1-1-1.11-2.65-1.11S577.6,406.5,577.6,407.21Zm5.26-5.22v-1.2h-5.17V402Z"/><path d="M540.62,447.08l-.49.74a4.24,4.24,0,0,1-2.52-2.38,4.58,4.58,0,0,1-2.67,2.68l-.48-.74a3.89,3.89,0,0,0,2.66-3.47v-.39h-2.37v-.77h5.63v.77H538v.38A3.57,3.57,0,0,0,540.62,447.08Zm2.49,3.4c0,1.23-1.33,1.94-3.5,1.95s-3.5-.72-3.5-1.95,1.32-1.94,3.5-1.94S543.11,449.25,543.11,450.48Zm-6.09,0c0,.75,1,1.21,2.59,1.21s2.58-.46,2.58-1.21-1-1.22-2.58-1.22S537,449.72,537,450.48Zm6.05-2.27h-.93v-2.74H540v-.76h2.1V442h.93Z"/><path d="M545.44,450.47l-.51-.75c2.83-1.34,4.27-3.35,4.48-5.84h-4v-.76h4.94C550.34,446.13,548.94,448.79,545.44,450.47Zm8,2h-.93V442h.93Z"/><path d="M561.44,449.43l-.53.73a5.55,5.55,0,0,1-2.63-3.23,6,6,0,0,1-2.7,3.49l-.57-.73a5.46,5.46,0,0,0,2.81-4.5v-1.36h-2.43v-.76h5.69v.76h-2.35v1.36A5,5,0,0,0,561.44,449.43Zm1.83-3.22H565V447h-1.75v5.43h-.91V442h.91Z"/><path d="M572.32,446.53l.06.67c-.93.15-1.91.24-2.86.3v2.06h-.93v-2c-1.06,0-2.06.06-2.94,0l-.13-.75A60.19,60.19,0,0,0,572.32,446.53Zm-.78-2.29c0,1.12-1.06,1.81-2.59,1.81s-2.58-.69-2.58-1.81,1-1.82,2.58-1.82S571.52,443.15,571.54,444.24Zm2.91,8H567v-3.06H568v2.28h6.5Zm-7.2-8c0,.68.68,1.13,1.7,1.13s1.69-.45,1.71-1.13-.72-1.13-1.71-1.12S567.24,443.57,567.25,444.24Zm6.94,5.69h-.93v-1.08H571.1v-.67h2.16V442h.93Z"/><path d="M585.48,448H576v-.76h4.3V446.1h-3v-3.83h.91v1.17h5.17v-1.17h.92v3.83h-3.06v1.13h4.3Zm-1.16,2.6c0,1.17-1.35,1.82-3.59,1.82s-3.61-.65-3.61-1.82,1.34-1.83,3.61-1.83S584.31,449.42,584.32,450.59Zm-6.26,0c0,.7,1,1.1,2.67,1.1s2.65-.4,2.65-1.1-1-1.11-2.65-1.11S578.06,449.88,578.06,450.59Zm5.26-5.22v-1.2h-5.17v1.2Z"/><path d="M592.56,449.26,592,450a5.64,5.64,0,0,1-2.58-3.29,5.91,5.91,0,0,1-2.63,3.49l-.59-.74a5.51,5.51,0,0,0,2.75-4.67v-1.9h.91v1.9A5.27,5.27,0,0,0,592.56,449.26Zm1.88-3h1.75v.8h-1.75v5.4h-.92V442h.92Z"/><path d="M546.51,491.53h-.87V488.9h-1.13a2.5,2.5,0,1,1,0-.77h1.13v-2.56h.87Zm-5.92-3a1.55,1.55,0,0,0,1.55,1.69,1.69,1.69,0,1,0-1.55-1.69Zm7.92,7.33h-.91v-3h-6.13v-.74h7Zm0-4.22h-.88v-6.25h.88Z"/><path d="M555.78,487.09h-4.17v2.16h3.8V490h-3.8v2.53a28.22,28.22,0,0,0,4.89-.34l.1.76a30.33,30.33,0,0,1-5.07.34h-.83v-7h5.08Zm2.88,8.72h-.92V485.36h.92Z"/><path d="M561.94,489h3.12v-2.76h.9v7.05H561v-7.05h.91Zm3.12,3.52v-2.78h-3.12v2.78Zm4,3.3h-.93V485.36H569Z"/><path d="M580.37,494.38H570.8v-.76h9.57Zm-.49-3.76-.43.78a5.8,5.8,0,0,1-3.91-3,5.8,5.8,0,0,1-3.91,3l-.43-.78c1.81-.35,3.85-1.92,3.85-3.72v-.8h1v.8C576,488.69,578.05,490.28,579.88,490.62Z"/><path d="M590.76,494.44h-9.57v-.76h9.57Zm-1.11-2.68h-7.22v-5.49h7.11V487h-6.17v1.55h5.94v.74h-5.94V491h6.28Z"/><path class="cls-2" d="M440.9,362.19l-.63-1a5.54,5.54,0,0,0,2.76-2l-2.52.27-.18-1,3.17-.18a4.17,4.17,0,0,0,.19-.88H440.8v-1.07H445C445,359,443.82,361,440.9,362.19Zm8.46,4h-7.17v-3.83h7.17Zm-5.88-1.05h4.59v-1.73h-4.59Zm5.88-3.2h-1.25V359.3H447v2.53h-1.23v-5.95H447v2.34h1.12v-2.54h1.25Z"/><path class="cls-2" d="M455.62,358h-.75v4.58l.95-.11.08,1a28.62,28.62,0,0,1-5.2.37l-.16-1.08h1V358h-.75v-1.06h4.86Zm-1.95,4.65V358h-1v4.68Q453.17,362.67,453.67,362.64Zm4.1,3.12h-1.25v-5h-1.17V359.6h1.17v-3.7h1.25Zm2.11.53h-1.24V355.67h1.24Z"/><path class="cls-2" d="M467,359a2.87,2.87,0,1,1-2.86-2.65A2.69,2.69,0,0,1,467,359Zm-4.44,0a1.58,1.58,0,1,0,1.58-1.51A1.48,1.48,0,0,0,462.52,359Zm7.67,7.05h-7.32v-3.5h1.32V365h6Zm-.29-2.72h-1.32v-7.68h1.32Z"/><path d="M436.15,401.17h-5.24v-.75h2.18v-1.49H434v1.49h2.15Zm-.35,3.08a2.26,2.26,0,1,1-2.27-2.38A2.25,2.25,0,0,1,435.8,404.25Zm-3.69,0a1.44,1.44,0,1,0,2.87,0,1.44,1.44,0,1,0-2.87,0Zm7.72,4.8H439v-5.27h-1.39v4.76h-.87v-9.67h.87V403H439v-4.4h.88Z"/><path d="M447,401.7a2.52,2.52,0,0,1-2.75,2.45A2.47,2.47,0,1,1,447,401.7Zm-4.58,0a1.85,1.85,0,1,0,1.83-1.67A1.68,1.68,0,0,0,442.43,401.7Zm7.16,5.39c0,1.22-1.32,1.94-3.45,1.94s-3.46-.72-3.46-1.94,1.32-1.95,3.46-2S449.59,405.85,449.59,407.09Zm-6,0c0,.75,1,1.2,2.54,1.2s2.55-.45,2.55-1.2-1-1.21-2.55-1.21S443.59,406.33,443.6,407.09ZM451,401h-1.55v1.46H451v.77h-1.55v1.62h-.91v-6.2h.91v1.58H451Z"/><path d="M452.28,405l-.46-.71a5.74,5.74,0,0,0,3.09-2.38l-3,.31-.15-.76,3.43-.22a4.89,4.89,0,0,0,.23-1.15H452.3v-.75h4.09C456.39,401.84,455.17,403.8,452.28,405Zm8.3,3.92h-6.89v-3.65h6.89Zm-6-.75h5.09V406h-5.09Zm6-3.38h-.88V402h-1.42v2.65h-.88v-5.87h.88v2.44h1.42v-2.64h.88Z"/><path d="M467,400.71h-.88v4.83c.4,0,.77-.06,1.12-.11l.06.69a32.46,32.46,0,0,1-5.21.35l-.12-.79h1.11v-5h-.88V400H467Zm-1.74,4.89v-4.89h-1.33v5C464.37,405.65,464.83,405.63,465.27,405.6Zm3.78,2.9h-.88v-5.09h-1.46v-.83h1.46v-3.71h.88Zm2,.55h-.89V398.61h.89Z"/><path d="M478.21,401.91a2.74,2.74,0,1,1-2.74-2.56A2.56,2.56,0,0,1,478.21,401.91Zm-4.57,0a1.72,1.72,0,0,0,1.83,1.76,1.76,1.76,0,1,0-1.83-1.76Zm7.8,6.92h-7.07v-3.35h.92v2.57h6.15Zm-.33-2.57h-.91v-7.64h.91Z"/><path d="M436.2,447.42l-.48.7a3.62,3.62,0,0,1-2.1-2,4.13,4.13,0,0,1-2.17,2.33l-.5-.72a3.64,3.64,0,0,0,2.22-3.11v-1.43h.88v1.43A3.16,3.16,0,0,0,436.2,447.42Zm3.67,3.65c0,1.18-1.35,1.86-3.52,1.86s-3.51-.68-3.5-1.86,1.33-1.87,3.5-1.87S439.87,449.88,439.87,451.07Zm-6.1,0c0,.72,1,1.14,2.58,1.14s2.59-.42,2.6-1.14-1-1.16-2.6-1.16S433.76,450.34,433.77,451.07Zm6-2.1h-.88v-2.88h-1.39v2.55h-.87v-5.92h.87v2.61h1.39v-2.81h.88Z"/><path d="M444.11,447.7v-.65c-1.22-.08-2-.57-2-1.37s1-1.35,2.45-1.35,2.44.49,2.45,1.35-.76,1.28-2,1.37v.63c1-.05,2-.13,2.88-.26l.08.62a43.63,43.63,0,0,1-6.61.39l-.1-.69C442.11,447.74,443.09,447.74,444.11,447.7Zm3.48-3.72h-6v-.67h2.57v-.9H445v.9h2.56Zm1.89,7.27h-5.86v.93h6.26v.65H442.7v-2.21h5.86v-.82h-5.88v-.66h6.8ZM443,445.68c0,.47.6.77,1.57.77s1.57-.3,1.57-.77-.61-.73-1.57-.74S443,445.22,443,445.68Zm6.49-.49H451V446h-1.56v2.7h-.93v-6.16h.93Z"/><path d="M452.28,448.89l-.46-.71a5.74,5.74,0,0,0,3.09-2.38l-3,.31-.15-.76,3.43-.22a4.89,4.89,0,0,0,.23-1.15H452.3v-.76h4.09C456.39,445.74,455.17,447.7,452.28,448.89Zm8.3,3.92h-6.89v-3.65h6.89Zm-6-.75h5.09v-2.15h-5.09Zm6-3.39h-.88v-2.73h-1.42v2.65h-.88v-5.87h.88v2.44h1.42v-2.64h.88Z"/><path d="M467,444.61h-.88v4.83c.4,0,.77-.06,1.12-.11l.06.68a31.42,31.42,0,0,1-5.21.36l-.12-.79h1.11v-5h-.88v-.76H467Zm-1.74,4.89v-4.89h-1.33v4.95C464.37,449.54,464.83,449.53,465.27,449.5Zm3.78,2.9h-.88v-5.09h-1.46v-.83h1.46v-3.72h.88Zm2,.55h-.89V442.51h.89Z"/><path d="M478.21,445.81a2.74,2.74,0,1,1-2.74-2.56A2.56,2.56,0,0,1,478.21,445.81Zm-4.57,0a1.73,1.73,0,0,0,1.83,1.76,1.76,1.76,0,1,0-1.83-1.76Zm7.8,6.92h-7.07v-3.35h.92V452h6.15Zm-.33-2.57h-.91v-7.64h.91Z"/><path d="M431.57,494.37l-.5-.76c2.82-1.33,4.26-3.34,4.47-5.83h-4V487h4.93C436.47,490,435.07,492.69,431.57,494.37Zm8,2h-.92V485.88h.92Z"/><path d="M450.89,493.42h-4.36v2.93h-.9v-2.93h-4.3v-.77h9.56Zm-.6-5.57h-8.47v-.77h3.81v-1.25h.9v1.25h3.76Zm-.8,2.35c0,1.1-1.28,1.72-3.41,1.73s-3.41-.63-3.4-1.73,1.27-1.75,3.4-1.75S449.49,489.07,449.49,490.2Zm-5.86,0c0,.64.89,1,2.45,1s2.45-.38,2.46-1-.92-1.05-2.46-1.05S443.62,489.54,443.63,490.2Z"/><path d="M452.28,492.26l-.46-.7a5.75,5.75,0,0,0,3.09-2.39l-3,.32-.15-.76,3.43-.23a4.79,4.79,0,0,0,.23-1.15H452.3v-.75h4.09C456.39,489.11,455.17,491.08,452.28,492.26Zm8.3,3.93h-6.89v-3.66h6.89Zm-6-.75h5.09v-2.15h-5.09Zm6-3.39h-.88v-2.74h-1.42V492h-.88v-5.88h.88v2.45h1.42V485.9h.88Z"/><path d="M467,488h-.88v4.83c.4,0,.77-.06,1.12-.11l.06.68a31.35,31.35,0,0,1-5.21.35L462,493h1.11v-5h-.88v-.77H467Zm-1.74,4.88V488h-1.33v4.94C464.37,492.92,464.83,492.9,465.27,492.87Zm3.78,2.91h-.88v-5.09h-1.46v-.84h1.46v-3.71h.88Zm2,.55h-.89V485.88h.89Z"/><path d="M478.21,489.19a2.74,2.74,0,1,1-2.74-2.57A2.56,2.56,0,0,1,478.21,489.19Zm-4.57,0a1.73,1.73,0,0,0,1.83,1.76,1.76,1.76,0,1,0-1.83-1.76Zm7.8,6.92h-7.07v-3.35h.92v2.57h6.15Zm-.33-2.58h-.91V485.9h.91Z"/><path d="M437.07,534.54l-.47.74a4.36,4.36,0,0,1-2.57-2.44,4.44,4.44,0,0,1-2.62,2.69l-.51-.74a3.86,3.86,0,0,0,2.65-3.59v-1.29h.9v1.32A3.69,3.69,0,0,0,437.07,534.54Zm2.51,4.94h-7v-3.24h.94v2.47h6.06Zm-.48-7h1.58v.78H439.1V537h-.91v-7.72h.91Z"/><path d="M446.62,532.74h-3.85v1.44a26.5,26.5,0,0,0,5-.33l.1.78a31.14,31.14,0,0,1-5.11.33h-.84v-3h3.83v-1.36h-3.86v-.74h4.77Zm3.33,6.82h-6.79V536H450Zm-5.89-.75h5v-2h-5Zm5.89-3.35H449v-6.19H450Z"/><path d="M452.28,535.64l-.46-.71a5.7,5.7,0,0,0,3.09-2.38l-3,.32-.15-.77,3.43-.22a4.79,4.79,0,0,0,.23-1.15H452.3V530h4.09C456.39,532.49,455.17,534.45,452.28,535.64Zm8.3,3.92h-6.89v-3.65h6.89Zm-6-.75h5.09v-2.15h-5.09Zm6-3.38h-.88v-2.74h-1.42v2.66h-.88v-5.88h.88v2.45h1.42v-2.65h.88Z"/><path d="M467,531.36h-.88v4.83c.4,0,.77-.06,1.12-.1l.06.68a32.46,32.46,0,0,1-5.21.35l-.12-.79h1.11v-5h-.88v-.76H467Zm-1.74,4.89v-4.89h-1.33v4.95C464.37,536.3,464.83,536.28,465.27,536.25Zm3.78,2.9h-.88v-5.08h-1.46v-.84h1.46v-3.71h.88Zm2,.56h-.89V529.26h.89Z"/><path d="M478.21,532.56a2.74,2.74,0,1,1-2.74-2.56A2.56,2.56,0,0,1,478.21,532.56Zm-4.57,0a1.72,1.72,0,0,0,1.83,1.76,1.76,1.76,0,1,0-1.83-1.76Zm7.8,6.92h-7.07v-3.35h.92v2.58h6.15Zm-.33-2.57h-.91v-7.64h.91Z"/><path d="M429,577.53h-9.52v-.74H429Zm-.91-4.36h-1.61v2H428v.72h-7.65v-.72h1.57v-2h-1.61v-.73h7.72Zm-.31,7.57h-6.21v1h6.52v.7h-7.43v-2.37h6.21v-.91h-6.24v-.69h7.15Zm-2.21-5.55v-2h-2.67v2Z"/><path d="M435,576.83h-3.81v2.44a24.56,24.56,0,0,0,4.88-.36l.09.76a27.85,27.85,0,0,1-5,.39h-.84v-4h3.81v-2.21h-3.83v-.76H435Zm2.92-.56h1.75v.78h-1.75v5.53H437V572.11h.91Z"/><path d="M449.78,581.14h-9.56v-.77h9.56Zm-.49-3.76-.43.77a5.77,5.77,0,0,1-3.91-3,5.78,5.78,0,0,1-3.91,3l-.42-.77c1.81-.35,3.84-1.93,3.84-3.73v-.8h1v.8C445.42,575.44,447.47,577,449.29,577.38Z"/><path d="M456.22,573.59h-4.08V575h3.79v.73h-3.79v1.44a27.39,27.39,0,0,0,4.94-.3l.09.76a28.58,28.58,0,0,1-5.11.28h-.84v-5h5Zm3,9h-.92v-2.81H452.2V579h7Zm0-4.07h-.92v-6.38h.92Z"/><path d="M461.56,578.49l-.46-.7a5.75,5.75,0,0,0,3.09-2.39l-3,.32-.15-.76,3.43-.23a4.79,4.79,0,0,0,.23-1.15h-3.16v-.75h4.09C465.67,575.34,464.45,577.31,461.56,578.49Zm8.3,3.93H463v-3.66h6.89Zm-6-.75H469v-2.15h-5.09Zm6-3.39H469v-2.74h-1.42v2.66h-.88v-5.87h.88v2.44H469v-2.64h.88Z"/><path d="M476.29,574.22h-.88v4.83c.4,0,.77-.06,1.12-.11l.06.68a31.35,31.35,0,0,1-5.21.35l-.12-.78h1.11v-5h-.88v-.77h4.8Zm-1.74,4.88v-4.88h-1.34v4.94C473.65,579.15,474.11,579.13,474.55,579.1Zm3.78,2.91h-.89v-5.09H476v-.84h1.45v-3.71h.89Zm2,.55h-.89V572.11h.89Z"/><path d="M487.49,575.42a2.74,2.74,0,1,1-2.74-2.57A2.56,2.56,0,0,1,487.49,575.42Zm-4.57,0a1.73,1.73,0,0,0,1.83,1.76,1.76,1.76,0,1,0,0-3.51A1.72,1.72,0,0,0,482.92,575.42Zm7.8,6.92h-7.07V579h.92v2.57h6.15Zm-.33-2.58h-.91v-7.63h.91Z"/><path d="M440.45,621.36h-4.31v1.24h3.14v3.33h-.93v-2.58H432v-.75h3.24v-1.24h-4.3v-.75h9.51ZM433.12,617h5.17v-1.21h.92v3.9h-7v-3.9h.91Zm5.17,1.95v-1.25h-5.17v1.25Z"/><path d="M449.63,616.72a15.6,15.6,0,0,1-.26,3.17h1.52v.77h-9.56v-.77h7.12a15.5,15.5,0,0,0,.27-3.13h-6.18V616h7.09Zm.08,9.25h-.92v-3h-6.45v-.74h7.37Z"/><path d="M452.28,621.87l-.46-.71a5.7,5.7,0,0,0,3.09-2.38l-3,.32-.15-.77,3.43-.22a4.79,4.79,0,0,0,.23-1.15H452.3v-.75h4.09C456.39,618.72,455.17,620.68,452.28,621.87Zm8.3,3.92h-6.89v-3.65h6.89Zm-6-.75h5.09v-2.15h-5.09Zm6-3.38h-.88v-2.74h-1.42v2.66h-.88V615.7h.88v2.44h1.42V615.5h.88Z"/><path d="M467,617.59h-.88v4.83c.4,0,.77-.06,1.12-.1l.06.68a32.46,32.46,0,0,1-5.21.35l-.12-.79h1.11v-5h-.88v-.76H467Zm-1.74,4.89v-4.89h-1.33v4.95C464.37,622.53,464.83,622.51,465.27,622.48Zm3.78,2.9h-.88v-5.09h-1.46v-.83h1.46v-3.71h.88Zm2,.55h-.89V615.49h.89Z"/><path d="M478.21,618.79a2.74,2.74,0,1,1-2.74-2.56A2.56,2.56,0,0,1,478.21,618.79Zm-4.57,0a1.72,1.72,0,0,0,1.83,1.76,1.76,1.76,0,1,0-1.83-1.76Zm7.8,6.92h-7.07v-3.35h.92v2.58h6.15Zm-.33-2.57h-.91V615.5h.91Z"/><path d="M328.8,407.51h-9.19v-.76h9.19Zm-1.23-6.74a27.56,27.56,0,0,1-.38,5.08l-.91-.1a24.25,24.25,0,0,0,.41-5v-.28h-6.08v-.77h7Z"/><path d="M334.79,402.38h-3.73v1.67a25.06,25.06,0,0,0,4.81-.35l.09.76a27.31,27.31,0,0,1-4.94.36h-.82v-3.17h3.7v-1.54h-3.72v-.75h4.61Zm3.49,6.45h-6.91v-3.12h.9v2.34h6ZM338,406.3h-.87v-7.68H338Z"/><path d="M345.75,400.51H344.6v5c.57,0,1.13-.09,1.67-.16l.05.69a44.29,44.29,0,0,1-6.5.4l-.1-.79h1.39v-5.16H340v-.76h5.77Zm-2,5.08v-5.08H342v5.15C342.55,405.65,343.14,405.62,343.72,405.59Zm4.35,3.46h-.89V398.61h.89Z"/><path d="M359,407.63h-9.24v-.76H359Zm-.48-3.76-.41.78a5.66,5.66,0,0,1-3.78-3,5.62,5.62,0,0,1-3.78,3l-.41-.78c1.75-.35,3.72-1.92,3.72-3.72v-.8h.93v.8C354.82,401.93,356.79,403.53,358.55,403.87Z"/><path d="M369.08,404.69h-9.24v-.75h9.24Zm-1,4.1h-7v-3h.89V408h6.14Zm-.06-6.27H361.1V399H362v2.78h6Z"/><path d="M340.74,450.33h-4.83v-6.79h4.83Zm-3.92-.75h3v-5.3h-3Zm7.09,3.4H343V442.51h.93Z"/><path d="M351.82,448l-.51.71a4.4,4.4,0,0,1-2.48-2.62,4.71,4.71,0,0,1-2.61,2.81l-.51-.74a4.13,4.13,0,0,0,2.65-3.73v-1.34h.9v1.34A4,4,0,0,0,351.82,448Zm2.76,4.71h-7v-3.22h.93V452h6.06Zm-.23-2.41h-.93V447h-2.15v-.75h2.15v-1.39h-2.15v-.76h2.15v-1.55h.93Z"/><path d="M330.15,487.88h-5.36v-.74H327V486h.92v1.17h2.21Zm-.43,2.35c0,1.07-.91,1.77-2.24,1.77s-2.24-.7-2.23-1.77.91-1.78,2.23-1.78S329.71,489.14,329.72,490.23Zm-3.65,0c0,.65.58,1.08,1.41,1.08s1.41-.43,1.41-1.08-.58-1.1-1.41-1.1S326.07,489.57,326.07,490.23Zm7.71,4.28c0,1.14-1.32,1.79-3.51,1.79s-3.52-.65-3.51-1.79,1.31-1.84,3.51-1.84S333.78,493.33,333.78,494.51Zm-6.1,0c0,.68,1,1.08,2.59,1.08s2.58-.4,2.59-1.08-1-1.12-2.59-1.11S327.67,493.79,327.68,494.51Zm6-2h-.88v-3h-1.4v2.62h-.87v-6h.87v2.65h1.4v-2.86h.88Z"/><path d="M344.77,491.79h-9.53v-.74h4.31v-1.22h-3.1v-3.45h7.13v.74h-6.23v2h6.3v.75h-3.21v1.22h4.33Zm-1.18,2.65c0,1.21-1.35,1.88-3.59,1.89s-3.61-.68-3.61-1.89,1.35-1.88,3.61-1.88S343.58,493.24,343.59,494.44Zm-6.26,0c0,.73,1,1.15,2.67,1.15s2.66-.42,2.66-1.15-1-1.15-2.66-1.15S337.32,493.72,337.33,494.44Z"/><path d="M347,488.14h3v-1.6h.92v4.82h-4.87v-4.82H347Zm3,2.47v-1.74h-3v1.74Zm3.86,3.77c0,1.23-1.29,1.94-3.44,1.95s-3.46-.72-3.46-1.95,1.31-1.93,3.46-1.93S353.88,493.16,353.88,494.38Zm-6,0c0,.75,1,1.2,2.54,1.2s2.55-.45,2.55-1.2-1-1.19-2.55-1.2S347.89,493.63,347.9,494.38Zm5.89-5.86h1.58v.78h-1.58v2.87h-.92v-6.29h.92Z"/><path d="M362.36,490.82l-.47.73a4.44,4.44,0,0,1-2.63-2.51,4.64,4.64,0,0,1-2.66,2.69l-.48-.72a4,4,0,0,0,2.65-3.61v-1h.94v1A3.73,3.73,0,0,0,362.36,490.82Zm2.28,5.51h-.92v-2.87h-6.11v-.76h7Zm0-4.15h-.92v-6.3h.92Z"/></svg>