<svg id="Layer_1" data-name="Layer 1" xmlns="http://www.w3.org/2000/svg" viewBox="0 0 960 720"><defs><style>.cls-1{fill:#0e3c60;}.cls-2{fill:#bbe5f7;}.cls-3{fill:#72cff7;}</style></defs><path class="cls-1" d="M105,187.74a1.57,1.57,0,0,1-.59-.91l-3.78-15.73a2.14,2.14,0,0,1-.07-.49,1.29,1.29,0,0,1,.3-.86,1.55,1.55,0,0,1,.88-.49l.43,0a1.36,1.36,0,0,1,.9.3,1.39,1.39,0,0,1,.48.87l2,9.27c.15.77.3,1.79.46,3.06l.13,1h.1a29.31,29.31,0,0,1,.69-4.07l2.2-8.74a1.88,1.88,0,0,1,3.64,0l2.2,8.74a30.7,30.7,0,0,1,.7,4.07h.09l.14-1c.15-1.27.3-2.29.46-3.06l2-9.27a1.39,1.39,0,0,1,.48-.87,1.36,1.36,0,0,1,.9-.3l.43,0a1.55,1.55,0,0,1,.88.49,1.29,1.29,0,0,1,.3.86,2.14,2.14,0,0,1-.07.49l-3.77,15.73a1.63,1.63,0,0,1-.6.91,1.82,1.82,0,0,1-1.08.33,1.92,1.92,0,0,1-1.14-.33,1.51,1.51,0,0,1-.61-.91l-2.28-9.32c-.44-1.84-.73-3.09-.85-3.75-.23,1.15-.51,2.4-.85,3.75l-2.28,9.32a1.51,1.51,0,0,1-.61.91,1.92,1.92,0,0,1-1.14.33A1.82,1.82,0,0,1,105,187.74Z"/><path class="cls-1" d="M124.81,188.07a1.52,1.52,0,0,1-1.08-.37,1.26,1.26,0,0,1-.42-1V170.18a1.3,1.3,0,0,1,.42-1,1.57,1.57,0,0,1,1.08-.36h.11a1.61,1.61,0,0,1,1.09.36,1.33,1.33,0,0,1,.41,1V176a5.42,5.42,0,0,1,7.49.36,7,7,0,0,1,1.46,4.73v5.61a1.26,1.26,0,0,1-.42,1,1.52,1.52,0,0,1-1.08.37h-.11a1.52,1.52,0,0,1-1.08-.37,1.26,1.26,0,0,1-.42-1v-5.22a5.27,5.27,0,0,0-.72-3,2.44,2.44,0,0,0-2.11-1,2.78,2.78,0,0,0-2.09.85,3.56,3.56,0,0,0-.92,2.35v6.07a1.29,1.29,0,0,1-.41,1,1.57,1.57,0,0,1-1.09.37Z"/><path class="cls-1" d="M140.93,187.29a6.13,6.13,0,0,1-2.23-2.42,7.93,7.93,0,0,1,0-6.94,6,6,0,0,1,2.23-2.41,6.16,6.16,0,0,1,3.22-.86,5.24,5.24,0,0,1,3.75,1.47v-.2a1,1,0,0,1,.43-.82,1.69,1.69,0,0,1,1.07-.33h.11a1.57,1.57,0,0,1,1.08.36,1.3,1.3,0,0,1,.42,1v10.53a1.26,1.26,0,0,1-.42,1,1.52,1.52,0,0,1-1.08.37h-.11a1.69,1.69,0,0,1-1.07-.33,1,1,0,0,1-.43-.82v-.23a5.24,5.24,0,0,1-3.75,1.47A6.07,6.07,0,0,1,140.93,187.29Zm.52-3.83a3.56,3.56,0,0,0,1.23,1.42,3.27,3.27,0,0,0,3.54,0,3.56,3.56,0,0,0,1.23-1.42,4.56,4.56,0,0,0,.45-2,4.62,4.62,0,0,0-.45-2.06,3.56,3.56,0,0,0-1.23-1.42,3.27,3.27,0,0,0-3.54,0,3.56,3.56,0,0,0-1.23,1.42,4.62,4.62,0,0,0-.45,2.06A4.56,4.56,0,0,0,141.45,183.46Z"/><path class="cls-1" d="M157.42,186.86a5.7,5.7,0,0,1-1.19-4v-5.31h-1.52a1.68,1.68,0,0,1-1.16-.37,1.24,1.24,0,0,1-.43-1,1.32,1.32,0,0,1,.44-1,1.69,1.69,0,0,1,1.15-.37h1.52v-4.14a1.45,1.45,0,0,1,1.54-1.55,1.45,1.45,0,0,1,1.56,1.55v4.14h3.31a1.69,1.69,0,0,1,1.15.37,1.32,1.32,0,0,1,.44,1,1.26,1.26,0,0,1-.42,1,1.73,1.73,0,0,1-1.17.37h-3.31v5.31c0,1.69.52,2.53,1.57,2.53a2.59,2.59,0,0,0,.95-.17,3.48,3.48,0,0,0,.91-.59,1.3,1.3,0,0,1,.85-.3,1.5,1.5,0,0,1,1.45,1.41,1.45,1.45,0,0,1-.48,1,5.07,5.07,0,0,1-3.71,1.38A4.45,4.45,0,0,1,157.42,186.86Z"/><path class="cls-1" d="M175.51,187.3a6,6,0,0,1-2.3-2.39,7.3,7.3,0,0,1-.81-3.46,7.11,7.11,0,0,1,.85-3.52,6.16,6.16,0,0,1,2.34-2.41,6.67,6.67,0,0,1,3.36-.86,7.42,7.42,0,0,1,2.38.38,5.12,5.12,0,0,1,1.85,1.05,1.11,1.11,0,0,1,.39.87,1.49,1.49,0,0,1-.39,1,1.3,1.3,0,0,1-1,.46,1.75,1.75,0,0,1-.72-.19,7.53,7.53,0,0,0-1.28-.62,3.83,3.83,0,0,0-1.18-.16,3.25,3.25,0,0,0-2.52,1.05,5,5,0,0,0,0,5.91,3.22,3.22,0,0,0,2.5,1.07,4.46,4.46,0,0,0,1.38-.2,4.61,4.61,0,0,0,1.29-.7,1.64,1.64,0,0,1,.94-.3,1.34,1.34,0,0,1,1,.39,1.33,1.33,0,0,1,.42,1,1.46,1.46,0,0,1-.55,1.1,5.39,5.39,0,0,1-1.94,1,8,8,0,0,1-2.55.4A6.78,6.78,0,0,1,175.51,187.3Z"/><path class="cls-1" d="M189,187.29a6.4,6.4,0,0,1-2.43-2.44,6.81,6.81,0,0,1-.88-3.45,6.88,6.88,0,0,1,.88-3.49,6.29,6.29,0,0,1,2.41-2.39,7.53,7.53,0,0,1,7,0,6.31,6.31,0,0,1,2.42,2.39,7.39,7.39,0,0,1,0,7,6.54,6.54,0,0,1-2.45,2.42,7,7,0,0,1-3.46.87A7,7,0,0,1,189,187.29Zm.27-3.83a3.65,3.65,0,0,0,5.1,1.42,3.62,3.62,0,0,0,1.32-1.42,4.44,4.44,0,0,0,.47-2,4.33,4.33,0,0,0-.49-2.09,3.49,3.49,0,0,0-1.32-1.42,3.83,3.83,0,0,0-3.75,0,3.49,3.49,0,0,0-1.32,1.42,4.44,4.44,0,0,0-.48,2.09A4.32,4.32,0,0,0,189.29,183.46Z"/><path class="cls-1" d="M203.4,188.07a1.52,1.52,0,0,1-1.08-.37,1.26,1.26,0,0,1-.42-1V176.16a1.3,1.3,0,0,1,.42-1,1.57,1.57,0,0,1,1.08-.36h.11a1.69,1.69,0,0,1,1.07.33,1,1,0,0,1,.43.82V176a5.42,5.42,0,0,1,7.49.36,7,7,0,0,1,1.46,4.73v5.61a1.26,1.26,0,0,1-.42,1,1.52,1.52,0,0,1-1.08.37h-.11a1.57,1.57,0,0,1-1.09-.37,1.29,1.29,0,0,1-.41-1v-5.22a5.27,5.27,0,0,0-.72-3,2.44,2.44,0,0,0-2.11-1,2.78,2.78,0,0,0-2.09.85,3.56,3.56,0,0,0-.92,2.35v6.07a1.26,1.26,0,0,1-.42,1,1.52,1.52,0,0,1-1.08.37Z"/><path class="cls-1" d="M219.6,187.3a6,6,0,0,1-2.3-2.39,7.3,7.3,0,0,1-.81-3.46,7.11,7.11,0,0,1,.85-3.52,6.16,6.16,0,0,1,2.34-2.41,6.67,6.67,0,0,1,3.36-.86,7.42,7.42,0,0,1,2.38.38,5.12,5.12,0,0,1,1.85,1.05,1.11,1.11,0,0,1,.39.87,1.49,1.49,0,0,1-.39,1,1.3,1.3,0,0,1-1,.46,1.75,1.75,0,0,1-.72-.19,7.53,7.53,0,0,0-1.28-.62,3.83,3.83,0,0,0-1.18-.16,3.25,3.25,0,0,0-2.52,1.05,5,5,0,0,0,0,5.91,3.22,3.22,0,0,0,2.5,1.07,4.46,4.46,0,0,0,1.38-.2,4.61,4.61,0,0,0,1.29-.7,1.64,1.64,0,0,1,.94-.3,1.34,1.34,0,0,1,1,.39,1.33,1.33,0,0,1,.42,1,1.46,1.46,0,0,1-.55,1.1,5.39,5.39,0,0,1-1.94,1,8,8,0,0,1-2.55.4A6.78,6.78,0,0,1,219.6,187.3Z"/><path class="cls-1" d="M232.92,187.3a6,6,0,0,1-2.3-2.39,7.19,7.19,0,0,1-.82-3.46,7.3,7.3,0,0,1,.83-3.5,6,6,0,0,1,2.24-2.43,6.22,6.22,0,0,1,3.23-.86,6.4,6.4,0,0,1,3,.71,5.84,5.84,0,0,1,2.18,2,6.8,6.8,0,0,1,1,3.05,2,2,0,0,1-.46,1.63,2.25,2.25,0,0,1-1.68.57h-7.1a3.43,3.43,0,0,0,1.17,2.05,3.31,3.31,0,0,0,2.16.74,4.46,4.46,0,0,0,1.38-.2,4.61,4.61,0,0,0,1.29-.7,1.62,1.62,0,0,1,.94-.3,1.34,1.34,0,0,1,1,.39,1.32,1.32,0,0,1,.41,1,1.42,1.42,0,0,1-.55,1.1,5.34,5.34,0,0,1-1.93,1,8,8,0,0,1-2.55.4A6.76,6.76,0,0,1,232.92,187.3Zm6.11-7.17a3.31,3.31,0,0,0-1-2,2.69,2.69,0,0,0-1.92-.73,2.8,2.8,0,0,0-1.92.74,3.9,3.9,0,0,0-1.13,2Z"/><path class="cls-1" d="M246.29,192.67a1.56,1.56,0,0,1-1.08-.37,1.29,1.29,0,0,1-.41-1V176.16a1.33,1.33,0,0,1,.41-1,1.6,1.6,0,0,1,1.08-.36h.12a1.71,1.71,0,0,1,1.07.33,1,1,0,0,1,.42.82v.2a5.24,5.24,0,0,1,3.75-1.47,6.13,6.13,0,0,1,3.22.86,6,6,0,0,1,2.23,2.41,7.84,7.84,0,0,1,0,6.94,6,6,0,0,1-5.45,3.29,5.24,5.24,0,0,1-3.75-1.47v4.6a1.26,1.26,0,0,1-.41,1,1.56,1.56,0,0,1-1.08.37Zm2.06-9.21a3.56,3.56,0,0,0,1.23,1.42,3.27,3.27,0,0,0,3.54,0,3.41,3.41,0,0,0,1.23-1.42,4.56,4.56,0,0,0,.45-2,4.62,4.62,0,0,0-.45-2.06,3.41,3.41,0,0,0-1.23-1.42,3.27,3.27,0,0,0-3.54,0,3.56,3.56,0,0,0-1.23,1.42,4.62,4.62,0,0,0-.45,2.06A4.56,4.56,0,0,0,248.35,183.46Z"/><path class="cls-1" d="M264.05,186.86a5.7,5.7,0,0,1-1.2-4v-5.31h-1.52a1.7,1.7,0,0,1-1.16-.37,1.26,1.26,0,0,1-.42-1,1.28,1.28,0,0,1,.44-1,1.68,1.68,0,0,1,1.14-.37h1.52v-4.14a1.52,1.52,0,0,1,.42-1.12,1.5,1.5,0,0,1,1.12-.43,1.46,1.46,0,0,1,1.57,1.55v4.14h3.31a1.69,1.69,0,0,1,1.15.37,1.32,1.32,0,0,1,.44,1,1.24,1.24,0,0,1-.43,1,1.68,1.68,0,0,1-1.16.37H266v5.31c0,1.69.52,2.53,1.56,2.53a2.69,2.69,0,0,0,1-.17,3.65,3.65,0,0,0,.91-.59,1.28,1.28,0,0,1,.85-.3,1.36,1.36,0,0,1,1.08.51,1.41,1.41,0,0,1,.37.9,1.47,1.47,0,0,1-.49,1,5,5,0,0,1-3.7,1.38A4.45,4.45,0,0,1,264.05,186.86Z"/><path class="cls-1" d="M276.79,182.65a1.57,1.57,0,0,1-.41-1.11l-.07-2a1.52,1.52,0,0,1,.25-.91,2,2,0,0,1,.76-.68,10.68,10.68,0,0,0,2.71-1.79,2.75,2.75,0,0,0,.85-2,2.31,2.31,0,0,0-.67-1.74,2.39,2.39,0,0,0-1.72-.66,3.28,3.28,0,0,0-2.64,1.36,1.65,1.65,0,0,1-1.31.69,1.7,1.7,0,0,1-.79-.21,1.32,1.32,0,0,1-.52-.53,1.23,1.23,0,0,1-.19-.66,1.43,1.43,0,0,1,.23-.76,5.21,5.21,0,0,1,2.11-1.94,6.58,6.58,0,0,1,3.11-.71,6,6,0,0,1,2.87.68,4.88,4.88,0,0,1,1.94,1.88,5.18,5.18,0,0,1,.69,2.64,5,5,0,0,1-1.21,3.32,10.69,10.69,0,0,1-3.46,2.62l-.07,1.47a1.74,1.74,0,0,1-.42,1.1,1.3,1.3,0,0,1-1,.42A1.39,1.39,0,0,1,276.79,182.65Zm-.32,2.89a2,2,0,0,1,2.71,0,1.7,1.7,0,0,1,.55,1.29,1.73,1.73,0,0,1-.55,1.29,2,2,0,0,1-2.71,0,1.73,1.73,0,0,1-.55-1.29A1.7,1.7,0,0,1,276.47,185.54Z"/><path d="M111.46,216.94H101.1v-.85h4.65v-2.6H102v-.8h1.77V209H102v-.82h8.45V209h-1.8v3.71h1.77v.8h-3.71v2.6h4.73Zm-3.77-4.25V209H104.8v3.71Z"/><path d="M122.72,216.87H112.36V216h10.36Zm-1.19-2.9H113.7V208h7.7v.84h-6.68v1.67h6.44v.8h-6.44v1.82h6.81Z"/><path d="M133,208.13h-1.75v2.21h1.71v.76h-3.65v1.11h4.67v.8H123.63v-.8h4.64V211.1h-3.64v-.76h1.71v-2.21H124.6v-.77H133Zm-.35,8.2h-6.72v1.12H133v.76H124.9v-2.6h6.73v-1h-6.75v-.73h7.73Zm-2.39-6v-2.21h-2.89v2.21Z"/><path d="M140.8,212.12h-4.23v2.66a33.86,33.86,0,0,0,5.58-.4l.1.83a34.82,34.82,0,0,1-5.75.41h-.94V211.3h4.23v-2.37h-4.26v-.82h5.27Zm3.43,6.24h-1V207.05h1Z"/><path d="M155.45,210.75c0,1.68-1.5,2.8-3.65,2.93v2.37h4.72v.84H146.16v-.84h4.66v-2.37c-2.15-.14-3.64-1.26-3.64-2.93s1.73-2.95,4.13-3S155.45,209,155.45,210.75Zm-7.31,0c0,1.3,1.34,2.14,3.17,2.15s3.17-.85,3.17-2.15-1.33-2.14-3.17-2.14S148.14,209.48,148.14,210.75Z"/><path d="M167.77,213.08H157.41v-.79h10.36Zm-1.3,3.3h-6.79v1.08h7.16v.73h-8.17V215.7h6.81v-1h-6.82V214h7.81Zm0-6.65h-6.68v1h6.89v.72h-7.88V209h6.67v-.92h-6.71v-.73h7.71Z"/><path d="M182.27,213.86H172V213h4.65v-1.11h-3.28v-4.55H181v.81h-6.65v1.06h6.35V210h-6.35v1.12h6.72v.8H177.6V213h4.67ZM181,216.51c0,1.18-1.42,1.8-3.9,1.8s-3.9-.62-3.9-1.8,1.4-1.82,3.9-1.8S181,215.33,181,216.51Zm-6.8,0c0,.69,1,1,2.9,1s2.89-.34,2.89-1-1-1-2.89-1S174.2,215.84,174.21,216.51Z"/><path d="M188.87,209.82H183.2V209h2.35v-1.62h1V209h2.32Zm-.38,3.33a2.44,2.44,0,1,1-4.88,0,2.44,2.44,0,1,1,4.88,0Zm-4,0a1.56,1.56,0,1,0,3.1,0,1.56,1.56,0,1,0-3.1,0Zm8.36,5.19h-1v-5.7h-1.5v5.14h-.94V207.33h.94v4.48h1.5v-4.76h1Z"/><path d="M204.68,215.08l-.6.8a6,6,0,0,1-2.88-3.57,6.55,6.55,0,0,1-2.93,3.79l-.61-.77a5.88,5.88,0,0,0,3-4.93V209h-2.58v-.82h6.18V209h-2.59v1.36A5.53,5.53,0,0,0,204.68,215.08Zm2.46,3.28h-1V212h-2.48v-.82h2.48v-4.12h1Z"/><path d="M216.56,214.64l.07.74a41.44,41.44,0,0,1-7.4.5l-.14-.86A53.59,53.59,0,0,0,216.56,214.64Zm-.79-4.11a2.74,2.74,0,0,1-3,2.65c-1.78,0-3.07-1.08-3.06-2.65s1.28-2.65,3.06-2.65A2.74,2.74,0,0,1,215.77,210.53Zm-5.12,0a2.09,2.09,0,1,0,2.08-1.78A1.86,1.86,0,0,0,210.65,210.53Zm7.65,7.83h-1V207.05h1Z"/><path d="M229.3,208.77h-4.21v1.6h4v.82h-4v1.69a27.27,27.27,0,0,0,4.95-.33l.11.8a26.35,26.35,0,0,1-5.2.34h-.86V208h5.21Zm3.63,9.33h-7.6v-3.44h1v2.6h6.62Zm-.53-7.53h1.71v.84H232.4v4h-1v-8.36h1Z"/><path d="M240.56,208.77h-4.21v1.6h4v.82h-4v1.69a27.13,27.13,0,0,0,5-.33l.12.8a26.52,26.52,0,0,1-5.21.34h-.85V208h5.2Zm3.63,9.33h-7.6v-3.44h1v2.6h6.62Zm-.52-7.53h1.7v.84h-1.7v4h-1v-8.36h1Z"/><path d="M252.86,209.26h-6.75v-.81H249v-1.39h1v1.39h2.88Zm-.65,2.73c0,1.27-1.11,2.08-2.72,2.08s-2.74-.81-2.73-2.08,1.1-2.11,2.73-2.11S252.2,210.71,252.21,212Zm-4.49,0c0,.8.7,1.31,1.77,1.3s1.77-.5,1.78-1.3-.73-1.32-1.78-1.32S247.71,211.19,247.72,212Zm7.74,6.11h-7.6v-3.25h1v2.41h6.62Zm-.53-7.32h1.71v.84h-1.71v3.9h-1v-8.46h1Z"/><path d="M261.31,216.22l-.55-.81c3.07-1.45,4.62-3.62,4.85-6.31h-4.32v-.82h5.34C266.62,211.53,265.1,214.4,261.31,216.22Zm8.67,2.12h-1V207.05h1Z"/><path d="M274.26,208.94h5.6v-1.43h1V212h-3.31v1.2h4.66v.83H271.89v-.83h4.66V212h-3.29v-4.51h1Zm6.79,9.16h-7.82V215h1v2.31h6.82Zm-1.19-6.88v-1.49h-5.6v1.49Z"/><path d="M283.84,216.22l-.55-.81c3.06-1.45,4.62-3.62,4.85-6.31h-4.32v-.82h5.34C289.15,211.53,287.63,214.4,283.84,216.22Zm8.67,2.12h-1V207.05h1Z"/><path d="M300.85,210.44a2.64,2.64,0,0,1-2.51,2.6V215c1.05-.05,2.12-.12,3.1-.25l.07.75a42.32,42.32,0,0,1-7.07.42l-.16-.84c.91,0,2,0,3.05-.05v-2a2.6,2.6,0,0,1-2.52-2.6c0-1.57,1.25-2.64,3-2.65A2.76,2.76,0,0,1,300.85,210.44Zm-5.06,0a1.85,1.85,0,0,0,2,1.79,1.81,1.81,0,1,0-2-1.79Zm7.37,1.27H305v.86h-1.85v5.77h-1V207.05h1Z"/><path d="M319.3,214.44h-4.72v3.9h-1v-3.9h-4.66v-.82H319.3ZM318,212.08h-7.67v-4.39H318Zm-6.69-.79H317V208.5h-5.7Z"/><path d="M327,209.26h-6.75v-.81h2.88v-1.39h1v1.39H327Zm-.65,2.73c0,1.27-1.11,2.08-2.72,2.08s-2.74-.81-2.73-2.08,1.1-2.11,2.73-2.11S326.33,210.71,326.34,212Zm-4.49,0c0,.8.7,1.31,1.77,1.3s1.77-.5,1.78-1.3-.73-1.32-1.78-1.32S321.83,211.19,321.85,212Zm7.73,6.11H322v-3.25h1v2.41h6.61Zm-.52-7.32h1.71v.84h-1.71v3.9h-1v-8.46h1Z"/><path d="M338.25,209.26h-6.74v-.81h2.87v-1.39h1v1.39h2.87ZM337.6,212c0,1.27-1.1,2.08-2.72,2.08s-2.73-.81-2.72-2.08,1.09-2.11,2.72-2.11S337.59,210.71,337.6,212Zm-4.49,0c0,.8.7,1.31,1.77,1.3s1.77-.5,1.78-1.3-.72-1.32-1.78-1.32S333.1,211.19,333.11,212Zm7.74,6.11h-7.6v-3.25h1v2.41h6.62Zm-.52-7.32H342v.84h-1.7v3.9h-1v-8.46h1Z"/><path d="M352.71,212.42l-.56.78a4.69,4.69,0,0,1-2.71-2.58,4.88,4.88,0,0,1-2.89,2.92l-.54-.81a4.15,4.15,0,0,0,2.91-3.86V207.7h1v1.13A3.89,3.89,0,0,0,352.71,212.42Zm2.73,3.79c0,1.34-1.44,2.1-3.8,2.1s-3.79-.76-3.79-2.1,1.44-2.14,3.79-2.14S355.44,214.85,355.44,216.21Zm-6.6,0c0,.81,1.07,1.3,2.8,1.3s2.8-.49,2.8-1.3-1.07-1.35-2.8-1.35S348.83,215.37,348.84,216.21Zm6.56-2.47h-1V210.3h-2.52v-.82h2.52v-2.43h1Z"/><path d="M363.89,212.54l-.47.78a4.44,4.44,0,0,1-2.78-2.46,4.73,4.73,0,0,1-2.89,2.79l-.5-.8a4,4,0,0,0,2.88-3.65v-.49h-2.58v-.82h6.11v.82h-2.55v.49A3.7,3.7,0,0,0,363.89,212.54Zm2.34,3.69c0,1.32-1.4,2.08-3.73,2.08s-3.75-.76-3.75-2.08,1.42-2.06,3.75-2.06S366.23,214.94,366.23,216.23Zm-6.48,0c0,.81,1.05,1.28,2.75,1.28s2.76-.47,2.76-1.28-1-1.26-2.76-1.26S359.74,215.44,359.75,216.23Zm6.38-6.3h1.7v.84h-1.7v3.1h-1v-6.82h1Z"/><path d="M369.18,216.19l-.56-.78c2.93-1.46,4.52-3.63,4.75-6.3h-4.22v-.84h5.23A8.45,8.45,0,0,1,369.18,216.19Zm8.12-4.54h1.84v.84H377.3v5.85h-1V207.05h1Z"/><path d="M390.13,213.18H379.81v-.82h10.32Zm-1.27,3.06c0,1.31-1.46,2-3.89,2s-3.91-.74-3.91-2,1.46-2,3.91-2S388.85,214.94,388.86,216.24ZM389,211h-7.72v-3.76h1v2.93H389Zm-6.87,5.2c0,.79,1.07,1.27,2.89,1.27s2.89-.48,2.89-1.27S386.76,215,385,215,382.07,215.44,382.08,216.24Z"/><path d="M397.77,212.42l-.56.78a4.63,4.63,0,0,1-2.71-2.58,4.91,4.91,0,0,1-2.89,2.92l-.55-.81a4.15,4.15,0,0,0,2.92-3.86V207.7h1v1.13A3.87,3.87,0,0,0,397.77,212.42Zm2.73,3.79c0,1.34-1.44,2.1-3.8,2.1s-3.79-.76-3.79-2.1,1.44-2.14,3.79-2.14S400.5,214.85,400.5,216.21Zm-6.6,0c0,.81,1.07,1.3,2.8,1.3s2.8-.49,2.8-1.3-1.07-1.35-2.8-1.35S393.89,215.37,393.9,216.21Zm6.56-2.47h-1V210.3h-2.52v-.82h2.52v-2.43h1Z"/><path d="M412.65,212.75H402.34v-.81h10.31Zm-1.16-3.55c0,1.28-1.47,2-4,2s-4-.7-4-2,1.49-1.95,4-1.95S411.49,207.94,411.49,209.2Zm-.16,7.06h-6.72v1.16h7.06v.79h-8.05v-2.69h6.73v-1h-6.76v-.76h7.74Zm-6.8-7.06c0,.78,1.08,1.22,3,1.22s3-.44,3-1.22-1.1-1.2-3-1.2S404.52,208.46,404.53,209.2Z"/><path d="M427.24,216.89H416.88v-.82h4.66v-2.44H418.1v-5.78h1v2.05H425v-2.05h1v5.78h-3.44v2.44h4.72ZM425,212.82v-2.11H419.1v2.11Z"/><path d="M433.55,209.58h3v-2.53h1v11.31h-1V214h-2.9a2.63,2.63,0,0,1-2.45,1.81c-1.66,0-2.83-1.53-2.83-3.93s1.17-3.92,2.83-3.93A2.6,2.6,0,0,1,433.55,209.58Zm-4.25,2.28c0,1.84.76,3,1.88,3s1.89-1.2,1.89-3-.78-3-1.89-3S429.3,210,429.3,211.86Zm4.71,0a6.58,6.58,0,0,1-.13,1.3h2.65v-2.74h-2.69A5.86,5.86,0,0,1,434,211.86Z"/><path d="M449.77,216.8H439.41V216h10.36Zm-1.23-3.49h-7.81v-5.2h7.7v.82h-6.71v3.56h6.82Z"/><path d="M456.58,212.12h-4.23v2.66a33.86,33.86,0,0,0,5.58-.4l.1.83a34.82,34.82,0,0,1-5.75.41h-.95V211.3h4.24v-2.37h-4.26v-.82h5.27Zm3.43,6.24h-1V207.05h1Z"/><path d="M472.24,216.74h-10.3v-.83h4v-4h1v4h5.28ZM471,209.32a27.36,27.36,0,0,1-.42,5.21l-1-.11a23.93,23.93,0,0,0,.43-5.1V209h-7v-.83h8Z"/><path d="M483.37,212.1l-.48.79a4.68,4.68,0,0,1-2.9-2.61,4.85,4.85,0,0,1-2.93,2.81l-.51-.78a4.12,4.12,0,0,0,2.91-3.72v-1.11h1v1.11A3.89,3.89,0,0,0,483.37,212.1Zm2.52,2.72h-1.57v2.55H486v.82h-7.82v-.82h1.69v-2.55h-1.59V214h7.61Zm-2.56,2.55v-2.55h-2.48v2.55Zm2.48-4h-1v-6.28h1Z"/><path d="M493.73,209.9h2.38v-2.85h1v6.45h-1v-2.78h-2.37a2.73,2.73,0,0,1-2.88,2.26,2.65,2.65,0,1,1,0-5.28A2.75,2.75,0,0,1,493.73,209.9Zm-.48,7.41a3.39,3.39,0,0,0,1.64-2.69v-.69h1v.69a3.12,3.12,0,0,0,2.32,2.83l-.53.75a3.8,3.8,0,0,1-2.29-2.16,3.93,3.93,0,0,1-2.11,2.25,3.64,3.64,0,0,1-2.13-2.2,4,4,0,0,1-2.26,2.11l-.5-.75a3.3,3.3,0,0,0,2.31-2.83v-.69h.95v.69A3.12,3.12,0,0,0,493.25,217.31Zm-4.35-7a2,2,0,0,0,3.9,0,2,2,0,0,0-3.9,0Z"/><path d="M509.31,213H499v-.82h10.31Zm-.59-2.42-.36.8a5.83,5.83,0,0,1-4.19-2.43,5.9,5.9,0,0,1-4.2,2.43l-.38-.8c2-.27,4.06-1.46,4.06-2.9v-.53h1v.53C504.68,209.11,506.74,210.35,508.72,210.61Zm-7.41,4.54H507v-1.32h1v4.36h-7.65v-4.36h1Zm5.65,2.24v-1.45h-5.65v1.45Z"/><path d="M512,214.57a26.56,26.56,0,0,0,5.41-.55l.14.85a26.66,26.66,0,0,1-5.61.56H511v-7.26h1Zm7.61,3.77h-1V207.05h1Z"/><path d="M527.31,209H523v5.71a26.65,26.65,0,0,0,5.18-.4l.13.86a28.35,28.35,0,0,1-5.41.38H522v-7.37h5.28Zm3,2.54h1.89v.84h-1.89v6h-1V207.05h1Z"/><path d="M533.18,216.56a.81.81,0,0,1,.81-.81.82.82,0,1,1-.81.81Z"/><path d="M107.69,233.18l-.58.77a5.48,5.48,0,0,1-2.7-3.3,5.81,5.81,0,0,1-2.84,3.5l-.57-.77a5.34,5.34,0,0,0,2.9-4.65v-.9h-2.6V227h2.59v-1.75h1V227h2.55v.81h-2.57v.9A5.15,5.15,0,0,0,107.69,233.18Zm2.17-3.49h1.89v.85h-1.89v5.8h-1V225.05h1Z"/><path d="M122.71,231.84H118.1v2.21h-1v-2.21h-4.76V231h10.36Zm-1.16,4.26h-7.87V233h1v2.25h6.88Zm-6.82-9.23h5.6v-1.45h1v4.51h-7.58v-4.51h1Zm5.6,2.24v-1.48h-5.6v1.48Z"/><path d="M130.3,227.69h-6.73v-.82h2.91v-1.68h1v1.68h2.83Zm-.54,3.53a2.78,2.78,0,1,1-2.77-2.59A2.59,2.59,0,0,1,129.76,231.22Zm-4.59,0A1.7,1.7,0,0,0,127,233a1.72,1.72,0,0,0,1.82-1.74,1.74,1.74,0,0,0-1.82-1.75A1.72,1.72,0,0,0,125.17,231.22Zm7.21-1.51h1.9v.83h-1.9v5.8h-1V225.05h1Z"/><path d="M145.2,234.74H134.89v-.83h4.05v-4h1v4h5.28ZM144,227.32a27.36,27.36,0,0,1-.42,5.21l-1-.11a23.93,23.93,0,0,0,.43-5.1V227h-7v-.83h8Z"/><path d="M156.47,230.54l-.47.78a4.58,4.58,0,0,1-2.93-2.4,4.7,4.7,0,0,1-2.93,2.64l-.48-.77a3.85,3.85,0,0,0,2.89-3.44v-.15h-2.61v-.8h2.61V225h1v1.4h2.59v.8h-2.6v.15A3.65,3.65,0,0,0,156.47,230.54Zm2.3,5.65h-7.35v-3.86h7.35Zm-6.37-.82h5.39v-2.23H152.4Zm6.37-3.62h-1v-6.69h1Z"/><path d="M167.36,230.7l-.48.79a4.46,4.46,0,0,1-2.8-2.39,4.6,4.6,0,0,1-2.86,2.6l-.51-.78a3.75,3.75,0,0,0,2.86-3.41v-.25H161v-.8h2.56V225h1v1.45h2.53v.8h-2.56v.25A3.59,3.59,0,0,0,167.36,230.7Zm2.18,5.66h-1v-3h-6.42v-.82h7.41Zm0-8.29h1.7v.85h-1.7v3h-1v-6.9h1Z"/><path d="M178.73,227.26H172v-.81h2.88v-1.39h1v1.39h2.88Zm-.65,2.73c0,1.27-1.11,2.08-2.72,2.08s-2.74-.81-2.73-2.08,1.1-2.11,2.73-2.11S178.07,228.71,178.08,230Zm-4.49,0c0,.8.7,1.31,1.77,1.3s1.77-.5,1.78-1.3-.73-1.32-1.78-1.32S173.58,229.19,173.59,230Zm7.74,6.11h-7.6v-3.25h1v2.41h6.62Zm-.53-7.32h1.71v.84H180.8v3.9h-1v-8.46h1Z"/><path d="M193.19,230.42l-.56.78a4.63,4.63,0,0,1-2.71-2.58,4.91,4.91,0,0,1-2.89,2.92l-.55-.81a4.16,4.16,0,0,0,2.92-3.86V225.7h1v1.13A3.87,3.87,0,0,0,193.19,230.42Zm2.72,3.79c0,1.34-1.44,2.1-3.79,2.1s-3.79-.76-3.79-2.1,1.44-2.14,3.79-2.14S195.91,232.85,195.91,234.21Zm-6.59,0c0,.81,1.07,1.3,2.8,1.3s2.8-.49,2.8-1.3-1.07-1.35-2.8-1.35S189.31,233.37,189.32,234.21Zm6.55-2.47h-1V228.3h-2.52v-.82h2.52v-2.43h1Z"/><path d="M203.59,227.08h2.54v-2h1v6.73h-1v-1.5h-3v-.82h3v-1.56h-2.81c-.77,1.78-2.54,3.06-5,3.73l-.39-.8c2.76-.76,4.51-2.28,4.72-4.2h-4.15v-.81h5.22A5.7,5.7,0,0,1,203.59,227.08Zm3.55,9.25h-1v-3.24h-6.6v-.8h7.61Z"/><path d="M209.89,237.91H209l.7-3.45h1.23Z"/><path d="M222.3,230.84l-.56.78a4.87,4.87,0,0,1-2.71-2.71,4.94,4.94,0,0,1-2.85,3l-.53-.81a4.29,4.29,0,0,0,2.87-3.93v-1.4h1v1.43A4.07,4.07,0,0,0,222.3,230.84Zm3,5.26H217.7v-3.55h1v2.71h6.57Zm-.25-2.58h-1v-5h-2.52v-.84H224v-2.66h1Z"/><path d="M233.57,227.69h-6.73v-.82h2.91v-1.68h1v1.68h2.83Zm-.54,3.53a2.59,2.59,0,0,1-2.77,2.59,2.6,2.6,0,1,1,0-5.18A2.59,2.59,0,0,1,233,231.22Zm-4.59,0a1.7,1.7,0,0,0,1.82,1.74,1.72,1.72,0,0,0,1.82-1.74,1.74,1.74,0,0,0-1.82-1.75A1.72,1.72,0,0,0,228.44,231.22Zm7.22-1.51h1.89v.83h-1.89v5.8h-1V225.05h1Z"/><path d="M248.47,234.74h-10.3v-.83h4v-4h1v4h5.28Zm-1.23-7.42a27.36,27.36,0,0,1-.42,5.21l-1-.11a23.93,23.93,0,0,0,.43-5.1V227h-7v-.83h8Z"/><path d="M254.16,227.26h3.3V225.6h1v5h-5.26v-5h1Zm3.4,7h-2.71v1.18a17.25,17.25,0,0,0,3.46-.25l.12.76a18.24,18.24,0,0,1-3.88.25h-.67v-2.68h2.72v-1.05h-2.74v-.78h3.7Zm-.1-4.51V228h-3.3v1.74Zm4.09,6.54h-1v-3.8h-2.49v-.8h3.49Zm0-8.76h1.7v.85h-1.7v2.69h-1v-6h1Z"/><path d="M274.27,231.82H264V231h10.3Zm-1.15-4.13c0,1.41-1.57,2.25-4,2.25s-4-.84-4-2.25,1.55-2.24,4-2.23S273.12,226.28,273.12,227.69Zm0,8.41H265.3v-3.29h1v2.45h6.82Zm-7-8.41c0,.89,1.16,1.44,3,1.44s3-.55,3-1.44-1.17-1.43-3-1.43S266.13,226.8,266.14,227.69Z"/><path d="M284.7,229.86c0,2.4-1.21,3.93-2.89,3.93s-2.89-1.53-2.89-3.93,1.2-3.92,2.89-3.93S284.7,227.46,284.7,229.86Zm-4.81,0c0,1.84.79,3,1.92,3s1.92-1.2,1.92-3-.79-3-1.92-3S279.89,228,279.89,229.86Zm7.94,6.5h-1V225.05h1Z"/><path d="M295.66,233.51h-5.23v-7.34h5.23Zm-4.25-.82h3.27V227h-3.27Zm7.68,3.67h-1V225.05h1Z"/><path d="M308.14,233.1l-.56.79a6,6,0,0,1-3-3.47,6.44,6.44,0,0,1-3,3.75l-.6-.79a5.87,5.87,0,0,0,3-4.86V227H301.4v-.82h6.38V227h-2.7v1.48A5.34,5.34,0,0,0,308.14,233.1Zm2.22,3.24h-1V225.05h1Z"/><path d="M322.64,231.08H312.28v-.79h10.36Zm-1.3,3.3h-6.79v1.08h7.16v.73h-8.17V233.7h6.81v-1h-6.82V232h7.81Zm0-6.65h-6.69v1h6.89v.72h-7.88V227h6.67v-.92h-6.71v-.73h7.72Z"/><path d="M337.19,234.94H326.83v-.85h4.65v-2.6h-3.71v-.8h1.77V227h-1.79v-.82h8.45V227h-1.8v3.71h1.77v.8h-3.71v2.6h4.73Zm-3.77-4.25V227h-2.89v3.71Z"/><path d="M348.45,234.87H338.1V234h10.35Zm-1.19-2.9h-7.83V226h7.7v.84h-6.68v1.67h6.44v.8h-6.44v1.82h6.81Z"/><path d="M358.69,226.13H357v2.21h1.7v.76H355v1.11h4.67v.8H349.36v-.8H354V229.1h-3.64v-.76h1.7v-2.21h-1.74v-.77h8.36Zm-.35,8.2h-6.71v1.12h7.06v.76h-8.06v-2.6h6.74v-1h-6.76v-.73h7.73Zm-2.39-6v-2.21h-2.89v2.21Z"/><path d="M366.53,230.12H362.3v2.66a33.78,33.78,0,0,0,5.58-.4l.1.83a34.75,34.75,0,0,1-5.75.41h-.94V229.3h4.23v-2.37h-4.26v-.82h5.27Zm3.44,6.24h-1V225.05h1Z"/><path d="M381.18,228.75c0,1.68-1.5,2.8-3.65,2.93v2.37h4.72v.84H371.89v-.84h4.66v-2.37c-2.15-.14-3.64-1.26-3.64-2.93s1.73-2.95,4.13-3S381.18,227,381.18,228.75Zm-7.3,0c0,1.3,1.33,2.14,3.16,2.15s3.17-.85,3.17-2.15-1.33-2.14-3.17-2.14S373.88,227.48,373.88,228.75Z"/><path d="M390.57,235.77h-.95v-5.49h-1.45c-.11,2.2-1.05,3.57-2.44,3.57s-2.44-1.52-2.44-3.92,1-3.93,2.44-3.93,2.3,1.33,2.43,3.46h1.46v-4.17h.95Zm-6.33-5.84c0,1.82.57,3,1.49,3s1.5-1.15,1.5-3-.59-3-1.5-3S384.22,228.09,384.24,229.93Zm8.61,6.41h-1V225.05h1Z"/><path d="M403.24,226.64h-4V230a22.89,22.89,0,0,0,5.07-.36l.13.81a25,25,0,0,1-5.32.38h-.88v-5h5Zm3.29,9.55H399.4v-4.14h7.13Zm-6.15-.82h5.16v-2.51h-5.16Zm6.15-7.55h1.71v.84h-1.71v2.8h-1v-6.41h1Z"/><path d="M414.85,229.86c0,2.4-1.2,3.93-2.87,3.93s-2.85-1.53-2.85-3.93,1.17-3.92,2.85-3.93S414.83,227.46,414.85,229.86Zm-4.78,0c0,1.84.79,3,1.91,3s1.9-1.2,1.9-3-.76-3-1.9-3S410.07,228,410.07,229.86Zm7.64-.3h1.9v.86h-1.9v5.92h-1V225.05h1Z"/><path d="M430.21,232.91l-.61.8a6.11,6.11,0,0,1-2.79-3.55,6.4,6.4,0,0,1-2.85,3.77l-.64-.8a6,6,0,0,0,3-5V226h1v2.06A5.7,5.7,0,0,0,430.21,232.91Zm2-3.28h1.89v.87h-1.89v5.84h-1V225.05h1Z"/><path d="M445.06,231.46H434.75v-.82h2.56v-1.59a1.86,1.86,0,0,1-1.41-1.69c0-1.33,1.53-2.09,4-2.09s4,.76,4,2.09a1.83,1.83,0,0,1-1.4,1.68v1.6h2.56Zm-1.26,2.86c0,1.28-1.46,2-3.89,2s-3.91-.71-3.91-2,1.45-2,3.91-2S443.79,233,443.8,234.32Zm-6.87-7c0,.83,1.13,1.31,3,1.31s3-.48,3-1.31-1.15-1.31-3-1.31S436.92,226.55,436.93,227.36Zm.09,7c0,.76,1.07,1.22,2.89,1.22s2.89-.46,2.89-1.22-1.1-1.22-2.89-1.23S437,233.54,437,234.32Zm4.49-3.68v-1.32a10.73,10.73,0,0,1-3.2,0v1.32Z"/><path d="M452.79,233.1l-.57.79a6,6,0,0,1-2.85-3.49,6.52,6.52,0,0,1-2.93,3.77l-.61-.79a5.91,5.91,0,0,0,3-4.86V227h-2.63v-.82h6.16V227h-2.55v1.48A5.43,5.43,0,0,0,452.79,233.1Zm2-3.48h1.9v.85h-1.9v5.87h-1V225.05h1Z"/><path d="M464.7,235.77h-.95v-5.49H462.3c-.11,2.2-1.05,3.57-2.45,3.57s-2.43-1.52-2.43-3.92,1-3.93,2.43-3.93,2.31,1.33,2.44,3.46h1.46v-4.17h.95Zm-6.33-5.84c0,1.82.57,3,1.48,3s1.51-1.15,1.51-3-.59-3-1.51-3S458.35,228.09,458.37,229.93Zm8.61,6.41h-1V225.05h1Z"/><path d="M475.85,235.77h-1V230.5h-2.39a8.74,8.74,0,0,1-3.36,3.4l-.59-.72a7.28,7.28,0,0,0,3.88-5.86H469v-.82h4.4a9.47,9.47,0,0,1-.56,3.19h2v-4.33h1Zm2.38.57h-1V225.05h1Z"/><path d="M484.09,226.12H485l-.7,3.45H483.1Z"/><path d="M487.43,232.63a25.52,25.52,0,0,0,5.2-.52l.13.85a27,27,0,0,1-5.42.51h-.91v-7.3h1Zm9.12-2.23h-1.83v5.94h-1V225.05h1v4.51h1.83Z"/><path d="M498.18,229.58h-.94l.7-3.45h1.23Z"/><path d="M510.45,231.08H500.09v-.79h10.36Zm-1.3,3.3h-6.79v1.08h7.16v.73h-8.17V233.7h6.81v-1h-6.82V232h7.81Zm0-6.65h-6.68v1h6.89v.72h-7.88V227h6.67v-.92H501.4v-.73h7.71Z"/><path d="M525,235H514.64v-.82h2.89v-2.69h-1.95v-.83h1.77v-3.68h-1.79v-.82H524v.82h-1.8v3.68H524v.83h-2v2.69h3Zm-3.77-4.34v-3.68h-2.89v3.68Zm-.19,3.52v-2.69h-2.51v2.69Z"/><path d="M532.32,227.26h-6.4v-.81h2.75v-1.4h1v1.4h2.66Zm-.59,2.78a2.29,2.29,0,0,1-2.58,2.16c-1.52,0-2.57-.88-2.56-2.16s1-2.16,2.56-2.16S531.73,228.75,531.73,230Zm-4.21,0c0,.81.66,1.36,1.63,1.36a1.39,1.39,0,1,0,0-2.73C528.18,228.68,527.52,229.23,527.52,230Zm8,6.06H528v-3.19h1v2.35h6.57Zm-.26-2.43h-1v-2.42h-2v-.82h2V228.9h-2v-.83h2v-3h1Z"/><path d="M543.84,227.69h-6.73v-.82H540v-1.68h1v1.68h2.83Zm-.54,3.53a2.78,2.78,0,1,1-2.77-2.59A2.59,2.59,0,0,1,543.3,231.22Zm-4.59,0a1.7,1.7,0,0,0,1.82,1.74,1.72,1.72,0,0,0,1.82-1.74,1.74,1.74,0,0,0-1.82-1.75A1.72,1.72,0,0,0,538.71,231.22Zm7.21-1.51h1.9v.83h-1.9v5.8h-1V225.05h1Z"/><path d="M558.74,234.74H548.43v-.83h4.05v-4h1v4h5.28Zm-1.23-7.42a29.12,29.12,0,0,1-.42,5.21l-1-.11a23.93,23.93,0,0,0,.43-5.1V227h-7v-.83h8Z"/><path d="M566.47,233.1l-.57.79A6,6,0,0,1,563,230.4a6.51,6.51,0,0,1-2.92,3.77l-.61-.79a5.91,5.91,0,0,0,3-4.86V227h-2.63v-.82h6.15V227h-2.54v1.48A5.43,5.43,0,0,0,566.47,233.1Zm2-3.48h1.9v.85h-1.9v5.87h-1V225.05h1Z"/><path d="M581,227h-6.74v-.82h2.88V225h1v1.27H581Zm-.64,2.51c0,1.2-1.1,2-2.73,2s-2.73-.78-2.72-2,1.08-2,2.72-2S580.34,228.34,580.36,229.55Zm-4.5,0c0,.73.7,1.21,1.77,1.21s1.77-.48,1.78-1.21-.72-1.22-1.78-1.21S575.85,228.82,575.86,229.55Zm1.06,3.77h5.17v-1.21h1v4.08h-7.15v-4.08h1Zm5.17,2.07V234.1h-5.17v1.29Zm1-7.44h1.7v.85h-1.7v2.82h-1v-6.57h1Z"/><path d="M587.22,232.57a26.7,26.7,0,0,0,5.41-.55l.14.85a26.82,26.82,0,0,1-5.62.56h-.91v-7.26h1Zm7.61,3.77h-1V225.05h1Z"/><path d="M602.54,227h-4.29v5.71a26.65,26.65,0,0,0,5.18-.4l.13.86a28.35,28.35,0,0,1-5.41.38h-.89v-7.37h5.28Zm3,2.54h1.9v.84h-1.9v6h-1V225.05h1Z"/><path d="M608.41,234.56a.81.81,0,0,1,.81-.81.82.82,0,1,1-.81.81Z"/><path class="cls-1" d="M105,338.87a1.54,1.54,0,0,1-.59-.91l-3.78-15.73a2.14,2.14,0,0,1-.07-.48,1.31,1.31,0,0,1,.3-.87,1.55,1.55,0,0,1,.88-.49l.43-.05a1.36,1.36,0,0,1,.9.3,1.39,1.39,0,0,1,.48.87l2,9.27c.15.77.3,1.79.46,3.06l.13,1h.1a29.31,29.31,0,0,1,.69-4.07l2.2-8.74a1.88,1.88,0,0,1,3.64,0l2.2,8.74a30.7,30.7,0,0,1,.7,4.07h.09l.14-1c.15-1.27.3-2.29.46-3.06l2-9.27a1.39,1.39,0,0,1,.48-.87,1.36,1.36,0,0,1,.9-.3l.43.05a1.55,1.55,0,0,1,.88.49,1.31,1.31,0,0,1,.3.87,2.14,2.14,0,0,1-.07.48L117.5,338a1.6,1.6,0,0,1-.6.91,1.82,1.82,0,0,1-1.08.33,1.92,1.92,0,0,1-1.14-.33,1.48,1.48,0,0,1-.61-.91l-2.28-9.32c-.44-1.84-.73-3.08-.85-3.74-.23,1.15-.51,2.4-.85,3.74L107.81,338a1.48,1.48,0,0,1-.61.91,1.92,1.92,0,0,1-1.14.33A1.82,1.82,0,0,1,105,338.87Z"/><path class="cls-1" d="M124.81,339.2a1.52,1.52,0,0,1-1.08-.37,1.26,1.26,0,0,1-.42-1V321.31a1.26,1.26,0,0,1,.42-1,1.52,1.52,0,0,1,1.08-.37h.11a1.57,1.57,0,0,1,1.09.37,1.29,1.29,0,0,1,.41,1v5.82a5.41,5.41,0,0,1,7.49.35,7,7,0,0,1,1.46,4.73v5.61a1.26,1.26,0,0,1-.42,1,1.52,1.52,0,0,1-1.08.37h-.11a1.52,1.52,0,0,1-1.08-.37,1.26,1.26,0,0,1-.42-1V332.6a5.24,5.24,0,0,0-.72-3,2.42,2.42,0,0,0-2.11-1,2.82,2.82,0,0,0-2.09.85,3.56,3.56,0,0,0-.92,2.35v6.07a1.29,1.29,0,0,1-.41,1,1.57,1.57,0,0,1-1.09.37Z"/><path class="cls-1" d="M140.93,338.42A6.07,6.07,0,0,1,138.7,336a7.93,7.93,0,0,1,0-6.94,6,6,0,0,1,2.23-2.4,6.07,6.07,0,0,1,3.22-.87,5.24,5.24,0,0,1,3.75,1.47v-.2a1,1,0,0,1,.43-.82,1.69,1.69,0,0,1,1.07-.33h.11a1.52,1.52,0,0,1,1.08.37,1.26,1.26,0,0,1,.42,1v10.53a1.26,1.26,0,0,1-.42,1,1.52,1.52,0,0,1-1.08.37h-.11a1.69,1.69,0,0,1-1.07-.33,1,1,0,0,1-.43-.82v-.23a5.24,5.24,0,0,1-3.75,1.47A6.07,6.07,0,0,1,140.93,338.42Zm.52-3.83a3.59,3.59,0,0,0,1.23,1.43,3.33,3.33,0,0,0,3.54,0,3.59,3.59,0,0,0,1.23-1.43,4.87,4.87,0,0,0,0-4.09,3.59,3.59,0,0,0-1.23-1.43,3.27,3.27,0,0,0-3.54,0,3.59,3.59,0,0,0-1.23,1.43,4.87,4.87,0,0,0,0,4.09Z"/><path class="cls-1" d="M157.42,338a5.75,5.75,0,0,1-1.19-4v-5.31h-1.52a1.68,1.68,0,0,1-1.16-.37,1.24,1.24,0,0,1-.43-1,1.28,1.28,0,0,1,.44-1,1.65,1.65,0,0,1,1.15-.38h1.52v-4.14a1.58,1.58,0,0,1,.41-1.12,1.52,1.52,0,0,1,1.13-.42,1.55,1.55,0,0,1,1.15.42,1.58,1.58,0,0,1,.41,1.12v4.14h3.31a1.65,1.65,0,0,1,1.15.38,1.25,1.25,0,0,1,.44,1,1.26,1.26,0,0,1-.42,1,1.73,1.73,0,0,1-1.17.37h-3.31V334c0,1.69.52,2.53,1.57,2.53a2.4,2.4,0,0,0,.95-.17,3.24,3.24,0,0,0,.91-.59,1.41,1.41,0,0,1,1.93.21,1.36,1.36,0,0,1,.37.9,1.44,1.44,0,0,1-.48,1,5.07,5.07,0,0,1-3.71,1.38A4.45,4.45,0,0,1,157.42,338Z"/><path class="cls-1" d="M175.51,338.43a6,6,0,0,1-2.3-2.39,7.27,7.27,0,0,1-.81-3.46,7.14,7.14,0,0,1,.85-3.52,6.07,6.07,0,0,1,2.34-2.4,6.57,6.57,0,0,1,3.36-.87,7.42,7.42,0,0,1,2.38.38,5.27,5.27,0,0,1,1.85,1.05,1.11,1.11,0,0,1,.39.87,1.49,1.49,0,0,1-.39,1,1.27,1.27,0,0,1-1,.46,1.75,1.75,0,0,1-.72-.19,7.53,7.53,0,0,0-1.28-.62,4.16,4.16,0,0,0-1.18-.16,3.22,3.22,0,0,0-2.51,1.05,5,5,0,0,0,0,5.91,3.22,3.22,0,0,0,2.5,1.07,4.46,4.46,0,0,0,1.38-.2,4.61,4.61,0,0,0,1.29-.7,1.64,1.64,0,0,1,.94-.3,1.34,1.34,0,0,1,1,.39,1.33,1.33,0,0,1,.42,1,1.44,1.44,0,0,1-.55,1.1,5.39,5.39,0,0,1-1.94,1.05,8,8,0,0,1-2.55.4A6.68,6.68,0,0,1,175.51,338.43Z"/><path class="cls-1" d="M189,338.42a6.4,6.4,0,0,1-2.43-2.44,7.26,7.26,0,0,1,0-6.93,6.15,6.15,0,0,1,2.41-2.39,7.46,7.46,0,0,1,7,0,6.18,6.18,0,0,1,2.42,2.39,6.92,6.92,0,0,1,.87,3.48,7,7,0,0,1-.87,3.47,6.47,6.47,0,0,1-2.45,2.42,7,7,0,0,1-3.46.87A7,7,0,0,1,189,338.42Zm.27-3.83a3.49,3.49,0,0,0,3.21,1.94,3.63,3.63,0,0,0,1.9-.51,3.7,3.7,0,0,0,1.31-1.43,4.41,4.41,0,0,0,.47-2,4.36,4.36,0,0,0-.49-2.09,3.46,3.46,0,0,0-1.32-1.41,3.77,3.77,0,0,0-3.75,0,3.46,3.46,0,0,0-1.32,1.41,4.47,4.47,0,0,0-.48,2.09A4.29,4.29,0,0,0,189.29,334.59Z"/><path class="cls-1" d="M202.73,338.17a4.88,4.88,0,0,1-.83-3.2V321.31a1.26,1.26,0,0,1,.42-1,1.52,1.52,0,0,1,1.08-.37h.11a1.57,1.57,0,0,1,1.09.37,1.29,1.29,0,0,1,.41,1v14a1.55,1.55,0,0,0,.15.82.63.63,0,0,0,.56.22,1.11,1.11,0,0,1,.84.34,1.33,1.33,0,0,1,.34.95,1.5,1.5,0,0,1-.38,1.08,1.44,1.44,0,0,1-1.07.39A3.45,3.45,0,0,1,202.73,338.17Z"/><path class="cls-1" d="M211.59,338.42a6.36,6.36,0,0,1-2.44-2.44,7.26,7.26,0,0,1,0-6.93,6.22,6.22,0,0,1,2.41-2.39,7.48,7.48,0,0,1,7,0,6.22,6.22,0,0,1,2.41,2.39,6.92,6.92,0,0,1,.88,3.48A7,7,0,0,1,221,336a6.4,6.4,0,0,1-2.45,2.42,7.34,7.34,0,0,1-6.93,0Zm.26-3.83a3.62,3.62,0,0,0,1.31,1.43,3.79,3.79,0,0,0,3.8,0,3.62,3.62,0,0,0,1.31-1.43,4.41,4.41,0,0,0,.47-2,4.47,4.47,0,0,0-.48-2.09,3.48,3.48,0,0,0-1.33-1.41,3.75,3.75,0,0,0-3.74,0,3.55,3.55,0,0,0-1.33,1.41,4.47,4.47,0,0,0-.48,2.09A4.41,4.41,0,0,0,211.85,334.59Z"/><path class="cls-1" d="M226,339.2a1.56,1.56,0,0,1-1.08-.37,1.26,1.26,0,0,1-.41-1V327.29a1.26,1.26,0,0,1,.41-1,1.56,1.56,0,0,1,1.08-.37h.12a1.71,1.71,0,0,1,1.07.33,1,1,0,0,1,.42.82v.07a5.07,5.07,0,0,1,3.47-1.34,4.72,4.72,0,0,1,1.75.3,1.31,1.31,0,0,1,.58.47,1.35,1.35,0,0,1,.23.75,1.86,1.86,0,0,1-.14.65,1.58,1.58,0,0,1-.51.65,1.11,1.11,0,0,1-.69.24,1.22,1.22,0,0,1-.41-.07,3.7,3.7,0,0,0-1.27-.23,2.82,2.82,0,0,0-2.09.85,3.56,3.56,0,0,0-.92,2.35v6.07a1.29,1.29,0,0,1-.41,1,1.56,1.56,0,0,1-1.08.37Z"/><path class="cls-1" d="M238.75,333.79a1.6,1.6,0,0,1-.41-1.12l-.07-2.05a1.52,1.52,0,0,1,.25-.91,2,2,0,0,1,.76-.67,10.67,10.67,0,0,0,2.71-1.8,2.75,2.75,0,0,0,.85-2,2.32,2.32,0,0,0-.67-1.74,2.38,2.38,0,0,0-1.72-.65,3.27,3.27,0,0,0-2.64,1.35,1.65,1.65,0,0,1-1.31.69,1.75,1.75,0,0,1-.79-.2,1.58,1.58,0,0,1-.53-.53,1.38,1.38,0,0,1-.18-.67,1.46,1.46,0,0,1,.23-.76,5.31,5.31,0,0,1,2.1-1.94,6.64,6.64,0,0,1,3.12-.7,5.92,5.92,0,0,1,2.86.67,4.9,4.9,0,0,1,1.95,1.88,5.2,5.2,0,0,1,.69,2.64,5.06,5.06,0,0,1-1.21,3.33,10.82,10.82,0,0,1-3.46,2.61l-.07,1.47a1.74,1.74,0,0,1-.42,1.1,1.31,1.31,0,0,1-1,.42A1.39,1.39,0,0,1,238.75,333.79Zm-.32,2.88a2,2,0,0,1,2.71,0,1.79,1.79,0,0,1,0,2.58,2,2,0,0,1-2.71,0,1.79,1.79,0,0,1,0-2.58Z"/><path d="M108,366.21l-.6.8a6.07,6.07,0,0,1-2.88-3.57,6.57,6.57,0,0,1-2.93,3.8l-.61-.78a5.87,5.87,0,0,0,3-4.92v-1.36h-2.58v-.83h6.19v.83H105v1.36A5.52,5.52,0,0,0,108,366.21Zm2.46,3.29h-1v-6.38H107v-.82h2.48v-4.12h1Z"/><path d="M119.9,365.78l.08.73a41.61,41.61,0,0,1-7.41.5l-.14-.85A55.1,55.1,0,0,0,119.9,365.78Zm-.79-4.12a2.74,2.74,0,0,1-3,2.66c-1.78,0-3.07-1.08-3.06-2.66s1.28-2.65,3.06-2.65A2.74,2.74,0,0,1,119.11,361.66Zm-5.12,0a2.09,2.09,0,1,0,2.08-1.78A1.86,1.86,0,0,0,114,361.66Zm7.65,7.84h-1V358.18h1Z"/><path d="M137.25,365.57h-4.72v3.9h-1v-3.9h-4.66v-.82h10.36Zm-1.35-2.36h-7.68v-4.39h7.68Zm-6.7-.79h5.71v-2.79H129.2Z"/><path d="M144.94,360.39h-6.75v-.81h2.88V358.2h1v1.38h2.88Zm-.65,2.73c0,1.27-1.11,2.08-2.73,2.08s-2.73-.81-2.72-2.08,1.09-2.11,2.72-2.11S144.27,361.84,144.29,363.12Zm-4.5,0c0,.8.7,1.31,1.77,1.3s1.77-.5,1.78-1.3-.72-1.32-1.78-1.32S139.78,362.32,139.79,363.12Zm7.74,6.11h-7.6V366h1v2.41h6.62Zm-.52-7.31h1.7v.83H147v3.9h-1V358.2h1Z"/><path d="M156.2,360.39h-6.74v-.81h2.87V358.2h1v1.38h2.88Zm-.65,2.73c0,1.27-1.11,2.08-2.72,2.08s-2.74-.81-2.73-2.08,1.1-2.11,2.73-2.11S155.54,361.84,155.55,363.12Zm-4.49,0c0,.8.7,1.31,1.77,1.3s1.77-.5,1.78-1.3-.73-1.32-1.78-1.32S151.05,362.32,151.06,363.12Zm7.74,6.11h-7.6V366h1v2.41h6.62Zm-.53-7.31H160v.83h-1.71v3.9h-1V358.2h1Z"/><path d="M170.66,363.55l-.56.78a4.63,4.63,0,0,1-2.71-2.58,4.88,4.88,0,0,1-2.89,2.92l-.55-.81a4.16,4.16,0,0,0,2.92-3.86v-1.17h1V360A3.86,3.86,0,0,0,170.66,363.55Zm2.72,3.79c0,1.34-1.44,2.1-3.79,2.1s-3.79-.76-3.79-2.1,1.44-2.14,3.79-2.14S173.38,366,173.38,367.34Zm-6.59,0c0,.81,1.07,1.3,2.8,1.3s2.8-.49,2.8-1.3-1.07-1.35-2.8-1.35S166.78,366.5,166.79,367.34Zm6.55-2.47h-1v-3.44h-2.52v-.82h2.52v-2.43h1Z"/><path d="M181.83,363.67l-.47.79a4.47,4.47,0,0,1-2.77-2.47,4.77,4.77,0,0,1-2.89,2.8l-.51-.8a4.06,4.06,0,0,0,2.89-3.66v-.48H175.5V359h6.11v.83h-2.55v.48A3.7,3.7,0,0,0,181.83,363.67Zm2.35,3.69c0,1.32-1.4,2.08-3.73,2.08s-3.76-.76-3.76-2.08,1.43-2.05,3.76-2.05S184.18,366.07,184.18,367.36Zm-6.48,0c0,.81,1,1.28,2.75,1.28s2.76-.47,2.76-1.28-1-1.25-2.76-1.25S177.69,366.58,177.7,367.36Zm6.37-6.29h1.71v.83h-1.71V365h-1v-6.82h1Z"/><path d="M187.13,367.32l-.56-.78c2.93-1.46,4.52-3.63,4.75-6.3h-4.23v-.84h5.23A8.46,8.46,0,0,1,187.13,367.32Zm8.12-4.54h1.83v.84h-1.83v5.85h-1V358.18h1Z"/><path d="M208.08,364.32H197.76v-.83h10.32Zm-1.27,3.06c0,1.3-1.47,2-3.9,2s-3.9-.74-3.9-2,1.46-2.05,3.9-2.05S206.79,366.07,206.81,367.38Zm.09-5.21h-7.73v-3.76h1v2.93h6.74ZM200,367.38c0,.78,1.07,1.26,2.89,1.26s2.89-.48,2.89-1.26-1.09-1.25-2.89-1.26S200,366.58,200,367.38Z"/><path d="M215.72,363.55l-.56.78a4.63,4.63,0,0,1-2.71-2.58,4.88,4.88,0,0,1-2.89,2.92l-.55-.81a4.18,4.18,0,0,0,2.92-3.86v-1.17h1V360A3.86,3.86,0,0,0,215.72,363.55Zm2.72,3.79c0,1.34-1.44,2.1-3.79,2.1s-3.79-.76-3.79-2.1,1.43-2.14,3.79-2.14S218.44,366,218.44,367.34Zm-6.59,0c0,.81,1.07,1.3,2.8,1.3s2.8-.49,2.8-1.3-1.07-1.35-2.8-1.35S211.84,366.5,211.85,367.34Zm6.55-2.47h-1v-3.44h-2.52v-.82h2.52v-2.43h1Z"/><path d="M230.6,363.88H220.29v-.81H230.6Zm-1.16-3.55c0,1.28-1.48,2-4,2s-4-.7-4-2,1.49-1.94,4-1.94S229.44,359.07,229.44,360.33Zm-.17,7.06h-6.72v1.17h7.07v.78h-8.06v-2.69h6.73v-1h-6.75v-.76h7.73Zm-6.79-7.06c0,.79,1.08,1.22,3,1.22s3-.43,3-1.22-1.11-1.19-3-1.19S222.46,359.59,222.48,360.33Z"/><path d="M244,361.9h-3.52v1.44h4.66v.82H234.82v-.82h4.66V361.9h-3.24v-3.46h1v2.66H244Zm0,4.19h-1.76v2.41h1.85v.82h-8.21v-.82h1.85v-2.41H236v-.8h8Zm-2.74,2.41v-2.41h-2.54v2.41Z"/><path d="M256.4,365H246.09v-.81H256.4Zm-1.16-4.13c0,1.41-1.57,2.25-4,2.25s-4-.84-4-2.25,1.56-2.24,4-2.23S255.24,359.42,255.24,360.82Zm0,8.41h-7.82v-3.29h1v2.45h6.82Zm-7-8.41c0,.89,1.15,1.44,3,1.44s3-.55,3-1.44-1.17-1.43-3-1.43S248.25,359.94,248.27,360.82Z"/><path d="M267.29,360.82h-6.73V360h2.92v-1.68h1V360h2.82Zm-.53,3.53a2.78,2.78,0,1,1-2.78-2.59A2.59,2.59,0,0,1,266.76,364.35Zm-4.6,0a1.82,1.82,0,0,0,3.64,0,1.82,1.82,0,0,0-3.64,0Zm7.22-1.51h1.9v.83h-1.9v5.8h-1V358.18h1Z"/><path d="M282.24,363.66H271.88v-.82h10.36Zm-1.34,3.65h-6.69v1.21h7.1v.8H273.2v-2.77h6.72v-1.09h-6.75v-.79h7.73Zm.11-5.58h-7.72v-3.36h1v2.53H281Z"/><path d="M290.57,368.9h-.95v-5.49h-1.45c-.11,2.2-1.05,3.57-2.45,3.57s-2.43-1.52-2.43-3.92,1-3.92,2.43-3.92,2.31,1.32,2.44,3.45h1.46v-4.17h.95Zm-6.33-5.84c0,1.83.57,3,1.48,3s1.51-1.14,1.51-3-.59-3-1.51-3S284.22,361.22,284.24,363.06Zm8.61,6.41h-1V358.18h1Z"/><path d="M299.34,362.13h3.38v-3h1v7.62h-5.35v-7.62h1Zm3.38,3.8v-3h-3.38v3Zm4.3,3.57h-1V358.18h1Z"/><path d="M319.3,365.45h-2.74v4h-1v-4h-2.9v4h-1v-4h-2.69v-.83H319.3Zm-1.22-4.35c0,1.5-1.6,2.45-4,2.44s-4-.94-4-2.44,1.61-2.46,4-2.46S318.08,359.59,318.08,361.1Zm-6.94,0c0,1,1.19,1.64,3,1.64s3-.63,3-1.64-1.21-1.65-3-1.65S311.13,360.1,311.14,361.1Z"/><path d="M326.89,360.82h-6.73V360h2.91v-1.68h1V360h2.83Zm-.54,3.53a2.78,2.78,0,1,1-2.77-2.59A2.59,2.59,0,0,1,326.35,364.35Zm-4.59,0a1.69,1.69,0,0,0,1.82,1.74,1.71,1.71,0,0,0,1.82-1.74,1.74,1.74,0,0,0-1.82-1.75A1.72,1.72,0,0,0,321.76,364.35Zm7.21-1.51h1.9v.83H329v5.8h-1V358.18h1Z"/><path d="M341.79,367.87H331.48V367h4v-4h1v4h5.28Zm-1.23-7.41a29.09,29.09,0,0,1-.42,5.2l-1-.11a23.89,23.89,0,0,0,.43-5.09v-.31h-7v-.82h8Z"/><path d="M352.92,363.24l-.49.78a4.74,4.74,0,0,1-2.9-2.61,4.89,4.89,0,0,1-2.93,2.82l-.5-.79a4.12,4.12,0,0,0,2.91-3.72v-1.1h1v1.1A3.91,3.91,0,0,0,352.92,363.24Zm2.52,2.71h-1.57v2.55h1.68v.82h-7.83v-.82h1.7V366h-1.59v-.81h7.61Zm-2.56,2.55V366H350.4v2.55Zm2.48-4h-1V358.2h1Z"/><path d="M363.28,361h2.38v-2.85h1v6.45h-1v-2.78h-2.37a2.73,2.73,0,0,1-2.89,2.26,2.65,2.65,0,1,1,0-5.28A2.75,2.75,0,0,1,363.28,361Zm-.49,7.41a3.38,3.38,0,0,0,1.65-2.69v-.69h1v.69a3.11,3.11,0,0,0,2.31,2.83l-.52.75a3.75,3.75,0,0,1-2.29-2.16,4,4,0,0,1-2.11,2.25,3.61,3.61,0,0,1-2.13-2.2,4,4,0,0,1-2.26,2.11l-.5-.75a3.27,3.27,0,0,0,2.3-2.83v-.69h1v.69A3.1,3.1,0,0,0,362.79,368.44Zm-4.35-7a2,2,0,0,0,3.91,0,2,2,0,0,0-3.91,0Z"/><path d="M378.86,367.87H368.55V367h4.05v-4h1v4h5.28Zm-1.24-7.41a27.32,27.32,0,0,1-.42,5.2l-1-.11a23.36,23.36,0,0,0,.44-5.09v-.31h-7v-.82h8Z"/><path d="M380.68,371h-.94l.7-3.45h1.23Z"/><path d="M107.77,378.82H101V378H104v-1.68h1V378h2.83Zm-.54,3.53a2.59,2.59,0,0,1-2.77,2.59,2.6,2.6,0,1,1,0-5.18A2.59,2.59,0,0,1,107.23,382.35Zm-4.59,0a1.69,1.69,0,0,0,1.82,1.74,1.71,1.71,0,0,0,1.82-1.74,1.74,1.74,0,0,0-1.82-1.75A1.72,1.72,0,0,0,102.64,382.35Zm7.22-1.51h1.89v.83h-1.89v5.8h-1V376.18h1Z"/><path d="M122.71,381.66H112.35v-.82h10.36Zm-1.33,3.65h-6.7v1.21h7.1v.8h-8.1v-2.77h6.72v-1.09h-6.75v-.79h7.73Zm.11-5.58h-7.73v-3.36h1v2.53h6.75Z"/><path d="M129.32,381.54l-.54.78a4.09,4.09,0,0,1-2.25-2.28,4.51,4.51,0,0,1-2.34,2.55l-.55-.77a4,4,0,0,0,2.41-3.43v-1.51h1v1.51A3.5,3.5,0,0,0,129.32,381.54Zm3.92,5.93h-1v-3h-6.65v-.82h7.63Zm0-4.46h-1v-3h-1.5v3h-.94V376.4h.94v2.74h1.5V376.2h1Z"/><path d="M142.43,383.78l.07.73a41.44,41.44,0,0,1-7.4.5l-.14-.85A55.18,55.18,0,0,0,142.43,383.78Zm-.79-4.12a2.74,2.74,0,0,1-3,2.66c-1.78,0-3.07-1.08-3.06-2.66s1.28-2.65,3.06-2.65A2.74,2.74,0,0,1,141.64,379.66Zm-5.12,0a2.09,2.09,0,1,0,2.08-1.78A1.86,1.86,0,0,0,136.52,379.66Zm7.65,7.84h-1V376.18h1Z"/><path d="M156,384.31l-.58.77a5.48,5.48,0,0,1-2.7-3.3,5.86,5.86,0,0,1-2.84,3.51l-.57-.78a5.34,5.34,0,0,0,2.9-4.64V379h-2.6v-.81h2.59V376.4h1v1.75h2.55V379H153.2v.91A5.15,5.15,0,0,0,156,384.31Zm2.17-3.49h1.89v.85h-1.89v5.8h-1V376.18h1Z"/><path d="M171,383h-4.61v2.2h-1V383h-4.76v-.82H171Zm-1.16,4.25H162v-3.09h1v2.25h6.88ZM163.06,378h5.6v-1.45h1v4.51h-7.58v-4.51h1Zm5.6,2.25v-1.49h-5.6v1.49Z"/><path d="M178.63,378.82H171.9V378h2.91v-1.68h1V378h2.83Zm-.54,3.53a2.78,2.78,0,1,1-2.77-2.59A2.59,2.59,0,0,1,178.09,382.35Zm-4.59,0a1.69,1.69,0,0,0,1.82,1.74,1.71,1.71,0,0,0,1.82-1.74,1.74,1.74,0,0,0-1.82-1.75A1.72,1.72,0,0,0,173.5,382.35Zm7.21-1.51h1.9v.83h-1.9v5.8h-1V376.18h1Z"/><path d="M193.53,385.87H183.22V385h4.05v-4h1v4h5.28Zm-1.23-7.41a29.09,29.09,0,0,1-.42,5.2l-1-.11a23.89,23.89,0,0,0,.43-5.09v-.31h-7v-.82h8Z"/><path d="M199.22,378.39h3.3v-1.66h1v5h-5.27v-5h1Zm3.4,7h-2.71v1.18a17.32,17.32,0,0,0,3.46-.25l.12.76a18.29,18.29,0,0,1-3.89.25h-.66v-2.68h2.71v-1.05h-2.73v-.77h3.7Zm-.1-4.51v-1.74h-3.3v1.74Zm4.08,6.54h-1v-3.79h-2.49v-.8h3.48Zm0-8.76h1.71v.85H206.6v2.69h-1v-6h1Z"/><path d="M219.33,383H209v-.81h10.31Zm-1.16-4.13c0,1.41-1.56,2.25-4,2.25s-4-.84-4-2.25,1.55-2.24,4-2.23S218.17,377.42,218.17,378.82Zm0,8.41h-7.83v-3.29h1v2.45h6.82Zm-7-8.41c0,.89,1.16,1.44,3,1.44s3-.55,3-1.44-1.18-1.43-3-1.43S211.19,377.94,211.2,378.82Z"/><path d="M229.76,381c0,2.39-1.21,3.92-2.89,3.92S224,383.39,224,381s1.2-3.93,2.89-3.94S229.76,378.6,229.76,381ZM225,381c0,1.84.79,3,1.92,3s1.92-1.19,1.92-3-.79-3-1.92-3.05S225,379.15,225,381Zm7.94,6.5h-1V376.18h1Z"/><path d="M240.72,384.64h-5.23V377.3h5.23Zm-4.25-.81h3.27V378.1h-3.27Zm7.68,3.67h-1V376.18h1Z"/><path d="M253.2,384.23l-.56.79a5.87,5.87,0,0,1-3-3.47,6.44,6.44,0,0,1-3,3.75l-.6-.79a5.87,5.87,0,0,0,3-4.86v-1.47h-2.67v-.83h6.37v.83h-2.69v1.47A5.32,5.32,0,0,0,253.2,384.23Zm2.22,3.24h-1V376.18h1Z"/><path d="M258,385.32l-.56-.78c2.93-1.46,4.52-3.63,4.75-6.3H258v-.84h5.23A8.46,8.46,0,0,1,258,385.32Zm8.12-4.54h1.83v.84h-1.83v5.85h-1V376.18h1Z"/><path d="M278.09,381c0,2.39-1.21,3.92-2.89,3.92s-2.89-1.53-2.89-3.92,1.2-3.93,2.89-3.94S278.09,378.6,278.09,381Zm-4.81,0c0,1.84.79,3,1.92,3s1.92-1.19,1.92-3-.79-3-1.92-3.05S273.28,379.15,273.28,381Zm7.94,6.5h-1V376.18h1Z"/><path d="M289.58,379.57a2.64,2.64,0,0,1-2.51,2.61v1.93c1.06-.06,2.12-.13,3.11-.26l.06.75a42.21,42.21,0,0,1-7.06.42l-.17-.84c.91,0,2,0,3.06-.05v-1.95a2.61,2.61,0,0,1-2.52-2.61,3,3,0,0,1,6,0Zm-5.05,0a1.84,1.84,0,0,0,2,1.79,1.8,1.8,0,1,0-2-1.79Zm7.37,1.27h1.84v.87H291.9v5.76h-1V376.18h1Z"/><path d="M304.35,381l-.48.78a4.44,4.44,0,0,1-2.83-2.29,4.56,4.56,0,0,1-2.94,2.58l-.5-.77a3.79,3.79,0,0,0,2.91-3.33v-.36h-2.57v-.81H304v.81h-2.52V378C301.51,379.32,302.68,380.54,304.35,381Zm2.18,4.21h-6.21v1.34H307v.79h-7.61V384.5h6.2v-1.17h-6.22v-.8h7.21Zm0-6.58h1.71v.82h-1.71V382h-1v-5.83h1Z"/><path d="M318.08,380.5h2.53v-4.32h1V387.5h-1v-6.17h-2.52c-.12,2.2-1.25,3.59-2.82,3.59s-2.84-1.53-2.84-3.92,1.17-3.93,2.84-3.94S317.91,378.39,318.08,380.5Zm-4.7.5c0,1.84.77,3,1.89,3s1.88-1.19,1.88-3-.78-3-1.88-3.05S313.38,379.15,313.38,381Z"/><path d="M333.8,381.79h-4.67v1.07h3.34v2.53h-6.72v1.17h7.07v.78h-8.06v-2.69h6.73v-1h-6.75v-.76h3.39v-1.07h-4.64V381H333.8Zm-1.16-3.51c0,1.27-1.48,2-4,2s-4-.7-4-2,1.48-2,4-2S332.64,377,332.64,378.28Zm-7,0c0,.77,1.08,1.19,3,1.2s3-.43,3-1.2-1.11-1.18-3-1.2S325.67,377.53,325.68,378.28Z"/><path d="M340.49,380.26h-4.17v1.8a28.45,28.45,0,0,0,5.38-.38l.1.83a31.85,31.85,0,0,1-5.53.39h-.92v-3.43h4.15v-1.66h-4.17V377h5.16Zm3.92,7h-7.75v-3.38h1v2.54h6.74Zm-.33-2.73h-1v-8.3h1Z"/><path d="M351.8,378.11h-4.29v5.72a26.61,26.61,0,0,0,5.18-.41l.12.86a28.18,28.18,0,0,1-5.4.38h-.89v-7.37h5.28Zm3,2.54h1.9v.84h-1.9v6h-1V376.18h1Z"/><path d="M367.59,385.87H357.28V385h4.05v-4h1v4h5.28Zm-1.23-7.41a29.09,29.09,0,0,1-.42,5.2l-1-.11a23.89,23.89,0,0,0,.43-5.09v-.31h-7v-.82h8Z"/><path d="M378.28,378.08h-1.15v3.73c.58,0,1.15-.09,1.69-.15l.08.74a47.34,47.34,0,0,1-6.93.41l-.11-.82,1.46,0v-3.88h-1.14v-.82h6.1Zm2.91,9.15h-7.6v-3.52h1v2.68h6.62Zm-5-5.36v-3.79H374.3V382C374.91,381.93,375.53,381.91,376.15,381.87Zm4.51-2.25h1.71v.85h-1.71v4h-1v-8.3h1Z"/><path d="M388.66,378h-4.05v3.52a23.58,23.58,0,0,0,5.08-.37l.13.82a25.71,25.71,0,0,1-5.32.38h-.88v-5.19h5Zm3.79,9.23h-7.6v-3.7h1v2.86h6.62Zm-.52-7.68h1.72v.84h-1.72v4h-1v-8.18h1Z"/><path d="M401,378.82h-6.73V378h2.91v-1.68h1V378H401Zm-.54,3.53a2.78,2.78,0,1,1-2.77-2.59A2.59,2.59,0,0,1,400.48,382.35Zm-4.59,0a1.69,1.69,0,0,0,1.82,1.74,1.71,1.71,0,0,0,1.82-1.74,1.74,1.74,0,0,0-1.82-1.75A1.72,1.72,0,0,0,395.89,382.35Zm7.21-1.51H405v.83h-1.9v5.8h-1V376.18h1Z"/><path d="M411,378.71h3v-2.53h1V387.5h-1v-4.38h-2.9a2.63,2.63,0,0,1-2.45,1.8c-1.66,0-2.83-1.53-2.83-3.92s1.17-3.93,2.83-3.94A2.61,2.61,0,0,1,411,378.71ZM406.77,381c0,1.84.77,3,1.88,3s1.89-1.19,1.89-3-.78-3-1.89-3.05S406.77,379.15,406.77,381Zm4.71,0a6.48,6.48,0,0,1-.13,1.29H414v-2.74h-2.69A6,6,0,0,1,411.48,381Z"/><path d="M420.71,377.25h1.09v3.39h.09a2.1,2.1,0,0,1,2-1.18c1.73,0,2.95,1.37,2.95,3.55s-1.22,3.57-2.94,3.57a2.14,2.14,0,0,1-2-1.19h-.12v1.05h-1.06Zm3,8.35c1.31,0,2-1.14,2-2.61s-.67-2.55-2-2.55-2,1-2,2.55S422.48,385.6,423.74,385.6Z"/><path d="M429.36,386.44h-1.09v-9.19h1.09Z"/><path d="M435.47,379.55h1.08v6.89h-1.08v-1.17h-.07a2.17,2.17,0,0,1-2,1.26c-1.31,0-2.24-.85-2.24-2.6v-4.38h1.09v4.3a1.49,1.49,0,0,0,1.5,1.63,1.79,1.79,0,0,0,1.77-1.87Z"/><path d="M438,383.05c0-2.12,1.25-3.59,3.13-3.59,1.45,0,3,.89,3,3.44v.46h-5a2.07,2.07,0,0,0,2.13,2.26,1.78,1.78,0,0,0,1.61-.79H444a2.71,2.71,0,0,1-2.78,1.75C439.22,386.58,438,385.17,438,383.05Zm5-.62a1.86,1.86,0,0,0-1.87-2,2,2,0,0,0-2,2Z"/><path d="M452.49,386.9h-.95V383h-2.1v-.83h2.1v-2h-1.91a8.3,8.3,0,0,1-3.94,4.87l-.61-.72a7.32,7.32,0,0,0,3.9-5.85h-3.39v-.83H450a9.51,9.51,0,0,1-.15,1.7h1.72v-2.84h.95Zm2.29.57h-.95V376.18h.95Z"/><path d="M461.83,377.57h2.9v-1.39h1V382h-1v-1.3h-2.86a3,3,0,0,1-2.39,1,2.58,2.58,0,1,1,0-5.12A3,3,0,0,1,461.83,377.57Zm-4.34,1.57a2,2,0,0,0,3.95,0,2,2,0,0,0-3.95,0Zm8.24,6.12h-6.31v1.26h6.74v.8h-7.74V384.5h6.31v-1.14H458.4v-.8h7.33Zm-3.32-6.12a2.56,2.56,0,0,1-.12.75h2.44v-1.52h-2.44A2.76,2.76,0,0,1,462.41,379.14Z"/><path d="M471.6,382.4l-.37-.78a6.33,6.33,0,0,0,3.8-2.22l-3.69.26-.16-.8,4.25-.19a4.15,4.15,0,0,0,.27-1.13h-3.95v-.8h5C476.75,379.57,475.11,381.48,471.6,382.4Zm8.68,2.85H474v1.27h6.71v.8H473V384.5h6.31v-1.16H473v-.8h7.33Zm0-3.21h-1v-2.3h-2.48v-.83h2.48v-2.73h1Z"/><path d="M487.65,381.19h-4.06v2.74a25.47,25.47,0,0,0,5-.37l.08.84a29.09,29.09,0,0,1-5.22.38h-.87v-4.42h4.09v-2.3h-4.12v-.82h5.09Zm3.88,6.31h-1v-6.14h-2.21v-.83h2.21v-4.35h1Z"/><path d="M503.77,382.21H493.41v-.78h10.36Zm-1.3,3.3h-6.79v1.08h7.16v.73h-8.17v-2.49h6.81v-1h-6.82v-.74h7.81Zm0-6.65h-6.68v1h6.88v.73h-7.88v-2.4h6.67v-.93h-6.71v-.72h7.72Z"/><path d="M518.27,383H508v-.81h4.66v-1.12h-3.29v-4.55H517v.82h-6.66v1.05h6.35v.76h-6.35v1.12h6.72v.8H513.6v1.12h4.67ZM517,385.64c0,1.18-1.41,1.8-3.89,1.8s-3.91-.62-3.91-1.8,1.4-1.81,3.91-1.8S517,384.46,517,385.64Zm-6.79,0c0,.69,1,1,2.9,1s2.89-.34,2.89-1-1-1.05-2.89-1.05S510.2,385,510.22,385.64Z"/><path d="M524.88,379H519.2v-.81h2.36v-1.61h1v1.61h2.33Zm-.38,3.33a2.45,2.45,0,1,1-4.89,0,2.45,2.45,0,1,1,4.89,0Zm-4,0A1.57,1.57,0,0,0,522,384a1.59,1.59,0,0,0,1.57-1.71,1.62,1.62,0,0,0-1.57-1.73A1.6,1.6,0,0,0,520.5,382.28Zm8.36,5.19h-1v-5.7h-1.5v5.14h-.95V376.46h.95v4.48h1.5v-4.76h1Z"/><path d="M540.69,384.21l-.6.8a6.09,6.09,0,0,1-2.89-3.57,6.53,6.53,0,0,1-2.93,3.8l-.61-.78a5.88,5.88,0,0,0,3-4.92v-1.36h-2.59v-.83h6.19v.83h-2.6v1.36A5.51,5.51,0,0,0,540.69,384.21Zm2.45,3.29h-1v-6.38h-2.48v-.82h2.48v-4.12h1Z"/><path d="M552.56,383.78l.08.73a41.55,41.55,0,0,1-7.41.5l-.14-.85A55.1,55.1,0,0,0,552.56,383.78Zm-.79-4.12a2.74,2.74,0,0,1-3,2.66c-1.78,0-3.06-1.08-3.05-2.66S547,377,548.73,377A2.74,2.74,0,0,1,551.77,379.66Zm-5.11,0a2.09,2.09,0,1,0,2.07-1.78A1.84,1.84,0,0,0,546.66,379.66Zm7.65,7.84h-1V376.18h1Z"/><path d="M565.46,381c0,2.39-1.2,3.92-2.87,3.92s-2.85-1.53-2.85-3.92,1.17-3.93,2.85-3.94S565.44,378.6,565.46,381Zm-4.78,0c0,1.84.79,3,1.91,3s1.9-1.19,1.9-3-.76-3-1.9-3.05S560.68,379.15,560.68,381Zm7.64-.31h1.9v.86h-1.9v5.92h-1V376.18h1Z"/><path d="M577,381c0,2.39-1.21,3.92-2.89,3.92s-2.89-1.53-2.89-3.92,1.2-3.93,2.89-3.94S577,378.6,577,381Zm-4.81,0c0,1.84.78,3,1.92,3s1.92-1.19,1.92-3-.79-3-1.92-3.05S572.22,379.15,572.22,381Zm7.94,6.5h-1V376.18h1Z"/><path d="M587,378h-3.34v3.8a18.15,18.15,0,0,0,3.88-.33l.09.8a20,20,0,0,1-4.23.33h-.72V377.2H587Zm5.1,9.21h-7.76v-3.65h1v2.81h6.76Zm-2.54-3h-1v-4.06h-2.32v-.82h2.32v-2.92h1Zm2.2.33h-1V376.2h1Z"/><path d="M599.59,378.05h-4.51v2.34h4.11v.81h-4.11v2.73a29.66,29.66,0,0,0,5.29-.37l.1.82a31.84,31.84,0,0,1-5.48.37h-.91v-7.54h5.51Zm3.12,9.42h-1V376.18h1Z"/><path d="M610.86,378.05h-4.52v2.34h4.11v.81h-4.11v2.73a29.66,29.66,0,0,0,5.29-.37l.11.82a31.89,31.89,0,0,1-5.49.37h-.9v-7.54h5.51Zm3.12,9.42h-1V376.18h1Z"/><path d="M626.23,382.21H615.88v-.78h10.35Zm-1.29,3.3h-6.8v1.08h7.16v.73h-8.17v-2.49h6.81v-1h-6.82v-.74h7.82Zm0-6.65h-6.68v1h6.88v.73h-7.88v-2.4h6.67v-.93h-6.7v-.72h7.71Z"/><path d="M640.78,386.09H630.42v-.83h2.89v-2.69h-1.94v-.83h1.76v-3.68h-1.79v-.82h8.45v.82H638v3.68h1.76v.83h-1.94v2.69h3ZM637,381.74v-3.68h-2.89v3.68Zm-.19,3.52v-2.69h-2.51v2.69Z"/><path d="M648.1,378.39h-6.4v-.81h2.75v-1.4h1v1.4h2.66Zm-.58,2.78c0,1.29-1.07,2.16-2.59,2.16s-2.57-.87-2.55-2.16,1-2.16,2.55-2.16S647.52,379.88,647.52,381.17Zm-4.22,0c0,.82.67,1.36,1.63,1.36a1.46,1.46,0,0,0,1.65-1.36,1.48,1.48,0,0,0-1.65-1.37C644,379.81,643.3,380.36,643.3,381.17Zm8,6.06h-7.57V384h1v2.35h6.56Zm-.25-2.43h-1v-2.42h-2v-.81h2V380h-2v-.82h2v-3h1Z"/><path d="M659.62,378.82h-6.73V378h2.91v-1.68h1V378h2.82Zm-.53,3.53a2.78,2.78,0,1,1-2.78-2.59A2.6,2.6,0,0,1,659.09,382.35Zm-4.6,0a1.82,1.82,0,0,0,3.64,0,1.82,1.82,0,0,0-3.64,0Zm7.22-1.51h1.89v.83h-1.89v5.8h-1V376.18h1Z"/><path d="M674.53,385.87H664.22V385h4v-4h1v4h5.29Zm-1.24-7.41a27.32,27.32,0,0,1-.42,5.2l-1-.11a23.36,23.36,0,0,0,.44-5.09v-.31h-7v-.82h8Z"/><path d="M682.25,384.23l-.57.79a6,6,0,0,1-2.85-3.49,6.48,6.48,0,0,1-2.93,3.77l-.61-.79a5.91,5.91,0,0,0,3-4.86v-1.47H675.7v-.83h6.16v.83h-2.55v1.47A5.43,5.43,0,0,0,682.25,384.23Zm2-3.48h1.89v.85h-1.89v5.87h-1V376.18h1Z"/><path d="M696.79,378.18H690v-.83h2.88v-1.27h1v1.27h2.88Zm-.65,2.5c0,1.2-1.1,2-2.72,2s-2.74-.78-2.73-2,1.08-2,2.73-2S696.13,379.47,696.14,380.68Zm-4.49,0c0,.73.7,1.22,1.77,1.22s1.77-.49,1.78-1.22-.73-1.22-1.78-1.21S691.63,380,691.65,380.68Zm1.05,3.77h5.17v-1.21h1v4.08h-7.15v-4.08h1Zm5.17,2.07v-1.28H692.7v1.28Zm1-7.44h1.71v.85h-1.71v2.82h-1v-6.57h1Z"/><path d="M703,383.7a26.63,26.63,0,0,0,5.41-.55l.14.85a26.66,26.66,0,0,1-5.61.56H702V377.3h1Zm7.61,3.77h-1V376.18h1Z"/><path d="M718.33,378.11H714v5.72a26.61,26.61,0,0,0,5.18-.41l.12.86a28.24,28.24,0,0,1-5.4.38H713v-7.37h5.29Zm3,2.54h1.9v.84h-1.9v6h-1V376.18h1Z"/><path d="M724.19,385.69a.82.82,0,0,1,1.63,0,.82.82,0,1,1-1.63,0Z"/><path d="M100.83,514.22h3.11a3.05,3.05,0,0,1,1.43,5.61l1.68,3.58h-1.81l-1.51-3.26h-1.26v3.26h-1.64Zm2.8,4.38c1,0,1.44-.47,1.44-1.38a1.28,1.28,0,0,0-1.44-1.44h-1.16v2.82Z"/><path d="M111.47,515.78c-1.22,0-2,1.1-2,3s.81,3.05,2.06,3.05a1.74,1.74,0,0,0,1.83-1.9h-1.72v-1.44h3.3v1.15c0,2.41-1.42,3.88-3.42,3.88-2.21,0-3.72-1.8-3.72-4.71s1.6-4.74,3.69-4.74a3.37,3.37,0,0,1,3.38,3.09h-1.66A1.69,1.69,0,0,0,111.47,515.78Z"/><path d="M116.09,514.22h3.15c1.75,0,2.62,1,2.62,2.36a1.9,1.9,0,0,1-1.42,2v.09a2,2,0,0,1,1.74,2.23,2.45,2.45,0,0,1-2.73,2.54h-3.36Zm4.11,2.67a1.06,1.06,0,0,0-1.17-1.12h-1.3v2.3H119A1.13,1.13,0,0,0,120.2,516.89Zm.28,3.81a1.24,1.24,0,0,0-1.32-1.32h-1.43v2.46h1.39C120.07,521.84,120.48,521.38,120.48,520.7Z"/><path d="M139,523.41h-1v-8h-.05L136,516.9v-1.15l2-1.53h1Z"/><path d="M140.93,521a2.24,2.24,0,0,1,1.6-2.34v0a2,2,0,0,1-1.3-2.06,2.51,2.51,0,0,1,5,0,2.06,2.06,0,0,1-1.31,2.06v0a2.28,2.28,0,0,1,1.61,2.34,2.6,2.6,0,0,1-2.82,2.56A2.57,2.57,0,0,1,140.93,521Zm4.64-.07a1.75,1.75,0,0,0-1.84-1.76,1.72,1.72,0,0,0-1.82,1.76,1.61,1.61,0,0,0,1.82,1.63A1.63,1.63,0,0,0,145.57,520.91Zm-.28-4.29a1.56,1.56,0,1,0-1.56,1.56A1.5,1.5,0,0,0,145.29,516.62Z"/><path d="M151.75,515.3v-.06h-4.18v-1h5.2v1.07l-3.62,8.12h-1Z"/><path d="M153.08,526h-.81l.6-3.46h1.06Z"/><path d="M161.16,522.58l2.7-3.31c.94-1.15,1.39-1.77,1.39-2.62a1.52,1.52,0,0,0-1.58-1.57,1.55,1.55,0,0,0-1.54,1.73h-.93a2.51,2.51,0,0,1,2.51-2.72,2.44,2.44,0,0,1,2.45,2.56c0,1-.41,1.82-1.81,3.5l-1.81,2.17v.08h3.77v1h-5.14Z"/><path d="M167.73,522.58l2.69-3.31c.94-1.15,1.39-1.77,1.39-2.62a1.52,1.52,0,0,0-1.57-1.57,1.55,1.55,0,0,0-1.54,1.73h-.93a2.51,2.51,0,0,1,2.5-2.72,2.45,2.45,0,0,1,2.46,2.56c0,1-.42,1.82-1.81,3.5l-1.82,2.17v.08h3.77v1h-5.13Z"/><path d="M179.81,518.45c0,3.26-1.15,5.09-3,5.09a2.58,2.58,0,0,1-2.56-2.45h1a1.6,1.6,0,0,0,1.59,1.43c1.29,0,2.08-1.29,2.09-3.52h-.11a2.34,2.34,0,0,1-2,1.21,2.78,2.78,0,0,1-2.59-3,2.84,2.84,0,0,1,2.77-3.09C178.3,514.11,179.81,515.06,179.81,518.45Zm-4.68-1.28a1.87,1.87,0,0,0,1.77,2,2,2,0,0,0,1.84-2.07,2,2,0,0,0-1.8-2A1.93,1.93,0,0,0,175.13,517.17Z"/><path d="M181.28,526h-.81l.6-3.46h1.06Z"/><path d="M186.55,522.58l2.7-3.31c.94-1.15,1.38-1.77,1.38-2.62a1.51,1.51,0,0,0-1.57-1.57,1.55,1.55,0,0,0-1.54,1.73h-.93a2.51,2.51,0,0,1,2.5-2.72,2.45,2.45,0,0,1,2.46,2.56c0,1-.41,1.82-1.81,3.5l-1.81,2.17v.08h3.76v1h-5.13Z"/><path d="M192.76,520.59l3.56-6.37h1.21v6.31h1.11v1h-1.11v1.88h-.94v-1.88h-3.83Zm3.83-.06v-4.86h-.09l-2.68,4.79v.07Z"/><path d="M203.82,515.3v-.06h-4.19v-1h5.2v1.07l-3.61,8.12h-1Z"/><path d="M115.87,534.6h1.64v3.81h3.43V534.6h1.65v9.19h-1.65V540h-3.43v3.81h-1.64Z"/><path d="M123.92,534.6h5.31v1.57h-3.67v2.24H129V540h-3.4v2.24h3.69v1.57h-5.33Z"/><path d="M133.65,537.76h0l1.63-3.16h1.86l-2.42,4.59,2.47,4.6h-1.9l-1.64-3.16h0L132,543.79h-1.89l2.48-4.6-2.44-4.59H132Z"/><path d="M154.46,541.25h-2l-.36,2.54h-.8l.36-2.54H150.5l.14-.91h1.16l.33-2.29H151l.12-.91h1.16l.36-2.54h.8l-.36,2.54h2l.36-2.54h.8l-.36,2.54H157l-.14.91h-1.16l-.33,2.29h1.16l-.13.91h-1.16l-.36,2.54h-.8Zm.13-.91.33-2.29h-2l-.33,2.29Z"/><path d="M158,534.6h.94V538H159a1.82,1.82,0,0,1,1.72-1.18c1.49,0,2.53,1.37,2.53,3.55s-1,3.57-2.52,3.57a1.85,1.85,0,0,1-1.73-1.19h-.1v1H158Zm2.6,8.35c1.12,0,1.71-1.14,1.71-2.61s-.56-2.55-1.71-2.55-1.68,1-1.68,2.55S159.51,543,160.59,543Z"/><path d="M164.6,534.6h.94V538h.07a1.82,1.82,0,0,1,1.72-1.18c1.48,0,2.53,1.37,2.53,3.55s-1.05,3.57-2.52,3.57a1.85,1.85,0,0,1-1.73-1.19h-.11v1h-.9Zm2.6,8.35c1.12,0,1.71-1.14,1.71-2.61s-.56-2.55-1.71-2.55-1.68,1-1.68,2.55S166.12,543,167.2,543Z"/><path d="M170.8,540.4c0-2.12,1.07-3.59,2.69-3.59,1.25,0,2.56.89,2.56,3.44v.46h-4.31c0,1.46.78,2.26,1.84,2.26a1.44,1.44,0,0,0,1.37-.79h1a2.35,2.35,0,0,1-2.38,1.75C171.86,543.93,170.8,542.52,170.8,540.4Zm4.3-.62c0-1.16-.64-2-1.61-2a1.91,1.91,0,0,0-1.74,2Z"/><path d="M177.27,541.48h.95a1.59,1.59,0,0,0,1.62,1.43,1.86,1.86,0,0,0,1.77-2,1.92,1.92,0,0,0-1.84-2.08,1.47,1.47,0,0,0-1.47.83h-1l.55-5h4.29v1h-3.47l-.29,2.7h.07a2.21,2.21,0,0,1,1.45-.54,3.11,3.11,0,0,1-.11,6.15A2.49,2.49,0,0,1,177.27,541.48Z"/><path d="M186.6,537.81h-1.31v6h-.95v-6h-1v-.91h1V536a1.6,1.6,0,0,1,1.69-1.79,5,5,0,0,1,.7.07v1a2.52,2.52,0,0,0-.49-.05c-.66,0-1,.32-1,1v.7h1.31Z"/><path d="M191.58,535.68v-.07H187.4v-1h5.2v1.07L189,543.79h-1Z"/><circle class="cls-2" cx="154.17" cy="456.31" r="37.18"/><path d="M248.53,514.22h3.1a3.05,3.05,0,0,1,1.43,5.61l1.69,3.58h-1.82l-1.5-3.26h-1.26v3.26h-1.64Zm2.8,4.38c1,0,1.44-.47,1.44-1.38a1.28,1.28,0,0,0-1.44-1.44h-1.16v2.82Z"/><path d="M259.17,515.78c-1.22,0-2.05,1.1-2.05,3s.81,3.05,2.06,3.05A1.75,1.75,0,0,0,261,520h-1.72v-1.44h3.3v1.15c0,2.41-1.42,3.88-3.42,3.88-2.22,0-3.72-1.8-3.72-4.71s1.6-4.74,3.69-4.74a3.35,3.35,0,0,1,3.37,3.09h-1.66A1.68,1.68,0,0,0,259.17,515.78Z"/><path d="M263.79,514.22h3.15c1.75,0,2.62,1,2.62,2.36a1.9,1.9,0,0,1-1.42,2v.09a2,2,0,0,1,1.74,2.23,2.45,2.45,0,0,1-2.73,2.54h-3.36Zm4.11,2.67a1.06,1.06,0,0,0-1.17-1.12h-1.3v2.3h1.27A1.13,1.13,0,0,0,267.9,516.89Zm.27,3.81a1.24,1.24,0,0,0-1.31-1.32h-1.43v2.46h1.39C267.77,521.84,268.17,521.38,268.17,520.7Z"/><path d="M286.68,523.41h-1v-8h-.05l-1.92,1.48v-1.15l2-1.53h1Z"/><path d="M291.59,523.41h-1v-8h0l-1.93,1.48v-1.15l2-1.53h1Z"/><path d="M293.5,520.59l3.56-6.37h1.21v6.31h1.1v1h-1.1v1.88h-.94v-1.88H293.5Zm3.83-.06v-4.86h-.1l-2.67,4.79v.07Z"/><path d="M300.71,526h-.81l.6-3.46h1.06Z"/><path d="M308.79,522.58l2.69-3.31c.94-1.15,1.39-1.77,1.39-2.62a1.52,1.52,0,0,0-1.57-1.57,1.55,1.55,0,0,0-1.54,1.73h-.93a2.51,2.51,0,0,1,2.5-2.72,2.45,2.45,0,0,1,2.46,2.56c0,1-.41,1.82-1.81,3.5l-1.82,2.17v.08h3.77v1H308.8Z"/><path d="M315.19,518.82c0-3,1-4.73,2.76-4.73s2.77,1.74,2.77,4.73-1,4.72-2.77,4.72S315.19,521.83,315.19,518.82Zm4.56,0c0-2.38-.66-3.74-1.8-3.74s-1.81,1.36-1.81,3.74.67,3.7,1.81,3.7S319.75,521.19,319.75,518.82Z"/><path d="M325.69,515.3v-.06H321.5v-1h5.2v1.07l-3.61,8.12h-1Z"/><path d="M327,526h-.8l.6-3.46h1.06Z"/><path d="M332.29,522.58l2.69-3.31c.94-1.15,1.39-1.77,1.39-2.62a1.52,1.52,0,0,0-1.57-1.57,1.55,1.55,0,0,0-1.54,1.73h-.93a2.51,2.51,0,0,1,2.5-2.72,2.45,2.45,0,0,1,2.46,2.56c0,1-.42,1.82-1.81,3.5l-1.82,2.17v.08h3.77v1H332.3Z"/><path d="M338.5,520.59l3.56-6.37h1.21v6.31h1.1v1h-1.1v1.88h-.94v-1.88H338.5Zm3.83-.06v-4.86h-.1l-2.67,4.79v.07Z"/><path d="M349.55,515.3v-.06h-4.18v-1h5.2v1.07L347,523.41h-1Z"/><path d="M264.42,534.6h1.63v3.81h3.43V534.6h1.65v9.19h-1.65V540h-3.43v3.81h-1.63Z"/><path d="M272.47,534.6h5.31v1.57H274.1v2.24h3.4V540h-3.4v2.24h3.69v1.57h-5.32Z"/><path d="M282.19,537.76h.05l1.63-3.16h1.86l-2.42,4.59,2.47,4.6h-1.9l-1.64-3.16h-.05l-1.64,3.16h-1.89l2.48-4.6-2.44-4.59h1.87Z"/><path d="M303,541.25h-2l-.36,2.54h-.8l.37-2.54h-1.17l.13-.91h1.17l.32-2.29h-1.15l.12-.91h1.15l.37-2.54H302l-.36,2.54h2l.36-2.54h.8l-.36,2.54h1.18l-.13.91h-1.17l-.33,2.29h1.16l-.13.91H303.8l-.36,2.54h-.8Zm.13-.91.33-2.29h-2l-.33,2.29Z"/><path d="M310.28,535.68v-.07h-4.19v-1h5.2v1.07l-3.61,8.12h-1Z"/><path d="M312.56,543l2.7-3.3c.94-1.15,1.39-1.78,1.39-2.63a1.51,1.51,0,0,0-1.58-1.56,1.55,1.55,0,0,0-1.54,1.73h-.93a2.51,2.51,0,0,1,2.51-2.72,2.44,2.44,0,0,1,2.45,2.55c0,1-.41,1.83-1.81,3.51l-1.81,2.17v.07h3.77v1h-5.14Z"/><path d="M318.86,540.38c0-2.1,1.07-3.57,2.69-3.57a2.31,2.31,0,0,1,2.36,2.17H323a1.42,1.42,0,0,0-1.4-1.21c-1.06,0-1.77,1-1.77,2.57s.69,2.61,1.77,2.61a1.38,1.38,0,0,0,1.4-1.19h.94a2.31,2.31,0,0,1-2.34,2.17C319.89,543.93,318.86,542.44,318.86,540.38Z"/><path d="M327.72,537.81h-1.31v6h-1v-6h-.95v-.91h.95V536a1.61,1.61,0,0,1,1.7-1.79,4.73,4.73,0,0,1,.69.07v1a2.45,2.45,0,0,0-.49-.05c-.65,0-.95.32-.95,1v.7h1.31Z"/><path d="M331.49,537.81h-1.31v6h-.95v-6h-1v-.91h1V536a1.61,1.61,0,0,1,1.7-1.79,4.88,4.88,0,0,1,.69.07v1a2.45,2.45,0,0,0-.49-.05c-.65,0-.95.32-.95,1v.7h1.31Z"/><path d="M336.48,535.68v-.07h-4.19v-1h5.2v1.07l-3.62,8.12h-1Z"/><circle class="cls-3" cx="300.89" cy="456.31" r="37.18"/><path d="M402.9,514.22H406a3.05,3.05,0,0,1,1.43,5.61l1.68,3.58h-1.81l-1.51-3.26h-1.26v3.26H402.9Zm2.8,4.38c1,0,1.44-.47,1.44-1.38a1.28,1.28,0,0,0-1.44-1.44h-1.16v2.82Z"/><path d="M413.54,515.78c-1.22,0-2.05,1.1-2.05,3s.81,3.05,2.06,3.05a1.74,1.74,0,0,0,1.83-1.9h-1.72v-1.44H417v1.15c0,2.41-1.42,3.88-3.42,3.88-2.21,0-3.72-1.8-3.72-4.71s1.6-4.74,3.69-4.74a3.37,3.37,0,0,1,3.38,3.09h-1.66A1.69,1.69,0,0,0,413.54,515.78Z"/><path d="M418.16,514.22h3.15c1.75,0,2.62,1,2.62,2.36a1.9,1.9,0,0,1-1.42,2v.09a2,2,0,0,1,1.74,2.23,2.45,2.45,0,0,1-2.73,2.54h-3.36Zm4.11,2.67a1.06,1.06,0,0,0-1.17-1.12h-1.3v2.3h1.27A1.13,1.13,0,0,0,422.27,516.89Zm.28,3.81a1.24,1.24,0,0,0-1.32-1.32H419.8v2.46h1.39C422.14,521.84,422.55,521.38,422.55,520.7Z"/><path d="M441.05,523.41h-1v-8H440l-1.92,1.48v-1.15l2-1.53h1Z"/><path d="M443,520.59l3.57-6.37h1.21v6.31h1.1v1h-1.1v1.88h-.94v-1.88H443Zm3.84-.06v-4.86h-.1L444,520.46v.07Z"/><path d="M450.17,526h-.8l.6-3.46H451Z"/><path d="M458.13,519.17c0-3.25,1.15-5.08,3-5.08a2.58,2.58,0,0,1,2.56,2.44h-1a1.62,1.62,0,0,0-1.59-1.42c-1.3,0-2.08,1.3-2.08,3.5h.1a2.34,2.34,0,0,1,2-1.21,2.79,2.79,0,0,1,2.58,3,2.84,2.84,0,0,1-2.75,3.1C459.64,523.51,458.13,522.58,458.13,519.17Zm4.69,1.29A1.91,1.91,0,0,0,461,518.4a2,2,0,0,0-1.85,2.07,1.83,1.83,0,1,0,3.63,0Z"/><path d="M465,518.82c0-3,1-4.73,2.76-4.73s2.77,1.74,2.77,4.73-1,4.72-2.77,4.72S465,521.83,465,518.82Zm4.57,0c0-2.38-.67-3.74-1.81-3.74s-1.81,1.36-1.81,3.74.67,3.7,1.81,3.7S469.52,521.19,469.52,518.82Z"/><path d="M471.9,526h-.8l.6-3.46h1.06Z"/><path d="M482.69,518.45c0,3.26-1.15,5.09-3,5.09a2.59,2.59,0,0,1-2.57-2.45h1a1.61,1.61,0,0,0,1.6,1.43c1.29,0,2.07-1.29,2.08-3.52h-.1a2.34,2.34,0,0,1-2,1.21,2.78,2.78,0,0,1-2.59-3,2.84,2.84,0,0,1,2.77-3.09C481.18,514.11,482.69,515.06,482.69,518.45ZM478,517.17a1.87,1.87,0,0,0,1.77,2,2,2,0,0,0,1.83-2.07,1.94,1.94,0,0,0-1.8-2A1.92,1.92,0,0,0,478,517.17Z"/><path d="M483.92,519.17c0-3.25,1.14-5.08,3-5.08a2.59,2.59,0,0,1,2.57,2.44h-1a1.62,1.62,0,0,0-1.59-1.42c-1.3,0-2.08,1.3-2.08,3.5h.1a2.34,2.34,0,0,1,2-1.21,2.79,2.79,0,0,1,2.58,3,2.84,2.84,0,0,1-2.75,3.1C485.42,523.51,483.92,522.58,483.92,519.17Zm4.68,1.29a1.91,1.91,0,0,0-1.78-2.06,2,2,0,0,0-1.85,2.07,2,2,0,0,0,1.83,2.07A1.94,1.94,0,0,0,488.6,520.46Z"/><path d="M407.72,534.6h1.64v3.81h3.43V534.6h1.65v9.19h-1.65V540h-3.43v3.81h-1.64Z"/><path d="M415.77,534.6h5.31v1.57h-3.67v2.24h3.4V540h-3.4v2.24h3.68v1.57h-5.32Z"/><path d="M425.49,537.76h.06l1.62-3.16H429l-2.41,4.59,2.47,4.6h-1.9l-1.64-3.16h-.06l-1.64,3.16H422l2.48-4.6L422,534.6h1.87Z"/><path d="M446.3,541.25h-2l-.36,2.54h-.8l.36-2.54h-1.17l.13-.91h1.17l.33-2.29h-1.16l.12-.91h1.16l.36-2.54h.8l-.36,2.54h2l.36-2.54h.8l-.36,2.54h1.18l-.13.91h-1.17l-.33,2.29h1.16l-.13.91H447.1l-.36,2.54h-.8Zm.14-.91.32-2.29h-2l-.32,2.29Z"/><path d="M449.53,539.19c0-3,1-4.72,2.76-4.72s2.76,1.74,2.76,4.72-1,4.73-2.76,4.73S449.53,542.2,449.53,539.19Zm4.56,0c0-2.37-.66-3.73-1.8-3.73s-1.81,1.36-1.81,3.73.66,3.71,1.81,3.71S454.09,541.57,454.09,539.19Z"/><path d="M456.09,540.4c0-2.12,1.07-3.59,2.69-3.59,1.25,0,2.56.89,2.56,3.44v.46H457c.05,1.46.78,2.26,1.84,2.26a1.44,1.44,0,0,0,1.37-.79h1a2.35,2.35,0,0,1-2.38,1.75C457.15,543.93,456.09,542.52,456.09,540.4Zm4.3-.62c0-1.16-.64-2-1.61-2a1.91,1.91,0,0,0-1.74,2Z"/><path d="M462.53,541.48h1a1.6,1.6,0,0,0,1.75,1.42,1.65,1.65,0,0,0,1.8-1.61,1.7,1.7,0,0,0-1.92-1.71h-.65v-1h.65a1.52,1.52,0,0,0,1.63-1.57,1.42,1.42,0,0,0-1.48-1.54,1.58,1.58,0,0,0-1.66,1.45h-.95a2.52,2.52,0,0,1,2.62-2.44,2.35,2.35,0,0,1,2.42,2.47,2,2,0,0,1-1.35,2.08v.06a2,2,0,0,1,1.65,2.21,2.62,2.62,0,0,1-2.75,2.63A2.54,2.54,0,0,1,462.53,541.48Z"/><path d="M469.18,540.38c0-2.1,1.07-3.57,2.69-3.57a2.32,2.32,0,0,1,2.36,2.17h-.94a1.42,1.42,0,0,0-1.4-1.21c-1.06,0-1.77,1-1.77,2.57s.69,2.61,1.77,2.61a1.39,1.39,0,0,0,1.4-1.19h.94a2.32,2.32,0,0,1-2.34,2.17C470.21,543.93,469.18,542.44,469.18,540.38Z"/><path d="M475.24,539.55c0-3.25,1.15-5.08,3-5.08a2.59,2.59,0,0,1,2.57,2.44h-1a1.62,1.62,0,0,0-1.59-1.42c-1.3,0-2.08,1.29-2.08,3.5h.1a2.35,2.35,0,0,1,2-1.22,2.8,2.8,0,0,1,2.58,3.05,2.84,2.84,0,0,1-2.75,3.1C476.75,543.89,475.24,543,475.24,539.55Zm4.69,1.28a1.9,1.9,0,0,0-1.78-2.05,2,2,0,0,0-1.85,2.07,2,2,0,0,0,1.83,2.06A1.94,1.94,0,0,0,479.93,540.83Z"/><path d="M482.06,539.19c0-3,1-4.72,2.76-4.72s2.77,1.74,2.77,4.72-1,4.73-2.77,4.73S482.06,542.2,482.06,539.19Zm4.57,0c0-2.37-.67-3.73-1.81-3.73s-1.81,1.36-1.81,3.73.67,3.71,1.81,3.71S486.63,541.57,486.63,539.19Z"/><circle class="cls-1" cx="447.6" cy="456.31" r="37.18"/></svg>