<svg id="Layer_1" data-name="Layer 1" xmlns="http://www.w3.org/2000/svg" viewBox="0 0 960 720"><defs><style>.cls-1{fill:#bbe5f7;}.cls-2{fill:#fff;}</style></defs><rect class="cls-1" width="960" height="720"/><circle class="cls-2" cx="437.18" cy="307.44" r="6.23"/><path class="cls-2" d="M521.07,323.35a4.83,4.83,0,0,0,4.82-4.85h0a4.83,4.83,0,0,0-4.85-4.83l-21.9.06h-.3a4.83,4.83,0,0,0-4.83,4.85l.09,36a4.84,4.84,0,0,0,4.86,4.83,6,6,0,0,0,.61,0l21.59-.06a4.84,4.84,0,0,0,4.83-4.85h0a4.84,4.84,0,0,0-4.86-4.83l-17.36,0,0-9,17.36,0a4.85,4.85,0,0,0,0-9.69l-17.37.05,0-7.59Z"/><path class="cls-2" d="M476.54,328.94h-.06a16.46,16.46,0,0,0-6.67,1.42,4.84,4.84,0,0,0-8.55,3.13l.06,21.9a4.84,4.84,0,0,0,9.68,0l0-14.93a6.52,6.52,0,0,1,5.53-2.65h.06c3.3,0,6.08,2,6.09,4.39l0,13.49a4.42,4.42,0,1,0,8.84,0l0-13.49C491.46,334.85,484.76,328.92,476.54,328.94Z"/><path class="cls-2" d="M437.12,316.87A22.78,22.78,0,1,0,460,339.59,22.79,22.79,0,0,0,437.12,316.87Zm.09,34.7a11.92,11.92,0,1,1,11.89-12A11.93,11.93,0,0,1,437.21,351.57Z"/><rect class="cls-2" x="530.6" y="320.77" width="9.68" height="8.69" rx="3.79" transform="translate(211.72 861.4) rotate(-90.15)"/><path class="cls-2" d="M539.77,337.49a4.34,4.34,0,0,0-4.3-3.66h0a4.34,4.34,0,0,0-4.34,4.35v1a4.33,4.33,0,0,0,4.35,4.33h0a4.33,4.33,0,0,0,1.4-.24l0,9.71a2.8,2.8,0,0,1-2.87,2.73,1.4,1.4,0,1,0,0,2.8,5.68,5.68,0,0,0,5.8-5.54l0-13.82v-1.3A1.49,1.49,0,0,0,539.77,337.49Z"/><path class="cls-2" d="M398,405.34l-24.4.07v-3.14l10.26,0,0-4.8-8.23,0v-2.93h3.58l0-7.61h-3.69v-3l20.45-.06v3h-3.75v7.62h3.64v2.93l-8.27,0,0,4.8,10.43,0ZM388.5,394.5l0-7.62-5.56,0,0,7.61Z"/><path class="cls-2" d="M424,405.13l-24.4.06v-3.05l24.4-.06Zm-2.68-6.82-18.87.05,0-14.77,18.66,0v3l-14.85,0v2.81l14.23,0v2.92l-14.24,0v3.05l15.06,0Z"/><path class="cls-2" d="M447.57,384.91h-3.49v3.52h3.31v2.78l-8,0v1.67l10.31,0v2.9l-24.32.07v-2.9l10.26,0v-1.67l-7.94,0v-2.78H431V385h-3.46v-2.75l20,0Zm-.74,18.81-14.85,0v1.52l15.55,0V408l-19.22.05v-6.8l14.82,0v-1.35l-14.86,0v-2.66l18.54-.05Zm-6.49-15.27v-3.52h-5.56v3.52Z"/><path class="cls-2" d="M465.46,394l-8.78,0v4.89a69.56,69.56,0,0,0,11.42-.91l.33,3a73.84,73.84,0,0,1-13.21,1h-2.4l0-10.93,8.85,0v-4.31l-8.88,0v-3l12.69,0Zm8.3,14.19H470L470,381.45h3.72Z"/><path class="cls-2" d="M499.5,390.05c0,4-3.4,6.73-8.19,7.29l0,4.54,10.4,0v3.08l-24.4.06v-3.08l10.29,0,0-4.57c-4.77-.5-8.15-3.22-8.16-7.22,0-4.39,4.26-7.3,10-7.32S499.46,385.66,499.5,390.05Zm-16.38,0c0,2.81,2.62,4.39,6.34,4.38s6.33-1.6,6.35-4.41-2.62-4.3-6.37-4.29S483.11,387.43,483.12,390.09Z"/><path class="cls-2" d="M512.22,403.43l-2-3c6.87-3.27,9.9-7.5,10.48-13.41l-9.08,0v-2.93l12.89,0C524.55,392.18,521.73,398.9,512.22,403.43ZM532.59,408h-3.78l-.07-26.66h3.78Z"/><path class="cls-2" d="M551.56,390.59c0,2-1.9,3.43-4.82,3.85v1.26c2.14-.1,4.28-.26,6.3-.52l.27,2.49a99.24,99.24,0,0,1-16.61,1.13l-.51-2.84c2.07,0,4.4,0,6.83-.11v-1.4c-3-.41-4.83-1.79-4.81-3.83,0-2.49,2.63-4.05,6.67-4.06S551.52,388.1,551.56,390.59Zm1.22-4.66L537,386v-2.73h6v-2.14h3.72v2.14l6.06,0Zm5.74,21.95h-3.81v-4.68l-14.74,0v-2.87l18.55,0ZM541.8,390.61c0,1,1.18,1.46,3.08,1.46s3.08-.51,3.08-1.47-1.27-1.55-3.08-1.55S541.8,389.56,541.8,390.61Zm16.7,8.66h-3.81l-.05-18h3.81Z"/><path class="cls-2" d="M578.56,399l-2.27,3a12.16,12.16,0,0,1-6.06-7.37c-1.16,3.49-3.2,6.35-6.25,7.87l-2.35-3c4.57-2.07,6.63-7.23,6.65-12.24v-4h3.78v4C572.07,392.23,574.11,397.09,578.56,399Zm6,8.87h-3.69l0-15.32-5.24,0v-3l5.24,0,0-8.37h3.69Z"/></svg>