<svg id="Layer_1" data-name="Layer 1" xmlns="http://www.w3.org/2000/svg" viewBox="0 0 960 720"><defs><style>.cls-1{fill:#0e3c60;}.cls-2{fill:#bbe5f7;}.cls-3{fill:#fff;}.cls-4{fill:#99c1d8;}.cls-5{fill:#7ebbdf;}.cls-6{fill:#888;}</style></defs><path d="M104.39,381.27c-2.37,0-4.07-1.82-4.07-4.73s1.7-4.72,4.07-4.72,4.07,1.82,4.07,4.72S106.74,381.27,104.39,381.27Zm0-8.38c-1.67,0-3,1.28-3,3.65s1.3,3.66,3,3.66,3-1.28,3-3.66S106.06,372.89,104.39,372.89Z"/><path d="M111.1,381.14H110v-6.89h1.06v1.08h.09a2,2,0,0,1,2-1.17c1.4,0,2.33.85,2.33,2.6v4.38h-1.09v-4.3a1.51,1.51,0,0,0-1.57-1.71A1.69,1.69,0,0,0,111.1,377Z"/><path d="M117.4,372H123v1h-4.44V376h4.15v1h-4.15v3.08h4.51v1H117.4Z"/><path d="M134.54,377.65H124.23v-.81h10.31Zm-1.16-4.13c0,1.41-1.56,2.25-4,2.25s-4-.84-4-2.25,1.55-2.24,4-2.23S133.38,372.11,133.38,373.52Zm0,8.41h-7.83v-3.29h1v2.45h6.82Zm-7-8.41c0,.89,1.16,1.44,3,1.44s3-.55,3-1.44-1.18-1.43-3-1.43S126.4,372.63,126.41,373.52Z"/><path d="M144.53,378.91l-.61.73a5.42,5.42,0,0,1-2.29-3.32,6,6,0,0,1-2.36,3.59l-.64-.75a5.89,5.89,0,0,0,2.49-5.05V373H139v-.83h5.22V373h-2.08v1.07A5.54,5.54,0,0,0,144.53,378.91Zm1.62,2.67h-.94v-5.81H143.3V375h1.91v-3.8h.94Zm2.29.59h-.95V370.88h.95Z"/><path d="M159.5,375.69c0,2.4-1.21,3.93-2.89,3.93s-2.88-1.53-2.88-3.93,1.19-3.92,2.88-3.93S159.5,373.29,159.5,375.69Zm-4.81,0c0,1.84.79,3,1.92,3s1.93-1.2,1.93-3-.79-3-1.93-3S154.69,373.85,154.69,375.69Zm7.94,6.5h-1V370.88h1Z"/><path d="M174.92,377.53H164.56v-.82h10.36Zm-1.34-3.7H166.9V375h6.92v.77h-7.91v-2.65h6.66V372h-6.7v-.8h7.71Zm0,8.19H166v-3.46h7.61ZM167,381.2h5.65v-1.82H167Z"/><path d="M183.37,378.47l.07.74a41.44,41.44,0,0,1-7.4.5l-.14-.86A53.52,53.52,0,0,0,183.37,378.47Zm-.79-4.11a2.74,2.74,0,0,1-3,2.65c-1.78,0-3.07-1.08-3.06-2.65s1.28-2.65,3.06-2.65A2.74,2.74,0,0,1,182.58,374.36Zm-5.12,0a2.09,2.09,0,1,0,2.08-1.78A1.86,1.86,0,0,0,177.46,374.36Zm7.65,7.83h-1V370.88h1Z"/><path d="M194.66,378.91a30.94,30.94,0,0,0,3.24-.3l.08.74a42.28,42.28,0,0,1-7.41.48l-.14-.82c.95,0,2.07,0,3.25-.05v-2.12h1Zm2.66-5.72h-2.66a3.58,3.58,0,0,0,2.91,3.13l-.47.78a4.46,4.46,0,0,1-2.92-2.42,4.46,4.46,0,0,1-2.92,2.52l-.48-.76a3.61,3.61,0,0,0,2.87-3.25h-2.59v-.82h2.62V371h1v1.4h2.66Zm2.33,9h-1V370.88h1Z"/><path d="M208.75,378.93l-.56.79a5.93,5.93,0,0,1-3-3.47,6.49,6.49,0,0,1-3,3.75l-.6-.79a5.91,5.91,0,0,0,3.05-4.86v-1.47H202v-.83h6.38v.83h-2.7v1.47A5.33,5.33,0,0,0,208.75,378.93Zm2.21,3.24h-1V370.88h1Z"/><path d="M213.85,375.41h-.94l.7-3.45h1.24Z"/><path d="M223.08,375.79l.06.73c-1,.16-2.06.26-3.1.32v2.23h-1v-2.18c-1.14.05-2.23.05-3.18.05l-.14-.82A63.46,63.46,0,0,0,223.08,375.79Zm-.85-2.47c0,1.21-1.15,1.95-2.8,1.95s-2.8-.74-2.8-1.95,1.13-2,2.8-2S222.22,372.14,222.23,373.32Zm3.15,8.61h-8v-3.3h1v2.46h7Zm-7.8-8.61c0,.74.74,1.22,1.85,1.22s1.83-.48,1.84-1.22-.77-1.22-1.84-1.21S217.57,372.6,217.58,373.32Zm7.52,6.14h-1V378.3h-2.34v-.73h2.34v-6.68h1Z"/><path d="M228,375.41h-.95l.7-3.45H229Z"/><path d="M237.34,381.6h-1v-5.49h-1.45c-.11,2.2-1,3.57-2.44,3.57s-2.43-1.52-2.43-3.92.95-3.93,2.43-3.93,2.3,1.33,2.43,3.46h1.46v-4.17h1ZM231,375.76c0,1.82.57,3,1.49,3s1.5-1.15,1.5-3-.59-3-1.5-3S231,373.92,231,375.76Zm8.61,6.41h-1V370.88h1Z"/><path d="M248.12,378.77l-.6.81a6.07,6.07,0,0,1-2.85-3.62,6.37,6.37,0,0,1-2.85,3.82l-.65-.8a6,6,0,0,0,3-5.06v-2.06h1v2.06A5.57,5.57,0,0,0,248.12,378.77Zm2.44,3.42h-1v-6.64h-2.69v-.81h2.69v-3.86h1Z"/><path d="M266.06,376.86h-4.72v1.27h-1v-1.27h-4.64V376h10.34Zm-.61-2.45-.37.78a5.79,5.79,0,0,1-4.19-2.37,5.86,5.86,0,0,1-4.22,2.37l-.37-.78c2-.24,4.06-1.43,4.06-2.86V371h1v.53C261.39,373,263.46,374.17,265.45,374.41Zm-.21,6.95-.32.76c-1.79-.19-3.4-.88-4.07-2a5.47,5.47,0,0,1-4.05,2l-.33-.76c2-.21,3.87-1.12,3.87-2.35v-.37h1V379C261.36,380.25,263.19,381.15,265.24,381.36Z"/><path d="M273.75,378.93l-.57.79a6,6,0,0,1-2.85-3.49A6.48,6.48,0,0,1,267.4,380l-.61-.79a5.91,5.91,0,0,0,3-4.86v-1.47H267.2v-.83h6.16v.83h-2.55v1.47A5.43,5.43,0,0,0,273.75,378.93Zm2-3.48h1.89v.85h-1.89v5.87h-1V370.88h1Z"/><path d="M285.18,381.14H284v-8H284l-2.24,1.49v-1.16L284,372h1.15Z"/><path d="M294.77,378.47l.07.74a41.44,41.44,0,0,1-7.4.5l-.14-.86A53.59,53.59,0,0,0,294.77,378.47Zm-.79-4.11a2.74,2.74,0,0,1-3,2.65c-1.78,0-3.07-1.08-3.06-2.65s1.28-2.65,3.06-2.65A2.74,2.74,0,0,1,294,374.36Zm-5.12,0a2.09,2.09,0,1,0,2.08-1.78A1.86,1.86,0,0,0,288.86,374.36Zm7.65,7.83h-1V370.88h1Z"/><path d="M309.3,378.47l.08.74a41.49,41.49,0,0,1-7.41.5l-.14-.86A53.45,53.45,0,0,0,309.3,378.47Zm-.79-4.11a2.74,2.74,0,0,1-3,2.65c-1.78,0-3.06-1.08-3.05-2.65s1.27-2.65,3.05-2.65A2.74,2.74,0,0,1,308.51,374.36Zm-5.11,0a2.09,2.09,0,1,0,2.07-1.78A1.85,1.85,0,0,0,303.4,374.36Zm7.65,7.83h-1V370.88h1Z"/><path d="M318.93,379.34H313.7V372h5.23Zm-4.25-.82H318V372.8h-3.27Zm7.68,3.67h-1V370.88h1Z"/><path d="M334.65,376.91H324.29v-.79h10.36Zm-1.3,3.3h-6.8v1.08h7.17V382h-8.17v-2.49h6.8v-1h-6.82v-.75h7.82Zm0-6.65h-6.68v1h6.88v.72h-7.87v-2.39h6.66V372h-6.7v-.73h7.71Z"/><path d="M347.92,378.59h-6.79v1h6.52v.71h-6.52v1h6.92V382h-7.93v-4.2h3.36v-1.19h-4.65v-.8h10.31v.8h-4.67v1.19h3.45Zm-6.72-6.39h5.6v-1.12h1v3.83h-7.58v-3.83h1Zm5.6,1.91V373h-5.6v1.13Z"/><path d="M355.51,373.41h3v-2.53h1v11.31h-1v-4.38h-2.91a2.61,2.61,0,0,1-2.44,1.81c-1.67,0-2.84-1.53-2.84-3.93s1.17-3.92,2.84-3.93A2.6,2.6,0,0,1,355.51,373.41Zm-4.25,2.28c0,1.84.76,3,1.88,3s1.88-1.2,1.88-3-.77-3-1.88-3S351.26,373.85,351.26,375.69Zm4.71,0a6.58,6.58,0,0,1-.13,1.3h2.65v-2.74H355.8A6.39,6.39,0,0,1,356,375.69Z"/><path d="M368.3,378.77l-.6.81a6.11,6.11,0,0,1-2.85-3.62,6.34,6.34,0,0,1-2.85,3.82l-.65-.8a5.92,5.92,0,0,0,3-5.06v-2.06h1v2.06A5.57,5.57,0,0,0,368.3,378.77Zm2.44,3.42h-1v-6.64h-2.68v-.81h2.68v-3.86h1Z"/><path d="M381.61,377.1h-5.23v-5.19h5.23Zm-4.25-.8h3.29v-3.58h-3.29Zm7.91,5.63h-7.6v-3.56h1v2.72h6.62Zm-.53-7.61h1.71v.84h-1.71v4h-1v-8.28h1Z"/><path d="M397.49,376.43H387.16v-.8h10.33Zm-1.34,3.63h-6.72v1.17h7.06V382h-8.05v-2.73h6.73v-1.09h-6.76v-.77h7.74Zm.1-5.36h-7.71v-3.42h7.6v.8h-6.6v1.81h6.71Z"/><path d="M404.42,373.73h2.38v-2.85h1v6.45h-1v-2.78h-2.36a2.75,2.75,0,0,1-2.89,2.26,2.65,2.65,0,1,1,0-5.28A2.74,2.74,0,0,1,404.42,373.73Zm-.48,7.41a3.39,3.39,0,0,0,1.64-2.69v-.69h1v.69a3.12,3.12,0,0,0,2.32,2.83l-.52.75a3.8,3.8,0,0,1-2.3-2.16,3.93,3.93,0,0,1-2.11,2.25,3.59,3.59,0,0,1-2.12-2.2,4,4,0,0,1-2.27,2.11l-.49-.75a3.29,3.29,0,0,0,2.3-2.83v-.69h.95v.69A3.12,3.12,0,0,0,403.94,381.14Zm-4.35-7a2,2,0,0,0,3.9,0,2,2,0,0,0-3.9,0Z"/><path d="M420,376.86H409.69V376H420Zm-.58-2.42-.37.8a5.83,5.83,0,0,1-4.19-2.43,5.86,5.86,0,0,1-4.2,2.43l-.38-.8c2-.27,4.06-1.46,4.06-2.9V371h1v.53C415.37,372.94,417.43,374.18,419.42,374.44ZM412,379h5.65v-1.32h1V382H411v-4.36h1Zm5.65,2.24v-1.45H412v1.45Z"/><path d="M422.68,378.4a26.7,26.7,0,0,0,5.41-.55l.14.85a26.82,26.82,0,0,1-5.62.56h-.91V372h1Zm7.61,3.77h-1V370.88h1Z"/><path d="M438,372.81h-4.29v5.71a26.65,26.65,0,0,0,5.18-.4l.13.86a28.35,28.35,0,0,1-5.41.38h-.89V372H438Zm3,2.54h1.9v.84H441v6h-1V370.88h1Z"/><path d="M443.87,380.39a.81.81,0,0,1,.81-.81.82.82,0,1,1-.81.81Z"/><path d="M104.39,401.27c-2.37,0-4.07-1.82-4.07-4.73s1.7-4.72,4.07-4.72,4.07,1.82,4.07,4.72S106.74,401.27,104.39,401.27Zm0-8.38c-1.67,0-3,1.28-3,3.65s1.3,3.66,3,3.66,3-1.28,3-3.66S106.06,392.89,104.39,392.89Z"/><path d="M111.1,401.14H110v-6.89h1.06v1.08h.09a2,2,0,0,1,2-1.17c1.4,0,2.33.85,2.33,2.6v4.38h-1.09v-4.3a1.51,1.51,0,0,0-1.57-1.71A1.69,1.69,0,0,0,111.1,397Z"/><path d="M117.4,392H123v1h-4.44V396h4.15v1h-4.15v3.08h4.51v1H117.4Z"/><path d="M126.77,391.55h1a12,12,0,0,0,0,12.18h-1a11,11,0,0,1,0-12.18Z"/><path d="M132.34,401.14h-1.16v-8h-.05l-2.24,1.49v-1.16l2.29-1.52h1.16Z"/><path d="M135.38,403.73h-1a12,12,0,0,0,0-12.18h1a11,11,0,0,1,0,12.18Z"/><path d="M149.14,397.65H138.83v-.81h10.31ZM148,393.52c0,1.41-1.56,2.25-4,2.25s-4-.84-4-2.25,1.55-2.24,4-2.23S148,392.11,148,393.52Zm0,8.41h-7.83v-3.29h1v2.45H148Zm-7-8.41c0,.89,1.16,1.44,3,1.44s3-.55,3-1.44-1.17-1.43-3-1.43S141,392.63,141,393.52Z"/><path d="M163.92,398.71H161.6v3.69h-2.07v-3.69h-2v3.69h-2.08v-3.69h-2.24v-1.62h10.74Zm-1-5c0,1.6-1.83,2.62-4.39,2.62s-4.36-1-4.35-2.62S156,391,158.51,391,162.9,392.06,162.9,393.71Zm-6.64,0c0,.69.84,1,2.25,1s2.27-.34,2.27-1-.83-1.09-2.27-1.09S156.26,393,156.26,393.71Z"/><path d="M171,393.69c0,1.57-1.39,2.71-3.21,2.71s-3.23-1.14-3.22-2.71S166,391,167.79,391A2.91,2.91,0,0,1,171,393.69Zm3.37,6.61h-6v.41h6.27v1.58h-8.27v-3.45h6v-.4h-6v-1.55h8Zm-7.83-6.61c0,.72.52,1.09,1.25,1.09s1.23-.37,1.23-1.09-.51-1.08-1.23-1.09S166.53,393,166.54,393.69Zm7.83,2.77h-2.05v-5.81h2.05Z"/><path d="M182.66,393.36h-7v-1.58h2.46v-1.13h2v1.13h2.46Zm-.55,2.59c0,1.37-1.22,2.3-2.94,2.28s-3-.91-3-2.28,1.24-2.33,3-2.33S182.11,394.58,182.11,396Zm3.36,6.28h-8.15v-3.46h2.05v1.84h6.1ZM178.2,396c0,.53.38.76,1,.76s1-.23,1-.76-.4-.78-1-.79S178.2,395.41,178.2,396Zm6.92-1.84h1.47v1.65h-1.47v3.67h-2v-8.75h2Z"/><path d="M196.61,393.94h-6.86v-1.61h2.43v-1.46h2v1.46h2.4Zm-.34,3.31a3.09,3.09,0,1,1-3.07-2.85A2.89,2.89,0,0,1,196.27,397.25Zm-4.21,0a1.13,1.13,0,1,0,2.25,0,1.13,1.13,0,1,0-2.25,0Zm7.14-2.14h1.59v1.66H199.2v5.63h-2V390.65h2Z"/><path d="M203.42,397.89a26.37,26.37,0,0,0,4.43-.48l.2,1.69a27.84,27.84,0,0,1-5.6.47h-1.07v-7.81h2Zm8.55-1.28h-1.5v5.76h-2.05V390.65h2.05V395H212Z"/><path d="M222.88,396.91H212.52v-.79h10.36Zm-1.3,3.3h-6.8v1.08H222V402h-8.17v-2.49h6.81v-1h-6.83v-.75h7.82Zm0-6.65h-6.68v1h6.88v.72h-7.87v-2.39h6.67V392h-6.71v-.73h7.71Z"/><path d="M234.6,398.47l.08.74a41.55,41.55,0,0,1-7.41.5l-.14-.86A53.52,53.52,0,0,0,234.6,398.47Zm-.79-4.11a2.74,2.74,0,0,1-3,2.65c-1.78,0-3.07-1.08-3.05-2.65s1.27-2.65,3.05-2.65A2.74,2.74,0,0,1,233.81,394.36Zm-5.11,0a2.09,2.09,0,1,0,2.07-1.78A1.85,1.85,0,0,0,228.7,394.36Zm7.64,7.83h-1V390.88h1Z"/><path d="M244.22,399.34H239V392h5.23Zm-4.25-.82h3.27V392.8H240Zm7.69,3.67h-1V390.88h1Z"/><path d="M256.26,393.52h-6.73v-.82h2.92V391h1v1.68h2.82Zm-.53,3.53a2.78,2.78,0,1,1-2.77-2.59A2.59,2.59,0,0,1,255.73,397.05Zm-4.59,0a1.69,1.69,0,0,0,1.82,1.74,1.72,1.72,0,0,0,1.82-1.74A1.75,1.75,0,0,0,253,395.3,1.72,1.72,0,0,0,251.14,397.05Zm7.21-1.51h1.9v.83h-1.9v5.8h-1V390.88h1Z"/><path d="M271.17,400.57H260.86v-.83h4.05v-4h1v4h5.28Zm-1.24-7.42a27.36,27.36,0,0,1-.42,5.21l-1-.11a23.93,23.93,0,0,0,.43-5.1v-.3h-7V392h8Z"/><path d="M281.59,394.2a3,3,0,1,1-3-2.65A2.69,2.69,0,0,1,281.59,394.2Zm-.75,6.93a3.37,3.37,0,0,0,1.64-2.67v-.62h1v.62a3.15,3.15,0,0,0,2.31,2.82l-.5.74a3.78,3.78,0,0,1-2.31-2.14,3.88,3.88,0,0,1-2.09,2.22,3.59,3.59,0,0,1-2.14-2.19,4,4,0,0,1-2.26,2.11l-.51-.74a3.31,3.31,0,0,0,2.3-2.82v-.62h1v.62A3.08,3.08,0,0,0,280.84,401.13Zm-4.2-6.93a2,2,0,0,0,4,0,2,2,0,0,0-4,0Zm8.1,3.14h-1v-6.45h1Z"/><path d="M297,400.67H286.66v-.84H297ZM296,394.72c0,1.87-1.77,3.11-4.13,3.09s-4.14-1.22-4.14-3.09,1.77-3.1,4.14-3.1S296,392.85,296,394.72Zm-7.32,0c0,1.37,1.37,2.28,3.19,2.28s3.16-.91,3.16-2.28-1.36-2.3-3.16-2.29S288.62,393.37,288.63,394.72Z"/><path d="M303.54,393.6h2.77v-2.72h1v11.31h-1v-4.66h-2.77v1.78h-5.16V392h5.16Zm-4.16,4.91h3.19V392.8h-3.19Zm6.93-1.8v-2.29h-2.77v2.29Z"/><path d="M310.06,403.74h-.95l.7-3.45h1.24Z"/><path d="M320.08,401.27c-2.37,0-4.07-1.82-4.07-4.73s1.7-4.72,4.07-4.72,4.07,1.82,4.07,4.72S322.43,401.27,320.08,401.27Zm0-8.38c-1.67,0-3,1.28-3,3.65s1.3,3.66,3,3.66,3-1.28,3-3.66S321.75,392.89,320.08,392.89Z"/><path d="M326.79,401.14h-1.1v-6.89h1.06v1.08h.09a2,2,0,0,1,2-1.17c1.4,0,2.33.85,2.33,2.6v4.38H330.1v-4.3a1.51,1.51,0,0,0-1.57-1.71,1.69,1.69,0,0,0-1.74,1.87Z"/><path d="M333.09,392h5.58v1h-4.44V396h4.15v1h-4.15v3.08h4.51v1h-5.65Z"/><path d="M350.23,396.58H339.92v-.81h10.31ZM349.07,393c0,1.28-1.47,2-4,2s-4-.7-4-2,1.49-1.95,4-1.95S349.07,391.77,349.07,393Zm-.16,7.06h-6.72v1.16h7.06V402H341.2v-2.69h6.73v-1h-6.76v-.76h7.74Zm-6.8-7.06c0,.78,1.08,1.22,3,1.22s3-.44,3-1.22-1.1-1.2-3-1.2S342.1,392.29,342.11,393Z"/><path d="M364.82,400.78H354.46V400h2.89v-2.69h-2v-.83h1.77v-3.68h-1.79v-.82h8.45v.82H362v3.68h1.77v.83h-1.95V400h3Zm-3.77-4.34v-3.68h-2.89v3.68Zm-.19,3.52v-2.69h-2.51V400Z"/><path d="M372.14,393.09h-6.4v-.81h2.75v-1.4h1v1.4h2.66Zm-.59,2.78A2.29,2.29,0,0,1,369,398c-1.52,0-2.57-.88-2.56-2.16s1-2.16,2.56-2.16S371.55,394.58,371.55,395.87Zm-4.21,0c0,.81.66,1.36,1.63,1.36a1.39,1.39,0,1,0,0-2.73C368,394.51,367.34,395.06,367.34,395.87Zm8,6.06h-7.57v-3.19h1v2.35h6.57Zm-.26-2.43h-1v-2.42h-2v-.82h2v-1.53h-2v-.83h2v-3h1Z"/><path d="M383.76,392.91H377v-.82h2.88v-1.3h1v1.3h2.88Zm-.65,2.57c0,1.23-1.09,2-2.72,2s-2.74-.79-2.73-2,1.08-2,2.73-2S383.1,394.27,383.11,395.48Zm-4.49,0c0,.77.7,1.24,1.77,1.25s1.77-.48,1.78-1.25-.73-1.23-1.78-1.23S378.6,394.74,378.62,395.48Zm7.21,6.54h-7.14v-3.69h7.14Zm-6.16-.82h5.17v-2.07h-5.17Zm6.16-7.31h1.71v.85h-1.71v2.95h-1v-6.81h1Z"/><path d="M395.67,401.6h-.95v-5.49h-1.45c-.11,2.2-1,3.57-2.45,3.57s-2.43-1.52-2.43-3.92,1-3.93,2.43-3.93,2.31,1.33,2.43,3.46h1.47v-4.17h.95Zm-6.34-5.84c0,1.82.58,3,1.49,3s1.51-1.15,1.51-3-.59-3-1.51-3S389.32,393.92,389.33,395.76Zm8.62,6.41h-1V390.88h1Z"/><path d="M409,394.2a3,3,0,1,1-3-2.65A2.7,2.7,0,0,1,409,394.2Zm-.75,6.93a3.4,3.4,0,0,0,1.64-2.67v-.62h1v.62a3.14,3.14,0,0,0,2.3,2.82l-.5.74a3.81,3.81,0,0,1-2.31-2.14,3.88,3.88,0,0,1-2.09,2.22,3.59,3.59,0,0,1-2.14-2.19,4,4,0,0,1-2.26,2.11l-.51-.74a3.31,3.31,0,0,0,2.3-2.82v-.62h1v.62A3.07,3.07,0,0,0,408.24,401.13ZM404,394.2a1.82,1.82,0,0,0,2,1.79,1.85,1.85,0,0,0,2-1.79,1.81,1.81,0,0,0-2-1.79A1.79,1.79,0,0,0,404,394.2Zm8.09,3.14h-1v-6.45h1Z"/><path d="M419.91,395.2h2.53v-4.32h1v11.31h-1V396h-2.52c-.12,2.21-1.25,3.6-2.82,3.6s-2.84-1.53-2.84-3.93,1.17-3.92,2.84-3.93S419.74,393.08,419.91,395.2Zm-4.7.49c0,1.84.77,3,1.89,3s1.88-1.2,1.88-3-.78-3-1.88-3S415.21,393.85,415.21,395.69Z"/><path d="M104.77,413.09h-3.24v5.43a18.59,18.59,0,0,0,3.89-.31l.09.83a19.62,19.62,0,0,1-4.25.34h-.73v-7.11h4.24Zm5,9.08h-1v-5.92h-1.67v5.33h-.91V411.14h.91v4.29h1.67v-4.55h1Z"/><path d="M121.74,420.7H111.38v-.83H116V417.1h1v2.77h4.75Zm-.51-4.3-.45.83a6.1,6.1,0,0,1-4.27-3.15,6.16,6.16,0,0,1-4.28,3.15l-.45-.83c2-.34,4.19-2,4.19-3.88v-.86h1v.86C117,414.41,119.25,416.06,121.23,416.4Z"/><path d="M133,417.48h-4.61v2.31h-1v-2.31h-4.76v-.82H133Zm-1.16,4.45H124v-3.25h1v2.41h6.87Zm-.19-6.57H124v-3.92h7.66Zm-6.68-.8h5.69v-2.33H125Z"/><path d="M140.68,418.93l-.58.79a6,6,0,0,1-2.85-3.49,6.51,6.51,0,0,1-2.92,3.77l-.61-.79a6,6,0,0,0,3-4.86v-1.47h-2.64v-.83h6.16v.83h-2.54v1.47A5.41,5.41,0,0,0,140.68,418.93Zm2-3.48h1.9v.85h-1.9v5.87h-1V410.88h1Z"/><path d="M155.52,416.91H145.16v-.79h10.36Zm-1.3,3.3h-6.8v1.08h7.17V422h-8.17v-2.49h6.81v-1h-6.82v-.75h7.81Zm0-6.65H147.5v1h6.88v.72h-7.87v-2.39h6.67V412h-6.71v-.73h7.71Z"/><path d="M170,418.36H159.71v-.81h4.66v-.92c-2-.06-3.19-.66-3.19-1.7s1.34-1.71,3.68-1.71,3.67.59,3.67,1.71-1.16,1.63-3.17,1.7v.92H170Zm-.6-5.64h-9.18v-.78h4.13v-1.19h1v1.19h4.06Zm-.55,9.21H161v-2.85h1v2h6.82Zm-6.67-7c0,.64.94,1,2.66,1s2.66-.34,2.66-1-1-1-2.66-1S162.19,414.3,162.2,414.93Z"/><path d="M177.74,412.88H171v-.83h2.87v-1.27h1v1.27h2.87Zm-.65,2.5c0,1.2-1.09,2-2.72,2s-2.74-.78-2.72-2,1.08-2,2.72-2S177.08,414.17,177.09,415.38Zm-4.49,0c0,.73.7,1.21,1.77,1.21s1.77-.48,1.78-1.21-.72-1.22-1.78-1.21S172.59,414.65,172.6,415.38Zm1.06,3.77h5.16v-1.21h1V422h-7.15v-4.08h1Zm5.16,2.07v-1.29h-5.16v1.29Zm1-7.44h1.7v.85h-1.7v2.82h-1v-6.57h1Z"/><path d="M189,413.09h-6.75v-.81h2.88v-1.39h1v1.39H189Zm-.65,2.73c0,1.27-1.11,2.08-2.73,2.08s-2.73-.81-2.72-2.08,1.1-2.11,2.72-2.11S188.35,414.54,188.36,415.82Zm-4.49,0c0,.8.7,1.31,1.76,1.3s1.77-.5,1.79-1.3-.73-1.32-1.79-1.32S183.85,415,183.87,415.82Zm7.73,6.11H184v-3.25h1v2.41h6.61Zm-.52-7.32h1.71v.84h-1.71v3.9h-1v-8.46h1Z"/><path d="M197.41,417.8,197,417c2.71-.83,4.37-2.4,4.58-4.4h-4v-.82h5.09C202.6,414.68,200.67,416.76,197.41,417.8Zm9.36,3.5-.42.8a5.36,5.36,0,0,1-3.86-2.51,5.57,5.57,0,0,1-3.94,2.54l-.4-.79c2-.34,3.83-1.61,3.84-3.27v-.52h1v.52C203,419.72,204.78,421,206.77,421.3Zm-.62-2.76h-1v-3.63h-2.49v-.84h2.49v-3.18h1Z"/><path d="M218.35,417.65H208v-.81h10.31Zm-1.16-4.13c0,1.41-1.57,2.25-4,2.25s-4-.84-4-2.25,1.56-2.24,4-2.23S217.19,412.11,217.19,413.52Zm0,8.41h-7.83v-3.29h1v2.45h6.82Zm-7-8.41c0,.89,1.16,1.44,3,1.44s3-.55,3-1.44-1.17-1.43-3-1.43S210.2,412.63,210.21,413.52Z"/><path d="M228.35,413.34h-3.5V418a29.16,29.16,0,0,0,4.21-.33l.22,1.67a30,30,0,0,1-5.43.33h-1v-7.93h5.52Zm3.42,1.5h1.59v1.65h-1.59v5.94h-2V410.65h2Z"/><path d="M240.24,414.16a3.33,3.33,0,1,1-3.3-2.9A3.05,3.05,0,0,1,240.24,414.16Zm2.94,5.86c0,1.5-1.59,2.4-4,2.4s-4.13-.9-4.11-2.4,1.61-2.41,4.11-2.4S243.18,418.52,243.18,420Zm-7.55-5.86a1.32,1.32,0,0,0,2.62,0,1.32,1.32,0,0,0-2.62,0Zm1.45,5.86c0,.59.69.8,2.08.79s2-.2,2-.79-.64-.81-2-.81S237.08,419.45,237.08,420Zm7.37-6.45h-1.39v.94h1.39v1.65h-1.39v1.3h-2v-6.81h2v1.27h1.39Z"/><path d="M252.17,415.63l-1.07,1.59a4,4,0,0,1-2.48-2.06,4.49,4.49,0,0,1-2.8,2.42L244.73,416a3.67,3.67,0,0,0,2.82-3.76v-1h2.06v.86A3.32,3.32,0,0,0,252.17,415.63ZM255,420.1c0,1.47-1.56,2.32-4.12,2.32s-4.1-.85-4.1-2.32,1.57-2.32,4.1-2.32S255,418.64,255,420.1Zm-6.18,0c0,.52.66.75,2.06.75s2.1-.23,2.1-.75-.69-.76-2.1-.76S248.75,419.55,248.77,420.1Zm6.16-2.6h-2v-3.27H251v-1.65h1.93v-1.93h2Z"/><path d="M260,418.44c1.06-.06,2.14-.13,3.13-.26l.12,1.5a39.37,39.37,0,0,1-7,.44l-.16-1.6,1.92,0v-3.37h2Zm2.83-5.54a24.85,24.85,0,0,1-.3,4.41l-2-.16a25.54,25.54,0,0,0,.28-3.78h-4.15v-1.61h6.17Zm2.8,2.35H267v1.69h-1.4v5.46h-2.07V410.65h2.07Z"/><path d="M276,412.94h2.26v-2.29h2v11.78h-2v-4.29h-2.1a2.89,2.89,0,0,1-2.62,1.79c-1.82,0-3.14-1.63-3.14-4.26s1.32-4.24,3.14-4.23A2.78,2.78,0,0,1,276,412.94Zm-3.64,2.73c0,1.65.48,2.4,1.18,2.4s1.17-.75,1.17-2.4-.46-2.4-1.17-2.39S272.39,414,272.4,415.67Zm4.29,0a7.81,7.81,0,0,1-.05.86h1.66v-2h-1.7A6.57,6.57,0,0,1,276.69,415.67Z"/><path d="M287.27,416.16H284v1.92a26,26,0,0,0,4-.29l.17,1.64a32,32,0,0,1-5.25.33h-1v-5.18h3.33v-1.37h-3.36v-1.63h5.36Zm4.29,6.27h-2v-6.06h-1.63v-1.65h1.63v-4.07h2Z"/><path d="M303.05,418.16l.16,1.46a38.71,38.71,0,0,1-7.29.53l-.23-1.63A58.41,58.41,0,0,0,303.05,418.16Zm-.3-3.8a3.34,3.34,0,1,1-3.32-3A3.06,3.06,0,0,1,302.75,414.36Zm-4.61,0a1.16,1.16,0,0,0,1.29,1.21,1.17,1.17,0,0,0,1.33-1.21,1.19,1.19,0,0,0-1.33-1.21A1.17,1.17,0,0,0,298.14,414.36Zm7.54,8.07h-2V410.65h2Z"/><path d="M316.91,419.26h-2v-2.2h-2.38v-1.61h2.38v-1h-2.2a7.27,7.27,0,0,1-4.81,3.68l-.83-1.57c2.34-.73,3.72-1.94,4.05-3.42h-3.4v-1.61h5.61a7,7,0,0,1-.11,1.31h1.69v-2.16h2Zm.32,3H309v-3.82h2.07v2.2h6.16Z"/><path d="M322,418.44c1.06-.06,2.14-.13,3.13-.26l.13,1.5a39.48,39.48,0,0,1-7,.44l-.16-1.6,1.92,0v-3.37h2Zm2.84-5.54a24.06,24.06,0,0,1-.31,4.41l-2-.16a25.54,25.54,0,0,0,.28-3.78h-4.15v-1.61h6.18Zm2.8,2.35H329v1.69h-1.39v5.46h-2.08V410.65h2.08Z"/><path d="M338,415.57v-4.7h1.89v2.49h.61v-2.68h1.93v7.13h-1.93V415h-.61v2.45H338V416l-.82,1.19a3.58,3.58,0,0,1-1.95-1.7,4,4,0,0,1-2.17,2.09L332,416.06a3.51,3.51,0,0,0,2.21-3.45v-1.25h2v1.25A3.06,3.06,0,0,0,338,415.57Zm4.49,4.58c0,1.41-1.65,2.27-4.17,2.27s-4.15-.86-4.14-2.27,1.63-2.25,4.14-2.25S342.51,418.75,342.52,420.15Zm-6.27,0c0,.53.74.75,2.1.75s2.1-.22,2.11-.75-.74-.75-2.11-.74S336.25,419.64,336.25,420.15Z"/><path d="M344.13,417.48l-.84-1.53c2.52-.6,3.81-1.77,4.09-3.09H344v-1.6h5.65C349.6,414.5,347.69,416.62,344.13,417.48ZM353,422.4h-2v-2.92h-6v-1.6h8Zm0-9.14h1.47v1.67H353v2.5h-2v-6.78h2Z"/><path d="M365.55,416.79H354.81v-1.62h10.74Zm-1-4c0,1.29-1.59,2-4.35,2s-4.38-.7-4.37-2,1.6-2,4.37-2S364.52,411.5,364.53,412.79Zm-.25,7.68H358v.38h6.56v1.5H356v-3.28h6.26v-.36H356v-1.48h8.26ZM358,412.79c0,.43.64.5,2.23.52s2.24-.09,2.24-.52-.64-.51-2.24-.51S358,412.43,358,412.79Z"/><path d="M379.63,418.27H368.91v-1.62h4.33v-1.43h2v1.43h4.35Zm-1-5.56h-2.9c.26.74,1.18,1.54,3.5,1.75l-.74,1.61c-2.33-.23-3.67-1.11-4.27-2.23-.61,1.12-1.93,2-4.25,2.23l-.73-1.61c2.32-.21,3.23-1,3.49-1.75h-2.88v-1.6h8.78Zm-.26,9.52h-8.26v-3.4h2.05v1.78h6.21Z"/><path d="M390.92,417.51h-4.37v.62c1.94.2,3.08.93,3.1,2.12,0,1.4-1.57,2.17-4.13,2.17s-4.16-.77-4.16-2.17c0-1.2,1.17-1.93,3.17-2.12v-.62h-4.35V415.9h10.74Zm-1-4.79h-2.8c.35.57,1.28,1.15,3.41,1.31l-.7,1.59c-2.36-.19-3.72-1-4.33-2-.6,1-1.94,1.83-4.29,2l-.67-1.59c2.05-.16,3-.74,3.36-1.31h-2.76v-1.6h8.78Zm-6.49,7.53c0,.45.61.65,2.07.65s2.08-.2,2.08-.65-.65-.62-2.08-.63S383.43,419.81,383.45,420.25Z"/><path d="M398.24,413.94h-6.86v-1.61h2.43v-1.46h2v1.46h2.4Zm-.33,3.31a3.1,3.1,0,1,1-3.08-2.85A2.9,2.9,0,0,1,397.91,417.25Zm-4.22,0a1.13,1.13,0,1,0,2.26,0,1.13,1.13,0,1,0-2.26,0Zm7.14-2.14h1.59v1.66h-1.59v5.63h-2V410.65h2Z"/><path d="M413.45,421.1H402.71v-1.64h3.61v-3.92h2v3.92h5.11Zm-.88-8.45a26.83,26.83,0,0,1-.5,5.73l-2.06-.19a23.91,23.91,0,0,0,.5-5h-6.72v-1.6h8.78Z"/><path d="M424.15,415.25l-1,1.61a4.27,4.27,0,0,1-2.72-2,4.32,4.32,0,0,1-2.82,2.17l-1-1.6a3.28,3.28,0,0,0,2.73-3.26v-1.13h2.12v1.13A3,3,0,0,0,424.15,415.25Zm2.65,3.92h-1.26v1.5h1.35v1.62h-8.36v-1.62h1.36v-1.5h-1.26v-1.59h8.17Zm-3.28,1.5v-1.5h-1.61v1.5Zm3.22-3.5h-2.05v-6.49h2.05Z"/><path d="M438.81,418.14H428.07v-1.6h10.74Zm-1-4.71c0,1.54-1.76,2.49-4.36,2.49s-4.37-.95-4.36-2.49,1.74-2.45,4.36-2.45S437.78,411.92,437.8,413.43Zm-.23,8.8h-8.26v-3.45h2.05v1.83h6.21Zm-6.36-8.8c0,.61.76.85,2.23.84s2.24-.23,2.24-.84-.78-.83-2.24-.85S431.19,412.86,431.21,413.43Z"/><path d="M448.27,419.62h-5.79v-7.89h5.79Zm-3.78-1.6h1.76v-4.71h-1.76Zm7.08-3.1h1.59v1.69h-1.59v5.79h-2.05V410.65h2.05Z"/><path d="M464.18,417.6H453.44V416h10.74Zm-1-4.39c0,1.43-1.71,2.32-4.36,2.31s-4.38-.88-4.36-2.31,1.73-2.35,4.36-2.35S463.15,411.75,463.17,413.21Zm-.26,9.08h-8.26v-4.1h8.26Zm-6.34-9.08c0,.52.75.74,2.24.74s2.24-.22,2.24-.74-.79-.79-2.24-.79S456.56,412.65,456.57,413.21Zm.08,7.46h4.26v-.88h-4.26Z"/><path d="M475.21,416.58H464.9v-.81h10.31ZM474.05,413c0,1.28-1.48,2-4,2s-4-.7-4-2,1.49-1.95,4-1.95S474.05,411.77,474.05,413Zm-.17,7.06h-6.72v1.16h7.07V422h-8.06v-2.69h6.73v-1h-6.76v-.76h7.74ZM467.09,413c0,.78,1.08,1.22,3,1.22s3-.44,3-1.22-1.11-1.2-3-1.2S467.07,412.29,467.09,413Z"/><path d="M487,418.47l.07.74a41.44,41.44,0,0,1-7.4.5l-.14-.86A53.59,53.59,0,0,0,487,418.47Zm-.79-4.11a2.74,2.74,0,0,1-3,2.65c-1.78,0-3.07-1.08-3.06-2.65s1.28-2.65,3.06-2.65A2.74,2.74,0,0,1,486.18,414.36Zm-5.12,0a2.09,2.09,0,1,0,2.08-1.78A1.86,1.86,0,0,0,481.06,414.36Zm7.65,7.83h-1V410.88h1Z"/><path d="M496.59,419.34h-5.23V412h5.23Zm-4.25-.82h3.27V412.8h-3.27Zm7.69,3.67h-1V410.88h1Z"/><path d="M508.73,412.88H502v-.83h2.87v-1.27h1v1.27h2.87Zm-.65,2.5c0,1.2-1.09,2-2.72,2s-2.74-.78-2.72-2,1.08-2,2.72-2S508.07,414.17,508.08,415.38Zm-4.49,0c0,.73.7,1.21,1.77,1.21s1.77-.48,1.78-1.21-.72-1.22-1.78-1.21S503.58,414.65,503.59,415.38Zm1.06,3.77h5.16v-1.21h1V422h-7.15v-4.08h1Zm5.16,2.07v-1.29h-5.16v1.29Zm1-7.44h1.7v.85h-1.7v2.82h-1v-6.57h1Z"/><path d="M515,418.4a26.54,26.54,0,0,0,5.4-.55l.14.85a26.66,26.66,0,0,1-5.61.56H514V412h1Zm7.61,3.77h-1V410.88h1Z"/><path d="M530.27,412.81H526v5.71a26.65,26.65,0,0,0,5.18-.4l.13.86a28.35,28.35,0,0,1-5.41.38H525V412h5.28Zm3,2.54h1.89v.84h-1.89v6h-1V410.88h1Z"/><path d="M536.14,420.39a.81.81,0,0,1,.81-.81.82.82,0,1,1-.81.81Z"/><path d="M110.79,473.39H100.43v-.83h4.66v-2.14h-3.36v-3.48h6.77v-1.77h-6.79v-.83h7.77v3.42h-6.76v1.84h7v.82h-3.68v2.14h4.72Z"/><path d="M122,473.19H111.7v-.82h4v-4h1v4H122Zm-1.23-7.41a27.32,27.32,0,0,1-.42,5.2l-1-.11a23.36,23.36,0,0,0,.44-5.09v-.31h-7v-.82h8Z"/><path d="M133.75,469.23l.07.75a26.26,26.26,0,0,1-3.3.38v4.09h-1v-4c-1.15.05-2.24.06-3.18.07l-.14-.85A54.63,54.63,0,0,0,133.75,469.23Zm-.89-2.87c0,1.37-1.21,2.32-2.9,2.31s-2.9-.94-2.9-2.31,1.21-2.31,2.9-2.3S132.86,465,132.86,466.36Zm-4.82,0c0,.89.79,1.5,1.92,1.49s1.95-.6,1.95-1.49-.8-1.5-1.95-1.48S128,465.48,128,466.36Zm7.52,8.44h-1V463.52h1Z"/><path d="M145,471.1l.08.73a41.55,41.55,0,0,1-7.41.5l-.14-.85A55.1,55.1,0,0,0,145,471.1Zm-.79-4.12a2.74,2.74,0,0,1-3,2.66c-1.78,0-3.07-1.08-3-2.66s1.27-2.65,3-2.65A2.74,2.74,0,0,1,144.24,467Zm-5.11,0a2.09,2.09,0,1,0,2.07-1.77A1.84,1.84,0,0,0,139.13,467Zm7.64,7.84h-1V463.5h1Z"/><path d="M162.35,469.89H152v-.8h4.67v-1.32h-3.36V464h7.73v.8h-6.75V467h6.83v.81h-3.48v1.32h4.68Zm-1.27,2.86c0,1.3-1.46,2-3.89,2s-3.91-.74-3.91-2,1.46-2,3.91-2S161.07,471.45,161.08,472.75Zm-6.78,0c0,.78,1.07,1.24,2.89,1.24s2.89-.46,2.89-1.24-1.1-1.25-2.89-1.25S154.29,472,154.3,472.75Z"/><path d="M173.61,473.13H163.3v-.83h10.31Zm-1.39-7.29a29.06,29.06,0,0,1-.42,5.48l-1-.1a25.25,25.25,0,0,0,.46-5.38v-.3h-6.82v-.83h7.8Z"/><path d="M180.17,467.48h-4.12v1.76a28.07,28.07,0,0,0,5.23-.37l.1.83a31,31,0,0,1-5.43.37h-.88v-3.38h4.12v-1.6h-4.14v-.84h5.12Zm3.77,7.07H176.4v-3.37h1v2.53h6.53Zm-.53-7.57h1.71v.85h-1.71v4h-1v-8.3h1Z"/><path d="M199.46,473.41H189.1v-.83H192v-2.69h-2v-.83h1.77v-3.68H190v-.82h8.44v.82h-1.79v3.68h1.77v.83h-1.95v2.69h3Zm-3.77-4.35v-3.68H192.8v3.68Zm-.19,3.52v-2.69H193v2.69Z"/><path d="M207.45,471.43l-.61.78a6.16,6.16,0,0,1-2.94-3.56,6.33,6.33,0,0,1-3,3.79l-.64-.84a5.87,5.87,0,0,0,3.09-5.06v-2.06h1v2.06A5.65,5.65,0,0,0,207.45,471.43Zm2.24,3.39h-1V463.5h1Z"/><path d="M222,470.08H211.62v-.81H222Zm-1.13,4.43H213v-3.27h1v2.45h6.88Zm-.06-6.78H213v-3.81h1v3h6.76Z"/><path d="M232.06,468.32c0,2.39-1.2,3.92-2.87,3.92s-2.85-1.53-2.85-3.92,1.17-3.93,2.85-3.94S232,465.92,232.06,468.32Zm-4.78,0c0,1.84.79,3,1.91,3s1.9-1.19,1.9-3-.76-3-1.9-3.05S227.28,466.47,227.28,468.32Zm7.64-.31h1.9v.86h-1.9v5.92h-1V463.5h1Z"/><path d="M242.05,468.68h-3.27v2.57a24.71,24.71,0,0,0,4-.31l.09.82a23.49,23.49,0,0,1-4.31.33h-.74v-4.23h3.27v-2.29h-3.3v-.83h4.27Zm5,6.11h-.95v-6h-1.67v5.41h-.92V463.76h.92V468h1.67V463.5h.95Z"/><path d="M256.23,471.1l.07.73a41.44,41.44,0,0,1-7.4.5l-.14-.85A55.18,55.18,0,0,0,256.23,471.1Zm-.79-4.12a2.74,2.74,0,0,1-3,2.66c-1.78,0-3.07-1.08-3.06-2.66s1.28-2.65,3.06-2.65A2.74,2.74,0,0,1,255.44,467Zm-5.12,0a2.1,2.1,0,1,0,2.08-1.77A1.86,1.86,0,0,0,250.32,467Zm7.65,7.84h-1V463.5h1Z"/><path d="M264.23,464.57h.95l-.7,3.45h-1.24Z"/><path d="M266.19,470.35c0-2.15,1.28-3.57,3.16-3.57s3.13,1.42,3.13,3.57-1.26,3.55-3.13,3.55S266.19,472.49,266.19,470.35Zm5.2,0c0-1.37-.65-2.61-2-2.61s-2.06,1.24-2.06,2.61.65,2.59,2.06,2.59S271.39,471.72,271.39,470.35Z"/><path d="M274.46,468h-.95l.7-3.46h1.24Z"/><path d="M282.8,466.89a2.63,2.63,0,0,1-2.5,2.61v1.93c1.05-.05,2.12-.13,3.1-.26l.07.75a42.32,42.32,0,0,1-7.07.42l-.16-.84c.91,0,2,0,3.05-.05V469.5a2.61,2.61,0,0,1-2.52-2.61c0-1.57,1.25-2.64,3-2.65A2.75,2.75,0,0,1,282.8,466.89Zm-5.05,0a2.05,2.05,0,0,0,4.07,0,2.05,2.05,0,0,0-4.07,0Zm7.37,1.27H287V469h-1.85v5.76h-1V463.5h1Z"/><path d="M301.27,473.34H290.91v-.84h4.67v-2.74h1v2.74h4.68Zm-.49-4-.41.79a6,6,0,0,1-4.28-3,6.16,6.16,0,0,1-4.25,3.06l-.42-.8c1.91-.33,4.14-1.91,4.14-3.71v-.28h-3.79v-.84h8.61v.84h-3.79v.28C296.59,467.45,298.83,469,300.78,469.32Z"/><path d="M305.16,471.74v-1.25c-1.32-.15-2.18-.92-2.17-2,0-1.27,1.07-2.1,2.68-2.1s2.67.83,2.68,2.1c0,1.11-.88,1.88-2.19,2v1.21c1.06-.06,2.12-.14,3.11-.28l.06.76a43.61,43.61,0,0,1-7.13.44l-.16-.85C303,471.78,304,471.78,305.16,471.74Zm3.9-6h-6.82v-.81h2.92v-1.36h1v1.36h2.9Zm-5.14,2.76c0,.78.7,1.29,1.75,1.28s1.73-.5,1.73-1.28-.7-1.33-1.73-1.33S303.92,467.67,303.92,468.46Zm7-.14h1.81v.83H311v5.64h-1V463.5h1Z"/><path d="M323.79,469.53H313.43v-.78h10.36Zm-1.3,3.3H315.7v1.08h7.16v.73h-8.17v-2.49h6.81v-1h-6.82v-.74h7.81Zm0-6.65h-6.68v1h6.89v.73h-7.88v-2.4h6.67v-.93h-6.71v-.72h7.71Z"/><path d="M334.18,468.32c0,2.39-1.21,3.92-2.89,3.92s-2.89-1.53-2.89-3.92,1.19-3.93,2.89-3.94S334.18,465.92,334.18,468.32Zm-4.81,0c0,1.84.78,3,1.92,3s1.92-1.19,1.92-3-.79-3-1.92-3.05S329.37,466.47,329.37,468.32Zm7.94,6.5h-1V463.5h1Z"/><path d="M349.59,471.17h-4.71v3.65h-1v-3.65h-4.66v-.8h10.36Zm-1.26-4.28h-6.82v1.46h7.06v.83H340.5v-3.07h6.81v-1.34h-6.83V464h7.85Z"/><path d="M356.36,467.82h2.53V463.5h1v11.32h-1v-6.17h-2.52c-.12,2.2-1.24,3.59-2.82,3.59s-2.84-1.53-2.84-3.92,1.17-3.93,2.84-3.94S356.2,465.71,356.36,467.82Zm-4.69.5c0,1.84.76,3,1.88,3s1.88-1.19,1.88-3-.77-3-1.88-3.05S351.67,466.47,351.67,468.32Z"/><path d="M374.33,467.2c0,1.68-1.5,2.8-3.65,2.93v2.37h4.72v.84H365v-.84h4.66v-2.37c-2.14-.14-3.64-1.26-3.64-2.93s1.73-2.95,4.14-3S374.33,465.42,374.33,467.2Zm-7.3,0c0,1.31,1.34,2.14,3.17,2.16s3.17-.85,3.17-2.16-1.34-2.13-3.17-2.13S367,465.93,367,467.2Z"/><path d="M386.62,469.61H382v1.51h3.35v3.67h-1v-2.86h-6.88v-.81H381v-1.51h-4.66v-.8h10.31Zm-5.5-4.86h-2.81v2.19a15,15,0,0,0,3-.31l.1.8a15.18,15.18,0,0,1-3.46.31h-.63v-3.8h3.84Zm4.58,3h-3.91v-3.8h3.83v.81h-2.81v2.19h2.89Z"/><path d="M393.77,468.32c0,2.39-1.21,3.92-2.89,3.92s-2.89-1.53-2.89-3.92,1.2-3.93,2.89-3.94S393.77,465.92,393.77,468.32Zm-4.81,0c0,1.84.79,3,1.92,3s1.92-1.19,1.92-3-.79-3-1.92-3.05S389,466.47,389,468.32Zm7.94,6.5h-1V463.5h1Z"/><path d="M409.18,469.53H398.83v-.78h10.35Zm-1.29,3.3h-6.8v1.08h7.16v.73h-8.17v-2.49h6.81v-1h-6.82v-.74h7.82Zm0-6.65h-6.68v1h6.88v.73h-7.88v-2.4h6.67v-.93h-6.7v-.72h7.71Z"/><path d="M414.84,471.08a24.83,24.83,0,0,0,5.2-.52l.13.85a26.26,26.26,0,0,1-5.42.51h-.9v-7.3h1Zm9.12-2.23h-1.83v5.94h-1V463.5h1V468H424Z"/><path d="M430.44,465.37h-4.3v2.34h4.05v.81h-4.05v2.73a28.56,28.56,0,0,0,5.17-.37l.11.83a32,32,0,0,1-5.39.36h-.89v-7.54h5.3Zm2.95,2.68h1.9v.85h-1.9v5.89h-1V463.5h1Z"/><path d="M437.47,471a19,19,0,0,0,3.7-.37l.13.89a22.9,22.9,0,0,1-4.12.37h-.7v-7h1Zm8.09,3.81h-1V469H443v5.26H442V463.76H443v4.34h1.63v-4.6h1Z"/><path d="M457.51,470.08H447.16v-.81h10.35Zm-1.13,4.43H448.5v-3.27h1v2.45h6.88Zm-.06-6.78h-7.75v-3.81h1v3h6.76Z"/><path d="M463.14,465.73h-3.29v5.51a17.18,17.18,0,0,0,3.88-.35l.1.85a20.08,20.08,0,0,1-4.24.33h-.71V464.9h4.26Zm2.66,8.48h-.95v-5.55h-2.47v-.84h2.47v-4h.95Zm2.32.58h-1V463.5h1Z"/><path d="M106.63,488.32c0,2.39-1.21,3.92-2.89,3.92s-2.89-1.53-2.89-3.92,1.2-3.93,2.89-3.94S106.63,485.92,106.63,488.32Zm-4.81,0c0,1.84.79,3,1.92,3s1.92-1.19,1.92-3-.79-3-1.92-3.05S101.82,486.47,101.82,488.32Zm7.94,6.5h-1V483.5h1Z"/><path d="M122,490.08H111.68v-.81H122Zm-1.13,4.43H113v-3.27h1v2.45h6.88Zm-.06-6.78H113.1v-3.81h1v3h6.76Z"/><path d="M136.58,493.27H126.23v-.83h10.35Zm-5.18-4.17a4,4,0,0,0,1.73-3.23v-1.45h1v1.45a3.72,3.72,0,0,0,2.3,3.44l-.56.76a4.21,4.21,0,0,1-2.25-2.52,4.33,4.33,0,0,1-2.24,2.64,4.41,4.41,0,0,1-2.26-2.7,4.54,4.54,0,0,1-2.25,2.58l-.53-.76a4,4,0,0,0,2.3-3.44v-1.45h1v1.45A4.06,4.06,0,0,0,131.4,489.1Z"/><path d="M143,488.51h-4.06v2.74a25.58,25.58,0,0,0,5-.37l.07.84a29,29,0,0,1-5.21.38h-.87v-4.42H142v-2.3h-4.13v-.82H143Zm3.88,6.31h-1v-6.14h-2.2v-.83h2.2V483.5h1Z"/><path d="M155.65,491.57l-.6.76a6.38,6.38,0,0,1-2.84-3.6,6.73,6.73,0,0,1-2.86,3.88l-.66-.77a6,6,0,0,0,3-5V485.5h-2.59v-.83h6.18v.83h-2.59v1.36A5.87,5.87,0,0,0,155.65,491.57Zm2.49,3.22h-1v-4.86h-2.32v-.84h2.32v-1.56h-2.32v-.84h2.32V483.5h1Z"/><path d="M169.16,489.61h-3.5v2.92h4.73v.84H160v-.84h4.65v-2.92h-3.33v-5.18h7.7v.81h-6.69v3.56h6.8Z"/><path d="M180.34,485.43h-4.29v5.72a26.61,26.61,0,0,0,5.18-.41l.13.86A28.35,28.35,0,0,1,176,492h-.89v-7.37h5.28Zm3,2.54h1.89v.84h-1.89v6h-1V483.5h1Z"/><path d="M192.92,491.43l-.62.78a6.15,6.15,0,0,1-2.93-3.56,6.34,6.34,0,0,1-3,3.79l-.64-.84a5.9,5.9,0,0,0,3.1-5.06v-2.06h1v2.06A5.65,5.65,0,0,0,192.92,491.43Zm2.24,3.39h-1V483.5h1Z"/><path d="M206.5,486.42c0,1.48-1.24,2.49-2.93,2.49s-2.94-1-2.94-2.49,1.22-2.48,2.94-2.5S206.5,485,206.5,486.42Zm-4.89,0a2,2,0,1,0,2-1.66A1.76,1.76,0,0,0,201.61,486.42Zm8.09,6.15h-6.35v1.27h6.76v.8h-7.74v-2.82h6.34v-1.17h-6.36v-.8h7.35Zm0-3.26h-1V483.5h1Z"/><path d="M217.48,487.82H220V483.5h1v11.32h-1v-6.17h-2.52c-.12,2.2-1.24,3.59-2.82,3.59s-2.84-1.53-2.84-3.92,1.17-3.93,2.84-3.94S217.32,485.71,217.48,487.82Zm-4.69.5c0,1.84.76,3,1.88,3s1.88-1.19,1.88-3-.77-3-1.88-3.05S212.79,486.47,212.79,488.32Z"/><path d="M224.36,491.08a24.83,24.83,0,0,0,5.2-.52l.13.85a26.32,26.32,0,0,1-5.42.51h-.91v-7.3h1Zm9.12-2.23h-1.83v5.94h-1V483.5h1V488h1.83Z"/><path d="M244.5,490.08H234.14v-.81H244.5Zm-1.13,4.43h-7.88v-3.27h1v2.45h6.88Zm-.06-6.78h-7.75v-3.81h1v3h6.76Z"/><path d="M258,487.2c0,1.68-1.5,2.8-3.65,2.93v2.37h4.72v.84H248.69v-.84h4.66v-2.37c-2.14-.14-3.64-1.26-3.64-2.93s1.73-2.95,4.14-3S258,485.42,258,487.2Zm-7.3,0c0,1.31,1.34,2.14,3.17,2.16s3.17-.85,3.17-2.16-1.34-2.13-3.17-2.13S250.68,485.93,250.68,487.2Z"/><path d="M270.27,489.61h-4.66v1.51H269v3.67h-1v-2.86h-6.88v-.81h3.54v-1.51H260v-.8h10.31Zm-5.5-4.86H262v2.19a15,15,0,0,0,3-.31l.1.8a15.18,15.18,0,0,1-3.46.31h-.63v-3.8h3.84Zm4.58,3h-3.91v-3.8h3.83v.81h-2.81v2.19h2.89Z"/><path d="M277.42,488.32c0,2.39-1.21,3.92-2.89,3.92s-2.89-1.53-2.89-3.92,1.2-3.93,2.89-3.94S277.42,485.92,277.42,488.32Zm-4.81,0c0,1.84.79,3,1.92,3s1.92-1.19,1.92-3-.79-3-1.92-3.05S272.61,486.47,272.61,488.32Zm7.94,6.5h-1V483.5h1Z"/><path d="M289.35,491.63l-.58.77a5.61,5.61,0,0,1-2.85-3.31,5.86,5.86,0,0,1-2.83,3.52l-.58-.78a5.3,5.3,0,0,0,2.9-4.64v-.91h-2.59v-.81h2.59v-1.75h1v1.75H289v.81h-2.57v.91A5.09,5.09,0,0,0,289.35,491.63Zm2.52,3.19h-1v-5.95h-2.48v-.82h2.48V483.5h1Z"/><path d="M299.25,487.21h-4v1.64a28.44,28.44,0,0,0,5-.33l.09.84a29.09,29.09,0,0,1-5.19.31h-.85v-3.23h4v-1.53h-4.07v-.82h5Zm3.88,7.43h-7.44v-3.86h7.44Zm-6.45-.81h5.46v-2.28h-5.46Zm6.45-3.69h-1v-3.26H300v-.82h2.15v-2.54h1Z"/><path d="M315.21,491.53l-.6.8a6.09,6.09,0,0,1-2.89-3.57,6.52,6.52,0,0,1-2.92,3.8l-.61-.78a5.87,5.87,0,0,0,3-4.92V485.5h-2.58v-.83h6.18v.83h-2.59v1.36A5.52,5.52,0,0,0,315.21,491.53Zm2.46,3.29h-1v-6.38h-2.48v-.82h2.48V483.5h1Z"/><path d="M327.09,491.1l.07.73a41.44,41.44,0,0,1-7.4.5l-.14-.85A55.18,55.18,0,0,0,327.09,491.1ZM326.3,487a2.74,2.74,0,0,1-3,2.66c-1.79,0-3.07-1.08-3.06-2.66s1.27-2.65,3.06-2.65A2.74,2.74,0,0,1,326.3,487Zm-5.12,0a2.1,2.1,0,1,0,2.08-1.77A1.86,1.86,0,0,0,321.18,487Zm7.65,7.84h-1V483.5h1Z"/><path d="M343.47,485a18.56,18.56,0,0,1-.23,3.39h1.41V490H333.9v-1.62h7.26a16.33,16.33,0,0,0,.27-2.83h-6.25v-1.61h8.29Zm.32,9.88h-8.56v-4h2v2.43h6.56Z"/><path d="M352.42,488.25l-1.07,1.59a4,4,0,0,1-2.48-2.06,4.53,4.53,0,0,1-2.8,2.43L345,488.58a3.67,3.67,0,0,0,2.82-3.76v-1h2.06v.86A3.32,3.32,0,0,0,352.42,488.25Zm2.78,4.47c0,1.47-1.56,2.32-4.12,2.32s-4.1-.85-4.1-2.32,1.57-2.32,4.1-2.32S355.2,491.26,355.2,492.72Zm-6.18,0c0,.52.66.75,2.06.75s2.1-.23,2.1-.75-.69-.76-2.1-.76S349,492.17,349,492.72Zm6.16-2.6h-2v-3.26h-1.93v-1.65h1.93v-1.93h2Z"/><path d="M360.26,491.06c1.06-.05,2.14-.13,3.13-.26l.13,1.5a40.5,40.5,0,0,1-7,.45l-.16-1.6,1.92,0v-3.36h2Zm2.84-5.54a24.06,24.06,0,0,1-.31,4.41l-2-.15a25.76,25.76,0,0,0,.28-3.79h-4.15v-1.61h6.18Zm2.8,2.35h1.39v1.69H365.9V495h-2.08V483.28h2.08Z"/><path d="M381.27,490.18h-4.38v.92H380V495h-2v-2.34h-6.21V491.1h3.13v-.92h-4.33v-1.57h10.74ZM379.92,488h-8.09v-4.26h8.09Zm-6.11-1.59h4.1v-1.05h-4.1Z"/><path d="M388.74,485.5h-2.12a3.29,3.29,0,0,0,2.66,2.76l-1,1.59a4.21,4.21,0,0,1-2.63-2,4.59,4.59,0,0,1-2.79,2.27l-1-1.61a3.53,3.53,0,0,0,2.74-3H382.3v-1.62h6.44Zm3,9.42h-8v-4.45h8Zm-6-1.63h4v-1.23h-4Zm6-3.26h-2.05V483.3h2.05Z"/><path d="M400,485.81h-7v-1.58h2.45v-1h2.05v1H400Zm-.55,2.34c0,1.26-1.22,2.13-2.94,2.13s-3-.87-3-2.13,1.22-2.12,3-2.12S399.46,486.91,399.46,488.15Zm3,6.77h-7.86v-4.14h7.86Zm-6.93-6.77c0,.46.39.66,1,.65s1-.19,1-.65-.41-.61-1-.61S395.55,487.72,395.55,488.15Zm1.09,5.14h3.83v-.92h-3.83Zm5.84-7.26h1.46v1.69h-1.46v2.65h-2.05v-7.09h2.05Z"/><path d="M414.82,489.2H404.51v-.81h10.31Zm-1.16-3.55c0,1.28-1.47,2-4,2s-4-.7-4-2,1.49-1.94,4-1.94S413.66,484.39,413.66,485.65Zm-.16,7.06h-6.72v1.17h7.06v.78h-8V492h6.73v-1h-6.76v-.76h7.74Zm-6.8-7.06c0,.79,1.09,1.22,3,1.22s3-.43,3-1.22-1.11-1.19-3-1.19S406.69,484.91,406.7,485.65Z"/><path d="M429.41,493.41H419.05v-.83h2.89v-2.69H420v-.83h1.77v-3.68H420v-.82h8.45v.82h-1.8v3.68h1.77v.83h-1.95v2.69h3Zm-3.77-4.35v-3.68h-2.89v3.68Zm-.19,3.52v-2.69h-2.51v2.69Z"/><path d="M436.73,485.71h-6.4v-.81h2.75v-1.4h1v1.4h2.66Zm-.59,2.78c0,1.29-1.06,2.16-2.58,2.16s-2.57-.87-2.56-2.16,1.05-2.16,2.56-2.16S436.14,487.2,436.14,488.49Zm-4.21,0c0,.82.66,1.36,1.63,1.36s1.63-.54,1.64-1.36a1.46,1.46,0,0,0-1.64-1.37C432.59,487.13,431.93,487.68,431.93,488.49Zm8,6.06h-7.57v-3.19h1v2.35H440Zm-.26-2.43h-1V489.7h-2v-.81h2v-1.54h-2v-.82h2v-3h1Z"/><path d="M448.25,486.14h-6.73v-.82h2.91v-1.68h1v1.68h2.83Zm-.54,3.53a2.59,2.59,0,0,1-2.77,2.59,2.6,2.6,0,1,1,0-5.18A2.59,2.59,0,0,1,447.71,489.67Zm-4.59,0a1.69,1.69,0,0,0,1.82,1.74,1.71,1.71,0,0,0,1.82-1.74,1.74,1.74,0,0,0-1.82-1.75A1.72,1.72,0,0,0,443.12,489.67Zm7.22-1.51h1.89V489h-1.89v5.8h-1V483.5h1Z"/><path d="M458.25,485.09h3V483.5h1V490h-1v-1.49h-2.94a3,3,0,0,1-2.32,1,2.67,2.67,0,1,1,0-5.32A3,3,0,0,1,458.25,485.09Zm.1,8.67a3.35,3.35,0,0,0,1.65-2.68v-.77h1v.77a3.1,3.1,0,0,0,2.31,2.82l-.52.76a3.83,3.83,0,0,1-2.29-2.14,3.9,3.9,0,0,1-2.11,2.23,3.6,3.6,0,0,1-2.13-2.19,4,4,0,0,1-2.26,2.1l-.5-.76a3.25,3.25,0,0,0,2.3-2.82v-.77h1v.77A3.07,3.07,0,0,0,458.35,493.76Zm-4.35-7a2,2,0,1,0,2-1.81A1.83,1.83,0,0,0,454,486.79Zm4.88,0a2.84,2.84,0,0,1-.13.84h2.47V485.9h-2.5A2.6,2.6,0,0,1,458.88,486.79Z"/><path d="M474.42,489.48H464.11v-.82h10.31Zm-.59-2.42-.37.8a5.83,5.83,0,0,1-4.18-2.43,5.9,5.9,0,0,1-4.2,2.43l-.38-.8c2-.27,4.05-1.46,4.05-2.9v-.53h1v.53C469.79,485.56,471.85,486.8,473.83,487.06Zm-7.42,4.54h5.65v-1.32h1v4.36h-7.65v-4.36h1Zm5.65,2.24v-1.45h-5.65v1.45Z"/><path d="M477.09,491a26.63,26.63,0,0,0,5.41-.55l.14.85a26.66,26.66,0,0,1-5.61.56h-.92v-7.26h1Zm7.61,3.77h-1V483.5h1Z"/><path d="M492.42,485.43h-4.29v5.72a26.61,26.61,0,0,0,5.18-.41l.12.86a28.18,28.18,0,0,1-5.4.38h-.9v-7.37h5.29Zm3,2.54h1.9v.84h-1.9v6h-1V483.5h1Z"/><path d="M498.29,493a.8.8,0,0,1,.81-.81.82.82,0,0,1,0,1.64A.81.81,0,0,1,498.29,493Z"/><path d="M100.43,552.82h-1l.7-3.46h1.24Zm-.49-8.47a.82.82,0,1,1,.82.82A.82.82,0,0,1,99.94,544.35Z"/><path d="M105.4,540.63h1a11.92,11.92,0,0,0,0,12.17h-1a11,11,0,0,1,0-12.17Z"/><path d="M113.05,547.79l-.57.77a5.52,5.52,0,0,1-2.27-3.23,5.91,5.91,0,0,1-2.39,3.48l-.63-.75a5.73,5.73,0,0,0,2.52-4.85V541h1v2.15A5.48,5.48,0,0,0,113.05,547.79Zm1.62,2.88h-.94v-5.81H111.8V544h1.93V540.2h.94Zm2.34.57h-1V540h1Z"/><path d="M124.47,548.41h-5.23v-7.34h5.23Zm-4.25-.81h3.27v-5.73h-3.27Zm7.69,3.67h-1V540h1Z"/><path d="M140.15,545.68h-10.3v-.81h4.2V543.5h1v1.37h5.09ZM138.86,541a16.49,16.49,0,0,1-.25,3.2l-1-.06c.1-.52.16-1,.2-1.41l-6.88.33-.14-.81,7.07-.23c0-.34,0-.66,0-.94h-6.8v-.8h7.78Zm0,8.19h-6.72v1.08h7.06v.78h-8.06v-2.61h6.74v-1h-6.76v-.77h7.74Z"/><path d="M151.45,547.23H141.09v-.82h4.69v-1.25h-3.34v-2.78h6.67v-1.26H142.4v-.79h7.72v2.79h-6.68v1.26h6.92v.78h-3.6v1.25h4.69Zm-1.09,3.9h-7.89V548h1v2.31h6.89Z"/><path d="M153.36,552.8h-1a12,12,0,0,0,0-12.17h1a11,11,0,0,1,0,12.17Z"/><path d="M167.12,546.72H156.81v-.81h10.31ZM166,542.6c0,1.41-1.56,2.24-4,2.24s-4-.83-4-2.24,1.55-2.25,4-2.24S166,541.19,166,542.6Zm0,8.4h-7.83v-3.29h1v2.45H166Zm-7-8.4c0,.89,1.16,1.43,3,1.43s3-.54,3-1.43-1.18-1.44-3-1.44S159,541.71,159,542.6Z"/><path d="M181.66,549.71H171.35v-.85h4.05v-2.92h1v2.92h5.28Zm-1.26-7.56a24,24,0,0,1-.47,5.22l-1-.11a21.84,21.84,0,0,0,.4-2.72l-6.92.42-.16-.88,7.12-.29c0-.6,0-1.14,0-1.64v-.26H172.6v-.83h7.8Z"/><path d="M188.67,541.67h-4.36V545a25.82,25.82,0,0,0,5.48-.4l.12.83a30,30,0,0,1-5.67.4h-.93v-4.95h5.36Zm3.32,7.4c0,1.37-1.46,2.16-3.81,2.17s-3.82-.8-3.82-2.17,1.44-2.16,3.82-2.16S192,547.71,192,549.07Zm-6.63,0c0,.85,1.06,1.36,2.82,1.36s2.82-.51,2.82-1.36-1.08-1.36-2.82-1.36S185.36,548.22,185.36,549.07Zm6.6-2.16h-1V540h1Z"/><path d="M204.19,545.66H193.88v-.82h10.31ZM203,542.1c0,1.28-1.48,2-4,2s-4-.7-4-2,1.49-1.94,4-1.94S203,540.85,203,542.1Zm-.17,7.06h-6.72v1.17h7.07v.79h-8.06v-2.7h6.73v-1h-6.75v-.77h7.73Zm-6.79-7.06c0,.79,1.08,1.22,3,1.22s3-.43,3-1.22-1.11-1.19-3-1.19S196.06,541.37,196.07,542.1Z"/><path d="M215.08,542.6h-6.73v-.83h2.92V540.1h1v1.67h2.82Zm-.53,3.53a2.78,2.78,0,1,1-2.78-2.59A2.6,2.6,0,0,1,214.55,546.13Zm-4.6,0a1.82,1.82,0,0,0,3.64,0,1.82,1.82,0,0,0-3.64,0Zm7.22-1.51h1.9v.82h-1.9v5.8h-1V540h1Z"/><path d="M225.41,542h2.64v-2h1v8.24h-1v-3h-2.64v1h-5.2V541h5.2Zm-4.2,3.47h3.22v-3.65h-3.22Zm8.1,5.58h-7.57v-3.53h1v2.69h6.56Zm-1.26-6.62v-1.59h-2.64v1.59Z"/><path d="M244.57,549.8H234.22V549h4.65V546.2h-3.43v-5.29h7.85v5.29h-3.44V549h4.72Zm-8.15-4.4h5.9v-3.69h-5.9Z"/><path d="M255.8,546.47H245.48v-.81H255.8Zm-1.18-2.06h-7.83v-4h7.73v.81h-6.74v2.33h6.84Zm.09,6.58h-7.89v-3.3h1v2.46h6.9Z"/><path d="M270.32,549.71H260v-.85h4v-2.92h1v2.92h5.28Zm-1.26-7.56a24,24,0,0,1-.47,5.22l-1-.11a20.28,20.28,0,0,0,.41-2.72l-6.92.42-.17-.88,7.13-.29c0-.6,0-1.14,0-1.64v-.26h-6.82v-.83h7.8Z"/><path d="M281.64,549.71H271.28v-.84h10.36Zm-1.22-3.49H272.6V541h7.7v.83h-6.7v3.55h6.82Z"/><path d="M292.89,546.53H282.53v-.81h10.36ZM291.76,551h-7.88v-3.27h1v2.45h6.89Zm-.06-6.78H284v-3.8h1v3h6.76Z"/><path d="M298,552.82H297l.7-3.46h1.24Zm-.49-8.47a.82.82,0,1,1,.82.82A.82.82,0,0,1,297.46,544.35Z"/><path d="M302.92,540.63h1a11.92,11.92,0,0,0,0,12.17h-1a11,11,0,0,1,0-12.17Z"/><path d="M310.57,547.79l-.57.77a5.52,5.52,0,0,1-2.27-3.23,5.91,5.91,0,0,1-2.39,3.48l-.63-.75a5.73,5.73,0,0,0,2.52-4.85V541h1v2.15A5.48,5.48,0,0,0,310.57,547.79Zm1.62,2.88h-.94v-5.81h-1.93V544h1.93V540.2h.94Zm2.34.57h-1V540h1Z"/><path d="M322,548.41h-5.23v-7.34H322Zm-4.25-.81H321v-5.73h-3.27Zm7.69,3.67h-1V540h1Z"/><path d="M337.67,545.68H327.38v-.81h4.19V543.5h1v1.37h5.09ZM336.39,541a15.87,15.87,0,0,1-.26,3.2l-1-.06c.1-.52.16-1,.2-1.41l-6.88.33-.14-.81,7.07-.23c0-.34,0-.66,0-.94H328.6v-.8h7.79Zm0,8.19h-6.72v1.08h7.06v.78h-8.06v-2.61h6.74v-1h-6.76v-.77h7.74Z"/><path d="M349,547.23H338.61v-.82h4.69v-1.25H340v-2.78h6.67v-1.26h-6.7v-.79h7.71v2.79H341v1.26h6.92v.78h-3.6v1.25H349Zm-1.09,3.9H340V548h1v2.31h6.89Z"/><path d="M350.88,552.8h-1a12,12,0,0,0,0-12.17h1a11,11,0,0,1,0,12.17Z"/><path d="M364.69,549.75H354.33v-.84h10.36Zm-1.07-6c0,1.88-1.77,3.11-4.13,3.1s-4.14-1.22-4.14-3.1,1.77-3.1,4.14-3.1S363.62,541.92,363.62,543.79Zm-7.31,0c0,1.37,1.36,2.29,3.18,2.29s3.17-.92,3.17-2.29-1.37-2.3-3.17-2.28S356.29,542.45,356.31,543.79Z"/><path d="M376,549.85H365.6V549h4.66v-2.13H366.9V543.4h6.77v-1.78h-6.8v-.83h7.78v3.42h-6.76v1.84h7v.83h-3.67V549H376Z"/><path d="M385.82,548.37h-5.21V541.1h5.21Zm-4.25-.81h3.26V541.9h-3.26Zm7.32-3.1h1.9v.87h-1.9v5.91h-1V540h1Z"/><path d="M398.44,545.44l-.47.79a4.58,4.58,0,0,1-2.93-2.4,4.7,4.7,0,0,1-2.93,2.64l-.48-.77a3.86,3.86,0,0,0,2.89-3.45v-.15h-2.61v-.8h2.61v-1.39h1v1.39h2.59v.8h-2.6v.15A3.63,3.63,0,0,0,398.44,545.44Zm2.3,5.65h-7.36v-3.86h7.36Zm-6.38-.81h5.4V548h-5.4Zm6.38-3.62h-1V540h1Z"/><path d="M413,549.86H402.66V549h2.89v-2.69h-1.94v-.82h1.76v-3.68h-1.79V541H412v.83h-1.79v3.68H412v.82h-1.94V549h3Zm-3.76-4.34v-3.68h-2.89v3.68Zm-.2,3.51v-2.69h-2.5V549Z"/><path d="M424.27,546H413.92v-.79h10.35Zm-1.29,3.3h-6.8v1.08h7.17v.72h-8.17V548.6H422v-1h-6.82v-.75H423Zm0-6.65h-6.68v1h6.88v.72h-7.88V542h6.67V541h-6.7v-.72h7.71Z"/><path d="M432.33,545.21a4.14,4.14,0,0,0,1.15-3v-.6h-.87v-.83h3.22v.83h-1.38v.6a3.63,3.63,0,0,0,1.82,3.24l-.54.73A3.81,3.81,0,0,1,434,544a3.68,3.68,0,0,1-1.64,2.34,3.8,3.8,0,0,1-1.64-2.33,3.82,3.82,0,0,1-1.74,2.23l-.56-.73a3.77,3.77,0,0,0,1.84-3.24v-.6H428.8v-.83h3.25v.83h-.89v.6A4.22,4.22,0,0,0,432.33,545.21Zm5.59,6h-1v-3.13h-6.77v-.82h7.76Zm0-4.52h-1V540h1Z"/><path d="M450,545.94H439.73v-.83H450Zm-.59-2.43-.37.8a5.82,5.82,0,0,1-4.18-2.42,5.92,5.92,0,0,1-4.2,2.42l-.39-.8c2-.26,4.06-1.46,4.06-2.89v-.54h1v.54C445.4,542,447.47,543.26,449.45,543.51ZM442,548.06h5.65v-1.32h1v4.35H441v-4.35h1Zm5.65,2.23v-1.45H442v1.45Z"/><path d="M452.71,547.47a25.9,25.9,0,0,0,5.41-.54l.14.85a26.66,26.66,0,0,1-5.61.56h-.92v-7.27h1Zm7.61,3.77h-1V540h1Z"/><path d="M468,541.89h-4.29v5.71a26.61,26.61,0,0,0,5.18-.41l.12.87a29.07,29.07,0,0,1-5.4.38h-.9v-7.38H468Zm3,2.54h1.9v.83H471v6h-1V540h1Z"/><path d="M473.9,549.47a.82.82,0,1,1,.82.82A.82.82,0,0,1,473.9,549.47Z"/><path d="M105.76,564.77c0,2.4-1.21,3.92-2.89,3.92s-2.89-1.52-2.89-3.92,1.2-3.92,2.89-3.94S105.76,562.37,105.76,564.77Zm-4.81,0c0,1.84.79,3,1.92,3s1.92-1.19,1.92-3-.79-3-1.92-3S101,562.93,101,564.77Zm7.94,6.5h-1V560h1Z"/><path d="M121.17,566.53H110.81v-.81h10.36ZM120,571h-7.88v-3.27h1v2.45H120Zm-.06-6.78h-7.75v-3.8h1v3H120Z"/><path d="M131.32,564l.07.68a21.27,21.27,0,0,1-2.5.33v1.87h-1v-1.82c-.93,0-1.81,0-2.51,0l-.11-.79A44.58,44.58,0,0,0,131.32,564Zm-.47-2c0,1-1,1.66-2.48,1.66s-2.47-.65-2.47-1.66,1-1.68,2.47-1.68S130.85,561,130.85,562Zm-4,0c0,.58.6.94,1.56.94s1.56-.36,1.57-.94-.62-1-1.57-.95S126.81,561.44,126.81,562Zm1.49,6.38H134v-1.06h1v3.73h-7.62v-3.73h1Zm5.65,1.87v-1.07H128.3v1.07Zm-1-3.38h-1v-.64h-2v-.73h2v-5.38h1Zm2,0H134v-7h.95Z"/><path d="M143.19,562h-1.31v5.46c.58,0,1.14-.08,1.67-.14l.06.73a47.79,47.79,0,0,1-7,.41l-.1-.85h1.52V562h-1.17v-.84h6.3Zm-2.27,5.51V562H139v5.57C139.66,567.55,140.29,567.54,140.92,567.5Zm5.09,3.74h-1v-6.19H142.8v-.83H145V560h1Z"/><path d="M158.2,565.66H147.89v-.8H158.2Zm-1.32,3.54h-6.72v1.13h7.06v.79h-8.06v-2.66h6.74v-1h-6.76v-.76h7.74Zm-6.62-8h5.6v-1.09h1v3.72h-7.58v-3.72h1Zm5.6,1.87V562h-5.6v1.11Z"/><path d="M165.06,565h-4.22v2.67a32.73,32.73,0,0,0,5.57-.41l.1.84a34.75,34.75,0,0,1-5.75.41h-.94v-4.32h4.24v-2.37h-4.27V561h5.27Zm3.44,6.25h-1V560h1Z"/><path d="M177.36,567.88l-.6.81a6,6,0,0,1-2.85-3.65,6.51,6.51,0,0,1-2.85,3.82l-.65-.8a6,6,0,0,0,3-5.07v-2.06h1V563A5.63,5.63,0,0,0,177.36,567.88Zm2.44,3.39h-1v-5.19h-2.5v-.85h2.5v-2h-2.5v-.84h2.5V560h1Z"/><path d="M189.22,567.55l.08.74a41.53,41.53,0,0,1-7.41.49l-.14-.85A53.52,53.52,0,0,0,189.22,567.55Zm-.79-4.11a2.74,2.74,0,0,1-3,2.65c-1.78,0-3.07-1.08-3.06-2.65s1.28-2.66,3.06-2.66A2.74,2.74,0,0,1,188.43,563.44Zm-5.12,0a2.09,2.09,0,1,0,2.08-1.78A1.86,1.86,0,0,0,183.31,563.44Zm7.65,7.83h-1V560h1Z"/><path d="M203,568l-.57.78a6,6,0,0,1-2.85-3.49,6.48,6.48,0,0,1-2.93,3.77l-.61-.78a5.92,5.92,0,0,0,3-4.87V562h-2.63v-.83h6.16V562h-2.55v1.47A5.44,5.44,0,0,0,203,568Zm2-3.48h1.89v.85H205v5.86h-1V560h1Z"/><path d="M214.47,564.82l-.49.77a4.61,4.61,0,0,1-2.91-2.47,4.66,4.66,0,0,1-2.95,2.71l-.47-.78a3.91,3.91,0,0,0,2.9-3.49v-.13h-2.64v-.83h6.26v.83h-2.61v.13A3.68,3.68,0,0,0,214.47,564.82Zm2.36,4.24h-6.35v1.26h6.75v.8H209.5v-2.81h6.33v-1.15h-6.36v-.79h7.36Zm0-3.24h-1V560h1Z"/><path d="M229.11,569.85H218.75V569h4.66v-2.13h-3.36V563.4h6.77v-1.78H220v-.83h7.78v3.42H221v1.84h7v.83h-3.68V569h4.72Z"/><path d="M237,567.84l-.6.81A6.12,6.12,0,0,1,233.5,565a6.4,6.4,0,0,1-2.85,3.82l-.65-.8a6,6,0,0,0,3-5.07v-2.06h1V563A5.56,5.56,0,0,0,237,567.84Zm2.44,3.43h-1v-6.64h-2.68v-.81h2.68V560h1Z"/><path d="M246.7,567a25.37,25.37,0,0,0,4.43-.48l.2,1.69a27.73,27.73,0,0,1-5.6.47h-1.06v-7.81h2Zm8.55-1.28h-1.5v5.77H251.7V559.73h2.05V564h1.5Z"/><path d="M266.38,570.27H255.62v-1.65H260v-1.5H256.8V563h6.4v-.92h-6.42v-1.62h8.44v4.11h-6.38v.94h6.65v1.64H262v1.5h4.38Z"/><path d="M280.44,565.53H269.73v-1.6h2.54a8.33,8.33,0,0,0,.44-2.23h-2v-1.6h4v.8a9.31,9.31,0,0,1-.39,3H277a8.23,8.23,0,0,0,.34-2.23h-2v-1.6h4v1a11,11,0,0,1-.29,2.84h1.42Zm-1.22,2h-6.17V568h5.89v1.41h-5.89v.46h6.26v1.52H271v-5.31h8.22Z"/><path d="M283.44,567a17.56,17.56,0,0,0,2.64-.29l.19,1.74a24.74,24.74,0,0,1-4,.33h-.83V561h2Zm7.76,4.52h-1.95v-5.72h-.72v5.19h-1.91v-11h1.91v4.21h.72v-4.39h1.95Z"/><path d="M297.22,562.62H298V560h1.91v6.26H298v-2h-1.5a6.92,6.92,0,0,1-3.34,2.52l-1-1.51c2-.74,2.89-1.73,3.13-3.12h-2.47V560.5h4.61A8.24,8.24,0,0,1,297.22,562.62Zm.69,6.87a3,3,0,0,0,1.18-2.41v-.39h2v.39a2.68,2.68,0,0,0,2.11,2.8l-1,1.48a3.43,3.43,0,0,1-2.2-1.89,3.77,3.77,0,0,1-2.12,2,3.55,3.55,0,0,1-2.11-1.93,3.64,3.64,0,0,1-2.13,1.84l-1-1.48a2.79,2.79,0,0,0,2.13-2.8v-.39h1.95v.39A2.9,2.9,0,0,0,297.91,569.49Zm4.53-3.13H300.5v-6.61h1.94Z"/><path d="M309.49,562.42H306V567a27.81,27.81,0,0,0,4.21-.33l.22,1.68a30.9,30.9,0,0,1-5.43.33h-1v-7.94h5.52Zm3.42,1.5h1.59v1.65h-1.59v5.94h-2.05V559.73h2.05Z"/><path d="M325.53,566.9H314.79v-1.57h10.74Zm-1.08,4.34h-8.54v-3.53H318v1.91h6.48Zm-.08-7h-8.32v-4.14h2v2.56h6.29Z"/><path d="M334.55,562.08h-3.29v2.27a21.15,21.15,0,0,0,4.29-.33l.16,1.6a23.52,23.52,0,0,1-5.46.35h-1v-5.51h5.33Zm3.87,6.94c0,1.56-1.59,2.48-4,2.48s-4.12-.92-4.11-2.48,1.62-2.44,4.11-2.44S338.42,567.5,338.42,569Zm-6.12,0c0,.61.71.88,2.1.86s2-.25,2.05-.86-.73-.84-2.05-.84S332.29,568.44,332.3,569Zm6-6.66h1.44V564h-1.44v2.41h-2.07v-6.66h2.07Z"/><path d="M346.89,562.6H344.7a3.12,3.12,0,0,0,2.66,2.84l-1,1.61a4.15,4.15,0,0,1-2.66-2,4.35,4.35,0,0,1-2.68,2.15l-1-1.6a3.32,3.32,0,0,0,2.67-3h-2.19V561h2.19v-1.2h2V561h2.18Zm3,8.71h-8.15v-3.67h2.05v2h6.1Zm-.35-8.2H351v1.63h-1.47v3.68h-2.05v-8.67h2.05Z"/><path d="M365,570.27H354.26v-1.69h4.34v-1.75h-3.5v-1.57h1.41v-3H355v-1.6h9.17v1.6h-1.52v3h1.45v1.57h-3.51v1.75H365Zm-4.35-5v-3h-2.11v3Z"/><path d="M376.26,568h-4.4v3.51h-2V568h-4.32v-1.58h10.74Zm-7.56-6.61H373v-1.18h2.05v5.27h-8.38v-5.27h2Zm4.32,2.47v-.89H368.7v.89Z"/><path d="M387.32,566H377v-.79h10.36Zm-1.29,3.3h-6.8v1.08h7.16v.72h-8.17V568.6H385v-1h-6.82v-.75H386Zm0-6.65h-6.68v1h6.88v.72h-7.88V562H385V561h-6.7v-.72H386Z"/><path d="M400.89,567.74h-1v-2.55H397a2.93,2.93,0,0,1-2.33,1,2.74,2.74,0,1,1,0-5.47,2.94,2.94,0,0,1,2.34,1h2.92V560h1Zm-8.24-4.28a2,2,0,1,0,2-1.88A1.88,1.88,0,0,0,392.65,563.46Zm9,6.95-.42.78a5.48,5.48,0,0,1-4-2.51,5.55,5.55,0,0,1-4,2.51l-.38-.78c2-.35,3.83-1.59,3.84-3.15v-.45h1v.45C397.74,568.86,399.58,570.06,401.61,570.41Zm-1.72-6V562.6h-2.47a2.67,2.67,0,0,1,.14.86,3,3,0,0,1-.15.92Z"/><path d="M405.15,561.23h5.59v-1.08h1v3.7H408.4V565h4.69v.81H402.78V565h4.64v-1.12h-3.27v-3.7h1Zm6.61,8H405v1.11h7.07v.79h-8.06v-2.63h6.73v-1H404v-.77h7.73Zm-1-6.14V562h-5.59v1.09Z"/><path d="M427.62,567.16h-4.68v4.08h-1v-4.08h-4.65v-.84h10.31Zm-.51-2.9-.4.81a5.88,5.88,0,0,1-4.23-2.65,5.83,5.83,0,0,1-4.22,2.65l-.41-.81c2-.28,4.11-1.64,4.11-3.25v-.65h1V561C423,562.6,425.08,564,427.11,564.26Z"/><path d="M438.05,563.27a3,3,0,1,1-3-2.64A2.7,2.7,0,0,1,438.05,563.27Zm-.75,6.93a3.36,3.36,0,0,0,1.64-2.66v-.63h1v.63a3.13,3.13,0,0,0,2.3,2.81l-.49.74a3.82,3.82,0,0,1-2.32-2.13,3.88,3.88,0,0,1-2.09,2.22,3.6,3.6,0,0,1-2.14-2.2,4,4,0,0,1-2.26,2.11l-.51-.74a3.28,3.28,0,0,0,2.3-2.81v-.63h1v.63A3.09,3.09,0,0,0,437.3,570.2Zm-4.2-6.93a1.82,1.82,0,0,0,2,1.79,1.8,1.8,0,1,0,0-3.58A1.8,1.8,0,0,0,433.1,563.27Zm8.09,3.15h-1V560h1Z"/><path d="M453.42,565.94H443.11v-.83h10.31Zm-.58-2.43-.37.8a5.82,5.82,0,0,1-4.19-2.42,5.88,5.88,0,0,1-4.2,2.42l-.38-.8c2-.26,4.06-1.46,4.06-2.89v-.54h1v.54C448.79,562,450.85,563.26,452.84,563.51Zm-7.42,4.55h5.65v-1.32h1v4.35h-7.64v-4.35h1Zm5.65,2.23v-1.45h-5.65v1.45Z"/><path d="M456.1,567.47a26,26,0,0,0,5.41-.54l.14.85a26.76,26.76,0,0,1-5.62.56h-.91v-7.27h1Zm7.61,3.77h-1V560h1Z"/><path d="M471.42,561.89h-4.29v5.71a26.61,26.61,0,0,0,5.18-.41l.13.87a29.18,29.18,0,0,1-5.41.38h-.89v-7.38h5.28Zm3,2.54h1.89v.83H474.4v6h-1V560h1Z"/><path d="M477.29,569.47a.82.82,0,0,1,.81-.82.82.82,0,0,1,0,1.64A.82.82,0,0,1,477.29,569.47Z"/><path class="cls-1" d="M103,163.65a1.61,1.61,0,0,1-1.08-.37,1.32,1.32,0,0,1-.41-1V151.73a1.29,1.29,0,0,1,.41-1,1.56,1.56,0,0,1,1.08-.37h.12a1.69,1.69,0,0,1,1.07.33,1,1,0,0,1,.43.82v0a4.88,4.88,0,0,1,3.24-1.28,3.92,3.92,0,0,1,2.08.55,4.22,4.22,0,0,1,1.48,1.59,5.48,5.48,0,0,1,1.85-1.59,4.83,4.83,0,0,1,2.25-.55,3.76,3.76,0,0,1,3.24,1.63,7.72,7.72,0,0,1,1.17,4.55v5.85a1.32,1.32,0,0,1-.41,1,1.61,1.61,0,0,1-1.08.37h-.12a1.61,1.61,0,0,1-1.08-.37,1.32,1.32,0,0,1-.41-1v-5.46c0-2.54-.67-3.81-2-3.81a2.25,2.25,0,0,0-1.75.84,3.57,3.57,0,0,0-.81,2.24v6.19a1.28,1.28,0,0,1-.41,1,1.61,1.61,0,0,1-1.08.37h-.12a1.61,1.61,0,0,1-1.08-.37,1.32,1.32,0,0,1-.41-1v-5.46c0-2.54-.67-3.81-2-3.81a2.22,2.22,0,0,0-1.74.88,3.7,3.7,0,0,0-.81,2.31v6.08a1.29,1.29,0,0,1-.42,1,1.59,1.59,0,0,1-1.08.37Z"/><path class="cls-1" d="M125.58,162.88a6,6,0,0,1-2.3-2.4,7.16,7.16,0,0,1-.82-3.46,7.26,7.26,0,0,1,.83-3.49,5.92,5.92,0,0,1,2.24-2.43,6.14,6.14,0,0,1,3.24-.86,6.27,6.27,0,0,1,3,.71,5.73,5.73,0,0,1,2.18,2,6.84,6.84,0,0,1,1,3.05,2,2,0,0,1-.46,1.64,2.25,2.25,0,0,1-1.68.57h-7.1a3.46,3.46,0,0,0,1.17,2A3.3,3.3,0,0,0,129,161a4.47,4.47,0,0,0,1.38-.19,4.88,4.88,0,0,0,1.29-.7,1.62,1.62,0,0,1,.94-.3,1.34,1.34,0,0,1,1,.39,1.31,1.31,0,0,1,.42,1,1.44,1.44,0,0,1-.56,1.11,5.18,5.18,0,0,1-1.93,1,8,8,0,0,1-2.55.41A6.76,6.76,0,0,1,125.58,162.88Zm6.11-7.17a3.38,3.38,0,0,0-1-2,2.76,2.76,0,0,0-1.92-.72,2.8,2.8,0,0,0-1.93.73,3.88,3.88,0,0,0-1.13,2Z"/><path class="cls-1" d="M140.17,162.86a6,6,0,0,1-2.23-2.41,7.95,7.95,0,0,1,0-6.95,6,6,0,0,1,2.23-2.4,6.06,6.06,0,0,1,3.22-.86,5.24,5.24,0,0,1,3.75,1.47v-.21a1,1,0,0,1,.43-.82,1.69,1.69,0,0,1,1.07-.33h.11a1.52,1.52,0,0,1,1.08.37,1.26,1.26,0,0,1,.42,1v10.54a1.29,1.29,0,0,1-.42,1,1.57,1.57,0,0,1-1.08.37h-.11a1.69,1.69,0,0,1-1.07-.34,1,1,0,0,1-.43-.81v-.23a5.24,5.24,0,0,1-3.75,1.47A6,6,0,0,1,140.17,162.86Zm.52-3.83a3.59,3.59,0,0,0,1.23,1.43,3.27,3.27,0,0,0,3.54,0,3.59,3.59,0,0,0,1.23-1.43,4.49,4.49,0,0,0,.45-2,4.59,4.59,0,0,0-.45-2.06,3.59,3.59,0,0,0-1.23-1.43,3.33,3.33,0,0,0-3.54,0,3.59,3.59,0,0,0-1.23,1.43,4.59,4.59,0,0,0-.45,2.06A4.49,4.49,0,0,0,140.69,159Z"/><path class="cls-1" d="M154.64,163.65a1.57,1.57,0,0,1-1.08-.37,1.28,1.28,0,0,1-.41-1V151.73a1.26,1.26,0,0,1,.41-1,1.52,1.52,0,0,1,1.08-.37h.11a1.69,1.69,0,0,1,1.07.33,1,1,0,0,1,.43.82v.07a5.42,5.42,0,0,1,7.49.36,7,7,0,0,1,1.46,4.72v5.62a1.29,1.29,0,0,1-.42,1,1.57,1.57,0,0,1-1.08.37h-.11a1.57,1.57,0,0,1-1.08-.37,1.29,1.29,0,0,1-.42-1V157a5.24,5.24,0,0,0-.72-3,2.44,2.44,0,0,0-2.11-1,2.78,2.78,0,0,0-2.09.85,3.56,3.56,0,0,0-.92,2.34v6.08a1.32,1.32,0,0,1-.41,1,1.62,1.62,0,0,1-1.09.37Z"/><path class="cls-1" d="M168.38,145.38a2,2,0,0,1,2.79,0,1.84,1.84,0,0,1,.56,1.34,1.76,1.76,0,0,1-.56,1.3,2.07,2.07,0,0,1-2.79,0,1.76,1.76,0,0,1-.56-1.3A1.84,1.84,0,0,1,168.38,145.38Zm1.32,18.27a1.61,1.61,0,0,1-1.08-.37,1.32,1.32,0,0,1-.41-1V151.73a1.29,1.29,0,0,1,.41-1,1.56,1.56,0,0,1,1.08-.37h.12a1.56,1.56,0,0,1,1.08.37,1.26,1.26,0,0,1,.41,1v10.54a1.28,1.28,0,0,1-.41,1,1.61,1.61,0,0,1-1.08.37Z"/><path class="cls-1" d="M175.94,163.65a1.57,1.57,0,0,1-1.08-.37,1.29,1.29,0,0,1-.42-1V151.73a1.26,1.26,0,0,1,.42-1,1.52,1.52,0,0,1,1.08-.37h.11a1.69,1.69,0,0,1,1.07.33,1,1,0,0,1,.43.82v.07a5.41,5.41,0,0,1,7.48.36,7,7,0,0,1,1.46,4.72v5.62a1.28,1.28,0,0,1-.41,1,1.61,1.61,0,0,1-1.08.37h-.12a1.61,1.61,0,0,1-1.08-.37,1.32,1.32,0,0,1-.41-1V157a5.24,5.24,0,0,0-.72-3,2.44,2.44,0,0,0-2.11-1,2.78,2.78,0,0,0-2.09.85,3.56,3.56,0,0,0-.92,2.34v6.08a1.29,1.29,0,0,1-.42,1,1.57,1.57,0,0,1-1.08.37Z"/><path class="cls-1" d="M190.15,166.52a1.52,1.52,0,0,1-.53-1.15,1.29,1.29,0,0,1,.37-.94,1.34,1.34,0,0,1,1.06-.51,1.3,1.3,0,0,1,1,.39,5.61,5.61,0,0,0,1.73,1.14,5.39,5.39,0,0,0,1.95.33,3.66,3.66,0,0,0,2.45-.75,2.85,2.85,0,0,0,.89-2.28v-.95a5.31,5.31,0,0,1-3.75,1.48,6.17,6.17,0,0,1-3.22-.85,5.89,5.89,0,0,1-2.23-2.33,7.33,7.33,0,0,1,0-6.7,5.93,5.93,0,0,1,2.23-2.32,6.21,6.21,0,0,1,3.22-.84,5.34,5.34,0,0,1,3.75,1.47v-.21a1,1,0,0,1,.43-.82,1.68,1.68,0,0,1,1.06-.33h.12a1.56,1.56,0,0,1,1.08.37,1.26,1.26,0,0,1,.41,1v10.56a6.11,6.11,0,0,1-1.7,4.6,6.51,6.51,0,0,1-4.74,1.65A7.63,7.63,0,0,1,190.15,166.52Zm3-7.06a3.41,3.41,0,0,0,4.94,0,3.82,3.82,0,0,0,1-2.69,3.87,3.87,0,0,0-1-2.69,3.39,3.39,0,0,0-5,0,3.87,3.87,0,0,0-1,2.69A3.82,3.82,0,0,0,193.11,159.46Z"/><path class="cls-1" d="M213.54,162.86a6.42,6.42,0,0,1-2.44-2.44,6.84,6.84,0,0,1-.87-3.44,6.93,6.93,0,0,1,.87-3.49,6.25,6.25,0,0,1,2.42-2.39,7.53,7.53,0,0,1,7,0,6.25,6.25,0,0,1,2.42,2.39,6.93,6.93,0,0,1,.87,3.49,7,7,0,0,1-.87,3.47,6.44,6.44,0,0,1-2.45,2.41,7.28,7.28,0,0,1-6.94,0Zm.27-3.83a3.55,3.55,0,0,0,1.31,1.43,3.71,3.71,0,0,0,3.79,0,3.55,3.55,0,0,0,1.31-1.43,4.25,4.25,0,0,0,.48-2,4.45,4.45,0,0,0-.49-2.09,3.43,3.43,0,0,0-1.32-1.42,3.83,3.83,0,0,0-3.75,0,3.43,3.43,0,0,0-1.32,1.42,4.44,4.44,0,0,0-.48,2.09A4.25,4.25,0,0,0,213.81,159Z"/><path class="cls-1" d="M228.7,163.23a1.46,1.46,0,0,1-.41-1.1v-8.9h-1.06a1.73,1.73,0,0,1-1.16-.37,1.25,1.25,0,0,1-.43-1,1.32,1.32,0,0,1,.44-1,1.7,1.7,0,0,1,1.15-.38h1.06v-.69a6.3,6.3,0,0,1,.64-3,4.14,4.14,0,0,1,1.67-1.81,4.8,4.8,0,0,1,2.4-.6,5.07,5.07,0,0,1,3.59,1.19,1.32,1.32,0,0,1,.46,1,1.54,1.54,0,0,1-.35.92,1.5,1.5,0,0,1-1.15.57,1.16,1.16,0,0,1-.76-.27,2.47,2.47,0,0,0-1.77-.65,1.35,1.35,0,0,0-1.18.71,3.92,3.92,0,0,0-.45,2.1v.55h3.82a1.71,1.71,0,0,1,1.15.38,1.32,1.32,0,0,1,.44,1,1.28,1.28,0,0,1-.43,1,1.73,1.73,0,0,1-1.16.37h-3.82v8.9a1.49,1.49,0,0,1-.41,1.1,1.55,1.55,0,0,1-1.15.42A1.52,1.52,0,0,1,228.7,163.23Z"/><path class="cls-1" d="M245.1,162.61a4.86,4.86,0,0,1-.83-3.2V145.75a1.29,1.29,0,0,1,.41-1,1.57,1.57,0,0,1,1.09-.37h.11a1.54,1.54,0,0,1,1.08.37,1.26,1.26,0,0,1,.42,1v14a1.53,1.53,0,0,0,.14.81.64.64,0,0,0,.57.22,1.12,1.12,0,0,1,.84.35,1.3,1.3,0,0,1,.33.94,1.5,1.5,0,0,1-.38,1.08,1.42,1.42,0,0,1-1.07.39A3.42,3.42,0,0,1,245.1,162.61Z"/><path class="cls-1" d="M254,162.86a6.33,6.33,0,0,1-2.43-2.44,6.75,6.75,0,0,1-.88-3.44,6.83,6.83,0,0,1,.88-3.49,6.15,6.15,0,0,1,2.41-2.39,7.53,7.53,0,0,1,7,0,6.25,6.25,0,0,1,2.42,2.39,6.93,6.93,0,0,1,.87,3.49,7,7,0,0,1-.87,3.47,6.44,6.44,0,0,1-2.45,2.41,6.88,6.88,0,0,1-3.46.88A7,7,0,0,1,254,162.86Zm.27-3.83a3.55,3.55,0,0,0,1.31,1.43,3.71,3.71,0,0,0,3.79,0,3.55,3.55,0,0,0,1.31-1.43,4.25,4.25,0,0,0,.48-2,4.33,4.33,0,0,0-.49-2.09,3.43,3.43,0,0,0-1.32-1.42,3.83,3.83,0,0,0-3.75,0,3.43,3.43,0,0,0-1.32,1.42,4.44,4.44,0,0,0-.48,2.09A4.25,4.25,0,0,0,254.22,159Z"/><path class="cls-1" d="M267.64,166.52a1.52,1.52,0,0,1-.53-1.15,1.25,1.25,0,0,1,.37-.94,1.33,1.33,0,0,1,1-.51,1.31,1.31,0,0,1,1,.39,5.49,5.49,0,0,0,1.73,1.14,5.31,5.31,0,0,0,1.95.33,3.68,3.68,0,0,0,2.45-.75,2.85,2.85,0,0,0,.89-2.28v-.95a5.31,5.31,0,0,1-3.75,1.48,6.14,6.14,0,0,1-3.22-.85,5.82,5.82,0,0,1-2.23-2.33,7.33,7.33,0,0,1,0-6.7,5.86,5.86,0,0,1,2.23-2.32,6.21,6.21,0,0,1,3.22-.84,5.34,5.34,0,0,1,3.75,1.47v-.21a1,1,0,0,1,.42-.82,1.71,1.71,0,0,1,1.07-.33h.12a1.56,1.56,0,0,1,1.08.37,1.29,1.29,0,0,1,.41,1v10.56a6.15,6.15,0,0,1-1.7,4.6,6.53,6.53,0,0,1-4.74,1.65A7.62,7.62,0,0,1,267.64,166.52Zm2.95-7.06a3.42,3.42,0,0,0,5,0,3.82,3.82,0,0,0,1-2.69,3.91,3.91,0,0,0-1-2.69,3.4,3.4,0,0,0-5,0,3.91,3.91,0,0,0-1,2.69A3.82,3.82,0,0,0,270.59,159.46Z"/><path class="cls-1" d="M285.51,162.86a6.36,6.36,0,0,1-2.44-2.44,6.84,6.84,0,0,1-.87-3.44,6.93,6.93,0,0,1,.87-3.49,6.18,6.18,0,0,1,2.42-2.39,7.53,7.53,0,0,1,7,0,6.22,6.22,0,0,1,2.41,2.39,6.83,6.83,0,0,1,.88,3.49,6.91,6.91,0,0,1-.88,3.47,6.37,6.37,0,0,1-2.45,2.41,7.26,7.26,0,0,1-6.93,0Zm.26-3.83a3.65,3.65,0,0,0,5.11,1.43,3.55,3.55,0,0,0,1.31-1.43,4.37,4.37,0,0,0,.47-2,4.44,4.44,0,0,0-.48-2.09,3.43,3.43,0,0,0-1.32-1.42,3.83,3.83,0,0,0-3.75,0,3.51,3.51,0,0,0-1.33,1.42,4.44,4.44,0,0,0-.48,2.09A4.37,4.37,0,0,0,285.77,159Z"/><rect class="cls-2" x="648.35" y="203.42" width="201" height="92.46"/><circle class="cls-3" cx="703.7" cy="222.18" r="7.04"/><path class="cls-3" d="M798.54,240.17a5.47,5.47,0,0,0,5.46-5.49h0a5.47,5.47,0,0,0-5.49-5.46l-24.75.06-.3,0h-.05a5.47,5.47,0,0,0-5.46,5.49l.11,40.72a5.47,5.47,0,0,0,5.49,5.46,5.34,5.34,0,0,0,.69-.05l24.41-.06a5.48,5.48,0,0,0,5.46-5.49h0a5.47,5.47,0,0,0-5.49-5.46L779,270l0-10.21,19.62-.05a5.48,5.48,0,0,0,0-10.95l-19.63.05,0-8.58Z"/><path class="cls-3" d="M748.2,246.49h-.07a18.5,18.5,0,0,0-7.53,1.61,5.47,5.47,0,0,0-9.67,3.53l.06,24.75a5.48,5.48,0,1,0,11,0l0-16.88a7.4,7.4,0,0,1,6.26-3h.07c3.72,0,6.87,2.26,6.88,5l0,15.26a5,5,0,0,0,10,0l0-15.25C765.08,253.16,757.5,246.47,748.2,246.49Z"/><path class="cls-3" d="M703.63,232.84a25.75,25.75,0,1,0,25.81,25.68A25.76,25.76,0,0,0,703.63,232.84Zm.1,39.23a13.48,13.48,0,1,1,13.44-13.52A13.51,13.51,0,0,1,703.73,272.07Z"/><rect class="cls-3" x="809.33" y="237.25" width="10.95" height="9.83" rx="4.17" transform="matrix(0, -1, 1, 0, 574.75, 1057.59)"/><path class="cls-3" d="M819.69,256.15a4.91,4.91,0,0,0-4.86-4.14h0a4.91,4.91,0,0,0-4.9,4.93v1.12a4.91,4.91,0,0,0,4.92,4.9h0a4.91,4.91,0,0,0,1.59-.27l0,11a3.18,3.18,0,0,1-3.24,3.09,1.58,1.58,0,1,0,0,3.16,6.44,6.44,0,0,0,6.57-6.26l0-15.63v-1.47A1.93,1.93,0,0,0,819.69,256.15Z"/><circle class="cls-4" cx="486.44" cy="223.15" r="7.04"/><path class="cls-5" d="M581.29,241.13a5.46,5.46,0,0,0,5.46-5.48h0a5.47,5.47,0,0,0-5.49-5.46l-24.76.06-.29,0h-.05a5.48,5.48,0,0,0-5.46,5.49l.1,40.73a5.48,5.48,0,0,0,5.49,5.46,5.36,5.36,0,0,0,.7-.05l24.41-.07a5.47,5.47,0,0,0,5.46-5.49h0a5.49,5.49,0,0,0-5.49-5.46l-19.63.06,0-10.21,19.63-.05a5.48,5.48,0,0,0,0-11l-19.63.05,0-8.58Z"/><path class="cls-5" d="M531,247.46h-.07a18.3,18.3,0,0,0-7.53,1.6,5.47,5.47,0,0,0-9.67,3.53l.06,24.76a5.48,5.48,0,0,0,11,0l0-16.88a7.41,7.41,0,0,1,6.25-3H531c3.72,0,6.87,2.27,6.88,5l0,15.26a5,5,0,1,0,10,0l0-15.26C547.82,254.13,540.24,247.43,531,247.46Z"/><path class="cls-5" d="M486.38,233.81a25.75,25.75,0,1,0,25.81,25.68A25.74,25.74,0,0,0,486.38,233.81Zm.1,39.22a13.48,13.48,0,1,1,13.44-13.51A13.49,13.49,0,0,1,486.48,273Z"/><rect class="cls-4" x="592.07" y="238.22" width="10.95" height="9.83" rx="4.17" transform="translate(355.97 841.31) rotate(-90.15)"/><path class="cls-4" d="M602.43,257.12a4.9,4.9,0,0,0-4.86-4.14h0a4.91,4.91,0,0,0-4.9,4.92V259a4.9,4.9,0,0,0,4.92,4.9h0a4.66,4.66,0,0,0,1.59-.27l0,11a3.17,3.17,0,0,1-3.24,3.09,1.58,1.58,0,1,0,0,3.16,6.42,6.42,0,0,0,6.56-6.26l0-15.62v-1.47A1.41,1.41,0,0,0,602.43,257.12Z"/><circle class="cls-4" cx="300.44" cy="223.64" r="7.04"/><path class="cls-5" d="M300.38,234.31A25.74,25.74,0,1,0,326.19,260,25.74,25.74,0,0,0,300.38,234.31Zm.1,39.22A13.48,13.48,0,1,1,313.92,260,13.49,13.49,0,0,1,300.48,273.53Z"/><rect class="cls-4" x="381.29" y="235.37" width="10.95" height="9.83" rx="4.17" transform="translate(140.3 623.14) rotate(-89.08)"/><path class="cls-4" d="M391.39,254.36a4.9,4.9,0,0,0-4.78-4.23h0a4.91,4.91,0,0,0-5,4.83l0,1.12a4.91,4.91,0,0,0,4.83,5h0a4.9,4.9,0,0,0,1.59-.24l-.17,11a3.18,3.18,0,0,1-3.3,3,1.58,1.58,0,1,0-.05,3.16,6.42,6.42,0,0,0,6.67-6.14l.26-15.62v-1.47A1.4,1.4,0,0,0,391.39,254.36Z"/><path class="cls-5" d="M220.36,241.39a5.48,5.48,0,0,0,5.46-5.49h0a5.47,5.47,0,0,0-5.49-5.46l-24.76.06-.29,0h-.05a5.46,5.46,0,0,0-5.46,5.48l.1,40.73a5.48,5.48,0,0,0,5.49,5.46,5.36,5.36,0,0,0,.7-.05l24.41-.07a5.47,5.47,0,0,0,5.46-5.48h0a5.47,5.47,0,0,0-5.49-5.46l-19.63.05,0-10.21,19.63-.05a5.48,5.48,0,1,0,0-11l-19.63.05,0-8.58Z"/><path class="cls-5" d="M170,247.71H170a18.62,18.62,0,0,0-7.53,1.6,5.48,5.48,0,0,0-9.67,3.53l.06,24.76a5.48,5.48,0,0,0,10.95,0l0-16.87a7.36,7.36,0,0,1,6.25-3h.08c3.72,0,6.87,2.26,6.88,5l0,15.26a5,5,0,1,0,10,0l0-15.25C186.89,254.38,179.31,247.68,170,247.71Z"/><path class="cls-5" d="M125.45,234.06a25.75,25.75,0,1,0,25.81,25.68A25.75,25.75,0,0,0,125.45,234.06Zm.1,39.22A13.48,13.48,0,1,1,139,259.77,13.49,13.49,0,0,1,125.55,273.28Z"/><path class="cls-6" d="M254.64,258.11h-3.49v-3.43a1.2,1.2,0,1,0-2.39,0v3.43h-3.39a1.2,1.2,0,0,0,0,2.4h3.39V264a1.2,1.2,0,0,0,2.39,0v-3.45h3.49a1.2,1.2,0,1,0,0-2.4Z"/><path class="cls-6" d="M358.27,258.11h-3.5v-3.43a1.2,1.2,0,1,0-2.39,0v3.43H349a1.2,1.2,0,0,0,0,2.4h3.39V264a1.2,1.2,0,0,0,2.39,0v-3.45h3.5a1.2,1.2,0,0,0,0-2.4Z"/><line class="cls-4" x1="426.44" y1="257.47" x2="417.17" y2="257.47"/><path class="cls-6" d="M426.44,258.67h-9.27a1.2,1.2,0,1,1,0-2.39h9.27a1.2,1.2,0,1,1,0,2.39Z"/><line class="cls-4" x1="426.44" y1="262.25" x2="417.17" y2="262.25"/><path class="cls-6" d="M426.44,263.45h-9.27a1.2,1.2,0,0,1,0-2.4h9.27a1.2,1.2,0,0,1,0,2.4Z"/></svg>