<svg id="Layer_1" data-name="Layer 1" xmlns="http://www.w3.org/2000/svg" viewBox="0 0 960 720"><defs><style>.cls-1{fill:#0e3c60;}.cls-2{fill:#fff;}.cls-3{fill:#ccc;}.cls-4{fill:#72cff7;}</style></defs><path class="cls-1" d="M105,146.6a1.54,1.54,0,0,1-.59-.91L100.61,130a2.14,2.14,0,0,1-.07-.49,1.31,1.31,0,0,1,.3-.86,1.55,1.55,0,0,1,.88-.49l.43-.05a1.36,1.36,0,0,1,.9.3,1.39,1.39,0,0,1,.48.87l2,9.27c.15.77.3,1.79.46,3.06l.13,1h.1a29.31,29.31,0,0,1,.69-4.07l2.2-8.74a1.88,1.88,0,0,1,3.64,0l2.2,8.74a30.7,30.7,0,0,1,.7,4.07h.09l.14-1c.15-1.27.3-2.29.46-3.06l2-9.27a1.39,1.39,0,0,1,.48-.87,1.36,1.36,0,0,1,.9-.3l.43.05a1.55,1.55,0,0,1,.88.49,1.31,1.31,0,0,1,.3.86,2.14,2.14,0,0,1-.07.49l-3.77,15.73a1.6,1.6,0,0,1-.6.91,1.82,1.82,0,0,1-1.08.33,1.92,1.92,0,0,1-1.14-.33,1.48,1.48,0,0,1-.61-.91l-2.28-9.32c-.44-1.84-.73-3.09-.85-3.75-.23,1.15-.51,2.4-.85,3.75l-2.28,9.32a1.48,1.48,0,0,1-.61.91,1.92,1.92,0,0,1-1.14.33A1.82,1.82,0,0,1,105,146.6Z"/><path class="cls-1" d="M124.81,146.93a1.52,1.52,0,0,1-1.08-.37,1.26,1.26,0,0,1-.42-1V129a1.3,1.3,0,0,1,.42-1,1.57,1.57,0,0,1,1.08-.36h.11A1.61,1.61,0,0,1,126,128a1.33,1.33,0,0,1,.41,1v5.82a5.41,5.41,0,0,1,7.49.35,7,7,0,0,1,1.46,4.73v5.61a1.26,1.26,0,0,1-.42,1,1.52,1.52,0,0,1-1.08.37h-.11a1.52,1.52,0,0,1-1.08-.37,1.26,1.26,0,0,1-.42-1v-5.22a5.3,5.3,0,0,0-.72-3,2.44,2.44,0,0,0-2.11-1,2.82,2.82,0,0,0-2.09.85,3.56,3.56,0,0,0-.92,2.35v6.07a1.29,1.29,0,0,1-.41,1,1.57,1.57,0,0,1-1.09.37Z"/><path class="cls-1" d="M140.93,146.15a6.07,6.07,0,0,1-2.23-2.42,7.93,7.93,0,0,1,0-6.94,6,6,0,0,1,2.23-2.41,6.16,6.16,0,0,1,3.22-.86A5.24,5.24,0,0,1,147.9,135v-.2a1,1,0,0,1,.43-.82,1.69,1.69,0,0,1,1.07-.33h.11a1.57,1.57,0,0,1,1.08.36,1.3,1.3,0,0,1,.42,1v10.53a1.26,1.26,0,0,1-.42,1,1.52,1.52,0,0,1-1.08.37h-.11a1.69,1.69,0,0,1-1.07-.33,1,1,0,0,1-.43-.82v-.23a5.24,5.24,0,0,1-3.75,1.47A6.07,6.07,0,0,1,140.93,146.15Zm.52-3.83a3.66,3.66,0,0,0,1.23,1.43,3.33,3.33,0,0,0,3.54,0,3.66,3.66,0,0,0,1.23-1.43,4.53,4.53,0,0,0,.45-2,4.62,4.62,0,0,0-.45-2.06,3.56,3.56,0,0,0-1.23-1.42,3.27,3.27,0,0,0-3.54,0,3.56,3.56,0,0,0-1.23,1.42,4.62,4.62,0,0,0-.45,2.06A4.53,4.53,0,0,0,141.45,142.32Z"/><path class="cls-1" d="M157.42,145.72a5.75,5.75,0,0,1-1.19-4v-5.31h-1.52a1.68,1.68,0,0,1-1.16-.37,1.24,1.24,0,0,1-.43-1,1.28,1.28,0,0,1,.44-1,1.65,1.65,0,0,1,1.15-.38h1.52V129.5a1.58,1.58,0,0,1,.41-1.12,1.52,1.52,0,0,1,1.13-.42,1.55,1.55,0,0,1,1.15.42,1.58,1.58,0,0,1,.41,1.12v4.14h3.31a1.65,1.65,0,0,1,1.15.38,1.25,1.25,0,0,1,.44,1,1.26,1.26,0,0,1-.42,1,1.73,1.73,0,0,1-1.17.37h-3.31v5.31c0,1.69.52,2.53,1.57,2.53a2.4,2.4,0,0,0,.95-.17,3.48,3.48,0,0,0,.91-.59,1.3,1.3,0,0,1,.85-.3,1.5,1.5,0,0,1,1.45,1.41,1.44,1.44,0,0,1-.48,1,5.07,5.07,0,0,1-3.71,1.38A4.45,4.45,0,0,1,157.42,145.72Z"/><path class="cls-1" d="M176.24,145.72a5.7,5.7,0,0,1-1.2-4v-5.31h-1.52a1.68,1.68,0,0,1-1.16-.37,1.42,1.42,0,0,1,0-2,1.66,1.66,0,0,1,1.15-.38H175V129.5a1.58,1.58,0,0,1,.41-1.12,1.56,1.56,0,0,1,2.7,1.12v4.14h3.31a1.66,1.66,0,0,1,1.15.38,1.42,1.42,0,0,1,0,2,1.7,1.7,0,0,1-1.16.37h-3.31v5.31c0,1.69.52,2.53,1.56,2.53a2.4,2.4,0,0,0,.95-.17,3.33,3.33,0,0,0,.91-.59,1.32,1.32,0,0,1,.85-.3,1.5,1.5,0,0,1,1.45,1.41,1.44,1.44,0,0,1-.48,1,5.06,5.06,0,0,1-3.7,1.38A4.42,4.42,0,0,1,176.24,145.72Z"/><path class="cls-1" d="M185.09,150.47a1.41,1.41,0,0,1-.37-.89,1.64,1.64,0,0,1,1.5-1.48,1.25,1.25,0,0,1,.9.39,2.07,2.07,0,0,0,.58.45,1.25,1.25,0,0,0,.57.13,1,1,0,0,0,.65-.32,3.26,3.26,0,0,0,.56-.9c.19-.4.45-1,.79-1.86l-5-10.28a1.33,1.33,0,0,1-.16-.65,1.19,1.19,0,0,1,.29-.79,1.69,1.69,0,0,1,.79-.54,1.57,1.57,0,0,1,1.39.17,1.82,1.82,0,0,1,.59.72l3.63,7.83,3.06-7.8a1.59,1.59,0,0,1,.56-.73,1.52,1.52,0,0,1,.89-.28,2.13,2.13,0,0,1,.6.11,1.59,1.59,0,0,1,.74.53,1.23,1.23,0,0,1,.27.78,1.69,1.69,0,0,1-.14.65l-4.58,10.83a23.21,23.21,0,0,1-1.49,3.06,5,5,0,0,1-1.57,1.68,4.07,4.07,0,0,1-5.08-.81Z"/><path class="cls-1" d="M201.79,151.53a1.52,1.52,0,0,1-1.08-.37,1.26,1.26,0,0,1-.42-1V135a1.3,1.3,0,0,1,.42-1,1.57,1.57,0,0,1,1.08-.36h.11A1.69,1.69,0,0,1,203,134a1,1,0,0,1,.43.82v.2a5.24,5.24,0,0,1,3.75-1.47,6.16,6.16,0,0,1,3.22.86,6,6,0,0,1,2.23,2.41,7.93,7.93,0,0,1,0,6.94,6,6,0,0,1-5.45,3.29,5.24,5.24,0,0,1-3.75-1.47v4.6a1.29,1.29,0,0,1-.41,1,1.57,1.57,0,0,1-1.09.37Zm2.06-9.21a3.66,3.66,0,0,0,1.23,1.43,3.33,3.33,0,0,0,3.54,0,3.66,3.66,0,0,0,1.23-1.43,4.53,4.53,0,0,0,.45-2,4.62,4.62,0,0,0-.45-2.06,3.56,3.56,0,0,0-1.23-1.42,3.27,3.27,0,0,0-3.54,0,3.56,3.56,0,0,0-1.23,1.42,4.62,4.62,0,0,0-.45,2.06A4.53,4.53,0,0,0,203.85,142.32Z"/><path class="cls-1" d="M219,146.15a6.36,6.36,0,0,1-2.44-2.44,7.26,7.26,0,0,1,0-6.93,6.31,6.31,0,0,1,2.41-2.4,7.55,7.55,0,0,1,7,0,6.31,6.31,0,0,1,2.41,2.4,6.92,6.92,0,0,1,.87,3.48,7,7,0,0,1-.87,3.47,6.4,6.4,0,0,1-2.45,2.42,7.34,7.34,0,0,1-6.93,0Zm.26-3.83a3.68,3.68,0,0,0,5.11,1.43,3.69,3.69,0,0,0,1.31-1.43,4.73,4.73,0,0,0,0-4.13,3.55,3.55,0,0,0-1.33-1.41,3.77,3.77,0,0,0-3.75,0,3.46,3.46,0,0,0-1.32,1.41,4.73,4.73,0,0,0,0,4.13Z"/><path class="cls-1" d="M232.7,149.81a1.54,1.54,0,0,1-.53-1.15,1.27,1.27,0,0,1,.37-.95,1.36,1.36,0,0,1,1.06-.5,1.3,1.3,0,0,1,1,.39,6,6,0,0,0,1.73,1.14,5.39,5.39,0,0,0,2,.33,3.61,3.61,0,0,0,2.45-.76,2.85,2.85,0,0,0,.89-2.28v-.94a5.34,5.34,0,0,1-3.75,1.47,6.05,6.05,0,0,1-3.22-.85,5.86,5.86,0,0,1-2.23-2.32,7.35,7.35,0,0,1,0-6.71,5.93,5.93,0,0,1,2.23-2.32,6.21,6.21,0,0,1,3.22-.84,5.34,5.34,0,0,1,3.75,1.47v-.2A1,1,0,0,1,242,134a1.71,1.71,0,0,1,1.07-.33h.12a1.6,1.6,0,0,1,1.08.36,1.29,1.29,0,0,1,.41,1v10.55a6.08,6.08,0,0,1-1.7,4.6,6.47,6.47,0,0,1-4.74,1.66A7.67,7.67,0,0,1,232.7,149.81Zm3-7.07a3.41,3.41,0,0,0,4.94,0,3.81,3.81,0,0,0,1-2.69,3.87,3.87,0,0,0-1-2.69,3.39,3.39,0,0,0-5,0,3.87,3.87,0,0,0-1,2.69A3.76,3.76,0,0,0,235.66,142.74Z"/><path class="cls-1" d="M249.08,146.93a1.52,1.52,0,0,1-1.08-.37,1.26,1.26,0,0,1-.42-1V135a1.3,1.3,0,0,1,.42-1,1.57,1.57,0,0,1,1.08-.36h.11a1.69,1.69,0,0,1,1.07.33,1,1,0,0,1,.43.82v.07a5,5,0,0,1,3.47-1.34,4.75,4.75,0,0,1,1.75.3,1.32,1.32,0,0,1,.8,1.22,1.58,1.58,0,0,1-.14.64,1.61,1.61,0,0,1-.5.66,1.16,1.16,0,0,1-.69.24,1.23,1.23,0,0,1-.42-.07,3.65,3.65,0,0,0-1.26-.23,2.82,2.82,0,0,0-2.09.85,3.51,3.51,0,0,0-.92,2.35v6.07a1.26,1.26,0,0,1-.42,1,1.52,1.52,0,0,1-1.08.37Z"/><path class="cls-1" d="M261.61,146.15a6.07,6.07,0,0,1-2.23-2.42,7.93,7.93,0,0,1,0-6.94,6,6,0,0,1,2.23-2.41,6.16,6.16,0,0,1,3.22-.86,5.24,5.24,0,0,1,3.75,1.47v-.2A1,1,0,0,1,269,134a1.69,1.69,0,0,1,1.07-.33h.11a1.57,1.57,0,0,1,1.08.36,1.3,1.3,0,0,1,.42,1v10.53a1.26,1.26,0,0,1-.42,1,1.52,1.52,0,0,1-1.08.37h-.11a1.69,1.69,0,0,1-1.07-.33,1,1,0,0,1-.43-.82v-.23a5.24,5.24,0,0,1-3.75,1.47A6.07,6.07,0,0,1,261.61,146.15Zm.52-3.83a3.66,3.66,0,0,0,1.23,1.43,3.33,3.33,0,0,0,3.54,0,3.66,3.66,0,0,0,1.23-1.43,4.53,4.53,0,0,0,.45-2,4.62,4.62,0,0,0-.45-2.06,3.56,3.56,0,0,0-1.23-1.42,3.27,3.27,0,0,0-3.54,0,3.56,3.56,0,0,0-1.23,1.42,4.62,4.62,0,0,0-.45,2.06A4.53,4.53,0,0,0,262.13,142.32Z"/><path class="cls-1" d="M276.08,151.53a1.52,1.52,0,0,1-1.08-.37,1.26,1.26,0,0,1-.42-1V135a1.3,1.3,0,0,1,.42-1,1.57,1.57,0,0,1,1.08-.36h.11a1.69,1.69,0,0,1,1.07.33,1,1,0,0,1,.43.82v.2a5.24,5.24,0,0,1,3.75-1.47,6.16,6.16,0,0,1,3.22.86,6,6,0,0,1,2.23,2.41,7.93,7.93,0,0,1,0,6.94,6,6,0,0,1-5.45,3.29,5.24,5.24,0,0,1-3.75-1.47v4.6a1.26,1.26,0,0,1-.42,1,1.52,1.52,0,0,1-1.08.37Zm2.06-9.21a3.66,3.66,0,0,0,1.23,1.43,3.33,3.33,0,0,0,3.54,0,3.66,3.66,0,0,0,1.23-1.43,4.53,4.53,0,0,0,.45-2,4.62,4.62,0,0,0-.45-2.06,3.56,3.56,0,0,0-1.23-1.42,3.27,3.27,0,0,0-3.54,0,3.56,3.56,0,0,0-1.23,1.42,4.62,4.62,0,0,0-.45,2.06A4.53,4.53,0,0,0,278.14,142.32Z"/><path class="cls-1" d="M291.81,146.93a1.56,1.56,0,0,1-1.08-.37,1.26,1.26,0,0,1-.41-1V129a1.29,1.29,0,0,1,.41-1,1.6,1.6,0,0,1,1.08-.36h.12A1.6,1.6,0,0,1,293,128a1.33,1.33,0,0,1,.41,1v5.82a5.41,5.41,0,0,1,7.49.35,7,7,0,0,1,1.46,4.73v5.61a1.26,1.26,0,0,1-.42,1,1.52,1.52,0,0,1-1.08.37h-.11a1.52,1.52,0,0,1-1.08-.37,1.26,1.26,0,0,1-.42-1v-5.22a5.3,5.3,0,0,0-.72-3,2.43,2.43,0,0,0-2.11-1,2.82,2.82,0,0,0-2.09.85,3.56,3.56,0,0,0-.92,2.35v6.07a1.29,1.29,0,0,1-.41,1,1.56,1.56,0,0,1-1.08.37Z"/><path class="cls-1" d="M304.3,150.47a1.36,1.36,0,0,1-.37-.89,1.62,1.62,0,0,1,1.5-1.48,1.23,1.23,0,0,1,.89.39,2.1,2.1,0,0,0,.59.45,1.21,1.21,0,0,0,.56.13,1,1,0,0,0,.66-.32,3.26,3.26,0,0,0,.56-.9q.29-.6.78-1.86l-5-10.28a1.33,1.33,0,0,1-.16-.65,1.23,1.23,0,0,1,.28-.79,1.72,1.72,0,0,1,.8-.54,1.37,1.37,0,0,1,.55-.09,1.42,1.42,0,0,1,.84.26,1.72,1.72,0,0,1,.58.72l3.64,7.83,3.06-7.8a1.52,1.52,0,0,1,.56-.73,1.49,1.49,0,0,1,.89-.28,2.13,2.13,0,0,1,.59.11,1.57,1.57,0,0,1,.75.53,1.23,1.23,0,0,1,.27.78,1.69,1.69,0,0,1-.14.65l-4.58,10.83A23.21,23.21,0,0,1,311,149.6a5,5,0,0,1-1.57,1.68,4.07,4.07,0,0,1-5.08-.81Z"/><path class="cls-1" d="M322.47,141.51a1.57,1.57,0,0,1-.41-1.11l-.07-2.05a1.52,1.52,0,0,1,.25-.91,2,2,0,0,1,.76-.68,10.42,10.42,0,0,0,2.71-1.79,2.75,2.75,0,0,0,.85-2,2.29,2.29,0,0,0-.68-1.74,2.35,2.35,0,0,0-1.71-.66,3.28,3.28,0,0,0-2.64,1.36,1.59,1.59,0,0,1-2.1.48,1.47,1.47,0,0,1-.53-.52,1.38,1.38,0,0,1-.18-.67,1.43,1.43,0,0,1,.23-.76,5.24,5.24,0,0,1,2.1-1.94,6.65,6.65,0,0,1,3.12-.71,5.93,5.93,0,0,1,2.86.68,4.84,4.84,0,0,1,2,1.88,5.18,5.18,0,0,1,.69,2.64,5.08,5.08,0,0,1-1.21,3.33,10.82,10.82,0,0,1-3.46,2.61l-.07,1.47a1.69,1.69,0,0,1-.43,1.1,1.27,1.27,0,0,1-1,.42A1.36,1.36,0,0,1,322.47,141.51Zm-.32,2.89a2,2,0,0,1,2.71,0,1.7,1.7,0,0,1,.55,1.29,1.73,1.73,0,0,1-.55,1.29,2,2,0,0,1-2.71,0,1.73,1.73,0,0,1-.55-1.29A1.7,1.7,0,0,1,322.15,144.4Z"/><path d="M111.46,175.8H101.1V175h4.65v-2.6H102v-.8h1.77v-3.71H102V167h8.45v.82h-1.8v3.71h1.77v.8h-3.71V175h4.73Zm-3.77-4.25v-3.71H104.8v3.71Z"/><path d="M122.72,175.73H112.36v-.83h10.36Zm-1.19-2.9H113.7v-5.94h7.7v.84h-6.68v1.67h6.44v.8h-6.44V172h6.81Z"/><path d="M133,167h-1.75v2.21h1.71V170h-3.65v1.11h4.67v.8H123.63v-.8h4.64V170h-3.64v-.76h1.71V167H124.6v-.77H133Zm-.35,8.2h-6.72v1.12H133v.76H124.9v-2.6h6.73v-1h-6.75v-.73h7.73Zm-2.39-6V167h-2.89v2.21Z"/><path d="M140.8,171h-4.23v2.66a33.86,33.86,0,0,0,5.58-.4l.1.84a34.78,34.78,0,0,1-5.75.4h-.94v-4.31h4.23v-2.38h-4.26V167h5.27Zm3.43,6.24h-1V165.91h1Z"/><path d="M155.45,169.61c0,1.68-1.5,2.8-3.65,2.93v2.37h4.72v.84H146.16v-.84h4.66v-2.37c-2.15-.14-3.64-1.26-3.64-2.93s1.73-3,4.13-3S155.45,167.83,155.45,169.61Zm-7.31,0c0,1.3,1.34,2.14,3.17,2.15s3.17-.85,3.17-2.15-1.33-2.14-3.17-2.14S148.14,168.34,148.14,169.61Z"/><path d="M165,173.5l.07.74a41.44,41.44,0,0,1-7.4.5l-.14-.86A53.59,53.59,0,0,0,165,173.5Zm-.79-4.11a2.74,2.74,0,0,1-3,2.65c-1.78,0-3.07-1.08-3.06-2.65s1.28-2.65,3.06-2.65A2.74,2.74,0,0,1,164.17,169.39Zm-5.12,0a2.09,2.09,0,1,0,2.08-1.78A1.86,1.86,0,0,0,159.05,169.39Zm7.65,7.83h-1V165.91h1Z"/><path d="M172.6,175.05l-.56-.78c2.92-1.46,4.51-3.63,4.74-6.3h-4.22v-.84h5.23A8.46,8.46,0,0,1,172.6,175.05Zm8.11-4.54h1.84v.84h-1.84v5.85h-1V165.91h1Z"/><path d="M193.53,172.36H183.22v-.81h4.66v-1.37h-3.35v-3.81h7.73v.82h-6.73v2.16h6.83v.83h-3.49v1.37h4.66Zm-1.26,4.93h-1v-3h-6.91v-.81h7.9Z"/><path d="M201.18,171.28l-.56.78a4.69,4.69,0,0,1-2.71-2.58A4.91,4.91,0,0,1,195,172.4l-.54-.81a4.15,4.15,0,0,0,2.91-3.86v-1.17h1v1.13A3.89,3.89,0,0,0,201.18,171.28Zm2.73,3.79c0,1.34-1.44,2.1-3.8,2.1s-3.79-.76-3.79-2.1,1.44-2.14,3.79-2.14S203.91,173.71,203.91,175.07Zm-6.6,0c0,.81,1.07,1.3,2.8,1.3s2.8-.49,2.8-1.3-1.07-1.35-2.8-1.35S197.3,174.23,197.31,175.07Zm6.56-2.47h-1v-3.44h-2.52v-.82h2.52v-2.43h1Z"/><path d="M216.06,171.61H205.75v-.81h10.31Zm-1.16-3.55c0,1.28-1.47,2-4,2s-4-.7-4-2,1.49-1.94,4-1.94S214.9,166.8,214.9,168.06Zm-.16,7.06H208v1.16h7.06v.79H207v-2.69h6.73v-1H207v-.76h7.74Zm-6.8-7.06c0,.78,1.08,1.22,3,1.22s3-.44,3-1.22-1.1-1.2-3-1.2S207.93,167.32,207.94,168.06Z"/><path d="M230.6,172h-4.67v1.2c2.13.09,3.39.79,3.41,2s-1.47,2-3.9,2-3.9-.71-3.9-2,1.25-1.9,3.41-2V172h-4.66v-.83H230.6Zm-.92-4.76h-3.59c.07,1.27,1.94,2.25,3.93,2.46l-.37.79c-1.85-.22-3.58-1-4.21-2.31-.61,1.26-2.35,2.09-4.21,2.31l-.36-.79c2-.21,3.85-1.19,3.92-2.46h-3.56v-.81h8.45Zm-7.13,8c0,.74,1.07,1.19,2.89,1.19s2.89-.45,2.89-1.19-1.09-1.21-2.89-1.22S222.54,174.44,222.55,175.21Z"/><path d="M238.44,171.07l-.51.76a4.68,4.68,0,0,1-2.86-2.64,4.9,4.9,0,0,1-2.92,2.85l-.51-.78a4.14,4.14,0,0,0,2.9-3.79v-1.1h1v1.1A4,4,0,0,0,238.44,171.07Zm2.45,6h-7.35V173h7.35Zm-6.37-.82h5.39V173.8h-5.39Zm6.37-3.89h-1v-6.42h1Z"/><path d="M253.18,175.7H242.82v-.84h10.36Zm-1.07-5.95c0,1.87-1.77,3.11-4.14,3.09s-4.13-1.22-4.13-3.09,1.76-3.1,4.13-3.1S252.11,167.88,252.11,169.75Zm-7.32,0c0,1.37,1.36,2.28,3.18,2.28s3.17-.91,3.17-2.28-1.36-2.3-3.17-2.29S244.78,168.4,244.79,169.75Z"/><path d="M264.44,175.8H254.08V175h4.66v-2.13h-3.36v-3.48h6.77v-1.77h-6.79v-.83h7.77v3.42h-6.76V172h7v.82h-3.68V175h4.72Z"/><path d="M278.93,173.17h-4.69v4h-1v-4h-4.64v-.82h10.31Zm-.61-2.57-.37.78a5.7,5.7,0,0,1-4.18-2.6,5.69,5.69,0,0,1-4.15,2.6l-.39-.78c2-.3,4-1.58,4-3.09v-.07h-3.62v-.82H278v.82h-3.62v.07C274.32,169,276.34,170.3,278.32,170.6Z"/><path d="M290.24,175.75H279.88v-.84h2.57v-3a2.62,2.62,0,0,1-1.55-2.34c0-1.75,1.72-2.89,4.14-2.91s4.13,1.16,4.13,2.91a2.58,2.58,0,0,1-1.5,2.31v3.07h2.57Zm-8.37-6.22c0,1.26,1.31,2.11,3.17,2.11s3.17-.85,3.17-2.11-1.33-2.09-3.17-2.08S281.87,168.27,281.87,169.53Zm4.8,5.38v-2.69a6,6,0,0,1-1.63.2,6.29,6.29,0,0,1-1.61-.19v2.68Z"/><path d="M296.79,167.8h5.59v-1.43h1v4.51h-3.31v1.2h4.66v.83H294.42v-.83h4.66v-1.2h-3.29v-4.51h1Zm6.79,9.16h-7.83v-3.15h1v2.31h6.82Zm-1.2-6.88v-1.49h-5.59v1.49Z"/><path d="M316,172.51h-4.61v2.31h-1v-2.31h-4.76v-.82H316ZM314.87,177H307v-3.25h1v2.41h6.87Zm-.19-6.57H307v-3.92h7.66Zm-6.68-.8h5.69v-2.33H308Z"/><path d="M322.73,173.88l-.58.75a5.2,5.2,0,0,1-2.35-3.13,5.75,5.75,0,0,1-2.34,3.39l-.6-.76a5.58,5.58,0,0,0,2.45-4.74v-.56h-2.15V168h2.15v-1.68h1V168h2.11v.82h-2.12v.56A5.12,5.12,0,0,0,322.73,173.88Zm1.6,2.73h-.94v-5.39h-1.78v-.85h1.78v-4.18h.94Zm2.29.59h-.95V165.91h.95Z"/><path d="M338.56,172.49H328.2v-.81h10.36Zm-1.13,4.43h-7.88v-3.28h1v2.45h6.89Zm-.07-6.78h-7.75v-3.81h1v3h6.76Z"/><path d="M353.11,175.75H342.75v-.85h10.36Zm-1-7.87h-1.79v4h1.77v.81h-8.4v-.81h1.77v-4h-1.8v-.83h8.45Zm-2.77,4v-4h-2.89v4Z"/><path d="M359.92,171h-4.23v2.66a33.86,33.86,0,0,0,5.58-.4l.1.84a34.78,34.78,0,0,1-5.75.4h-.95v-4.31h4.24v-2.38h-4.26V167h5.27Zm3.43,6.24h-1V165.91h1Z"/><path d="M370.13,167.68h-3.36v1.56h2.89V170h-2.89v1.65a18.42,18.42,0,0,0,3.87-.31l.1.81a19.2,19.2,0,0,1-4.22.32h-.71v-5.65h4.32Zm5.1,9.28H367.5v-3.52h1v2.68h6.71Zm-2.55-2.87h-1v-4.15h-1.53v-.8h1.53v-3h1Zm2.21.29h-1v-8.46h1Z"/><path d="M382.32,167.84H378v5.71a26.65,26.65,0,0,0,5.18-.4l.13.86a28.35,28.35,0,0,1-5.41.38H377V167h5.28Zm3,2.54h1.89v.84H385.3v6h-1V165.91h1Z"/><path d="M398.17,175.66H387.81v-.84h10.36Zm-1.23-3.49h-7.81V167h7.7v.82h-6.71v3.56h6.82Z"/><path d="M404.85,173.88l-.57.75a5.22,5.22,0,0,1-2.36-3.13,5.71,5.71,0,0,1-2.34,3.39l-.6-.76a5.59,5.59,0,0,0,2.46-4.74v-.56h-2.15V168h2.15v-1.68h.95V168h2.12v.82h-2.13v.56A5.12,5.12,0,0,0,404.85,173.88Zm1.6,2.73h-.94v-5.39h-1.78v-.85h1.78v-4.18h.94Zm2.29.59h-.95V165.91h.95Z"/><path d="M420.68,171.94H410.32v-.78h10.36Zm-1.3,3.3h-6.79v1.08h7.16v.73h-8.17v-2.49h6.81v-1h-6.82v-.75h7.81Zm0-6.65h-6.68v1h6.88v.72h-7.88v-2.39h6.67V167h-6.71v-.73h7.72Z"/><path d="M431.59,173.77l-.61.8a6.11,6.11,0,0,1-2.79-3.55,6.36,6.36,0,0,1-2.85,3.77l-.63-.8a6,6,0,0,0,3-5v-2.06h1V169A5.7,5.7,0,0,0,431.59,173.77Zm2-3.27h1.89v.86h-1.89v5.84h-1V165.91h1Z"/><path d="M446.44,172.32h-10.3v-.82h2.55v-1.59a1.86,1.86,0,0,1-1.41-1.69c0-1.33,1.53-2.09,4-2.09s4,.76,4,2.09a1.84,1.84,0,0,1-1.4,1.68v1.6h2.55Zm-1.26,2.86c0,1.28-1.46,2-3.89,2s-3.91-.71-3.91-2,1.45-2,3.91-2S445.17,173.88,445.18,175.18Zm-6.87-7c0,.83,1.14,1.31,3,1.31s3-.48,3-1.31-1.15-1.3-3-1.3S438.3,167.41,438.31,168.22Zm.09,7c0,.76,1.07,1.22,2.89,1.22s2.89-.46,2.89-1.22-1.1-1.22-2.89-1.23S438.39,174.41,438.4,175.18Zm4.49-3.68v-1.32a10.73,10.73,0,0,1-3.2,0v1.32Z"/><path d="M453.14,168h-5.8v-.82h2.42V166h1v1.25h2.39Zm-.46,2.5c0,1.16-1,1.93-2.43,1.93s-2.43-.77-2.42-1.93,1-1.93,2.42-1.93S452.67,169.35,452.68,170.53Zm.32,5.65a3.18,3.18,0,0,0,1.63-2.54v-.4h1v.4a3,3,0,0,0,2.3,2.67l-.47.76a3.79,3.79,0,0,1-2.33-2.08,3.75,3.75,0,0,1-2.1,2.17A3.51,3.51,0,0,1,450.9,175a4,4,0,0,1-2.29,2l-.48-.76a3.14,3.14,0,0,0,2.3-2.67v-.4h1v.4A2.84,2.84,0,0,0,453,176.18Zm-4.28-5.65c0,.71.63,1.18,1.53,1.18s1.53-.47,1.53-1.18-.62-1.18-1.53-1.18S448.72,169.81,448.72,170.53Zm8.29,2.39h-1v-3.06h-1.47v2.88h-1V166.1h1V169h1.47v-3.12h1Z"/><path d="M469,175.7H458.67v-.84H469ZM468,169.75c0,1.87-1.77,3.11-4.14,3.09s-4.14-1.22-4.14-3.09,1.77-3.1,4.14-3.1S468,167.88,468,169.75Zm-7.32,0c0,1.37,1.36,2.28,3.18,2.28s3.17-.91,3.17-2.28-1.36-2.3-3.17-2.29S460.62,168.4,460.64,169.75Z"/><path d="M475.54,168.63h2.78v-2.72h1v11.31h-1v-4.66h-2.78v1.78h-5.15V167h5.15Zm-4.16,4.91h3.2v-5.71h-3.2Zm6.94-1.8v-2.29h-2.78v2.29Z"/><path d="M482.06,178.77h-.94l.7-3.45h1.23Z"/><path d="M101.53,190.7l-.42-.81c2.73-.79,4.48-2.35,4.69-4.31h-4.19v-.83h5.26C106.87,187.62,104.83,189.74,101.53,190.7Zm8.54,2.29c0,1.37-1.42,2.18-3.7,2.18s-3.72-.81-3.7-2.18,1.45-2.17,3.7-2.17S110.07,191.64,110.07,193Zm-6.41,0c0,.85,1,1.38,2.71,1.38s2.73-.53,2.73-1.38-1.06-1.38-2.73-1.37S103.65,192.14,103.66,193Zm6.28-6.13h1.71v.82h-1.71v3h-1v-6.78h1Z"/><path d="M122.72,193.75H112.36v-.84H117v-2.74h1v2.74h4.68Zm-.49-4-.41.78a6,6,0,0,1-4.28-3,6.11,6.11,0,0,1-4.25,3.06l-.42-.8c1.91-.33,4.14-1.9,4.14-3.7v-.28h-3.79v-.84h8.61v.84H118v.28C118,187.86,120.28,189.41,122.23,189.73Z"/><path d="M130.3,186.55h-6.73v-.82h2.91v-1.68h1v1.68h2.83Zm-.54,3.53a2.78,2.78,0,1,1-2.77-2.59A2.59,2.59,0,0,1,129.76,190.08Zm-4.59,0a1.7,1.7,0,0,0,1.82,1.74,1.72,1.72,0,0,0,1.82-1.74,1.74,1.74,0,0,0-1.82-1.75A1.72,1.72,0,0,0,125.17,190.08Zm7.21-1.51h1.9v.83h-1.9v5.8h-1V183.91h1Z"/><path d="M145.2,193.6H134.89v-.83h4.05v-4h1v4h5.28ZM144,186.18a27.36,27.36,0,0,1-.42,5.21l-1-.11a23.93,23.93,0,0,0,.43-5.1v-.3h-7v-.83h8Z"/><path d="M156.33,189l-.49.79a4.74,4.74,0,0,1-2.9-2.61A4.9,4.9,0,0,1,150,190l-.51-.79a4.12,4.12,0,0,0,2.91-3.72v-1.11h1v1.11A3.89,3.89,0,0,0,156.33,189Zm2.52,2.72h-1.57v2.55H159v.82h-7.82v-.82h1.69v-2.55h-1.59v-.81h7.61Zm-2.56,2.55v-2.55h-2.48v2.55Zm2.48-4h-1v-6.28h1Z"/><path d="M171,190.68H160.69v-.81H171Zm-1.16-4.13c0,1.41-1.56,2.25-4,2.25s-4-.84-4-2.25,1.55-2.24,4-2.23S169.84,185.14,169.84,186.55Zm0,8.41H162v-3.29h1v2.45h6.82Zm-7-8.41c0,.89,1.16,1.44,3,1.44s3-.55,3-1.44-1.17-1.43-3-1.43S162.86,185.66,162.87,186.55Z"/><path d="M180.08,185.54h-3.36V187h2.89v.8h-2.89v1.59a19.12,19.12,0,0,0,3.87-.31l.1.83a20.71,20.71,0,0,1-4.21.29h-.72v-5.49h4.32Zm4.76,9.66h-1v-2.95h-6.7v-.82h7.68Zm-2.2-4.38h-1v-3.1h-1.53v-.84h1.53v-2.71h1Zm2.2.07h-1v-7h1Z"/><path d="M196.85,193.66H186.49v-.82h10.36Zm-.53-4.06-.46.84a6.29,6.29,0,0,1-4.24-3.28,6.25,6.25,0,0,1-4.23,3.28l-.46-.84c2-.38,4.16-2.08,4.16-4v-.87h1v.87C192.13,187.5,194.35,189.23,196.32,189.6Z"/><path d="M208.12,193.73H197.76v-.83h10.36Zm-1.2-2.9H199.1v-5.94h7.69v.84h-6.68v1.67h6.44v.8h-6.44V190h6.81Z"/><path d="M216.44,194.63h-.95v-5.49H214c-.11,2.2-1,3.57-2.45,3.57s-2.43-1.52-2.43-3.92,1-3.93,2.43-3.93,2.31,1.33,2.44,3.46h1.46v-4.17h.95Zm-6.33-5.84c0,1.83.57,3,1.48,3s1.51-1.14,1.51-3-.59-3-1.51-3S210.09,187,210.11,188.79Zm8.61,6.41h-1V183.91h1Z"/><path d="M230.63,190.49H220.28v-.81h10.35Zm-1.13,4.43h-7.88v-3.28h1v2.45h6.88Zm-.06-6.78h-7.75v-3.81h1v3h6.76Z"/><path d="M240.68,188.23h2.53v-4.32h1v11.31h-1v-6.17h-2.52c-.12,2.21-1.25,3.6-2.82,3.6s-2.84-1.53-2.84-3.93,1.17-3.92,2.84-3.93S240.51,186.12,240.68,188.23Zm-4.7.49c0,1.84.77,3,1.89,3s1.88-1.2,1.88-3-.78-3-1.88-3S236,186.88,236,188.72Z"/><path d="M256.4,193.54H246.09v-.83H256.4ZM255,186.25a29.06,29.06,0,0,1-.42,5.48l-1-.1a25.25,25.25,0,0,0,.46-5.38v-.31h-6.82v-.82H255Z"/><path d="M267.71,193.8H257.35V193H262v-2.13h-3.36v-3.48h6.77v-1.77h-6.79v-.83h7.77v3.42h-6.76V190h7v.82H263V193h4.72Z"/><path d="M274.4,191.88l-.58.75a5.2,5.2,0,0,1-2.35-3.13,5.75,5.75,0,0,1-2.34,3.39l-.6-.76a5.61,5.61,0,0,0,2.46-4.74v-.56h-2.16V186H271v-1.68h.95V186h2.11v.82h-2.12v.56A5.12,5.12,0,0,0,274.4,191.88Zm1.6,2.73h-.94v-5.39h-1.78v-.85h1.78v-4.18H276Zm2.29.59h-1V183.91h1Z"/><path d="M290.23,189.94H279.87v-.78h10.36Zm-1.3,3.3h-6.79v1.08h7.16v.73h-8.17v-2.49h6.81v-1h-6.82v-.75h7.81Zm0-6.65h-6.68v1h6.89v.72h-7.88v-2.39h6.67V185h-6.71v-.73h7.71Z"/><path d="M301.14,191.77l-.61.8a6.11,6.11,0,0,1-2.79-3.55,6.4,6.4,0,0,1-2.85,3.77l-.64-.8a6,6,0,0,0,3-5v-2.06h1V187A5.68,5.68,0,0,0,301.14,191.77Zm2-3.27h1.9v.86h-1.9v5.84h-1V183.91h1Z"/><path d="M316,190.32H305.68v-.82h2.56v-1.59a1.86,1.86,0,0,1-1.41-1.69c0-1.33,1.53-2.09,4-2.09s4,.76,4,2.09a1.83,1.83,0,0,1-1.4,1.68v1.6H316Zm-1.26,2.86c0,1.28-1.46,2-3.89,2s-3.91-.71-3.91-2,1.45-2,3.91-2S314.72,191.88,314.73,193.18Zm-6.87-7c0,.83,1.13,1.31,3,1.31s3-.48,3-1.31-1.14-1.3-3-1.3S307.85,185.41,307.86,186.22Zm.09,7c0,.76,1.07,1.22,2.89,1.22s2.89-.46,2.89-1.22-1.1-1.22-2.89-1.23S307.94,192.41,308,193.18Zm4.49-3.68v-1.32a9.74,9.74,0,0,1-1.6.12,9.87,9.87,0,0,1-1.61-.12v1.32Z"/><path d="M323.62,186.55h-6.74v-.82h2.92v-1.68h1v1.68h2.83Zm-.54,3.53a2.78,2.78,0,1,1-2.77-2.59A2.59,2.59,0,0,1,323.08,190.08Zm-4.59,0a1.7,1.7,0,0,0,1.82,1.74,1.72,1.72,0,0,0,1.82-1.74,1.75,1.75,0,0,0-1.82-1.75A1.72,1.72,0,0,0,318.49,190.08Zm7.21-1.51h1.9v.83h-1.9v5.8h-1V183.91h1Z"/><path d="M333.62,185.5h3v-1.59h1v6.45h-1v-1.5h-2.94a3,3,0,0,1-2.32,1,2.67,2.67,0,1,1,0-5.32A3,3,0,0,1,333.62,185.5Zm.1,8.67a3.36,3.36,0,0,0,1.64-2.68v-.77h1v.77a3.1,3.1,0,0,0,2.32,2.82l-.52.76a3.83,3.83,0,0,1-2.29-2.14,3.9,3.9,0,0,1-2.11,2.23,3.56,3.56,0,0,1-2.13-2.2,4,4,0,0,1-2.26,2.11l-.5-.76a3.25,3.25,0,0,0,2.3-2.82v-.77h1v.77A3.07,3.07,0,0,0,333.72,194.17Zm-4.35-7a2,2,0,1,0,2-1.82A1.83,1.83,0,0,0,329.37,187.2Zm4.87,0a3.21,3.21,0,0,1-.12.84h2.47v-1.73h-2.5A2.56,2.56,0,0,1,334.24,187.2Z"/><path d="M349.79,189.89H339.48v-.82h10.31Zm-.59-2.42-.37.8a5.85,5.85,0,0,1-4.19-2.43,5.86,5.86,0,0,1-4.2,2.43l-.38-.8c2-.27,4.06-1.46,4.06-2.9V184h1v.53C345.15,186,347.21,187.21,349.2,187.47ZM341.78,192h5.65v-1.32h1v4.36h-7.65v-4.36h1Zm5.65,2.24V192.8h-5.65v1.45Z"/><path d="M352.46,191.43a26.7,26.7,0,0,0,5.41-.55l.14.85a26.73,26.73,0,0,1-5.61.56h-.92V185h1Zm7.61,3.77h-1V183.91h1Z"/><path d="M367.78,185.84H363.5v5.71a26.55,26.55,0,0,0,5.17-.4l.13.86a28.35,28.35,0,0,1-5.41.38h-.89V185h5.28Zm3,2.54h1.9v.84h-1.9v6h-1V183.91h1Z"/><path d="M373.65,193.42a.82.82,0,0,1,1.63,0,.82.82,0,1,1-1.63,0Z"/><path class="cls-1" d="M104.39,514.17a7.34,7.34,0,0,1-2.81-1.42,2,2,0,0,1-.45-.58,1.59,1.59,0,0,1-.17-.69,1.31,1.31,0,0,1,.41-.94,1.34,1.34,0,0,1,1-.44,1.92,1.92,0,0,1,1.17.44,4.92,4.92,0,0,0,1.9,1,8.35,8.35,0,0,0,2.38.34c2.64,0,4-.95,4-2.87a2.47,2.47,0,0,0-.46-1.52,3.35,3.35,0,0,0-1.29-.86,16.55,16.55,0,0,0-2.44-.7l-.41-.09a10.81,10.81,0,0,1-4.53-1.94,4.28,4.28,0,0,1-1.45-3.49,5,5,0,0,1,.84-2.83,5.76,5.76,0,0,1,2.33-2,7.61,7.61,0,0,1,3.34-.72,10.43,10.43,0,0,1,2.88.39,6.56,6.56,0,0,1,2.36,1.19,1.49,1.49,0,0,1,.64,1.2,1.22,1.22,0,0,1-.29.8,1.25,1.25,0,0,1-1.06.58,1.87,1.87,0,0,1-1-.35,7,7,0,0,0-1.64-.79,6.71,6.71,0,0,0-1.77-.27,4.14,4.14,0,0,0-2.56.71,2.37,2.37,0,0,0-.93,2,2.16,2.16,0,0,0,.43,1.45,2.26,2.26,0,0,0,1,.75,16.66,16.66,0,0,0,2.06.54l.34.07a11.06,11.06,0,0,1,5.07,2.06,4.8,4.8,0,0,1,1.6,3.87A5,5,0,0,1,114,512a5.61,5.61,0,0,1-2.42,2,9.13,9.13,0,0,1-3.67.7A12.52,12.52,0,0,1,104.39,514.17Z"/><path class="cls-1" d="M117.46,496.14a2,2,0,0,1,2.78,0,1.79,1.79,0,0,1,.57,1.33,1.72,1.72,0,0,1-.57,1.3,2.06,2.06,0,0,1-2.78,0,1.71,1.71,0,0,1-.56-1.3A1.78,1.78,0,0,1,117.46,496.14Zm1.32,18.26a1.56,1.56,0,0,1-1.08-.37,1.29,1.29,0,0,1-.41-1V502.49a1.29,1.29,0,0,1,.41-1,1.56,1.56,0,0,1,1.08-.37h.12a1.56,1.56,0,0,1,1.08.37,1.29,1.29,0,0,1,.41,1V513a1.29,1.29,0,0,1-.41,1,1.56,1.56,0,0,1-1.08.37Z"/><path class="cls-1" d="M127,513.19a5.7,5.7,0,0,1-1.2-4v-5.31h-1.51a1.71,1.71,0,0,1-1.17-.37,1.26,1.26,0,0,1-.42-1,1.25,1.25,0,0,1,.44-1,1.65,1.65,0,0,1,1.15-.38h1.51V497a1.54,1.54,0,0,1,.42-1.12,1.49,1.49,0,0,1,1.12-.42,1.52,1.52,0,0,1,1.15.42A1.54,1.54,0,0,1,129,497v4.14h3.31a1.65,1.65,0,0,1,1.15.38,1.28,1.28,0,0,1,.44,1,1.24,1.24,0,0,1-.43,1,1.68,1.68,0,0,1-1.16.37H129v5.31c0,1.69.52,2.53,1.56,2.53a2.45,2.45,0,0,0,1-.17,3.39,3.39,0,0,0,.91-.59,1.33,1.33,0,0,1,.85-.29,1.35,1.35,0,0,1,1.08.5,1.41,1.41,0,0,1,.37.9,1.45,1.45,0,0,1-.49,1,5,5,0,0,1-3.7,1.38A4.45,4.45,0,0,1,127,513.19Z"/><path class="cls-1" d="M139.61,513.63a5.88,5.88,0,0,1-2.3-2.39,7.16,7.16,0,0,1-.82-3.46,7.3,7.3,0,0,1,.83-3.5,5.89,5.89,0,0,1,2.24-2.42,6.13,6.13,0,0,1,3.23-.87,6.29,6.29,0,0,1,3,.72,5.73,5.73,0,0,1,2.18,2,6.8,6.8,0,0,1,1,3.05,2,2,0,0,1-.46,1.63,2.21,2.21,0,0,1-1.68.58h-7.1a3.43,3.43,0,0,0,1.17,2,3.26,3.26,0,0,0,2.16.74,4.46,4.46,0,0,0,1.38-.2,4.61,4.61,0,0,0,1.29-.7,1.62,1.62,0,0,1,.94-.3,1.34,1.34,0,0,1,1,.39,1.32,1.32,0,0,1,.41,1,1.41,1.41,0,0,1-.55,1.1,5.34,5.34,0,0,1-1.93,1.05,8,8,0,0,1-2.55.4A6.66,6.66,0,0,1,139.61,513.63Zm6.11-7.16a3.36,3.36,0,0,0-1-2,2.73,2.73,0,0,0-1.93-.73,2.8,2.8,0,0,0-1.92.74,3.88,3.88,0,0,0-1.13,2Z"/><path class="cls-1" d="M158.5,514.4a1.56,1.56,0,0,1-1.08-.37,1.29,1.29,0,0,1-.41-1V502.49a1.29,1.29,0,0,1,.41-1,1.56,1.56,0,0,1,1.08-.37h.12a1.71,1.71,0,0,1,1.07.33,1,1,0,0,1,.42.82v0a4.88,4.88,0,0,1,3.25-1.29,4,4,0,0,1,2.08.55,4.22,4.22,0,0,1,1.48,1.59,5.48,5.48,0,0,1,1.85-1.59A5,5,0,0,1,171,501a3.77,3.77,0,0,1,3.24,1.64,7.67,7.67,0,0,1,1.17,4.55V513a1.29,1.29,0,0,1-.41,1,1.56,1.56,0,0,1-1.08.37h-.12a1.56,1.56,0,0,1-1.08-.37,1.26,1.26,0,0,1-.41-1v-5.45c0-2.54-.67-3.82-2-3.82a2.25,2.25,0,0,0-1.75.84,3.59,3.59,0,0,0-.81,2.24V513a1.29,1.29,0,0,1-.41,1,1.56,1.56,0,0,1-1.08.37h-.12a1.56,1.56,0,0,1-1.08-.37,1.29,1.29,0,0,1-.41-1v-5.45c0-2.54-.67-3.82-2-3.82a2.24,2.24,0,0,0-1.74.89,3.77,3.77,0,0,0-.82,2.31V513a1.26,1.26,0,0,1-.41,1,1.56,1.56,0,0,1-1.08.37Z"/><path class="cls-1" d="M181,513.62a6,6,0,0,1-2.23-2.41,7.86,7.86,0,0,1,0-6.95,5.88,5.88,0,0,1,2.23-2.4,6,6,0,0,1,3.22-.87,5.24,5.24,0,0,1,3.75,1.47v-.2a1,1,0,0,1,.42-.82,1.71,1.71,0,0,1,1.07-.33h.12a1.56,1.56,0,0,1,1.08.37,1.29,1.29,0,0,1,.41,1V513a1.29,1.29,0,0,1-.41,1,1.56,1.56,0,0,1-1.08.37h-.12a1.71,1.71,0,0,1-1.07-.33,1,1,0,0,1-.42-.82V513a5.24,5.24,0,0,1-3.75,1.47A6,6,0,0,1,181,513.62Zm.52-3.83a3.44,3.44,0,0,0,1.23,1.43,3.33,3.33,0,0,0,3.54,0,3.59,3.59,0,0,0,1.23-1.43,4.87,4.87,0,0,0,0-4.09,3.59,3.59,0,0,0-1.23-1.43,3.27,3.27,0,0,0-3.54,0,3.44,3.44,0,0,0-1.23,1.43,4.87,4.87,0,0,0,0,4.09Z"/><path class="cls-1" d="M195.46,519a1.56,1.56,0,0,1-1.08-.37,1.29,1.29,0,0,1-.41-1V502.49a1.29,1.29,0,0,1,.41-1,1.56,1.56,0,0,1,1.08-.37h.12a1.69,1.69,0,0,1,1.07.33,1,1,0,0,1,.42.82v.2a5.24,5.24,0,0,1,3.75-1.47,6,6,0,0,1,3.22.87,5.88,5.88,0,0,1,2.23,2.4,7.86,7.86,0,0,1,0,6.95,6,6,0,0,1-5.45,3.28,5.24,5.24,0,0,1-3.75-1.47v4.6a1.26,1.26,0,0,1-.41,1,1.56,1.56,0,0,1-1.08.37Zm2.06-9.21a3.59,3.59,0,0,0,1.23,1.43,3.19,3.19,0,0,0,1.77.51,3.22,3.22,0,0,0,1.78-.51,3.59,3.59,0,0,0,1.23-1.43,5,5,0,0,0,0-4.09,3.59,3.59,0,0,0-1.23-1.43,3.23,3.23,0,0,0-1.78-.52,3.19,3.19,0,0,0-1.77.52,3.59,3.59,0,0,0-1.23,1.43,4.87,4.87,0,0,0,0,4.09Z"/><path class="cls-1" d="M212.54,515.67a3,3,0,0,1-.61-.88,22,22,0,0,1-2.21-9.59,22.61,22.61,0,0,1,2.21-9.68,3.17,3.17,0,0,1,.6-.88,1.17,1.17,0,0,1,.81-.27,1.41,1.41,0,0,1,1,.38,1.27,1.27,0,0,1,.39.95,1.57,1.57,0,0,1-.19.74,13.81,13.81,0,0,0-1.26,3.85,26.79,26.79,0,0,0,0,9.67,14.84,14.84,0,0,0,1.26,3.94,1.68,1.68,0,0,1,.19.71,1.27,1.27,0,0,1-.39.95,1.36,1.36,0,0,1-1,.38A1.17,1.17,0,0,1,212.54,515.67Z"/><path class="cls-1" d="M219.81,513.63a5.88,5.88,0,0,1-2.3-2.39,7.71,7.71,0,0,1,0-7,6.1,6.1,0,0,1,2.35-2.4,6.57,6.57,0,0,1,3.36-.87,7.42,7.42,0,0,1,2.38.38,5.27,5.27,0,0,1,1.85,1.05,1.11,1.11,0,0,1,.39.87,1.49,1.49,0,0,1-.39,1,1.28,1.28,0,0,1-1,.46,1.89,1.89,0,0,1-.72-.18,6.72,6.72,0,0,0-1.29-.63,4,4,0,0,0-1.17-.16,3.25,3.25,0,0,0-2.52,1.05,5,5,0,0,0,0,5.91,3.24,3.24,0,0,0,2.51,1.07,4.46,4.46,0,0,0,1.38-.2,4.61,4.61,0,0,0,1.29-.7,1.62,1.62,0,0,1,.94-.3,1.34,1.34,0,0,1,1,.39,1.33,1.33,0,0,1,.42,1,1.42,1.42,0,0,1-.56,1.1,5.34,5.34,0,0,1-1.93,1.05,8,8,0,0,1-2.55.4A6.66,6.66,0,0,1,219.81,513.63Z"/><path class="cls-1" d="M233.32,513.62a6.5,6.5,0,0,1-2.44-2.44,7.34,7.34,0,0,1,0-6.93,6.25,6.25,0,0,1,2.42-2.39,7.46,7.46,0,0,1,7,0,6.25,6.25,0,0,1,2.42,2.39,6.92,6.92,0,0,1,.87,3.48,7.08,7.08,0,0,1-.87,3.48,6.51,6.51,0,0,1-2.45,2.41,7.36,7.36,0,0,1-6.94,0Zm.27-3.83a3.59,3.59,0,0,0,6.41,0,4.3,4.3,0,0,0,.48-2,4.47,4.47,0,0,0-.49-2.09,3.46,3.46,0,0,0-1.32-1.41,3.77,3.77,0,0,0-3.75,0,3.46,3.46,0,0,0-1.32,1.41,4.47,4.47,0,0,0-.48,2.09A4.29,4.29,0,0,0,233.59,509.79Z"/><path class="cls-1" d="M247.7,514.4a1.52,1.52,0,0,1-1.08-.37,1.26,1.26,0,0,1-.42-1V502.49a1.26,1.26,0,0,1,.42-1,1.52,1.52,0,0,1,1.08-.37h.11a1.69,1.69,0,0,1,1.07.33,1,1,0,0,1,.43.82v.07a5.39,5.39,0,0,1,7.48.35,7,7,0,0,1,1.46,4.73V513a1.26,1.26,0,0,1-.41,1,1.56,1.56,0,0,1-1.08.37h-.12a1.56,1.56,0,0,1-1.08-.37,1.29,1.29,0,0,1-.41-1V507.8a5.16,5.16,0,0,0-.73-3,2.39,2.39,0,0,0-2.1-1,2.82,2.82,0,0,0-2.09.85,3.51,3.51,0,0,0-.92,2.35V513a1.26,1.26,0,0,1-.42,1,1.52,1.52,0,0,1-1.08.37Z"/><path class="cls-1" d="M264.62,513.19a5.75,5.75,0,0,1-1.19-4v-5.31h-1.52a1.68,1.68,0,0,1-1.16-.37,1.4,1.4,0,0,1,0-2,1.66,1.66,0,0,1,1.15-.38h1.52V497a1.58,1.58,0,0,1,.41-1.12,1.52,1.52,0,0,1,1.13-.42,1.43,1.43,0,0,1,1.56,1.54v4.14h3.32a1.68,1.68,0,0,1,1.15.38,1.42,1.42,0,0,1,0,2,1.7,1.7,0,0,1-1.16.37h-3.32v5.31c0,1.69.52,2.53,1.57,2.53a2.4,2.4,0,0,0,.95-.17A3.11,3.11,0,0,0,270,511a1.45,1.45,0,0,1,2.3,1.11,1.44,1.44,0,0,1-.48,1,5.07,5.07,0,0,1-3.71,1.38A4.45,4.45,0,0,1,264.62,513.19Z"/><path class="cls-1" d="M277.19,513.63a6,6,0,0,1-2.3-2.39,7.27,7.27,0,0,1-.81-3.46,7.18,7.18,0,0,1,.83-3.5,5.83,5.83,0,0,1,2.24-2.42,6.11,6.11,0,0,1,3.23-.87,6.27,6.27,0,0,1,3,.72,5.69,5.69,0,0,1,2.19,2,6.8,6.8,0,0,1,1,3.05,2,2,0,0,1-.46,1.63,2.21,2.21,0,0,1-1.68.58h-7.11a3.48,3.48,0,0,0,1.17,2,3.27,3.27,0,0,0,2.17.74,4.46,4.46,0,0,0,1.38-.2,4.7,4.7,0,0,0,1.28-.7,1.65,1.65,0,0,1,.95-.3,1.37,1.37,0,0,1,1.4,1.36,1.41,1.41,0,0,1-.55,1.1,5.42,5.42,0,0,1-1.93,1.05,8.11,8.11,0,0,1-2.56.4A6.68,6.68,0,0,1,277.19,513.63Zm6.11-7.16a3.3,3.3,0,0,0-1-2,2.72,2.72,0,0,0-1.92-.73,2.77,2.77,0,0,0-1.92.74,3.9,3.9,0,0,0-1.14,2Z"/><path class="cls-1" d="M290.57,514.4a1.52,1.52,0,0,1-1.08-.37,1.26,1.26,0,0,1-.42-1V502.49a1.26,1.26,0,0,1,.42-1,1.52,1.52,0,0,1,1.08-.37h.11a1.69,1.69,0,0,1,1.07.33,1,1,0,0,1,.43.82v.07a5.41,5.41,0,0,1,7.49.35,7,7,0,0,1,1.46,4.73V513a1.26,1.26,0,0,1-.42,1,1.52,1.52,0,0,1-1.08.37h-.11a1.57,1.57,0,0,1-1.09-.37,1.29,1.29,0,0,1-.41-1V507.8a5.24,5.24,0,0,0-.72-3,2.42,2.42,0,0,0-2.11-1,2.82,2.82,0,0,0-2.09.85,3.56,3.56,0,0,0-.92,2.35V513a1.26,1.26,0,0,1-.42,1,1.52,1.52,0,0,1-1.08.37Z"/><path class="cls-1" d="M307.5,513.19a5.7,5.7,0,0,1-1.2-4v-5.31h-1.52a1.68,1.68,0,0,1-1.16-.37,1.42,1.42,0,0,1,0-2,1.66,1.66,0,0,1,1.15-.38h1.52V497a1.58,1.58,0,0,1,.41-1.12,1.56,1.56,0,0,1,2.7,1.12v4.14h3.31a1.66,1.66,0,0,1,1.15.38,1.42,1.42,0,0,1,0,2,1.7,1.7,0,0,1-1.16.37h-3.31v5.31c0,1.69.52,2.53,1.56,2.53a2.4,2.4,0,0,0,.95-.17,3.11,3.11,0,0,0,.91-.59,1.45,1.45,0,0,1,2.3,1.11,1.44,1.44,0,0,1-.48,1,5.06,5.06,0,0,1-3.7,1.38A4.42,4.42,0,0,1,307.5,513.19Z"/><path class="cls-1" d="M317,515.56a1.24,1.24,0,0,1-.4-.95,1.84,1.84,0,0,1,.19-.71,14.84,14.84,0,0,0,1.26-3.94,26.79,26.79,0,0,0,0-9.67,13.81,13.81,0,0,0-1.26-3.85,1.69,1.69,0,0,1-.19-.74,1.24,1.24,0,0,1,.4-.95,1.39,1.39,0,0,1,1-.38,1.16,1.16,0,0,1,.8.27,3.17,3.17,0,0,1,.6.88,22.61,22.61,0,0,1,2.21,9.68,22,22,0,0,1-2.21,9.59,3,3,0,0,1-.61.88,1.17,1.17,0,0,1-.79.27A1.35,1.35,0,0,1,317,515.56Z"/><rect class="cls-2" x="101.54" y="223.63" width="78.1" height="78.1"/><path class="cls-3" d="M180.14,302.22H101V223.13h79.1Zm-78.1-1h77.1V224.13H102Z"/><path d="M111.65,280.76l11.78-34h9.06l11.74,34h-7.56l-2.54-7.84H121.84l-2.58,7.84Zm20.7-13.33-4.27-13h-.24l-4.22,13Z"/><path d="M156.19,265.79c1.83-.12,5.26-.28,6.34-.33V263.4c-.05-2.12-1.5-3.38-4.08-3.38-2.35,0-3.85,1.08-4.23,2.81H147.6c.43-4.41,4.27-7.88,11-7.88,5.54,0,10.8,2.48,10.8,8.63v17.18h-6.57v-3.52h-.19c-1.27,2.35-3.66,4-7.46,4-4.88,0-8.5-2.53-8.5-7.6C146.71,268,151.31,266.07,156.19,265.79Zm1,10.65c3.14,0,5.4-2.11,5.35-4.78v-1.88c-1.06.05-4,.21-5.21.33-2.39.23-3.94,1.36-3.94,3.33S155,276.44,157.18,276.44Z"/><path d="M189.51,237.54h3.32a2.87,2.87,0,1,1,0,5.72h-1.53V246h-1.75Zm3,4.3a1.36,1.36,0,0,0,1.54-1.44,1.35,1.35,0,0,0-1.54-1.42h-1.25v2.86Z"/><path d="M197,239.66h1.67v1.1h.07a1.56,1.56,0,0,1,1.54-1.19,3.21,3.21,0,0,1,.55.05v1.55a3.12,3.12,0,0,0-.74-.09,1.3,1.3,0,0,0-1.36,1.32V246H197Z"/><path d="M201.18,242.87a3,3,0,0,1,3.07-3.29,2.88,2.88,0,0,1,3,3.22v.49h-4.35a1.42,1.42,0,0,0,1.47,1.56,1.23,1.23,0,0,0,1.18-.64h1.65a2.64,2.64,0,0,1-2.87,1.94A3,3,0,0,1,201.18,242.87Zm4.42-.67a1.26,1.26,0,0,0-1.31-1.32,1.36,1.36,0,0,0-1.4,1.32Z"/><path d="M211.69,241h-1.2v3.11c0,.5.25.63.6.64.18,0,.48,0,.69,0v1.37a5.89,5.89,0,0,1-.92.06c-1.26,0-2.11-.57-2.1-1.8V241h-.88v-1.3h.88v-1.52h1.73v1.52h1.2Z"/><path d="M212.46,242.87a3,3,0,0,1,3.07-3.29,2.88,2.88,0,0,1,3,3.22v.49h-4.35a1.42,1.42,0,0,0,1.47,1.56,1.22,1.22,0,0,0,1.18-.64h1.65a2.64,2.64,0,0,1-2.87,1.94A3,3,0,0,1,212.46,242.87Zm4.42-.67a1.26,1.26,0,0,0-1.31-1.32,1.36,1.36,0,0,0-1.4,1.32Z"/><path d="M221.35,246h-1.73v-6.36h1.65v1.11h.07a1.94,1.94,0,0,1,1.91-1.19,2.12,2.12,0,0,1,2.19,2.39V246h-1.72v-3.75a1.11,1.11,0,0,0-1.15-1.25,1.18,1.18,0,0,0-1.22,1.32Z"/><path d="M226.55,242.85c0-2.18,1.19-3.27,2.59-3.27a1.87,1.87,0,0,1,1.81,1.15H231v-3.19h1.73V246H231v-1H231a1.88,1.88,0,0,1-1.81,1.13C227.69,246.13,226.55,245,226.55,242.85Zm4.49,0c0-1.15-.49-1.88-1.36-1.88s-1.34.76-1.34,1.88.46,1.91,1.34,1.91S231,244,231,242.84Z"/><path d="M236.21,242.29l1.58-.09v-.51c0-.53-.37-.85-1-.85a1,1,0,0,0-1.05.71h-1.66c.11-1.1,1.07-2,2.76-2,1.38,0,2.69.62,2.69,2.15V246h-1.64v-.88h0a2,2,0,0,1-1.87,1,1.86,1.86,0,0,1-2.12-1.9C233.84,242.82,235,242.36,236.21,242.29Zm.25,2.66a1.23,1.23,0,0,0,1.33-1.2v-.47c-.26,0-1,.05-1.3.08-.6.06-1,.34-1,.84S235.9,245,236.46,245Z"/><path d="M240.85,239.66h1.67v1.1h.07a1.56,1.56,0,0,1,1.54-1.19,3.21,3.21,0,0,1,.55.05v1.55a3.12,3.12,0,0,0-.74-.09,1.3,1.3,0,0,0-1.36,1.32V246h-1.73Z"/><path d="M245.08,242.85c0-2.18,1.19-3.27,2.59-3.27a1.87,1.87,0,0,1,1.81,1.15h.06v-3.19h1.73V246h-1.71v-1h-.08a1.89,1.89,0,0,1-1.81,1.13C246.22,246.13,245.08,245,245.08,242.85Zm4.49,0c0-1.15-.49-1.88-1.36-1.88s-1.35.76-1.35,1.88.47,1.91,1.35,1.91S249.57,244,249.57,242.84Z"/><path d="M255.48,237.54h3.37c1.88,0,2.82.9,2.82,2.18a1.82,1.82,0,0,1-1.53,1.82v.08a2,2,0,0,1,1.86,2.06c0,1.35-1,2.34-2.92,2.34h-3.6Zm4.4,2.46c0-.61-.44-1-1.25-1h-1.39v2.12h1.35C259.33,241.09,259.88,240.68,259.88,240Zm.3,3.52a1.25,1.25,0,0,0-1.41-1.22h-1.53v2.27h1.48C259.74,244.57,260.18,244.15,260.18,243.52Z"/><path d="M262.83,242.86a3.13,3.13,0,1,1,3.12,3.29A3,3,0,0,1,262.83,242.86Zm4.48,0c0-1.13-.46-2-1.35-2s-1.37.83-1.37,2,.47,1.94,1.37,1.94S267.31,244,267.31,242.86Z"/><path d="M271.91,246h-1.73v-8.48h1.73Z"/><path d="M273,242.85c0-2.18,1.18-3.27,2.59-3.27a1.84,1.84,0,0,1,1.8,1.15h.06v-3.19h1.74V246H277.5v-1h-.09a1.87,1.87,0,0,1-1.8,1.13C274.16,246.13,273,245,273,242.85Zm4.49,0c0-1.15-.49-1.88-1.36-1.88s-1.35.76-1.35,1.88.47,1.91,1.35,1.91S277.51,244,277.51,242.84Z"/><path d="M188.94,273.66l1.89-5.53h1.44l1.88,5.53h-1.21l-.4-1.28h-2l-.41,1.28Zm3.31-2.17-.68-2.11h0l-.68,2.11Z"/><path d="M194.76,268.13h2.17c1.2,0,1.8.59,1.8,1.42a1.18,1.18,0,0,1-1,1.19v.05a1.28,1.28,0,0,1,1.2,1.34c0,.88-.65,1.53-1.88,1.53h-2.31Zm2.83,1.61c0-.4-.29-.67-.81-.67h-.89v1.38h.87A.74.74,0,0,0,197.59,269.74Zm.18,2.29a.8.8,0,0,0-.9-.8h-1v1.48h1C197.5,272.71,197.77,272.44,197.77,272Z"/><path d="M202.1,269.07c-.84,0-1.4.67-1.4,1.83s.56,1.82,1.4,1.82a1.13,1.13,0,0,0,1.19-1h1.14a2.25,2.25,0,0,1-2.35,2,2.85,2.85,0,0,1,0-5.67,2.2,2.2,0,0,1,2.35,2h-1.14A1.13,1.13,0,0,0,202.1,269.07Z"/><path d="M205.22,273.66v-5.53h1.93a2.77,2.77,0,0,1,0,5.53Zm1.87-1c1,0,1.57-.55,1.57-1.78s-.54-1.77-1.57-1.77h-.75v3.55Z"/><path d="M210.6,268.13h3.65v.95h-2.52v1.34h2.33v.95h-2.33v1.34h2.53v1H210.6Z"/><path d="M215.13,268.13h3.58v.95h-2.46v1.34h2.23v.95h-2.23v2.29h-1.12Z"/><path d="M221.91,269.07c-.84,0-1.42.66-1.42,1.82s.56,1.83,1.42,1.83a1.13,1.13,0,0,0,1.26-1.14H222v-.87h2.27v.69a2.2,2.2,0,0,1-2.35,2.33,2.85,2.85,0,0,1,0-5.67,2.21,2.21,0,0,1,2.32,1.85h-1.14A1.12,1.12,0,0,0,221.91,269.07Z"/><path d="M225.08,268.13h1.13v2.29h2.35v-2.29h1.14v5.53h-1.14v-2.29h-2.35v2.29h-1.13Z"/><path d="M231.74,273.66h-1.13v-5.53h1.13Z"/><path d="M235.94,268.13V272a1.68,1.68,0,0,1-1.84,1.74,1.56,1.56,0,0,1-1.75-1.61h1.13a.64.64,0,0,0,.67.69c.43,0,.67-.28.67-.82v-3.86Z"/><path d="M236.85,268.13H238v2.45h.07l2-2.45h1.36l-2,2.48,2,3.05h-1.35l-1.51-2.28-.57.7v1.58h-1.13Z"/><path d="M242,268.13h1.12v4.58h2.35v1H242Z"/><path d="M247.54,268.13l1.51,3.75h.06l1.51-3.75H252v5.53h-1.09V270h0l-1.42,3.6h-.75L247.28,270h0v3.63h-1.1v-5.53Z"/><path d="M257.46,273.66h-1l-2.38-3.51h0v3.51h-1.13v-5.53h1l2.37,3.51h0v-3.51h1.12Z"/><path d="M260.81,273.73a2.85,2.85,0,1,1,2.54-2.83A2.54,2.54,0,0,1,260.81,273.73Zm0-4.66c-.84,0-1.39.64-1.39,1.83s.55,1.82,1.39,1.82,1.39-.64,1.39-1.82S261.65,269.07,260.81,269.07Z"/><path d="M264.16,268.13h2.13a1.87,1.87,0,1,1,0,3.73h-1v1.8h-1.12Zm1.92,2.8a.93.93,0,1,0,0-1.86h-.8v1.86Z"/><path d="M273.06,273.12l.77,1h-1.06l-.43-.56a2.93,2.93,0,1,1,1.58-2.66A2.91,2.91,0,0,1,273.06,273.12Zm-1.1-1.38.41.55a2.13,2.13,0,0,0,.4-1.39c0-1.19-.55-1.83-1.39-1.83s-1.39.64-1.39,1.83.55,1.82,1.39,1.82a1.66,1.66,0,0,0,.32,0l-.71-.95Z"/><path d="M274.74,268.13h2.13a1.73,1.73,0,0,1,1.94,1.81,1.59,1.59,0,0,1-1,1.57l1.16,2.15h-1.25l-1-2h-.87v2h-1.12Zm1.92,2.64c.67,0,1-.29,1-.83s-.32-.87-1-.87h-.8v1.7Z"/><path d="M281.75,270h0l1.12-1.9h1.28l-1.66,2.77,1.7,2.76h-1.31l-1.13-1.9h0l-1.13,1.9h-1.3L281,270.9l-1.68-2.77h1.28Z"/><path d="M284.65,268.13h4.45v.95h-1.67v4.58h-1.11v-4.58h-1.67Z"/><path d="M294.29,268.13v3.59a2.26,2.26,0,0,1-4.49,0v-3.59h1.12v3.5a1.12,1.12,0,0,0,2.24,0v-3.5Z"/><path d="M297.48,272.35h0l1.33-4.22h1.25l-1.88,5.53h-1.45l-1.88-5.53h1.26Z"/><path d="M300.38,268.13h1.24l.91,3.87h.05l1-3.87h1.05l1,3.87h.05l.91-3.87h1.23l-1.55,5.53h-1.1l-1-3.65h0l-1,3.65h-1.1Z"/><path d="M310.55,270h0l1.12-1.9H313l-1.66,2.77,1.69,2.76h-1.3l-1.13-1.9h0l-1.12,1.9h-1.3l1.7-2.76-1.67-2.77h1.28Z"/><path d="M314.61,268.13l1.25,2.38h.05l1.25-2.38h1.27l-2,3.56v2h-1.12v-2l-2-3.56Z"/><path d="M318.94,273l2.73-3.89h-2.74v-.95h4.15v.69l-2.72,3.89h2.73v1h-4.15Z"/><path d="M190.55,279.63l1-.05v-.33c0-.35-.24-.55-.65-.55a.61.61,0,0,0-.68.45h-1.06c.07-.71.69-1.28,1.77-1.28.88,0,1.72.41,1.72,1.41v2.79h-1v-.57h0a1.24,1.24,0,0,1-1.19.64,1.2,1.2,0,0,1-1.36-1.23C189,280,189.77,279.68,190.55,279.63Zm.16,1.74a.79.79,0,0,0,.85-.78v-.31l-.83.06c-.39,0-.63.22-.63.54S190.35,281.37,190.71,281.37Z"/><path d="M193.53,276.54h1.11v2.08h0a1.21,1.21,0,0,1,1.17-.75c.9,0,1.66.71,1.66,2.13s-.73,2.14-1.66,2.14a1.21,1.21,0,0,1-1.17-.74h0v.67h-1.1Zm1.95,4.7c.58,0,.88-.51.88-1.25s-.3-1.22-.88-1.22-.86.48-.86,1.22S194.94,281.24,195.48,281.24Z"/><path d="M198,280a1.94,1.94,0,0,1,2-2.14,1.66,1.66,0,0,1,1.81,1.57h-1a.75.75,0,0,0-.76-.69c-.53,0-.88.46-.88,1.24s.34,1.26.88,1.26a.73.73,0,0,0,.76-.68h1a1.65,1.65,0,0,1-1.81,1.58A1.94,1.94,0,0,1,198,280Z"/><path d="M202.38,280c0-1.42.76-2.13,1.66-2.13a1.21,1.21,0,0,1,1.16.75h0v-2.08h1.11v5.53h-1.09v-.67h-.05a1.21,1.21,0,0,1-1.16.74C203.11,282.14,202.38,281.38,202.38,280Zm2.87,0c0-.74-.31-1.22-.87-1.22s-.86.5-.86,1.22.3,1.25.86,1.25S205.25,280.74,205.25,280Z"/><path d="M207.07,280a1.94,1.94,0,0,1,2-2.15A1.86,1.86,0,0,1,211,280v.32h-2.78a.91.91,0,0,0,.93,1,.78.78,0,0,0,.76-.42h1.06a1.7,1.7,0,0,1-1.84,1.26A1.92,1.92,0,0,1,207.07,280Zm2.83-.44a.82.82,0,0,0-.84-.86.87.87,0,0,0-.89.86Z"/><path d="M213.82,278.77H213v3.3h-1.12v-3.3h-.57v-.84h.57v-.32a1.21,1.21,0,0,1,1.34-1.32,3.16,3.16,0,0,1,.66.06v.86a2.61,2.61,0,0,0-.34,0c-.36,0-.54.14-.54.48v.26h.81Z"/><path d="M214.27,282.41h1.1c.06.33.36.48.81.48s.86-.22.86-.8v-.75h0a1.2,1.2,0,0,1-1.17.67c-.92,0-1.66-.66-1.66-2s.76-2.1,1.66-2.1a1.2,1.2,0,0,1,1.17.75h0v-.69h1.11v4.18c0,1.06-.83,1.6-2,1.6S214.34,283.2,214.27,282.41ZM217,280c0-.74-.32-1.22-.87-1.22s-.86.5-.86,1.22.3,1.17.86,1.17S217,280.72,217,280Z"/><path d="M220.11,282.07H219v-5.53h1.08v2.11h0a1.22,1.22,0,0,1,1.22-.78,1.38,1.38,0,0,1,1.41,1.56v2.64h-1.11v-2.44a.72.72,0,0,0-.74-.82.77.77,0,0,0-.79.86Z"/><path d="M223.55,276.81a.61.61,0,1,1,.61.57A.59.59,0,0,1,223.55,276.81Zm0,1.12h1.11v4.14H223.6Z"/><path d="M226.69,277.93v4.34c0,1-.58,1.35-1.53,1.35h-.23v-.89h.15c.36,0,.5-.17.5-.48v-4.33Zm-1.17-1.12a.61.61,0,1,1,.61.57A.59.59,0,0,1,225.52,276.81Z"/><path d="M227.55,276.54h1.11v3h.06l1.32-1.58h1.28l-1.52,1.79,1.6,2.35h-1.3L229,280.38l-.32.36v1.33h-1.11Z"/><path d="M233,282.07h-1.11v-5.53H233Z"/><path d="M233.81,277.93h1.06v.72h0a1.16,1.16,0,0,1,1.14-.78,1.09,1.09,0,0,1,1.11.78h0a1.24,1.24,0,0,1,1.23-.78,1.26,1.26,0,0,1,1.28,1.41v2.79H238.6V279.5a.62.62,0,0,0-.64-.7.65.65,0,0,0-.66.74v2.53h-1.08v-2.6a.61.61,0,0,0-.63-.67.7.7,0,0,0-.67.78v2.49h-1.11Z"/><path d="M241.67,282.07h-1.11v-4.14h1.06v.72h0a1.22,1.22,0,0,1,1.22-.78,1.38,1.38,0,0,1,1.4,1.56v2.64h-1.1v-2.44a.72.72,0,0,0-.74-.82.76.76,0,0,0-.78.86Z"/><path d="M245,280a2,2,0,1,1,2,2.14A1.94,1.94,0,0,1,245,280Zm2.87,0c0-.73-.3-1.28-.87-1.28s-.87.55-.87,1.28.3,1.27.87,1.27S247.86,280.73,247.86,280Z"/><path d="M249.69,277.93h1.09v.69h.05a1.2,1.2,0,0,1,1.16-.75c.9,0,1.65.71,1.65,2.13s-.72,2.14-1.65,2.14a1.2,1.2,0,0,1-1.16-.74h0v2.22h-1.11Zm1.95,3.31c.57,0,.87-.51.87-1.25s-.3-1.22-.87-1.22-.86.48-.86,1.22S251.09,281.24,251.64,281.24Z"/><path d="M257.06,281.4h0a1.21,1.21,0,0,1-1.16.74c-.93,0-1.66-.76-1.66-2.14s.76-2.13,1.66-2.13a1.19,1.19,0,0,1,1.16.75h.05v-.69h1.1v5.69h-1.11Zm0-1.41c0-.74-.32-1.22-.87-1.22s-.87.5-.87,1.22.3,1.25.87,1.25S257.08,280.74,257.08,280Z"/><path d="M259,277.93h1.07v.71h0a1,1,0,0,1,1-.78,2,2,0,0,1,.35,0v1a2,2,0,0,0-.47-.06.83.83,0,0,0-.87.86v2.36H259Z"/><path d="M263.84,279.38l.77-1.45h1.15L264.57,280l1.22,2.08h-1.14l-.81-1.44-.8,1.44h-1.15L263.1,280l-1.17-2.06h1.15Z"/><path d="M268.54,278.77h-.77v2c0,.33.16.42.38.42a3.54,3.54,0,0,0,.45,0v.89a2.86,2.86,0,0,1-.6,0c-.8,0-1.35-.36-1.34-1.17v-2.18h-.56v-.84h.56v-1h1.11v1h.77Z"/><path d="M271.85,277.93H273v4.14h-1.07v-.75h0a1.27,1.27,0,0,1-1.24.8,1.38,1.38,0,0,1-1.38-1.55v-2.64h1.12v2.44a.7.7,0,0,0,.71.8.8.8,0,0,0,.79-.86Z"/><path d="M276.17,282.07h-1.25l-1.42-4.14h1.17l.85,3h.05l.85-3h1.18Z"/><path d="M277.83,277.93H279l.64,2.8h0l.66-2.8h1.11l.67,2.78h0l.63-2.78h1.13l-1.12,4.14h-1.17l-.71-2.63h-.05l-.71,2.63h-1.18Z"/><path d="M286.12,279.38l.77-1.45H288L286.85,280l1.22,2.08h-1.14l-.81-1.44-.8,1.44h-1.15l1.21-2.08-1.17-2.06h1.15Z"/><path d="M288.76,283.6v-.88l.45,0a.47.47,0,0,0,.53-.38l.07-.18-1.46-4.25h1.16l.86,3.05h0l.86-3.05h1.18l-1.59,4.6a1.47,1.47,0,0,1-1.54,1.09A4.62,4.62,0,0,1,288.76,283.6Z"/><path d="M293,281.39l2-2.53v0H293v-.9h3.28v.74l-1.88,2.47v0h1.95v.9H293Z"/><path d="M191.56,291.68h-1.13v-4.43h0l-1.25.79v-1l1.34-.87h1.07Z"/><path d="M192.81,290.85l1.95-1.82c.51-.5.78-.8.78-1.24a.78.78,0,0,0-.86-.79.79.79,0,0,0-.84.85h-1.07a1.74,1.74,0,0,1,1.93-1.77,1.71,1.71,0,0,1,1.93,1.63c0,.63-.3,1.15-1.42,2.18l-.82.82v0h2.32v.94h-3.89Z"/><path d="M197.45,290.12h1.14c0,.42.41.69.94.69s.93-.31.92-.75-.39-.77-1-.77h-.5v-.85h.5c.54,0,.91-.3.91-.73a.71.71,0,0,0-.79-.71.81.81,0,0,0-.9.69h-1.08a1.79,1.79,0,0,1,2-1.61,1.67,1.67,0,0,1,1.88,1.56,1.16,1.16,0,0,1-1,1.17v0a1.25,1.25,0,0,1,1.23,1.28c0,.95-.87,1.63-2.1,1.63S197.47,291.09,197.45,290.12Z"/><path d="M202.33,289.8l2.29-3.64H206v3.62h.69v.93H206v1H205v-1h-2.64Zm2.65,0v-2.36h0l-1.46,2.32v0Z"/><path d="M207.48,290.12h1.1a.81.81,0,0,0,.88.73.92.92,0,0,0,1-1,1,1,0,0,0-1-1,.9.9,0,0,0-.86.47h-1l.29-3.18h3.35v.94H208.8l-.15,1.39h0a1.36,1.36,0,0,1,1.09-.46,1.72,1.72,0,0,1,1.74,1.81,1.9,1.9,0,0,1-2.06,1.92A1.79,1.79,0,0,1,207.48,290.12Z"/><path d="M212.19,289.05c0-1.86.88-3,2.24-3a1.85,1.85,0,0,1,1.95,1.61h-1.11a.79.79,0,0,0-.84-.62c-.73,0-1.12.68-1.13,1.76h0a1.53,1.53,0,0,1,1.39-.78,1.69,1.69,0,0,1,1.7,1.78,1.9,1.9,0,0,1-2.05,1.93C213.26,291.75,212.19,291.07,212.19,289.05Zm3.16.82a1,1,0,0,0-1-1,1,1,0,0,0-1,1,1,1,0,1,0,1.94,0Z"/><path d="M219.72,287.13v0h-2.66v-.94h3.83v.95l-2.29,4.57h-1.17Z"/><path d="M221.45,290.19a1.39,1.39,0,0,1,1.2-1.36v0a1.22,1.22,0,0,1-1-1.22c0-.86.81-1.49,1.92-1.49s1.92.63,1.93,1.49a1.24,1.24,0,0,1-1,1.22v0a1.4,1.4,0,0,1,1.19,1.36c0,.9-.89,1.57-2.13,1.57S221.45,291.09,221.45,290.19Zm3.08-.11a.87.87,0,0,0-.95-.83.86.86,0,0,0-1,.83c0,.47.37.8,1,.8A.84.84,0,0,0,224.53,290.08Zm-.13-2.4a.83.83,0,0,0-1.64,0,.82.82,0,0,0,1.64,0Z"/><path d="M230.66,288.77c0,1.88-.88,3-2.24,3a1.85,1.85,0,0,1-1.95-1.64h1.11a.8.8,0,0,0,.84.65c.74,0,1.13-.67,1.13-1.77h0a1.55,1.55,0,0,1-1.4.77,1.68,1.68,0,0,1-1.7-1.77,1.89,1.89,0,0,1,2.05-1.92C229.59,286.09,230.66,286.77,230.66,288.77Zm-3.15-.8a.94.94,0,0,0,1,1,1,1,0,0,0,0-2A1,1,0,0,0,227.51,288Z"/><path d="M189.46,264.14l-.54-.75a4.33,4.33,0,0,0,2.66-3.48h-2.27v-.79h3.25A5.22,5.22,0,0,1,189.46,264.14Zm4.92-3.07h1v.8h-1v3.46h-1v-6.92h1Z"/><path d="M196.81,262.83a14.22,14.22,0,0,0,2.8-.3l.09.81a15.76,15.76,0,0,1-3.26.3h-.59v-4.57h1Zm5.18-1h-1v3.5h-1v-6.92h1V261h1Z"/><path d="M205.75,259.83H203.5v3.05a15.94,15.94,0,0,0,2.72-.22l.1.81a17.21,17.21,0,0,1-3.2.21h-.58v-4.63h3.21Zm1.91,1.15h1v.8h-1v3.58h-1v-6.95h1Z"/><path d="M212.35,261.68h-2.2v1.26a16,16,0,0,0,2.73-.21l.08.78a16.84,16.84,0,0,1-3.18.24h-.58v-2.84h2.2v-1.14h-2.21V259h3.16Zm2-.65h1v.8h-1v3.53h-.95v-6.95h.95Z"/><path d="M219.05,263.65h-3.28v-4.59h3.28Zm-2.33-.77h1.38v-3.06h-1.38ZM221,261h1v.81h-1v3.52h-1v-6.94h1Z"/><path d="M223.37,260.65h1.42V259h1v4.78h-3.33V259h1Zm1.42,2.3V261.4h-1.42V263Zm2.8-1.95h1v.82h-1v3.53h-1v-6.94h1Z"/><path d="M233,263l-.58.78a3.12,3.12,0,0,1-1.51-1.89,3.33,3.33,0,0,1-1.6,2l-.59-.78a3.4,3.4,0,0,0,1.7-3.16v-1h1v1A3.24,3.24,0,0,0,233,263Zm1.26-1.93h1v.83h-1v3.44h-1v-6.94h1Z"/><path d="M239.12,261.37c0,1.52-.76,2.48-1.8,2.48s-1.81-1-1.8-2.48.75-2.48,1.8-2.48S239.11,259.86,239.12,261.37Zm-2.68,0c0,1,.35,1.59.88,1.59s.88-.56.88-1.59-.35-1.6-.88-1.6S236.44,260.34,236.44,261.37Zm4.43-.35h1v.81h-1v3.52h-1v-6.94h1Z"/><path d="M246.32,263.11l-.54.76a3.26,3.26,0,0,1-1.6-1.9,3.4,3.4,0,0,1-1.66,2.07l-.56-.77a3.31,3.31,0,0,0,1.72-3v-.43h-1.45v-.79H246v.79h-1.37v.43A3.09,3.09,0,0,0,246.32,263.11Zm1.19-2.06h1v.82h-1v3.48h-1v-6.94h1Z"/><path d="M252.82,263.2l-.53.74a3,3,0,0,1-1.53-1.77,3.09,3.09,0,0,1-1.6,1.89l-.53-.76a3,3,0,0,0,1.65-2.72v-.27h-1.41v-.77h1.41v-1h1v1h1.39v.77h-1.4v.27A2.88,2.88,0,0,0,252.82,263.2Zm1.33-2.1h1v.82h-1v3.43h-1v-6.94h1Z"/><path d="M255.9,264.3l-.53-.74a4.61,4.61,0,0,0,2.21-2l-2,.19-.12-.83,2.43-.15a5.33,5.33,0,0,0,.14-.93H255.8v-.78H259A5.16,5.16,0,0,1,255.9,264.3Zm4.89-3.23h1v.8h-1v3.46h-1v-6.92h1Z"/><path d="M265.55,259.77h-2.27v1.15h2.17v.76h-2.17V263a16.86,16.86,0,0,0,2.69-.2l.09.79a20,20,0,0,1-3.17.19h-.58V259h3.24Zm1.88,1.27h1v.81h-1v3.5h-1v-6.94h1Z"/><path d="M272.58,259.82H272v3l.81-.08.05.7a24.35,24.35,0,0,1-4.13.28l-.11-.79h.78v-3.13h-.61v-.77h3.82Zm-1.53,3.09v-3.09h-.76v3.12Zm3-1.87h1v.8h-1v3.51h-1v-6.94h1Z"/><path d="M279.3,260.22h-4v-.78h1.55v-.93h1v.93h1.51Zm-.25,2a1.75,1.75,0,1,1-1.74-1.66A1.64,1.64,0,0,1,279.05,262.27Zm-2.57,0a.83.83,0,1,0,1.66,0,.83.83,0,1,0-1.66,0Zm4.23-1.15h1v.8h-1v3.43h-.94v-6.94h.94Z"/><rect class="cls-2" x="101.54" y="324.12" width="78.1" height="78.1"/><path class="cls-3" d="M180.14,402.71H101V323.62h79.1Zm-78.1-1h77.1V324.62H102Z"/><path d="M109.47,377.63l11.6-31.48H128l11.6,31.48h-6.28l-3.6-10.12-11.48,3.12-2.48,7Zm10.68-12.32,8-2.16L124.51,353Z"/><path d="M164.59,354.31h5.52v23.32h-5.36l-.76-3.08a8.74,8.74,0,0,1-1.76,1.66,12,12,0,0,1-2.26,1.24,14.59,14.59,0,0,1-2.54.76,12.18,12.18,0,0,1-2.6.22,11.86,11.86,0,0,1-4.62-1,12.59,12.59,0,0,1-3.84-2.6,12.11,12.11,0,0,1-2.62-3.9,13,13,0,0,1,0-9.92,12.45,12.45,0,0,1,6.52-6.56,11,11,0,0,1,4.48-.94,13.81,13.81,0,0,1,5.24,1,9.65,9.65,0,0,1,3.84,2.72Zm-8.52,19.24a7.31,7.31,0,0,0,2.72-.52,6.51,6.51,0,0,0,2.22-1.5,7.27,7.27,0,0,0,1.48-2.38A8.66,8.66,0,0,0,163,366a8.83,8.83,0,0,0-.54-3.2,7.07,7.07,0,0,0-1.48-2.38,6.23,6.23,0,0,0-2.22-1.5,7.37,7.37,0,0,0-5.44,0,6.06,6.06,0,0,0-2.22,1.5,6.91,6.91,0,0,0-1.48,2.38,8.83,8.83,0,0,0-.54,3.2,8.66,8.66,0,0,0,.54,3.12,7.11,7.11,0,0,0,1.48,2.38,6.32,6.32,0,0,0,2.22,1.5A7.27,7.27,0,0,0,156.07,373.55Z"/><path d="M190.14,343.33a4.68,4.68,0,0,0,.71.49,6,6,0,0,0,.82.37,5.4,5.4,0,0,0,.9.23,4.17,4.17,0,0,0,.93.07,2.39,2.39,0,0,0,1.18-.28.89.89,0,0,0,.47-.84,1.15,1.15,0,0,0-.46-1,3.78,3.78,0,0,0-1.35-.53,10.49,10.49,0,0,1-1.59-.46,4.53,4.53,0,0,1-1.16-.62,2.46,2.46,0,0,1-.71-.84,2.49,2.49,0,0,1-.24-1.12,2.32,2.32,0,0,1,.29-1.18,2.5,2.5,0,0,1,.78-.84,3.74,3.74,0,0,1,1.13-.5,5.43,5.43,0,0,1,1.35-.16,5.23,5.23,0,0,1,1.82.31,8.66,8.66,0,0,1,1.74.84l-.71,1.43a5.63,5.63,0,0,0-1.31-.69,4.29,4.29,0,0,0-1.47-.3,3.16,3.16,0,0,0-.61,0,2,2,0,0,0-.55.17,1.16,1.16,0,0,0-.4.32.8.8,0,0,0-.16.51,1.08,1.08,0,0,0,.09.46.83.83,0,0,0,.3.36,2.47,2.47,0,0,0,.57.31,7.52,7.52,0,0,0,.93.29,11.51,11.51,0,0,1,1.69.56,3.88,3.88,0,0,1,1.11.66,2,2,0,0,1,.62.83,2.84,2.84,0,0,1,.2,1.1,2.4,2.4,0,0,1-.29,1.18,2.79,2.79,0,0,1-.78.86,3.65,3.65,0,0,1-1.18.53,5.57,5.57,0,0,1-1.44.18,6,6,0,0,1-2.11-.38,7.69,7.69,0,0,1-1.85-.95Z"/><path d="M206.54,338.74a2.56,2.56,0,0,1-.3,1.22,2.2,2.2,0,0,1-1,.91,2.81,2.81,0,0,1,.7.33,1.87,1.87,0,0,1,.54.51,2.23,2.23,0,0,1,.34.71,3.33,3.33,0,0,1,.12.93,2.67,2.67,0,0,1-.21,1.1,2.08,2.08,0,0,1-.57.78,2.4,2.4,0,0,1-.83.46,3.19,3.19,0,0,1-1,.15h-5.85v-9.46h5.39a3.58,3.58,0,0,1,1,.13,2.41,2.41,0,0,1,.83.42,2,2,0,0,1,.57.73A2.54,2.54,0,0,1,206.54,338.74Zm-2.89,1.3a1.31,1.31,0,0,0,.78-.45,1.12,1.12,0,0,0,.27-.76,1,1,0,0,0-.33-.78,1.19,1.19,0,0,0-.79-.26h-3.15v3.12Zm1.4,2.94a1.26,1.26,0,0,0-.46-1,2,2,0,0,0-1.19-.48l-3,.86v2.09h3.09a1.58,1.58,0,0,0,1.14-.37A1.44,1.44,0,0,0,205.05,343Z"/><path d="M220.89,345.85H219v-4.68l-1.54.53a6.62,6.62,0,0,1-.4,1.93,3.79,3.79,0,0,1-.77,1.28,2.74,2.74,0,0,1-1,.72,3,3,0,0,1-1.1.22,2.91,2.91,0,0,1-1.21-.27,2.88,2.88,0,0,1-1.06-.84,4.55,4.55,0,0,1-.75-1.53,8.23,8.23,0,0,1-.28-2.32,8.13,8.13,0,0,1,.28-2.32,4.55,4.55,0,0,1,.75-1.53,2.81,2.81,0,0,1,1.06-.85,2.91,2.91,0,0,1,1.21-.27,3,3,0,0,1,1.12.23,2.8,2.8,0,0,1,1,.74,4.32,4.32,0,0,1,.77,1.33,6.69,6.69,0,0,1,.38,2l1.53-.53V335.8h1.88Zm-8.12-5a9.88,9.88,0,0,0,.12,1.69,3.85,3.85,0,0,0,.33,1.08,1.47,1.47,0,0,0,.45.56,1,1,0,0,0,.53.16.93.93,0,0,0,.52-.16,1.32,1.32,0,0,0,.45-.56,4,4,0,0,0,.32-1.07,9.2,9.2,0,0,0,.13-1.72,8.85,8.85,0,0,0-.13-1.69,4.15,4.15,0,0,0-.32-1.07,1.39,1.39,0,0,0-.45-.56.93.93,0,0,0-.52-.16,1,1,0,0,0-.53.16,1.44,1.44,0,0,0-.45.57,3.67,3.67,0,0,0-.33,1.07A10,10,0,0,0,212.77,340.89Z"/><path d="M222.4,344.38h10v1.47h-10Zm7.55-6.87h-7V336h8.86v7H230Z"/><path d="M234.28,337.51V336h9.09v4.09h-7.2v1.16h7.32v1.47h-3.84v1.62h4.07v1.47h-10v-1.47h4.07v-1.62h-3.48v-4.1h7.21v-1.15Z"/><path d="M254,345.84h-1.38l-2.59-6v6h-1.9v-9.46H250l3.27,7.57,3.28-7.57h1.9v9.46h-1.9v-6Z"/><path d="M261.67,343.53a2,2,0,0,0,.77.89,2.47,2.47,0,0,0,1.29.31,3.43,3.43,0,0,0,1.31-.24,2.69,2.69,0,0,0,1.08-.82l1.21.93a4.33,4.33,0,0,1-3.41,1.6,5,5,0,0,1-1.66-.27,4.12,4.12,0,0,1-1.34-.77,3.56,3.56,0,0,1-.9-1.22,3.75,3.75,0,0,1-.33-1.6,3.76,3.76,0,0,1,1.17-2.81,3.79,3.79,0,0,1,1.28-.79,4.37,4.37,0,0,1,1.6-.28,4,4,0,0,1,1.54.28,3.55,3.55,0,0,1,1.22.76,3.61,3.61,0,0,1,.83,1.16,4.06,4.06,0,0,1,.34,1.49Zm2.15-3.61a2.19,2.19,0,0,0-2.36,2.22l4.32-1a2.11,2.11,0,0,0-.81-.9A2.42,2.42,0,0,0,263.82,339.92Z"/><path d="M274.89,336.38h1.9v9.46h-1.61l-.23-.93a2.31,2.31,0,0,1-.53.5,3.18,3.18,0,0,1-.68.37,3.93,3.93,0,0,1-.76.23,4.11,4.11,0,0,1-.78.07,3.65,3.65,0,0,1-1.39-.3,4.17,4.17,0,0,1-1.15-.78,3.6,3.6,0,0,1-.79-1.18,3.91,3.91,0,0,1,0-3,3.77,3.77,0,0,1,2-2,3.47,3.47,0,0,1,1.35-.28,4.28,4.28,0,0,1,1.55.28,3.07,3.07,0,0,1,1.15.79Zm-2.32,8.23a2.07,2.07,0,0,0,.82-.16,1.8,1.8,0,0,0,.67-.45,2.19,2.19,0,0,0,.44-.71,2.54,2.54,0,0,0,.16-.94,2.61,2.61,0,0,0-.16-1,2.19,2.19,0,0,0-.44-.71,1.8,1.8,0,0,0-.67-.45,2.18,2.18,0,0,0-1.64,0,1.85,1.85,0,0,0-.66.45,2.05,2.05,0,0,0-.45.71,2.84,2.84,0,0,0-.16,1,2.76,2.76,0,0,0,.16.94,2.05,2.05,0,0,0,.45.71,1.85,1.85,0,0,0,.66.45A2.07,2.07,0,0,0,272.57,344.61Z"/><path d="M280.67,336v1.83h-1.9V336Zm0,2.79v7h-1.9v-7Z"/><path d="M288.3,345.1a2.07,2.07,0,0,1-.47.41,4.37,4.37,0,0,1-.61.31,4,4,0,0,1-1.34.26,3.53,3.53,0,0,1-1.23-.21,3,3,0,0,1-1-.57,2.49,2.49,0,0,1-.68-.89,2.6,2.6,0,0,1-.25-1.16v-4.42h1.9v3.77a2.15,2.15,0,0,0,.46,1.54,1.67,1.67,0,0,0,1.25.47,1.71,1.71,0,0,0,1.19-.46,2.23,2.23,0,0,0,.67-1.28v-4h1.9v7h-1.61Z"/><path d="M298,345.84h-1.89v-4.26a2.49,2.49,0,0,0-.07-.52,1.43,1.43,0,0,0-.21-.49,1.23,1.23,0,0,0-.36-.36,1,1,0,0,0-.51-.14.78.78,0,0,0-.44.13,1.48,1.48,0,0,0-.37.34,1.87,1.87,0,0,0-.27.48,2,2,0,0,0-.14.52v4.3h-1.9v-7h1.66l.15.54a2,2,0,0,1,.94-.6,4,4,0,0,1,1.06-.18,2.09,2.09,0,0,1,1,.26,2.4,2.4,0,0,1,.82.74,2.24,2.24,0,0,1,.51-.51,2.27,2.27,0,0,1,.57-.31,2.7,2.7,0,0,1,.64-.14,5.37,5.37,0,0,1,.7,0,2.06,2.06,0,0,1,.91.21,2.3,2.3,0,0,1,.76.6,2.8,2.8,0,0,1,.53.93,3.79,3.79,0,0,1,.19,1.21v4.3h-1.9v-4.26a2.44,2.44,0,0,0-.06-.52,2,2,0,0,0-.21-.49,1,1,0,0,0-.36-.36,1,1,0,0,0-.53-.14,1.05,1.05,0,0,0-.8.36,1.61,1.61,0,0,0-.41,1Z"/><path d="M189,373l2.23-6.15h1.33l2.23,6.15H193.6l-.69-2-2.21.61-.47,1.37Zm2-2.41,1.54-.42-.7-2Z"/><path d="M200.69,368.39a1.69,1.69,0,0,1-.2.8,1.48,1.48,0,0,1-.6.59,2.31,2.31,0,0,1,.45.21,1.22,1.22,0,0,1,.34.34,1.31,1.31,0,0,1,.22.46,2.23,2.23,0,0,1,.08.6,1.74,1.74,0,0,1-.14.72,1.43,1.43,0,0,1-.36.5,1.4,1.4,0,0,1-.53.3,1.89,1.89,0,0,1-.63.1h-3.74v-6.15H199a2.18,2.18,0,0,1,.63.09,1.57,1.57,0,0,1,.53.27,1.31,1.31,0,0,1,.36.47A1.68,1.68,0,0,1,200.69,368.39Zm-1.85.85a.86.86,0,0,0,.5-.29.77.77,0,0,0,.17-.49.61.61,0,0,0-.21-.51.75.75,0,0,0-.51-.17h-2v2Zm.89,1.91a.86.86,0,0,0-.29-.66,1.38,1.38,0,0,0-.76-.31l-1.9.56v1.36h2a1,1,0,0,0,.72-.24A.93.93,0,0,0,199.73,371.15Z"/><path d="M201.55,369.93a3.65,3.65,0,0,1,.23-1.29,3.07,3.07,0,0,1,.65-1,3,3,0,0,1,1-.68,3.47,3.47,0,0,1,1.31-.24,3.22,3.22,0,0,1,2.77,1.51l-.78.61a2.21,2.21,0,0,0-2-1.18,1.67,1.67,0,0,0-.81.19,1.92,1.92,0,0,0-.64.49,2.41,2.41,0,0,0-.41.72,2.91,2.91,0,0,0-.14.89,2.66,2.66,0,0,0,.15.9,2.16,2.16,0,0,0,.44.73,2,2,0,0,0,.68.48,2.05,2.05,0,0,0,.87.18,1.79,1.79,0,0,0,.57-.09,2.16,2.16,0,0,0,.5-.26,2.67,2.67,0,0,0,.44-.39,3.27,3.27,0,0,0,.35-.48l.77.66a3.57,3.57,0,0,1-1.18,1.12,3.17,3.17,0,0,1-1.61.39,3.48,3.48,0,0,1-1.26-.23,3,3,0,0,1-1.69-1.67A3.55,3.55,0,0,1,201.55,369.93Z"/><path d="M208.31,366.86h2.74a2.41,2.41,0,0,1,1.08.24,2.54,2.54,0,0,1,.85.64,3,3,0,0,1,.54,1,3.7,3.7,0,0,1,.2,1.21,3.79,3.79,0,0,1-.2,1.24,3,3,0,0,1-.58,1,2.91,2.91,0,0,1-.93.64,3.31,3.31,0,0,1-1.25.23h-2.45Zm1.22,5.2h1.14a1.8,1.8,0,0,0,.79-.17,1.59,1.59,0,0,0,.57-.45,1.83,1.83,0,0,0,.35-.68,2.93,2.93,0,0,0,.12-.86,2.47,2.47,0,0,0-.13-.84,1.66,1.66,0,0,0-.38-.66,1.69,1.69,0,0,0-.62-.43,2.15,2.15,0,0,0-.83-.16h-1Z"/><path d="M219.06,369.39v1h-3.17v1.71h3.4V373h-4.61v-6.15h4.53v.95h-3.32v1.58Z"/><path d="M224.64,369.39v1h-3.18V373h-1.21v-6.15h4.53v.95h-3.32v1.58Z"/><path d="M225.36,369.93a3.44,3.44,0,0,1,.23-1.29,2.92,2.92,0,0,1,.65-1,2.86,2.86,0,0,1,1-.68,3.42,3.42,0,0,1,1.3-.24,3.22,3.22,0,0,1,2.77,1.51l-.78.61a2.16,2.16,0,0,0-.81-.86,2.22,2.22,0,0,0-1.16-.32,1.73,1.73,0,0,0-.81.19,2,2,0,0,0-.63.49,2,2,0,0,0-.41.72,2.64,2.64,0,0,0-.15.89,2.93,2.93,0,0,0,.14.9,2.06,2.06,0,0,0,.38.72,1.69,1.69,0,0,0,.6.49,1.79,1.79,0,0,0,.78.17,2.09,2.09,0,0,0,.72-.12,1.47,1.47,0,0,0,.57-.33,1.43,1.43,0,0,0,.38-.52,1.66,1.66,0,0,0,.16-.68h-1.86v-1h3.07v.6a3.43,3.43,0,0,1-.21,1.22,2.62,2.62,0,0,1-1.53,1.53,3.4,3.4,0,0,1-1.22.22,3.48,3.48,0,0,1-1.26-.23,3,3,0,0,1-1-.65,3,3,0,0,1-.68-1A3.56,3.56,0,0,1,225.36,369.93Z"/><path d="M236.52,373v-3.15l-2.83.79V373h-1.22v-6.15h1.22v2.85l2.83-.79v-2.06h1.22V373Z"/><path d="M240.06,366.86V373h-1.21v-6.15Z"/><path d="M241.39,371.62a1.76,1.76,0,0,0,.48.4,1.41,1.41,0,0,0,.66.17,1.22,1.22,0,0,0,.49-.1,1.17,1.17,0,0,0,.35-.28,1.33,1.33,0,0,0,.21-.43,2.11,2.11,0,0,0,.07-.52v-4h1.21v3.91a3,3,0,0,1-.15,1,2.16,2.16,0,0,1-.43.77,2.06,2.06,0,0,1-.74.5,2.52,2.52,0,0,1-1.95-.05,2.57,2.57,0,0,1-.78-.53Z"/><path d="M249.54,373l-2.35-2.8V373H246v-6.15h1.22v2.55l2.33-2.55h1.39l-2.68,2.95,2.7,3.2Z"/><path d="M251.67,366.86h1.21v5.2h3.24V373h-4.45Z"/><path d="M260.63,373h-.88l-1.65-3.89V373h-1.22v-6.15h1.22l2.09,4.92,2.1-4.92h1.21V373h-1.21v-3.89Z"/><path d="M264.65,366.86h1.21l2.84,4.45v-4.45h1.22V373H268.7l-2.83-4.42V373h-1.22Z"/><path d="M270.68,369.92a3.53,3.53,0,0,1,.25-1.32,2.9,2.9,0,0,1,.68-1,3.1,3.1,0,0,1,1-.65,3.55,3.55,0,0,1,1.28-.23,3.66,3.66,0,0,1,1.3.23,3,3,0,0,1,1,.65,3,3,0,0,1,.68,1,3.78,3.78,0,0,1,0,2.65,3.19,3.19,0,0,1-.68,1,3,3,0,0,1-1,.65,3.46,3.46,0,0,1-1.3.24,3.35,3.35,0,0,1-1.28-.24,3.1,3.1,0,0,1-1-.65,3,3,0,0,1-.68-1A3.5,3.5,0,0,1,270.68,369.92Zm1.22,0a2.5,2.5,0,0,0,.16.94,2.18,2.18,0,0,0,.44.72,1.83,1.83,0,0,0,.65.44,1.91,1.91,0,0,0,.78.16,1.94,1.94,0,0,0,.8-.16,1.88,1.88,0,0,0,.64-.44,2.18,2.18,0,0,0,.44-.72,2.73,2.73,0,0,0,.15-.94,2.65,2.65,0,0,0-.15-.92,2.13,2.13,0,0,0-.44-.71,1.88,1.88,0,0,0-.64-.44,2.06,2.06,0,0,0-1.59,0,1.83,1.83,0,0,0-.65.44,2.11,2.11,0,0,0-.43.71A2.43,2.43,0,0,0,271.9,369.92Z"/><path d="M277.91,366.86h3.24a2.48,2.48,0,0,1,.73.11,1.7,1.7,0,0,1,.59.33,1.58,1.58,0,0,1,.4.57,2.12,2.12,0,0,1,.14.8,1.92,1.92,0,0,1-.13.76,1.46,1.46,0,0,1-.37.51,2.15,2.15,0,0,1-.58.33,5.7,5.7,0,0,1-.75.21l-2.06.5v2h-1.21Zm3.89,1.81a.83.83,0,0,0-.24-.64.93.93,0,0,0-.63-.22h-1.81V370l1.68-.35a1.58,1.58,0,0,0,.75-.32A.78.78,0,0,0,281.8,368.67Z"/><path d="M283.62,369.92a3.41,3.41,0,0,1,.26-1.34,3.15,3.15,0,0,1,.7-1,3.38,3.38,0,0,1,1-.65,3.72,3.72,0,0,1,2.52,0,3,3,0,0,1,1.72,1.66,3.41,3.41,0,0,1,.26,1.34,3.58,3.58,0,0,1-.22,1.26,2.93,2.93,0,0,1-.6,1l.46.48-.72.73-.55-.59a3,3,0,0,1-.77.29,3.35,3.35,0,0,1-.85.11,3.47,3.47,0,0,1-1.25-.23,3.2,3.2,0,0,1-1-.65,3.09,3.09,0,0,1-.7-1A3.42,3.42,0,0,1,283.62,369.92Zm4,.46.9,1a2.18,2.18,0,0,0,.28-.64,3,3,0,0,0-.05-1.71,2,2,0,0,0-.43-.71,1.87,1.87,0,0,0-.64-.47,2.13,2.13,0,0,0-.81-.16,2.15,2.15,0,0,0-.8.16A2.08,2.08,0,0,0,285,369a2.52,2.52,0,0,0-.16.93,2.59,2.59,0,0,0,.16.95,2,2,0,0,0,.43.72,1.87,1.87,0,0,0,.64.47,2,2,0,0,0,.8.16,2,2,0,0,0,.9-.2l-.87-.92Z"/><path d="M291,366.86h3.25a2.36,2.36,0,0,1,.72.11,1.75,1.75,0,0,1,.6.33,1.45,1.45,0,0,1,.39.57,1.94,1.94,0,0,1,.14.8,1.51,1.51,0,0,1-1,1.58l1.35,2.76h-1.26l-1.19-2.45-1.76.42v2H291Zm3.9,1.81a.83.83,0,0,0-.24-.64,1,1,0,0,0-.63-.22h-1.81V370l1.68-.35a1.54,1.54,0,0,0,.74-.32A.79.79,0,0,0,294.86,368.67Z"/><path d="M298.09,366.86l1.43,2.13,1.44-2.13h1.27L300.17,370l2.05,3h-1.33L299.52,371,298.16,373h-1.33l2-3-2.05-3.11Z"/><path d="M305.93,367.81V373h-1.21v-5.2h-2v-.95H308v.95Z"/><path d="M311.42,373.17a3.18,3.18,0,0,1-1-.18,2.41,2.41,0,0,1-.83-.51,2.32,2.32,0,0,1-.56-.78,2.54,2.54,0,0,1-.2-1v-3.82H310v3.74a2,2,0,0,0,.09.61,1.55,1.55,0,0,0,.27.49,1.34,1.34,0,0,0,.44.34,1.52,1.52,0,0,0,1.23,0,1.34,1.34,0,0,0,.44-.34,1.37,1.37,0,0,0,.27-.49,1.74,1.74,0,0,0,.1-.61v-3.74h1.21v3.82a2.54,2.54,0,0,1-.2,1,2.47,2.47,0,0,1-.56.78,2.56,2.56,0,0,1-.84.51A3.2,3.2,0,0,1,311.42,373.17Z"/><path d="M316.07,366.86l1.69,4.81,1.69-4.81h1.2L318.42,373H317.1l-2.23-6.15Z"/><path d="M324.82,368.77l-1,4.24h-1.11l-1.68-6.15h1.16l1.07,4.08.94-4.08h1.16l.94,4.08,1.07-4.08h1.17L326.89,373h-1.11Z"/><path d="M330.31,366.86l1.43,2.13,1.44-2.13h1.27L332.39,370l2.05,3h-1.33L331.74,371,330.38,373h-1.33l2-3-2-3.11Z"/><path d="M337.07,373v-2.6l-2.18-3.55h1.32l1.46,2.38,1.47-2.38h1.31l-2.17,3.55V373Z"/><path d="M341.1,373v-.86l3.07-4.34h-2.92v-.95h4.29v.78l-3.13,4.42h3.25V373Z"/><path d="M193.4,376.87h1.06v4.55h-1l-.14-.6a2.08,2.08,0,0,1-.34.32,1.88,1.88,0,0,1-.44.24,2.06,2.06,0,0,1-.48.15,2.18,2.18,0,0,1-.5.05,2.41,2.41,0,0,1-.89-.2,2.57,2.57,0,0,1-.74-.51,2.46,2.46,0,0,1-.69-1.72,2.45,2.45,0,0,1,.2-1,2.41,2.41,0,0,1,.51-.77,2.51,2.51,0,0,1,.74-.51,2.11,2.11,0,0,1,.86-.18,2.48,2.48,0,0,1,1,.19,1.76,1.76,0,0,1,.74.53Zm-1.64,3.75a1.35,1.35,0,0,0,.53-.1,1.22,1.22,0,0,0,.42-.29,1.39,1.39,0,0,0,.29-.47,1.66,1.66,0,0,0,.1-.61,1.72,1.72,0,0,0-.1-.62,1.49,1.49,0,0,0-.29-.47,1.37,1.37,0,0,0-.42-.29,1.35,1.35,0,0,0-.53-.1,1.34,1.34,0,0,0-.52.1,1.37,1.37,0,0,0-.42.29,1.33,1.33,0,0,0-.29.47,1.72,1.72,0,0,0-.1.62,1.66,1.66,0,0,0,.1.61,1.25,1.25,0,0,0,.29.47,1.22,1.22,0,0,0,.42.29A1.34,1.34,0,0,0,191.76,380.62Z"/><path d="M196.79,377.4a2.17,2.17,0,0,1,.73-.51,2.66,2.66,0,0,1,1-.18,2.14,2.14,0,0,1,.86.18,2.51,2.51,0,0,1,.74.51,2.58,2.58,0,0,1,.51.77,2.45,2.45,0,0,1,.19,1,2.49,2.49,0,0,1-.18,1,2.45,2.45,0,0,1-1.24,1.27,2.46,2.46,0,0,1-.89.2,2.21,2.21,0,0,1-.51-.05,1.92,1.92,0,0,1-.48-.15,1.82,1.82,0,0,1-.43-.24,2.15,2.15,0,0,1-.35-.32l-.14.6h-1v-6.15h1.21Zm1.48,3.22a1.27,1.27,0,0,0,.52-.1,1.17,1.17,0,0,0,.43-.29,1.39,1.39,0,0,0,.29-.47,1.9,1.9,0,0,0,.1-.61,2,2,0,0,0-.1-.62,1.49,1.49,0,0,0-.29-.47,1.3,1.3,0,0,0-.43-.29,1.27,1.27,0,0,0-.52-.1,1.3,1.3,0,0,0-.52.1,1.42,1.42,0,0,0-.43.29,1.47,1.47,0,0,0-.28.47,1.72,1.72,0,0,0-.1.62,1.66,1.66,0,0,0,.1.61,1.37,1.37,0,0,0,.28.47,1.26,1.26,0,0,0,.43.29A1.3,1.3,0,0,0,198.27,380.62Z"/><path d="M204.07,377.58a1.4,1.4,0,0,0-1,.45,1.35,1.35,0,0,0-.3.49,1.81,1.81,0,0,0-.11.63,1.52,1.52,0,0,0,.88,1.43,1.4,1.4,0,0,0,.58.12,1.62,1.62,0,0,0,.78-.2,1.56,1.56,0,0,0,.56-.58l.74.66a2.67,2.67,0,0,1-.89.78,2.58,2.58,0,0,1-1.3.29,2.73,2.73,0,0,1-1-.18,2.45,2.45,0,0,1-.81-.52,2.34,2.34,0,0,1-.55-.79,2.56,2.56,0,0,1-.2-1,2.44,2.44,0,0,1,.2-1,2.33,2.33,0,0,1,1.34-1.32,2.84,2.84,0,0,1,1-.18,2.53,2.53,0,0,1,2.2,1.08l-.74.64a1.31,1.31,0,0,0-.57-.57A1.62,1.62,0,0,0,204.07,377.58Z"/><path d="M210.77,375.27H212v6.15h-1l-.15-.6a1.5,1.5,0,0,1-.34.32,1.64,1.64,0,0,1-.43.24,2.58,2.58,0,0,1-1,.2,2.36,2.36,0,0,1-.88-.2,2.57,2.57,0,0,1-.74-.51,2.36,2.36,0,0,1-.51-.76,2.49,2.49,0,0,1-.18-1,2.46,2.46,0,0,1,1.44-2.26,2.18,2.18,0,0,1,.86-.18,2.66,2.66,0,0,1,1,.18,2.17,2.17,0,0,1,.73.51Zm-1.48,5.35a1.27,1.27,0,0,0,.52-.1,1.17,1.17,0,0,0,.43-.29,1.23,1.23,0,0,0,.28-.47,1.66,1.66,0,0,0,.11-.61,1.71,1.71,0,0,0-.11-.62,1.22,1.22,0,0,0-.71-.76,1.27,1.27,0,0,0-.52-.1,1.31,1.31,0,0,0-.95.39,1.47,1.47,0,0,0-.28.47,1.71,1.71,0,0,0-.11.62,1.66,1.66,0,0,0,.11.61,1.37,1.37,0,0,0,.28.47,1.17,1.17,0,0,0,.43.29A1.3,1.3,0,0,0,209.29,380.62Z"/><path d="M214.06,379.92a1.27,1.27,0,0,0,.49.58,1.62,1.62,0,0,0,.83.2,2.13,2.13,0,0,0,.84-.16,1.78,1.78,0,0,0,.69-.53l.77.6a2.66,2.66,0,0,1-1,.77,2.76,2.76,0,0,1-1.22.27,3.32,3.32,0,0,1-1.06-.17,2.82,2.82,0,0,1-.86-.5,2.39,2.39,0,0,1-.57-.79,2.51,2.51,0,0,1-.22-1,2.63,2.63,0,0,1,.2-1,2.53,2.53,0,0,1,.55-.8,2.37,2.37,0,0,1,.82-.51,2.82,2.82,0,0,1,2,0,2.43,2.43,0,0,1,.78.5,2.31,2.31,0,0,1,.53.76,2.7,2.7,0,0,1,.22,1Zm1.38-2.34a1.5,1.5,0,0,0-1.08.38,1.54,1.54,0,0,0-.44,1.05l2.77-.67a1.29,1.29,0,0,0-.52-.58A1.49,1.49,0,0,0,215.44,377.58Z"/><path d="M220.6,381.42h-1.21V377.9h-.91v-1h.91v-.51a1.26,1.26,0,0,1,.09-.49,1.16,1.16,0,0,1,.25-.36,1.14,1.14,0,0,1,.38-.23,1.45,1.45,0,0,1,.47-.08h1.22v1h-.71a.5.5,0,0,0-.37.13.53.53,0,0,0-.12.37v.22h1.12v1H220.6Z"/><path d="M227.39,381.22a2.48,2.48,0,0,1-.18,1,2.15,2.15,0,0,1-.5.75,2.51,2.51,0,0,1-.77.48,3,3,0,0,1-1,.18,3.69,3.69,0,0,1-.95-.1,2.59,2.59,0,0,1-.8-.33,2,2,0,0,1-.58-.59,1.75,1.75,0,0,1-.28-.84h1.23a.87.87,0,0,0,.36.68,1.46,1.46,0,0,0,.84.23,1.63,1.63,0,0,0,.55-.09,1,1,0,0,0,.44-.26,1.19,1.19,0,0,0,.3-.45,1.76,1.76,0,0,0,.1-.64v-.55a1.82,1.82,0,0,1-.74.57,2.63,2.63,0,0,1-1,.18,2.28,2.28,0,0,1-1.63-.66,2.25,2.25,0,0,1-.5-.74,2.42,2.42,0,0,1-.18-.94,2.33,2.33,0,0,1,.19-1,2.49,2.49,0,0,1,.51-.75,2.62,2.62,0,0,1,.74-.48,2.31,2.31,0,0,1,.86-.17,2.53,2.53,0,0,1,1,.19,1.83,1.83,0,0,1,.74.53l.13-.56h1.06Zm-2.69-.75a1.31,1.31,0,0,0,.52-.11,1.23,1.23,0,0,0,.43-.28,1.33,1.33,0,0,0,.28-.44,1.47,1.47,0,0,0,.1-.56,1.5,1.5,0,0,0-.1-.58,1.33,1.33,0,0,0-.28-.44,1.26,1.26,0,0,0-.43-.29,1.3,1.3,0,0,0-.52-.1,1.35,1.35,0,0,0-.53.1,1.22,1.22,0,0,0-.42.29,1.35,1.35,0,0,0-.29.44,1.5,1.5,0,0,0-.1.58,1.47,1.47,0,0,0,.1.56,1.35,1.35,0,0,0,.29.44,1.19,1.19,0,0,0,.42.28A1.36,1.36,0,0,0,224.7,380.47Z"/><path d="M229.72,377.26a1.89,1.89,0,0,1,.67-.41,2.54,2.54,0,0,1,.8-.14,2.26,2.26,0,0,1,.79.13,2.08,2.08,0,0,1,.65.37,1.66,1.66,0,0,1,.43.58,1.71,1.71,0,0,1,.16.75v2.88H232V379a1.41,1.41,0,0,0-.29-1,1,1,0,0,0-.8-.31,1.09,1.09,0,0,0-.76.3,1.47,1.47,0,0,0-.43.83v2.63h-1.21v-6.15h1.21Z"/><path d="M235.7,375.05v1.19h-1.21v-1.19Zm0,1.82v4.55h-1.21v-4.55Z"/><path d="M237.44,376.87h1.21v3.62a2.1,2.1,0,0,1-.09.66,1.37,1.37,0,0,1-.27.44,1,1,0,0,1-.39.24,1.4,1.4,0,0,1-.47.08h-1v-1h.45a.56.56,0,0,0,.38-.13.68.68,0,0,0,.14-.49Zm1.21-1.82v1.19h-1.21v-1.19Z"/><path d="M242.8,381.42,241,379.49v1.93h-1.21v-6.15H241v3.28l1.74-1.68h1.47L242,379l2.29,2.43Z"/><path d="M246.22,375.27v6.15H245v-6.15Z"/><path d="M251.28,381.42h-1.22v-2.77a1.37,1.37,0,0,0,0-.34,1,1,0,0,0-.14-.32.72.72,0,0,0-.23-.23.55.55,0,0,0-.32-.09.47.47,0,0,0-.28.09.83.83,0,0,0-.24.22,1.31,1.31,0,0,0-.17.31,1,1,0,0,0-.09.33v2.8h-1.22v-4.55h1.06l.1.35a1.25,1.25,0,0,1,.6-.4,2.35,2.35,0,0,1,.68-.11,1.29,1.29,0,0,1,.63.17,1.51,1.51,0,0,1,.53.48,1.26,1.26,0,0,1,.32-.33,1.22,1.22,0,0,1,.37-.2,1.89,1.89,0,0,1,.41-.1l.44,0a1.22,1.22,0,0,1,.59.14,1.62,1.62,0,0,1,.49.38,1.88,1.88,0,0,1,.33.61,2.45,2.45,0,0,1,.12.78v2.8h-1.21v-2.77a1.37,1.37,0,0,0,0-.34,1.27,1.27,0,0,0-.13-.32.84.84,0,0,0-.23-.23.65.65,0,0,0-.35-.09.71.71,0,0,0-.51.23,1.09,1.09,0,0,0-.25.65Z"/><path d="M256.25,377.34a1.08,1.08,0,0,1,.3-.26,1.79,1.79,0,0,1,.39-.2,2.2,2.2,0,0,1,.86-.17,2.3,2.3,0,0,1,.79.13,2.08,2.08,0,0,1,.65.37,1.79,1.79,0,0,1,.43.58,1.87,1.87,0,0,1,.16.75v2.88h-1.22V379a1.41,1.41,0,0,0-.29-1,1,1,0,0,0-.8-.31,1.09,1.09,0,0,0-.76.3,1.47,1.47,0,0,0-.43.83v2.63h-1.21v-4.55h1Z"/><path d="M260.63,379.15a2.51,2.51,0,0,1,.21-1,2.33,2.33,0,0,1,.57-.8,2.25,2.25,0,0,1,.83-.5,2.87,2.87,0,0,1,1-.18,2.83,2.83,0,0,1,1,.18,2.25,2.25,0,0,1,.83.5,2.33,2.33,0,0,1,.57.8,2.51,2.51,0,0,1,.21,1,2.44,2.44,0,0,1-.21,1,2.39,2.39,0,0,1-.57.79,2.56,2.56,0,0,1-.83.5,3.06,3.06,0,0,1-1,.17,3.1,3.1,0,0,1-1-.17,2.56,2.56,0,0,1-.83-.5,2.39,2.39,0,0,1-.57-.79A2.44,2.44,0,0,1,260.63,379.15Zm2.62,1.56a1.31,1.31,0,0,0,.56-.12,1.12,1.12,0,0,0,.45-.32,1.35,1.35,0,0,0,.3-.49,1.81,1.81,0,0,0,.11-.63,1.91,1.91,0,0,0-.11-.64,1.39,1.39,0,0,0-.3-.5,1.21,1.21,0,0,0-.45-.31,1.37,1.37,0,0,0-1.12,0,1.45,1.45,0,0,0-.45.33,1.48,1.48,0,0,0-.29.49,1.86,1.86,0,0,0,0,1.26,1.48,1.48,0,0,0,.29.49,1.28,1.28,0,0,0,.45.32A1.31,1.31,0,0,0,263.25,380.71Z"/><path d="M267.66,376.87l.18.42a2.32,2.32,0,0,1,.76-.44,3,3,0,0,1,.95-.14,2.18,2.18,0,0,1,.86.18,2.46,2.46,0,0,1,.73.51,2.41,2.41,0,0,1,.71,1.75,2.46,2.46,0,0,1-.69,1.72,2.52,2.52,0,0,1-.73.51,2.46,2.46,0,0,1-.89.2,2.67,2.67,0,0,1-.93-.15,2.31,2.31,0,0,1-.79-.46v2.48H266.6v-6.58Zm1.64,3.75a1.27,1.27,0,0,0,.52-.1,1.17,1.17,0,0,0,.43-.29,1.37,1.37,0,0,0,.28-.47,1.66,1.66,0,0,0,.11-.61,1.71,1.71,0,0,0-.11-.62,1.47,1.47,0,0,0-.28-.47,1.3,1.3,0,0,0-.43-.29,1.27,1.27,0,0,0-.52-.1,1.31,1.31,0,0,0-.95.39,1.47,1.47,0,0,0-.28.47,1.71,1.71,0,0,0-.11.62,1.66,1.66,0,0,0,.11.61,1.37,1.37,0,0,0,.28.47,1.17,1.17,0,0,0,.43.29A1.3,1.3,0,0,0,269.3,380.62Z"/><path d="M276.62,376.87h1.06v6.58h-1.22V381a2.31,2.31,0,0,1-.79.46,2.67,2.67,0,0,1-.93.15,2.46,2.46,0,0,1-.89-.2,2.52,2.52,0,0,1-.73-.51,2.36,2.36,0,0,1-.51-.76,2.49,2.49,0,0,1-.18-1,2.46,2.46,0,0,1,1.44-2.26,2.18,2.18,0,0,1,.86-.18,3,3,0,0,1,.95.14,2.32,2.32,0,0,1,.76.44ZM275,380.62a1.3,1.3,0,0,0,.52-.1,1.17,1.17,0,0,0,.43-.29,1.37,1.37,0,0,0,.28-.47,1.66,1.66,0,0,0,.11-.61,1.71,1.71,0,0,0-.11-.62,1.47,1.47,0,0,0-.28-.47,1.31,1.31,0,0,0-.95-.39,1.27,1.27,0,0,0-.52.1,1.3,1.3,0,0,0-.43.29,1.47,1.47,0,0,0-.28.47,1.71,1.71,0,0,0-.11.62,1.66,1.66,0,0,0,.11.61,1.37,1.37,0,0,0,.28.47,1.17,1.17,0,0,0,.43.29A1.27,1.27,0,0,0,275,380.62Z"/><path d="M280,377.37a1.07,1.07,0,0,1,.44-.37,1.57,1.57,0,0,1,.67-.13h1l-.2.95h-1a.66.66,0,0,0-.33.09.92.92,0,0,0-.28.24,1.31,1.31,0,0,0-.19.35,1.34,1.34,0,0,0-.07.4v2.52h-1.21v-4.55h1.06Z"/><path d="M282.45,381.42l1.8-2.33-1.72-2.22h1.4l1,1.32,1-1.32h1.41l-1.74,2.22,1.81,2.33h-1.4L285,380l-1.11,1.42Z"/><path d="M290,376.87h1.12v.95H290V380a.58.58,0,0,0,.11.37.52.52,0,0,0,.37.13h.71v.95h-1.22a1.39,1.39,0,0,1-.46-.08,1,1,0,0,1-.38-.23,1.19,1.19,0,0,1-.26-.36,1.22,1.22,0,0,1-.09-.49v-2.44h-.91v-.95h.91v-1.6H290Z"/><path d="M295.46,380.94a1.37,1.37,0,0,1-.31.27,2.75,2.75,0,0,1-.38.2,3,3,0,0,1-.43.12,2.18,2.18,0,0,1-.43.05,2.3,2.3,0,0,1-.79-.14,2,2,0,0,1-.64-.37,1.69,1.69,0,0,1-.44-.58,1.8,1.8,0,0,1-.16-.75v-2.87h1.22v2.45a1.41,1.41,0,0,0,.29,1,1,1,0,0,0,.8.31,1.07,1.07,0,0,0,.76-.3,1.47,1.47,0,0,0,.43-.83v-2.62h1.21v4.55h-1Z"/><path d="M300.48,381.42h-1.23l-1.9-4.55h1.24l1.28,3.11,1.27-3.11h1.24Z"/><path d="M306.17,378.44l-.83,3h-1.08l-1.43-4.55H304l.82,2.91.8-2.91h1.06l.79,2.91.83-2.91h1.18l-1.43,4.55H307Z"/><path d="M310,381.42l1.81-2.33L310,376.87h1.41l1,1.32,1-1.32h1.4l-1.73,2.22,1.81,2.33h-1.41l-1.1-1.42-1.11,1.42Z"/><path d="M319.23,380.79a1.48,1.48,0,0,1-.65.48,2.29,2.29,0,0,1-.82.15,2.17,2.17,0,0,1-1.43-.54,1.9,1.9,0,0,1-.44-.61,1.93,1.93,0,0,1-.16-.77v-2.63H317v2.29a1.46,1.46,0,0,0,.29,1,1.15,1.15,0,0,0,1.56,0,1.43,1.43,0,0,0,.43-.79v-2.51h1.21v4.35a2.69,2.69,0,0,1-.16,1,2.18,2.18,0,0,1-.45.75,2.15,2.15,0,0,1-.71.47,3,3,0,0,1-.91.19,3.17,3.17,0,0,1-.88-.09,2.19,2.19,0,0,1-.74-.34,1.8,1.8,0,0,1-.54-.59,2,2,0,0,1-.25-.84H317a1,1,0,0,0,.28.68,1.21,1.21,0,0,0,1.59-.15,1.56,1.56,0,0,0,.33-1.06h0Z"/><path d="M321.41,381.42v-.8l2.67-2.81h-2.51v-.95h4v.79l-2.69,2.82h2.85v.95Z"/><path d="M189,384.89h2.29V391h-1.21v-5.19H189Z"/><path d="M192.49,391v-.72l2-1.76.48-.46a4,4,0,0,0,.38-.46,2.53,2.53,0,0,0,.25-.45,1.2,1.2,0,0,0,.09-.45,1,1,0,0,0-.27-.76,1,1,0,0,0-.75-.28,1.17,1.17,0,0,0-.82.35,2.21,2.21,0,0,0-.57.89l-.94-.52a3.12,3.12,0,0,1,.35-.68,2.18,2.18,0,0,1,.52-.53,2.22,2.22,0,0,1,.69-.34,3,3,0,0,1,.88-.12,2.74,2.74,0,0,1,.81.12,1.8,1.8,0,0,1,.68.37,1.6,1.6,0,0,1,.46.62,2.06,2.06,0,0,1,.15.89,1.46,1.46,0,0,1-.12.57,3.22,3.22,0,0,1-.29.59,6.12,6.12,0,0,1-1,1.15l-1.17,1h2.82V391Z"/><path d="M197.78,386.16a2,2,0,0,1,.83-1.05,2.82,2.82,0,0,1,.64-.28,3.21,3.21,0,0,1,1.66,0,2.24,2.24,0,0,1,.72.38,1.68,1.68,0,0,1,.47.56,1.62,1.62,0,0,1,0,1.54,1.25,1.25,0,0,1-.66.53,1.65,1.65,0,0,1,.74.51,1.32,1.32,0,0,1,.31.91,1.73,1.73,0,0,1-.18.79,1.69,1.69,0,0,1-.51.59,2.36,2.36,0,0,1-.78.38,3.44,3.44,0,0,1-1,.13,3.57,3.57,0,0,1-.74-.08,2.74,2.74,0,0,1-.66-.25,2.33,2.33,0,0,1-.55-.43,2.24,2.24,0,0,1-.38-.62l1-.5a1.18,1.18,0,0,0,.5.68,2.12,2.12,0,0,0,.37.18,1.41,1.41,0,0,0,.41.07,1.6,1.6,0,0,0,.91-.24.76.76,0,0,0,.36-.69.78.78,0,0,0-.1-.43.75.75,0,0,0-.28-.28,1.25,1.25,0,0,0-.41-.15,2.44,2.44,0,0,0-.48-.05h-.59v-.95H200a1.84,1.84,0,0,0,.41-.05.88.88,0,0,0,.36-.14A.72.72,0,0,0,201,387a.83.83,0,0,0,.09-.41.77.77,0,0,0-.32-.67,1.32,1.32,0,0,0-.81-.24,1,1,0,0,0-.7.27,1.52,1.52,0,0,0-.46.67Z"/><path d="M203.09,389.83v-.95l2.81-4h1.21v4H208v.95h-.86V391H205.9v-1.2Zm2.81-3.41-1.64,2.46h1.64Z"/><path d="M210.92,391.19a3.09,3.09,0,0,1-.83-.11,2.61,2.61,0,0,1-.7-.31,2.06,2.06,0,0,1-.52-.5,1.8,1.8,0,0,1-.3-.64l1-.41a2,2,0,0,0,.22.41,1.47,1.47,0,0,0,.29.32,1.28,1.28,0,0,0,.38.21,1.42,1.42,0,0,0,.48.08,1.28,1.28,0,0,0,.5-.09,1.14,1.14,0,0,0,.38-.25,1,1,0,0,0,.23-.38,1.33,1.33,0,0,0,.08-.45,1.17,1.17,0,0,0-.32-.86,1.3,1.3,0,0,0-1-.33,1.13,1.13,0,0,0-.5.13,1.18,1.18,0,0,0-.46.37h-1.1v-3.49H213v.95h-3v1.42a2,2,0,0,1,1.18-.34,2.34,2.34,0,0,1,.83.15,2,2,0,0,1,.68.42,2.16,2.16,0,0,1,.48.67,2.29,2.29,0,0,1,.17.9,1.89,1.89,0,0,1-.17.8,2.11,2.11,0,0,1-.48.68,2.17,2.17,0,0,1-.76.47A2.66,2.66,0,0,1,210.92,391.19Z"/><path d="M217.4,384.89,216.23,387a2.59,2.59,0,0,1,.65-.07,2,2,0,0,1,.77.15,2.32,2.32,0,0,1,.64.43,2.13,2.13,0,0,1,.44.65,2.08,2.08,0,0,1,.16.8,2.09,2.09,0,0,1-.7,1.61,2.47,2.47,0,0,1-.78.44,3,3,0,0,1-1,.15,2.55,2.55,0,0,1-.86-.15,2.19,2.19,0,0,1-.73-.41,2,2,0,0,1-.52-.65,1.86,1.86,0,0,1-.19-.85,2,2,0,0,1,.13-.74,4.93,4.93,0,0,1,.3-.67l1.57-2.83Zm-.91,3a1.33,1.33,0,0,0-.51.09,1.14,1.14,0,0,0-.38.25,1,1,0,0,0-.22.37,1.33,1.33,0,0,0-.07.45,1.08,1.08,0,0,0,.08.44,1,1,0,0,0,.23.38,1.1,1.1,0,0,0,.37.25,1.43,1.43,0,0,0,1,0,1.1,1.1,0,0,0,.37-.25,1,1,0,0,0,.23-.38,1.08,1.08,0,0,0,.08-.44,1.33,1.33,0,0,0-.07-.45,1,1,0,0,0-.22-.37A1.21,1.21,0,0,0,217,388,1.38,1.38,0,0,0,216.49,387.92Z"/><path d="M221,391h-1.29l2.48-5.19h-3v-.95h4.46v.61Z"/><path d="M226.43,391.19a3.22,3.22,0,0,1-.88-.12,2.59,2.59,0,0,1-.75-.35,1.84,1.84,0,0,1-.52-.56,1.37,1.37,0,0,1-.19-.73,1.66,1.66,0,0,1,.1-.61,1.52,1.52,0,0,1,.63-.77,1.69,1.69,0,0,1,.41-.19,1.41,1.41,0,0,1-.37-.18,1.18,1.18,0,0,1-.3-.29,1.67,1.67,0,0,1-.22-.42,1.77,1.77,0,0,1-.07-.54,1.35,1.35,0,0,1,.17-.68,1.58,1.58,0,0,1,.46-.54,2.24,2.24,0,0,1,.69-.35,2.78,2.78,0,0,1,1.68,0,2.19,2.19,0,0,1,.7.35,1.7,1.7,0,0,1,.46.54,1.46,1.46,0,0,1,.17.68,1.75,1.75,0,0,1-.08.54,1.38,1.38,0,0,1-.21.42,1.44,1.44,0,0,1-.67.47,1.69,1.69,0,0,1,.41.19,1.4,1.4,0,0,1,.37.32,1.61,1.61,0,0,1,.26.45,1.9,1.9,0,0,1,.1.61,1.38,1.38,0,0,1-.2.73,1.81,1.81,0,0,1-.51.56,2.59,2.59,0,0,1-.75.35A3.24,3.24,0,0,1,226.43,391.19Zm0-.88a1.63,1.63,0,0,0,.45-.06,1.31,1.31,0,0,0,.35-.19.89.89,0,0,0,.24-.3.84.84,0,0,0,.09-.4.87.87,0,0,0-.09-.4.89.89,0,0,0-.24-.3.92.92,0,0,0-.35-.19,1.33,1.33,0,0,0-.45-.07,1.27,1.27,0,0,0-.44.07.92.92,0,0,0-.35.19.89.89,0,0,0-.24.3.87.87,0,0,0-.09.4.84.84,0,0,0,.09.4.89.89,0,0,0,.24.3,1.31,1.31,0,0,0,.35.19A1.56,1.56,0,0,0,226.43,390.31Zm0-2.89a1.18,1.18,0,0,0,.43-.07.87.87,0,0,0,.32-.2.8.8,0,0,0,.2-.28.85.85,0,0,0,.08-.35.87.87,0,0,0-.28-.67,1.09,1.09,0,0,0-.75-.25,1.13,1.13,0,0,0-.75.25.86.86,0,0,0-.27.67.84.84,0,0,0,.07.35.8.8,0,0,0,.2.28.91.91,0,0,0,.33.2A1.09,1.09,0,0,0,226.43,387.42Z"/><path d="M230.84,391l1.17-2.14a2.59,2.59,0,0,1-.65.07,2,2,0,0,1-.77-.15,2.32,2.32,0,0,1-.64-.43,2.26,2.26,0,0,1-.44-.65,2.08,2.08,0,0,1-.16-.8,2.26,2.26,0,0,1,.19-.92,1.91,1.91,0,0,1,.52-.69,2.16,2.16,0,0,1,.77-.44,3.08,3.08,0,0,1,1-.15,2.51,2.51,0,0,1,.86.15,2.4,2.4,0,0,1,.73.42,2,2,0,0,1,.52.64,1.86,1.86,0,0,1,.19.85,2,2,0,0,1-.13.74,5.54,5.54,0,0,1-.3.67L232.1,391Zm.91-3a1.38,1.38,0,0,0,.52-.09,1.21,1.21,0,0,0,.37-.25,1.07,1.07,0,0,0,.22-.37,1.41,1.41,0,0,0,.07-.45,1.12,1.12,0,0,0-.08-.45,1.06,1.06,0,0,0-.6-.62,1.3,1.3,0,0,0-1,0,1.06,1.06,0,0,0-.6.62,1.12,1.12,0,0,0-.08.45,1.41,1.41,0,0,0,.07.45,1.07,1.07,0,0,0,.22.37,1.14,1.14,0,0,0,.38.25A1.33,1.33,0,0,0,231.75,388Z"/><path d="M191.84,363.93v-5.35h-2.55v-.95h3.76v6.3Zm3.38-4h.67v.95h-.67V364H194v-6.52h1.2Z"/><path d="M197.72,357.63V363h2.78v1h-4v-6.3Zm4.72,2.29h.67v.95h-.67V364h-1.2v-6.52h1.2Z"/><path d="M207.72,357.63v.95h-2.78V363h2.86v1h-4.06v-6.3Zm1.95,2.29h.67v.95h-.67V364h-1.21v-6.52h1.21Z"/><path d="M211,358.58v-.95h3.76v3.65h-2.56V363h2.71v1H211v-3.6h2.55v-1.75Zm5.93,1.34h.67v.95h-.67V364h-1.21v-6.52h1.21Z"/><path d="M221.94,357.63v6.3h-3.76v-6.3ZM219.39,363h1.34v-4.39h-1.34Zm4.72-3.05h.67v.95h-.67V364h-1.2v-6.52h1.2Z"/><path d="M226.61,359.82H228v-2.19h1.21v6.3H225.4v-6.3h1.21Zm1.34.95h-1.34V363H228Zm3.38-.85H232v.95h-.67V364h-1.2v-6.52h1.2Z"/><path d="M235.22,360.4a4.89,4.89,0,0,1-.11,1.1L237,363l-.59.9-1.7-1.34a3.07,3.07,0,0,1-.74.79,4.26,4.26,0,0,1-1.13.56l-.54-.91a4.2,4.2,0,0,0,.79-.36,1.88,1.88,0,0,0,.54-.51,2,2,0,0,0,.3-.71,4.75,4.75,0,0,0,.1-1v-2.85h1.2Zm3.34-.48h.67v.95h-.67V364h-1.21v-6.52h1.21Z"/><path d="M243.84,360.78a5.48,5.48,0,0,1-.18,1.51,2.86,2.86,0,0,1-.48,1,1.84,1.84,0,0,1-.68.55,1.79,1.79,0,0,1-.77.17,1.76,1.76,0,0,1-.77-.17,1.84,1.84,0,0,1-.68-.55,2.86,2.86,0,0,1-.48-1,5.48,5.48,0,0,1-.18-1.51,5.35,5.35,0,0,1,.18-1.5,3,3,0,0,1,.48-1,1.84,1.84,0,0,1,.68-.55,1.77,1.77,0,0,1,.77-.18,1.8,1.8,0,0,1,.77.18,1.84,1.84,0,0,1,.68.55,3,3,0,0,1,.48,1A5.35,5.35,0,0,1,243.84,360.78Zm-3,0a6.76,6.76,0,0,0,.07,1.1,2.79,2.79,0,0,0,.21.7,1.06,1.06,0,0,0,.29.37.61.61,0,0,0,.34.1.6.6,0,0,0,.33-.1.87.87,0,0,0,.29-.37,3.11,3.11,0,0,0,.21-.7,7.67,7.67,0,0,0,0-2.21,3.48,3.48,0,0,0-.21-.7.84.84,0,0,0-.29-.36.6.6,0,0,0-.33-.1.61.61,0,0,0-.34.1,1,1,0,0,0-.29.37,2.79,2.79,0,0,0-.21.7A6.76,6.76,0,0,0,240.82,360.78Zm5-.86h.67v.95h-.67V364h-1.21v-6.52h1.21Z"/><path d="M251.24,357.63v.95h-1.57v1.82a4.88,4.88,0,0,1-.12,1.1l1.89,1.47-.6.9-1.69-1.34a3.3,3.3,0,0,1-.75.79,4.11,4.11,0,0,1-1.13.56l-.53-.91a4.52,4.52,0,0,0,.79-.36,1.85,1.85,0,0,0,.53-.51,2.19,2.19,0,0,0,.31-.71,4.81,4.81,0,0,0,.09-1v-1.81H247v-.95Zm1.76,2.29h.67v.95H253V364h-1.2v-6.52H253Z"/><path d="M255.69,358v-.72h1.2V358h1.57v1h-1.57v1.43a5.54,5.54,0,0,1-.11,1.1l1.88,1.47-.59.9-1.7-1.34a3.11,3.11,0,0,1-.75.79,4,4,0,0,1-1.13.56L254,363a4.52,4.52,0,0,0,.79-.36,1.88,1.88,0,0,0,.54-.51,2.17,2.17,0,0,0,.3-.71,4.75,4.75,0,0,0,.1-1V359h-1.5v-1Zm4.54,1.9h.66v.95h-.66V364H259v-6.52h1.21Z"/><path d="M264.07,360.48v-1.9h-2.55v-.95h3.75v6.3h-1.2v-2.49h-2.55v-1Zm3.38-.56h.67v.95h-.67V364h-1.21v-6.52h1.21Z"/><path d="M272.73,357.63v.95H270v1.75h2.78v.95H270V363h2.85v1h-4.06v-6.3Zm1.94,2.29h.67v.95h-.67V364h-1.21v-6.52h1.21Z"/><path d="M280.1,363.93h-4.44v-1h.57v-4.39h-.57v-.95h4.44v.95h-.57V363h.57Zm-2.66-1h.88v-4.39h-.88Zm4.45-3.05h.67v.95h-.67V364h-1.2v-6.52h1.2Z"/><path d="M285.71,358.1h1.56v.95h-4.34v-.95h1.57v-.8h1.21Zm1.38,3.68a3,3,0,0,1-.16,1,2,2,0,0,1-.44.69,1.59,1.59,0,0,1-.63.39,2.5,2.5,0,0,1-1.53,0,1.63,1.63,0,0,1-.62-.39,2,2,0,0,1-.43-.69,3.33,3.33,0,0,1,0-2,2,2,0,0,1,.43-.69,1.63,1.63,0,0,1,.62-.39,2.32,2.32,0,0,1,1.53,0,1.59,1.59,0,0,1,.63.39,2,2,0,0,1,.44.69A3,3,0,0,1,287.09,361.78Zm-2.77,0a1.88,1.88,0,0,0,.2.94.67.67,0,0,0,1.15,0,2.23,2.23,0,0,0,0-1.89.66.66,0,0,0-.57-.32.65.65,0,0,0-.58.33A1.85,1.85,0,0,0,284.32,361.78Zm4.8-1.86h.67v.95h-.67V364h-1.21v-6.52h1.21Z"/><rect class="cls-2" x="344.24" y="223.63" width="78.1" height="78.1"/><path class="cls-3" d="M422.84,302.22h-79.1V223.13h79.1Zm-78.1-1h77.1V224.13h-77.1Z"/><path d="M355.47,279.56l12.43-34h4.46l12.44,34h-4.46L377,270H363.3l-3.42,9.57Zm20.18-13.28-5.4-15.21H370l-5.4,15.21Z"/><path d="M397.24,264.82c1.62-.11,5.75-.33,6.9-.37v-2.07c0-3.24-1.93-5.11-5.78-5.11-3.23,0-5.16,1.5-5.72,3.42h-4.23c.52-4.08,4.51-6.94,10.14-6.94,3.33,0,9.58,1,9.58,9v16.8h-4v-3.47H404c-.85,1.73-3.19,4.08-7.6,4.08-4.84,0-8.69-2.86-8.69-7.84C387.66,266.47,392.83,265.15,397.24,264.82Zm-.19,11.74c4.55,0,7.09-3.05,7.09-6.25v-2.58c-1.2.1-5.21.4-6.43.47-3.66.24-6,1.55-6,4.32S394,276.56,397.05,276.56Z"/><path d="M432.44,237.54h2.88a2.71,2.71,0,1,1,0,5.4h-1.84V246h-1.05Zm2.84,4.46a1.65,1.65,0,0,0,1.89-1.77c0-1-.54-1.75-1.9-1.75h-1.78V242Z"/><path d="M439.57,239.66h1v1h.07a1.73,1.73,0,0,1,1.64-1.08l.53,0v1a2.33,2.33,0,0,0-.61-.07,1.5,1.5,0,0,0-1.59,1.49v4h-1Z"/><path d="M443.26,242.89c0-1.95,1.15-3.31,2.88-3.31,1.34,0,2.74.82,2.74,3.17v.43h-4.61a1.91,1.91,0,0,0,2,2.08,1.61,1.61,0,0,0,1.47-.72h1.08a2.48,2.48,0,0,1-2.55,1.61C444.4,246.15,443.26,244.85,443.26,242.89Zm4.61-.57a1.71,1.71,0,0,0-1.73-1.85,1.87,1.87,0,0,0-1.86,1.85Z"/><path d="M453,240.5h-1.33v3.7c0,.82.4.94.83.94l.6,0v.94a5.55,5.55,0,0,1-.71.05,1.64,1.64,0,0,1-1.74-1.66V240.5h-1v-.84h1v-1.52h1v1.52H453Z"/><path d="M453.92,242.89c0-1.95,1.15-3.31,2.88-3.31,1.34,0,2.74.82,2.74,3.17v.43h-4.61a1.91,1.91,0,0,0,2,2.08,1.61,1.61,0,0,0,1.47-.72h1.08a2.48,2.48,0,0,1-2.55,1.61C455.06,246.15,453.92,244.85,453.92,242.89Zm4.61-.57a1.71,1.71,0,0,0-1.73-1.85,1.87,1.87,0,0,0-1.86,1.85Z"/><path d="M461.87,246h-1v-6.36h1v1h.08a1.88,1.88,0,0,1,1.86-1.08c1.29,0,2.15.78,2.15,2.4v4h-1v-4a1.39,1.39,0,0,0-1.44-1.57,1.56,1.56,0,0,0-1.61,1.72Z"/><path d="M467.25,242.86c0-2,1.13-3.28,2.72-3.28a1.93,1.93,0,0,1,1.84,1.09h.07v-3.13h1V246h-1v-1h-.1a2,2,0,0,1-1.85,1.1C468.38,246.15,467.25,244.88,467.25,242.86Zm4.66,0c0-1.41-.63-2.36-1.81-2.36s-1.83,1-1.83,2.36.62,2.41,1.83,2.41S471.91,244.27,471.91,242.84Z"/><path d="M476.74,242.34l1.72-.09v-.52c0-.8-.48-1.27-1.44-1.27a1.34,1.34,0,0,0-1.43.85h-1c.13-1,1.12-1.73,2.53-1.73a2.11,2.11,0,0,1,2.39,2.25V246h-1v-.86h0a2,2,0,0,1-1.9,1,2,2,0,0,1-2.17-2C474.35,242.75,475.64,242.43,476.74,242.34Zm-.05,2.93a1.61,1.61,0,0,0,1.77-1.56v-.64l-1.6.12c-.92.06-1.5.38-1.5,1.08S475.92,245.27,476.69,245.27Z"/><path d="M481.08,239.66h1v1h.07a1.72,1.72,0,0,1,1.64-1.08l.52,0v1a2.33,2.33,0,0,0-.61-.07,1.5,1.5,0,0,0-1.59,1.49v4h-1Z"/><path d="M484.77,242.86c0-2,1.13-3.28,2.72-3.28a1.93,1.93,0,0,1,1.84,1.09h.07v-3.13h1V246h-1v-1h-.11a2,2,0,0,1-1.85,1.1C485.9,246.15,484.77,244.88,484.77,242.86Zm4.67,0c0-1.41-.64-2.36-1.82-2.36s-1.83,1-1.83,2.36.62,2.41,1.83,2.41S489.44,244.27,489.44,242.84Z"/><path d="M495.32,237.54h2.88c2,0,2.9,1.1,2.9,2.61a2.33,2.33,0,0,1-1.58,2.38l1.91,3.49H500.2l-1.77-3.3h-2.05V246h-1.06Zm2.85,4.23c1.35,0,1.88-.61,1.88-1.62s-.53-1.67-1.89-1.67h-1.78v3.29Z"/><path d="M502.13,242.89c0-1.95,1.15-3.31,2.88-3.31,1.34,0,2.75.82,2.75,3.17v.43h-4.62a1.91,1.91,0,0,0,2,2.08,1.61,1.61,0,0,0,1.47-.72h1.08a2.48,2.48,0,0,1-2.55,1.61C503.27,246.15,502.13,244.85,502.13,242.89Zm4.61-.57a1.71,1.71,0,0,0-1.73-1.85,1.87,1.87,0,0,0-1.86,1.85Z"/><path d="M509,246.69H510c.14.65.73,1,1.64,1,1.09,0,1.75-.46,1.75-1.52v-1.29h-.08a1.93,1.93,0,0,1-1.85,1.08c-1.55,0-2.71-1.17-2.71-3.18s1.13-3.17,2.72-3.17a2,2,0,0,1,1.87,1.09h.08v-1h1v6.54c0,1.64-1.22,2.34-2.76,2.34S509.08,247.88,509,246.69Zm4.48-3.9c0-1.36-.64-2.31-1.82-2.31s-1.83,1-1.83,2.31.62,2.24,1.83,2.24S513.44,244.2,513.44,242.79Z"/><path d="M520.06,239.66h1V246h-1V245H520a2,2,0,0,1-1.89,1.16c-1.21,0-2.06-.79-2.06-2.41v-4h1v4a1.37,1.37,0,0,0,1.39,1.5,1.65,1.65,0,0,0,1.63-1.72Z"/><path d="M523.69,246h-1v-8.48h1Z"/><path d="M527.38,242.34l1.72-.09v-.52c0-.8-.48-1.27-1.44-1.27a1.34,1.34,0,0,0-1.43.85h-1.05c.13-1,1.12-1.73,2.53-1.73a2.11,2.11,0,0,1,2.39,2.25V246h-1v-.86h0a2,2,0,0,1-1.9,1,2,2,0,0,1-2.17-2C525,242.75,526.28,242.43,527.38,242.34Zm0,2.93a1.61,1.61,0,0,0,1.77-1.56v-.64l-1.6.12c-.92.06-1.5.38-1.5,1.08S526.56,245.27,527.33,245.27Z"/><path d="M531.72,239.66h1v1h.07a1.72,1.72,0,0,1,1.64-1.08l.52,0v1a2.3,2.3,0,0,0-.6-.07,1.5,1.5,0,0,0-1.6,1.49v4h-1Z"/><path d="M431.63,273.66l2-5.53h.71l2,5.53h-.71l-.54-1.56h-2.18l-.55,1.56Zm3.23-2.16L434,269H434l-.86,2.47Z"/><path d="M437.06,268.13H439c1.15,0,1.68.65,1.68,1.47a1.1,1.1,0,0,1-.89,1.16v.05a1.29,1.29,0,0,1,1.11,1.38c0,.84-.54,1.47-1.83,1.47h-2Zm2.93,1.48c0-.48-.31-.86-1-.86h-1.23v1.8h1.21A1,1,0,0,0,440,269.61Zm.21,2.58a1.05,1.05,0,0,0-1.14-1h-1.33v1.9H439C439.87,273.05,440.2,272.67,440.2,272.19Z"/><path d="M444,268.7c-1,0-1.75.77-1.75,2.2s.76,2.19,1.75,2.19a1.47,1.47,0,0,0,1.51-1.16h.68a2.13,2.13,0,0,1-2.19,1.8c-1.4,0-2.4-1.09-2.4-2.83s1-2.84,2.4-2.84a2.13,2.13,0,0,1,2.19,1.81h-.68A1.47,1.47,0,0,0,444,268.7Z"/><path d="M447.14,273.66v-5.53h1.76c1.58,0,2.52,1,2.52,2.76a2.46,2.46,0,0,1-2.59,2.77Zm1.65-.61c1.33,0,2-.82,2-2.16s-.64-2.14-1.9-2.14h-1v4.3Z"/><path d="M452.41,268.13h3.3v.62h-2.62v1.84h2.44v.6h-2.44v1.86h2.65v.61h-3.33Z"/><path d="M456.77,268.13H460v.62h-2.59v1.84h2.35v.6h-2.35v2.47h-.68Z"/><path d="M463.22,268.7c-1,0-1.73.77-1.73,2.2s.77,2.19,1.77,2.19a1.5,1.5,0,0,0,1.56-1.6h-1.41v-.6h2.07v.59a2.12,2.12,0,0,1-2.22,2.25c-1.45,0-2.42-1.09-2.42-2.83s1-2.84,2.38-2.84a2.2,2.2,0,0,1,2.24,1.8h-.7A1.56,1.56,0,0,0,463.22,268.7Z"/><path d="M466.5,268.13h.67v2.46h2.88v-2.46h.68v5.53h-.68v-2.47h-2.88v2.47h-.67Z"/><path d="M472.6,273.66h-.68v-5.53h.68Z"/><path d="M476.56,268.13v3.95a1.48,1.48,0,0,1-1.56,1.65,1.4,1.4,0,0,1-1.56-1.38h.67a.8.8,0,0,0,.89.77c.56,0,.88-.35.88-1v-3.95Z"/><path d="M477.76,268.13h.67v2.74h.07l2.42-2.74h.88l-2.27,2.5,2.27,3H481l-1.87-2.56-.68.78v1.78h-.67Z"/><path d="M482.53,268.13h.68v4.92h2.52v.61h-3.2Z"/><path d="M487.44,268.13l1.83,4.55h.07l1.83-4.55H492v5.53h-.64v-4.17h0l-1.69,4.17H489l-1.69-4.17h-.05v4.17h-.63v-5.53Z"/><path d="M497.49,273.66h-.64l-2.94-4.3h-.06v4.3h-.67v-5.53h.65l2.94,4.32h.06v-4.32h.66Z"/><path d="M500.89,273.73c-1.4,0-2.41-1.09-2.41-2.83s1-2.84,2.41-2.84,2.4,1.09,2.4,2.84S502.27,273.73,500.89,273.73Zm0-5c-1,0-1.75.77-1.75,2.2s.76,2.19,1.75,2.19,1.74-.77,1.74-2.19S501.87,268.7,500.89,268.7Z"/><path d="M504.28,268.13h1.84a1.76,1.76,0,1,1,0,3.52H505v2h-.67ZM506.1,271a1.15,1.15,0,1,0,0-2.29H505V271Z"/><path d="M512.59,273.22l.71,1h-.74l-.47-.65a2.26,2.26,0,0,1-1,.2c-1.39,0-2.4-1.09-2.4-2.83s1-2.84,2.4-2.84,2.41,1.09,2.41,2.84A3,3,0,0,1,512.59,273.22Zm-1-1.29.58.76a2.31,2.31,0,0,0,.66-1.79c0-1.43-.76-2.2-1.75-2.2s-1.75.77-1.75,2.2.77,2.19,1.75,2.19a1.57,1.57,0,0,0,.58-.1l-.8-1.06Z"/><path d="M514.5,268.13h1.85a1.63,1.63,0,0,1,1.86,1.71,1.51,1.51,0,0,1-1,1.54l1.23,2.28h-.79l-1.14-2.15h-1.31v2.15h-.68Zm1.83,2.76c.86,0,1.21-.4,1.21-1.05s-.35-1.09-1.22-1.09h-1.14v2.14Z"/><path d="M520.91,270.42h0l1.39-2.29h.79l-1.7,2.77,1.7,2.76h-.79L521,271.42h0l-1.39,2.24h-.8l1.75-2.76-1.75-2.77h.8Z"/><path d="M523.58,268.13h4.1v.62H526v4.91h-.69v-4.91h-1.71Z"/><path d="M532.82,268.13v3.66a2.13,2.13,0,0,1-4.24,0v-3.66h.68v3.61a1.44,1.44,0,0,0,2.88,0v-3.61Z"/><path d="M535.86,272.77h.06l1.61-4.64h.71l-2,5.53h-.71l-2-5.53h.71Z"/><path d="M538.49,268.13h.69l1.13,4.48h.05l1.15-4.48h.76l1.16,4.48h0l1.13-4.48h.69l-1.49,5.53h-.7l-1.18-4.37h0l-1.19,4.37H540Z"/><path d="M547.73,270.42h0l1.39-2.29H550l-1.7,2.77,1.7,2.76h-.79l-1.39-2.24h0l-1.39,2.24h-.79l1.75-2.76-1.75-2.77h.8Z"/><path d="M551,268.13l1.49,2.57h.07l1.49-2.57h.78l-2,3.26v2.27h-.69v-2.27l-2-3.26Z"/><path d="M555.4,273.16l2.92-4.41h-3v-.62h3.76v.5l-2.92,4.42h2.95v.61H555.4Z"/><path d="M433.35,279.67l1.11-.06v-.33c0-.53-.31-.84-.93-.84a.86.86,0,0,0-.91.56h-.68a1.46,1.46,0,0,1,1.62-1.13,1.36,1.36,0,0,1,1.53,1.47v2.73h-.63v-.57h0a1.41,1.41,0,0,1-2.6-.61C431.82,279.94,432.65,279.73,433.35,279.67Zm0,1.91a1,1,0,0,0,1.14-1v-.42l-1,.07c-.59,0-1,.25-1,.7S432.83,281.58,433.32,281.58Z"/><path d="M436.21,276.54h.65v2h.05a1.23,1.23,0,0,1,1.18-.71c1,0,1.74.83,1.74,2.14s-.72,2.14-1.74,2.14a1.26,1.26,0,0,1-1.18-.71h-.08v.63h-.62Zm1.79,5c.77,0,1.18-.68,1.18-1.57s-.39-1.53-1.18-1.53-1.16.62-1.16,1.53S437.25,281.56,438,281.56Z"/><path d="M440.47,280a1.92,1.92,0,0,1,1.85-2.15,1.52,1.52,0,0,1,1.62,1.31h-.65a.92.92,0,0,0-1-.73c-.72,0-1.21.61-1.21,1.54s.47,1.57,1.21,1.57a.92.92,0,0,0,1-.71h.65a1.52,1.52,0,0,1-1.61,1.3A1.9,1.9,0,0,1,440.47,280Z"/><path d="M444.54,280c0-1.31.72-2.14,1.74-2.14a1.23,1.23,0,0,1,1.18.71h0v-2h.66v5.53h-.63v-.63h-.07a1.28,1.28,0,0,1-1.19.71C445.26,282.15,444.54,281.32,444.54,280Zm3,0c0-.91-.41-1.53-1.17-1.53s-1.17.67-1.17,1.53.4,1.57,1.17,1.57S447.53,280.92,447.53,280Z"/><path d="M449.08,280a1.92,1.92,0,0,1,1.85-2.16c.85,0,1.75.54,1.75,2.07v.27h-2.95a1.23,1.23,0,0,0,1.26,1.36,1,1,0,0,0,.94-.47h.69a1.59,1.59,0,0,1-1.63,1A1.89,1.89,0,0,1,449.08,280Zm2.95-.37a1.11,1.11,0,0,0-1.1-1.21,1.22,1.22,0,0,0-1.2,1.21Z"/><path d="M455.35,278.47h-.9v3.6h-.66v-3.6h-.65v-.54h.65v-.57a1,1,0,0,1,1.17-1.07,3.73,3.73,0,0,1,.48,0v.59l-.34,0c-.45,0-.65.19-.65.62v.42h.9Z"/><path d="M455.87,282.5h.67c.09.42.48.64,1,.64s1.13-.31,1.13-1v-.83h-.05a1.26,1.26,0,0,1-1.19.7c-1,0-1.73-.77-1.73-2.07s.72-2.07,1.74-2.07a1.28,1.28,0,0,1,1.19.71h.05v-.65h.64v4.25c0,1.07-.79,1.53-1.78,1.53S455.94,283.27,455.87,282.5Zm2.86-2.54c0-.88-.4-1.5-1.16-1.5s-1.17.67-1.17,1.5.4,1.46,1.17,1.46S458.73,280.88,458.73,280Z"/><path d="M461,282.07h-.65v-5.53H461v2h0a1.19,1.19,0,0,1,1.2-.7c.83,0,1.39.51,1.39,1.57v2.63H463v-2.59a.89.89,0,0,0-.93-1,1,1,0,0,0-1.06,1.12Z"/><path d="M464.59,276.8a.44.44,0,0,1,.45-.43.44.44,0,1,1,0,.87A.44.44,0,0,1,464.59,276.8Zm.12,1.13h.65v4.14h-.65Z"/><path d="M467,277.93v4.44a1.1,1.1,0,0,1-1.18,1.25h-.14V283h.13c.37,0,.55-.23.55-.64v-4.44Zm-.78-1.13a.46.46,0,1,1,.45.44A.44.44,0,0,1,466.25,276.8Z"/><path d="M468.06,276.54h.65v3.22h.07l1.76-1.83h.8l-1.72,1.77,1.85,2.37h-.82l-1.51-1.95-.43.4v1.55h-.65Z"/><path d="M472.68,282.07H472v-5.53h.65Z"/><path d="M473.7,277.93h.63v.64h.05a1.2,1.2,0,0,1,2.18,0h.05a1.3,1.3,0,0,1,1.22-.7c.73,0,1.25.45,1.25,1.43v2.77h-.65v-2.76a.76.76,0,0,0-.82-.85.86.86,0,0,0-.9.92v2.69h-.65v-2.83a.75.75,0,0,0-.8-.78,1,1,0,0,0-.91,1v2.59h-.65Z"/><path d="M480.76,282.07h-.65v-4.14h.62v.64h.06a1.2,1.2,0,0,1,1.19-.7c.83,0,1.37.51,1.37,1.57v2.63h-.64v-2.59a.9.9,0,0,0-.92-1,1,1,0,0,0-1,1.12Z"/><path d="M484.19,280a1.88,1.88,0,1,1,3.71,0,1.87,1.87,0,1,1-3.71,0Zm3.07,0c0-.83-.39-1.57-1.21-1.57s-1.21.74-1.21,1.57.38,1.55,1.21,1.55S487.26,280.84,487.26,280Z"/><path d="M488.75,277.93h.62v.65h.08a1.23,1.23,0,0,1,1.17-.71c1,0,1.74.83,1.74,2.14s-.71,2.14-1.73,2.14a1.25,1.25,0,0,1-1.18-.71h-.06v2.18h-.64Zm1.79,3.63c.78,0,1.17-.68,1.17-1.57s-.39-1.53-1.17-1.53-1.16.62-1.16,1.53S489.79,281.56,490.54,281.56Z"/><path d="M496,281.44h-.05a1.26,1.26,0,0,1-1.18.71c-1,0-1.74-.83-1.74-2.14s.72-2.14,1.74-2.14a1.23,1.23,0,0,1,1.18.71H496v-.65h.63v5.69H496Zm0-1.45c0-.91-.41-1.53-1.16-1.53s-1.18.67-1.18,1.53.4,1.57,1.18,1.57S496,280.92,496,280Z"/><path d="M497.65,277.93h.62v.63h0a1.1,1.1,0,0,1,1.06-.7h.33v.67a1.34,1.34,0,0,0-.39-.05,1,1,0,0,0-1,1v2.61h-.64Z"/><path d="M501.91,279.61l1-1.68h.74L502.31,280l1.31,2.08h-.74l-1-1.6-1,1.6h-.74l1.28-2.08-1.28-2.06H501Z"/><path d="M506.18,278.47h-.86v2.41c0,.53.26.62.54.62l.38,0v.61a2.56,2.56,0,0,1-.45,0,1.05,1.05,0,0,1-1.12-1.07v-2.58h-.62v-.54h.62v-1h.65v1h.86Z"/><path d="M509.59,277.93h.63v4.14h-.63v-.7h0a1.26,1.26,0,0,1-1.21.75c-.77,0-1.32-.51-1.32-1.56v-2.63h.65v2.58a.88.88,0,0,0,.88,1,1.06,1.06,0,0,0,1-1.12Z"/><path d="M513.11,282.07h-.67l-1.5-4.14h.7l1.11,3.28h0l1.11-3.28h.7Z"/><path d="M515,277.93h.69l.87,3.15h0l.87-3.15h.69l.85,3.14h0l.87-3.14h.68l-1.24,4.14h-.64l-.88-3.16h-.06l-.88,3.16h-.65Z"/><path d="M522.75,279.61l1-1.68h.74L523.15,280l1.31,2.08h-.74l-1-1.6-1,1.6H521l1.29-2.08L521,277.93h.75Z"/><path d="M525.29,283.61V283l.32,0c.26,0,.48,0,.69-.63l.12-.31-1.5-4.17h.7l1.11,3.28h0l1.11-3.28h.7l-1.72,4.73a1.25,1.25,0,0,1-1.22,1Z"/><path d="M529.18,281.57l2.3-3v0h-2.22v-.6h3.06v.51l-2.23,3v.05h2.3v.6h-3.21Z"/><path d="M433.93,291.68h-.68v-4.8h0l-1.33.89v-.7l1.36-.91h.68Z"/><path d="M435.37,291.18l1.85-2c.65-.69,1-1.06,1-1.57a1.07,1.07,0,0,0-2.14.09h-.64a1.61,1.61,0,0,1,1.72-1.63,1.58,1.58,0,0,1,1.69,1.54c0,.61-.29,1.09-1.25,2.1L436.32,291v0h2.59v.61h-3.53Z"/><path d="M439.87,290.29h.68c0,.53.56.86,1.21.86s1.23-.4,1.23-1-.47-1-1.32-1h-.44v-.6h.44a1,1,0,0,0,1.12-.95.91.91,0,0,0-1-.92,1,1,0,0,0-1.14.87H440a1.66,1.66,0,0,1,1.81-1.47,1.53,1.53,0,0,1,1.66,1.48,1.23,1.23,0,0,1-.93,1.25v0a1.29,1.29,0,0,1,1.14,1.33,1.72,1.72,0,0,1-1.9,1.58C440.68,291.76,439.91,291.17,439.87,290.29Z"/><path d="M444.49,290l2.45-3.83h.83V290h.76v.6h-.76v1.13h-.64v-1.13h-2.64Zm2.64,0V287h-.07l-1.84,2.87V290Z"/><path d="M449.43,290.29h.65a1.06,1.06,0,0,0,1.12.87,1.19,1.19,0,0,0,1.21-1.23,1.23,1.23,0,0,0-1.26-1.25,1,1,0,0,0-1,.5h-.66l.39-3h2.94v.61h-2.38l-.2,1.62h0a1.65,1.65,0,0,1,1-.32,1.76,1.76,0,0,1,1.8,1.85,1.79,1.79,0,0,1-1.87,1.84A1.63,1.63,0,0,1,449.43,290.29Z"/><path d="M453.92,289.13c0-1.95.79-3.05,2.06-3.05a1.71,1.71,0,0,1,1.77,1.47h-.67a1.08,1.08,0,0,0-1.1-.86c-.89,0-1.42.78-1.42,2.11h.06a1.66,1.66,0,0,1,1.4-.73,1.77,1.77,0,0,1,1.77,1.83,1.81,1.81,0,0,1-1.89,1.86C455,291.74,453.92,291.18,453.92,289.13Zm3.22.77a1.21,1.21,0,0,0-1.22-1.23,1.27,1.27,0,0,0-1.27,1.24,1.25,1.25,0,1,0,2.49,0Z"/><path d="M461.39,286.81v0h-2.88v-.61h3.57v.64l-2.48,4.88h-.71Z"/><path d="M462.74,290.22a1.38,1.38,0,0,1,1.11-1.41v0a1.21,1.21,0,0,1-.9-1.23,1.75,1.75,0,0,1,3.45,0,1.24,1.24,0,0,1-.9,1.23v0a1.41,1.41,0,0,1,1.11,1.41c0,.9-.81,1.54-1.94,1.54S462.73,291.12,462.74,290.22Zm3.19,0a1.14,1.14,0,0,0-1.26-1.06,1.12,1.12,0,0,0-1.25,1.06c0,.58.47,1,1.25,1S465.93,290.76,465.93,290.18Zm-.19-2.58a1.08,1.08,0,0,0-2.13,0,1.07,1.07,0,0,0,2.13,0Z"/><path d="M471.3,288.7c0,2-.79,3.06-2.07,3.06a1.69,1.69,0,0,1-1.76-1.47h.67a1.06,1.06,0,0,0,1.09.86c.89,0,1.43-.78,1.44-2.12h-.08a1.67,1.67,0,0,1-1.39.73,1.77,1.77,0,0,1-1.78-1.82,1.81,1.81,0,0,1,1.9-1.86C470.26,286.09,471.3,286.66,471.3,288.7Zm-3.22-.77a1.2,1.2,0,0,0,1.22,1.23,1.27,1.27,0,0,0,1.26-1.25,1.24,1.24,0,0,0-2.48,0Z"/><path d="M432.14,264l-.33-.47a4.6,4.6,0,0,0,2.8-3.78h-2.49v-.51h3.09A5.09,5.09,0,0,1,432.14,264Zm4.79-2.73H438v.51h-1.08v3.51h-.58v-6.78h.58Z"/><path d="M439.27,263a14.7,14.7,0,0,0,3.07-.32l.08.52a16,16,0,0,1-3.2.3h-.53v-4.39h.58Zm5.38-1.35h-1.08v3.57H443v-6.78h.58v2.71h1.08Z"/><path d="M448.46,259.64h-2.53v3.44a15.06,15.06,0,0,0,3.05-.25l.08.52a16.61,16.61,0,0,1-3.19.23h-.53v-4.43h3.12Zm1.75,1.53h1.12v.5h-1.12v3.61h-.58v-6.8h.58Z"/><path d="M455,261.54h-2.44v1.59a15.1,15.1,0,0,0,3.12-.24l.06.5a16.88,16.88,0,0,1-3.23.25H452V261h2.43v-1.43H452v-.49h3Zm1.86-.36H458v.51h-1.12v3.59h-.58v-6.8h.58Z"/><path d="M461.69,263.54h-3.08v-4.37h3.08Zm-2.51-.49h1.92v-3.4h-1.92Zm4.32-1.86h1.11v.52H463.5v3.55h-.59v-6.78h.59Z"/><path d="M465.83,260.85h2v-1.79h.58v4.58h-3.12v-4.58h.58Zm2,2.29v-1.81h-2v1.81Zm2.35-2h1.11v.52h-1.11v3.59h-.59v-6.78h.59Z"/><path d="M475.58,263.2l-.37.49a3.7,3.7,0,0,1-1.64-2.14,3.8,3.8,0,0,1-1.68,2.26l-.38-.48a3.57,3.57,0,0,0,1.76-3v-1.24h.58v1.24A3.41,3.41,0,0,0,475.58,263.2Zm1.2-2h1.11v.51h-1.11v3.51h-.59v-6.78h.59Z"/><path d="M481.73,261.37c0,1.45-.71,2.36-1.69,2.36s-1.68-.91-1.68-2.36S479.05,259,480,259,481.72,259.93,481.73,261.37Zm-2.82,0c0,1.11.47,1.83,1.13,1.83s1.12-.72,1.12-1.83-.45-1.82-1.12-1.83S478.91,260.27,478.91,261.37Zm4.51-.18h1.12v.52h-1.12v3.55h-.59v-6.78h.59Z"/><path d="M488.89,263.32l-.34.47a3.56,3.56,0,0,1-1.68-2.1,3.9,3.9,0,0,1-1.73,2.27l-.36-.47a3.57,3.57,0,0,0,1.79-2.93v-.88H485v-.5h3.63v.5h-1.5v.88A3.26,3.26,0,0,0,488.89,263.32Zm1.17-2.09h1.12v.51h-1.12v3.52h-.59v-6.78h.59Z"/><path d="M495.42,263.37l-.34.46a3.34,3.34,0,0,1-1.6-2,3.45,3.45,0,0,1-1.67,2.1l-.34-.46a3.21,3.21,0,0,0,1.71-2.8v-.54h-1.53v-.49h1.53v-1.05h.59v1.05h1.5v.49h-1.52v.54A3.12,3.12,0,0,0,495.42,263.37Zm1.28-2.1h1.12v.51H496.7v3.48h-.59v-6.78h.59Z"/><path d="M498.57,264.14l-.33-.45a4.81,4.81,0,0,0,2.42-2.32l-2.29.22-.1-.53,2.57-.18a5.2,5.2,0,0,0,.21-1.19h-2.44v-.5h3A5.05,5.05,0,0,1,498.57,264.14Zm4.77-2.9h1.08v.51h-1.08v3.51h-.59v-6.78h.59Z"/><path d="M508.24,259.6H505.7V261h2.39v.49H505.7v1.64a16.94,16.94,0,0,0,3.05-.22l.07.49a18.51,18.51,0,0,1-3.19.22h-.52V259.1h3.13Zm1.74,1.61h1.12v.51H510v3.54h-.59v-6.78H510Z"/><path d="M515.29,259.72h-.74V263c.36,0,.71-.05,1.06-.1l0,.45a28.68,28.68,0,0,1-4.19.26l-.08-.51h.9v-3.35h-.73v-.5h3.75ZM514,263v-3.29h-1.14v3.34C513.21,263.05,513.6,263,514,263Zm2.64-1.8h1.12v.5h-1.12v3.55H516v-6.78h.59Z"/><path d="M522,260.07h-4v-.5h1.72v-1h.58v1H522Zm-.32,2.12a1.64,1.64,0,1,1-1.63-1.56A1.54,1.54,0,0,1,521.71,262.19Zm-2.71,0a1.08,1.08,0,0,0,2.15,0,1.08,1.08,0,0,0-2.15,0Zm4.26-.91h1.12v.5h-1.12v3.48h-.59v-6.78h.59Z"/><rect class="cls-4" x="100.84" y="541.9" width="139.03" height="47.43" rx="23.72"/><path class="cls-2" d="M133.26,570.9l3.89-10.61h1.39l3.88,10.61H141l-1.06-3h-4.26l-1.07,3Zm6.3-4.15L137.88,562h-.09l-1.68,4.75Z"/><path class="cls-2" d="M143.86,560.29h3.72c2.22,0,3.26,1.25,3.26,2.81a2.12,2.12,0,0,1-1.73,2.23v.1a2.48,2.48,0,0,1,2.16,2.65c0,1.6-1.06,2.82-3.56,2.82h-3.85Zm5.72,2.83c0-.92-.61-1.66-2-1.66h-2.41v3.47h2.36A1.87,1.87,0,0,0,149.58,563.12Zm.41,5a2,2,0,0,0-2.22-2h-2.6v3.64h2.52C149.35,569.72,150,569,150,568.07Z"/><path class="cls-2" d="M157.42,571c-2.72,0-4.69-2.09-4.69-5.45s2-5.45,4.69-5.45,4.69,2.1,4.69,5.45S160.13,571,157.42,571Zm0-9.66c-1.92,0-3.41,1.47-3.41,4.21s1.49,4.22,3.41,4.22,3.41-1.48,3.41-4.22S159.34,561.38,157.42,561.38Z"/><path class="cls-2" d="M172.3,560.29v7c0,2.18-1.62,3.78-4.13,3.78s-4.13-1.6-4.13-3.78v-7h1.32v6.92a2.81,2.81,0,0,0,5.62,0v-6.92Z"/><path class="cls-2" d="M174.06,560.29h8v1.17h-3.33v9.44H177.4v-9.44h-3.34Z"/><path class="cls-2" d="M189.16,560.29l3.58,8.73h.13l3.57-8.73H198V570.9h-1.25v-8h-.1l-3.3,8h-1.17l-3.3-8h-.08v8h-1.25V560.29Z"/><path class="cls-2" d="M200.37,560.29h6.43v1.17h-5.11V565h4.77v1.16h-4.77v3.55h5.18v1.18h-6.5Z"/><rect class="cls-4" x="248.17" y="541.9" width="139.03" height="47.43" rx="23.72"/><rect class="cls-4" x="395.84" y="541.9" width="139.03" height="47.43" rx="23.72"/><path class="cls-2" d="M298.69,561.32c-1.4,0-2.32.73-2.32,1.74s1.24,1.52,2.05,1.73l1.05.29c1.14.29,3,.95,3,2.93,0,1.73-1.39,3.08-3.85,3.08-2.28,0-3.7-1.19-3.82-3h1.35c.11,1.19,1.21,1.75,2.47,1.75,1.47,0,2.57-.75,2.57-1.91s-1-1.42-2.1-1.74l-1.3-.35c-1.67-.49-2.7-1.34-2.7-2.77,0-1.79,1.6-3,3.65-3s3.53,1.21,3.59,2.82H301C300.92,561.92,300,561.32,298.69,561.32Z"/><path class="cls-2" d="M304.36,560.29h1.32v5.25h.13l4.72-5.25h1.73l-4.44,4.79,4.44,5.82h-1.61L307,566l-1.32,1.49v3.42h-1.32Z"/><path class="cls-2" d="M315,570.9h-1.32V560.29H315Z"/><path class="cls-2" d="M317.34,560.29h1.32v9.43h4.92v1.18h-6.24Z"/><path class="cls-2" d="M325.34,560.29h1.32v9.43h4.92v1.18h-6.24Z"/><path class="cls-2" d="M336.78,561.32c-1.41,0-2.33.73-2.33,1.74s1.25,1.52,2.05,1.73l1.06.29c1.14.29,3,.95,3,2.93,0,1.73-1.39,3.08-3.85,3.08-2.29,0-3.71-1.19-3.83-3h1.35c.12,1.19,1.22,1.75,2.48,1.75,1.46,0,2.56-.75,2.56-1.91s-1-1.42-2.09-1.74l-1.31-.35c-1.67-.49-2.69-1.34-2.69-2.77,0-1.79,1.59-3,3.64-3s3.53,1.21,3.59,2.82h-1.29C339,561.92,338.06,561.32,336.78,561.32Z"/><path class="cls-2" d="M428.82,560.29h3.61c2.49,0,3.61,1.48,3.61,3.37s-1.12,3.38-3.6,3.38h-2.3v3.86h-1.32Zm3.56,5.58a2.06,2.06,0,0,0,2.36-2.21c0-1.27-.67-2.2-2.37-2.2h-2.23v4.41Z"/><path class="cls-2" d="M442.17,571c-2.73,0-4.69-2.09-4.69-5.45s2-5.45,4.69-5.45,4.68,2.1,4.68,5.45S444.88,571,442.17,571Zm0-9.66c-1.92,0-3.42,1.47-3.42,4.21s1.5,4.22,3.42,4.22,3.41-1.48,3.41-4.22S444.09,561.38,442.17,561.38Z"/><path class="cls-2" d="M448.79,560.29h3.6c2.49,0,3.62,1.38,3.62,3.27a2.9,2.9,0,0,1-2,3l2.39,4.37h-1.54l-2.21-4.13h-2.56v4.12h-1.32Zm3.56,5.29c1.68,0,2.36-.76,2.36-2s-.68-2.1-2.38-2.1h-2.22v4.12Z"/><path class="cls-2" d="M457.33,560.29h8v1.17H462v9.44h-1.33v-9.44h-3.34Z"/><path class="cls-2" d="M467.08,560.29h6.39v1.17H468.4V565H473v1.16H468.4v4.73h-1.32Z"/><path class="cls-2" d="M479.71,571C477,571,475,569,475,565.59s2-5.45,4.69-5.45,4.69,2.1,4.69,5.45S482.42,571,479.71,571Zm0-9.66c-1.92,0-3.41,1.47-3.41,4.21s1.49,4.22,3.41,4.22,3.41-1.48,3.41-4.22S481.63,561.38,479.71,561.38Z"/><path class="cls-2" d="M486.33,560.29h1.32v9.43h4.92v1.18h-6.24Z"/><path class="cls-2" d="M495.65,570.9h-1.32V560.29h1.32Z"/><path class="cls-2" d="M502.27,571c-2.73,0-4.69-2.09-4.69-5.45s2-5.45,4.69-5.45,4.69,2.1,4.69,5.45S505,571,502.27,571Zm0-9.66c-1.92,0-3.41,1.47-3.41,4.21s1.49,4.22,3.41,4.22,3.41-1.48,3.41-4.22S504.19,561.38,502.27,561.38Z"/><rect class="cls-4" x="542.81" y="541.9" width="139.03" height="47.43" rx="23.72"/><path class="cls-2" d="M565.15,570.9V560.29h3.42c3.1,0,4.93,2,4.93,5.29s-1.83,5.32-5.06,5.32Zm3.2-1.18c2.61,0,3.86-1.56,3.86-4.14s-1.25-4.12-3.72-4.12h-2v8.26Z"/><path class="cls-2" d="M575.43,560.29h6.43v1.17h-5.11V565h4.77v1.16h-4.77v3.55h5.18v1.18h-6.5Z"/><path class="cls-2" d="M587.38,561.32c-1.4,0-2.33.73-2.33,1.74s1.25,1.52,2.05,1.73l1.06.29c1.14.29,3,.95,3,2.93,0,1.73-1.39,3.08-3.85,3.08-2.29,0-3.71-1.19-3.82-3h1.34c.12,1.19,1.22,1.75,2.48,1.75,1.46,0,2.56-.75,2.56-1.91s-1-1.42-2.09-1.74l-1.31-.35c-1.67-.49-2.69-1.34-2.69-2.77,0-1.79,1.6-3,3.65-3S591,561.35,591,563h-1.29C589.61,561.92,588.66,561.32,587.38,561.32Z"/><path class="cls-2" d="M594.37,570.9h-1.32V560.29h1.32Z"/><path class="cls-2" d="M601,561.38c-1.88,0-3.37,1.47-3.37,4.21s1.49,4.22,3.46,4.22a2.91,2.91,0,0,0,3-3.07h-2.77v-1.16h4.06v1.14A4.11,4.11,0,0,1,601,571c-2.83,0-4.74-2.09-4.74-5.45s1.92-5.45,4.65-5.45a4.26,4.26,0,0,1,4.36,3.46H604A3,3,0,0,0,601,561.38Z"/><path class="cls-2" d="M615.77,570.9h-1.26l-5.74-8.27h-.1v8.27h-1.32V560.29h1.27l5.75,8.28h.1v-8.28h1.3Z"/><path class="cls-2" d="M620.39,559.84h1.11a13.79,13.79,0,0,0,0,14h-1.11a12.73,12.73,0,0,1,0-14Z"/><path class="cls-2" d="M622.64,560.29h8v1.17h-3.33v9.44H626v-9.44h-3.34Z"/><path class="cls-2" d="M636.24,571c-2.72,0-4.69-2.09-4.69-5.45s2-5.45,4.69-5.45,4.69,2.1,4.69,5.45S639,571,636.24,571Zm0-9.66c-1.92,0-3.41,1.47-3.41,4.21s1.49,4.22,3.41,4.22,3.42-1.48,3.42-4.22S638.16,561.38,636.24,561.38Z"/><path class="cls-2" d="M647.14,571c-2.72,0-4.69-2.09-4.69-5.45s2-5.45,4.69-5.45,4.69,2.1,4.69,5.45S649.85,571,647.14,571Zm0-9.66c-1.92,0-3.41,1.47-3.41,4.21s1.49,4.22,3.41,4.22,3.41-1.48,3.41-4.22S649.06,561.38,647.14,561.38Z"/><path class="cls-2" d="M653.76,560.29h1.32v9.43H660v1.18h-6.24Z"/><path class="cls-2" d="M662.26,573.88h-1.12a13.79,13.79,0,0,0,0-14h1.12a12.73,12.73,0,0,1,0,14Z"/><rect class="cls-4" x="690.14" y="541.9" width="139.03" height="47.43" rx="23.72"/><path class="cls-2" d="M730.64,561.38c-1.92,0-3.41,1.47-3.41,4.21s1.49,4.22,3.41,4.22a2.89,2.89,0,0,0,3-2.24h1.32a4.14,4.14,0,0,1-4.28,3.47c-2.72,0-4.69-2.09-4.69-5.45s2-5.45,4.69-5.45a4.15,4.15,0,0,1,4.28,3.49H733.6A2.88,2.88,0,0,0,730.64,561.38Z"/><path class="cls-2" d="M741,571c-2.72,0-4.69-2.09-4.69-5.45s2-5.45,4.69-5.45,4.69,2.1,4.69,5.45S743.75,571,741,571Zm0-9.66c-1.92,0-3.41,1.47-3.41,4.21s1.49,4.22,3.41,4.22,3.42-1.48,3.42-4.22S743,561.38,741,561.38Z"/><path class="cls-2" d="M756.09,570.9h-1.26l-5.75-8.27H749v8.27h-1.32V560.29h1.28l5.74,8.28h.1v-8.28h1.31Z"/><path class="cls-2" d="M757.84,560.29h8v1.17h-3.32v9.44h-1.34v-9.44h-3.34Z"/><path class="cls-2" d="M765.45,570.9l3.88-10.61h1.39l3.88,10.61h-1.39l-1.05-3h-4.27l-1.07,3Zm6.3-4.15L770.06,562H770l-1.68,4.75Z"/><path class="cls-2" d="M779.82,561.38c-1.92,0-3.42,1.47-3.42,4.21s1.5,4.22,3.42,4.22a2.89,2.89,0,0,0,3-2.24h1.31a4.13,4.13,0,0,1-4.27,3.47c-2.73,0-4.69-2.09-4.69-5.45s2-5.45,4.69-5.45a4.13,4.13,0,0,1,4.27,3.49h-1.31A2.88,2.88,0,0,0,779.82,561.38Z"/><path class="cls-2" d="M785.35,560.29h8v1.17H790v9.44h-1.34v-9.44h-3.34Z"/></svg>