<svg id="Layer_1" data-name="Layer 1" xmlns="http://www.w3.org/2000/svg" viewBox="0 0 960 720"><defs><style>.cls-1{fill:#111;stroke:#1d1d1b;stroke-miterlimit:10;}.cls-2{fill:#009be6;}.cls-3{fill:#fff;}</style></defs><rect class="cls-1" x="-0.32" y="-0.1" width="960" height="720"/><path class="cls-2" d="M487.78,314.91v10.37c0,3.13-3.27,5.7-7.27,5.7s-7.27-2.57-7.27-5.7V271.41h-7.1v53.87c0,5.61,4.61,10.32,10.84,11.62v41.37h7.14V336.9c6.23-1.3,10.85-6,10.85-11.62V271.41h-7.19Z"/><path class="cls-2" d="M440.1,271.41v7h11.84V366.3c0,3.35-3.26,6.05-7.27,6.05s-7.27-2.7-7.27-6.05V334.9h-7.1v31.4c0,6.62,6.44,12,14.41,12s14.42-5.36,14.42-12V271.41h-19Z"/><path class="cls-2" d="M528.93,281.29c0-2.83-1.44-9.88-9.06-9.88-3.57,0-7.83,1.83-11.36,4.83v-4.83h-7.14V378.32h7.14V336.38c18.37,0,20.55-8.58,20.55-11.1v-44Zm-7,8.76v33.48c0,2.44-2.7,5.8-13.41,5.8V290.05c0-6.93,6.7-12.5,10.41-12.5,2.17,0,2.83,2,3,5C522.05,284.56,521.92,287.17,521.92,290.05Z"/><path class="cls-3" d="M413.32,417.92h-8.79v4.89a70.8,70.8,0,0,0,11.43-.88l.32,3a74,74,0,0,1-13.21.94h-2.4V415h8.85v-4.31h-8.88v-3h12.68Zm8.26,14.21h-3.72V405.41h3.72Z"/><path class="cls-3" d="M449.48,422.81h-5.57v9.26h-3.78v-9.26h-5.6v9.26h-3.75v-9.26h-5.62v-3h24.32Zm-2.7-6H428.12V406.61h3.72v7.21h14.94Z"/><path class="cls-3" d="M473.56,418.74h-3.72v-5h-4.46c-.73,2.79-3.42,4.66-6.85,4.66-4.07,0-7.12-2.55-7.09-6.19s3-6.06,7.09-6.06c3.43,0,6.12,1.83,6.85,4.57h4.46v-5.33h3.72ZM455,412.23c0,2,1.47,3.17,3.55,3.17s3.48-1.17,3.48-3.17-1.46-3-3.48-3S455,410.36,455,412.23Zm18.58,14.89h-14v1.72h14.77v2.93H455.83v-7.41h14v-1.58h-14v-2.87h17.76Z"/><path class="cls-3" d="M486,427.5l-2-3c6.88-3.25,9.91-7.47,10.51-13.39h-9.08v-2.93h12.89C498.34,416.28,495.5,423,486,427.5Zm20.36,4.57h-3.78V405.41h3.78Z"/><path class="cls-3" d="M525.35,414.75c0,2-1.9,3.43-4.83,3.84v1.26c2.14-.09,4.28-.25,6.3-.5l.26,2.49a98.94,98.94,0,0,1-16.61,1.09l-.5-2.85c2.07,0,4.4,0,6.83-.08v-1.41c-3-.41-4.83-1.8-4.8-3.84,0-2.49,2.63-4,6.67-4S525.33,412.26,525.35,414.75Zm1.23-4.66H510.76v-2.72h6v-2.14h3.72v2.14h6.06Zm5.69,22h-3.81v-4.69H513.72v-2.87h18.55ZM515.6,414.75c0,1,1.17,1.47,3.07,1.47s3.08-.5,3.08-1.47-1.26-1.55-3.08-1.55S515.6,413.7,515.6,414.75Zm16.67,8.7h-3.81v-18h3.81Z"/><path class="cls-3" d="M552.34,423.25l-2.29,3a12.13,12.13,0,0,1-6-7.39c-1.18,3.49-3.23,6.35-6.27,7.86l-2.35-3c4.57-2.05,6.65-7.21,6.68-12.22v-4h3.78v4C545.86,416.45,547.88,421.32,552.34,423.25Zm5.94,8.88h-3.69V416.8h-5.24v-3h5.24v-8.38h3.69Z"/></svg>