<svg id="Layer_1" data-name="Layer 1" xmlns="http://www.w3.org/2000/svg" viewBox="0 0 960 720"><defs><style>.cls-1,.cls-3{fill:#111;}.cls-1{stroke:#1d1d1b;stroke-miterlimit:10;}.cls-2{fill:#fff;}.cls-4{fill:#009be6;}</style></defs><rect class="cls-1" y="-0.1" width="253.64" height="720"/><path class="cls-2" d="M60.72,117.53,59,115.14C64.22,112.5,67,109,67.63,104h-7.4v-2.54H70.8C70.78,108.11,68.19,113.87,60.72,117.53Zm16-9.81h3.15v2.56H76.73v11.09H73.61V99.2h3.12Z"/><path class="cls-2" d="M93.19,108.67c0,4.88-2.49,7.94-5.84,7.94s-5.91-3.06-5.88-7.94,2.46-7.91,5.88-7.91S93.19,103.84,93.19,108.67Zm-8.72,0c0,3.32,1.15,5.1,2.88,5.1s2.83-1.78,2.83-5.1-1.14-5.1-2.83-5.1S84.47,105.38,84.47,108.67Zm14.94,12.79H96.26V99.2h3.15Z"/><path class="cls-2" d="M122.75,118.71H102.42v-2.57h20.33ZM120.53,112H104.81V101.05h15.55v2.52H107.88v5.91h12.65Z"/><path class="cls-2" d="M143.19,107.82l-1.64,2.39a8.24,8.24,0,0,1-5-4.17,8.4,8.4,0,0,1-5.33,4.63l-1.61-2.46c3.69-1.08,5.33-3.79,5.35-6.67V99.93h3.15v1.61C138.08,104.2,139.65,106.77,143.19,107.82Zm5.32,9.54H136.84v1.37h12.3v2.44H133.76v-6.08h11.67v-1.27H133.74v-2.39h14.77Zm0-6.86h-3.1V105h-4.18v-2.47h4.18V99.2h3.1Z"/><path class="cls-2" d="M164.21,103h-4.42a6.85,6.85,0,0,0,5.1,6.35l-1.54,2.44a8.34,8.34,0,0,1-5.1-4.42,8.93,8.93,0,0,1-5.39,5l-1.62-2.47a7.45,7.45,0,0,0,5.38-6.91h-4.47v-2.49h12.06Zm6,14.14c0,2.68-2.93,4.27-7.67,4.27s-7.64-1.59-7.64-4.27,2.91-4.27,7.64-4.3S170.17,114.46,170.19,117.17Zm-12.21,0c0,1.27,1.59,1.9,4.54,1.9s4.57-.63,4.57-1.9-1.61-1.91-4.57-1.91S158,115.87,158,117.17Zm12.14-4.79H167v-5.25h-3.47v-2.51H167V99.2h3.1Z"/><path class="cls-2" d="M63.16,75.89c-1.41,0-2.33.73-2.33,1.74s1.24,1.53,2.05,1.73l1,.3c1.15.29,3,1,3,2.93,0,1.72-1.39,3.07-3.86,3.07-2.28,0-3.7-1.18-3.82-2.94h1.35c.12,1.18,1.22,1.74,2.47,1.74,1.47,0,2.57-.75,2.57-1.9s-1-1.42-2.1-1.75l-1.3-.35c-1.67-.48-2.7-1.33-2.7-2.77,0-1.78,1.6-3,3.65-3s3.53,1.2,3.59,2.81H65.5C65.38,76.49,64.43,75.89,63.16,75.89Z"/><path class="cls-2" d="M68.24,74.87h8V76H72.91v9.43H71.58V76H68.24Z"/><path class="cls-2" d="M78.6,74.87l2.91,4.92h.13l2.92-4.92h1.52l-3.83,6.25v4.35H80.91V81.12l-3.82-6.25Z"/><path class="cls-2" d="M87.5,74.87h1.32V84.3h4.92v1.17H87.5Z"/><path class="cls-2" d="M95.5,74.87h6.43V76H96.82v3.54h4.78v1.16H96.82V84.3H102v1.17H95.5Z"/><path class="cls-2" d="M108.25,76c-1.88,0-3.37,1.48-3.37,4.22s1.49,4.22,3.45,4.22a2.91,2.91,0,0,0,3-3.08h-2.77V80.15h4.06V81.3a4.11,4.11,0,0,1-4.34,4.32c-2.82,0-4.73-2.1-4.73-5.45s1.92-5.45,4.65-5.45a4.26,4.26,0,0,1,4.36,3.46h-1.36A3,3,0,0,0,108.25,76Z"/><path class="cls-2" d="M122.91,74.87v7c0,2.19-1.63,3.78-4.13,3.78s-4.13-1.59-4.13-3.78v-7H116v6.91a2.81,2.81,0,0,0,5.62,0V74.87Z"/><path class="cls-2" d="M126.57,85.47h-1.32V74.87h1.32Z"/><path class="cls-2" d="M128.92,85.47V74.87h3.42c3.09,0,4.92,2,4.92,5.28s-1.83,5.32-5,5.32Zm3.2-1.17c2.61,0,3.86-1.57,3.86-4.15S134.73,76,132.25,76h-2V84.3Z"/><path class="cls-2" d="M139.2,74.87h6.43V76h-5.11v3.54h4.77v1.16h-4.77V84.3h5.18v1.17h-6.5Z"/><path d="M321.11,114.13h-2.95V102.78h-.07l-3.25,2v-2.6l3.5-2.23h2.77Z"/><path d="M323.72,112.67a1.61,1.61,0,0,1,1.64-1.62,1.64,1.64,0,0,1,1.62,1.62,1.66,1.66,0,0,1-1.62,1.64A1.62,1.62,0,0,1,323.72,112.67Z"/><path d="M333.93,109.76l-1-1.92a10.42,10.42,0,0,0,5.15-3.06l-4.8.39-.35-2,6.13-.21a6.43,6.43,0,0,0,.31-1.46h-5.54v-2h8.18C342.05,104.46,339.92,107.84,333.93,109.76Zm14.17,5.86H336V110h2.52v3.61h9.62Zm-.44-4.34h-2.48v-5.72H342v-2h3.23V98.18h2.48Z"/><path d="M358.73,105.73l-1.35,1.86a5.65,5.65,0,0,1-3-3A6.28,6.28,0,0,1,351,108l-1.32-1.89a5.47,5.47,0,0,0,3.43-5.12V99h2.43v1.88A5.09,5.09,0,0,0,358.73,105.73Zm-3.18,4.54h7.22v-1.59h2.46v7H353.09v-7h2.46Zm7.22,3.47V112.2h-7.22v1.54Zm-1.13-5.82h-2.36v-4.47h-2.17v-2h2.17v-3h2.36Zm3.59.1h-2.36V98.18h2.36Z"/><path d="M383.46,110h-6.92v6h-2.46v-6h-6.83v-2h16.21Zm-1.45-8.9h-5.17c.24,1.73,2.2,3.48,5.85,3.92l-.89,2c-3.13-.42-5.36-1.76-6.43-3.6-1.09,1.84-3.31,3.18-6.41,3.6l-.91-2c3.59-.44,5.57-2.19,5.86-3.92h-5.2v-2H382Z"/><path d="M393.67,110.34l-1.46,1.84a7.59,7.59,0,0,1-3.23-4.43,8.15,8.15,0,0,1-3.32,4.82l-1.5-1.84c2.62-1.6,3.59-4.8,3.59-7.81v-1h-2.91v-2h8v2h-2.69v1C390.16,105.87,391.07,108.86,393.67,110.34Zm2.6,4.77h-2.34v-8.85h-2.35v-2h2.35v-5.8h2.34Zm3.63.82h-2.36V98.16h2.36Z"/><path d="M336.93,135.64h1.22v-3h.94v7.9h-.94v-4.05h-1.22a2.58,2.58,0,0,1-5.14-.45,2.58,2.58,0,0,1,5.14-.39Zm-4.24.39a1.72,1.72,0,0,0,1.68,1.87,1.89,1.89,0,0,0,0-3.75A1.73,1.73,0,0,0,332.69,136Zm8.9,7.42h-7.74v-3.68h1v2.84h6.75Zm-.34-2.59h-.95V132.4h.95Z"/><path d="M348.68,134.27h-4.27v2.35h3.77v.81h-3.77v2.73a26.74,26.74,0,0,0,4.95-.34l.12.82a29.65,29.65,0,0,1-5.21.34h-.86v-7.54h5.27Zm3.57,9.44h-1v-6.22h-2.38v-.82h2.38V132.4h1Z"/><path d="M358.76,134.59h-3.25v2.23h2.73v.8h-2.73v2.54a20.31,20.31,0,0,0,3.83-.31l.09.82a20.34,20.34,0,0,1-4.16.3h-.71v-7.18h4.2Zm2.7,8.51h-.95v-5.58h-1.66v-.83h1.66v-4h.95Zm2.31.59h-1V132.4h1Z"/><path d="M371.52,136a3,3,0,1,1-3-2.77A2.77,2.77,0,0,1,371.52,136Zm-4.94,0a2,2,0,0,0,4,0,2,2,0,0,0-4,0Zm8.43,7.48h-7.64v-3.62h1v2.78H375Zm-.35-2.78h-1v-8.25h1Z"/><path d="M382.28,135.56h2.64v-3.14h1v8.23h-1v-4.27h-2.64v2.24H377.1v-5.23h5.18Zm-4.19,2.26h3.21v-3.6h-3.21Zm8.15,5.63h-7.57v-3.56h1v2.72h6.57Z"/><path d="M398.12,142.22H387.79v-.83h10.33Zm-1.19-2.9h-7.81v-5.94h7.68v.84h-6.66v1.67h6.42v.8h-6.42v1.82h6.79Z"/><path d="M405.66,135H399v-.82h2.91v-1.68h1v1.68h2.81Zm-.53,3.53a2.59,2.59,0,0,1-2.77,2.59,2.6,2.6,0,1,1,0-5.18A2.59,2.59,0,0,1,405.13,138.57Zm-4.58,0a1.69,1.69,0,0,0,1.81,1.74,1.72,1.72,0,0,0,1.82-1.74,1.74,1.74,0,0,0-1.82-1.75A1.72,1.72,0,0,0,400.55,138.57Zm7.2-1.51h1.89v.83h-1.89v5.8h-1V132.4h1Z"/><path d="M416,134.4h2.64v-2h1v8.23h-1v-3H416v1h-5.18v-5.27H416Zm-4.19,3.46H415v-3.64h-3.21Zm8.09,5.59h-7.56v-3.53h1v2.69h6.55Zm-1.26-6.63v-1.59H416v1.59Z"/><path d="M426.18,136.35h3.3v-3h1V141h-5.28v-7.61h1Zm3.3,3.8v-3h-3.3v3Zm4-3.3h1.89v.86h-1.89v6h-1V132.4h1Z"/><path d="M446.28,142.29H436v-.84h4.64v-2.13h-3.35v-3.48H444v-1.77h-6.78v-.83H445v3.42h-6.74v1.84h7v.82h-3.67v2.13h4.71Z"/><path d="M453.58,134.37h-1.82v5.56a8.28,8.28,0,0,0,1.87-.22l.13.84a10.76,10.76,0,0,1-2.51.23h-.46v-7.24h2.79Zm3.71,0H455.2v5.57a10.66,10.66,0,0,0,2.55-.26l.11.82a12,12,0,0,1-3.09.28h-.57v-7.24h3.09Zm2.62,9.32h-1v-6.32h-2.18v-.82h2.18V132.4h1Z"/><path d="M470.92,136.1c0,1.68-1.5,2.8-3.64,2.93v2.37H472v.84H461.65v-.84h4.65V139c-2.14-.14-3.63-1.26-3.63-2.93s1.73-2.95,4.13-3S470.92,134.32,470.92,136.1Zm-7.29,0c0,1.3,1.34,2.14,3.17,2.15s3.16-.85,3.16-2.15S468.62,134,466.8,134,463.63,134.83,463.63,136.1Z"/><path d="M483.21,142.27H472.88v-.84h10.33Zm-1.3-5.59h-6.75v1.85h7v.8h-8v-3.46h6.76v-1.78h-6.78v-.82h7.76Z"/><path d="M494.42,139H484.09v-.81h10.33Zm-1.13,4.43h-7.85v-3.28h1v2.45h6.86Zm-.06-6.78H485.5v-3.81h1v3h6.74Z"/><path d="M508.92,142.22H498.59v-.83h10.33Zm-1.19-2.9h-7.81v-5.94h7.68v.84h-6.66v1.67h6.42v.8h-6.42v1.82h6.79Z"/><path d="M514.33,136.55h-3v1.78a19,19,0,0,0,3.91-.33l.11.81a20.85,20.85,0,0,1-4.27.33h-.73v-3.35h3v-1.66h-3.06v-.8h4Zm5.41,6.9H512V140h1v2.57h6.75Zm-2.58-2.86h-.95v-4.2H514.8v-.84h1.41v-2.93h.95Zm2.24.31h-.95v-8.48h.95Z"/><path d="M527.14,134.32h-4.36V140a28.5,28.5,0,0,0,5.33-.36l.1.83a29.31,29.31,0,0,1-5.52.4h-.92v-7.43h5.37Zm3.2,9.39h-1V132.4h1Z"/><path d="M539,134.43h-6.73v-.82h2.87v-1.3h1v1.3H539Zm-.65,2.57c0,1.23-1.09,2-2.72,2s-2.73-.79-2.72-2,1.08-2,2.72-2S538.36,135.79,538.37,137Zm-4.48,0c0,.77.69,1.24,1.76,1.25s1.77-.48,1.78-1.25-.72-1.23-1.78-1.23S533.87,136.26,533.89,137Zm7.19,6.54H534v-3.69h7.12Zm-6.14-.82h5.15v-2.07h-5.15Zm6.14-7.31h1.71v.85h-1.71v3h-1V132.4h1Z"/><path d="M544.35,145.26h-.94l.7-3.45h1.23Z"/><path d="M560.41,142.24H550.08v-.84h4.64v-2.75h-3.43v-5.3h7.84v5.3H555.7v2.75h4.71Zm-8.14-4.39h5.89v-3.7h-5.89Z"/><path d="M567.15,134.18h-4.21v4a23.33,23.33,0,0,0,4.85-.37l.13.82a27.67,27.67,0,0,1-5.11.37H562v-5.64h5.19Zm3.81,9.33h-7.58V140h1v2.67H571Zm-.3-2.86h-1v-4.29h-3.23v-.81h3.23v-3.13h1Z"/><path d="M579.28,134.43h-6.73v-.82h2.87v-1.3h1v1.3h2.87Zm-.65,2.57c0,1.23-1.09,2-2.71,2s-2.73-.79-2.72-2,1.08-2,2.72-2S578.62,135.79,578.63,137Zm-4.48,0c0,.77.7,1.24,1.77,1.25s1.76-.48,1.77-1.25-.72-1.23-1.77-1.23S574.14,136.26,574.15,137Zm7.2,6.54h-7.12v-3.69h7.12Zm-6.15-.82h5.16v-2.07H575.2Zm6.15-7.31h1.7v.85h-1.7v3h-1V132.4h1Z"/><path d="M584.61,145.26h-.94l.7-3.45h1.23Z"/><path d="M591.08,137.73l-.68-.63a4.26,4.26,0,0,0,2.3-3.24h-2V133h3A5.2,5.2,0,0,1,591.08,137.73Zm8.08,3.72h-6.22v1.29h6.68v.8H592v-2.86h6.24V139.5h-6.27v-.79h7.23Zm-4.82-3.21-.71-.59a4.83,4.83,0,0,0,2.28-3.79h-1.79V133h2.76A6,6,0,0,1,594.34,138.24Zm4.82-3.36h1.7v.84h-1.7v2.46h-1V132.4h1Z"/><path d="M611.88,137.85H601.56V137h3.19a15,15,0,0,0,.47-3.3h-2.69v-.83h3.68v.33a15.51,15.51,0,0,1-.47,3.8h3.49a16.34,16.34,0,0,0,.39-3.3H607v-.83h3.62v.46a16.34,16.34,0,0,1-.37,3.67h1.66Zm-1.29,5.65h-7.76v-4h7.76Zm-6.77-.8h5.78v-2.44h-5.78Z"/><path d="M619.54,134.43h-6.73v-.82h2.87v-1.3h1v1.3h2.87Zm-.65,2.57c0,1.23-1.09,2-2.71,2s-2.73-.79-2.72-2,1.08-2,2.72-2S618.88,135.79,618.89,137Zm-4.48,0c0,.77.7,1.24,1.77,1.25s1.76-.48,1.78-1.25-.73-1.23-1.78-1.23S614.4,136.26,614.41,137Zm7.2,6.54h-7.12v-3.69h7.12Zm-6.14-.82h5.15v-2.07h-5.15Zm6.14-7.31h1.7v.85h-1.7v3h-1V132.4h1Z"/><path d="M637.57,138.61h-10.3v-.84h10.3Zm-1.27,3c0,1.31-1.46,2-3.89,2s-3.89-.72-3.89-2,1.46-2,3.89-2S636.29,140.34,636.3,141.63Zm.06-4.94h-7.78v-3.83h7.71v.84h-6.73v2.18h6.8Zm-6.83,4.94c0,.8,1.07,1.25,2.88,1.25s2.89-.45,2.89-1.25-1.1-1.24-2.89-1.25S629.52,140.84,629.53,141.63Z"/><path d="M646,140l.08.74a41.34,41.34,0,0,1-7.39.5l-.14-.85A53.34,53.34,0,0,0,646,140Zm-.78-4.11c0,1.58-1.26,2.65-3,2.65s-3.06-1.07-3.05-2.65,1.27-2.65,3.05-2.65A2.74,2.74,0,0,1,645.23,135.88Zm-5.11,0a2.09,2.09,0,1,0,2.07-1.78A1.86,1.86,0,0,0,640.12,135.88Zm7.63,7.83h-1V132.4h1Z"/><path d="M659.94,138l-.51.77a4.7,4.7,0,0,1-2.87-2.57,4.83,4.83,0,0,1-2.89,2.79l-.52-.77A4.11,4.11,0,0,0,656,134.5V134H653.4v-.81h6.25V134H657v.49A3.88,3.88,0,0,0,659.94,138Zm2.36,5.74h-1v-3h-6.6v-.82h7.59Zm0-4.46h-1V132.4h1Z"/><path d="M667.56,138.2c1.25,0,2.54-.14,3.72-.3l.06.74a44.74,44.74,0,0,1-7.1.45l-.1-.82,2.43,0v-2.45h1Zm2.9-4.32a17.7,17.7,0,0,1-.29,3.33l-1-.07a16.55,16.55,0,0,0,.32-3h-4.65v-.84h5.62Zm3,9.57h-7.54v-3.32h1v2.48h6.54Zm-.37-7.37h1.66v.85h-1.66v4h-1v-8.5h1Z"/><path d="M682.13,137.92l-.52.79a4.66,4.66,0,0,1-2.74-2.56A4.83,4.83,0,0,1,676,139l-.52-.79a4.16,4.16,0,0,0,2.87-3.69V134H675.8v-.81h6.08V134h-2.53v.48A3.85,3.85,0,0,0,682.13,137.92Zm2.66,5.77h-1v-3.1H677.2v-.82h7.59Zm0-4.52h-1v-3h-2.26v-.84h2.26v-3h1Z"/><path d="M692.84,136a3,3,0,1,1-3-2.77A2.77,2.77,0,0,1,692.84,136Zm-4.94,0a2,2,0,0,0,4,0,2,2,0,0,0-4,0Zm8.43,7.48h-7.64v-3.62h1v2.78h6.65Zm-.36-2.78h-1v-8.25h1Z"/><path d="M707.32,137.21c0,2.4-1.2,3.93-2.88,3.93s-2.88-1.53-2.88-3.93,1.19-3.92,2.88-3.93S707.32,134.81,707.32,137.21Zm-4.8,0c0,1.84.79,3,1.92,3s1.92-1.2,1.92-3-.79-3-1.92-3S702.52,135.37,702.52,137.21Zm7.93,6.5h-1V132.4h1Z"/><path d="M718.24,140.86H713v-7.34h5.22ZM714,140h3.26v-5.72H714Zm7.67,3.67h-1V132.4h1Z"/><path d="M730.69,140.45l-.56.79a5.9,5.9,0,0,1-3-3.47,6.46,6.46,0,0,1-2.95,3.75l-.6-.79a5.89,5.89,0,0,0,3-4.86V134.4H724v-.83h6.36v.83h-2.69v1.47A5.31,5.31,0,0,0,730.69,140.45Zm2.2,3.24h-1V132.4h1Z"/><path d="M745.13,138.43H734.8v-.78h10.33Zm-1.29,3.3h-6.78v1.08h7.15v.73h-8.15v-2.49h6.79v-1H736v-.75h7.8Zm0-6.65h-6.66v1H744v.72h-7.85V134.4h6.65v-.93h-6.69v-.72h7.69Z"/><path d="M750,139.64l-.41-.8a6.78,6.78,0,0,0,3.86-2.64l-3.74.32-.18-.83,4.28-.2a5.09,5.09,0,0,0,.3-1.35h-4v-.82h5C755.15,136.24,753.64,138.42,750,139.64Zm9,3.81h-7.45V140h1v2.65H759Zm-.32-2.66h-1v-3.94h-2.51V136h2.51v-3.59h1Z"/><path d="M766.12,137.52l-.53.76a4,4,0,0,1-2.2-2.27,4.51,4.51,0,0,1-2.31,2.51l-.54-.77a3.92,3.92,0,0,0,2.36-3.37V133h1v1.38A3.54,3.54,0,0,0,766.12,137.52Zm-2.46,3h5.47v-1.32h1v4.38h-7.44v-4.38h1Zm5.47,2.24v-1.43h-5.47v1.43Zm-1.24-4.12h-1v-3h-1.78v-.84h1.78v-2.17h1Zm2.22.09h-1v-6.27h1Z"/><path d="M782.08,142.19H771.75v-.84h10.33ZM781,136.24c0,1.88-1.76,3.11-4.12,3.09s-4.13-1.21-4.13-3.09,1.77-3.1,4.13-3.1S781,134.37,781,136.24Zm-7.3,0c0,1.37,1.36,2.28,3.18,2.28s3.16-.91,3.16-2.28-1.36-2.3-3.16-2.29S773.7,134.89,773.71,136.24Z"/><path d="M793.31,142.29H783v-.84h4.65v-2.13h-3.35v-3.48H791v-1.77h-6.78v-.83H792v3.42h-6.74v1.84h7v.82H788.6v2.13h4.71Z"/><path d="M804.11,137.21l-.53.78a4.63,4.63,0,0,1-2.75-2.48,4.65,4.65,0,0,1-2.84,2.76l-.55-.8a4,4,0,0,0,2.89-3.63v-1.07h1v1.07A3.76,3.76,0,0,0,804.11,137.21Zm2.7,4.29H800.5v1.24h6.73v.8h-7.7v-2.8h6.29v-1.13H799.5v-.8h7.31Zm0-3.26h-1v-2.93H803.3v-.83h2.51V132.4h1Z"/><path d="M815.38,137.91l-.52.8a4.61,4.61,0,0,1-2.73-2.58,4.94,4.94,0,0,1-2.88,2.9l-.52-.8a4.18,4.18,0,0,0,2.87-3.75v-.41h-2.55v-.84h6.08v.84H812.6v.4A3.86,3.86,0,0,0,815.38,137.91Zm2.7,3.67c0,1.33-1.44,2.1-3.79,2.11s-3.78-.78-3.78-2.11,1.43-2.09,3.78-2.09S818.08,140.25,818.08,141.58Zm-6.58,0c0,.81,1.07,1.31,2.79,1.31s2.79-.5,2.79-1.31-1.06-1.32-2.79-1.32S811.49,140.76,811.5,141.58Zm6.54-2.45h-1v-3h-2.27v-.82H817V132.4h1Z"/><path d="M826.56,135h-6.72v-.82h2.91v-1.68h1v1.68h2.82Zm-.54,3.53a2.77,2.77,0,1,1-2.76-2.59A2.58,2.58,0,0,1,826,138.57Zm-4.58,0a1.82,1.82,0,0,0,3.63,0,1.82,1.82,0,0,0-3.63,0Zm7.2-1.51h1.89v.83h-1.89v5.8h-1V132.4h1Z"/><path d="M836.53,134h3V132.4h1v6.45h-1v-1.5h-2.93a2.93,2.93,0,0,1-2.31,1,2.67,2.67,0,1,1,0-5.32A3,3,0,0,1,836.53,134Zm.1,8.67a3.35,3.35,0,0,0,1.63-2.68v-.77h1V140a3.1,3.1,0,0,0,2.31,2.82l-.52.76a3.84,3.84,0,0,1-2.28-2.14,3.9,3.9,0,0,1-2.11,2.23,3.55,3.55,0,0,1-2.12-2.2,4,4,0,0,1-2.26,2.11l-.5-.76a3.25,3.25,0,0,0,2.3-2.82v-.77h1V140A3.08,3.08,0,0,0,836.63,142.66Zm-4.34-7a1.82,1.82,0,0,0,2,1.82,1.82,1.82,0,1,0,0-3.63A1.81,1.81,0,0,0,832.29,135.69Zm4.86,0a2.84,2.84,0,0,1-.13.84h2.46V134.8H837A2.81,2.81,0,0,1,837.15,135.69Z"/><path d="M852.64,138.38H842.35v-.82h10.29Zm-.59-2.42-.36.8a5.81,5.81,0,0,1-4.18-2.43,5.85,5.85,0,0,1-4.19,2.43l-.38-.8c2-.27,4-1.46,4-2.9v-.53h1v.53C848,134.46,850.07,135.7,852.05,136Zm-7.4,4.54h5.64v-1.32h1v4.36h-7.63v-4.36h1Zm5.64,2.24v-1.45h-5.64v1.45Z"/><path d="M855.29,139.92a26.54,26.54,0,0,0,5.4-.55l.14.85a26.64,26.64,0,0,1-5.6.56h-.91v-7.26h1Zm7.59,3.77h-1V132.4h1Z"/><path d="M870.57,134.33h-4.28V140a26.61,26.61,0,0,0,5.17-.4l.12.86a28.13,28.13,0,0,1-5.39.38h-.89v-7.37h5.27Zm3,2.54h1.89v.84h-1.89v6h-1V132.4h1Z"/><path d="M876.41,141.91a.81.81,0,1,1,.81.83A.81.81,0,0,1,876.41,141.91Z"/><path d="M315,205.74l5.08-4.67c1.33-1.27,2-2,2-3.16a2.22,2.22,0,0,0-4.43.15h-2.8c0-2.77,2-4.53,5-4.53s5,1.72,5,4.18c0,1.6-.78,2.93-3.69,5.57l-2.15,2.09v.08h6v2.42H315Z"/><path d="M327.3,206.4a1.61,1.61,0,0,1,1.64-1.62,1.65,1.65,0,0,1,1.63,1.62,1.67,1.67,0,0,1-1.63,1.64A1.63,1.63,0,0,1,327.3,206.4Z"/><path d="M345.28,199.82l-1.34,1.92a5.89,5.89,0,0,1-3.17-3.05,6.39,6.39,0,0,1-3.44,3.51L336,200.27a5.63,5.63,0,0,0,3.51-5.29v-2h2.42v2A5,5,0,0,0,345.28,199.82Zm6.25,9.85h-2.48v-4.22h-9.8v-2h12.28Zm0-7h-2.36v-4.41h-1.48v4.32h-2.33v-10.4h2.33v4h1.48v-4.32h2.36Z"/><path d="M364.09,199.78l-1.33,1.94a6.59,6.59,0,0,1-4-3.4,6.8,6.8,0,0,1-4.18,3.88l-1.35-1.95a5.93,5.93,0,0,0,4.26-5.8v-1.62H360v1.85A5.27,5.27,0,0,0,364.09,199.78Zm3.73,6.45c0,2.19-2.32,3.44-6,3.44s-6.1-1.25-6.1-3.44,2.35-3.44,6.1-3.44S367.82,204.06,367.82,206.23Zm-9.59,0c0,1,1.25,1.48,3.6,1.48s3.53-.47,3.53-1.48-1.23-1.49-3.53-1.49S358.21,205.25,358.23,206.23Zm9.42-10.18h2.4v2.07h-2.4v4.32h-2.5V191.89h2.5Z"/><path d="M335.32,239.4h-1.15v-8h-.06l-2.23,1.48v-1.15l2.29-1.53h1.15Z"/><path d="M338.35,242h-1a11.94,11.94,0,0,0,0-12.18h1a10.45,10.45,0,0,1,1.83,6.08A10.56,10.56,0,0,1,338.35,242Z"/><path d="M355.33,236.4h-4.67v4h-1v-4H345v-.83h10.29Zm-.61-2.58-.37.79a5.71,5.71,0,0,1-4.16-2.6,5.75,5.75,0,0,1-4.14,2.6l-.4-.79c2-.29,4-1.57,4-3.08v-.08H346v-.81h8.34v.81h-3.6v.08C350.73,232.25,352.75,233.53,354.72,233.82Z"/><path d="M362,234.5l-.54.77a4.06,4.06,0,0,1-2.24-2.27,4.57,4.57,0,0,1-2.34,2.55l-.55-.78a4,4,0,0,0,2.4-3.42v-1.51h.95v1.51A3.51,3.51,0,0,0,362,234.5Zm3.91,5.92h-1v-3h-6.63v-.83h7.61Zm0-4.45h-1v-3h-1.49v3h-.94v-6.55h.94v2.75h1.49v-2.95h1Z"/><path d="M374.07,234.47l-.54.79a4.68,4.68,0,0,1-2.73-2.57,4.82,4.82,0,0,1-2.81,2.88l-.53-.8a4.2,4.2,0,0,0,2.83-3.88v-1.17h1V231A3.9,3.9,0,0,0,374.07,234.47Zm2.35,3.87c0,1.32-1.4,2.06-3.72,2.06s-3.74-.74-3.74-2.06,1.42-2,3.74-2S376.42,237.05,376.42,238.34Zm-6.46,0c0,.8,1,1.26,2.74,1.27s2.76-.47,2.76-1.27-1-1.24-2.76-1.24S370,237.57,370,238.34Zm6.36-6.26H378v.84h-1.7V236h-1v-6.87h1Z"/><path d="M381.25,229.81h1a12,12,0,0,0,0,12.18h-1a10.56,10.56,0,0,1-1.83-6.1A10.45,10.45,0,0,1,381.25,229.81Z"/><path d="M383.57,232.5h1.05v1.08h.09a1.87,1.87,0,0,1,1.85-1.17,1.89,1.89,0,0,1,1.84,1.17h.08a2.19,2.19,0,0,1,2.07-1.17c1.23,0,2.11.75,2.11,2.38v4.61h-1.1v-4.6a1.28,1.28,0,0,0-1.39-1.41,1.42,1.42,0,0,0-1.51,1.52v4.49h-1.11v-4.71a1.26,1.26,0,0,0-1.34-1.3,1.61,1.61,0,0,0-1.55,1.7v4.31h-1.09Z"/><path d="M396.66,235.41l1.86-.1v-.56c0-.88-.52-1.38-1.56-1.38a1.47,1.47,0,0,0-1.55.92h-1.14c.14-1.1,1.22-1.88,2.74-1.88a2.3,2.3,0,0,1,2.59,2.44v4.55h-1.08v-.94h0a2.17,2.17,0,0,1-2.05,1.1,2.13,2.13,0,0,1-2.35-2.12C394.07,235.85,395.46,235.5,396.66,235.41Zm-.05,3.17a1.74,1.74,0,0,0,1.91-1.68v-.7l-1.74.12c-1,.07-1.62.42-1.62,1.17S395.77,238.58,396.61,238.58Z"/><path d="M401.13,230.64a.75.75,0,0,1,.76-.73.73.73,0,1,1,0,1.45A.75.75,0,0,1,401.13,230.64Zm.22,1.86h1.09v6.9h-1.09Z"/><path d="M405.27,239.4h-1.09v-6.9h1.05v1.08h.09a2,2,0,0,1,2-1.17c1.39,0,2.32.85,2.32,2.61v4.38h-1.09v-4.31a1.5,1.5,0,0,0-1.56-1.7,1.69,1.69,0,0,0-1.74,1.87Z"/><path d="M414.34,236c0-2.09,1.24-3.57,3.12-3.57a2.58,2.58,0,0,1,2.74,2.17h-1.09a1.59,1.59,0,0,0-1.63-1.2c-1.23,0-2.05,1-2.05,2.56s.8,2.62,2.05,2.62a1.56,1.56,0,0,0,1.63-1.2h1.09a2.56,2.56,0,0,1-2.72,2.18C415.53,239.54,414.34,238.05,414.34,236Z"/><path d="M421.21,236c0-2.14,1.27-3.57,3.15-3.57s3.12,1.43,3.12,3.57-1.25,3.56-3.12,3.56S421.21,238.13,421.21,236Zm5.18,0c0-1.37-.65-2.6-2-2.6s-2.06,1.23-2.06,2.6.65,2.59,2.06,2.59S426.39,237.35,426.39,236Z"/><path d="M430,239.4h-1.09v-9.2H430Z"/><path d="M431.41,236c0-2.14,1.27-3.57,3.15-3.57s3.12,1.43,3.12,3.57-1.26,3.56-3.12,3.56S431.41,238.13,431.41,236Zm5.18,0c0-1.37-.65-2.6-2-2.6s-2.06,1.23-2.06,2.6.65,2.59,2.06,2.59S436.59,237.35,436.59,236Z"/><path d="M439.11,232.5h1.05v1.06h.08a1.85,1.85,0,0,1,1.77-1.17l.58,0v1.11a2.61,2.61,0,0,0-.66-.08,1.63,1.63,0,0,0-1.73,1.61v4.35h-1.09Z"/><path d="M444.22,242h-1a11.94,11.94,0,0,0,0-12.18h1a10.45,10.45,0,0,1,1.83,6.08A10.56,10.56,0,0,1,444.22,242Z"/><path d="M336.93,268.38h1.22v-3h.94v7.89h-.94v-4.05h-1.22a2.77,2.77,0,1,1,0-.83Zm-4.24.39a1.72,1.72,0,0,0,1.68,1.87,1.89,1.89,0,0,0,0-3.75A1.73,1.73,0,0,0,332.69,268.77Zm8.9,7.41h-7.74V272.5h1v2.85h6.75Zm-.34-2.59h-.95v-8.45h.95Z"/><path d="M348.68,267h-4.27v2.35h3.77v.82h-3.77v2.73a25.83,25.83,0,0,0,4.95-.35l.12.83a30.65,30.65,0,0,1-5.21.34h-.86v-7.54h5.27Zm3.57,9.45h-1v-6.22h-2.38v-.83h2.38v-4.26h1Z"/><path d="M358.76,267.32h-3.25v2.24h2.73v.8h-2.73v2.54a20.31,20.31,0,0,0,3.83-.31l.09.81a20.21,20.21,0,0,1-4.16.31h-.71v-7.19h4.2Zm2.7,8.52h-.95v-5.59h-1.66v-.82h1.66v-4h.95Zm2.32.58h-1V265.14h1Z"/><path d="M371.52,268.71a3,3,0,1,1-3-2.77A2.77,2.77,0,0,1,371.52,268.71Zm-4.94,0a2,2,0,0,0,4,0,2,2,0,0,0-4,0Zm8.43,7.47h-7.64v-3.62h1v2.79H375Zm-.35-2.78h-1v-8.25h1Z"/><path d="M382.28,268.3h2.64v-3.15h1v8.24h-1v-4.28h-2.64v2.25H377.1v-5.23h5.18Zm-4.19,2.26h3.21V267h-3.21Zm8.15,5.62h-7.57v-3.55h1v2.72h6.57Z"/><path d="M398.12,275H387.79v-.82h10.33Zm-1.19-2.89h-7.81v-5.94h7.68V267h-6.66v1.68h6.42v.8h-6.42v1.81h6.79Z"/><path d="M406.53,272.73l.08.74a41.26,41.26,0,0,1-7.39.49l-.14-.85A53.24,53.24,0,0,0,406.53,272.73Zm-.79-4.11a2.73,2.73,0,0,1-3,2.65c-1.78,0-3.06-1.08-3-2.65s1.27-2.66,3-2.66A2.73,2.73,0,0,1,405.74,268.62Zm-5.1,0a2.08,2.08,0,1,0,2.07-1.78A1.85,1.85,0,0,0,400.64,268.62Zm7.63,7.83h-1V265.14h1Z"/><path d="M422.47,266.36a14.53,14.53,0,0,1-.25,3h1.61v.8H413.5v-.8h7.72a13.94,13.94,0,0,0,.26-2.92h-6.67v-.82h7.66Zm0,7.79h-6.76v1.33h7.05v.82h-8.06v-2.94h6.78v-1.25h-6.79v-.8h7.78Z"/><path d="M435.06,275H424.72v-.84h4.65v-2.13H426v-3.48h6.75V266.8H426V266h7.76v3.41H427v1.84h7v.83h-3.67v2.13h4.71Z"/><path d="M445.29,271h-1v-2.54h-2.66v2.08h-5.12v-4.9h1v1.61h3.15v-1.61h1v2h2.66v-2.51h1Zm-4.63-1.27v-1.68h-3.15v1.68Zm4.63,4.48H439v1.23h6.72v.8H438v-2.79h6.29v-1.11H438v-.8h7.31Z"/><path d="M448,278h-.94l.7-3.45H449Z"/><path d="M464.1,275H453.76v-.84h4.65v-2.76H455v-5.29h7.83v5.29h-3.42v2.76h4.71Zm-8.14-4.4h5.89v-3.69H456Z"/><path d="M470.84,266.92h-4.21v4a23.33,23.33,0,0,0,4.85-.37l.12.83a27.48,27.48,0,0,1-5.1.37h-.85v-5.64h5.19Zm3.81,9.33h-7.58v-3.48h1v2.66h6.58Zm-.31-2.86h-1V269.1H470.1v-.81h3.24v-3.14h1Z"/><path d="M483,267.17h-6.73v-.83h2.87v-1.29h1v1.29H483Zm-.65,2.56c0,1.24-1.09,2-2.72,2s-2.73-.78-2.71-2,1.07-2,2.71-2S482.31,268.53,482.32,269.73Zm-4.48,0c0,.78.7,1.25,1.76,1.26s1.77-.48,1.78-1.26-.72-1.23-1.78-1.23S477.83,269,477.84,269.73Zm7.2,6.54h-7.13v-3.68H485Zm-6.15-.81h5.16v-2.07h-5.16Zm6.15-7.31h1.7V269H485v2.94h-1v-6.8h1Z"/><path d="M490.74,273.05c1.25-.05,2.53-.13,3.71-.27l.05.75a46.37,46.37,0,0,1-7.05.41l-.13-.83c.75,0,1.57,0,2.44,0v-3.45h1Zm3-6.07a32.11,32.11,0,0,1-.33,4.48l-1-.09a24.37,24.37,0,0,0,.33-4.16H488v-.81h5.74Zm2.45,2.88H498v.86h-1.82v5.7h-1V265.14h1Z"/><path d="M512.26,275H501.92v-.82h10.34Zm-1.2-2.89h-7.8v-5.94h7.68V267h-6.67v1.68h6.43v.8h-6.43v1.81h6.79Z"/><path d="M517.67,269.29h-3v1.78a19.78,19.78,0,0,0,3.91-.33l.11.81a21,21,0,0,1-4.28.33h-.72v-3.35h3v-1.67h-3.06v-.8h4Zm5.41,6.89h-7.75v-3.4h1v2.57h6.76Zm-2.58-2.85h-1v-4.21h-1.41v-.83h1.41v-2.94h1Zm2.23.3h-1v-8.48h1Z"/><path d="M530.48,267.06h-4.37v5.72a28.3,28.3,0,0,0,5.33-.37l.11.84a29.49,29.49,0,0,1-5.53.39h-.91v-7.42h5.37Zm3.2,9.39h-1V265.14h1Z"/><path d="M542.35,267.17h-6.73v-.83h2.87v-1.29h1v1.29h2.87Zm-.65,2.56c0,1.24-1.09,2-2.71,2s-2.73-.78-2.72-2,1.08-2,2.72-2S541.69,268.53,541.7,269.73Zm-4.48,0c0,.78.7,1.25,1.77,1.26s1.76-.48,1.77-1.26S540,268.5,539,268.5,537.21,269,537.22,269.73Zm7.2,6.54H537.3v-3.68h7.12Zm-6.14-.81h5.15v-2.07h-5.15Zm6.14-7.31h1.7V269h-1.7v2.94h-1v-6.8h1Z"/><path d="M547.69,278h-.94l.69-3.45h1.24Z"/><path d="M563.7,274.82H553.41V274h4v-4h1v4h5.27Zm-1.24-7.41a27.47,27.47,0,0,1-.42,5.21l-1-.12a23.84,23.84,0,0,0,.43-5.09v-.3h-7v-.83h8Z"/><path d="M573.61,266.48a14.3,14.3,0,0,1-.3,3.28H575v.82H564.64v-.82h7.69a14.73,14.73,0,0,0,.29-3.28h-6.68v-.82h7.67ZM567,273.1h5.65v-1.5h1v4.67H566V271.6h1Zm5.65,2.36v-1.57H567v1.57Z"/><path d="M586.2,274.89H575.86v-.83H586.2Zm-.54-4.06-.45.83a6.21,6.21,0,0,1-4.23-3.27,6.27,6.27,0,0,1-4.23,3.27l-.46-.83c2-.39,4.16-2.09,4.16-4v-.86h1v.86C581.49,268.73,583.7,270.46,585.66,270.83Z"/><path d="M592.56,270.14h-4v2.74a24.63,24.63,0,0,0,5-.37l.08.84a28,28,0,0,1-5.21.38h-.86v-4.42h4.07V267h-4.11v-.83h5.08Zm3.87,6.31h-1v-6.13h-2.2v-.84h2.2v-4.34h1Z"/><path d="M607.34,276.27h-7.77v-3.71H603v-1.29h-4.65v-.83h10.28v.83h-4.65v1.29h3.4Zm.1-8.78c0,1.32-1.54,2.09-4,2.09s-4-.77-4-2.09,1.55-2.14,4-2.14S607.44,266.14,607.44,267.49Zm-7,0c0,.82,1.14,1.3,3,1.3s3-.48,3-1.3-1.16-1.35-3-1.35S600.47,266.64,600.48,267.49Zm.08,8h5.8v-2.1h-5.8Z"/><path d="M619.82,270.84H609.54V270h10.28Zm-1.15-3.56c0,1.29-1.48,2-4,2s-4-.69-4-2,1.49-1.94,4-1.94S618.67,266,618.67,267.28Zm-.17,7.06h-6.7v1.17h7v.79h-8v-2.69h6.71v-1h-6.74v-.76h7.72Zm-6.78-7.06c0,.79,1.08,1.22,3,1.22s3-.43,3-1.22-1.11-1.19-3-1.19S611.71,266.55,611.72,267.28Z"/><path d="M630.66,270l-.47.77a4.43,4.43,0,0,1-2.83-2.28,4.51,4.51,0,0,1-2.93,2.57l-.5-.77a3.78,3.78,0,0,0,2.91-3.33v-.35h-2.56v-.81h6.08v.81h-2.52v.33C627.83,268.27,629,269.49,630.66,270Zm2.18,4.2h-6.19v1.35h6.61v.78h-7.59v-2.87h6.18v-1.16h-6.2v-.8h7.19Zm0-6.58h1.71v.83h-1.71V271h-1v-5.83h1Z"/><path d="M645.09,269.8l-.53.77a4.48,4.48,0,0,1-2.73-2.44,4.7,4.7,0,0,1-2.88,2.78l-.51-.8a4,4,0,0,0,2.87-3.68v-.9h1v.9A3.7,3.7,0,0,0,645.09,269.8Zm2.24,4.44h-6.2v1.24h6.62v.82h-7.59v-2.82h6.18v-1.13h-6.21v-.8h7.2Zm0-6.63H649v.84h-1.7V271h-1v-5.9h1Z"/><path d="M655.48,268.45h-4.19v1.4a32.87,32.87,0,0,0,5.36-.33l.09.77a32.31,32.31,0,0,1-5.52.36h-.92v-2.93h4.2v-1.25h-4.24v-.77h5.22Zm3.57,5.79h-6.32v1.26h6.73v.8h-7.72v-2.81H658v-1.12h-6.32v-.78h7.34Zm0-3.15h-1v-5.95h1Z"/><path d="M674.5,272.34h-4.67v4.08h-1v-4.08h-4.63v-.84H674.5Zm-.51-2.9-.41.81a5.86,5.86,0,0,1-4.21-2.65,5.81,5.81,0,0,1-4.21,2.65l-.41-.81c2-.28,4.1-1.64,4.1-3.25v-.65h1v.65C669.88,267.78,672,269.16,674,269.44Z"/><path d="M684.88,268.45a3,3,0,1,1-3-2.64A2.69,2.69,0,0,1,684.88,268.45Zm-.75,6.93a3.36,3.36,0,0,0,1.64-2.66v-.62h1v.62a3.15,3.15,0,0,0,2.3,2.82l-.5.73a3.82,3.82,0,0,1-2.31-2.13,3.89,3.89,0,0,1-2.08,2.22,3.56,3.56,0,0,1-2.13-2.2,3.93,3.93,0,0,1-2.26,2.11l-.51-.73a3.34,3.34,0,0,0,2.3-2.82v-.62h1v.62A3.08,3.08,0,0,0,684.13,275.38Zm-4.19-6.93a2,2,0,1,0,2-1.79A1.83,1.83,0,0,0,679.94,268.45ZM688,271.6h-1v-6.45h1Z"/><path d="M700.21,271.45H689.93v-.83h10.28Zm-1.16-3.91c0,1.33-1.53,2.11-4,2.11s-4-.78-4-2.11,1.55-2.15,4-2.15S699.05,266.18,699.05,267.54Zm-.1,8.73h-7.77v-3.71H699Zm-6.85-8.73c0,.82,1.14,1.31,3,1.32s3-.5,3-1.32-1.17-1.35-3-1.35S692.08,266.7,692.1,267.54Zm.07,7.92H698v-2.1h-5.8Z"/><path d="M704.45,273.05c1.25-.05,2.53-.13,3.71-.27l.05.75a46.37,46.37,0,0,1-7.05.41l-.12-.83c.74,0,1.56,0,2.43,0v-3.45h1Zm3-6.07a29.22,29.22,0,0,1-.33,4.48l-1-.09a25.47,25.47,0,0,0,.33-4.16h-4.74v-.81h5.74Zm2.45,2.88h1.83v.86h-1.83v5.7h-1V265.14h1Z"/><path d="M725.93,271.52H715.64v-.8h4.65V269.4h-3.35v-3.73h7.71v.8h-6.73v2.12h6.81v.81h-3.47v1.32h4.67Zm-1.27,2.86c0,1.31-1.46,2-3.88,2s-3.9-.73-3.9-2,1.46-2,3.9-2S724.65,273.09,724.66,274.38Zm-6.76,0c0,.79,1.06,1.24,2.88,1.24s2.88-.45,2.88-1.24-1.09-1.24-2.88-1.24S717.88,273.61,717.9,274.38Z"/><path d="M733.93,273.06l-.61.79a6.17,6.17,0,0,1-2.93-3.57,6.35,6.35,0,0,1-3,3.8l-.63-.84a5.9,5.9,0,0,0,3.08-5.07v-2.05h1v2.05A5.65,5.65,0,0,0,733.93,273.06Zm2.24,3.39h-1V265.14h1Z"/><path d="M745.49,275.85h-1v-5.48h-1.44c-.11,2.19-1,3.57-2.44,3.57s-2.43-1.53-2.43-3.93,1-3.92,2.43-3.92,2.3,1.33,2.42,3.45h1.46v-4.16h1ZM739.16,270c0,1.83.58,3,1.49,3s1.5-1.14,1.5-3-.59-3-1.5-3S739.15,268.17,739.16,270Zm8.6,6.41h-1V265.14h1Z"/><path d="M336.89,284.2v6.57a2.48,2.48,0,0,1-2.64,2.75,2.34,2.34,0,0,1-2.62-2.29h1.13a1.34,1.34,0,0,0,1.49,1.28c1,0,1.49-.6,1.49-1.74V284.2Z"/><path d="M339.44,284.2l2.53,4.27h.11l2.53-4.27h1.32l-3.33,5.43v3.77h-1.15v-3.77l-3.32-5.43Z"/><path d="M347.15,284.2h3.12a2.94,2.94,0,1,1,0,5.86h-2v3.34h-1.14Zm3.09,4.84a1.78,1.78,0,0,0,2-1.92c0-1.1-.58-1.9-2.06-1.9h-1.93V289Z"/><path d="M363,286.38h1.22v-3h.94v7.89h-.94v-4.05H363a2.77,2.77,0,1,1,0-.83Zm-4.24.39a1.72,1.72,0,0,0,1.68,1.87,1.89,1.89,0,0,0,0-3.75A1.73,1.73,0,0,0,358.73,286.77Zm8.9,7.41h-7.74V290.5h1v2.85h6.75Zm-.34-2.59h-1v-8.45h1Z"/><path d="M374.72,285h-4.27v2.35h3.77v.82h-3.77v2.73a25.83,25.83,0,0,0,4.95-.35l.12.83a30.65,30.65,0,0,1-5.21.34h-.86v-7.54h5.27Zm3.57,9.45h-1v-6.22h-2.38v-.83h2.38v-4.26h1Z"/><path d="M384.8,285.32h-3.25v2.24h2.73v.8h-2.73v2.54a20.31,20.31,0,0,0,3.83-.31l.09.81a20.21,20.21,0,0,1-4.16.31h-.71v-7.19h4.2Zm2.7,8.52h-.95v-5.59h-1.66v-.82h1.66v-4h.95Zm2.31.58h-1V283.14h1Z"/><path d="M397.56,286.71a3,3,0,1,1-3-2.77A2.77,2.77,0,0,1,397.56,286.71Zm-4.94,0a2,2,0,0,0,4,0,2,2,0,0,0-4,0Zm8.43,7.47h-7.64v-3.62h1v2.79h6.65Zm-.35-2.78h-1v-8.25h1Z"/><path d="M408.32,286.3H411v-3.15h1v8.24h-1v-4.28h-2.64v2.25h-5.18v-5.23h5.18Zm-4.19,2.26h3.21V285h-3.21Zm8.15,5.62h-7.57v-3.55h1v2.72h6.57Z"/><path d="M424.16,293H413.83v-.82h10.33ZM423,290.06h-7.81v-5.94h7.68V285h-6.66v1.68h6.42v.8h-6.42v1.81H423Z"/><path d="M432.57,290.73l.08.74a41.26,41.26,0,0,1-7.39.49l-.14-.85A53.24,53.24,0,0,0,432.57,290.73Zm-.79-4.11a2.73,2.73,0,0,1-3,2.65c-1.78,0-3.06-1.08-3.05-2.65S427,284,428.75,284A2.73,2.73,0,0,1,431.78,286.62Zm-5.1,0a2.08,2.08,0,1,0,2.07-1.78A1.85,1.85,0,0,0,426.68,286.62Zm7.63,7.83h-1V283.14h1Z"/><path d="M444.27,287.4H446v-4h.95v10.47H446v-5.62h-1.72v3.16H440v-6.93h4.31Zm-3.37,3.19h2.43v-5.33H440.9Zm8.31,3.83h-1V283.14h1Z"/><path d="M457,286.71a3,3,0,1,1-3-2.77A2.77,2.77,0,0,1,457,286.71Zm-4.94,0a2,2,0,0,0,4,0,2,2,0,0,0-4,0Zm8.43,7.47h-7.65v-3.62h1v2.79h6.65Zm-.36-2.78h-1v-8.25h1Z"/><path d="M462.69,289.36l-.37-.79a6.21,6.21,0,0,0,3.79-2.22l-3.68.27-.16-.8,4.24-.19a4,4,0,0,0,.26-1.13h-3.93v-.8h5C467.83,286.53,466.19,288.43,462.69,289.36Zm8.65,2.84H465v1.27h6.69v.8h-7.67v-2.82h6.29V290.3H464v-.8h7.31Zm0-3.21h-1v-2.3h-2.47v-.82h2.47v-2.73h1Z"/><path d="M478.68,288.14h-4.05v2.74a24.68,24.68,0,0,0,5-.37l.07.84a28,28,0,0,1-5.2.38h-.87v-4.42h4.08V285h-4.11v-.83h5.07Zm3.88,6.31h-1v-6.13h-2.2v-.84h2.2v-4.34h1Z"/><path d="M490.62,286.71a3,3,0,1,1-3-2.77A2.77,2.77,0,0,1,490.62,286.71Zm-4.94,0a2,2,0,0,0,4,0,2,2,0,0,0-4,0Zm8.43,7.47h-7.64v-3.62h1v2.79h6.65Zm-.35-2.78h-1v-8.25h1Z"/><path d="M509.21,288.84H498.92V288h10.29Zm-1.32,3.54h-6.71v1.13h7.05v.79h-8v-2.66h6.72v-1h-6.74v-.76h7.72Zm-6.61-7.95h5.59v-1.09h1v3.72h-7.57v-3.72h1Zm5.59,1.87v-1.11h-5.59v1.11Z"/><path d="M520.47,290.81h-4.7v3.64h-1v-3.64h-4.64V290h10.33Zm-1.26-4.28h-6.8V288h7v.82h-8v-3.07h6.79v-1.33h-6.82v-.81h7.83Z"/><path d="M527.05,288.5l-.54.77a4.09,4.09,0,0,1-2.24-2.27,4.54,4.54,0,0,1-2.34,2.55l-.54-.78a4,4,0,0,0,2.4-3.42v-1.51h1v1.51A3.5,3.5,0,0,0,527.05,288.5Zm3.91,5.92h-1v-3h-6.63v-.83H531Zm0-4.45h-1v-3h-1.5v3h-.94v-6.55h.94v2.75H530v-3h1Z"/><path d="M539.17,288.47l-.54.79a4.68,4.68,0,0,1-2.73-2.57,4.79,4.79,0,0,1-2.81,2.88l-.53-.8a4.2,4.2,0,0,0,2.83-3.88v-1.17h1V285A3.91,3.91,0,0,0,539.17,288.47Zm2.35,3.87c0,1.32-1.39,2.06-3.72,2.06s-3.74-.74-3.74-2.06,1.42-2,3.74-2S541.52,291.05,541.52,292.34Zm-6.46,0c0,.8,1,1.26,2.74,1.27s2.76-.47,2.76-1.27-1-1.24-2.76-1.24S535.05,291.57,535.06,292.34Zm6.36-6.26h1.7v.84h-1.7V290h-1v-6.87h1Z"/><path d="M554.11,288.84H543.82V288h10.29ZM553,285.28c0,1.29-1.47,2-4,2s-4-.69-4-2,1.48-1.94,4-1.94S553,284,553,285.28Zm-.16,7.06h-6.71v1.17h7v.79h-8v-2.69h6.72v-1h-6.74v-.76h7.72ZM546,285.28c0,.79,1.08,1.22,3,1.22s3-.43,3-1.22-1.11-1.19-3-1.19S546,284.55,546,285.28Z"/><path d="M564.06,285.06h-4.18v5.75a24.42,24.42,0,0,0,4.94-.37l.13.82a25.42,25.42,0,0,1-5.21.4h-.86v-7.44h5.18Zm3.62,9.39h-1v-6.37h-3.28v-.83h3.28v-4.11h1Z"/><path d="M579.82,289.45h-4.66v1.36h3.39v3.61h-1v-2.81h-6.86v-.8h3.5v-1.36h-4.65v-.81h10.29Zm-1.16-3.86c0,1.36-1.54,2.17-4,2.16s-4-.8-4-2.16,1.54-2.19,4-2.17S578.66,284.22,578.66,285.59Zm-7,0c0,.86,1.15,1.37,3,1.37s3-.51,3-1.37-1.17-1.39-3-1.37S571.69,284.74,571.7,285.59Z"/><path d="M584.45,289.93l-.42-.81c2.72-.79,4.46-2.36,4.67-4.32h-4.17V284h5.24C589.77,286.85,587.74,289,584.45,289.93Zm8.52,2.29c0,1.37-1.42,2.18-3.7,2.18s-3.7-.81-3.69-2.18S587,290,589.27,290,593,290.87,593,292.22Zm-6.4,0c0,.85,1,1.38,2.7,1.38s2.73-.53,2.73-1.38-1.06-1.39-2.73-1.38S586.56,291.36,586.57,292.22Zm6.27-6.14h1.7v.83h-1.7v3h-1v-6.78h1Z"/><path d="M605.58,293H595.24v-.84h4.66V289.4h1v2.74h4.68Zm-.5-4-.41.79a6,6,0,0,1-4.26-3,6.14,6.14,0,0,1-4.24,3.06l-.42-.8c1.9-.33,4.13-1.9,4.13-3.71V285h-3.79v-.83h8.6V285H600.9v.28C600.9,287.09,603.14,288.64,605.08,289Z"/><path d="M613.12,285.78H606.4V285h2.91v-1.67h1V285h2.82Zm-.53,3.53a2.78,2.78,0,0,1-5.54,0,2.78,2.78,0,0,1,5.54,0Zm-4.59,0a1.82,1.82,0,0,0,3.63,0,1.82,1.82,0,0,0-3.63,0Zm7.2-1.51h1.89v.82H615.2v5.8h-1V283.14h1Z"/><path d="M618.38,292.3l-.55-.81c3-1.45,4.61-3.61,4.84-6.31h-4.32v-.81h5.33C623.67,287.62,622.16,290.49,618.38,292.3Zm8.64,2.12h-1V283.14h1Z"/><path d="M639.68,288.86l.06.75a26.16,26.16,0,0,1-3.28.38v4.09h-1v-4c-1.14.05-2.23.05-3.17.06l-.14-.85A54.41,54.41,0,0,0,639.68,288.86Zm-.89-2.87c0,1.38-1.21,2.33-2.89,2.32s-2.9-.94-2.9-2.32,1.21-2.31,2.9-2.29S638.79,284.61,638.79,286ZM634,286c0,.89.79,1.5,1.92,1.49s1.94-.6,1.94-1.49-.8-1.49-1.94-1.48S634,285.12,634,286Zm7.5,8.45h-1V283.15h1Z"/><path d="M649,285.91h-5.66v-.82h2.35v-1.61h1v1.61H649Zm-.38,3.32a2.44,2.44,0,1,1-4.88,0,2.44,2.44,0,1,1,4.88,0Zm-4,0a1.56,1.56,0,1,0,3.1,0,1.56,1.56,0,1,0-3.1,0Zm8.34,5.19h-1v-5.7h-1.5v5.15h-.94V283.42h.94v4.48h1.5v-4.76h1Z"/><path d="M659.26,287h2.45v-2.75h.92v7.39h-4.32v-7.39h1Zm2.45,3.81v-3h-2.45v3Zm5.85,3.64h-1v-6H665v5.41h-.95V283.38H665v4.24h1.58v-4.48h1Z"/><path d="M678.47,289.93h-1v-1.52h-3v-.83h3v-1.52h-2.89c-.74,1.81-2.48,3.13-4.9,3.84l-.42-.78c2.73-.81,4.43-2.34,4.64-4.29h-4.06V284H675a5.81,5.81,0,0,1-.14,1.27h2.63v-2.11h1Zm.06,2.27c0,1.36-1.47,2.17-3.76,2.17s-3.77-.81-3.77-2.17,1.46-2.16,3.77-2.16S678.53,290.86,678.53,292.2Zm-6.55,0c0,.85,1.09,1.36,2.79,1.36s2.76-.51,2.77-1.36-1.09-1.37-2.77-1.36S672,291.35,672,292.2Z"/><path d="M690.62,288.84H680.34V288h10.28Zm-1.16-3.56c0,1.29-1.47,2-4,2s-4-.69-4-2,1.48-1.94,4-1.94S689.46,284,689.46,285.28Zm-.16,7.06h-6.7v1.17h7v.79h-8v-2.69h6.71v-1h-6.74v-.76h7.72Zm-6.78-7.06c0,.79,1.08,1.22,3,1.22s3-.43,3-1.22-1.11-1.19-3-1.19S682.51,284.55,682.52,285.28Z"/><path d="M705.16,293H694.82v-.85h4.64v-2.61h-3.7v-.8h1.77v-3.7h-1.79v-.83h8.43v.83h-1.79v3.7h1.76v.8h-3.71v2.61h4.73Zm-3.76-4.26v-3.7h-2.88v3.7Z"/><path d="M712.8,285.17h-6.73v-.83h2.87v-1.29h1v1.29h2.87Zm-.65,2.56c0,1.24-1.09,2-2.71,2s-2.73-.78-2.72-2,1.08-2,2.72-2S712.14,286.53,712.15,287.73Zm-4.48,0c0,.78.7,1.25,1.77,1.26s1.76-.48,1.77-1.26-.72-1.23-1.77-1.23S707.66,287,707.67,287.73Zm7.2,6.54h-7.12v-3.68h7.12Zm-6.14-.81h5.15v-2.07h-5.15Zm6.14-7.31h1.7V287h-1.7v2.94h-1v-6.8h1Z"/><path d="M724,285.35H717.3v-.82h2.87v-1.38h1v1.38H724Zm-.65,2.73c0,1.27-1.11,2.08-2.72,2.08s-2.73-.81-2.72-2.08S719,286,720.66,286,723.37,286.79,723.38,288.08Zm-4.48,0c0,.8.69,1.3,1.76,1.29s1.77-.49,1.78-1.29-.73-1.32-1.78-1.32S718.88,287.28,718.9,288.08Zm7.72,6.1H719v-3.25h1v2.42h6.61Zm-.53-7.31h1.71v.84h-1.71v3.9h-1v-8.46h1Z"/><path d="M742,290.4h-4.67v4h-1v-4h-4.63v-.83H742Zm-.61-2.58-.37.79a5.71,5.71,0,0,1-4.16-2.6,5.75,5.75,0,0,1-4.14,2.6l-.39-.79c2-.29,4-1.57,4-3.08v-.08h-3.62v-.81h8.34v.81h-3.6v.08C737.44,286.25,739.46,287.53,741.43,287.82Z"/><path d="M748.66,288.5l-.54.77a4.09,4.09,0,0,1-2.24-2.27,4.57,4.57,0,0,1-2.34,2.55l-.55-.78a4,4,0,0,0,2.4-3.42v-1.51h1v1.51A3.5,3.5,0,0,0,748.66,288.5Zm3.91,5.92h-1v-3H745v-.83h7.61Zm0-4.45h-1v-3h-1.49v3h-.94v-6.55h.94v2.75h1.49v-3h1Z"/><path d="M760.78,288.47l-.54.79a4.68,4.68,0,0,1-2.73-2.57,4.82,4.82,0,0,1-2.81,2.88l-.53-.8a4.2,4.2,0,0,0,2.83-3.88v-1.17h1V285A3.9,3.9,0,0,0,760.78,288.47Zm2.35,3.87c0,1.32-1.4,2.06-3.72,2.06s-3.74-.74-3.74-2.06,1.42-2,3.74-2S763.13,291.05,763.13,292.34Zm-6.46,0c0,.8,1,1.26,2.74,1.27s2.76-.47,2.76-1.27-1-1.24-2.76-1.24S756.66,291.57,756.67,292.34Zm6.36-6.26h1.7v.84H763V290h-1v-6.87h1Z"/><path d="M775.71,288.84H765.43V288h10.28Zm-1.15-3.56c0,1.29-1.47,2-4,2s-4-.69-4-2,1.49-1.94,4-1.94S774.56,284,774.56,285.28Zm-.17,7.06h-6.7v1.17h7v.79h-8v-2.69h6.72v-1h-6.74v-.76h7.71Zm-6.77-7.06c0,.79,1.07,1.22,3,1.22s3-.43,3-1.22-1.1-1.19-3-1.19S767.6,284.55,767.62,285.28Z"/><path d="M790.2,288.84H779.92V288H790.2Zm-1.32,3.54h-6.7v1.13h7v.79h-8v-2.66h6.71v-1h-6.74v-.76h7.72Zm-6.6-7.95h5.58v-1.09h1v3.72h-7.56v-3.72h1Zm5.58,1.87v-1.11h-5.58v1.11Z"/><path d="M795.91,287.12h-3.28v1.68a17.53,17.53,0,0,0,4-.36l.11.84a21.94,21.94,0,0,1-4.3.33h-.74v-3.25H795v-1.58h-3.32V284h4.27Zm4.82,7.3h-1v-2.84h-6.63v-.81h7.61Zm0-4.22h-1V287h-1.58v3.1h-.93v-6.73h.93v2.8h1.58v-3h1Z"/><path d="M809.74,293.85h-1v-3.91H806.7v-.82h2.09v-2h-1.9A8.33,8.33,0,0,1,803,292l-.61-.73a7.33,7.33,0,0,0,3.89-5.85h-3.38v-.82h4.37a9.68,9.68,0,0,1-.15,1.7h1.71v-2.85h1Zm2.29.57h-.95V283.14H812Z"/><path d="M819.05,284.52h2.89v-1.38h1v5.8h-1v-1.29h-2.85a3.06,3.06,0,0,1-2.39,1,2.58,2.58,0,1,1,0-5.12A3,3,0,0,1,819.05,284.52Zm-4.33,1.58a2,2,0,0,0,3.94,0,2,2,0,0,0-3.94,0Zm8.21,6.12h-6.29v1.25h6.73v.8h-7.72v-2.82h6.29v-1.14h-6.32v-.8h7.31Zm-3.31-6.12a2.67,2.67,0,0,1-.11.75h2.43v-1.53h-2.43A2.77,2.77,0,0,1,819.62,286.1Z"/><path d="M835.15,293H824.82v-.84h4.64v-2.13h-3.35v-3.48h6.76V284.8h-6.78V284h7.75v3.41H827.1v1.84h7v.83h-3.67v2.13h4.71Z"/><path d="M846,288l-.53.77a4.6,4.6,0,0,1-2.74-2.47,4.65,4.65,0,0,1-2.85,2.75l-.54-.8a3.94,3.94,0,0,0,2.88-3.63v-1.06h1v1.06A3.75,3.75,0,0,0,846,288Zm2.71,4.29h-6.31v1.23h6.73v.8h-7.71v-2.79h6.3v-1.13h-6.33v-.8h7.32Zm0-3.26h-1v-2.93h-2.51v-.83h2.51v-2.08h1Z"/><path d="M857.23,288.65l-.52.8a4.64,4.64,0,0,1-2.73-2.58,5,5,0,0,1-2.88,2.9l-.52-.8a4.2,4.2,0,0,0,2.87-3.75v-.42h-2.56V284H857v.84h-2.52v.41A3.86,3.86,0,0,0,857.23,288.65Zm2.69,3.67c0,1.33-1.43,2.09-3.78,2.1s-3.79-.77-3.79-2.1,1.44-2.1,3.79-2.1S859.92,291,859.92,292.32Zm-6.58,0c0,.81,1.07,1.3,2.8,1.3s2.79-.49,2.79-1.3-1.07-1.32-2.79-1.32S853.33,291.49,853.34,292.32Zm6.54-2.45h-1v-3h-2.27v-.83h2.27v-2.94h1Z"/><path d="M868.4,285.78h-6.71V285h2.9v-1.67h1V285h2.82Zm-.53,3.53a2.78,2.78,0,1,1-2.77-2.59A2.59,2.59,0,0,1,867.87,289.31Zm-4.58,0a1.69,1.69,0,0,0,1.81,1.74,1.72,1.72,0,0,0,1.82-1.74,1.74,1.74,0,0,0-1.82-1.75A1.71,1.71,0,0,0,863.29,289.31Zm7.2-1.51h1.89v.82h-1.89v5.8h-1V283.14h1Z"/><path d="M878.37,284.73h3v-1.59h1v6.45h-1v-1.5H878.4a3,3,0,0,1-2.31,1,2.67,2.67,0,1,1,0-5.32A3,3,0,0,1,878.37,284.73Zm.1,8.67a3.36,3.36,0,0,0,1.64-2.68v-.78h1v.78a3.12,3.12,0,0,0,2.31,2.82l-.52.76a3.84,3.84,0,0,1-2.29-2.15,3.93,3.93,0,0,1-2.1,2.24,3.59,3.59,0,0,1-2.12-2.2,4.09,4.09,0,0,1-2.26,2.11l-.5-.76a3.26,3.26,0,0,0,2.3-2.82v-.78h1v.78A3.08,3.08,0,0,0,878.47,293.4Zm-4.34-7a2,2,0,1,0,2-1.82A1.82,1.82,0,0,0,874.13,286.43Zm4.86,0a3.2,3.2,0,0,1-.12.83h2.46v-1.72h-2.49A2.56,2.56,0,0,1,879,286.43Z"/><path d="M894.48,289.12H884.2v-.83h10.28Zm-.58-2.43-.37.8a5.84,5.84,0,0,1-4.18-2.42,5.88,5.88,0,0,1-4.18,2.42l-.39-.8c2-.26,4.05-1.46,4.05-2.89v-.53h1v.53C889.86,285.19,891.92,286.44,893.9,286.69Zm-7.4,4.55h5.63v-1.32h1v4.35h-7.63v-4.35h1Zm5.63,2.23V292H886.5v1.45Z"/><path d="M897.14,290.65a25.88,25.88,0,0,0,5.4-.54l.13.85a26.48,26.48,0,0,1-5.59.56h-.92v-7.26h1Zm7.59,3.77h-1V283.14h1Z"/><path d="M912.41,285.07h-4.27v5.71a25.64,25.64,0,0,0,5.16-.41l.13.87a28.18,28.18,0,0,1-5.4.38h-.88v-7.38h5.26Zm3,2.54h1.9v.83h-1.9v6h-1V283.14h1Z"/><path d="M918.26,292.65a.8.8,0,0,1,.81-.82.82.82,0,0,1,0,1.64A.8.8,0,0,1,918.26,292.65Z"/><rect class="cls-3" x="330.72" y="313.71" width="123.28" height="123.28" rx="12.57"/><path class="cls-2" d="M346.89,333.42h4.22c2.35,0,3.52,1.13,3.52,2.73a2.26,2.26,0,0,1-1.91,2.27v.1a2.47,2.47,0,0,1,2.33,2.58c0,1.68-1.26,2.93-3.66,2.93h-4.5Zm5.51,3.08c0-.76-.56-1.29-1.57-1.29h-1.74v2.65h1.7C351.71,337.86,352.4,337.35,352.4,336.5Zm.37,4.39a1.56,1.56,0,0,0-1.76-1.52h-1.92v2.84H351C352.23,342.21,352.77,341.68,352.77,340.89Z"/><path class="cls-2" d="M356.44,333.42h2.2v8.79h4.57V344h-6.77Z"/><path class="cls-2" d="M364.31,344,368,333.42h2.82L374.48,344h-2.36l-.79-2.45h-3.84l-.81,2.45Zm6.46-4.16-1.33-4.06h-.08l-1.31,4.06Z"/><path class="cls-2" d="M380,335.22c-1.66,0-2.74,1.28-2.74,3.5s1.09,3.5,2.72,3.5a2.2,2.2,0,0,0,2.33-1.81h2.23a4.37,4.37,0,0,1-4.59,3.75c-2.84,0-4.94-2-4.94-5.45s2.14-5.45,4.94-5.45a4.29,4.29,0,0,1,4.59,3.84h-2.23A2.18,2.18,0,0,0,380,335.22Z"/><path class="cls-2" d="M386,333.42h2.2v4.7h.15l3.85-4.7h2.65l-3.95,4.75,4,5.86h-2.64l-3-4.38L388.23,341v3H386Z"/><path class="cls-2" d="M346.86,388.21h2.64c1.83,0,2.66,1,2.66,2.4a2.15,2.15,0,0,1-1.45,2.18l1.75,3.2h-1.13l-1.62-3h-1.88v3h-1Zm2.61,3.88c1.24,0,1.73-.56,1.73-1.48s-.49-1.54-1.74-1.54h-1.63v3Z"/><path class="cls-2" d="M356.66,389c-1.38,0-2.47,1.08-2.47,3.09s1.09,3.09,2.53,3.09a2.14,2.14,0,0,0,2.24-2.25h-2v-.85h3v.84a3,3,0,0,1-3.18,3.17c-2.07,0-3.47-1.54-3.47-4s1.41-4,3.41-4a3.14,3.14,0,0,1,3.2,2.54h-1A2.22,2.22,0,0,0,356.66,389Z"/><path class="cls-2" d="M361.35,388.21h2.73c1.63,0,2.39.91,2.39,2.06a1.58,1.58,0,0,1-1.26,1.64V392a1.82,1.82,0,0,1,1.58,1.95c0,1.17-.78,2.06-2.61,2.06h-2.83Zm4.2,2.07c0-.67-.45-1.21-1.47-1.21h-1.76v2.55h1.73A1.38,1.38,0,0,0,365.55,390.28Zm.3,3.64a1.5,1.5,0,0,0-1.63-1.47h-1.9v2.68h1.85C365.38,395.13,365.85,394.59,365.85,393.92Z"/><path class="cls-2" d="M376.3,396h-1v-6.77h-.05l-1.89,1.26v-1l1.94-1.29h1Z"/><path class="cls-2" d="M382.19,389.12v-.05h-4.11v-.86h5.11v.9L379.63,396h-1Z"/><path class="cls-2" d="M383.5,398.19h-.8l.59-2.92h1Z"/><path class="cls-2" d="M391.44,396h-1v-6.77h0l-1.89,1.26v-1l1.93-1.29h1Z"/><path class="cls-2" d="M397.33,389.12v-.05h-4.12v-.86h5.12v.9L394.77,396h-1Z"/><path class="cls-2" d="M398.63,398.19h-.79l.59-2.92h1Z"/><path class="cls-2" d="M406.58,396h-1v-6.77h-.05l-1.89,1.26v-1l1.94-1.29h1Z"/><path class="cls-2" d="M412.46,389.12v-.05h-4.11v-.86h5.11v.9L409.91,396h-1Z"/><path class="cls-2" d="M346.86,406.55h1V410h4.11v-3.46h1v7.78h-1v-3.47h-4.11v3.47h-1Z"/><path class="cls-2" d="M354.63,406.55h4.71v.86h-3.75V410h3.5v.85h-3.5v2.61h3.81v.86h-4.77Z"/><path class="cls-2" d="M363.34,409.76h.06l2-3.21h1.14l-2.44,3.89,2.44,3.89h-1.14l-2-3.15h-.06l-2,3.15h-1.14l2.5-3.89-2.5-3.89h1.15Z"/><path class="cls-2" d="M376.25,412.18h-2l-.35,2.15h-.78l.35-2.15h-1.15l.13-.77h1.15l.32-1.94h-1.14l.12-.77h1.14l.35-2.15h.79l-.36,2.15h2l.35-2.15H378l-.36,2.15h1.16l-.13.77h-1.14l-.33,1.94h1.14l-.13.77H377l-.35,2.15h-.78Zm.13-.77.32-1.94h-1.95l-.33,1.94Z"/><path class="cls-2" d="M382.34,414.33h-1v-6.77h0l-1.89,1.26v-1l1.93-1.29h1Z"/><path class="cls-2" d="M387.16,414.33h-1v-6.77h-.05l-1.89,1.26v-1l1.94-1.29h1Z"/><path class="cls-2" d="M392,414.33h-1v-6.77h0l-1.89,1.26v-1l1.93-1.29h1Z"/><path class="cls-2" d="M396.81,414.33h-1v-6.77h0l-1.89,1.26v-1l1.93-1.29h1Z"/><path class="cls-2" d="M401.63,414.33h-1v-6.77h-.05l-1.89,1.26v-1l1.94-1.29h1Z"/><path class="cls-2" d="M406.46,414.33h-1v-6.77h0l-1.89,1.26v-1l1.93-1.29h1Z"/><path d="M332.06,475.6l3.13-3.31c1.1-1.15,1.62-1.77,1.62-2.62a1.82,1.82,0,0,0-3.62.16h-1.08a2.7,2.7,0,0,1,2.91-2.71,2.64,2.64,0,0,1,2.85,2.55c0,1-.48,1.83-2.11,3.5l-2.1,2.17v.08H338v1h-6Z"/><path d="M340.28,479h-1a11.92,11.92,0,0,0,0-12.17h1a11,11,0,0,1,0,12.17Z"/><path d="M357.31,476H347v-.82h4.65v-2.44h-3.43V467h1v2h5.86v-2h1v5.77H352.6v2.44h4.71Zm-2.25-4.07v-2.11H349.2v2.11Z"/><path d="M368.53,476H358.2v-.83h4.66v-2.75h1v2.75h4.67Zm-.49-4-.41.79a6,6,0,0,1-4.26-3,6.18,6.18,0,0,1-4.25,3.06l-.41-.8c1.9-.33,4.12-1.91,4.12-3.71V468h-3.78v-.84h8.59V468h-3.78v.28C363.86,470.12,366.09,471.67,368,472Z"/><path d="M375.1,471.53l-.54.78a4.12,4.12,0,0,1-2.24-2.27,4.57,4.57,0,0,1-2.34,2.55l-.54-.78a4,4,0,0,0,2.39-3.43v-1.51h1v1.51A3.48,3.48,0,0,0,375.1,471.53Zm3.91,5.93h-1v-3H371.4v-.82H379Zm0-4.45h-.95v-3h-1.5v3h-.94v-6.55h.94v2.74h1.5v-2.94H379Z"/><path d="M387.22,471.51l-.54.78a4.66,4.66,0,0,1-2.73-2.56,4.82,4.82,0,0,1-2.81,2.88l-.53-.8a4.2,4.2,0,0,0,2.83-3.88v-1.17h1V468A3.91,3.91,0,0,0,387.22,471.51Zm2.35,3.87c0,1.32-1.39,2.06-3.72,2.06s-3.74-.74-3.74-2.06,1.42-2,3.74-2S389.57,474.08,389.57,475.38Zm-6.46,0c0,.8,1,1.26,2.74,1.27s2.76-.47,2.76-1.27-1-1.24-2.76-1.24S383.1,474.61,383.11,475.38Zm6.36-6.26h1.7V470h-1.7V473h-1v-6.86h1Z"/><path d="M394.4,466.85h1a12,12,0,0,0,0,12.17h-1a11,11,0,0,1,0-12.17Z"/><path d="M399.16,470.38c-.85,0-1.46.45-1.46,1s.36.77,1.18,1l1,.26c1.23.29,1.84.9,1.84,1.86,0,1.2-1,2.07-2.71,2.07-1.55,0-2.47-.68-2.65-1.94h1.14c.13.67.62,1,1.49,1s1.6-.41,1.6-1.05-.35-.82-1.13-1l-1-.24c-1.21-.28-1.85-.94-1.85-1.86,0-1.18,1-2,2.56-2a2.22,2.22,0,0,1,2.46,1.88h-1.07A1.27,1.27,0,0,0,399.16,470.38Z"/><path d="M407.52,469.54h1.08v6.89h-1.08v-1.16h-.08a2.16,2.16,0,0,1-2,1.25c-1.31,0-2.24-.85-2.24-2.6v-4.38h1.09v4.3a1.49,1.49,0,0,0,1.5,1.63,1.79,1.79,0,0,0,1.77-1.87Z"/><path d="M410.48,467.24h1.09v3.39h.09a2.09,2.09,0,0,1,2-1.18c1.73,0,3,1.37,3,3.56s-1.22,3.56-2.93,3.56a2.14,2.14,0,0,1-2-1.19h-.13v1.05h-1Zm3,8.36c1.31,0,2-1.15,2-2.62s-.67-2.55-2-2.55-1.95,1-1.95,2.55S412.25,475.6,413.5,475.6Z"/><path d="M420.94,473c0-2.1,1.25-3.57,3.13-3.57a2.57,2.57,0,0,1,2.74,2.17h-1.09a1.59,1.59,0,0,0-1.63-1.2c-1.23,0-2,1-2,2.56s.8,2.62,2,2.62a1.57,1.57,0,0,0,1.63-1.2h1.09a2.56,2.56,0,0,1-2.72,2.17C422.14,476.57,420.94,475.09,420.94,473Z"/><path d="M427.82,473c0-2.15,1.27-3.57,3.15-3.57s3.12,1.42,3.12,3.57-1.26,3.55-3.12,3.55S427.82,475.16,427.82,473Zm5.18,0c0-1.37-.65-2.6-2-2.6s-2.06,1.23-2.06,2.6.65,2.59,2.06,2.59S433,474.39,433,473Z"/><path d="M436.61,476.43h-1.09v-9.19h1.09Z"/><path d="M438,473c0-2.15,1.27-3.57,3.15-3.57s3.12,1.42,3.12,3.57-1.26,3.55-3.12,3.55S438,475.16,438,473Zm5.18,0c0-1.37-.65-2.6-2-2.6s-2.06,1.23-2.06,2.6.65,2.59,2.06,2.59S443.2,474.39,443.2,473Z"/><path d="M445.72,469.54h1v1h.08a1.85,1.85,0,0,1,1.77-1.16l.57,0v1.11a2.54,2.54,0,0,0-.66-.08,1.62,1.62,0,0,0-1.72,1.61v4.34h-1.09Z"/><path d="M450.83,479h-1a11.92,11.92,0,0,0,0-12.17h1a11,11,0,0,1,0,12.17Z"/><path d="M336.89,498.44V505a2.48,2.48,0,0,1-2.64,2.75,2.34,2.34,0,0,1-2.62-2.3h1.13a1.34,1.34,0,0,0,1.49,1.29c1,0,1.49-.6,1.49-1.74v-6.57Z"/><path d="M339.44,498.44l2.53,4.27h.11l2.53-4.27h1.32l-3.33,5.42v3.77h-1.15v-3.77l-3.32-5.42Z"/><path d="M347.15,498.44h3.12c2.16,0,3.14,1.28,3.14,2.92a2.79,2.79,0,0,1-3.12,2.93h-2v3.34h-1.14Zm3.09,4.84a1.79,1.79,0,0,0,2-1.92c0-1.1-.58-1.9-2.06-1.9h-1.93v3.82Z"/><path d="M359.71,500.61h1.22v-3h.94v7.9h-.94v-4.05h-1.22a2.58,2.58,0,0,1-5.14-.44,2.58,2.58,0,0,1,5.14-.4Zm-4.24.4a1.71,1.71,0,0,0,1.68,1.86,1.74,1.74,0,0,0,1.69-1.86,1.76,1.76,0,0,0-1.69-1.88A1.73,1.73,0,0,0,355.47,501Zm8.9,7.41h-7.74v-3.68h1v2.84h6.75Zm-.34-2.59h-.95v-8.45H364Z"/><path d="M371.46,499.24h-4.27v2.35H371v.81h-3.77v2.73a26.74,26.74,0,0,0,4.95-.34l.12.83a30.65,30.65,0,0,1-5.21.34h-.86v-7.54h5.27Zm3.57,9.45h-1v-6.22h-2.39v-.83H374v-4.26h1Z"/><path d="M381.54,499.56h-3.25v2.23H381v.8h-2.73v2.54a20.38,20.38,0,0,0,3.83-.3l.09.81a20.21,20.21,0,0,1-4.16.31h-.71v-7.19h4.2Zm2.7,8.52h-.95v-5.59h-1.66v-.82h1.66v-4h.95Zm2.31.58h-1V497.38h1Z"/><path d="M394.3,500.94a3,3,0,1,1-3-2.76A2.77,2.77,0,0,1,394.3,500.94Zm-4.94,0a2,2,0,1,0,2-1.89A1.87,1.87,0,0,0,389.36,500.94Zm8.43,7.48h-7.64V504.8h1v2.78h6.65Zm-.35-2.78h-1v-8.25h1Z"/><path d="M405.06,500.54h2.64v-3.15h1v8.24h-1v-4.28h-2.64v2.25h-5.18v-5.23h5.18Zm-4.19,2.26h3.21v-3.61h-3.21Zm8.15,5.62h-7.57v-3.55h1v2.71H409Z"/><path d="M420.9,507.19H410.57v-.83H420.9Zm-1.19-2.9H411.9v-5.94h7.68v.84h-6.66v1.68h6.42v.8h-6.42v1.81h6.79Z"/><path d="M429.31,505l.08.73a40.43,40.43,0,0,1-7.39.5l-.14-.85A53.24,53.24,0,0,0,429.31,505Zm-.79-4.12a2.73,2.73,0,0,1-3,2.66c-1.78,0-3.06-1.08-3.05-2.66s1.27-2.65,3.05-2.65A2.73,2.73,0,0,1,428.52,500.85Zm-5.1,0a2.08,2.08,0,1,0,2.07-1.77A1.85,1.85,0,0,0,423.42,500.85Zm7.63,7.84h-1V497.38h1Z"/><path d="M441,501.64h1.72v-4h.95v10.47h-.95v-5.62H441v3.16H436.7V498.7H441Zm-3.37,3.19h2.43V499.5h-2.43Zm8.31,3.83h-1V497.38h1Z"/><path d="M453.69,500.94a3,3,0,1,1-3-2.76A2.77,2.77,0,0,1,453.69,500.94Zm-4.94,0a2,2,0,1,0,2-1.89A1.87,1.87,0,0,0,448.75,500.94Zm8.43,7.48h-7.64V504.8h1v2.78h6.65Zm-.36-2.78h-1v-8.25h1Z"/><path d="M462.69,503.6l-.37-.79a6.26,6.26,0,0,0,3.79-2.22l-3.68.26-.16-.8,4.24-.19a3.81,3.81,0,0,0,.26-1.13h-3.93v-.8h5C467.83,500.77,466.19,502.67,462.69,503.6Zm8.65,2.84H465v1.27h6.69v.8h-7.67v-2.82h6.29v-1.15H464v-.8h7.31Zm0-3.21h-1v-2.3h-2.47v-.82h2.47v-2.73h1Z"/><path d="M478.68,502.38h-4.05v2.74a25.41,25.41,0,0,0,5-.37l.07.84a28.86,28.86,0,0,1-5.2.38h-.87v-4.42h4.08v-2.3h-4.11v-.82h5.07Zm3.88,6.31h-1v-6.13h-2.2v-.84h2.2v-4.34h1Z"/><path d="M494.76,503.41H484.43v-.79h10.33Zm-1.3,3.3h-6.77v1.08h7.14v.72h-8.15V506h6.79v-1h-6.8v-.75h7.79Zm0-6.66h-6.67v1h6.87v.73h-7.86v-2.4h6.65v-.93h-6.69v-.72h7.7Z"/><path d="M509.26,507.21H498.92v-.82h4.65V504h-3.43v-5.77h1v2H507v-2h1V504h-3.44v2.44h4.71ZM507,503.14V501h-5.87v2.11Z"/><path d="M520.48,507.21H510.15v-.83h4.66v-2.75h1v2.75h4.67Zm-.49-4-.41.79a6,6,0,0,1-4.26-3,6.17,6.17,0,0,1-4.24,3.06l-.42-.8c1.9-.33,4.12-1.91,4.12-3.71v-.28H511v-.84h8.59v.84h-3.78v.28C515.81,501.32,518,502.87,520,503.19Z"/><path d="M527.05,502.73l-.54.78a4.12,4.12,0,0,1-2.24-2.27,4.57,4.57,0,0,1-2.34,2.55l-.54-.78a4,4,0,0,0,2.4-3.43v-1.51h1v1.51A3.48,3.48,0,0,0,527.05,502.73Zm3.91,5.93h-1v-3h-6.63v-.82H531Zm0-4.45h-1v-3h-1.5v3h-.94v-6.55h.94v2.74H530v-2.94h1Z"/><path d="M539.17,502.71l-.54.79a4.71,4.71,0,0,1-2.73-2.57,4.82,4.82,0,0,1-2.81,2.88l-.53-.8a4.2,4.2,0,0,0,2.83-3.88V498h1v1.24A3.91,3.91,0,0,0,539.17,502.71Zm2.35,3.87c0,1.32-1.39,2.06-3.72,2.06s-3.74-.74-3.74-2.06,1.42-2,3.74-2S541.52,505.29,541.52,506.58Zm-6.46,0c0,.8,1,1.26,2.74,1.27s2.76-.47,2.76-1.27-1-1.24-2.76-1.24S535.05,505.81,535.06,506.58Zm6.36-6.26h1.7v.84h-1.7v3.08h-1v-6.86h1Z"/><path d="M554.16,507.16H543.82v-.83h10.34Zm-1.07-6c0,1.88-1.76,3.11-4.13,3.1s-4.12-1.22-4.12-3.1,1.76-3.1,4.12-3.1S553.09,499.34,553.09,501.21Zm-7.3,0c0,1.37,1.36,2.29,3.17,2.29s3.17-.92,3.17-2.29-1.36-2.3-3.17-2.29S545.78,499.86,545.79,501.21Z"/><path d="M565.38,507.27H555.05v-.84h4.64v-2.14h-3.35v-3.47h6.76V499h-6.78v-.83h7.75v3.42h-6.74v1.84h7v.82h-3.67v2.14h4.71Z"/><path d="M570.24,504.61l-.4-.8a6.76,6.76,0,0,0,3.86-2.64l-3.75.32-.18-.83,4.28-.2a5.45,5.45,0,0,0,.31-1.34h-4v-.83h5C575.39,501.21,573.88,503.39,570.24,504.61Zm9,3.81h-7.46v-3.49h1v2.65h6.44Zm-.32-2.65h-1v-3.95h-2.52V501h2.52v-3.59h1Z"/><path d="M585.65,499h-3.43v1.41h3.3v.79h-3.3v1.56a19.09,19.09,0,0,0,3.88-.31l.1.83a20.66,20.66,0,0,1-4.22.31h-.71V498.2h4.38Zm4.69,9.62h-1v-3h-6.63v-.81h7.6Zm0-4.43h-1v-3.08H587.8v3h-.92V497.6h.92v2.73h1.59v-2.94h1Z"/><path d="M598.63,500h-6.71v-.83h2.91v-1.67h1v1.67h2.81Zm-.53,3.53a2.59,2.59,0,0,1-2.77,2.59,2.6,2.6,0,1,1,2.77-2.59Zm-4.58,0a1.7,1.7,0,0,0,1.81,1.74,1.72,1.72,0,0,0,1.82-1.74,1.74,1.74,0,0,0-1.82-1.76A1.72,1.72,0,0,0,593.52,503.55Zm7.2-1.51h1.89v.82h-1.89v5.8h-1V497.38h1Z"/><path d="M608.6,499.9h3v-2.52h1v11.31h-1v-4.38h-2.89a2.63,2.63,0,0,1-2.44,1.8c-1.66,0-2.83-1.52-2.83-3.92s1.17-3.93,2.83-3.94A2.59,2.59,0,0,1,608.6,499.9Zm-4.24,2.29c0,1.84.76,3,1.88,3s1.88-1.19,1.88-3-.77-3-1.88-3.05S604.36,500.35,604.36,502.19Zm4.7,0a6.48,6.48,0,0,1-.13,1.29h2.64v-2.74H608.9A6.5,6.5,0,0,1,609.06,502.19Z"/><path d="M624.4,505.23l-.61.8a6,6,0,0,1-2.78-3.55,6.4,6.4,0,0,1-2.85,3.77l-.63-.8a6,6,0,0,0,3-5v-2.06h1v2.06A5.68,5.68,0,0,0,624.4,505.23Zm2-3.27h1.89v.86h-1.89v5.84h-1V497.38h1Z"/><path d="M639.2,503.79H628.92V503h2.55v-1.58a1.86,1.86,0,0,1-1.41-1.69c0-1.34,1.52-2.1,4-2.1s4,.76,4,2.1a1.83,1.83,0,0,1-1.39,1.67V503h2.55Zm-1.26,2.85c0,1.29-1.46,2-3.88,2s-3.9-.71-3.9-2,1.45-2,3.9-2S637.93,505.35,637.94,506.64Zm-6.85-6.95c0,.82,1.13,1.3,3,1.3s3-.48,3-1.3-1.14-1.31-3-1.31S631.08,498.87,631.09,499.69Zm.09,6.95c0,.77,1.06,1.22,2.88,1.22s2.88-.45,2.88-1.22-1.09-1.22-2.88-1.23S631.16,505.87,631.18,506.64Zm4.48-3.68v-1.32a9.91,9.91,0,0,1-3.2,0V503Z"/><path d="M646.9,505.42l-.57.79a6,6,0,0,1-2.85-3.49,6.51,6.51,0,0,1-2.92,3.77l-.61-.79a5.92,5.92,0,0,0,3-4.86v-1.47h-2.63v-.83h6.14v.83H644v1.47A5.42,5.42,0,0,0,646.9,505.42Zm2-3.47h1.89v.85h-1.89v5.86h-1V497.38h1Z"/><path d="M658.77,508.09h-.95v-5.48h-1.45c-.11,2.19-1,3.56-2.44,3.56s-2.42-1.52-2.42-3.92,1-3.92,2.42-3.92,2.3,1.32,2.43,3.45h1.46v-4.16h.95Zm-6.32-5.84c0,1.83.57,3,1.48,3s1.5-1.14,1.5-3-.58-3-1.5-3S652.43,500.41,652.45,502.25Zm8.59,6.41h-1V497.38h1Z"/><path d="M669.88,508.09h-1v-5.27h-2.39a8.52,8.52,0,0,1-3.35,3.4l-.58-.72a7.3,7.3,0,0,0,3.87-5.85h-3.39v-.83h4.38a9.43,9.43,0,0,1-.56,3.19h2v-4.33h1Zm2.37.57h-1V497.38h1Z"/><path d="M682.31,498.44V505a2.48,2.48,0,0,1-2.64,2.75,2.35,2.35,0,0,1-2.63-2.3h1.13a1.34,1.34,0,0,0,1.5,1.29c1,0,1.48-.6,1.48-1.74v-6.57Z"/><path d="M684.85,498.44l2.53,4.27h.11l2.53-4.27h1.32L688,503.86v3.77h-1.15v-3.77l-3.31-5.42Z"/><path d="M692.56,498.44h3.13c2.16,0,3.13,1.28,3.13,2.92a2.79,2.79,0,0,1-3.12,2.93h-2v3.34h-1.15Zm3.09,4.84a1.79,1.79,0,0,0,2-1.92c0-1.1-.58-1.9-2.05-1.9h-1.93v3.82Z"/><path d="M705.56,503.6h-5.22v-5.2h5.22Zm-4.24-.8h3.27v-3.58h-3.27Zm7.88,5.62h-7.58v-3.55h1v2.71h6.6Zm-.52-7.6h1.7v.83h-1.7v4h-1v-8.27h1Z"/><path d="M718.6,505l.07.73a40.27,40.27,0,0,1-7.38.5l-.14-.85A53.24,53.24,0,0,0,718.6,505Zm-.79-4.12a2.74,2.74,0,0,1-3,2.66c-1.78,0-3.06-1.08-3-2.66s1.27-2.65,3-2.65A2.74,2.74,0,0,1,717.81,500.85Zm-5.1,0a2.08,2.08,0,1,0,2.07-1.77A1.84,1.84,0,0,0,712.71,500.85Zm7.63,7.84h-1V497.38h1Z"/><path d="M726.26,503.6l-.36-.79a6.29,6.29,0,0,0,3.79-2.22l-3.68.26-.16-.8,4.24-.19a3.81,3.81,0,0,0,.26-1.13h-3.93v-.8h5C731.41,500.77,729.77,502.67,726.26,503.6Zm8.66,2.84h-6.31v1.27h6.69v.8h-7.66v-2.82h6.29v-1.15h-6.32v-.8h7.31Zm0-3.21h-1v-2.3h-2.48v-.82h2.48v-2.73h1Z"/><path d="M742.26,502.38h-4v2.74a25.41,25.41,0,0,0,5-.37l.07.84a28.86,28.86,0,0,1-5.2.38h-.87v-4.42h4.08v-2.3h-4.11v-.82h5.07Zm3.88,6.31h-1v-6.13H743v-.84h2.2v-4.34h1Z"/><path d="M758.34,503.41H748v-.79h10.34Zm-1.3,3.3h-6.78v1.08h7.15v.72h-8.15V506h6.79v-1h-6.8v-.75H757Zm0-6.66h-6.66v1h6.87v.73h-7.86v-2.4H756v-.93h-6.69v-.72H757Z"/><path d="M768.25,499.29h-4.17V505a25.13,25.13,0,0,0,4.93-.36l.13.82a25.32,25.32,0,0,1-5.2.39h-.87v-7.43h5.18Zm3.62,9.4h-1v-6.38h-3.29v-.82h3.29v-4.11h1Z"/><path d="M784,503.69h-4.66V505h3.39v3.62h-1v-2.82h-6.87V505h3.5v-1.35h-4.64v-.82H784Zm-1.16-3.86c0,1.35-1.53,2.17-4,2.15s-4-.8-4-2.15,1.55-2.19,4-2.17S782.85,498.46,782.85,499.83Zm-7,0c0,.86,1.14,1.37,3,1.37s3-.51,3-1.37-1.17-1.39-3-1.37S775.88,499,775.9,499.83Z"/><path d="M788.6,503.88l-.4-.78c2.77-.75,4.47-2.26,4.68-4.18h-4.17v-.82h5.23C793.94,501,791.94,503,788.6,503.88Zm8.43,4.78h-1v-3.32h-6.39v-.82H797Zm0-8.41h1.71v.85H797V504h-1v-6.62h1Z"/><path d="M805.62,500.94a3,3,0,1,1-3-2.76A2.77,2.77,0,0,1,805.62,500.94Zm-4.94,0a2,2,0,1,0,2-1.89A1.87,1.87,0,0,0,800.68,500.94Zm8.43,7.48h-7.64V504.8h1v2.78h6.65Zm-.36-2.78h-1v-8.25h1Z"/><path d="M817.73,505.3l-.61.78a6.12,6.12,0,0,1-2.93-3.56,6.3,6.3,0,0,1-3,3.79l-.63-.83a5.9,5.9,0,0,0,3.08-5.07v-2.06h1v2.06A5.65,5.65,0,0,0,817.73,505.3Zm2.24,3.39h-1V497.38h1Z"/><path d="M822.67,506.82l-.56-.8a8.14,8.14,0,0,0,4.14-3.85l-3.92.39-.16-.89,4.4-.29a8.63,8.63,0,0,0,.37-2h-4.2v-.82h5.2A8.5,8.5,0,0,1,822.67,506.82Zm8.55,1.84h-1V497.38h1Z"/><path d="M843.39,507.06H833.11v-.82h4v-4h1v4h5.26Zm-1.23-7.41a27.32,27.32,0,0,1-.42,5.2l-1-.11a23.89,23.89,0,0,0,.43-5.09v-.31h-7v-.82h8Z"/><path d="M851.09,505.42l-.57.79a6,6,0,0,1-2.85-3.49,6.47,6.47,0,0,1-2.92,3.77l-.6-.79a5.91,5.91,0,0,0,3-4.86v-1.47h-2.63v-.83h6.15v.83h-2.54v1.47A5.39,5.39,0,0,0,851.09,505.42Zm2-3.47H855v.85h-1.89v5.86h-1V497.38h1Z"/><path d="M865.47,500h-6.71v-.83h2.9v-1.67h1v1.67h2.82Zm-.53,3.53a2.78,2.78,0,1,1-2.77-2.59A2.59,2.59,0,0,1,864.94,503.55Zm-4.58,0a1.69,1.69,0,0,0,1.81,1.74,1.73,1.73,0,0,0,1.82-1.74,1.75,1.75,0,0,0-1.82-1.76A1.71,1.71,0,0,0,860.36,503.55Zm7.19-1.51h1.9v.82h-1.9v5.8h-1V497.38h1Z"/><path d="M875.44,499h3v-1.58h1v6.45h-1v-1.5h-2.93a3,3,0,0,1-2.31,1,2.67,2.67,0,1,1,0-5.32A3,3,0,0,1,875.44,499Zm.1,8.67a3.36,3.36,0,0,0,1.64-2.67v-.78h1V505a3.1,3.1,0,0,0,2.31,2.81l-.52.77a2.2,2.2,0,0,0-4.39.08,3.55,3.55,0,0,1-2.12-2.19,4.09,4.09,0,0,1-2.26,2.11l-.5-.77A3.23,3.23,0,0,0,873,505v-.78h.95V505A3.07,3.07,0,0,0,875.54,507.63Zm-4.34-7a2,2,0,1,0,2-1.81A1.83,1.83,0,0,0,871.2,500.66Zm4.86,0a3.21,3.21,0,0,1-.12.84h2.46v-1.72h-2.49A2.54,2.54,0,0,1,876.06,500.66Z"/><path d="M891.55,503.36H881.27v-.83h10.28Zm-.58-2.43-.37.8a5.84,5.84,0,0,1-4.18-2.42,5.88,5.88,0,0,1-4.18,2.42l-.39-.8c2-.27,4-1.46,4-2.89v-.54h1V498C886.93,499.43,889,500.68,891,500.93Zm-7.4,4.55h5.64v-1.32h1v4.35h-7.63v-4.35h1Zm5.64,2.23v-1.45h-5.64v1.45Z"/><path d="M894.21,504.89a25.88,25.88,0,0,0,5.4-.54l.14.85a26.6,26.6,0,0,1-5.6.55h-.92v-7.26h1Zm7.59,3.77h-1V497.38h1Z"/><path d="M909.48,499.31h-4.27V505a26.4,26.4,0,0,0,5.16-.41l.13.87a29,29,0,0,1-5.4.38h-.88v-7.38h5.26Zm3,2.53h1.89v.84h-1.89v6h-1V497.38h1Z"/><path d="M915.33,506.88a.8.8,0,0,1,.81-.81.82.82,0,0,1,0,1.64A.81.81,0,0,1,915.33,506.88Z"/><rect class="cls-4" x="330.72" y="526.75" width="123.28" height="123.28" rx="12.57"/><path class="cls-2" d="M346.89,546.46h4.22c2.35,0,3.52,1.13,3.52,2.72a2.25,2.25,0,0,1-1.91,2.27v.11a2.46,2.46,0,0,1,2.33,2.57c0,1.69-1.26,2.93-3.66,2.93h-4.5Zm5.51,3.08c0-.77-.56-1.29-1.57-1.29h-1.74v2.65h1.7A1.43,1.43,0,0,0,352.4,549.54Zm.37,4.39a1.56,1.56,0,0,0-1.76-1.52h-1.92v2.84H351C352.23,555.25,352.77,554.72,352.77,553.93Z"/><path class="cls-2" d="M356.44,546.46h2.2v8.79h4.57v1.81h-6.77Z"/><path class="cls-2" d="M373.41,546.46v6.88c0,2.33-1.76,3.87-4.4,3.87s-4.38-1.54-4.38-3.87v-6.88h2.2v6.71a2.19,2.19,0,0,0,4.37,0v-6.71Z"/><path class="cls-2" d="M375.19,546.46h7.12v1.82h-4.92v2.57H382v1.82h-4.56v2.58h4.94v1.81h-7.14Z"/><path class="cls-2" d="M346.86,601.25h2.64c1.83,0,2.66,1,2.66,2.39a2.15,2.15,0,0,1-1.45,2.19l1.75,3.2h-1.13l-1.62-3h-1.88v3h-1Zm2.61,3.88c1.24,0,1.73-.56,1.73-1.49s-.49-1.53-1.74-1.53h-1.63v3Z"/><path class="cls-2" d="M356.66,602c-1.38,0-2.47,1.09-2.47,3.1s1.09,3.09,2.53,3.09A2.14,2.14,0,0,0,359,606h-2v-.85h3V606a3,3,0,0,1-3.18,3.17c-2.07,0-3.47-1.53-3.47-4s1.41-4,3.41-4a3.13,3.13,0,0,1,3.2,2.54h-1A2.23,2.23,0,0,0,356.66,602Z"/><path class="cls-2" d="M361.35,601.25h2.73c1.63,0,2.39.91,2.39,2.06a1.56,1.56,0,0,1-1.26,1.63V605a1.82,1.82,0,0,1,1.58,1.94c0,1.17-.78,2.07-2.61,2.07h-2.83Zm4.2,2.07c0-.67-.45-1.21-1.47-1.21h-1.76v2.54h1.73A1.37,1.37,0,0,0,365.55,603.32Zm.3,3.63a1.5,1.5,0,0,0-1.63-1.46h-1.9v2.68h1.85C365.38,608.17,365.85,607.63,365.85,607Z"/><path class="cls-2" d="M373.38,605.14c0-2.53,1-4,2.72-4s2.72,1.47,2.72,4-1,4-2.72,4S373.38,607.68,373.38,605.14Zm4.49,0c0-2-.65-3.16-1.77-3.16s-1.78,1.15-1.78,3.16.65,3.13,1.78,3.13S377.87,607.15,377.87,605.14Z"/><path class="cls-2" d="M380.22,611.23h-.8l.59-2.92h1.05Z"/><path class="cls-2" d="M388.16,609h-1v-6.77h-.05l-1.89,1.26v-1l1.94-1.29h1Z"/><path class="cls-2" d="M390.25,607.07h.93a1.5,1.5,0,0,0,1.59,1.22,1.69,1.69,0,0,0,1.74-1.72,1.75,1.75,0,0,0-1.8-1.77,1.51,1.51,0,0,0-1.45.7h-.94l.55-4.25h4.21v.86h-3.4l-.29,2.28h.07a2.36,2.36,0,0,1,1.42-.46,2.52,2.52,0,0,1,2.58,2.61,2.55,2.55,0,0,1-2.69,2.59A2.31,2.31,0,0,1,390.25,607.07Z"/><path class="cls-2" d="M396.81,607.07h.94a1.49,1.49,0,0,0,1.58,1.22,1.7,1.7,0,0,0,1.75-1.72,1.76,1.76,0,0,0-1.81-1.77,1.52,1.52,0,0,0-1.45.7h-.93l.54-4.25h4.21v.86h-3.4l-.29,2.28H398a2.39,2.39,0,0,1,1.42-.46,2.52,2.52,0,0,1,2.58,2.61,2.55,2.55,0,0,1-2.69,2.59A2.32,2.32,0,0,1,396.81,607.07Z"/><path class="cls-2" d="M403.46,611.23h-.79l.59-2.92h1Z"/><path class="cls-2" d="M408.64,608.32l2.66-2.8c.92-1,1.36-1.5,1.36-2.22a1.54,1.54,0,0,0-3.06.14h-.91a2.29,2.29,0,0,1,2.46-2.3,2.24,2.24,0,0,1,2.41,2.16c0,.87-.4,1.55-1.78,3L410,608.1v.07h3.7V609h-5.05Z"/><path class="cls-2" d="M415.09,607.07h1c.05.74.79,1.2,1.71,1.2s1.78-.55,1.78-1.36-.68-1.45-1.89-1.45H417v-.85h.64c.94,0,1.6-.53,1.6-1.33a1.3,1.3,0,0,0-1.45-1.3,1.49,1.49,0,0,0-1.64,1.22h-.93a2.35,2.35,0,0,1,2.58-2.06,2.16,2.16,0,0,1,2.37,2.09,1.73,1.73,0,0,1-1.32,1.76v0a1.8,1.8,0,0,1,1.62,1.87c0,1.28-1.16,2.22-2.71,2.22S415.14,608.31,415.09,607.07Z"/><path class="cls-2" d="M421.73,605.14c0-2.53,1-4,2.71-4s2.72,1.47,2.72,4-1,4-2.72,4S421.73,607.68,421.73,605.14Zm4.49,0c0-2-.66-3.16-1.78-3.16s-1.78,1.15-1.78,3.16.66,3.13,1.78,3.13S426.22,607.15,426.22,605.14Z"/><path class="cls-2" d="M346.86,619.59h1v3.46h4.11v-3.46h1v7.78h-1V623.9h-4.11v3.47h-1Z"/><path class="cls-2" d="M354.63,619.59h4.71v.86h-3.75v2.6h3.5v.85h-3.5v2.61h3.81v.86h-4.77Z"/><path class="cls-2" d="M363.34,622.8h.06l2-3.21h1.14l-2.44,3.89,2.44,3.89h-1.14l-2-3.15h-.06l-2,3.15h-1.14l2.5-3.89-2.5-3.89h1.15Z"/><path class="cls-2" d="M376.25,625.22h-2l-.35,2.15h-.78l.35-2.15h-1.15l.13-.78h1.15l.32-1.93h-1.14l.12-.77h1.14l.35-2.15h.79l-.36,2.15h2l.35-2.15H378l-.36,2.15h1.16l-.13.77h-1.14l-.33,1.93h1.14l-.13.78H377l-.35,2.15h-.78Zm.13-.78.32-1.93h-1.95l-.33,1.93Z"/><path class="cls-2" d="M379.42,623.48c0-2.53,1-4,2.72-4s2.71,1.47,2.71,4-1,4-2.71,4S379.42,626,379.42,623.48Zm4.49,0c0-2-.66-3.16-1.77-3.16s-1.79,1.15-1.79,3.16.66,3.13,1.79,3.13S383.91,625.49,383.91,623.48Z"/><path class="cls-2" d="M386,623.48c0-2.53,1-4,2.72-4s2.72,1.47,2.72,4-1,4-2.72,4S386,626,386,623.48Zm4.49,0c0-2-.65-3.16-1.77-3.16s-1.78,1.15-1.78,3.16.65,3.13,1.78,3.13S390.46,625.49,390.46,623.48Z"/><path class="cls-2" d="M398.11,623.17c0,2.76-1.13,4.3-2.95,4.3a2.41,2.41,0,0,1-2.53-2.07h1a1.52,1.52,0,0,0,1.57,1.21c1.26,0,2-1.09,2-3h-.11a2.39,2.39,0,0,1-2,1,2.51,2.51,0,0,1-2.54-2.57,2.56,2.56,0,0,1,2.72-2.61C396.63,619.49,398.11,620.3,398.11,623.17Zm-4.6-1.09a1.69,1.69,0,0,0,1.74,1.73,1.81,1.81,0,0,0,1.81-1.75,1.76,1.76,0,0,0-1.77-1.73A1.73,1.73,0,0,0,393.51,622.08Z"/><path class="cls-2" d="M399.57,619.59h2.73c1.63,0,2.4.91,2.4,2.06a1.56,1.56,0,0,1-1.27,1.63v.08A1.82,1.82,0,0,1,405,625.3c0,1.17-.78,2.07-2.61,2.07h-2.83Zm4.2,2.07c0-.67-.45-1.21-1.47-1.21h-1.76V623h1.73A1.36,1.36,0,0,0,403.77,621.66Zm.3,3.63a1.5,1.5,0,0,0-1.63-1.46h-1.9v2.68h1.85C403.6,626.51,404.07,626,404.07,625.29Z"/><path class="cls-2" d="M406.38,619.59h4.72v.86h-3.75v2.6h3.5v.85h-3.5v2.61h3.8v.86h-4.77Z"/><path class="cls-2" d="M412.37,623.78c0-2.75,1.12-4.3,2.95-4.3a2.42,2.42,0,0,1,2.52,2.06h-.95a1.53,1.53,0,0,0-1.57-1.2c-1.28,0-2,1.1-2,3h.1a2.38,2.38,0,0,1,2-1,2.52,2.52,0,0,1,2.54,2.58,2.57,2.57,0,0,1-2.71,2.62C413.85,627.45,412.37,626.66,412.37,623.78Zm4.6,1.08a1.72,1.72,0,0,0-1.75-1.74,1.8,1.8,0,0,0-1.81,1.75,1.78,1.78,0,0,0,3.56,0Z"/></svg>