<svg id="Layer_1" data-name="Layer 1" xmlns="http://www.w3.org/2000/svg" viewBox="0 0 960 720"><defs><style>.cls-1,.cls-4{fill:#111;}.cls-1{stroke:#1d1d1b;}.cls-1,.cls-3{stroke-miterlimit:10;}.cls-2,.cls-3{fill:#fff;}.cls-3{stroke:#ccc;}</style></defs><rect class="cls-1" x="-1" y="-0.1" width="253.64" height="720"/><path class="cls-2" d="M59.72,117.53,58,115.14C63.22,112.5,66,109,66.63,104h-7.4v-2.54H69.8C69.78,108.11,67.19,113.87,59.72,117.53Zm16-9.81h3.15v2.56H75.73v11.09H72.61V99.2h3.12Z"/><path class="cls-2" d="M92.19,108.67c0,4.88-2.49,7.94-5.84,7.94s-5.91-3.06-5.88-7.94,2.46-7.91,5.88-7.91S92.19,103.84,92.19,108.67Zm-8.72,0c0,3.32,1.15,5.1,2.88,5.1s2.83-1.78,2.83-5.1-1.14-5.1-2.83-5.1S83.47,105.38,83.47,108.67Zm14.94,12.79H95.26V99.2h3.15Z"/><path class="cls-2" d="M121.75,118.71H101.42v-2.57h20.33ZM119.53,112H103.81V101.05h15.55v2.52H106.88v5.91h12.65Z"/><path class="cls-2" d="M142.19,107.82l-1.64,2.39a8.24,8.24,0,0,1-5-4.17,8.4,8.4,0,0,1-5.33,4.63l-1.61-2.46c3.69-1.08,5.33-3.79,5.35-6.67V99.93h3.15v1.61C137.08,104.2,138.65,106.77,142.19,107.82Zm5.32,9.54H135.84v1.37h12.3v2.44H132.76v-6.08h11.67v-1.27H132.74v-2.39h14.77Zm0-6.86h-3.1V105h-4.18v-2.47h4.18V99.2h3.1Z"/><path class="cls-2" d="M163.21,103h-4.42a6.85,6.85,0,0,0,5.1,6.35l-1.54,2.44a8.34,8.34,0,0,1-5.1-4.42,8.93,8.93,0,0,1-5.39,5l-1.62-2.47a7.45,7.45,0,0,0,5.38-6.91h-4.47v-2.49h12.06Zm6,14.14c0,2.68-2.93,4.27-7.67,4.27s-7.64-1.59-7.64-4.27,2.91-4.27,7.64-4.3S169.17,114.46,169.19,117.17Zm-12.21,0c0,1.27,1.59,1.9,4.54,1.9s4.57-.63,4.57-1.9-1.61-1.91-4.57-1.91S157,115.87,157,117.17Zm12.14-4.79H166v-5.25h-3.47v-2.51H166V99.2h3.1Z"/><path class="cls-2" d="M62.16,75.89c-1.41,0-2.33.73-2.33,1.74s1.24,1.53,2.05,1.73l1,.3c1.15.29,3,1,3,2.93,0,1.72-1.39,3.07-3.86,3.07-2.28,0-3.7-1.18-3.82-2.94h1.35c.12,1.18,1.22,1.74,2.47,1.74,1.47,0,2.57-.75,2.57-1.9s-1-1.42-2.1-1.75l-1.3-.35c-1.67-.48-2.7-1.33-2.7-2.77,0-1.78,1.6-3,3.65-3s3.53,1.2,3.59,2.81H64.5C64.38,76.49,63.43,75.89,62.16,75.89Z"/><path class="cls-2" d="M67.24,74.87h8V76H71.91v9.43H70.58V76H67.24Z"/><path class="cls-2" d="M77.6,74.87l2.91,4.92h.13l2.92-4.92h1.52l-3.83,6.25v4.35H79.91V81.12l-3.82-6.25Z"/><path class="cls-2" d="M86.5,74.87h1.32V84.3h4.92v1.17H86.5Z"/><path class="cls-2" d="M94.5,74.87h6.43V76H95.82v3.54h4.78v1.16H95.82V84.3H101v1.17H94.5Z"/><path class="cls-2" d="M107.25,76c-1.88,0-3.37,1.48-3.37,4.22s1.49,4.22,3.45,4.22a2.91,2.91,0,0,0,3-3.08h-2.77V80.15h4.06V81.3a4.11,4.11,0,0,1-4.34,4.32c-2.82,0-4.73-2.1-4.73-5.45s1.92-5.45,4.65-5.45a4.26,4.26,0,0,1,4.36,3.46h-1.36A3,3,0,0,0,107.25,76Z"/><path class="cls-2" d="M121.91,74.87v7c0,2.19-1.63,3.78-4.13,3.78s-4.13-1.59-4.13-3.78v-7H115v6.91a2.81,2.81,0,0,0,5.62,0V74.87Z"/><path class="cls-2" d="M125.57,85.47h-1.32V74.87h1.32Z"/><path class="cls-2" d="M127.92,85.47V74.87h3.42c3.09,0,4.92,2,4.92,5.28s-1.83,5.32-5,5.32Zm3.2-1.17c2.61,0,3.86-1.57,3.86-4.15S133.73,76,131.25,76h-2V84.3Z"/><path class="cls-2" d="M138.2,74.87h6.43V76h-5.11v3.54h4.77v1.16h-4.77V84.3h5.18v1.17h-6.5Z"/><path d="M314.86,100.92h3c.06,1.06,1.08,1.76,2.44,1.76s2.42-.8,2.41-1.93-1-2-2.68-2h-1.31V96.6H320c1.39,0,2.36-.76,2.36-1.87a1.86,1.86,0,0,0-2.07-1.82A2.09,2.09,0,0,0,318,94.69h-2.81c0-2.44,2.24-4.12,5.13-4.12s4.92,1.74,4.9,4a3,3,0,0,1-2.67,3v.12c2.07.25,3.22,1.52,3.2,3.28,0,2.42-2.28,4.16-5.47,4.16S314.92,103.38,314.86,100.92Z"/><path d="M327.46,103.44a1.61,1.61,0,0,1,1.64-1.62,1.64,1.64,0,0,1,1.62,1.62,1.66,1.66,0,0,1-1.62,1.64A1.62,1.62,0,0,1,327.46,103.44Z"/><path d="M345.54,92.43h-5.9v2.92h5.64v2h-5.64v3.36a44.06,44.06,0,0,0,7-.51l.23,2a52.47,52.47,0,0,1-8.24.49h-1.5V90.39h8.42Zm4.9,3.24h2.62v2.09h-2.62v8.94h-2.5V88.93h2.5Z"/><path d="M363.6,96.51c0,3.9-2,6.34-4.66,6.34s-4.73-2.44-4.71-6.34,2-6.33,4.71-6.33S363.6,92.64,363.6,96.51Zm-7,0c0,2.65.92,4.08,2.31,4.08s2.26-1.43,2.26-4.08-.92-4.08-2.26-4.08S356.63,93.87,356.63,96.51Zm11.95,10.23h-2.52V88.93h2.52Z"/><path d="M387.26,104.73H371v-2.09h6.83v-3.2h-5.49v-2h2.39V92.41h-2.46v-2h13.63v2h-2.5v5.07h2.42v2H380.3v3.2h7Zm-6.33-7.25V92.41h-3.71v5.07Z"/><path d="M404.48,104.38H388.27v-2h16.21Zm-2-11.68a44.2,44.2,0,0,1-.64,8.53l-2.52-.21A41.8,41.8,0,0,0,400,92.7v-.14H390v-2h12.54Z"/><path d="M412.8,97.5h-4.35v3.19a34.94,34.94,0,0,0,5.11-.37l.18,2a36.6,36.6,0,0,1-6.45.45h-1.23V95.51h4.34V92.66H406v-2h6.76Zm8.13,9.2h-2.37v-9h-1.71v8.18h-2.29V89.22h2.29v6.43h1.71V88.93h2.37Z"/><path d="M433.35,92.56h-1.58v7.72c.78,0,1.55-.13,2.3-.22l.12,1.86a73.56,73.56,0,0,1-11.15.7l-.24-2,2.05,0v-8h-1.56v-2h10.06Zm-4,7.87V92.56h-2.08v8C428,100.5,428.65,100.47,429.35,100.43Zm8.43,6.27h-2.52V88.93h2.52Z"/><path d="M314.86,307.41h3c.06,1.06,1.08,1.76,2.44,1.76s2.42-.8,2.41-1.93-1-2-2.68-2h-1.31V303.1H320c1.39,0,2.36-.77,2.36-1.88a1.86,1.86,0,0,0-2.07-1.82,2.09,2.09,0,0,0-2.32,1.78h-2.81c0-2.44,2.24-4.12,5.13-4.12s4.92,1.74,4.9,4a3,3,0,0,1-2.67,3v.12c2.07.25,3.22,1.52,3.2,3.28,0,2.42-2.28,4.16-5.47,4.16S314.92,309.87,314.86,307.41Z"/><path d="M327.46,309.93a1.61,1.61,0,0,1,1.64-1.62,1.64,1.64,0,0,1,1.62,1.62,1.66,1.66,0,0,1-1.62,1.64A1.62,1.62,0,0,1,327.46,309.93Z"/><path d="M347.16,307.22l-1.51,2a8.11,8.11,0,0,1-3.92-4.84,8.54,8.54,0,0,1-4.16,5.17l-1.55-2c3-1.39,4.44-4.79,4.44-8.09v-2.65H343v2.65C342.94,302.63,344.31,305.85,347.16,307.22Zm3.28-4.94h2.62v2.1h-2.62v8.81h-2.5V295.42h2.5Z"/><path d="M363.6,303c0,3.9-2,6.35-4.66,6.35s-4.73-2.45-4.71-6.35,2-6.33,4.71-6.33S363.6,299.13,363.6,303Zm-7,0c0,2.65.92,4.08,2.31,4.08s2.26-1.43,2.26-4.08-.92-4.08-2.26-4.08S356.63,300.36,356.63,303Zm11.95,10.23h-2.52V295.42h2.52Z"/><path d="M387.26,311.12H371v-2h16.27Zm-1.78-4.55H372.9v-9.84h12.44v2h-9.9v1.88h9.49v1.95h-9.49v2h10Z"/><path d="M396,304.35H388.9v-7.78H396Zm-4.73-2h2.4v-3.88h-2.4Zm2.62,5h7.22v-1.62h2.46V313H391.4v-7.19h2.46Zm7.22,3.58V309.4h-7.22V311Zm2.46-5.92h-2.36v-3.93H399.7V305h-2.33v-9.22h2.33v3.38h1.48v-3.69h2.36Z"/><path d="M409.6,296.65h2.75a17.32,17.32,0,0,0,0,18.73H409.6a16.07,16.07,0,0,1,0-18.73Z"/><path d="M414.6,307l-1-1.91A10.51,10.51,0,0,0,418.8,302l-4.81.39-.35-2,6.13-.22a6.21,6.21,0,0,0,.32-1.46h-5.55v-2h8.18C422.72,301.73,420.6,305.11,414.6,307Zm14.18,5.86H416.63v-5.6h2.52v3.61h9.63Zm-.45-4.34h-2.48v-5.72h-3.22v-2h3.22v-5.37h2.48Z"/><path d="M438.11,298.76h-4.39v1.76h3.73v1.89h-3.73v1.8a28.76,28.76,0,0,0,5-.37l.25,2a35.38,35.38,0,0,1-6.42.41h-1.21v-9.41h6.77Zm8.25,14.12H434v-5.6h2.5v3.61h9.87Zm-4-4.59H440v-6.05h-1.8v-2H440v-4.51h2.36Zm3.54.41h-2.37V295.44h2.37Z"/><path d="M464.19,311.12H447.92v-2h16.27Zm-1.43-11.21h-5.43c.2,2.14,2.24,4.33,6.27,4.87l-1,2c-3.16-.49-5.43-1.91-6.63-3.85-1.18,1.94-3.44,3.36-6.6,3.85l-.93-2c4-.54,6.05-2.73,6.27-4.87h-5.43v-2h5.46v-2.21h2.48v2.21h5.49Z"/><path d="M484.13,298.06a30.4,30.4,0,0,1-.45,5.95H486v2h-6.93v7.18h-2.5V306h-6.78v-2h11.35a27,27,0,0,0,.49-5.56h-10v-2h12.46Z"/><path d="M497.88,303.29l-1.31,1.95a6.48,6.48,0,0,1-3.94-3.49,7.13,7.13,0,0,1-4.38,4l-1.31-2A5.93,5.93,0,0,0,491.3,298v-1.62h2.52v1.5A5.4,5.4,0,0,0,497.88,303.29Zm4.26,6.47c0,2.18-2.35,3.43-6.14,3.43s-6.11-1.25-6.11-3.43,2.33-3.46,6.11-3.46S502.12,307.57,502.14,309.76Zm-9.77,0c0,1,1.27,1.5,3.63,1.5s3.66-.53,3.66-1.5-1.29-1.53-3.66-1.53S492.37,308.74,492.37,309.76Zm9.71-3.93H499.6v-5.12h-3.34v-2h3.34v-3.26h2.48Z"/><path d="M507.08,315.38h-2.75a17.32,17.32,0,0,0,0-18.73h2.75a16.07,16.07,0,0,1,0,18.73Z"/><path d="M340.46,127c0,1-1.13,1.52-3.16,1.59v.87H342v.8H331.66v-.8h4.65v-.87c-2-.07-3.17-.6-3.17-1.59s1.33-1.59,3.67-1.6S340.46,125.91,340.46,127Zm.89-2.06H332.2v-.77h4.11V123h1v1.12h4.05Zm-.66,9.41h-7.77v-3.23h7.77Zm-6.78-.77h5.8v-1.68h-5.8Zm.29-6.58c0,.57.94.9,2.61.9s2.6-.33,2.6-.9-1-.89-2.6-.9S334.19,126.38,334.2,127Z"/><path d="M348.2,125.45h-1v5.22c.43,0,.83-.07,1.21-.12l.06.74a34.22,34.22,0,0,1-5.62.38l-.13-.85H344v-5.36h-1v-.83h5.2Zm-1.88,5.28v-5.28h-1.45v5.34Zm4.07,3.14h-.95v-5.5h-1.57v-.9h1.57v-4h.95Zm2.21.59h-1V123.18h1Z"/><path d="M360.3,128c0,2.4-1.21,3.92-2.89,3.92s-2.88-1.52-2.88-3.92,1.2-3.93,2.88-3.94S360.3,125.59,360.3,128Zm-4.8,0c0,1.84.78,3,1.91,3s1.92-1.19,1.92-3-.79-3-1.92-3S355.5,126.15,355.5,128Zm7.92,6.5h-1V123.18h1Z"/><path d="M372.43,131.22l-.55.79a5.88,5.88,0,0,1-3-3.46,6.45,6.45,0,0,1-3,3.74l-.59-.79a5.87,5.87,0,0,0,3-4.86v-1.47h-2.66v-.83h6.36v.83h-2.69v1.47A5.31,5.31,0,0,0,372.43,131.22Zm2.21,3.24h-1V123.18h1Z"/><path d="M380.46,132.32l-.56-.79c2.92-1.45,4.51-3.63,4.73-6.3h-4.21v-.84h5.22A8.49,8.49,0,0,1,380.46,132.32Zm8.1-4.55h1.82v.84h-1.82v5.85h-1V123.18h1Z"/><path d="M401.33,129.62H391.05v-.81h4.64v-1.37h-3.34v-3.81h7.71v.83h-6.72v2.16h6.82v.82h-3.48v1.37h4.65Zm-1.26,4.93h-1v-3h-6.89v-.81h7.88Z"/><path d="M409,128.55l-.56.77a4.61,4.61,0,0,1-2.7-2.58,4.85,4.85,0,0,1-2.89,2.92l-.54-.81a4.17,4.17,0,0,0,2.91-3.86v-1.17h1V125A3.87,3.87,0,0,0,409,128.55Zm2.72,3.78c0,1.34-1.44,2.11-3.79,2.11s-3.78-.77-3.78-2.11,1.43-2.13,3.78-2.13S411.67,131,411.67,132.33Zm-6.58,0c0,.81,1.07,1.31,2.79,1.31s2.8-.5,2.8-1.31-1.07-1.35-2.8-1.35S405.08,131.49,405.09,132.33Zm6.54-2.46h-1v-3.44h-2.51v-.83h2.51v-2.42h1Z"/><path d="M423.78,128.88H413.5v-.82h10.28Zm-1.16-3.56c0,1.28-1.47,2-4,2s-4-.7-4-2,1.48-1.94,4-1.94S422.62,124.06,422.62,125.32Zm-.16,7.06h-6.7v1.17h7v.78h-8v-2.69h6.71v-1h-6.74v-.77h7.72Zm-6.78-7.06c0,.79,1.08,1.22,3,1.22s3-.43,3-1.22-1.11-1.19-3-1.19S415.67,124.58,415.68,125.32Z"/><path d="M438.26,129.28H433.6v1.21c2.14.09,3.39.79,3.41,2s-1.46,2-3.89,2-3.9-.71-3.9-2,1.25-1.89,3.41-2v-1.21H428v-.82h10.28Zm-.91-4.76h-3.58c.06,1.27,1.93,2.25,3.92,2.46l-.37.79c-1.84-.22-3.58-1-4.2-2.31-.61,1.26-2.34,2.09-4.2,2.31l-.36-.79c2-.21,3.84-1.19,3.91-2.46h-3.55v-.81h8.43Zm-7.11,8c0,.75,1.07,1.19,2.88,1.19s2.88-.44,2.88-1.19-1.09-1.21-2.88-1.22S430.23,131.71,430.24,132.47Z"/><path d="M446.07,128.33l-.5.76a4.71,4.71,0,0,1-2.86-2.64,4.92,4.92,0,0,1-2.91,2.86l-.51-.79a4.14,4.14,0,0,0,2.9-3.78v-1.11h1v1.11A4,4,0,0,0,446.07,128.33Zm2.45,6h-7.33v-4.06h7.33Zm-6.36-.81h5.39v-2.44h-5.39Zm6.36-3.9h-1v-6.41h1Z"/><path d="M460.76,133H450.43v-.83h10.33Zm-1.06-6c0,1.88-1.77,3.11-4.13,3.1s-4.12-1.22-4.12-3.1,1.76-3.1,4.12-3.1S459.7,125.14,459.7,127Zm-7.3,0c0,1.37,1.36,2.28,3.17,2.28s3.16-.91,3.16-2.28-1.36-2.3-3.16-2.29S452.38,125.66,452.4,127Z"/><path d="M472,133.07H461.65v-.84h4.65v-2.14H463v-3.47h6.75v-1.78h-6.78V124h7.76v3.42h-6.74v1.84h7v.82h-3.67v2.14H472Z"/><path d="M486.47,133H476.14v-.85h10.33Zm-1-7.87h-1.79v4h1.77v.81h-8.38v-.81h1.76v-4h-1.79v-.82h8.43Zm-2.77,4v-4h-2.88v4Z"/><path d="M493.25,128.24H489v2.67a33.67,33.67,0,0,0,5.56-.41l.1.84a34.55,34.55,0,0,1-5.74.41H488v-4.32h4.23v-2.38H488v-.82h5.25Zm3.43,6.25h-1V123.18h1Z"/><path d="M503.42,124.94h-3.35v1.56H503v.79h-2.89v1.65a17.57,17.57,0,0,0,3.86-.31l.1.82a19.71,19.71,0,0,1-4.2.31h-.71v-5.64h4.3Zm5.1,9.28h-7.71V130.7h1v2.68h6.69ZM506,131.35h-1V127.2h-1.52v-.8H505v-3h1Zm2.19.29h-.95v-8.45h.95Z"/><path d="M515.58,125.11H511.3v5.71a26.4,26.4,0,0,0,5.16-.41l.13.87a29,29,0,0,1-5.39.38h-.89v-7.38h5.27Zm3,2.53h1.89v.84h-1.89v6h-1V123.18h1Z"/><path d="M531.37,132.93H521v-.84h10.33Zm-1.22-3.5h-7.79v-5.2H530v.82h-6.69v3.56h6.8Z"/><path d="M538,131.15l-.58.75a5.21,5.21,0,0,1-2.34-3.14,5.72,5.72,0,0,1-2.34,3.39l-.6-.76a5.58,5.58,0,0,0,2.45-4.74v-.55h-2.14v-.83h2.14v-1.68h1v1.68h2.1v.83h-2.12v.55A5.15,5.15,0,0,0,538,131.15Zm1.59,2.73h-.93v-5.4h-1.78v-.85h1.78v-4.17h.93Zm2.29.58H541V123.18h.95Z"/><path d="M553.81,129.21H543.47v-.79h10.34Zm-1.3,3.3h-6.78v1.08h7.15v.72h-8.15v-2.49h6.79v-1h-6.8v-.75h7.79Zm0-6.66h-6.66v1h6.87v.73h-7.86v-2.4h6.65v-.93h-6.69v-.72h7.69Z"/><path d="M564.67,131l-.61.8a6.1,6.1,0,0,1-2.78-3.55,6.35,6.35,0,0,1-2.84,3.77l-.63-.8a6,6,0,0,0,3-5v-2.06h1v2.06A5.68,5.68,0,0,0,564.67,131Zm2-3.27h1.89v.86h-1.89v5.84h-1V123.18h1Z"/><path d="M579.48,129.59H569.2v-.83h2.55v-1.59a1.84,1.84,0,0,1-1.41-1.68c0-1.34,1.52-2.1,4-2.1s4,.76,4,2.1a1.83,1.83,0,0,1-1.39,1.67v1.6h2.55Zm-1.26,2.85c0,1.29-1.46,2-3.88,2s-3.9-.71-3.9-2,1.45-2,3.9-2S578.21,131.15,578.22,132.44Zm-6.85-7c0,.82,1.13,1.3,3,1.3s3-.48,3-1.3-1.14-1.31-3-1.31S571.35,124.67,571.37,125.49Zm.09,7c0,.77,1.06,1.22,2.88,1.22s2.88-.45,2.88-1.22-1.09-1.22-2.88-1.23S571.44,131.67,571.46,132.44Zm4.48-3.68v-1.32a9.91,9.91,0,0,1-3.2,0v1.32Z"/><path d="M587.07,125.82h-6.71V125h2.9v-1.67h1V125h2.82Zm-.53,3.53a2.78,2.78,0,1,1-2.77-2.59A2.59,2.59,0,0,1,586.54,129.35Zm-4.58,0a1.68,1.68,0,0,0,1.81,1.73,1.72,1.72,0,0,0,1.82-1.73,1.75,1.75,0,0,0-1.82-1.76A1.71,1.71,0,0,0,582,129.35Zm7.19-1.52h1.9v.83h-1.9v5.8h-1V123.18h1Z"/><path d="M597,124.76h3v-1.58h1v6.44h-1v-1.49h-2.93a3,3,0,0,1-2.32,1,2.67,2.67,0,1,1,0-5.32A3,3,0,0,1,597,124.76Zm.1,8.67a3.36,3.36,0,0,0,1.64-2.68V130h1v.77a3.09,3.09,0,0,0,2.31,2.82l-.52.76a3.8,3.8,0,0,1-2.29-2.14,3.87,3.87,0,0,1-2.11,2.23,3.61,3.61,0,0,1-2.12-2.19,4,4,0,0,1-2.26,2.1l-.49-.76a3.26,3.26,0,0,0,2.3-2.82V130h.95v.77A3.07,3.07,0,0,0,597.14,133.43Zm-4.34-7a2,2,0,1,0,2-1.81A1.82,1.82,0,0,0,592.8,126.46Zm4.86,0a3.21,3.21,0,0,1-.12.84H600v-1.72h-2.49A2.54,2.54,0,0,1,597.66,126.46Z"/><path d="M613.15,129.16H602.87v-.83h10.28Zm-.58-2.43-.37.8a5.82,5.82,0,0,1-4.18-2.42,5.88,5.88,0,0,1-4.19,2.42l-.38-.8c2-.27,4-1.46,4-2.89v-.54h1v.54C608.53,125.23,610.59,126.48,612.57,126.73Zm-7.4,4.55h5.63V130h1v4.35h-7.63V130h1Zm5.63,2.23v-1.45h-5.63v1.45Z"/><path d="M615.81,130.69a25.72,25.72,0,0,0,5.39-.54l.14.85a26.47,26.47,0,0,1-5.6.55h-.91v-7.26h1Zm7.59,3.77h-1V123.18h1Z"/><path d="M631.08,125.11H626.8v5.71a26.5,26.5,0,0,0,5.17-.41l.13.87a29.07,29.07,0,0,1-5.4.38h-.89v-7.38h5.27Zm3,2.53h1.89v.84h-1.89v6h-1V123.18h1Z"/><path d="M636.92,132.68a.82.82,0,0,1,1.63,0,.82.82,0,1,1-1.63,0Z"/><rect class="cls-3" x="331.21" y="161.13" width="78.1" height="78.1"/><path d="M341.32,218.27l11.78-34h9.06l11.74,34h-7.56l-2.54-7.84H351.51l-2.58,7.84ZM362,204.94l-4.27-13h-.24l-4.22,13Z"/><path d="M385.86,203.3c1.83-.12,5.26-.29,6.34-.33V200.9c-.05-2.11-1.5-3.38-4.08-3.38-2.35,0-3.85,1.08-4.23,2.82h-6.62c.43-4.41,4.27-7.89,11-7.89,5.54,0,10.8,2.49,10.8,8.64v17.18h-6.57v-3.52h-.19c-1.27,2.34-3.66,4-7.46,4-4.88,0-8.5-2.54-8.5-7.61C376.38,205.46,381,203.58,385.86,203.3Zm1,10.65c3.14,0,5.4-2.11,5.35-4.79v-1.87c-1.06,0-4,.21-5.21.32-2.39.24-3.94,1.37-3.94,3.34S384.64,214,386.85,214Z"/><path d="M419.18,175.05h3.32a2.86,2.86,0,1,1,0,5.71h-1.53v2.77h-1.75Zm3,4.3a1.36,1.36,0,0,0,1.54-1.44,1.35,1.35,0,0,0-1.54-1.42h-1.25v2.86Z"/><path d="M426.63,177.17h1.67v1.1h.07a1.55,1.55,0,0,1,1.54-1.2,3.19,3.19,0,0,1,.55.06v1.55a3.08,3.08,0,0,0-.74-.1,1.31,1.31,0,0,0-1.36,1.33v3.62h-1.73Z"/><path d="M430.85,180.38a3,3,0,0,1,3.07-3.3,2.88,2.88,0,0,1,3,3.23v.49h-4.35a1.42,1.42,0,0,0,1.47,1.56,1.22,1.22,0,0,0,1.18-.65h1.65a2.64,2.64,0,0,1-2.87,1.95A3,3,0,0,1,430.85,180.38Zm4.42-.67a1.26,1.26,0,0,0-1.31-1.32,1.36,1.36,0,0,0-1.4,1.32Z"/><path d="M441.36,178.47h-1.2v3.1c0,.51.25.64.6.65a5.64,5.64,0,0,0,.69,0v1.37a4.85,4.85,0,0,1-.92.06c-1.26,0-2.11-.56-2.1-1.79v-3.35h-.88v-1.3h.88v-1.53h1.73v1.53h1.2Z"/><path d="M442.13,180.38a3,3,0,0,1,3.07-3.3,2.88,2.88,0,0,1,3,3.23v.49h-4.35a1.42,1.42,0,0,0,1.47,1.56,1.21,1.21,0,0,0,1.18-.65h1.65a2.64,2.64,0,0,1-2.87,1.95A3,3,0,0,1,442.13,180.38Zm4.42-.67a1.26,1.26,0,0,0-1.31-1.32,1.36,1.36,0,0,0-1.4,1.32Z"/><path d="M451,183.53h-1.73v-6.36h1.65v1.11H451a1.93,1.93,0,0,1,1.91-1.2,2.13,2.13,0,0,1,2.19,2.4v4.05h-1.72v-3.75a1.11,1.11,0,0,0-1.15-1.25,1.18,1.18,0,0,0-1.22,1.32Z"/><path d="M456.22,180.35c0-2.18,1.19-3.27,2.59-3.27a1.88,1.88,0,0,1,1.81,1.15h.06v-3.18h1.73v8.48H460.7v-1h-.08a1.88,1.88,0,0,1-1.81,1.13C457.36,183.64,456.22,182.48,456.22,180.35Zm4.49,0c0-1.15-.49-1.87-1.36-1.87s-1.34.76-1.34,1.87.46,1.91,1.34,1.91S460.71,181.49,460.71,180.34Z"/><path d="M465.88,179.79l1.58-.08v-.52c0-.52-.37-.84-1-.84a1,1,0,0,0-1.05.7h-1.66c.11-1.1,1.07-2,2.76-2,1.38,0,2.69.63,2.69,2.16v4.29h-1.64v-.88h0a2,2,0,0,1-1.87,1,1.87,1.87,0,0,1-2.12-1.9C463.51,180.33,464.66,179.86,465.88,179.79Zm.24,2.66a1.23,1.23,0,0,0,1.34-1.19v-.47c-.26,0-1,.05-1.3.08-.6.06-1,.34-1,.83S465.57,182.45,466.12,182.45Z"/><path d="M470.52,177.17h1.67v1.1h.07a1.55,1.55,0,0,1,1.54-1.2,3.19,3.19,0,0,1,.55.06v1.55a3.08,3.08,0,0,0-.74-.1,1.31,1.31,0,0,0-1.36,1.33v3.62h-1.73Z"/><path d="M474.75,180.35c0-2.18,1.19-3.27,2.59-3.27a1.88,1.88,0,0,1,1.81,1.15h.06v-3.18h1.73v8.48h-1.71v-1h-.08a1.89,1.89,0,0,1-1.81,1.13C475.89,183.64,474.75,182.48,474.75,180.35Zm4.49,0c0-1.15-.49-1.87-1.36-1.87s-1.35.76-1.35,1.87.47,1.91,1.35,1.91S479.24,181.49,479.24,180.34Z"/><path d="M485.15,175.05h3.37c1.88,0,2.81.9,2.81,2.18a1.8,1.8,0,0,1-1.52,1.81v.08a2,2,0,0,1,1.86,2.07c0,1.34-1,2.34-2.92,2.34h-3.6Zm4.4,2.46c0-.61-.44-1-1.25-1h-1.39v2.12h1.35C489,178.6,489.55,178.19,489.55,177.51Zm.3,3.51a1.25,1.25,0,0,0-1.41-1.22h-1.53v2.28h1.48C489.41,182.08,489.85,181.66,489.85,181Z"/><path d="M492.5,180.37a3.13,3.13,0,1,1,3.12,3.29A3,3,0,0,1,492.5,180.37Zm4.48,0c0-1.13-.46-2-1.35-2s-1.37.83-1.37,2,.47,1.94,1.37,1.94S497,181.48,497,180.37Z"/><path d="M501.58,183.53h-1.73v-8.48h1.73Z"/><path d="M502.69,180.35c0-2.18,1.18-3.27,2.59-3.27a1.86,1.86,0,0,1,1.8,1.15h.06v-3.18h1.74v8.48h-1.71v-1h-.09a1.87,1.87,0,0,1-1.8,1.13C503.83,183.64,502.69,182.48,502.69,180.35Zm4.49,0c0-1.15-.49-1.87-1.36-1.87s-1.35.76-1.35,1.87.47,1.91,1.35,1.91S507.18,181.49,507.18,180.34Z"/><path d="M418.61,211.17l1.89-5.53h1.44l1.88,5.53h-1.21l-.4-1.28h-2l-.41,1.28Zm3.31-2.17-.68-2.12h0l-.68,2.12Z"/><path d="M424.43,205.64h2.17c1.2,0,1.8.59,1.8,1.42a1.17,1.17,0,0,1-1,1.18v.06a1.27,1.27,0,0,1,1.2,1.34c0,.88-.65,1.53-1.88,1.53h-2.31Zm2.83,1.6c0-.39-.29-.67-.81-.67h-.89V208h.87A.73.73,0,0,0,427.26,207.24Zm.18,2.29a.8.8,0,0,0-.9-.79h-1v1.48h.95C427.17,210.22,427.44,209.94,427.44,209.53Z"/><path d="M431.77,206.58c-.84,0-1.4.66-1.4,1.82s.56,1.83,1.4,1.83a1.13,1.13,0,0,0,1.19-.95h1.14a2.25,2.25,0,0,1-2.35,2,2.85,2.85,0,0,1,0-5.67,2.2,2.2,0,0,1,2.35,2H433A1.13,1.13,0,0,0,431.77,206.58Z"/><path d="M434.89,211.17v-5.53h1.93a2.77,2.77,0,0,1,0,5.53Zm1.87-1c1,0,1.57-.55,1.57-1.78s-.54-1.77-1.57-1.77H436v3.55Z"/><path d="M440.27,205.64h3.65v1H441.4v1.34h2.33v.95H441.4v1.34h2.53v.95h-3.66Z"/><path d="M444.8,205.64h3.58v1h-2.46v1.34h2.23v.95h-2.23v2.29H444.8Z"/><path d="M451.58,206.58c-.84,0-1.42.66-1.42,1.82s.56,1.83,1.42,1.83a1.13,1.13,0,0,0,1.26-1.15h-1.18v-.86h2.27v.69a2.2,2.2,0,0,1-2.35,2.33,2.85,2.85,0,0,1,0-5.67,2.21,2.21,0,0,1,2.32,1.85h-1.14A1.12,1.12,0,0,0,451.58,206.58Z"/><path d="M454.75,205.64h1.13v2.29h2.35v-2.29h1.14v5.53h-1.14v-2.29h-2.35v2.29h-1.13Z"/><path d="M461.41,211.17h-1.13v-5.53h1.13Z"/><path d="M465.61,205.64v3.85a1.68,1.68,0,0,1-1.84,1.75,1.56,1.56,0,0,1-1.75-1.62h1.13a.64.64,0,0,0,.67.7c.43,0,.67-.28.67-.83v-3.85Z"/><path d="M466.52,205.64h1.13v2.45h.07l2-2.45h1.36l-2,2.47,2.05,3.06h-1.35l-1.51-2.29-.57.71v1.58h-1.13Z"/><path d="M471.62,205.64h1.12v4.58h2.35v.95h-3.47Z"/><path d="M477.21,205.64l1.51,3.75h.06l1.51-3.75h1.39v5.53h-1.09v-3.62h0l-1.42,3.59h-.75L477,207.53h0v3.64h-1.1v-5.53Z"/><path d="M487.13,211.17h-1l-2.38-3.51h0v3.51h-1.13v-5.53h1l2.37,3.51H486v-3.51h1.12Z"/><path d="M490.48,211.24A2.85,2.85,0,1,1,493,208.4,2.54,2.54,0,0,1,490.48,211.24Zm0-4.66c-.84,0-1.39.64-1.39,1.82s.55,1.83,1.39,1.83,1.39-.64,1.39-1.83S491.32,206.58,490.48,206.58Z"/><path d="M493.83,205.64H496a1.86,1.86,0,1,1,0,3.72h-1v1.81h-1.12Zm1.92,2.8a.88.88,0,0,0,1-.94.87.87,0,0,0-1-.92H495v1.86Z"/><path d="M502.73,210.62l.77,1h-1.06l-.43-.55a2.77,2.77,0,0,1-1,.17,2.85,2.85,0,1,1,2.54-2.84A2.88,2.88,0,0,1,502.73,210.62Zm-1.11-1.37.42.54a2.11,2.11,0,0,0,.4-1.39c0-1.18-.55-1.82-1.39-1.82s-1.39.64-1.39,1.82.55,1.83,1.39,1.83a3.16,3.16,0,0,0,.32,0l-.71-.95Z"/><path d="M504.41,205.64h2.13a1.73,1.73,0,0,1,1.94,1.8,1.58,1.58,0,0,1-1,1.57l1.16,2.16h-1.25l-1-2h-.87v2h-1.12Zm1.92,2.63c.67,0,1-.28,1-.83s-.32-.86-1-.86h-.8v1.69Z"/><path d="M511.42,207.54h0l1.12-1.9h1.28l-1.66,2.76,1.7,2.77h-1.31l-1.13-1.9h0l-1.13,1.9H509l1.71-2.77L509,205.64h1.28Z"/><path d="M514.32,205.64h4.45v1H517.1v4.58H516v-4.58h-1.67Z"/><path d="M524,205.64v3.59a2.26,2.26,0,0,1-4.49,0v-3.59h1.12v3.5a1.12,1.12,0,0,0,2.24,0v-3.5Z"/><path d="M527.15,209.85h.05l1.33-4.21h1.25l-1.88,5.53h-1.45l-1.88-5.53h1.26Z"/><path d="M530.05,205.64h1.24l.91,3.86h0l1-3.86h1l1,3.87h.05l.91-3.87h1.23l-1.55,5.53h-1.1l-1-3.65h0l-1,3.65h-1.1Z"/><path d="M540.22,207.54h0l1.12-1.9h1.28L541,208.4l1.69,2.77h-1.3l-1.13-1.9h0l-1.12,1.9h-1.3l1.7-2.77-1.67-2.76h1.28Z"/><path d="M544.28,205.64l1.25,2.38h.05l1.25-2.38h1.27l-2,3.56v2H545v-2l-2-3.56Z"/><path d="M548.61,210.48l2.73-3.89H548.6v-1h4.15v.69L550,210.22h2.73v.95h-4.15Z"/><path d="M420.22,217.14l1,0v-.34c0-.34-.24-.55-.65-.55a.62.62,0,0,0-.68.46h-1.06c.07-.72.69-1.28,1.77-1.28.88,0,1.72.4,1.72,1.4v2.8h-1.05V219h0a1.25,1.25,0,0,1-1.19.65,1.2,1.2,0,0,1-1.36-1.23C418.7,217.49,419.44,217.19,420.22,217.14Zm.16,1.73a.79.79,0,0,0,.85-.78v-.3l-.83.05c-.39,0-.63.22-.63.54S420,218.87,420.38,218.87Z"/><path d="M423.2,214.05h1.11v2.08h0a1.21,1.21,0,0,1,1.17-.75c.9,0,1.66.71,1.66,2.13s-.73,2.13-1.66,2.13a1.22,1.22,0,0,1-1.17-.73h0v.67h-1.1Zm1.95,4.69c.58,0,.88-.51.88-1.24s-.3-1.22-.88-1.22-.86.47-.86,1.22S424.61,218.74,425.15,218.74Z"/><path d="M427.71,217.52a1.94,1.94,0,0,1,2-2.14,1.65,1.65,0,0,1,1.81,1.57h-1a.75.75,0,0,0-.76-.69c-.53,0-.88.45-.88,1.24s.34,1.26.88,1.26a.74.74,0,0,0,.76-.69h1a1.65,1.65,0,0,1-1.81,1.59A1.94,1.94,0,0,1,427.71,217.52Z"/><path d="M432.05,217.51c0-1.42.76-2.13,1.66-2.13a1.21,1.21,0,0,1,1.16.75h0v-2.08H436v5.53h-1.09v-.67h-.05a1.22,1.22,0,0,1-1.16.73C432.78,219.64,432.05,218.89,432.05,217.51Zm2.87,0c0-.75-.31-1.22-.87-1.22s-.86.5-.86,1.22.3,1.24.86,1.24S434.92,218.25,434.92,217.5Z"/><path d="M436.74,217.52a1.94,1.94,0,0,1,2-2.14,1.86,1.86,0,0,1,1.91,2.1v.32h-2.78a.91.91,0,0,0,.93,1,.78.78,0,0,0,.76-.42h1.06a1.69,1.69,0,0,1-1.84,1.27A1.93,1.93,0,0,1,436.74,217.52Zm2.83-.43a.81.81,0,0,0-.84-.86.87.87,0,0,0-.89.86Z"/><path d="M443.49,216.28h-.81v3.3h-1.12v-3.3H441v-.85h.57v-.31a1.22,1.22,0,0,1,1.34-1.33,3.11,3.11,0,0,1,.66.07v.85l-.34,0c-.36,0-.54.15-.54.49v.25h.81Z"/><path d="M443.94,219.92H445c.06.33.36.48.81.48s.86-.22.86-.8v-.76h0a1.19,1.19,0,0,1-1.17.67c-.92,0-1.66-.65-1.66-2s.76-2.1,1.66-2.1a1.2,1.2,0,0,1,1.17.75h0v-.7h1.11v4.19c0,1-.83,1.6-2,1.6S444,220.7,443.94,219.92Zm2.77-2.43c0-.74-.32-1.21-.87-1.21s-.86.5-.86,1.21.3,1.18.86,1.18S446.71,218.22,446.71,217.49Z"/><path d="M449.78,219.58h-1.11v-5.53h1.08v2.11h0a1.22,1.22,0,0,1,1.22-.78,1.38,1.38,0,0,1,1.41,1.56v2.64h-1.11v-2.45a.71.71,0,0,0-.74-.81.77.77,0,0,0-.79.86Z"/><path d="M453.22,214.32a.61.61,0,1,1,.61.57A.59.59,0,0,1,453.22,214.32Zm0,1.11h1.11v4.15h-1.11Z"/><path d="M456.36,215.43v4.35c0,1-.58,1.35-1.53,1.35h-.23v-.88h.15c.36,0,.5-.17.5-.48v-4.34Zm-1.17-1.11a.61.61,0,1,1,.61.57A.59.59,0,0,1,455.19,214.32Z"/><path d="M457.22,214.05h1.11v3h.06l1.32-1.59H461l-1.52,1.8,1.6,2.35h-1.3l-1.12-1.69-.32.36v1.33h-1.11Z"/><path d="M462.62,219.58h-1.11v-5.53h1.11Z"/><path d="M463.48,215.43h1.06v.73h0a1.16,1.16,0,0,1,1.14-.78,1.09,1.09,0,0,1,1.11.78h0a1.23,1.23,0,0,1,1.23-.78,1.26,1.26,0,0,1,1.28,1.41v2.79h-1.11V217a.62.62,0,0,0-.64-.7.65.65,0,0,0-.66.73v2.54h-1.08V217a.61.61,0,0,0-.63-.67.7.7,0,0,0-.67.78v2.49h-1.11Z"/><path d="M471.34,219.58h-1.11v-4.15h1.06v.73h0a1.22,1.22,0,0,1,1.22-.78,1.38,1.38,0,0,1,1.4,1.56v2.64h-1.1v-2.45a.71.71,0,0,0-.74-.81.76.76,0,0,0-.78.86Z"/><path d="M474.66,217.52a2,2,0,1,1,2,2.14A1.93,1.93,0,0,1,474.66,217.52Zm2.87,0c0-.74-.3-1.28-.87-1.28s-.87.54-.87,1.28.29,1.26.87,1.26S477.53,218.24,477.53,217.52Z"/><path d="M479.36,215.43h1.09v.7h.05a1.2,1.2,0,0,1,1.16-.75c.9,0,1.65.71,1.65,2.13s-.72,2.13-1.65,2.13a1.21,1.21,0,0,1-1.16-.73h0v2.22h-1.11Zm1.95,3.31c.57,0,.87-.51.87-1.24s-.3-1.22-.87-1.22-.86.47-.86,1.22S480.76,218.74,481.31,218.74Z"/><path d="M486.73,218.91h0a1.22,1.22,0,0,1-1.16.73c-.93,0-1.66-.75-1.66-2.13s.76-2.13,1.66-2.13a1.19,1.19,0,0,1,1.16.75h.05v-.7h1.1v5.7h-1.11Zm0-1.41c0-.75-.32-1.22-.87-1.22s-.87.5-.87,1.22.3,1.24.87,1.24S486.75,218.25,486.75,217.5Z"/><path d="M488.71,215.43h1.07v.72h0a1,1,0,0,1,1-.78,2,2,0,0,1,.35,0v1a2,2,0,0,0-.47-.06.83.83,0,0,0-.87.86v2.36h-1.11Z"/><path d="M493.51,216.89l.77-1.46h1.15l-1.19,2.07,1.22,2.08h-1.14l-.81-1.45-.8,1.45h-1.15l1.21-2.08-1.17-2.07h1.15Z"/><path d="M498.21,216.28h-.77v2c0,.33.16.41.38.42l.45,0v.89a3.79,3.79,0,0,1-.6,0c-.8,0-1.35-.37-1.34-1.17v-2.18h-.56v-.85h.56v-1h1.11v1h.77Z"/><path d="M501.52,215.43h1.11v4.15h-1.07v-.75h0a1.27,1.27,0,0,1-1.24.8,1.38,1.38,0,0,1-1.38-1.56v-2.64H500v2.44a.7.7,0,0,0,.71.8.79.79,0,0,0,.79-.86Z"/><path d="M505.84,219.58h-1.25l-1.42-4.15h1.17l.85,3h.05l.85-3h1.18Z"/><path d="M507.5,215.43h1.13l.64,2.8h0l.66-2.8h1.11l.67,2.79h0l.63-2.79h1.13l-1.12,4.15h-1.17l-.71-2.64h-.05l-.71,2.64h-1.18Z"/><path d="M515.79,216.89l.77-1.46h1.15l-1.19,2.07,1.22,2.08H516.6l-.81-1.45-.8,1.45h-1.15l1.21-2.08-1.17-2.07H515Z"/><path d="M518.43,221.11v-.88l.45,0a.48.48,0,0,0,.53-.38l.07-.18L518,215.43h1.16l.86,3h0l.86-3h1.18l-1.59,4.6a1.47,1.47,0,0,1-1.54,1.1Z"/><path d="M522.63,218.9l2-2.54v0H522.7v-.9H526v.74l-1.88,2.47v0h1.95v.91h-3.42Z"/><path d="M421.23,229.19H420.1v-4.43h0l-1.25.79v-1l1.34-.86h1.07Z"/><path d="M422.48,228.36l1.95-1.83c.51-.49.78-.8.78-1.23a.85.85,0,0,0-1.7.06h-1.07a1.74,1.74,0,0,1,1.93-1.77,1.71,1.71,0,0,1,1.93,1.63c0,.63-.3,1.15-1.42,2.18l-.82.81v0h2.32v.95h-3.89Z"/><path d="M427.12,227.63h1.14c0,.41.41.69.94.69s.93-.31.92-.76-.39-.77-1-.77h-.5V226h.5c.54,0,.91-.3.91-.74a.71.71,0,0,0-.79-.71.82.82,0,0,0-.9.7h-1.08a1.79,1.79,0,0,1,2-1.61,1.67,1.67,0,0,1,1.88,1.55,1.15,1.15,0,0,1-1,1.17v.05a1.24,1.24,0,0,1,1.23,1.28c0,1-.87,1.62-2.1,1.62S427.14,228.59,427.12,227.63Z"/><path d="M432,227.3l2.29-3.63h1.42v3.62h.69v.92h-.69v1h-1.07v-1H432Zm2.65,0v-2.37h0l-1.46,2.32v0Z"/><path d="M437.15,227.63h1.1a.81.81,0,0,0,.88.73.93.93,0,0,0,1-1,1,1,0,0,0-1-1,.88.88,0,0,0-.86.47h-1l.29-3.18h3.35v.93h-2.41l-.15,1.4h0a1.34,1.34,0,0,1,1.09-.47,1.72,1.72,0,0,1,1.74,1.82,1.9,1.9,0,0,1-2.06,1.91A1.78,1.78,0,0,1,437.15,227.63Z"/><path d="M441.86,226.56c0-1.87.88-3,2.24-3a1.85,1.85,0,0,1,1.95,1.61h-1.11a.8.8,0,0,0-.84-.63c-.73,0-1.12.68-1.13,1.76h0a1.54,1.54,0,0,1,1.39-.77,1.68,1.68,0,0,1,1.7,1.78,1.9,1.9,0,0,1-2.05,1.92C442.93,229.26,441.86,228.58,441.86,226.56Zm3.16.81a1,1,0,0,0-1-1,1,1,0,0,0,0,2A1,1,0,0,0,445,227.37Z"/><path d="M449.39,224.64v0h-2.66v-.93h3.83v1l-2.29,4.57H447.1Z"/><path d="M451.12,227.7a1.4,1.4,0,0,1,1.2-1.37v0a1.22,1.22,0,0,1-1-1.22c0-.87.81-1.49,1.92-1.49s1.92.62,1.93,1.49a1.25,1.25,0,0,1-1,1.22v0a1.41,1.41,0,0,1,1.19,1.37c0,.9-.89,1.56-2.13,1.56S451.12,228.6,451.12,227.7Zm3.08-.11a.87.87,0,0,0-.95-.84.86.86,0,0,0-.95.84c0,.47.37.8.95.8A.84.84,0,0,0,454.2,227.59Zm-.13-2.4a.83.83,0,0,0-1.64,0,.82.82,0,0,0,1.64,0Z"/><path d="M460.33,226.28c0,1.88-.88,3-2.24,3a1.84,1.84,0,0,1-1.95-1.63h1.11a.8.8,0,0,0,.84.65c.74,0,1.13-.67,1.13-1.78h0a1.54,1.54,0,0,1-1.4.78,1.69,1.69,0,0,1-1.7-1.78,1.89,1.89,0,0,1,2.05-1.91C459.26,223.6,460.33,224.28,460.33,226.28Zm-3.15-.81a.94.94,0,0,0,.95,1,1,1,0,1,0,0-1.95A1,1,0,0,0,457.18,225.47Z"/><path d="M419.13,201.64l-.54-.75a4.32,4.32,0,0,0,2.66-3.47H419v-.8h3.25A5.2,5.2,0,0,1,419.13,201.64Zm4.92-3.06h1v.8h-1v3.46h-1v-6.93h1Z"/><path d="M426.48,200.34a15,15,0,0,0,2.8-.3l.09.81a16.48,16.48,0,0,1-3.26.3h-.59v-4.57h1Zm5.18-1h-1v3.5h-1v-6.93h1v2.63h1Z"/><path d="M435.42,197.34h-2.25v3a15,15,0,0,0,2.72-.22l.1.82a17.24,17.24,0,0,1-3.2.2h-.58v-4.63h3.21Zm1.91,1.15h1v.79h-1v3.59h-1v-7h1Z"/><path d="M442,199.19h-2.2v1.25a16,16,0,0,0,2.73-.2l.08.78a16.87,16.87,0,0,1-3.18.23h-.58v-2.83h2.2v-1.14h-2.21v-.79H442Zm2-.65h1v.8h-1v3.53h-1v-7h1Z"/><path d="M448.72,201.16h-3.28v-4.59h3.28Zm-2.33-.77h1.38v-3.06h-1.38Zm4.23-1.86h1v.81h-1v3.52h-1v-7h1Z"/><path d="M453,198.16h1.42v-1.7h1v4.79h-3.33v-4.79h1Zm1.42,2.3v-1.55H453v1.55Zm2.8-2h1v.81h-1v3.54h-1v-7h1Z"/><path d="M462.64,200.52l-.58.78a3.14,3.14,0,0,1-1.51-1.89,3.36,3.36,0,0,1-1.6,2l-.59-.79a3.39,3.39,0,0,0,1.7-3.16v-1h1v1A3.25,3.25,0,0,0,462.64,200.52Zm1.26-1.93h1v.82h-1v3.45h-1v-7h1Z"/><path d="M468.79,198.87c0,1.53-.76,2.48-1.8,2.48s-1.81-.95-1.8-2.48.75-2.47,1.8-2.47S468.78,197.36,468.79,198.87Zm-2.68,0c0,1,.35,1.6.88,1.6s.88-.56.88-1.6-.35-1.59-.88-1.59S466.11,197.84,466.11,198.87Zm4.43-.34h1v.81h-1v3.52h-1v-7h1Z"/><path d="M476,200.61l-.54.77a3.26,3.26,0,0,1-1.6-1.9,3.45,3.45,0,0,1-1.66,2.07l-.56-.77a3.31,3.31,0,0,0,1.72-3v-.42H471.9v-.8h3.78v.8h-1.37v.42A3.07,3.07,0,0,0,476,200.61Zm1.19-2.05h1v.82h-1v3.48h-1v-7h1Z"/><path d="M482.49,200.71l-.53.73a3,3,0,0,1-1.53-1.76,3.12,3.12,0,0,1-1.6,1.89l-.53-.76a3,3,0,0,0,1.65-2.72v-.27h-1.41V197H480v-1h1v1h1.39v.78h-1.4v.27A2.89,2.89,0,0,0,482.49,200.71Zm1.33-2.1h1v.81h-1v3.44h-1v-7h1Z"/><path d="M485.57,201.8l-.53-.73a4.65,4.65,0,0,0,2.21-2l-2,.19-.12-.83,2.43-.15a5.45,5.45,0,0,0,.14-.94h-2.21v-.77h3.17A5.15,5.15,0,0,1,485.57,201.8Zm4.89-3.22h1v.8h-1v3.46h-1v-6.93h1Z"/><path d="M495.22,197.28H493v1.14h2.17v.77H493v1.31a16.86,16.86,0,0,0,2.69-.2l.09.78a18.86,18.86,0,0,1-3.17.2H492v-4.8h3.24Zm1.88,1.26h1v.82h-1v3.5h-1v-7h1Z"/><path d="M502.25,197.33h-.61v3l.81-.08.05.7a25.43,25.43,0,0,1-4.13.28l-.11-.79H499v-3.13h-.61v-.78h3.82Zm-1.53,3.08v-3.08H500v3.11Zm3-1.86h1v.8h-1v3.51h-1v-7h1Z"/><path d="M509,197.73h-4V197h1.55V196h1V197H509Zm-.25,2a1.75,1.75,0,1,1-1.74-1.65A1.65,1.65,0,0,1,508.72,199.77Zm-2.57,0a.83.83,0,1,0,1.66,0,.83.83,0,1,0-1.66,0Zm4.23-1.14h1v.8h-1v3.43h-.94v-7h.94Z"/><rect class="cls-3" x="573.91" y="161.13" width="78.1" height="78.1"/><path d="M585.14,217.07l12.43-34H602l12.44,34H610l-3.38-9.58H593l-3.42,9.58Zm20.18-13.29-5.4-15.2h-.28l-5.4,15.2Z"/><path d="M626.91,202.33c1.62-.12,5.75-.33,6.9-.38v-2.06c0-3.24-1.93-5.12-5.78-5.12-3.23,0-5.16,1.5-5.72,3.43h-4.23c.52-4.08,4.51-6.95,10.14-6.95,3.33,0,9.58,1,9.58,9v16.81h-4v-3.48h-.19c-.85,1.74-3.19,4.09-7.6,4.09-4.84,0-8.69-2.87-8.69-7.84C617.33,204,622.5,202.66,626.91,202.33Zm-.19,11.73c4.55,0,7.09-3.05,7.09-6.24v-2.58c-1.2.09-5.21.4-6.43.47-3.66.23-6,1.55-6,4.32S623.62,214.06,626.72,214.06Z"/><path d="M662.11,175.05H665a2.71,2.71,0,1,1,0,5.4h-1.84v3.08h-1Zm2.84,4.46a1.65,1.65,0,0,0,1.89-1.77c0-1-.54-1.76-1.9-1.76h-1.78v3.53Z"/><path d="M669.24,177.17h1v1h.07a1.73,1.73,0,0,1,1.64-1.08l.53,0v1a2.88,2.88,0,0,0-.61-.07,1.51,1.51,0,0,0-1.59,1.49v4h-1Z"/><path d="M672.93,180.4c0-2,1.15-3.32,2.88-3.32,1.34,0,2.74.83,2.74,3.18v.42h-4.61a1.91,1.91,0,0,0,2,2.09,1.6,1.6,0,0,0,1.47-.73h1.08a2.49,2.49,0,0,1-2.55,1.62C674.07,183.66,672.93,182.36,672.93,180.4Zm4.61-.57a1.71,1.71,0,0,0-1.73-1.85,1.87,1.87,0,0,0-1.86,1.85Z"/><path d="M682.65,178h-1.33v3.69c0,.82.4,1,.83,1l.6,0v.94a5.93,5.93,0,0,1-.71,0A1.64,1.64,0,0,1,680.3,182v-4h-1v-.84h1v-1.53h1v1.53h1.33Z"/><path d="M683.59,180.4c0-2,1.15-3.32,2.88-3.32,1.34,0,2.74.83,2.74,3.18v.42H684.6a1.91,1.91,0,0,0,2,2.09A1.6,1.6,0,0,0,688,182h1.08a2.49,2.49,0,0,1-2.55,1.62C684.73,183.66,683.59,182.36,683.59,180.4Zm4.61-.57a1.71,1.71,0,0,0-1.73-1.85,1.87,1.87,0,0,0-1.86,1.85Z"/><path d="M691.54,183.53h-1v-6.36h1v1h.08a1.9,1.9,0,0,1,1.86-1.08c1.29,0,2.15.79,2.15,2.41v4h-1v-4a1.38,1.38,0,0,0-1.44-1.57,1.56,1.56,0,0,0-1.61,1.72Z"/><path d="M696.92,180.37c0-2,1.12-3.29,2.72-3.29a1.93,1.93,0,0,1,1.84,1.09h.07v-3.12h1v8.48h-1v-1h-.1a2,2,0,0,1-1.85,1.1C698,183.66,696.92,182.38,696.92,180.37Zm4.66,0c0-1.4-.63-2.35-1.81-2.35s-1.83,1-1.83,2.35.62,2.42,1.83,2.42S701.58,181.77,701.58,180.34Z"/><path d="M706.41,179.85l1.72-.09v-.52c0-.81-.48-1.28-1.44-1.28a1.35,1.35,0,0,0-1.43.86h-1c.12-1,1.12-1.74,2.53-1.74a2.12,2.12,0,0,1,2.39,2.25v4.2h-1v-.87h0a2,2,0,0,1-1.89,1,2,2,0,0,1-2.17-2C704,180.26,705.31,179.93,706.41,179.85Zm0,2.93a1.61,1.61,0,0,0,1.77-1.56v-.64c-.3,0-1.3.1-1.6.11-.92.06-1.5.39-1.5,1.08S705.59,182.78,706.36,182.78Z"/><path d="M710.75,177.17h1v1h.07a1.72,1.72,0,0,1,1.64-1.08l.52,0v1a2.88,2.88,0,0,0-.61-.07,1.51,1.51,0,0,0-1.59,1.49v4h-1Z"/><path d="M714.44,180.37c0-2,1.13-3.29,2.72-3.29a1.93,1.93,0,0,1,1.84,1.09h.07v-3.12h1v8.48h-1v-1H719a2,2,0,0,1-1.85,1.1C715.57,183.66,714.44,182.38,714.44,180.37Zm4.67,0c0-1.4-.64-2.35-1.82-2.35s-1.83,1-1.83,2.35.62,2.42,1.83,2.42S719.11,181.77,719.11,180.34Z"/><path d="M725,175.05h2.88c2,0,2.9,1.1,2.9,2.61a2.34,2.34,0,0,1-1.58,2.38l1.91,3.49h-1.23l-1.77-3.3H726v3.29h-1Zm2.85,4.23c1.35,0,1.88-.61,1.88-1.62s-.53-1.68-1.89-1.68H726v3.3Z"/><path d="M731.8,180.4c0-2,1.15-3.32,2.88-3.32,1.34,0,2.75.83,2.75,3.18v.42h-4.62a1.92,1.92,0,0,0,2,2.09,1.6,1.6,0,0,0,1.47-.73h1.08a2.49,2.49,0,0,1-2.55,1.62C732.94,183.66,731.8,182.36,731.8,180.4Zm4.61-.57a1.71,1.71,0,0,0-1.73-1.85,1.87,1.87,0,0,0-1.86,1.85Z"/><path d="M738.63,184.2h1.06c.14.64.73,1,1.64,1,1.09,0,1.75-.47,1.75-1.52v-1.29H743a1.93,1.93,0,0,1-1.85,1.08c-1.55,0-2.71-1.18-2.71-3.18s1.13-3.18,2.72-3.18a2,2,0,0,1,1.87,1.09h.08v-1h1v6.54c0,1.64-1.22,2.34-2.76,2.34S738.75,185.38,738.63,184.2Zm4.48-3.9c0-1.36-.64-2.31-1.82-2.31s-1.83,1-1.83,2.31.62,2.23,1.83,2.23S743.11,181.7,743.11,180.3Z"/><path d="M749.73,177.17h1v6.36h-1v-1.08h-.07a2,2,0,0,1-1.89,1.16c-1.21,0-2.06-.78-2.06-2.4v-4h1v4a1.38,1.38,0,0,0,1.39,1.5,1.65,1.65,0,0,0,1.63-1.72Z"/><path d="M753.36,183.53h-1v-8.48h1Z"/><path d="M757.05,179.85l1.72-.09v-.52c0-.81-.48-1.28-1.44-1.28a1.35,1.35,0,0,0-1.43.86h-1c.13-1,1.12-1.74,2.53-1.74a2.12,2.12,0,0,1,2.39,2.25v4.2h-1v-.87h0a2,2,0,0,1-1.9,1,2,2,0,0,1-2.17-2C754.66,180.26,756,179.93,757.05,179.85Zm0,2.93a1.61,1.61,0,0,0,1.77-1.56v-.64c-.3,0-1.3.1-1.6.11-.92.06-1.5.39-1.5,1.08S756.23,182.78,757,182.78Z"/><path d="M761.39,177.17h1v1h.07a1.72,1.72,0,0,1,1.64-1.08l.52,0v1a2.85,2.85,0,0,0-.6-.07,1.51,1.51,0,0,0-1.6,1.49v4h-1Z"/><path d="M661.3,211.17l2-5.53H664l2,5.53h-.71l-.54-1.56h-2.18l-.55,1.56Zm3.23-2.16-.86-2.48h0l-.86,2.48Z"/><path d="M666.73,205.64h1.9c1.15,0,1.68.65,1.68,1.47a1.1,1.1,0,0,1-.89,1.16v0a1.28,1.28,0,0,1,1.11,1.38c0,.83-.54,1.47-1.83,1.47h-2Zm2.93,1.47c0-.48-.31-.86-1-.86H667.4v1.81h1.21A1,1,0,0,0,669.66,207.11Zm.21,2.58a1.05,1.05,0,0,0-1.14-1H667.4v1.89h1.29C669.54,210.55,669.87,210.17,669.87,209.69Z"/><path d="M673.68,206.21c-1,0-1.75.77-1.75,2.19s.76,2.2,1.75,2.2a1.47,1.47,0,0,0,1.51-1.17h.68a2.13,2.13,0,0,1-2.19,1.81c-1.4,0-2.4-1.09-2.4-2.84s1-2.83,2.4-2.83a2.13,2.13,0,0,1,2.19,1.81h-.68A1.47,1.47,0,0,0,673.68,206.21Z"/><path d="M676.81,211.17v-5.53h1.76c1.58,0,2.52,1,2.52,2.76a2.46,2.46,0,0,1-2.59,2.77Zm1.65-.62c1.33,0,2-.81,2-2.15s-.64-2.15-1.9-2.15h-1v4.3Z"/><path d="M682.08,205.64h3.3v.61h-2.62v1.85h2.44v.6h-2.44v1.85h2.65v.62h-3.33Z"/><path d="M686.44,205.64h3.27v.61h-2.59v1.85h2.35v.6h-2.35v2.47h-.68Z"/><path d="M692.89,206.21c-1,0-1.73.77-1.73,2.19s.77,2.2,1.77,2.2a1.5,1.5,0,0,0,1.56-1.6h-1.41v-.6h2.07V209a2.12,2.12,0,0,1-2.22,2.25c-1.45,0-2.42-1.09-2.42-2.84s1-2.83,2.38-2.83a2.18,2.18,0,0,1,2.23,1.8h-.69A1.56,1.56,0,0,0,692.89,206.21Z"/><path d="M696.17,205.64h.67v2.46h2.88v-2.46h.68v5.53h-.68V208.7h-2.88v2.47h-.67Z"/><path d="M702.27,211.17h-.68v-5.53h.68Z"/><path d="M706.23,205.64v4a1.48,1.48,0,0,1-1.56,1.65,1.4,1.4,0,0,1-1.56-1.38h.67a.8.8,0,0,0,.89.77c.56,0,.87-.36.87-1v-4Z"/><path d="M707.43,205.64h.67v2.73h.07l2.42-2.73h.88l-2.27,2.5,2.27,3h-.82l-1.87-2.56-.68.78v1.78h-.67Z"/><path d="M712.2,205.64h.68v4.91h2.52v.62h-3.2Z"/><path d="M717.11,205.64l1.83,4.55H719l1.83-4.55h.81v5.53H721V207h0l-1.69,4.18h-.6L717,207h-.05v4.18h-.63v-5.53Z"/><path d="M727.16,211.17h-.64l-2.94-4.31h-.06v4.31h-.67v-5.53h.65l2.94,4.31h.06v-4.31h.66Z"/><path d="M730.56,211.24c-1.4,0-2.41-1.09-2.41-2.84s1-2.83,2.41-2.83,2.4,1.09,2.4,2.83S731.94,211.24,730.56,211.24Zm0-5c-1,0-1.75.77-1.75,2.19s.76,2.2,1.75,2.2,1.74-.77,1.74-2.2S731.54,206.21,730.56,206.21Z"/><path d="M734,205.64h1.84a1.76,1.76,0,1,1,0,3.52h-1.18v2H734Zm1.82,2.91a1.15,1.15,0,1,0,0-2.3h-1.14v2.3Z"/><path d="M742.26,210.72l.71,1h-.74l-.47-.64a2.42,2.42,0,0,1-1,.2c-1.39,0-2.4-1.09-2.4-2.84s1-2.83,2.4-2.83,2.41,1.09,2.41,2.83A3,3,0,0,1,742.26,210.72Zm-1-1.29.58.77a2.32,2.32,0,0,0,.66-1.8c0-1.42-.76-2.19-1.75-2.19S739,207,739,208.4s.77,2.2,1.75,2.2a1.57,1.57,0,0,0,.58-.1l-.8-1.07Z"/><path d="M744.17,205.64H746a1.63,1.63,0,0,1,1.86,1.7,1.52,1.52,0,0,1-1,1.55l1.22,2.28h-.78L746.16,209h-1.31v2.15h-.68ZM746,208.4c.86,0,1.21-.4,1.21-1.06s-.35-1.09-1.22-1.09h-1.14v2.15Z"/><path d="M750.58,207.92h0l1.39-2.28h.79l-1.7,2.76,1.7,2.77H752l-1.39-2.24h0l-1.39,2.24h-.8l1.75-2.77-1.75-2.76h.8Z"/><path d="M753.25,205.64h4.1v.61h-1.7v4.92H755v-4.92h-1.71Z"/><path d="M762.49,205.64v3.66a2.13,2.13,0,0,1-4.24,0v-3.66h.68v3.6a1.44,1.44,0,0,0,2.88,0v-3.6Z"/><path d="M765.53,210.27h.06l1.61-4.63h.71l-2,5.53h-.71l-2-5.53h.71Z"/><path d="M768.16,205.64h.69l1.13,4.47h0l1.15-4.47h.76l1.16,4.47h0l1.13-4.47H775l-1.49,5.53h-.7l-1.18-4.38h-.05l-1.19,4.38h-.7Z"/><path d="M777.4,207.92h.05l1.38-2.28h.8l-1.7,2.76,1.7,2.77h-.8l-1.38-2.24h-.05L776,211.17h-.79L777,208.4l-1.75-2.76h.8Z"/><path d="M780.69,205.64l1.49,2.57h.07l1.49-2.57h.78l-2,3.26v2.27h-.69V208.9l-2-3.26Z"/><path d="M785.07,210.67l2.92-4.42h-3v-.61h3.76v.5l-2.92,4.41h3v.62h-3.76Z"/><path d="M663,217.18l1.1-.06v-.34c0-.52-.3-.83-.92-.83a.86.86,0,0,0-.91.56h-.68c.08-.67.72-1.13,1.62-1.13a1.36,1.36,0,0,1,1.53,1.46v2.74h-.64V219h0a1.41,1.41,0,0,1-2.6-.61C661.49,217.45,662.32,217.23,663,217.18Zm0,1.91a1,1,0,0,0,1.13-1v-.42l-1,.08c-.59,0-1,.25-1,.7S662.5,219.09,663,219.09Z"/><path d="M665.88,214.05h.65v2h.05a1.23,1.23,0,0,1,1.18-.71c1,0,1.74.82,1.74,2.14s-.72,2.14-1.74,2.14a1.25,1.25,0,0,1-1.18-.72h-.08v.64h-.62Zm1.79,5c.77,0,1.18-.69,1.18-1.57s-.39-1.53-1.18-1.53-1.16.61-1.16,1.53S666.92,219.07,667.67,219.07Z"/><path d="M670.14,217.52a1.91,1.91,0,0,1,1.85-2.14,1.52,1.52,0,0,1,1.62,1.3H673a.93.93,0,0,0-1-.72c-.72,0-1.21.61-1.21,1.54s.47,1.57,1.21,1.57a.92.92,0,0,0,1-.72h.65a1.52,1.52,0,0,1-1.61,1.31A1.9,1.9,0,0,1,670.14,217.52Z"/><path d="M674.21,217.52c0-1.32.72-2.14,1.74-2.14a1.23,1.23,0,0,1,1.18.71h0v-2h.66v5.53h-.63v-.64h-.07a1.27,1.27,0,0,1-1.19.72C674.93,219.66,674.21,218.83,674.21,217.52Zm3,0c0-.92-.41-1.53-1.17-1.53s-1.17.67-1.17,1.53.4,1.57,1.17,1.57S677.2,218.43,677.2,217.5Z"/><path d="M678.75,217.54a1.92,1.92,0,0,1,1.85-2.16c.85,0,1.75.53,1.75,2.07v.27h-3a1.23,1.23,0,0,0,1.26,1.36,1,1,0,0,0,.94-.47h.69a1.59,1.59,0,0,1-1.63,1A1.89,1.89,0,0,1,678.75,217.54Zm3-.38a1.11,1.11,0,0,0-1.1-1.2,1.21,1.21,0,0,0-1.2,1.2Z"/><path d="M685,216h-.9v3.6h-.66V216h-.65v-.55h.65v-.56a1,1,0,0,1,1.17-1.08,3.71,3.71,0,0,1,.48.05v.59a1.69,1.69,0,0,0-.34,0c-.45,0-.65.2-.65.62v.42h.9Z"/><path d="M685.54,220h.67c.09.42.48.63,1,.63s1.13-.3,1.13-1v-.84h0a1.24,1.24,0,0,1-1.19.7c-1,0-1.73-.76-1.73-2.06s.72-2.07,1.74-2.07a1.28,1.28,0,0,1,1.19.71h0v-.66H689v4.26c0,1.07-.79,1.53-1.78,1.53S685.61,220.78,685.54,220Zm2.86-2.54c0-.89-.4-1.5-1.16-1.5s-1.17.67-1.17,1.5.4,1.46,1.17,1.46S688.4,218.38,688.4,217.47Z"/><path d="M690.71,219.58h-.65v-5.53h.65v2h0a1.18,1.18,0,0,1,1.2-.7c.83,0,1.39.5,1.39,1.56v2.64h-.65V217a.89.89,0,0,0-.93-1,1,1,0,0,0-1.06,1.12Z"/><path d="M694.26,214.31a.44.44,0,0,1,.45-.43.45.45,0,0,1,.46.43.45.45,0,0,1-.46.44A.45.45,0,0,1,694.26,214.31Zm.12,1.12H695v4.15h-.65Z"/><path d="M696.7,215.43v4.44a1.1,1.1,0,0,1-1.18,1.26h-.14v-.61h.13c.37,0,.55-.23.55-.65v-4.44Zm-.78-1.12a.44.44,0,0,1,.45-.43.45.45,0,0,1,.46.43.45.45,0,0,1-.46.44A.45.45,0,0,1,695.92,214.31Z"/><path d="M697.73,214.05h.65v3.21h.07l1.76-1.83h.8l-1.72,1.77,1.85,2.38h-.82l-1.51-2-.43.41v1.55h-.65Z"/><path d="M702.35,219.58h-.65v-5.53h.65Z"/><path d="M703.37,215.43H704v.65h0a1.2,1.2,0,0,1,2.18,0h0a1.28,1.28,0,0,1,1.22-.7c.73,0,1.25.45,1.25,1.43v2.77h-.65v-2.77a.76.76,0,0,0-.82-.84.85.85,0,0,0-.9.91v2.7h-.65v-2.83a.75.75,0,0,0-.8-.78,1,1,0,0,0-.91,1v2.59h-.65Z"/><path d="M710.43,219.58h-.65v-4.15h.62v.65h.06a1.2,1.2,0,0,1,1.19-.7c.83,0,1.37.51,1.37,1.56v2.64h-.64V217a.9.9,0,0,0-.92-1,1,1,0,0,0-1,1.12Z"/><path d="M713.86,217.52a1.87,1.87,0,1,1,1.86,2.14A1.9,1.9,0,0,1,713.86,217.52Zm3.07,0c0-.82-.39-1.56-1.21-1.56s-1.21.74-1.21,1.56.38,1.56,1.21,1.56S716.93,218.35,716.93,217.52Z"/><path d="M718.42,215.43H719v.66h.08a1.23,1.23,0,0,1,1.17-.71c1,0,1.74.82,1.74,2.14s-.71,2.14-1.73,2.14a1.24,1.24,0,0,1-1.18-.72h-.06v2.19h-.64Zm1.79,3.64c.78,0,1.17-.69,1.17-1.57S721,216,720.21,216s-1.16.61-1.16,1.53S719.46,219.07,720.21,219.07Z"/><path d="M725.64,218.94h0a1.25,1.25,0,0,1-1.18.72c-1,0-1.74-.83-1.74-2.14s.72-2.14,1.74-2.14a1.23,1.23,0,0,1,1.18.71h.07v-.66h.63v5.7h-.65Zm0-1.44c0-.92-.41-1.53-1.16-1.53s-1.18.67-1.18,1.53.4,1.57,1.18,1.57S725.66,218.43,725.66,217.5Z"/><path d="M727.32,215.43h.62v.64h0a1.11,1.11,0,0,1,1.06-.71l.33,0V216a2.08,2.08,0,0,0-.39,0,1,1,0,0,0-1,1v2.61h-.64Z"/><path d="M731.58,217.12l1-1.69h.74L732,217.5l1.31,2.08h-.74l-1-1.61-1,1.61h-.74l1.28-2.08-1.28-2.07h.74Z"/><path d="M735.85,216H735v2.4c0,.54.26.62.54.62h.38v.61a4.16,4.16,0,0,1-.45,0,1.06,1.06,0,0,1-1.12-1.08V216h-.62v-.55h.62v-1H735v1h.86Z"/><path d="M739.26,215.43h.63v4.15h-.63v-.71h0a1.27,1.27,0,0,1-1.21.76c-.77,0-1.32-.51-1.32-1.57v-2.63h.65V218a.89.89,0,0,0,.88,1,1.07,1.07,0,0,0,1-1.13Z"/><path d="M742.78,219.58h-.67l-1.5-4.15h.7l1.11,3.29h.05l1.11-3.29h.7Z"/><path d="M744.67,215.43h.69l.87,3.16h0l.87-3.16h.69l.85,3.15h0l.87-3.15h.68L749,219.58h-.64l-.88-3.16h-.06l-.88,3.16h-.65Z"/><path d="M752.42,217.12l1-1.69h.74l-1.31,2.07,1.31,2.08h-.74l-1-1.61-1,1.61h-.75L752,217.5l-1.29-2.07h.75Z"/><path d="M755,221.12v-.59h.32c.26,0,.48,0,.69-.62l.12-.31-1.51-4.18h.71l1.11,3.29h.05l1.11-3.29h.7l-1.72,4.74a1.25,1.25,0,0,1-1.22,1Z"/><path d="M758.85,219.08l2.3-3v0h-2.22v-.61H762V216l-2.23,3v0h2.3v.61h-3.21Z"/><path d="M663.6,229.19h-.68v-4.81h0l-1.33.89v-.69l1.36-.91h.68Z"/><path d="M665,228.68l1.85-2c.65-.69,1-1.07,1-1.58a1.07,1.07,0,0,0-2.14.1h-.64a1.61,1.61,0,0,1,1.72-1.63,1.58,1.58,0,0,1,1.69,1.53c0,.62-.29,1.1-1.25,2.11l-1.24,1.3v.05h2.59v.61h-3.53Z"/><path d="M669.54,227.8h.68c0,.53.56.85,1.21.85s1.23-.39,1.23-1-.47-1-1.32-1h-.44v-.61h.44c.66,0,1.12-.37,1.12-.94a.92.92,0,0,0-1-.93,1,1,0,0,0-1.14.87h-.66a1.66,1.66,0,0,1,1.81-1.46,1.53,1.53,0,0,1,1.66,1.48,1.24,1.24,0,0,1-.93,1.25v0a1.27,1.27,0,0,1,1.14,1.33,1.72,1.72,0,0,1-1.9,1.57C670.35,229.26,669.58,228.68,669.54,227.8Z"/><path d="M674.16,227.5l2.45-3.83h.83v3.79h.76v.6h-.76v1.13h-.64v-1.13h-2.64Zm2.64,0v-2.93h-.07l-1.84,2.88v.05Z"/><path d="M679.1,227.8h.65a1.06,1.06,0,0,0,1.12.86,1.18,1.18,0,0,0,1.21-1.22,1.22,1.22,0,0,0-1.26-1.25,1,1,0,0,0-1,.5h-.66l.39-3h2.94v.61H680.1l-.2,1.61H680a1.65,1.65,0,0,1,1-.32,1.77,1.77,0,0,1,1.8,1.86,1.79,1.79,0,0,1-1.87,1.83A1.62,1.62,0,0,1,679.1,227.8Z"/><path d="M683.59,226.64c0-1.95.79-3,2.06-3a1.7,1.7,0,0,1,1.77,1.46h-.67a1.08,1.08,0,0,0-1.1-.85c-.89,0-1.42.78-1.42,2.1h.06a1.68,1.68,0,0,1,1.4-.73,1.77,1.77,0,0,1,1.77,1.83,1.8,1.8,0,0,1-1.89,1.86C684.62,229.25,683.59,228.68,683.59,226.64Zm3.22.77a1.22,1.22,0,0,0-1.23-1.24,1.27,1.27,0,0,0-1.26,1.25,1.25,1.25,0,0,0,2.49,0Z"/><path d="M691.06,224.31v0h-2.88v-.61h3.57v.64l-2.48,4.88h-.71Z"/><path d="M692.41,227.72a1.37,1.37,0,0,1,1.11-1.4v0a1.21,1.21,0,0,1-.9-1.24,1.75,1.75,0,0,1,3.45,0,1.24,1.24,0,0,1-.9,1.24v0a1.41,1.41,0,0,1,1.11,1.4c0,.9-.81,1.54-1.94,1.54S692.4,228.62,692.41,227.72Zm3.19,0a1.14,1.14,0,0,0-1.26-1.07,1.12,1.12,0,0,0-1.25,1.07c0,.58.47,1,1.25,1S695.6,228.27,695.6,227.69Zm-.19-2.58a1.07,1.07,0,1,0-1.07.93A1,1,0,0,0,695.41,225.11Z"/><path d="M701,226.21c0,2-.79,3-2.07,3a1.68,1.68,0,0,1-1.76-1.47h.67a1.05,1.05,0,0,0,1.09.86c.89,0,1.43-.77,1.44-2.12h-.08a1.65,1.65,0,0,1-1.39.74,1.78,1.78,0,0,1-1.78-1.83,1.8,1.8,0,0,1,1.9-1.85C699.93,223.6,701,224.17,701,226.21Zm-3.22-.78a1.2,1.2,0,0,0,1.22,1.23,1.26,1.26,0,0,0,1.26-1.24,1.24,1.24,0,0,0-2.48,0Z"/><path d="M661.81,201.48l-.33-.47a4.6,4.6,0,0,0,2.8-3.79h-2.49v-.5h3.09A5.1,5.1,0,0,1,661.81,201.48Zm4.79-2.73h1.08v.5H666.6v3.52H666V196h.58Z"/><path d="M668.94,200.54a14.66,14.66,0,0,0,3.07-.31l.08.51a15.31,15.31,0,0,1-3.2.31h-.53v-4.39h.58Zm5.38-1.34h-1.08v3.57h-.58V196h.58v2.71h1.08Z"/><path d="M678.13,197.15H675.6v3.43a15.86,15.86,0,0,0,3-.24l.08.52a16.65,16.65,0,0,1-3.19.22H675v-4.43h3.12Zm1.75,1.52H681v.51h-1.12v3.61h-.58V196h.58Z"/><path d="M684.66,199.05h-2.44v1.58a15.86,15.86,0,0,0,3.12-.23l.06.49a16.84,16.84,0,0,1-3.23.26h-.53v-2.6h2.43v-1.43h-2.45v-.5h3Zm1.86-.36h1.12v.5h-1.12v3.6h-.58V196h.58Z"/><path d="M691.36,201.05h-3.08v-4.37h3.08Zm-2.51-.49h1.92v-3.4h-1.92Zm4.32-1.86h1.11v.52h-1.11v3.55h-.59V196h.59Z"/><path d="M695.5,198.36h2v-1.79H698v4.58h-3.12v-4.58h.58Zm2,2.28v-1.8h-2v1.8Zm2.35-2h1.11v.52h-1.11v3.59h-.59V196h.59Z"/><path d="M705.25,200.71l-.37.48a3.64,3.64,0,0,1-1.64-2.13,3.83,3.83,0,0,1-1.68,2.26l-.38-.48a3.59,3.59,0,0,0,1.76-3v-1.23h.58v1.23A3.41,3.41,0,0,0,705.25,200.71Zm1.2-2h1.11v.52h-1.11v3.51h-.59V196h.59Z"/><path d="M711.4,198.88c0,1.44-.71,2.36-1.69,2.36s-1.68-.92-1.68-2.36.69-2.36,1.68-2.36S711.39,197.44,711.4,198.88Zm-2.82,0c0,1.11.47,1.82,1.13,1.82s1.12-.71,1.12-1.82-.45-1.82-1.12-1.83S708.58,197.77,708.58,198.88Zm4.51-.18h1.12v.52h-1.12v3.55h-.59V196h.59Z"/><path d="M718.56,200.83l-.34.47a3.56,3.56,0,0,1-1.68-2.1,3.9,3.9,0,0,1-1.73,2.27l-.36-.48a3.54,3.54,0,0,0,1.79-2.92v-.88h-1.55v-.5h3.63v.5h-1.5v.88A3.28,3.28,0,0,0,718.56,200.83Zm1.17-2.09h1.12v.51h-1.12v3.52h-.59V196h.59Z"/><path d="M725.09,200.87l-.34.47a3.33,3.33,0,0,1-1.6-2,3.47,3.47,0,0,1-1.67,2.11l-.34-.47a3.18,3.18,0,0,0,1.71-2.79v-.54h-1.53v-.49h1.53v-1h.59v1h1.5v.49h-1.52v.54A3.1,3.1,0,0,0,725.09,200.87Zm1.28-2.1h1.12v.51h-1.12v3.49h-.59V196h.59Z"/><path d="M728.24,201.65l-.33-.46a4.77,4.77,0,0,0,2.42-2.32l-2.29.22-.1-.52,2.57-.18a5.79,5.79,0,0,0,.21-1.2h-2.44v-.49h3A5.06,5.06,0,0,1,728.24,201.65Zm4.77-2.9h1.08v.5H733v3.52h-.59V196H733Z"/><path d="M737.91,197.11h-2.54v1.4h2.39V199h-2.39v1.64a16.94,16.94,0,0,0,3-.22l.07.5a19.57,19.57,0,0,1-3.19.22h-.52v-4.53h3.13Zm1.74,1.61h1.12v.51h-1.12v3.54h-.59V196h.59Z"/><path d="M745,197.22h-.74v3.27l1.06-.1,0,.44a28.68,28.68,0,0,1-4.19.26l-.08-.51h.9v-3.35h-.73v-.49H745Zm-1.31,3.3v-3.3h-1.14v3.35Zm2.64-1.81h1.12v.51h-1.12v3.55h-.59V196h.59Z"/><path d="M751.7,197.58h-4v-.5h1.72v-1H750v1h1.67Zm-.32,2.12a1.64,1.64,0,1,1-1.63-1.56A1.53,1.53,0,0,1,751.38,199.7Zm-2.71,0a1.08,1.08,0,0,0,2.15,0,1.08,1.08,0,0,0-2.15,0Zm4.26-.91h1.12v.49h-1.12v3.49h-.59V196h.59Z"/><rect class="cls-4" x="336.32" y="342.03" width="118.08" height="35.74"/><path class="cls-2" d="M355.76,365.52l3.89-10.6H361l3.88,10.6h-1.39l-1.06-3h-4.26l-1.07,3Zm6.3-4.14-1.68-4.75h-.09l-1.68,4.75Z"/><path class="cls-2" d="M366.35,354.92h3.73c2.22,0,3.26,1.24,3.26,2.81a2.13,2.13,0,0,1-1.73,2.23v.1a2.49,2.49,0,0,1,2.16,2.65c0,1.6-1.06,2.81-3.56,2.81h-3.86Zm5.73,2.83c0-.93-.61-1.66-2-1.66h-2.41v3.47H370A1.87,1.87,0,0,0,372.08,357.75Zm.41,4.95a2,2,0,0,0-2.22-2h-2.6v3.65h2.52C371.85,364.35,372.49,363.62,372.49,362.7Z"/><path class="cls-2" d="M379.92,365.67c-2.73,0-4.69-2.09-4.69-5.45s2-5.45,4.69-5.45,4.69,2.1,4.69,5.45S382.63,365.67,379.92,365.67Zm0-9.67c-1.92,0-3.41,1.48-3.41,4.22s1.49,4.22,3.41,4.22,3.41-1.48,3.41-4.22S381.84,356,379.92,356Z"/><path class="cls-2" d="M394.8,354.92v7c0,2.19-1.62,3.78-4.13,3.78s-4.13-1.59-4.13-3.78v-7h1.32v6.91a2.81,2.81,0,0,0,5.62,0v-6.91Z"/><path class="cls-2" d="M396.56,354.92h8v1.17h-3.33v9.43H399.9v-9.43h-3.34Z"/><path class="cls-2" d="M415.47,354.92v7.57a2.87,2.87,0,0,1-3.05,3.18c-1.75,0-3-1-3-2.65h1.31a1.54,1.54,0,0,0,1.72,1.48c1.1,0,1.72-.69,1.72-2v-7.57Z"/><path class="cls-2" d="M418.42,354.92l2.91,4.92h.13l2.92-4.92h1.52l-3.84,6.25v4.35h-1.33v-4.35l-3.82-6.25Z"/><path class="cls-2" d="M427.32,354.92h3.6c2.5,0,3.62,1.48,3.62,3.37s-1.12,3.38-3.6,3.38h-2.3v3.85h-1.32Zm3.56,5.58a2.06,2.06,0,0,0,2.36-2.21c0-1.28-.67-2.2-2.37-2.2h-2.23v4.41Z"/><rect class="cls-4" x="336.32" y="397.05" width="118.08" height="35.74"/><path class="cls-2" d="M370.66,420.54l3.88-10.6h1.39l3.89,10.6h-1.4l-1.05-3h-4.26l-1.07,3Zm6.3-4.14-1.68-4.75h-.09l-1.69,4.75Z"/><path class="cls-2" d="M381.25,409.94h3.61c2.49,0,3.61,1.37,3.61,3.26a2.91,2.91,0,0,1-2,3l2.38,4.36h-1.53l-2.22-4.13a1.1,1.1,0,0,1-.26,0h-2.3v4.11h-1.32Zm3.56,5.28c1.69,0,2.36-.76,2.36-2s-.67-2.09-2.37-2.09h-2.23v4.11Z"/><path class="cls-2" d="M389.79,409.94h8v1.17h-3.33v9.43h-1.33v-9.43h-3.34Z"/><path class="cls-2" d="M400.87,420.54h-1.32v-10.6h1.32Z"/><path class="cls-2" d="M406.65,411c-1.4,0-2.33.74-2.33,1.75s1.25,1.52,2.05,1.72l1.06.3c1.14.29,3,.95,3,2.93,0,1.72-1.39,3.07-3.85,3.07-2.29,0-3.71-1.18-3.82-2.94h1.34c.12,1.18,1.22,1.74,2.48,1.74,1.46,0,2.56-.74,2.56-1.9s-1-1.42-2.09-1.75l-1.31-.35c-1.67-.48-2.69-1.33-2.69-2.77,0-1.78,1.6-3,3.65-3s3.53,1.2,3.59,2.81H409C408.88,411.56,407.93,411,406.65,411Z"/><path class="cls-2" d="M411.74,409.94h8v1.17h-3.32v9.43h-1.33v-9.43h-3.34Z"/><rect class="cls-4" x="336.32" y="452.07" width="118.08" height="35.74"/><path class="cls-2" d="M370.44,475.56l3.88-10.6h1.39l3.89,10.6h-1.39l-1.06-3h-4.26l-1.07,3Zm6.3-4.14-1.68-4.75H375l-1.69,4.75Z"/><path class="cls-2" d="M381,465h1.32v9.43h4.92v1.17H381Z"/><path class="cls-2" d="M389,465h3.72c2.23,0,3.27,1.24,3.27,2.81a2.14,2.14,0,0,1-1.73,2.23v.1a2.47,2.47,0,0,1,2.15,2.65c0,1.6-1.05,2.81-3.56,2.81H389Zm5.73,2.82c0-.92-.62-1.65-2-1.65h-2.4v3.47h2.36A1.87,1.87,0,0,0,394.76,467.78Zm.41,5a2.05,2.05,0,0,0-2.23-2h-2.59v3.65h2.52C394.52,474.39,395.17,473.66,395.17,472.73Z"/><path class="cls-2" d="M406.58,465v7c0,2.19-1.63,3.78-4.13,3.78s-4.13-1.59-4.13-3.78v-7h1.32v6.91a2.81,2.81,0,0,0,5.62,0V465Z"/><path class="cls-2" d="M410.5,465l3.58,8.73h.13l3.58-8.73h1.58v10.6h-1.25v-8H418l-3.3,8h-1.17l-3.29-8h-.09v8h-1.25V465Z"/><rect class="cls-4" x="336.32" y="507.09" width="118.08" height="35.74"/><path class="cls-2" d="M352.25,520l3.58,8.74H356l3.57-8.74h1.59v10.61h-1.25v-8h-.1l-3.3,8H355.3l-3.3-8h-.08v8h-1.25V520Z"/><path class="cls-2" d="M371.72,520v7c0,2.18-1.62,3.78-4.13,3.78s-4.13-1.6-4.13-3.78v-7h1.32v6.92a2.81,2.81,0,0,0,5.62,0V520Z"/><path class="cls-2" d="M377.51,521c-1.41,0-2.33.73-2.33,1.74s1.24,1.53,2.05,1.73l1,.29c1.15.3,3,1,3,2.93,0,1.73-1.39,3.08-3.86,3.08-2.28,0-3.7-1.19-3.82-2.94H375c.12,1.18,1.21,1.74,2.47,1.74,1.47,0,2.57-.75,2.57-1.9s-1-1.43-2.1-1.75l-1.3-.35c-1.67-.48-2.7-1.33-2.7-2.77,0-1.79,1.6-3,3.65-3s3.53,1.2,3.59,2.81h-1.29C379.73,521.6,378.78,521,377.51,521Z"/><path class="cls-2" d="M384.5,530.58h-1.32V520h1.32Z"/><path class="cls-2" d="M391.12,521.06c-1.92,0-3.42,1.48-3.42,4.22s1.5,4.22,3.42,4.22a2.89,2.89,0,0,0,3-2.25h1.31a4.14,4.14,0,0,1-4.27,3.48c-2.73,0-4.69-2.1-4.69-5.45s2-5.45,4.69-5.45a4.14,4.14,0,0,1,4.27,3.48h-1.31A2.88,2.88,0,0,0,391.12,521.06Z"/><path class="cls-2" d="M404.61,528.87h.11l3.14-8.9h1.39l-3.88,10.61H404L400.1,520h1.39Z"/><path class="cls-2" d="M412,530.58h-1.31V520H412Z"/><path class="cls-2" d="M414.35,530.58V520h3.43c3.09,0,4.92,2,4.92,5.29s-1.83,5.32-5.06,5.32Zm3.21-1.17c2.6,0,3.85-1.57,3.85-4.15s-1.25-4.11-3.72-4.11h-2v8.26Z"/><path class="cls-2" d="M424.63,520h6.43v1.18H426v3.54h4.78v1.16H426v3.56h5.19v1.17h-6.51Z"/><path class="cls-2" d="M437.42,530.73c-2.72,0-4.69-2.1-4.69-5.45s2-5.45,4.69-5.45,4.69,2.09,4.69,5.45S440.13,530.73,437.42,530.73Zm0-9.67c-1.92,0-3.41,1.48-3.41,4.22s1.49,4.22,3.41,4.22,3.41-1.48,3.41-4.22S439.34,521.06,437.42,521.06Z"/><rect class="cls-4" x="336.32" y="562.11" width="118.08" height="35.74"/><path class="cls-2" d="M361.26,585.6,365.14,575h1.39l3.88,10.61H369l-1-3H363.7l-1.07,3Zm6.3-4.15-1.69-4.74h-.09l-1.68,4.74Z"/><path class="cls-2" d="M380.11,575v7c0,2.18-1.63,3.78-4.13,3.78s-4.13-1.6-4.13-3.78v-7h1.32v6.92a2.81,2.81,0,0,0,5.62,0V575Z"/><path class="cls-2" d="M382.45,585.6V575h3.43c3.09,0,4.92,2,4.92,5.29s-1.83,5.32-5.05,5.32Zm3.21-1.17c2.61,0,3.85-1.57,3.85-4.15s-1.24-4.11-3.72-4.11h-2v8.26Z"/><path class="cls-2" d="M394.05,585.6h-1.31V575h1.31Z"/><path class="cls-2" d="M395.81,575h8v1.18h-3.32v9.43h-1.34v-9.43h-3.34Z"/><path class="cls-2" d="M406.89,585.6h-1.32V575h1.32Z"/><path class="cls-2" d="M413.51,585.75c-2.73,0-4.69-2.1-4.69-5.45s2-5.45,4.69-5.45,4.69,2.09,4.69,5.45S416.22,585.75,413.51,585.75Zm0-9.67c-1.92,0-3.42,1.48-3.42,4.22s1.5,4.21,3.42,4.21,3.41-1.47,3.41-4.21S415.43,576.08,413.51,576.08Z"/><path class="cls-2" d="M428.55,585.6h-1.26l-5.74-8.26h-.1v8.26h-1.32V575h1.27l5.75,8.28h.1V575h1.3Z"/><rect class="cls-4" x="336.32" y="617.12" width="118.08" height="35.74"/><path class="cls-2" d="M352,631.1c-1.92,0-3.41,1.48-3.41,4.21s1.49,4.22,3.41,4.22a2.89,2.89,0,0,0,3-2.24h1.32a4.14,4.14,0,0,1-4.28,3.47c-2.73,0-4.69-2.09-4.69-5.45s2-5.44,4.69-5.44a4.14,4.14,0,0,1,4.28,3.48h-1.32A2.88,2.88,0,0,0,352,631.1Z"/><path class="cls-2" d="M362.35,640.76c-2.73,0-4.69-2.09-4.69-5.45s2-5.44,4.69-5.44S367,632,367,635.31,365.06,640.76,362.35,640.76Zm0-9.66c-1.92,0-3.41,1.48-3.41,4.21s1.49,4.22,3.41,4.22,3.41-1.48,3.41-4.22S364.27,631.1,362.35,631.1Z"/><path class="cls-2" d="M377.39,640.62h-1.26l-5.74-8.26h-.1v8.26H369V630h1.28l5.74,8.28h.1V630h1.3Z"/><path class="cls-2" d="M379.15,630h8v1.17h-3.33v9.44h-1.33v-9.44h-3.34Z"/><path class="cls-2" d="M386.75,640.62,390.64,630H392l3.88,10.61h-1.39l-1.06-3H389.2l-1.07,3Zm6.3-4.15-1.68-4.74h-.09l-1.68,4.74Z"/><path class="cls-2" d="M401.12,631.1c-1.91,0-3.41,1.48-3.41,4.21s1.5,4.22,3.41,4.22a2.88,2.88,0,0,0,3-2.24h1.32a4.13,4.13,0,0,1-4.28,3.47c-2.72,0-4.68-2.09-4.68-5.45s2-5.44,4.68-5.44a4.14,4.14,0,0,1,4.28,3.48h-1.32A2.86,2.86,0,0,0,401.12,631.1Z"/><path class="cls-2" d="M406.66,630h8v1.17h-3.33v9.44H410v-9.44h-3.34Z"/><path class="cls-2" d="M425.57,630v7.58a2.86,2.86,0,0,1-3,3.17c-1.76,0-3-1-3-2.65h1.31a1.54,1.54,0,0,0,1.73,1.48c1.09,0,1.71-.69,1.71-2V630Z"/><path class="cls-2" d="M428.52,630l2.91,4.92h.13l2.92-4.92H436l-3.84,6.26v4.35h-1.33v-4.35L427,630Z"/><path class="cls-2" d="M437.42,630H441c2.49,0,3.61,1.48,3.61,3.37s-1.12,3.39-3.6,3.39h-2.3v3.85h-1.32Zm3.56,5.58a2.06,2.06,0,0,0,2.36-2.21c0-1.27-.67-2.2-2.37-2.2h-2.23v4.41Z"/></svg>