<svg id="Layer_1" data-name="Layer 1" xmlns="http://www.w3.org/2000/svg" viewBox="0 0 112.89 107.7"><defs><style>.cls-1{fill:#f4e73f;}.cls-2{fill:#fff5bb;}</style></defs><title>별</title><path class="cls-1" d="M215.35,174.65c-1.85.85-33.26-17.82-35.06-18s-32.58,19.53-34.69,18.68,6.66-37,6.28-38.89-28.59-24.5-28.49-27.22,37.76-5.38,38.94-6.06,15-35.33,17.08-35.5,16.49,34.49,17.79,35.16,37.79,2.89,39,5.28-27.13,26.16-27.94,27.78S217.2,173.8,215.35,174.65Z" transform="translate(-123.39 -67.67)"/><path class="cls-2" d="M177,85.1q-2.65,6.66-5.8,13.12a1.55,1.55,0,0,0,.54,2,1.53,1.53,0,0,0,2.06-.54q3.3-6.8,6.09-13.84a1.5,1.5,0,0,0-1-1.84,1.53,1.53,0,0,0-1.85,1Z" transform="translate(-123.39 -67.67)"/><path class="cls-2" d="M137.65,113.18l11.92-1.36a1.54,1.54,0,0,0,1.5-1.5,1.51,1.51,0,0,0-1.5-1.5l-11.92,1.36a1.54,1.54,0,0,0-1.5,1.5,1.51,1.51,0,0,0,1.5,1.5Z" transform="translate(-123.39 -67.67)"/><path class="cls-2" d="M180.13,81.46a1.5,1.5,0,0,0,0-3,1.5,1.5,0,0,0,0,3Z" transform="translate(-123.39 -67.67)"/><path class="cls-2" d="M155.35,110.93a1.5,1.5,0,0,0,0-3,1.5,1.5,0,0,0,0,3Z" transform="translate(-123.39 -67.67)"/></svg>